<svg xmlns="http://www.w3.org/2000/svg" 
    xmlns:xlink="http://www.w3.org/1999/xlink" width="165px" height="69px" viewBox="0 0 165 69" version="1.1">
    <!-- Generator: Sketch 62 (91390) - https://sketch.com -->
    <title>logo-mb</title>
    <desc>Created with Sketch.</desc>
    <g id="Symbols" stroke="none" stroke-width="1" fill="none" fill-rule="evenodd">
        <g id="#-FOOTER" transform="translate(-150.000000, -346.000000)" fill-rule="nonzero">
            <g id="Group-5">
                <g transform="translate(0.000000, 150.000000)">
                    <g id="Group-4" transform="translate(148.000000, 196.000000)">
                        <g id="Group-2" transform="translate(1.000000, 0.000000)">
                            <g id="Group-47">
                                <g id="Group-46" transform="translate(0.000000, 0.000000)">
                                    <g id="logo-mb" transform="translate(1.000000, 0.000000)">
                                        <path d="M145.619899,20.2122686 C144.044066,20.1675508 142.4672,20.2452525 140.902724,20.4447124 L140.902724,28.9246054 L141.262366,28.9246054 C141.262366,28.9246054 143.23622,29.096786 145.44426,29.096786 C149.090871,29.096786 151.206909,28.8126881 152.486568,27.6504692 C153.788232,26.4496082 154.132619,24.4928504 153.322947,22.8982855 C152.060015,20.315577 148.112308,20.1778325 145.594808,20.1778325 M140.885996,47.0207833 C142.99367,47.1585278 145.276984,47.2532271 147.577025,47.1671368 C149.358512,47.0982646 151.708736,46.9605201 153.381493,45.2042783 C154.881088,43.6326217 155.14999,41.2125075 154.033869,39.3329209 C152.996759,37.5250249 150.939268,36.646904 145.929359,36.7502123 C144.252922,36.7620957 142.578097,36.8597854 140.911087,37.0429193 L140.885996,47.0207833 Z M145.067889,55.9397368 C139.79034,55.9397368 134.855706,55.8192104 131,55.5953757 L131,12.4038798 C132.338206,12.2833534 136.495008,12.1886541 142.366386,12.0423006 C145.691803,11.913055 149.021849,12.0801188 152.319292,12.5416243 C158.575405,13.5574896 160.875446,16.6309128 161.854009,18.3527185 C162.914689,20.0759512 163.412848,22.1028855 163.275853,24.1379856 C163.190925,27.0287422 161.790781,29.7102651 159.495421,31.3781786 L159.010322,31.7741939 L159.562332,32.0582918 C161.247341,32.9715142 162.621615,34.3920912 163.501675,36.1303623 C164.512908,38.0503378 165.028397,40.2053641 164.998793,42.389126 C164.998793,47.0466104 163.376219,50.5763121 160.072523,52.9351859 C157.145197,55.0271798 153.063669,56 145.109708,56" id="_Compound_Path_" fill="#141FCE"/>
                                        <path d="M120.652567,13 L110.780188,13 C109.930586,14.8416335 103.719993,27.690239 100.890817,35.02251 L100.695409,35.5278884 L100.364064,35.5278884 L100.168655,35.02251 C97.3394794,27.690239 91.1713666,14.8416335 90.2792842,13 L80.3474331,13 C78.2064353,28.538247 77.1444324,52.5651394 77,56 L86.8638829,56 C86.9573391,53.1219124 87.5435647,34.9968127 87.9598698,30.9195219 L88.0618221,29.8916335 L88.3082068,29.8916335 L88.6990239,30.7996016 C91.9869848,38.3631474 96.2265004,48.7876494 96.9231743,50.5007968 L104.076826,50.5007968 C104.7735,48.7876494 109.013015,38.3888446 112.300976,30.7996016 L112.691793,29.8916335 L112.938178,29.8916335 L113.04013,30.9195219 C113.447939,34.9968127 114.042661,53.1219124 114.136117,56 L124,56 C123.855568,52.5737052 122.793565,28.5296813 120.652567,13" id="_Path_" fill="#141FCE"/>
                                        <path d="M14.6011018,20.2822225 L26.4479504,25.6155045 C27.1588477,25.9546895 27.9492739,26.0730547 28.7236626,25.9562893 C30.56337,25.6426937 31.9337686,24.0259187 31.997676,22.0936592 C32.0615834,20.1613998 30.8012257,18.4510559 28.9865608,18.0074841 L16.3181555,15.0852545 C15.4513952,14.8565889 14.5318336,15.0946017 13.8703537,15.7188261 C13.2088737,16.3430505 12.8939039,17.2700384 13.0319284,18.1863961 C13.1799883,19.1150389 13.7702163,19.9033619 14.6011018,20.2822225" id="_Path_2" fill="#E82E4A"/>
                                        <path d="M29.4807867,12.203989 C28.9928478,12.9941478 28.8691773,13.9630955 29.1424911,14.8545069 C29.4770404,15.9101528 30.3388268,16.7027278 31.402104,16.9326468 C32.4653811,17.1625658 33.5679468,16.7947547 34.2930425,15.9682424 L41.9216096,6.90295326 C42.8991097,5.80229629 43.2422688,4.26028131 42.8265505,2.83652357 C42.1373383,0.679132141 39.8656664,-0.49969497 37.7521156,0.203272914 C36.8446259,0.491449503 36.0697086,1.10467699 35.5701086,1.92999465 L29.4807867,12.203989" id="_Path_3" fill="#E82E4A"/>
                                        <path d="M51.726737,26.0913829 C50.8649452,25.8714872 49.9545177,26.0527645 49.2297374,26.5885662 C48.3646605,27.2483903 47.9022547,28.3425774 48.0173924,29.4573286 C48.1325302,30.5720798 48.8076366,31.5372387 49.7874007,31.9878022 L60.3663554,36.636902 C61.688605,37.2462596 63.2193925,37.0805362 64.3948479,36.2007764 C66.1510699,34.8385787 66.523443,32.2435368 65.2271811,30.4003047 C64.6713589,29.6162959 63.8647361,29.068239 62.9549115,28.8564198 L51.726737,26.0913829" id="_Path_4" fill="#E82E4A"/>
                                        <path d="M44.9748936,52.8676488 C44.9153957,51.9491777 44.4596475,51.1033719 43.7282618,50.5540722 C42.8540836,49.934593 41.7211444,49.8266812 40.7476759,50.2701732 C39.7742073,50.7136651 39.1045862,51.6427858 38.9860072,52.7145445 C38.9860072,52.7145445 38.0257638,64.3930029 38.0257638,64.4270261 C37.8632265,65.8936943 38.4777359,67.3383799 39.6430158,68.2291171 C41.4324674,69.5389113 43.9340826,69.139445 45.2360124,67.3360084 C45.8005025,66.5615552 46.0669367,65.6062866 45.9856761,64.6481768 L44.9748936,52.8676488" id="_Path_5" fill="#E82E4A"/>
                                        <path d="M17.0836881,54.02403 C17.917427,53.6778227 18.5641058,52.9674845 18.8531973,52.0803296 C19.1820578,51.0261948 18.9497373,49.8689333 18.2431663,49.0415726 C17.5365952,48.214212 16.4622671,47.8414509 15.4221772,48.0627703 L4.24020864,50.8047762 C2.82908516,51.1061306 1.67397609,52.1610031 1.19964363,53.5814911 C0.519586061,55.7374144 1.63261641,58.062533 3.69191003,58.7878314 C4.59332031,59.1054719 5.57514704,59.0653161 6.45001818,58.6750273 L17.0836881,54.02403" id="_Path_6" fill="#E82E4A"/>
                                        <path d="M8.61103066,27.8522737 C9.1927379,28.5696591 10.0531143,28.9893138 10.9640769,29 C12.0498611,29.0029858 13.0540858,28.4108666 13.5959745,27.4481475 C14.1378631,26.4854285 14.1344413,25.2995218 13.5870066,24.3400933 L7.53993076,14.1487295 C6.81738533,12.8464869 5.47781091,12.030006 4.01457833,12 C1.79742227,12 0,13.8390403 0,16.1076115 C-0.00530003465,17.0835926 0.336424975,18.0282597 0.961521914,18.7654777 L8.61103066,27.8436443" id="_Path_7" fill="#E82E4A"/>
                                        <path d="M39.294736,15.4414667 L38.0277537,28.4960832 C37.9352416,29.2860832 38.0751404,30.0858034 38.430503,30.798367 C39.2880833,32.511009 41.2521698,33.3721824 43.1025627,32.8468784 C44.9529555,32.3215744 46.1634643,30.559172 45.9820536,28.6545738 L44.7234618,15.5332244 C44.6687047,14.624498 44.1560749,13.8047113 43.3606053,13.3537735 C42.5651358,12.9028357 41.5944101,12.881734 40.7798743,13.2976735 C39.9581416,13.7204273 39.4060726,14.5264451 39.3115173,15.4414667" id="_Path_8" fill="#E82E4A"/>
                                        <path d="M51.7663057,37.0645412 L39.1726715,39.9757627 C38.4041944,40.1352396 37.6969009,40.5226246 37.1366733,41.0908798 C35.8198233,42.4641767 35.6242707,44.6116825 36.6699538,46.2162679 C37.715637,47.8208532 39.7102055,48.4339107 41.4303308,47.6794338 L53.326143,42.3166573 C54.1568297,41.9728414 54.7652501,41.219163 54.9454266,40.310776 C55.125603,39.402389 54.85341,38.4609262 54.2209971,37.8051151 C53.5741586,37.1413713 52.6470568,36.8625994 51.758096,37.0645412" id="_Path_9" fill="#E82E4A"/>
                                        <path d="M34.6449352,55.809726 L27.7159739,44.1603959 C27.3201458,43.4316027 26.7179444,42.833845 25.9837335,42.4409376 C24.2266239,41.5586276 22.0862142,42.0329085 20.8739233,43.5731908 C19.6616324,45.113473 19.7159277,47.2897153 21.0035426,48.7685442 L30.0371759,58.9907239 C30.6391393,59.7125123 31.5663654,60.0855168 32.5047275,59.9833702 C33.4430895,59.8812237 34.266838,59.3176148 34.6969024,58.4834837 C35.1270989,57.6362707 35.0977862,56.6308267 34.6189516,55.809726" id="_Path_10" fill="#E82E4A"/>
                                        <path d="M11.8578879,46.0558896 L20.8782894,35.8989682 C21.438557,35.2955394 21.8114078,34.5431988 21.9517345,33.7329637 C22.2505868,31.7973529 21.1370798,29.9206153 19.291499,29.2493241 C17.4459181,28.5780329 15.3815955,29.2989019 14.3597075,30.9715237 L7.43425524,42.7076436 C6.93077711,43.5012752 6.86056634,44.4938451 7.24734086,45.3500531 C7.63411538,46.2062611 8.42621796,46.8117528 9.35606824,46.9619871 C10.2932462,47.1168096 11.2458449,46.7927164 11.8925151,46.0990371" id="_Path_11" fill="#E82E4A"/>
                                    </g>
                                </g>
                            </g>
                        </g>
                    </g>
                </g>
            </g>
        </g>
    </g>
</svg>