<?xml version="1.0" encoding="UTF-8"?>
<svg width="32px" height="32px" viewBox="0 0 52 45" version="1.1" xmlns="http://www.w3.org/2000/svg" xmlns:xlink="http://www.w3.org/1999/xlink">
    <!-- Generator: Sketch 63.1 (92452) - https://sketch.com -->
    <title>Group 68</title>
    <desc>Created with Sketch.</desc>
    <g id="#-Vá»-MB" stroke="none" stroke-width="1" fill="none" fill-rule="evenodd">
        <g id="#PC---Ve-MB-3" transform="translate(-1200.000000, -1260.000000)" fill="#FFFFFF" fill-rule="nonzero">
            <g id="Group-67" transform="translate(735.000000, 1072.000000)">
                <g id="Group-68" transform="translate(467.000000, 190.000000)">
                    <path d="M35.3583339,8.61378257 C36.1058896,7.83632465 37.3251189,7.79745175 38.119842,8.49716388 L38.2416661,8.61378257 L58.2416661,29.4137826 C59.0072529,30.2099928 58.9824277,31.4760794 58.1862174,32.2416661 C57.431913,32.9669588 56.2558913,32.9828513 55.4832338,32.3055217 L55.3583339,32.1862174 L36.7999976,12.885 L18.2416661,32.1862174 C17.5163734,32.9405218 16.3418786,33.0025029 15.5432633,32.3559825 L15.4137826,32.2416661 C14.6594782,31.5163734 14.5974971,30.3418786 15.2440175,29.5432633 L15.3583339,29.4137826 L35.3583339,8.61378257 Z" id="Path" transform="translate(36.800000, 20.400001) rotate(-270.000000) translate(-36.800000, -20.400001) "></path>
                    <path d="M9.55833387,8.61378257 C10.3058896,7.83632465 11.5251189,7.79745175 12.319842,8.49716388 L12.4416661,8.61378257 L32.4416661,29.4137826 C33.2072529,30.2099928 33.1824277,31.4760794 32.3862174,32.2416661 C31.631913,32.9669588 30.4558913,32.9828513 29.6832338,32.3055217 L29.5583339,32.1862174 L10.9999976,12.885 L-7.55833387,32.1862174 C-8.28362658,32.9405218 -9.45812137,33.0025029 -10.2567367,32.3559825 L-10.3862174,32.2416661 C-11.1405218,31.5163734 -11.2025029,30.3418786 -10.5559825,29.5432633 L-10.4416661,29.4137826 L9.55833387,8.61378257 Z" id="Path-Copy" transform="translate(11.000000, 20.400001) rotate(-270.000000) translate(-11.000000, -20.400001) "></path>
                </g>
            </g>
        </g>
    </g>
</svg>