<?xml version="1.0" encoding="UTF-8"?>
<svg width="118px" height="42px" viewBox="0 0 118 42" version="1.1" xmlns="http://www.w3.org/2000/svg" xmlns:xlink="http://www.w3.org/1999/xlink">
    <!-- Generator: Sketch 62 (91390) - https://sketch.com -->
    <title>Group 29</title>
    <desc>Created with Sketch.</desc>
    <g id="Symbols" stroke="none" stroke-width="1" fill="none" fill-rule="evenodd">
        <g id="#-FOOTER-Mb-1" transform="translate(-116.000000, -209.000000)">
            <g transform="translate(-1.000000, 0.000000)" id="Group-35">
                <g>
                    <g id="Group-34">
                        <g id="---Download-app" transform="translate(1.000000, 194.000000)">
                            <g id="Group-33" transform="translate(15.000000, 15.000000)">
                                <g id="Group-32" transform="translate(102.000000, 0.000000)">
                                    <g id="Group-29" transform="translate(0.000000, 0.829882)">
                                        <rect id="Rectangle-3" stroke="#141ED2" stroke-width="0.571209408" fill="#FFFFFF" x="0" y="0" width="116" height="40" rx="19.0872818"></rect>
                                        <g id="Group-28" transform="translate(18.000000, 7.000000)" fill="#141ED2">
                                            <path d="M1.5760318,0.170118182 C0.705613473,0.170118182 0,1.00228823 0,2.03282229 L0,21.3074141 C0,22.3361571 0.704832956,23.1701182 1.5760318,23.1701182 L9.4239682,23.1701182 C10.2943865,23.1701182 11,22.3379481 11,21.3074141 L11,2.03282229 C11,1.00407922 10.295167,0.170118182 9.4239682,0.170118182 L1.5760318,0.170118182 L1.5760318,0.170118182 Z M1.03125,3.18651162 L1.03125,20.1537247 L9.96875,20.1537247 L9.96875,3.18651162 L1.03125,3.18651162 L1.03125,3.18651162 Z M5.5,22.4160198 C5.87969577,22.4160198 6.1875,22.0783985 6.1875,21.6619215 C6.1875,21.2454444 5.87969577,20.9078231 5.5,20.9078231 C5.12030423,20.9078231 4.8125,21.2454444 4.8125,21.6619215 C4.8125,22.0783985 5.12030423,22.4160198 5.5,22.4160198 L5.5,22.4160198 Z M4.125,1.6783149 C4.125,1.88655342 4.24316406,2.05536408 4.39873433,2.05536408 L6.60126567,2.05536408 C6.75244497,2.05536408 6.875,1.88046334 6.875,1.6783149 C6.875,1.47007639 6.75683594,1.30126572 6.60126567,1.30126572 L4.39873433,1.30126572 C4.24755503,1.30126572 4.125,1.47616647 4.125,1.6783149 Z" id="iPhone-Vector"></path>
                                            <path d="M17.89424,6.17011818 L18.43856,4.52160618 L20.297024,4.52160618 L20.856896,6.17011818 L21.580064,6.17011818 L19.791584,0.929094182 L18.975104,0.929094182 L17.1944,6.17011818 L17.89424,6.17011818 Z M20.157056,3.99283818 L18.578528,3.99283818 L19.091744,2.47651818 C19.192832,2.15770218 19.278368,1.83888618 19.356128,1.52784618 L19.37168,1.52784618 C19.44944,1.83111018 19.5272,2.14215018 19.64384,2.48429418 L20.157056,3.99283818 Z M23.936192,6.17011818 L25.413632,2.40653418 L24.69824,2.40653418 L23.967296,4.52160618 C23.84288,4.86375018 23.734016,5.17479018 23.64848,5.48583018 L23.625152,5.48583018 C23.547392,5.17479018 23.446304,4.86375018 23.321888,4.52160618 L22.583168,2.40653418 L21.852224,2.40653418 L23.283008,6.17011818 L23.936192,6.17011818 Z M27.038816,6.25565418 C27.57536,6.25565418 27.979712,5.99127018 28.189664,5.69578218 L28.212992,5.69578218 L28.267424,6.17011818 L28.889504,6.17011818 C28.842848,5.91351018 28.827296,5.59469418 28.827296,5.26810218 L28.827296,3.86064618 C28.827296,3.10637418 28.54736,2.32099818 27.396512,2.32099818 C26.922176,2.32099818 26.471168,2.45319018 26.160128,2.65536618 L26.315648,3.10637418 C26.580032,2.93530218 26.945504,2.82643818 27.295424,2.82643818 C28.065248,2.82643818 28.150784,3.38631018 28.150784,3.69735018 L28.150784,3.77511018 C26.696672,3.76733418 25.887968,4.26499818 25.887968,5.17479018 C25.887968,5.71911018 26.276768,6.25565418 27.038816,6.25565418 Z M27.217664,5.75021418 C26.867744,5.75021418 26.572256,5.54026218 26.572256,5.09703018 C26.572256,4.36608618 27.41984,4.23389418 28.166336,4.24944618 L28.166336,4.90263018 C28.166336,4.97261418 28.150784,5.05037418 28.127456,5.12035818 C28.018592,5.43917418 27.707552,5.75021418 27.217664,5.75021418 Z M30.4136,1.76890218 C30.68576,1.76890218 30.856832,1.58227818 30.849056,1.34899818 C30.849056,1.10794218 30.68576,0.921318182 30.429152,0.921318182 C30.18032,0.921318182 30.001472,1.10794218 30.001472,1.34899818 C30.001472,1.58227818 30.172544,1.76890218 30.4136,1.76890218 Z M30.771296,6.17011818 L30.771296,2.40653418 L30.087008,2.40653418 L30.087008,6.17011818 L30.771296,6.17011818 Z M32.7464,6.17011818 L32.7464,0.649158182 L32.062112,0.649158182 L32.062112,6.17011818 L32.7464,6.17011818 Z M34.908128,6.25565418 C35.444672,6.25565418 35.849024,5.99127018 36.058976,5.69578218 L36.082304,5.69578218 L36.136736,6.17011818 L36.758816,6.17011818 C36.71216,5.91351018 36.696608,5.59469418 36.696608,5.26810218 L36.696608,3.86064618 C36.696608,3.10637418 36.416672,2.32099818 35.265824,2.32099818 C34.791488,2.32099818 34.34048,2.45319018 34.02944,2.65536618 L34.18496,3.10637418 C34.449344,2.93530218 34.814816,2.82643818 35.164736,2.82643818 C35.93456,2.82643818 36.020096,3.38631018 36.020096,3.69735018 L36.020096,3.77511018 C34.565984,3.76733418 33.75728,4.26499818 33.75728,5.17479018 C33.75728,5.71911018 34.14608,6.25565418 34.908128,6.25565418 Z M35.086976,5.75021418 C34.737056,5.75021418 34.441568,5.54026218 34.441568,5.09703018 C34.441568,4.36608618 35.289152,4.23389418 36.035648,4.24944618 L36.035648,4.90263018 C36.035648,4.97261418 36.020096,5.05037418 35.996768,5.12035818 C35.887904,5.43917418 35.576864,5.75021418 35.086976,5.75021418 Z M39.8303359,6.25565418 C40.6701439,6.25565418 41.5177279,5.58691818 41.5177279,4.24167018 C41.5255039,3.09859818 40.8645439,2.32099818 39.9314239,2.32099818 C39.3248959,2.32099818 38.8894399,2.59315818 38.6483839,3.01306218 L38.6328319,3.01306218 L38.6328319,0.649158182 L37.9563199,0.649158182 L37.9563199,5.19811818 C37.9563199,5.53248618 37.9407679,5.91351018 37.9252159,6.17011818 L38.5161919,6.17011818 L38.5472959,5.54803818 L38.5706239,5.54803818 C38.8505599,6.04570218 39.2860159,6.25565418 39.8303359,6.25565418 Z M39.6903679,5.71133418 C39.1927039,5.71133418 38.7961279,5.38474218 38.6639359,4.91040618 C38.6483839,4.83264618 38.6328319,4.74711018 38.6328319,4.66157418 L38.6328319,3.98506218 C38.6328319,3.87619818 38.6561599,3.78288618 38.6717119,3.70512618 C38.8116799,3.18413418 39.2471359,2.86531818 39.7136959,2.86531818 C40.4446399,2.86531818 40.8334399,3.51072618 40.8334399,4.26499818 C40.8334399,5.12813418 40.4057599,5.71133418 39.6903679,5.71133418 Z M43.2206719,6.17011818 L43.2206719,0.649158182 L42.5363839,0.649158182 L42.5363839,6.17011818 L43.2206719,6.17011818 Z M46.1055679,6.24787818 C46.7043199,6.24787818 47.1164479,6.12346218 47.3575039,6.01459818 L47.2408639,5.52471018 C46.9842559,5.63357418 46.6887679,5.71911018 46.1988799,5.71911018 C45.5145919,5.71911018 44.9236159,5.33808618 44.9080639,4.41274218 L47.5519039,4.41274218 C47.5596799,4.34275818 47.5752319,4.23389418 47.5752319,4.09392618 C47.5752319,3.40186218 47.2486399,2.32099818 46.0200319,2.32099818 C44.9236159,2.32099818 44.2548799,3.21523818 44.2548799,4.35053418 C44.2548799,5.48583018 44.9469439,6.24787818 46.1055679,6.24787818 Z M46.9142719,3.92285418 L44.9158399,3.92285418 C44.9702719,3.44851818 45.2735359,2.81088618 45.9655999,2.81088618 C46.7354239,2.81088618 46.9220479,3.48739818 46.9142719,3.92285418 Z M51.9142399,6.25565418 C52.8240319,6.25565418 53.7882559,5.64912618 53.7882559,4.25722218 C53.7882559,3.10637418 53.0573119,2.32099818 51.9764479,2.32099818 C50.9344639,2.32099818 50.1102079,3.05971818 50.1102079,4.31943018 C50.1102079,5.50915818 50.8955839,6.25565418 51.9142399,6.25565418 Z M51.9453439,5.74243818 C51.2766079,5.74243818 50.8022719,5.12035818 50.8022719,4.29610218 C50.8022719,3.58071018 51.1521919,2.83421418 51.9608959,2.83421418 C52.7695999,2.83421418 53.0884159,3.64291818 53.0884159,4.28055018 C53.0884159,5.12813418 52.5985279,5.74243818 51.9453439,5.74243818 Z M55.4911999,6.17011818 L55.4911999,3.90730218 C55.4911999,3.79066218 55.5067519,3.67402218 55.5378559,3.58848618 C55.6544959,3.20746218 56.0044159,2.88864618 56.4554239,2.88864618 C57.1008319,2.88864618 57.3263359,3.39408618 57.3263359,4.00061418 L57.3263359,6.17011818 L58.0106239,6.17011818 L58.0106239,3.92285418 C58.0106239,2.63203818 57.2019199,2.32099818 56.6809279,2.32099818 C56.0588479,2.32099818 55.6233919,2.67091818 55.4367679,3.02861418 L55.4212159,3.02861418 L55.3823359,2.40653418 L54.7758079,2.40653418 C54.7991359,2.71757418 54.8069119,3.03639018 54.8069119,3.42519018 L54.8069119,6.17011818 L55.4911999,6.17011818 Z M62.2407679,6.24787818 C62.5051519,6.24787818 62.7151039,6.20899818 62.8472959,6.15456618 L62.8161919,5.64135018 C62.7306559,5.66467818 62.5984639,5.68800618 62.4196159,5.68800618 C62.0385919,5.68800618 61.9063999,5.42362218 61.9063999,4.95706218 L61.9063999,2.92752618 L62.8861759,2.92752618 L62.8861759,2.40653418 L61.9063999,2.40653418 L61.9063999,1.32567018 L61.2376639,1.50451818 L61.2376639,2.40653418 L60.6544639,2.40653418 L60.6544639,2.92752618 L61.2376639,2.92752618 L61.2376639,4.98039018 C61.2376639,5.42362218 61.3076479,5.75799018 61.5020479,5.96016618 C61.6653439,6.14679018 61.9219519,6.24787818 62.2407679,6.24787818 Z M64.4958079,6.17011818 L64.4958079,3.89952618 C64.4958079,3.76733418 64.5035839,3.66624618 64.5424639,3.57293418 C64.6668799,3.19968618 65.0167999,2.88864618 65.4600319,2.88864618 C66.1054399,2.88864618 66.3309439,3.40186218 66.3309439,4.00839018 L66.3309439,6.17011818 L67.0152319,6.17011818 L67.0152319,3.93063018 C67.0152319,2.63203818 66.2065279,2.32099818 65.7010879,2.32099818 C65.4444799,2.32099818 65.2034239,2.39875818 65.0012479,2.51539818 C64.7912959,2.63203818 64.6202239,2.80311018 64.5113599,2.99751018 L64.4958079,2.99751018 L64.4958079,0.649158182 L63.8115199,0.649158182 L63.8115199,6.17011818 L64.4958079,6.17011818 Z M69.8612479,6.24787818 C70.4599999,6.24787818 70.8721279,6.12346218 71.1131839,6.01459818 L70.9965439,5.52471018 C70.7399359,5.63357418 70.4444479,5.71911018 69.9545599,5.71911018 C69.2702719,5.71911018 68.6792959,5.33808618 68.6637439,4.41274218 L71.3075839,4.41274218 C71.3153599,4.34275818 71.3309119,4.23389418 71.3309119,4.09392618 C71.3309119,3.40186218 71.0043199,2.32099818 69.7757119,2.32099818 C68.6792959,2.32099818 68.0105599,3.21523818 68.0105599,4.35053418 C68.0105599,5.48583018 68.7026239,6.24787818 69.8612479,6.24787818 Z M70.6699519,3.92285418 L68.6715199,3.92285418 C68.7259519,3.44851818 69.0292159,2.81088618 69.7212799,2.81088618 C70.4911039,2.81088618 70.6777279,3.48739818 70.6699519,3.92285418 Z" id="Availableonthe" fill-rule="nonzero"></path>
                                            <path d="M18.78848,19.1701182 L19.87712,15.8730942 L23.594048,15.8730942 L24.713792,19.1701182 L26.160128,19.1701182 L22.583168,8.68807018 L20.950208,8.68807018 L17.3888,19.1701182 L18.78848,19.1701182 Z M23.314112,14.8155582 L20.157056,14.8155582 L21.183488,11.7829182 C21.385664,11.1452862 21.556736,10.5076542 21.712256,9.88557418 L21.74336,9.88557418 C21.89888,10.4921022 22.0544,11.1141822 22.28768,11.7984702 L23.314112,14.8155582 Z M28.4088327,22.2494142 L28.4088327,18.1592382 L28.4399367,18.1592382 C28.8909447,18.9057342 29.7618567,19.3411902 30.7571847,19.3411902 C32.5301127,19.3411902 34.1786247,18.0037182 34.1786247,15.2976702 C34.1786247,13.0115262 32.8100487,11.4718782 30.9904647,11.4718782 C29.7618567,11.4718782 28.8753927,12.0161982 28.3155207,12.9337662 L28.2844167,12.9337662 L28.2222087,11.6429502 L26.9936007,11.6429502 C27.0247047,12.3583422 27.0558087,13.1359422 27.0558087,14.1001662 L27.0558087,22.2494142 L28.4088327,22.2494142 Z M30.5239047,18.2681022 C29.5441287,18.2681022 28.7198727,17.6149182 28.4710407,16.6662462 C28.4399367,16.4951742 28.4088327,16.3085502 28.4088327,16.1063742 L28.4088327,14.8155582 C28.4088327,14.6289342 28.4554887,14.4267582 28.5021447,14.2556862 C28.7665287,13.2292542 29.6374407,12.5605182 30.5705607,12.5605182 C32.0168967,12.5605182 32.8100487,13.8513342 32.8100487,15.3598782 C32.8100487,17.0861502 31.9702407,18.2681022 30.5239047,18.2681022 Z M36.7072655,22.2494142 L36.7072655,18.1592382 L36.7383695,18.1592382 C37.1893775,18.9057342 38.0602895,19.3411902 39.0556175,19.3411902 C40.8285455,19.3411902 42.4770575,18.0037182 42.4770575,15.2976702 C42.4770575,13.0115262 41.1084815,11.4718782 39.2888975,11.4718782 C38.0602895,11.4718782 37.1738255,12.0161982 36.6139535,12.9337662 L36.5828495,12.9337662 L36.5206415,11.6429502 L35.2920335,11.6429502 C35.3231375,12.3583422 35.3542415,13.1359422 35.3542415,14.1001662 L35.3542415,22.2494142 L36.7072655,22.2494142 Z M38.8223375,18.2681022 C37.8425615,18.2681022 37.0183055,17.6149182 36.7694735,16.6662462 C36.7383695,16.4951742 36.7072655,16.3085502 36.7072655,16.1063742 L36.7072655,14.8155582 C36.7072655,14.6289342 36.7539215,14.4267582 36.8005775,14.2556862 C37.0649615,13.2292542 37.9358735,12.5605182 38.8689935,12.5605182 C40.3153295,12.5605182 41.1084815,13.8513342 41.1084815,15.3598782 C41.1084815,17.0861502 40.2686735,18.2681022 38.8223375,18.2681022 Z M48.591875,19.3256382 C51.064643,19.3256382 52.262147,17.9259582 52.262147,16.3085502 C52.262147,14.7689022 51.360131,13.9135422 49.587203,13.2292542 C48.140867,12.6693822 47.503235,12.1872702 47.503235,11.2074942 C47.503235,10.4921022 48.047555,9.63674218 49.478339,9.63674218 C50.427011,9.63674218 51.126851,9.94778218 51.468995,10.1344062 L51.842243,9.03021418 C51.375683,8.76583018 50.598083,8.51699818 49.524995,8.51699818 C47.487683,8.51699818 46.134659,9.73005418 46.134659,11.3630142 C46.134659,12.8404542 47.192195,13.7269182 48.902915,14.3334462 C50.318147,14.8777662 50.878019,15.4376382 50.878019,16.4174142 C50.878019,17.4749502 50.069315,18.2058942 48.685187,18.2058942 C47.752067,18.2058942 46.865603,17.8948542 46.259075,17.5216062 L45.916931,18.6569022 C46.476803,19.0301502 47.580995,19.3256382 48.591875,19.3256382 Z M55.7861157,19.3256382 C56.3148837,19.3256382 56.7347877,19.2478782 56.9991717,19.1390142 L56.9369637,18.1125822 C56.7658917,18.1592382 56.5015077,18.2058942 56.1438117,18.2058942 C55.3817637,18.2058942 55.1173797,17.6771262 55.1173797,16.7440062 L55.1173797,12.6849342 L57.0769317,12.6849342 L57.0769317,11.6429502 L55.1173797,11.6429502 L55.1173797,9.48122218 L53.7799077,9.83891818 L53.7799077,11.6429502 L52.6135077,11.6429502 L52.6135077,12.6849342 L53.7799077,12.6849342 L53.7799077,16.7906622 C53.7799077,17.6771262 53.9198757,18.3458622 54.3086757,18.7502142 C54.6352677,19.1234622 55.1484837,19.3256382 55.7861157,19.3256382 Z M61.0363565,19.3411902 C62.8559405,19.3411902 64.7843885,18.1281342 64.7843885,15.3443262 C64.7843885,13.0426302 63.3225005,11.4718782 61.1607725,11.4718782 C59.0768045,11.4718782 57.4282925,12.9493182 57.4282925,15.4687422 C57.4282925,17.8481982 58.9990445,19.3411902 61.0363565,19.3411902 Z M61.0985645,18.3147582 C59.7610925,18.3147582 58.8124205,17.0705982 58.8124205,15.4220862 C58.8124205,13.9913022 59.5122605,12.4983102 61.1296685,12.4983102 C62.7470765,12.4983102 63.3847085,14.1157182 63.3847085,15.3909822 C63.3847085,17.0861502 62.4049325,18.3147582 61.0985645,18.3147582 Z M67.3130292,19.1701182 L67.3130292,15.1577022 C67.3130292,14.9244222 67.3441332,14.7066942 67.3752372,14.5200702 C67.5618612,13.4936382 68.2461492,12.7626942 69.2103732,12.7626942 C69.3969972,12.7626942 69.5369652,12.7782462 69.6769332,12.8093502 L69.6769332,11.5185342 C69.5525172,11.4874302 69.4436532,11.4718782 69.2881332,11.4718782 C68.3705652,11.4718782 67.5463092,12.1095102 67.2041652,13.1203902 L67.1419572,13.1203902 L67.0953012,11.6429502 L65.8977972,11.6429502 C65.9444532,12.3427902 65.9600052,13.1048382 65.9600052,13.9913022 L65.9600052,19.1701182 L67.3130292,19.1701182 Z M73.4963899,19.3256382 C74.6938939,19.3256382 75.5181499,19.0768062 76.0002619,18.8590782 L75.7669819,17.8793022 C75.2537659,18.0970302 74.6627899,18.2681022 73.6830139,18.2681022 C72.3144379,18.2681022 71.1324859,17.5060542 71.1013819,15.6553662 L76.3890619,15.6553662 C76.4046139,15.5153982 76.4357179,15.2976702 76.4357179,15.0177342 C76.4357179,13.6336062 75.7825339,11.4718782 73.3253179,11.4718782 C71.1324859,11.4718782 69.7950139,13.2603582 69.7950139,15.5309502 C69.7950139,17.8015422 71.1791419,19.3256382 73.4963899,19.3256382 Z M75.1137979,14.6755902 L71.1169339,14.6755902 C71.2257979,13.7269182 71.8323259,12.4516542 73.2164539,12.4516542 C74.7561019,12.4516542 75.1293499,13.8046782 75.1137979,14.6755902 Z" id="AppStore" fill-rule="nonzero"></path>
                                        </g>
                                    </g>
                                </g>
                            </g>
                        </g>
                    </g>
                </g>
            </g>
        </g>
    </g>
</svg>