<?xml version="1.0" encoding="UTF-8"?>
<svg width="13px" height="13px" viewBox="0 0 13 13" version="1.1" xmlns="http://www.w3.org/2000/svg" xmlns:xlink="http://www.w3.org/1999/xlink">
    <!-- Generator: Sketch 55 (78076) - https://sketchapp.com -->
    <title></title>
    <desc>Created with Sketch.</desc>
    <g id="Page-1" stroke="none" stroke-width="1" fill="none" fill-rule="evenodd">
        <g id="#-Vay-mua-BDS---04-(Popup)-3" transform="translate(-1052.000000, -564.000000)" fill="#FFFFFF" fill-rule="nonzero">
            <g id="Group-24" transform="translate(248.000000, 245.000000)">
                <g id="btt-xemvataive" transform="translate(721.000000, 310.000000)">
                    <g id="btt-dangkyngay">
                        <g>
                            <g id="Group-5">
                                <g id="Group" transform="translate(11.000000, 9.000000)">
                                    <path d="M78.4,12.8 C79.2833333,12.8 80.1145833,12.6333333 80.89375,12.3 C81.6729167,11.9666667 82.3520833,11.5104167 82.93125,10.93125 C83.5104167,10.3520833 83.9666667,9.67291667 84.3,8.89375 C84.6333333,8.11458333 84.8,7.28333333 84.8,6.4 C84.8,5.51666667 84.6333333,4.68541667 84.3,3.90625 C83.9666667,3.12708333 83.5104167,2.44791667 82.93125,1.86875 C82.3520833,1.28958333 81.6729167,0.833333333 80.89375,0.5 C80.1145833,0.166666667 79.2833333,9.05941988e-14 78.4,9.05941988e-14 C77.5166667,9.05941988e-14 76.6854167,0.166666667 75.90625,0.5 C75.1270833,0.833333333 74.4479167,1.28958333 73.86875,1.86875 C73.2895833,2.44791667 72.8333333,3.12708333 72.5,3.90625 C72.1666667,4.68541667 72,5.51666667 72,6.4 C72,7.28333333 72.1666667,8.11458333 72.5,8.89375 C72.8333333,9.67291667 73.2895833,10.3520833 73.86875,10.93125 C74.4479167,11.5104167 75.1270833,11.9666667 75.90625,12.3 C76.6854167,12.6333333 77.5166667,12.8 78.4,12.8 Z M78.4,12 C77.625,12 76.8979167,11.8520833 76.21875,11.55625 C75.5395833,11.2604167 74.9479167,10.8604167 74.44375,10.35625 C73.9395833,9.85208333 73.5395833,9.26041667 73.24375,8.58125 C72.9479167,7.90208333 72.8,7.175 72.8,6.4 C72.8,5.625 72.9479167,4.89791667 73.24375,4.21875 C73.5395833,3.53958333 73.9395833,2.94791667 74.44375,2.44375 C74.9479167,1.93958333 75.5395833,1.53958333 76.21875,1.24375 C76.8979167,0.947916667 77.625,0.8 78.4,0.8 C79.175,0.8 79.9020833,0.947916667 80.58125,1.24375 C81.2604167,1.53958333 81.8541667,1.93958333 82.3625,2.44375 C82.8708333,2.94791667 83.2729167,3.53958333 83.56875,4.21875 C83.8645833,4.89791667 84.0125,5.625 84.0125,6.4 C84.0125,7.175 83.8645833,7.90208333 83.56875,8.58125 C83.2729167,9.26041667 82.8708333,9.85208333 82.3625,10.35625 C81.8541667,10.8604167 81.2604167,11.2604167 80.58125,11.55625 C79.9020833,11.8520833 79.175,12 78.4,12 Z M78.4125,9.5875 L80.8375,7.225 C80.8708333,7.18333333 80.8979167,7.1375 80.91875,7.0875 C80.9395833,7.0375 80.95,6.9875 80.95,6.9375 C80.95,6.8875 80.9395833,6.8375 80.91875,6.7875 C80.8979167,6.7375 80.8708333,6.69166667 80.8375,6.65 C80.7541667,6.575 80.6583333,6.5375 80.55,6.5375 C80.4416667,6.5375 80.3458333,6.575 80.2625,6.65 L78.8,8.125 L78.8,3.6 C78.8,3.48333333 78.7604167,3.3875 78.68125,3.3125 C78.6020833,3.2375 78.5083333,3.2 78.4,3.2 C78.2833333,3.2 78.1875,3.2375 78.1125,3.3125 C78.0375,3.3875 78,3.48333333 78,3.6 L78,8.1 L76.55,6.65 C76.475,6.575 76.38125,6.5375 76.26875,6.5375 C76.15625,6.5375 76.0625,6.575 75.9875,6.65 C75.9041667,6.73333333 75.8625,6.82916667 75.8625,6.9375 C75.8625,7.04583333 75.9041667,7.14166667 75.9875,7.225 L78.4125,9.5875 Z" id=""></path>
                                </g>
                            </g>
                        </g>
                    </g>
                </g>
            </g>
        </g>
    </g>
</svg>