<?xml version="1.0" encoding="UTF-8"?>
<svg width="58px" height="71px" viewBox="0 0 58 71" version="1.1" xmlns="http://www.w3.org/2000/svg" xmlns:xlink="http://www.w3.org/1999/xlink">
    <!-- Generator: Sketch 55 (78076) - https://sketchapp.com -->
    <title>ico-message</title>
    <desc>Created with Sketch.</desc>
    <defs>
        <rect id="path-1" x="0" y="0" width="72" height="72"></rect>
    </defs>
    <g id="Page-1" stroke="none" stroke-width="1" fill="none" fill-rule="evenodd">
        <g id="#-Vay-mua-BDS---04-(Popup)-3" transform="translate(-691.000000, -296.000000)">
            <g id="Group-24" transform="translate(248.000000, 245.000000)">
                <g id="Popup-Warning">
                    <g id="Group-4" transform="translate(97.000000, 50.000000)">
                        <g id="ico-message" transform="translate(339.000000, 0.000000)">
                            <mask id="mask-2" fill="white">
                                <use xlink:href="#path-1"></use>
                            </mask>
                            <g id="Mask"></g>
                            <g id="Group-7" mask="url(#mask-2)">
                                <g transform="translate(7.000000, 1.000000)">
                                    <path d="M36.7233541,28.9835108 C36.7233541,33.2713757 33.2455432,36.7491865 28.9576784,36.7491865 C24.6682189,36.7491865 21.1920027,33.2713757 21.1920027,28.9835108 C21.1920027,24.7004297 24.6602459,21.2258081 28.9417324,21.2178351 C33.2343811,21.2178351 36.7137865,24.6924568 36.7233541,28.9835108 M18.3536243,28.9835108 C18.3536243,34.8308892 23.0943541,39.5716189 28.9417324,39.5716189 C34.7891108,39.5716189 39.5298405,34.8308892 39.5298405,28.9835108 C39.5298405,23.1361324 34.7891108,18.3954027 28.9417324,18.3954027 C23.0975432,18.4033757 18.3631919,23.1393216 18.3536243,28.9835108" id="Fill-1" stroke="none" fill="#29B6F6" fill-rule="evenodd"></path>
                                    <path d="M54.022473,53.8913973 C54.022473,59.0945595 49.7888243,63.3282081 44.5840676,63.3282081 C43.9542027,63.3282081 43.3466622,63.2436946 42.7518784,63.1241 C42.6960676,63.1129378 42.6434459,63.1001811 42.5908243,63.0906135 C41.7903378,62.9120189 41.0297162,62.6377486 40.3169324,62.2741811 C40.1989324,62.2119919 40.0809324,62.1513973 39.964527,62.0860189 C39.8560946,62.0254243 39.7428784,61.9759919 39.6376351,61.9122081 C39.6424189,61.9058297 39.6472027,61.9010459 39.6535811,61.8978568 C38.8387432,61.3923703 38.1052297,60.7704784 37.4801486,60.0497216 C37.4737703,60.0545054 37.4689865,60.0592892 37.4626081,60.064073 C37.4195541,60.0146405 37.3876622,59.9556405 37.3462027,59.9046135 C37.1054189,59.6128027 36.8837703,59.3034514 36.6780676,58.9829378 C36.5712297,58.8202892 36.4691757,58.6528568 36.3735,58.4822351 C36.1917162,58.1633162 36.0290676,57.8316405 35.8871486,57.4903973 C35.8042297,57.291073 35.7340676,57.0885595 35.6639054,56.8812622 C35.5730135,56.6069919 35.4932838,56.3263432 35.4263108,56.0425054 C35.3577432,55.7506946 35.3051216,55.4541 35.2636622,55.1543162 C35.2317703,54.9103432 35.2094459,54.6631811 35.1950946,54.4144243 C35.185527,54.2390189 35.1472568,54.0683973 35.1472568,53.8913973 C35.1472568,48.6866405 39.3809054,44.4529919 44.5840676,44.4529919 C45.215527,44.4529919 45.8230676,44.5375054 46.4178514,44.6571 C46.4752568,44.6682622 46.529473,44.6826135 46.5852838,44.6937757 C47.3905541,44.8707757 48.1527703,45.1482351 48.8687432,45.5165865 C48.9883378,45.5771811 49.1063378,45.6393703 49.2227432,45.7063432 C49.3375541,45.7717216 49.463527,45.8243432 49.5751486,45.8945054 C49.5719595,45.9008838 49.5671757,45.9072622 49.5639865,45.9136405 C50.3788243,46.4239108 51.1107432,47.0505865 51.7326351,47.7777216 C51.7358243,47.7713432 51.7406081,47.7649649 51.7453919,47.7585865 C51.7964189,47.8207757 51.8362838,47.894127 51.8857162,47.9563162 C52.1073649,48.2273973 52.3082838,48.5128297 52.4980405,48.8078297 C52.6096622,48.9800459 52.7180946,49.1522622 52.8185541,49.3340459 C52.9923649,49.6449919 53.1470405,49.9671 53.2857703,50.2987757 C53.3718784,50.5044784 53.4452297,50.7149649 53.5153919,50.9286405 C53.6046892,51.1949378 53.6796351,51.4676135 53.7434189,51.745073 C53.8135811,52.040073 53.8662027,52.3366676 53.9076622,52.6428297 C53.9395541,52.8804243 53.9602838,53.1212081 53.9746351,53.3635865 C53.9842027,53.5405865 54.022473,53.7112081 54.022473,53.8913973 M57.9148784,30.1159919 C58.0265,29.3394243 57.4859324,28.6202622 56.7109595,28.5102351 C55.9343919,28.4002081 55.2152297,28.9407757 55.1067973,29.7157486 C55.0924459,29.8066405 55.0892568,29.8975324 55.0940405,29.9884243 C54.8707973,34.8264243 53.1948784,39.5065595 50.7886351,43.8311 C48.9819595,42.7164784 46.8627432,42.0611 44.5840676,42.0611 C38.0510135,42.0611 32.7553649,47.3567486 32.7553649,53.8913973 C32.7553649,56.8685054 33.8636081,59.5825054 35.6814459,61.6634514 C32.6756351,64.2865595 30.1625541,66.1442622 28.9410946,66.9989649 C24.5240676,63.8097757 2.82322973,47.4013973 2.82322973,28.9838297 C2.81525676,14.5495595 14.5116081,2.84204595 28.9458784,2.83566757 C40.0378784,2.83088378 49.9275541,9.82955946 53.609473,20.2932892 C53.9427432,21.0028838 54.7878784,21.3074514 55.4990676,20.9725865 C56.1097973,20.6871541 56.4335,20.0078568 56.2724459,19.3524784 C50.9640405,4.26601892 34.4296892,-3.65911622 19.3432297,1.65088378 C7.76966216,5.72347838 0.0199324324,16.6496405 0.000797297297,28.9200459 C0.000797297297,38.041127 4.89460811,48.0551811 14.1592027,57.8141 C18.4103919,62.3028838 23.106473,66.3483703 28.1772838,69.8835865 C28.6572568,70.2104784 29.2903108,70.2104784 29.7718784,69.8835865 C32.5687973,67.9365865 35.2381486,65.8173703 37.7942838,63.5673973 C39.7173649,64.9196135 42.0566351,65.7201 44.5840676,65.7201 C51.1187162,65.7201 56.4143649,60.4244514 56.4143649,53.8913973 C56.4143649,50.6687216 55.1227432,47.7538027 53.0354189,45.6202351 C56.0396351,40.3373432 57.7027973,35.1166405 57.9148784,30.1159919" id="Fill-3" stroke="none" fill="#29B6F6" fill-rule="evenodd"></path>
                                    <polyline id="Stroke-5" stroke="#29B6F6" stroke-width="1.91351351" fill="none" stroke-linecap="round" stroke-linejoin="round" points="49.7696892 50.1712081 43.0038243 57.6099919 39.4000405 53.8913973"></polyline>
                                </g>
                            </g>
                        </g>
                    </g>
                </g>
            </g>
        </g>
    </g>
</svg>