<?xml version="1.0" encoding="UTF-8"?>
<svg width="168px" height="39px" viewBox="0 0 168 39" version="1.1" xmlns="http://www.w3.org/2000/svg" xmlns:xlink="http://www.w3.org/1999/xlink">
    <!-- Generator: Sketch 62 (91390) - https://sketch.com -->
    <title>Group 39</title>
    <desc>Created with Sketch.</desc>
    <defs>
        <polygon id="path-1" points="0 0.657 7.97690097 0.657 7.97690097 10.1210029 0 10.1210029"></polygon>
        <polygon id="path-3" points="0 39 167.939 39 167.939 0.346 0 0.346"></polygon>
    </defs>
    <g id="Page-1" stroke="none" stroke-width="1" fill="none" fill-rule="evenodd">
        <g id="LOGO---White-Copy" transform="translate(0.000000, -1.000000)">
            <g id="Group-39">
                <polygon id="Fill-1" fill="#788A98" points="96.538 15.9901 97.319 15.9901 97.319 1.0001 96.538 1.0001"></polygon>
                <g id="Group-38" transform="translate(0.000000, 0.654100)">
                    <path d="M81.6598,31.9796 C78.6288,31.9796 75.7908,31.9106 73.5768,31.7896 L73.5768,7.6596 C74.3468,7.5936 76.7328,7.5416 80.1078,7.4576 C82.2228,7.4046 84.2458,7.4876 85.8288,7.7376 C89.4138,8.3046 90.7198,10.0176 91.2828,10.9586 C91.8238,11.8666 92.1838,12.8756 92.0978,14.1876 C91.9968,15.7266 91.4988,16.9886 89.9258,18.2296 L89.6498,18.4496 L89.9648,18.6086 C91.0538,19.1576 91.7498,20.0296 92.2258,20.8836 C92.7978,21.9156 93.0878,23.0916 93.0878,24.3796 C93.0878,26.9816 92.1538,28.9486 90.2568,30.2666 C88.5748,31.4366 86.2268,31.9796 81.6598,31.9796 L81.6598,31.9796 Z M79.2468,27.0036 C80.4598,27.0776 81.7698,27.1316 83.0868,27.0856 C84.1078,27.0496 85.4618,26.9696 86.4218,25.9866 C87.2808,25.1086 87.4358,23.7926 86.7958,22.7076 C86.2008,21.7016 85.0148,21.2086 82.1388,21.2426 C80.6868,21.2426 79.2838,21.3966 79.2328,21.4046 L79.2468,27.0036 Z M81.9528,12.0186 C81.4298,12.0186 80.0558,11.9996 79.2398,12.1496 L79.2398,16.8826 L79.4468,16.9026 C79.4578,16.9046 80.5788,16.9976 81.8718,16.9976 C83.9678,16.9976 85.1838,16.8386 85.9208,16.1906 C86.6628,15.5376 86.8528,14.4626 86.3928,13.5396 C85.6658,12.0866 83.3998,12.0186 81.9528,12.0186 L81.9528,12.0186 Z" id="Fill-2" fill="#FFFFFF"></path>
                    <path d="M68.0646,7.6456 L62.4606,7.6456 C61.9596,8.6776 58.4686,15.8876 56.8696,20.0006 L56.7596,20.2836 L56.5706,20.2836 L56.4616,20.0006 C54.8616,15.8876 51.3716,8.6776 50.8696,7.6456 L45.2656,7.6456 C44.0546,16.3626 43.4546,29.8446 43.3736,31.7756 L48.9516,31.7756 C49.0036,30.1596 49.3386,19.9876 49.5696,17.7026 L49.6286,17.1256 L49.7656,17.1256 L49.9886,17.6346 C51.8496,21.8806 54.2456,27.7136 54.6426,28.6796 L58.6886,28.6796 C59.0836,27.7136 61.4816,21.8806 63.3426,17.6346 L63.5646,17.1256 L63.7016,17.1256 L63.7606,17.7026 C63.9916,19.9876 64.3266,30.1596 64.3786,31.7756 L69.9566,31.7756 C69.8756,29.8446 69.2756,16.3636 68.0646,7.6456" id="Fill-4" fill="#FFFFFF"></path>
                    <path d="M8.1681,12.1397 C8.1831,12.1467 15.0851,15.1437 15.1001,15.1507 C15.5081,15.3297 15.9611,15.4157 16.4331,15.3407 C17.6801,15.1437 18.5311,13.9727 18.3331,12.7247 C18.1831,11.7767 17.4711,11.0537 16.5891,10.8557 C16.5731,10.8517 9.1921,9.2127 9.1761,9.2087 C8.9761,9.1577 8.7631,9.1457 8.5471,9.1797 C7.6981,9.3137 7.1201,10.1107 7.2541,10.9587 C7.3401,11.5027 7.7011,11.9247 8.1681,12.1397" id="Fill-6" fill="#788A98"></path>
                    <path d="M16.6403,7.2051 C16.3793,7.6361 16.2793,8.1631 16.4463,8.6791 C16.7413,9.5861 17.7163,10.0831 18.6243,9.7881 C18.9243,9.6911 19.1773,9.5181 19.3743,9.2981 C19.3853,9.2871 23.6973,4.2811 23.7073,4.2691 C24.2393,3.6511 24.4933,2.8131 24.2243,1.9871 C23.8343,0.7871 22.5453,0.1291 21.3433,0.5191 C20.8063,0.6941 20.3723,1.0461 20.1043,1.4961 C20.0293,1.6201 16.6483,7.1911 16.6403,7.2051" id="Fill-8" fill="#788A98"></path>
                    <path d="M29.0846,15.5054 C28.5926,15.3914 28.0616,15.4594 27.6236,15.7784 C26.8516,16.3414 26.6826,17.4224 27.2446,18.1934 C27.4316,18.4484 27.6746,18.6354 27.9436,18.7544 C27.9586,18.7614 34.0546,21.3054 34.0696,21.3114 C34.8216,21.6254 35.6976,21.6054 36.3996,21.0944 C37.4196,20.3504 37.6446,18.9204 36.8996,17.9004 C36.5676,17.4434 36.0986,17.1404 35.5866,17.0254 C35.4456,16.9924 29.1006,15.5094 29.0846,15.5054" id="Fill-10" fill="#788A98"></path>
                    <path d="M25.048,29.8834 C25.006,29.3804 24.776,28.8954 24.338,28.5774 C23.566,28.0164 22.486,28.1884 21.924,28.9604 C21.74,29.2154 21.635,29.5044 21.605,29.7974 C21.603,29.8134 21.058,36.3974 21.057,36.4134 C20.99,37.2254 21.277,38.0524 21.98,38.5634 C23.002,39.3054 24.432,39.0784 25.174,38.0574 C25.506,37.5994 25.649,37.0604 25.602,36.5384 C25.59,36.3934 25.049,29.8994 25.048,29.8834" id="Fill-12" fill="#788A98"></path>
                    <path d="M10.1037,30.5137 C10.5687,30.3187 10.9597,29.9517 11.1277,29.4367 C11.4237,28.5297 10.9277,27.5537 10.0207,27.2577 C9.7207,27.1597 9.4137,27.1507 9.1257,27.2117 C9.1097,27.2147 2.6777,28.7237 2.6617,28.7277 C1.8687,28.9137 1.1697,29.4417 0.9007,30.2677 C0.5097,31.4677 1.1657,32.7587 2.3657,33.1507 C2.9037,33.3267 3.4617,33.2957 3.9427,33.0897 C4.0767,33.0347 10.0887,30.5207 10.1037,30.5137" id="Fill-14" fill="#788A98"></path>
                    <g id="Group-18" transform="translate(0.000000, 7.000000)">
                        <mask id="mask-2" fill="white">
                            <use xlink:href="#path-1"></use>
                        </mask>
                        <g id="Clip-17"></g>
                        <path d="M4.9079,9.482 C5.2379,9.864 5.7079,10.122 6.2499,10.1210029 C7.2039,10.1210029 7.9779,9.347 7.97690097,8.393 C7.97690097,8.077 7.8909,7.782 7.7439,7.527 C7.7359,7.513 4.3049,1.867 4.2969,1.853 C3.8739,1.157 3.1539,0.657 2.2859,0.657 C1.0229,0.658 -0.0001,1.682 -0.0001,2.945 C0.0009,3.51 0.2019,4.03 0.5469,4.425 C0.6419,4.535 4.8979,9.47 4.9079,9.482" id="Fill-16" fill="#788A98" mask="url(#mask-2)"></path>
                    </g>
                    <path d="M21.7799,8.9639 C21.7779,8.9799 21.0569,16.4699 21.0559,16.4869 C21.0119,16.9299 21.0699,17.3879 21.2859,17.8129 C21.8589,18.9379 23.2349,19.3859 24.3609,18.8139 C25.2159,18.3779 25.6849,17.4779 25.6009,16.5769 C25.5989,16.5609 24.8809,9.0339 24.8789,9.0179 C24.8659,8.8129 24.8119,8.6059 24.7129,8.4109 C24.3229,7.6449 23.3859,7.3399 22.6209,7.7299 C22.1309,7.9799 21.8399,8.4539 21.7799,8.9639" id="Fill-19" fill="#788A98"></path>
                    <path d="M29.0016,20.9249 C28.9856,20.9279 21.6406,22.5639 21.6246,22.5669 C21.1896,22.6629 20.7726,22.8599 20.4346,23.1979 C19.5426,24.0909 19.5436,25.5379 20.4366,26.4309 C21.1156,27.1089 22.1166,27.2749 22.9466,26.9169 C22.9616,26.9099 29.8956,23.8939 29.9106,23.8879 C30.1016,23.8119 30.2816,23.6969 30.4366,23.5419 C31.0436,22.9339 31.0426,21.9489 30.4346,21.3429 C30.0456,20.9529 29.5056,20.8239 29.0016,20.9249" id="Fill-21" fill="#788A98"></path>
                    <path d="M19.8615,31.4952 C19.8535,31.4812 16.0335,24.9982 16.0255,24.9842 C15.8005,24.5992 15.4845,24.2632 15.0595,24.0462 C13.9345,23.4722 12.5575,23.9192 11.9835,25.0442 C11.5475,25.8992 11.6985,26.9032 12.2955,27.5822 C12.3065,27.5942 17.3125,33.2612 17.3225,33.2732 C17.4545,33.4322 17.6195,33.5672 17.8145,33.6662 C18.5795,34.0572 19.5165,33.7532 19.9065,32.9872 C20.1565,32.4972 20.1135,31.9432 19.8615,31.4952" id="Fill-23" fill="#788A98"></path>
                    <path d="M6.9835,26.0674 C6.9945,26.0554 11.9815,20.4214 11.9925,20.4084 C12.2885,20.0764 12.5115,19.6714 12.5865,19.2004 C12.7845,17.9534 11.9345,16.7814 10.6875,16.5834 C9.7395,16.4324 8.8315,16.8854 8.3695,17.6634 C8.3615,17.6774 4.5165,24.1874 4.5085,24.2014 C4.3985,24.3754 4.3205,24.5744 4.2855,24.7904 C4.1505,25.6394 4.7295,26.4354 5.5775,26.5704 C6.1205,26.6574 6.6345,26.4444 6.9835,26.0674" id="Fill-25" fill="#788A98"></path>
                    <path d="M101.7296,12.7442 L101.7296,2.9302 L105.6846,2.9302 L106.1736,2.9302 C107.5016,2.9302 108.3956,3.1612 108.8586,3.6242 C109.3216,4.0872 109.5516,4.9792 109.5516,6.3022 C109.5516,7.6162 109.3316,8.4882 108.8906,8.9192 C108.4496,9.3512 107.5586,9.5662 106.2156,9.5662 L105.7846,9.5742 L103.5926,9.5742 L103.5926,12.7442 L101.7296,12.7442 Z M103.5926,8.0072 L105.7136,8.0072 C106.5566,8.0072 107.0926,7.9092 107.3196,7.7152 C107.5486,7.5212 107.6616,7.0622 107.6616,6.3392 C107.6616,5.5092 107.5676,4.9952 107.3766,4.7962 C107.1876,4.5972 106.6956,4.4982 105.8996,4.4982 L103.5926,4.4982 L103.5926,8.0072 Z" id="Fill-27" fill="#788A98"></path>
                    <path d="M111.4752,12.7442 L111.4752,2.9302 L116.3132,2.9302 C117.5172,2.9302 118.3462,3.1392 118.8022,3.5562 C119.2572,3.9722 119.4842,4.7282 119.4842,5.8212 C119.4842,6.8132 119.3712,7.4912 119.1432,7.8552 C118.9152,8.2202 118.4492,8.4712 117.7452,8.6102 L117.7452,8.6752 C118.8322,8.7422 119.3772,9.3772 119.3772,10.5802 L119.3772,12.7442 L117.5152,12.7442 L117.5152,10.9542 C117.5152,9.9432 117.0152,9.4372 116.0192,9.4372 L113.3382,9.4372 L113.3382,12.7442 L111.4752,12.7442 Z M113.3382,7.8692 L116.0122,7.8692 C116.6492,7.8692 117.0732,7.7562 117.2812,7.5282 C117.4892,7.3002 117.5942,6.8442 117.5942,6.1582 C117.5942,5.4592 117.5042,5.0072 117.3242,4.8032 C117.1442,4.5992 116.7492,4.4982 116.1412,4.4982 L113.3382,4.4982 L113.3382,7.8692 Z" id="Fill-29" fill="#788A98"></path>
                    <mask id="mask-4" fill="white">
                        <use xlink:href="#path-3"></use>
                    </mask>
                    <g id="Clip-32"></g>
                    <polygon id="Fill-31" fill="#788A98" mask="url(#mask-4)" points="121.422 12.744 123.283 12.744 123.283 2.93 121.422 2.93"></polygon>
                    <path d="M129.7511,2.8443 C131.5341,2.8443 132.6821,3.1403 133.1951,3.7323 C133.7071,4.3233 133.9651,5.6483 133.9651,7.7043 C133.9651,9.9523 133.7071,11.3683 133.1911,11.9533 C132.6771,12.5383 131.4281,12.8303 129.4491,12.8303 C127.6671,12.8303 126.5131,12.5413 125.9911,11.9633 C125.4691,11.3863 125.2071,10.1153 125.2071,8.1503 C125.2071,5.8113 125.4631,4.3423 125.9771,3.7423 C126.4891,3.1443 127.7481,2.8443 129.7511,2.8443 M129.6071,4.4403 C128.3571,4.4403 127.6261,4.6013 127.4151,4.9213 C127.2031,5.2433 127.0981,6.3553 127.0981,8.2573 C127.0981,9.6673 127.2211,10.5153 127.4691,10.8033 C127.7151,11.0903 128.4431,11.2343 129.6511,11.2343 C130.8061,11.2343 131.4981,11.0723 131.7281,10.7493 C131.9581,10.4253 132.0741,9.4443 132.0741,7.8053 C132.0741,6.1613 131.9641,5.1883 131.7471,4.8893 C131.5281,4.5903 130.8151,4.4403 129.6071,4.4403" id="Fill-33" fill="#788A98" mask="url(#mask-4)"></path>
                    <path d="M135.8888,12.7442 L135.8888,2.9302 L140.7278,2.9302 C141.9308,2.9302 142.7598,3.1392 143.2158,3.5562 C143.6708,3.9722 143.8988,4.7282 143.8988,5.8212 C143.8988,6.8132 143.7848,7.4912 143.5568,7.8552 C143.3298,8.2202 142.8638,8.4712 142.1588,8.6102 L142.1588,8.6752 C143.2468,8.7422 143.7908,9.3772 143.7908,10.5802 L143.7908,12.7442 L141.9288,12.7442 L141.9288,10.9542 C141.9288,9.9432 141.4298,9.4372 140.4328,9.4372 L137.7518,9.4372 L137.7518,12.7442 L135.8888,12.7442 Z M137.7518,7.8692 L140.4258,7.8692 C141.0628,7.8692 141.4868,7.7562 141.6958,7.5282 C141.9038,7.3002 142.0078,6.8442 142.0078,6.1582 C142.0078,5.4592 141.9178,5.0072 141.7378,4.8032 C141.5588,4.5992 141.1638,4.4982 140.5558,4.4982 L137.7518,4.4982 L137.7518,7.8692 Z" id="Fill-34" fill="#788A98" mask="url(#mask-4)"></path>
                    <polygon id="Fill-35" fill="#788A98" mask="url(#mask-4)" points="145.815 12.744 147.677 12.744 147.677 2.93 145.815 2.93"></polygon>
                    <polygon id="Fill-36" fill="#788A98" mask="url(#mask-4)" points="154.296 4.5987 154.296 12.7447 152.434 12.7447 152.434 4.5987 149.601 4.5987 149.601 2.9307 157.23 2.9307 157.23 4.5987"></polygon>
                    <path d="M167.9391,2.9307 L164.3011,8.9987 L164.3011,12.7447 L162.4391,12.7447 L162.4391,8.9987 L158.9021,2.9307 L161.0591,2.9307 L162.5391,5.5187 C162.6211,5.6627 162.7601,5.9287 162.9571,6.3167 L163.1651,6.7127 L163.3671,7.1077 L163.4171,7.1077 L163.6261,6.7127 L163.8331,6.3167 C164.0111,5.9627 164.1531,5.6957 164.2581,5.5187 L165.7531,2.9307 L167.9391,2.9307 Z" id="Fill-37" fill="#788A98" mask="url(#mask-4)"></path>
                </g>
            </g>
        </g>
    </g>
</svg>