<svg xmlns="http://www.w3.org/2000/svg" width="138" height="58" fill-rule="evenodd"><g fill="#ea1d3c"><path d="M54.373 25.64a3.27 3.27 0 0 0-1.889-1.296c-.023-.008-.045-.012-.068-.015l-.14-.035c-.022-.008-.046-.01-.07-.014a.24.24 0 0 0-.071-.018c-.022-.004-.044-.013-.067-.018s-.047-.014-.07-.017l-.07-.016-.07-.017-.07-.016-.07-.018-.067-.018-.07-.014c-.025-.008-.047-.01-.07-.02l-.07-.017-.07-.016-.07-.018c-.023-.008-.048-.01-.07-.015s-.047-.016-.07-.018-.046-.013-.07-.017-.044-.008-.066-.02c-.025-.003-.048-.008-.07-.015l-.07-.013c-.022-.01-.045-.013-.07-.02l-.068-.016c-.02-.006-.048-.008-.07-.018-.022-.002-.046-.008-.07-.017l-.07-.013-.07-.018a.45.45 0 0 0-.067-.016l-.073-.018-.07-.016-.068-.018-.14-.032-.065-.018c-.023-.007-.048-.01-.07-.014-.022-.01-.047-.012-.07-.02-.02-.003-.045-.01-.068-.015l-.07-.018-.068-.017a.73.73 0 0 0-.07-.013c-.02-.012-.045-.013-.07-.018l-.07-.018c-.026-.006-.048-.008-.07-.018-.023-.003-.047-.01-.07-.015l-.073-.018c-.02-.003-.045-.012-.066-.017l-.07-.015c-.02-.003-.048-.01-.07-.02a.65.65 0 0 0-.07-.013c-.022-.008-.044-.013-.07-.018l-.067-.018-.07-.016-.07-.018c-.022-.003-.045-.01-.068-.014a.32.32 0 0 1-.068-.02c-.025-.001-.05-.008-.07-.015l-.07-.016c-.025-.008-.046-.012-.07-.017l-.07-.018c-.022-.003-.046-.01-.068-.015a.41.41 0 0 0-.072-.018c-.022-.007-.045-.008-.067-.015s-.047-.012-.07-.018l-.07-.015-.07-.02a.58.58 0 0 1-.07-.014l-.07-.014c-.023-.01-.047-.013-.07-.018l-.07-.016-.068-.018a.46.46 0 0 1-.07-.017l-.07-.017-.07-.016c-.023-.01-.045-.012-.068-.018l-.07-.016-.07-.017c-.022-.008-.047-.013-.07-.018l-.07-.016a.76.76 0 0 1-.07-.016c-.023-.006-.046-.01-.068-.02a.6.6 0 0 0-.069-.012c-.023-.01-.047-.015-.07-.02l-.07-.016-.07-.02c-.024-.003-.047-.006-.07-.015s-.047-.01-.07-.013c-.024-.01-.047-.013-.07-.02l-.07-.016c-.022-.008-.045-.012-.067-.02s-.048-.008-.07-.016-.047-.01-.07-.017l-.07-.016c-.023-.006-.044-.012-.07-.014-.02-.01-.046-.013-.07-.02s-.047-.007-.07-.013l-.07-.022c-.023-.002-.044-.01-.067-.014l-.07-.015c-.024-.008-.047-.013-.072-.018l-.07-.014a.42.42 0 0 0-.069-.019c-.025-.003-.046-.01-.07-.016l-.07-.018c-.022-.008-.047-.008-.07-.018l-.07-.015c-.023-.008-.047-.01-.07-.018l-.07-.015-.14-.036-.07-.015c-.02-.007-.046-.013-.068-.018l-.07-.014-.067-.02-.072-.012c-.023-.008-.046-.014-.07-.018a.55.55 0 0 0-.069-.017c-.024-.005-.046-.013-.07-.02l-.07-.016-.068-.015a.27.27 0 0 0-.07-.016c-.023-.01-.047-.013-.07-.018l-.068-.017-.07-.02-.068-.015c-.025-.008-.046-.01-.068-.018l-.07-.016c-.024-.004-.047-.01-.07-.018s-.045-.01-.068-.016l-.07-.015-.068-.02c-.025-.003-.047-.006-.07-.013s-.046-.013-.07-.015l-.068-.02a2.44 2.44 0 0 0-2.106.4c-1.1.828-1.356 2.423-.55 3.563a2.51 2.51 0 0 0 1.004.832l.064.026c.023.008.045.022.067.03l.066.027c.02.013.042.02.065.03l.065.027.065.03.065.026.064.027a.45.45 0 0 0 .067.029c.02.01.043.017.065.028a.54.54 0 0 0 .067.028l.063.032c.022.008.043.013.068.025l.064.028c.02.008.045.018.064.03s.047.013.067.028l.066.026c.02.012.043.018.065.028l.065.028.066.025c.022.013.044.022.065.03l.065.028.067.028c.02.013.042.018.063.027l.066.03.065.03.065.025.065.028.066.028c.02.01.042.018.064.028l.066.03c.022.008.042.018.067.03l.064.024c.022.014.044.018.066.03s.043.018.064.027l.065.027c.024.013.044.018.064.03l.067.026.065.032.068.025c.023.01.04.02.065.028l.064.03c.023.007.046.017.065.027s.044.02.065.03l.068.028a.27.27 0 0 1 .065.027c.02.01.043.016.066.027l.063.03.065.028.066.028.065.027c.02.012.045.02.064.028l.066.03.068.024c.02.014.043.02.064.028s.043.018.066.03.042.018.066.028l.063.03.066.027c.02.012.043.02.066.03l.064.027c.023.014.043.02.067.028l.064.03.065.028.065.026c.02.012.044.02.064.028s.046.02.066.03a.54.54 0 0 0 .066.027l.066.03c.02.008.043.016.064.028s.044.02.066.025c.02.013.046.02.065.03l.065.028.065.025c.02.013.044.02.065.03l.066.028.065.028a.42.42 0 0 0 .065.027l.063.03.065.028c.02.01.046.016.067.028l.065.03.067.027.063.026c.02.013.044.02.066.032s.044.016.065.028.043.016.065.025.042.02.065.032l.066.027.063.025c.022.013.046.02.065.03s.043.017.066.027l.064.028.067.03c.02.012.045.015.065.026l.066.03c.023.013.042.018.065.028s.045.017.064.028l.068.028c.02.013.043.017.064.03l.066.023c.02.01.042.023.065.028.022.013.045.02.065.03a.43.43 0 0 1 .065.028c.02.01.042.017.065.027l.067.028.066.027a.33.33 0 0 0 .063.03l.067.027.065.03.064.024.067.03a.48.48 0 0 1 .067.028c.02.01.042.014.063.027l.067.03c.02.007.042.017.06.027s.047.015.07.026l.13.06c.02.01.043.016.066.027s.043.018.065.027.044.02.063.03.044.017.066.03.045.015.066.027.043.018.065.027l.067.03.06.023c.025.016.047.023.066.03l.066.03.13.056c.02.013.044.02.068.028s.042.02.065.028.04.018.064.028l.066.03a3.22 3.22 0 0 0 3.353-.318c1.47-1.095 1.794-3.204.728-4.712m-11.227 4.416c-.023.002-.05.012-.072.013s-.05.012-.07.018c-.027.002-.048.008-.074.012l-.07.015-.073.02c-.026.002-.05.008-.073.012l-.07.016c-.025.004-.05.01-.074.016s-.05.007-.07.015l-.07.015-.074.013-.074.018-.07.013-.148.032c-.023.003-.047.01-.07.014l-.07.015c-.02.003-.046.012-.074.016s-.048.01-.073.016-.048.007-.07.014-.05.01-.072.017-.05.008-.072.012-.05.012-.073.018a.52.52 0 0 1-.072.011l-.072.02-.074.015c-.024.002-.047.01-.07.017s-.05.01-.073.014l-.073.014a.3.3 0 0 0-.072.02l-.075.013-.07.013c-.024.003-.047.012-.07.016a.29.29 0 0 0-.074.016l-.075.012-.07.016-.07.017a.25.25 0 0 0-.074.016c-.024.002-.048.01-.073.012a.5.5 0 0 1-.075.016c-.02.002-.045.01-.07.016l-.072.016-.072.012a.67.67 0 0 1-.075.016c-.025.004-.044.013-.07.016-.027.01-.05.012-.073.016a.52.52 0 0 0-.073.016l-.072.013-.072.016-.072.014-.073.016c-.023.003-.05.012-.072.016l-.073.016-.073.013c-.026.002-.05.012-.07.016s-.05.007-.072.016L39 30.92a.57.57 0 0 1-.074.013l-.07.018-.075.016-.072.013a.47.47 0 0 1-.074.016l-.07.016c-.023.002-.05.012-.07.017a.52.52 0 0 1-.074.012c-.024.002-.05.01-.072.02-.025.002-.046.004-.07.012s-.048.01-.072.015l-.075.016-.07.016c-.022.006-.047.008-.072.013s-.047.012-.072.013c-.026.01-.047.014-.075.02l-.07.016c-.024.006-.05.008-.073.014l-.07.015c-.024.002-.048.012-.072.016l-.072.013-.146.03c-.025.003-.05.01-.073.014l-.072.016-.07.015-.072.016-.073.014a.76.76 0 0 1-.072.017l-.073.015c-.023.002-.05.01-.074.016l-.07.015c-.022.003-.05.012-.073.015l-.07.014-.073.018c-.022.003-.047.01-.073.015l-.074.014-.144.03-.072.016a.63.63 0 0 1-.073.014l-.072.015c-.023.004-.047.015-.072.018l-.072.012-.073.017-.073.016-.073.012c-.025.004-.046.012-.07.012-.026.01-.05.016-.072.02l-.072.015-.074.017-.07.013-.074.013a.47.47 0 0 1-.071.019.57.57 0 0 0-.073.014c-.023.003-.046.013-.07.016s-.05.01-.074.014l-.072.017c-.025.002-.05.01-.073.014l-.073.015a.34.34 0 0 0-.07.019c-.024.002-.05.004-.073.012-.023.002-.05.01-.074.012a.58.58 0 0 1-.073.018l-.07.016c-.03.003-.05.01-.074.012l-.073.018-.07.015c-.025.002-.05.01-.074.015l-.073.016-.074.014c-.022.006-.048.014-.07.016s-.05.01-.074.015l-.07.016c-.023.007-.05.012-.07.016l-.075.014a.84.84 0 0 0-.07.015.75.75 0 0 0-.075.016c-.023.002-.047.01-.07.016l-.075.012-.07.016-.073.015c-.023.004-.048.012-.072.017l-.073.015-.072.013-.072.014-.072.02c-.024.002-.048.01-.07.014l-.075.012-.07.018c-.025.003-.048.01-.074.016l-.072.014-.07.015c-.026.003-.05.01-.073.015l-.072.016-.073.013-.072.016c-.026.004-.047.012-.073.016l-.072.012a3.55 3.55 0 0 0-1.817.913c-1.367 1.295-1.367 3.395 0 4.7 1.035.983 2.56 1.22 3.832.707l.07-.03.07-.028.068-.03.068-.024a.59.59 0 0 1 .068-.03c.023-.007.047-.02.07-.027s.047-.02.07-.03l.07-.03c.022-.005.044-.018.068-.025l.066-.032c.026-.006.05-.016.072-.024s.042-.023.068-.03.044-.02.066-.03l.07-.026.14-.06.066-.027.07-.027c.02-.012.042-.02.067-.03l.068-.028.07-.025a.54.54 0 0 1 .067-.031c.024-.007.046-.02.07-.026l.07-.03.067-.03c.022-.007.045-.02.068-.03l.068-.027a.61.61 0 0 0 .069-.028l.068-.026c.02-.006.045-.02.07-.03l.068-.028.07-.027.066-.028.07-.03c.024-.006.046-.017.07-.026l.068-.028c.023-.008.046-.02.068-.03a.66.66 0 0 0 .069-.027l.07-.03.067-.026.068-.03.07-.03.07-.027c.023-.01.047-.018.068-.028l.07-.03c.022-.007.043-.02.066-.026s.047-.02.068-.03l.07-.026c.023-.013.045-.022.068-.033s.045-.016.07-.026l.066-.03a.33.33 0 0 0 .071-.027.59.59 0 0 0 .067-.03l.07-.027c.023-.007.046-.016.07-.027l.066-.028.07-.027.066-.03c.02-.01.045-.017.07-.026s.044-.02.07-.026a.54.54 0 0 1 .068-.03c.023-.007.046-.02.07-.03l.067-.027.07-.028c.023-.008.045-.02.068-.026s.046-.02.07-.03l.07-.026.067-.03.07-.03.135-.054c.024-.008.043-.02.067-.028l.07-.03.068-.026c.024-.013.046-.02.07-.033s.045-.016.068-.026.045-.02.068-.024c.025-.013.047-.02.07-.03l.068-.028.07-.03c.022-.005.046-.015.066-.026l.07-.03.07-.028.068-.03a.74.74 0 0 0 .068-.027c.025-.007.047-.02.07-.03l.07-.027.07-.026.07-.032c.022-.006.043-.02.065-.026l.07-.026c.023-.012.046-.02.07-.03s.044-.02.07-.027l.068-.027.066-.03c.025-.008.048-.02.073-.028l.067-.027.066-.03.07-.03.135-.054.067-.03.07-.026.072-.03.065-.026.07-.026.067-.03c.024-.007.048-.02.07-.03a.58.58 0 0 0 .065-.029l.07-.026.07-.03c.02-.008.045-.016.068-.03a.58.58 0 0 0 .069-.027c.024-.006.042-.02.066-.028a.4.4 0 0 0 .069-.03c.023-.006.044-.016.066-.025l.072-.026.067-.03a.29.29 0 0 0 .069-.028c.023-.007.047-.018.07-.026l.068-.03c.025-.007.046-.018.068-.027l.07-.027.07-.03c.02-.006.042-.018.066-.026l.07-.026c.023-.008.047-.022.07-.03s.045-.02.07-.03.046-.016.066-.028c.025-.007.048-.017.07-.027l.136-.06c.024-.005.046-.014.07-.027l.067-.026.07-.03c.022-.006.045-.015.067-.027l.07-.025c.023-.014.044-.02.07-.032a.67.67 0 0 0 .067-.03.33.33 0 0 0 .067-.026l.07-.025.07-.032c.023-.006.044-.016.07-.027s.043-.02.067-.026l.067-.03.068-.027.07-.03.067-.027.07-.03c.022-.01.046-.016.07-.027l.067-.025.07-.03.068-.03a.58.58 0 0 0 .07-.026l.066-.027.07-.028a2.29 2.29 0 0 0 .8-.505c.93-.878.93-2.304 0-3.187a2.45 2.45 0 0 0-2.189-.605"/><path d="M29.553 1.736l-.035.06a.45.45 0 0 0-.038.063c-.016.02-.026.04-.04.062l-.04.06c-.015.02-.025.044-.037.065l-.038.062c-.01.022-.026.04-.04.062l-.038.06c-.015.02-.025.043-.04.062s-.023.04-.038.063c-.014.016-.026.04-.038.06l-.038.063-.04.06-.037.065c-.013.018-.024.04-.038.06l-.04.062a.42.42 0 0 1-.037.065l-.038.06-.038.064-.04.06-.04.064c-.015.018-.025.04-.036.06s-.027.04-.04.063l-.038.06-.038.063c-.015.02-.026.044-.04.06l-.038.064-.04.064-.036.06-.04.062-.036.06c-.015.02-.026.043-.04.064l-.038.06-.038.062-.038.063-.038.062c-.015.017-.026.04-.04.06s-.025.04-.038.064l-.04.06-.037.062-.04.062-.04.06-.036.062c-.014.018-.026.042-.04.06l-.04.065c-.013.018-.023.04-.038.06l-.037.065c-.014.018-.027.04-.04.06l-.04.063c-.014.02-.024.04-.036.063s-.026.04-.04.06l-.038.065c-.012.017-.026.04-.037.06l-.038.062-.04.06c-.01.023-.023.04-.038.062-.01.02-.025.043-.037.065l-.04.06a.69.69 0 0 1-.037.062l-.038.06-.038.063-.036.062c-.016.02-.027.04-.04.063s-.025.04-.038.06-.025.043-.04.06l-.036.062c-.015.02-.026.04-.04.062l-.038.06-.038.064-.038.06c-.016.02-.026.042-.04.064l-.04.062-.038.06c-.012.023-.026.044-.038.063l-.04.062-.038.063c-.014.02-.024.043-.036.06-.017.024-.027.045-.04.065l-.04.06-.038.064-.04.06a.47.47 0 0 1-.037.061l-.037.065c-.017.018-.026.04-.04.062l-.04.06-.038.06-.038.062-.038.064-.04.06-.038.06-.04.063c-.013.02-.025.044-.038.066-.014.017-.024.038-.038.06l-.038.062c-.015.02-.025.043-.04.062l-.04.062c-.014.02-.022.04-.037.062l-.038.06-.04.06-.038.066-.038.06-.038.062c-.012.023-.026.04-.038.06l-.037.065c-.015.022-.03.04-.04.063a.43.43 0 0 0-.038.063c-.015.02-.027.04-.04.06l-.078.123-.04.06-.037.06c-.015.02-.026.046-.038.063l-.038.065a.6.6 0 0 0-.038.062c-.014.017-.026.042-.038.06l-.04.063c-.012.02-.024.043-.038.06l-.037.063-.038.06c-.015.022-.026.04-.038.063a.37.37 0 0 0-.038.062l-.04.062-.038.062-.037.06-.04.063c-.014.02-.024.042-.038.063l-.077.124-.037.06-.04.06-.037.065a.4.4 0 0 0-.038.064c-.012.024-.027.04-.04.062l-.038.06a2.51 2.51 0 0 0-.291 2.18c.443 1.342 1.912 2.076 3.276 1.642.452-.145.834-.4 1.13-.723.016-.018.03-.04.05-.055s.028-.037.047-.057l.047-.05.048-.056c.02-.017.033-.04.048-.057s.033-.036.05-.053l.048-.055c.017-.017.032-.04.05-.053l.05-.056.046-.057c.018-.015.03-.036.048-.053a.73.73 0 0 0 .049-.055c.017-.016.032-.037.048-.053l.048-.056c.018-.015.035-.036.047-.055.017-.016.032-.036.048-.053l.05-.055a.39.39 0 0 0 .048-.055c.018-.017.032-.037.05-.055l.047-.055.048-.053.05-.055c.018-.018.03-.038.05-.056s.03-.04.046-.055l.05-.055.047-.053c.016-.018.03-.04.047-.055s.03-.037.05-.058c.015-.013.03-.034.048-.052l.046-.055.1-.1c.018-.018.032-.036.048-.054l.048-.055.048-.056.047-.05c.02-.02.032-.04.05-.06a.43.43 0 0 0 .046-.052l.052-.055.044-.055c.02-.016.032-.04.048-.056l.1-.1c.017-.015.032-.035.046-.053.02-.017.033-.036.05-.055l.045-.055.05-.055c.016-.014.03-.034.048-.053l.05-.056c.017-.015.032-.037.047-.055l.05-.055c.017-.014.03-.036.047-.05l.05-.06c.015-.013.03-.034.048-.053s.03-.04.048-.055.03-.038.048-.057c.016-.014.032-.035.048-.052l.047-.057a.27.27 0 0 0 .048-.055l.05-.055c.02-.017.03-.034.05-.052l.046-.058c.02-.015.032-.03.05-.05l.05-.057c.014-.018.028-.038.05-.053l.047-.054.045-.055.05-.056a.61.61 0 0 1 .048-.055l.048-.054.047-.054.048-.058c.017-.015.032-.035.05-.054l.046-.052c.018-.018.032-.038.048-.055s.03-.04.05-.057.03-.037.048-.053l.05-.055c.016-.016.03-.034.047-.054l.048-.055.05-.056c.017-.016.03-.037.047-.055l.05-.056.048-.053.047-.055.048-.055.05-.055c.016-.018.03-.037.048-.052s.03-.04.047-.057.033-.038.047-.053l.05-.055c.018-.018.032-.037.048-.058.017-.013.03-.035.05-.052l.046-.057c.016-.014.03-.034.048-.055.016-.014.032-.036.047-.054l.05-.054c.016-.018.03-.04.048-.054l.048-.058.048-.05c.017-.018.03-.04.047-.057l.05-.053.047-.055c.018-.018.03-.04.048-.055l.05-.055c.017-.017.03-.038.05-.056l.05-.053.044-.057c.017-.015.032-.034.05-.052s.028-.038.047-.056l.048-.053c.018-.018.032-.04.048-.057s.032-.037.048-.05l.05-.058c.017-.018.032-.038.047-.056a.41.41 0 0 1 .05-.052l.046-.056c.02-.016.033-.038.05-.055s.03-.037.047-.055l.048-.055a.64.64 0 0 1 .05-.054c.017-.016.035-.037.05-.057.016-.013.03-.035.047-.054l.05-.053.047-.056c.02-.017.03-.038.05-.053.015-.02.032-.038.05-.055l.046-.057.05-.053.048-.056c.016-.017.03-.04.047-.056s.033-.035.05-.052l.048-.056.095-.107.05-.057c.838-.87 1.18-2.15.774-3.374C35.245.562 33.302-.4 31.497.166a3.43 3.43 0 0 0-1.867 1.445c-.013.024-.024.04-.038.062l-.04.062m3.868 9.515a2.3 2.3 0 0 0-1.286 1.828l-.006.07c-.005.025-.005.05-.01.073s-.002.05-.007.073l-.005.072-.01.074-.008.073-.004.074-.01.07-.004.075a.49.49 0 0 0-.009.07l-.007.075c-.005.023-.005.046-.007.072l-.01.072-.006.075c-.005.023-.005.047-.007.07l-.01.075-.005.07-.01.074-.007.073-.006.074-.007.072-.01.072c0 .024-.002.05-.005.072l-.014.146-.01.073-.007.073c-.003.023-.003.048-.005.07l-.01.075-.006.07-.007.07v.073l-.004.07-.01.075-.007.072-.007.075-.007.072-.01.073c-.002.023-.002.046-.007.07l-.006.072c-.005.022-.005.05-.007.073l-.007.072-.006.07-.01.075-.008.072-.007.075-.006.07c-.004.024-.005.05-.008.075l-.01.07-.004.07c-.007.023-.007.05-.008.076l-.008.07-.006.074-.01.07-.006.074c-.005.024-.007.05-.01.073l-.007.07-.008.072c-.001.025-.004.05-.008.075s-.003.048-.005.07l-.007.073-.01.073-.006.074c-.004.023-.004.045-.007.07l-.01.074c0 .023-.003.046-.006.07s-.004.05-.01.072-.002.05-.007.074l-.006.07-.007.075-.006.07c-.005.023-.007.05-.01.074l-.007.073-.006.073-.01.074-.006.072c-.003.024-.003.046-.005.072s-.006.048-.01.073l-.006.07-.014.145c-.004.024-.006.05-.008.074l-.006.075c-.002.025-.007.046-.01.07l-.008.075-.006.072c-.006.023-.006.048-.008.07l-.008.074-.006.07c-.005.03-.005.05-.007.077s-.007.048-.008.07l-.008.074c-.004.024-.004.048-.006.072a.64.64 0 0 1-.01.073l-.012.14c-.005.026-.007.05-.01.075l-.008.07-.005.075-.01.07-.006.072-.008.074c-.005.025-.005.047-.007.073l-.007.07-.01.075a.52.52 0 0 1-.007.07l-.006.072c-.002.025-.002.05-.01.075 0 .022-.004.047-.005.07l-.006.074c-.003.022-.003.05-.01.07a.52.52 0 0 1-.007.073l-.006.073-.01.074c0 .025-.003.05-.005.074l-.007.07-.008.074-.006.072-.01.07-.014.148-.008.07c-.003.026-.003.05-.003.073s-.007.05-.01.076a.53.53 0 0 0-.008.071l-.005.07-.01.075-.006.07a.66.66 0 0 0-.008.075c-.004.023-.004.05-.004.072-.006.024-.006.047-.01.072a.62.62 0 0 1-.008.071l-.007.074-.006.074-.006.07-.008.074-.008.072c-.004.025-.004.05-.007.07l-.008.075-.005.073c-.005.022-.005.046-.01.07l-.007.07c-.005.024-.005.05-.007.072l-.007.077a.57.57 0 0 0-.007.07l-.008.072c-.003.023-.003.048-.01.074 0 .022 0 .046-.004.07s-.004.047-.008.072l-.008.074c0 .023-.004.045-.007.074l-.006.07c-.003.024-.003.048-.01.072a3.25 3.25 0 0 0 .355 1.96c.876 1.662 2.984 2.322 4.706 1.48 1.308-.645 2.017-1.976 1.897-3.305l-.008-.074-.008-.072-.007-.076-.008-.072-.007-.074c0-.023-.005-.05-.007-.072l-.007-.075-.01-.07c-.001-.027-.004-.05-.01-.074l-.003-.074c-.006-.024-.01-.048-.01-.07l-.007-.075-.008-.073-.007-.072-.01-.075-.005-.07-.01-.074-.006-.072-.005-.073-.01-.074c0-.025-.003-.048-.006-.07s-.003-.05-.006-.074l-.007-.072-.007-.074-.008-.073-.007-.073-.008-.074c0-.024-.005-.048-.01-.072l-.005-.072-.016-.148-.005-.075-.01-.072c0-.023-.003-.048-.005-.072a.52.52 0 0 1-.007-.071.53.53 0 0 0-.01-.074c-.005-.024-.003-.048-.007-.073l-.008-.072-.007-.075c0-.023-.004-.048-.006-.072l-.006-.072-.01-.074c0-.022-.004-.047-.007-.072l-.006-.072-.007-.072-.008-.075-.006-.075-.01-.07-.008-.075-.008-.072-.004-.072-.01-.075-.01-.07-.004-.074-.01-.074a.47.47 0 0 0-.006-.07l-.007-.075c0-.025-.004-.048-.007-.07l-.008-.077-.008-.072c-.001-.022-.004-.047-.007-.07l-.014-.147-.008-.07c0-.03-.004-.05-.006-.075a.52.52 0 0 1-.007-.07.72.72 0 0 0-.01-.075c-.004-.022-.003-.05-.005-.072l-.008-.075-.006-.07-.008-.076-.01-.07-.006-.074-.007-.075-.007-.07-.005-.074c-.002-.026-.01-.048-.01-.075a.41.41 0 0 0-.009-.072l-.004-.07-.01-.072-.008-.075-.005-.07c-.003-.024-.004-.05-.01-.075 0-.026-.005-.05-.006-.075l-.007-.07-.008-.075c0-.024-.004-.047-.008-.072l-.007-.074-.007-.07c0-.024-.005-.05-.006-.074l-.007-.075c-.001-.023-.004-.05-.007-.072l-.01-.075c-.004-.025-.007-.046-.007-.07l-.008-.075c-.001-.023-.003-.05-.008-.07 0-.028-.004-.053-.005-.076l-.01-.07c0-.023-.005-.05-.005-.072a.87.87 0 0 0-.009-.074l-.005-.072-.01-.073-.005-.075-.01-.073-.01-.07-.004-.073-.01-.072v-.074c0-.023-.003-.05-.006-.075l-.005-.072-.008-.073a.49.49 0 0 0-.01-.07l-.007-.074c0-.027-.003-.05-.01-.074 0-.022-.003-.05-.004-.075l-.012-.145-.01-.073c-.001-.023-.004-.046-.007-.072l-.008-.073-.006-.072-.005-.073-.01-.074c-.001-.024-.004-.047-.007-.072l-.007-.075-.007-.07c-.002-.023-.003-.048-.01-.07a.75.75 0 0 0-.005-.077l-.006-.07-.01-.075-.004-.07c0-.024-.006-.048-.007-.074l-.007-.07a.74.74 0 0 0-.01-.072l-.006-.077-.006-.07-.008-.075c-.004-.02-.004-.047-.01-.073l-.006-.07-.008-.076-.007-.07c-.004-.025-.006-.05-.006-.076l-.01-.07c0-.024-.004-.05-.005-.073v-.072c-.001-.025-.005-.048-.008-.073s-.004-.05-.005-.072l-.008-.075-.008-.073c0-.023-.007-.048-.007-.07a.72.72 0 0 1-.005-.074l-.01-.077-.01-.07c-.018-.303-.102-.6-.255-.897-.597-1.13-2.03-1.583-3.203-1.007"/><path d="M.87 16.626c.015.02.032.036.048.056s.03.034.05.055l.047.053.048.058c.018.017.032.036.05.054s.033.037.05.056L1.2 17l.05.056.048.055.048.056.05.052.046.06c.016.02.032.036.05.053l.05.055c.012.02.03.038.048.057l.046.052.05.058.048.055c.02.015.032.036.05.053.01.02.03.038.046.058l.05.053.046.055c.018.017.034.034.05.055l.045.055c.018.023.035.036.05.055l.05.055c.014.018.032.036.048.055l.047.055.047.054.05.054c.017.024.033.04.05.06l.047.053c.017.017.034.037.05.056l.05.056a.48.48 0 0 1 .048.054l.05.056c.015.02.03.033.048.054l.048.055.05.057.05.05c.013.02.032.04.047.056l.05.056.048.054c.014.02.033.04.048.053l.05.058.047.055.048.055c.015.02.032.036.048.056l.05.053c.015.02.03.036.05.058l.045.055.05.05c.015.022.032.038.046.06.018.014.032.034.05.05s.033.04.05.056.035.035.048.055l.05.054c.015.02.032.037.048.057l.05.055.047.052c.015.022.032.038.05.058l.095.1.05.054c.015.02.032.037.047.054l.05.057c.015.02.032.038.047.056l.048.053.05.055.05.056.045.053.05.058c.018.015.03.035.05.055l.045.054.05.054.05.058.048.054.044.055.053.055.047.056c.015.02.032.036.05.055l.047.054.05.056.05.05c.015.02.033.037.05.06l.048.055.048.056.048.055.048.053.05.056.047.055c.017.013.033.034.05.054l.05.057.048.052.048.055c.014.02.033.04.05.056l.048.055.047.06c.015.014.034.03.05.054l.045.055a.55.55 0 0 1 .05.051c.017.02.035.038.047.057l.05.055c.014.02.032.037.05.055s.032.036.047.055l.047.054.05.056c.015.02.033.036.05.055l.048.056.05.054.05.056.047.055.05.055a.37.37 0 0 0 .05.057c.02.02.032.036.05.054l.048.055.047.057.05.053.047.056c.017.018.03.04.047.053.015.02.035.036.05.056s.032.036.05.054.032.038.047.056l.05.055.047.053.05.058.048.054.05.055.048.056.047.053.05.056.048.054.047.055.1.1A2.6 2.6 0 0 0 9.398 25C10.834 25 12 23.855 12 22.443a2.49 2.49 0 0 0-.354-1.278l-.038-.062c-.01-.02-.026-.04-.038-.06l-.037-.06-.04-.062-.037-.062-.038-.063c-.012-.022-.028-.04-.04-.06l-.037-.062-.076-.12c-.01-.023-.026-.042-.04-.063l-.038-.06-.038-.063c-.01-.02-.027-.04-.04-.06l-.038-.063-.038-.06c-.01-.024-.026-.04-.036-.064l-.042-.06-.037-.06a.39.39 0 0 0-.038-.063l-.038-.064-.076-.12c-.01-.024-.026-.04-.038-.06l-.038-.065c-.01-.02-.026-.04-.04-.063s-.024-.038-.038-.06l-.038-.062a.51.51 0 0 1-.038-.061l-.038-.063-.04-.06c-.01-.022-.024-.04-.038-.06s-.024-.043-.038-.064l-.036-.06a.55.55 0 0 0-.04-.063l-.038-.06c-.01-.024-.027-.04-.038-.06l-.076-.124c-.014-.02-.025-.04-.037-.06l-.04-.063c-.012-.022-.026-.04-.038-.06l-.04-.06-.035-.065-.04-.06-.038-.064c-.01-.018-.025-.035-.04-.058l-.038-.06c-.013-.02-.024-.044-.035-.062l-.04-.064-.04-.06c-.01-.02-.025-.04-.037-.06l-.038-.06c-.01-.025-.026-.043-.038-.065l-.038-.062c-.012-.018-.028-.038-.036-.06-.015-.022-.03-.04-.038-.063s-.03-.038-.04-.06-.027-.042-.038-.06l-.038-.063-.04-.063-.036-.06c-.013-.023-.026-.04-.04-.063l-.04-.06-.035-.064-.04-.06c-.01-.024-.026-.04-.038-.062l-.036-.062-.078-.123-.04-.06c-.01-.023-.025-.04-.035-.06l-.038-.062c-.015-.024-.03-.042-.04-.065l-.04-.06c-.01-.02-.026-.04-.04-.062a.44.44 0 0 0-.038-.061c-.012-.02-.023-.043-.038-.06l-.037-.063a.47.47 0 0 1-.038-.064c-.012-.017-.026-.037-.038-.06l-.038-.06c-.012-.02-.026-.044-.042-.06-.01-.022-.023-.04-.034-.064s-.028-.04-.038-.06-.03-.04-.04-.062-.026-.04-.036-.06-.028-.043-.04-.06-.026-.044-.04-.065l-.038-.06c-.01-.022-.026-.04-.038-.06l-.038-.06-.038-.065-.04-.06L8 15.33l-.04-.06-.036-.064-.038-.06-.038-.063-.04-.06-.077-.123c-.01-.02-.026-.04-.038-.06l-.04-.065-.038-.06c-.01-.023-.024-.04-.038-.062l-.038-.06a.56.56 0 0 1-.036-.065l-.04-.06-.038-.062c-.01-.02-.024-.038-.038-.058s-.026-.04-.037-.065l-.038-.06c-.01-.023-.026-.04-.038-.063s-.027-.04-.04-.062l-.036-.062a.77.77 0 0 1-.039-.062l-.038-.06c-.01-.022-.026-.04-.038-.063s-.026-.038-.038-.06-.026-.04-.037-.064-.028-.04-.042-.06-.023-.042-.036-.063l-.038-.063c-.015-.018-.026-.04-.038-.06l-.038-.06-.038-.063-.037-.06-.08-.128-.038-.06c-.01-.02-.026-.04-.038-.06L6.558 13c-.012-.024-.026-.043-.04-.065-.008-.018-.025-.04-.038-.06a.49.49 0 0 1-.037-.064c-.56-1.086-1.696-1.8-3.005-1.8C1.54 11 0 12.513 0 14.382c0 .836.3 1.6.82 2.2a.53.53 0 0 0 .051.055m10.557.693c.02.01.046.018.068.026s.046.02.068.03l.068.028c.024.008.045.02.067.027l.068.03c.023.01.045.017.068.025s.044.02.067.03l.07.03.067.028.07.027.066.028.07.026.066.03c.023.012.046.02.068.03s.043.02.07.027c.02.012.044.017.066.03s.046.018.068.026l.068.03c.024.012.045.02.07.027l.066.03.07.025c.02.012.043.02.064.03l.068.025c.023.012.046.022.067.027a.47.47 0 0 0 .069.029c.02.012.045.016.068.03l.068.027.068.026c.022.012.047.016.067.03l.068.03c.023.01.045.016.07.025s.044.02.066.03l.07.03.068.03.066.024c.023.012.046.02.068.03l.068.03.068.024.07.03.068.03.067.026.067.03.135.056c.023.007.046.02.068.025.025.013.046.02.067.027a.51.51 0 0 1 .07.03l.067.025c.023.013.046.02.07.03l.066.028.068.025.068.03.07.03c.022.008.044.017.066.03l.068.025c.02.012.045.02.068.03l.067.028.07.03.065.027c.023.008.046.02.07.03l.068.027.07.03.066.028.135.054c.026.012.047.02.07.027l.068.032c.023.008.044.013.067.026l.07.028.065.028.07.03.065.025.07.028c.02.007.044.02.067.03l.07.03.066.026.068.028a.43.43 0 0 0 .067.028l.068.03c.023.007.045.017.067.027l.068.03.07.026.136.056c.022.012.046.017.067.03l.07.027c.02.012.046.017.067.027l.068.028c.023.008.043.02.068.03l.065.025.07.03.068.028c.023.01.046.02.068.024.02.013.044.02.066.032s.048.02.07.028l.068.028c.023.01.047.016.07.028l.067.026.066.03.067.027.07.03c.02.005.044.016.068.026l.067.03.068.025a.52.52 0 0 0 .068.026l.068.03.067.03c.023.012.046.02.068.025.023.012.048.018.067.028l.07.027a.34.34 0 0 0 .067.03l.068.03.068.026c.023.012.045.017.066.027l.07.03.07.028.067.03.067.028a.48.48 0 0 1 .068.028c.022.012.044.017.068.024.02.013.043.02.067.03s.046.02.07.026l.065.03c.024.007.047.016.068.026s.047.02.07.027l.066.03c.022.01.047.015.07.023s.043.023.068.028c.023.012.045.02.068.03l.068.03.067.027.068.03.068.027.07.027c.02.012.045.02.068.028l.067.03.068.025c.022.012.045.02.068.03l.067.027.068.03.067.027.07.028.068.03c.02.01.044.018.067.027s.044.02.068.025a.53.53 0 0 0 .068.03c.022.01.045.017.068.03l.066.026a.49.49 0 0 0 .068.028l.068.03a.39.39 0 0 1 .068.029l.066.024.07.03c.023.01.046.016.068.03.023.007.045.016.067.025l.068.03a3.68 3.68 0 0 0 2.038.275c1.904-.285 3.206-1.984 2.902-3.8-.228-1.378-1.32-2.416-2.664-2.7l-.075-.018a.41.41 0 0 0-.07-.012c-.024-.002-.05-.012-.074-.015l-.08-.032c-.023-.005-.048-.007-.073-.016l-.073-.012c-.023-.01-.05-.013-.072-.02s-.048-.005-.073-.014l-.072-.017-.073-.012a.53.53 0 0 0-.074-.016l-.072-.015-.072-.02-.073-.01-.07-.017c-.027-.007-.05-.01-.075-.014l-.07-.017-.072-.015a.51.51 0 0 0-.075-.012c-.022-.01-.048-.012-.07-.02s-.05-.01-.074-.013-.05-.01-.073-.017l-.07-.015-.074-.013a.46.46 0 0 0-.075-.016c-.023-.01-.047-.012-.07-.016s-.05-.008-.074-.017a.72.72 0 0 0-.071-.013l-.074-.013c-.023-.008-.048-.013-.07-.02l-.074-.014-.144-.033-.075-.013-.07-.018-.073-.012-.07-.014-.075-.018-.073-.012-.072-.017c-.024-.01-.048-.012-.07-.014l-.145-.03c-.024-.005-.05-.012-.07-.013l-.074-.02c-.024-.002-.048-.006-.072-.014l-.073-.016-.075-.015-.144-.03-.074-.016c-.023-.007-.05-.01-.073-.016a.46.46 0 0 1-.071-.016.75.75 0 0 0-.073-.013l-.074-.016-.072-.016c-.024-.006-.05-.008-.072-.016l-.074-.013c-.023-.008-.05-.012-.07-.016l-.073-.015-.074-.016-.072-.016c-.023-.002-.048-.01-.072-.015l-.074-.015-.075-.015-.07-.016c-.025-.008-.05-.01-.07-.015l-.076-.016-.07-.014c-.025-.008-.05-.01-.075-.016l-.14-.032-.073-.012c-.027-.01-.05-.013-.075-.018l-.07-.015c-.026-.006-.05-.007-.074-.016s-.05-.007-.074-.012l-.073-.016c-.025-.004-.05-.013-.07-.016l-.075-.014c-.024-.007-.046-.014-.073-.017s-.048-.01-.072-.014l-.074-.017-.072-.014-.07-.015-.073-.017-.073-.014c-.026-.007-.05-.01-.074-.013-.023-.01-.048-.014-.074-.018s-.05-.007-.07-.016l-.073-.014c-.025-.008-.05-.012-.075-.016a.48.48 0 0 1-.07-.015.44.44 0 0 0-.074-.015c-.024-.003-.05-.01-.073-.014l-.072-.017c-.024-.007-.05-.01-.074-.015l-.072-.015-.07-.016-.074-.016-.076-.013-.07-.02a.49.49 0 0 1-.075-.013c-.023-.008-.047-.01-.07-.015l-.072-.018c-.025-.002-.05-.007-.075-.012l-.073-.017c-.023-.003-.048-.012-.073-.015l-.146-.03a.49.49 0 0 0-.07-.012c-.02-.002-.05-.014-.075-.017l-.072-.016-.072-.013c-.024-.007-.05-.012-.073-.017l-.075-.014c-.02-.007-.048-.01-.07-.014s-.05-.012-.072-.017l-.075-.015-.07-.015c-.026-.008-.05-.01-.075-.017s-.048-.007-.07-.016c-.025-.002-.05-.012-.074-.015a.3.3 0 0 1-.07-.015l-.075-.015-.072-.015-.073-.02a.47.47 0 0 1-.073-.013l-.073-.012c-.025-.008-.05-.012-.074-.018l-.07-.015-.075-.013c-.023-.01-.05-.012-.075-.016l-.07-.017c-.025-.003-.05-.008-.074-.014s-.05-.01-.072-.014c-.023-.01-.048-.012-.073-.017l-.073-.016c-.023-.007-.047-.007-.072-.014l-.072-.016-.146-.03-.074-.018c-.025-.002-.048-.007-.073-.012l-.072-.016-.074-.014-.07-.015-.072-.017c-.025-.007-.05-.01-.074-.012l-.072-.018a.54.54 0 0 0-.074-.013l-.07-.018a.43.43 0 0 1-.072-.015l-.076-.015c-.02-.007-.045-.01-.07-.014l-.072-.016c-.304-.076-.63-.094-.96-.043-1.296.197-2.18 1.35-1.976 2.578.134.788.68 1.415 1.398 1.713"/><path d="M14.282 40.125c-.433-.147-.875-.157-1.288-.067-.027.003-.05.014-.072.017s-.046.01-.068.018-.046.01-.07.014l-.068.018c-.023.003-.046.012-.07.018l-.067.018a.29.29 0 0 0-.071.015c-.022.003-.046.01-.067.016l-.07.016c-.026.004-.047.013-.07.018l-.07.016-.068.017a.36.36 0 0 0-.07.018c-.023.003-.047.01-.068.016-.027.003-.047.012-.07.018l-.068.015-.07.017c-.024.003-.046.013-.07.016l-.07.017c-.023.003-.046.013-.072.02-.02.002-.044.01-.067.013s-.044.014-.07.017-.046.013-.07.018l-.072.018a.27.27 0 0 0-.067.017l-.07.013c-.02.008-.044.012-.067.018l-.07.017-.067.02c-.025.003-.048.012-.07.018a.65.65 0 0 0-.069.013c-.022.004-.046.013-.067.018l-.07.015c-.024.005-.046.012-.068.018l-.07.014a.5.5 0 0 1-.067.018c-.024.003-.047.01-.07.017s-.044.01-.067.015-.05.01-.07.02l-.07.014a.37.37 0 0 1-.068.016c-.02.003-.047.016-.07.018-.022.008-.046.014-.07.017a.35.35 0 0 0-.068.018l-.068.016-.07.018c-.024.003-.045.013-.07.016a.59.59 0 0 0-.069.017l-.07.016-.07.018c-.024.003-.046.01-.07.016l-.07.016c-.022.004-.045.013-.068.014l-.07.02-.068.016-.072.017-.067.018c-.023.003-.046.01-.07.015s-.045.015-.07.017l-.065.017-.072.018a.4.4 0 0 0-.07.018c-.023.002-.044.01-.067.014l-.07.017c-.02.003-.044.013-.068.015l-.07.02c-.024.002-.047.01-.067.014l-.07.017-.07.018c-.024.003-.043.01-.068.015a.42.42 0 0 0-.068.018c-.025.003-.048.01-.07.013l-.07.02c-.022.003-.047.013-.068.017l-.07.015a.7.7 0 0 0-.069.019c-.024.003-.046.008-.07.013s-.045.013-.07.016l-.07.018c-.024.002-.046.01-.07.015l-.07.017c-.023.004-.046.014-.07.018s-.045.013-.067.018l-.07.016-.067.014a.44.44 0 0 1-.069.018c-.024.003-.047.012-.07.016s-.047.013-.07.02-.047.008-.068.015-.047.01-.07.02c-.02.002-.045.008-.07.014l-.067.014-.068.02c-.024.003-.047.01-.07.015s-.044.014-.07.02a.39.39 0 0 0-.068.014.52.52 0 0 0-.07.016l-.07.017-.07.015c-.024.005-.046.014-.068.02s-.048.01-.07.014-.045.013-.07.018l-.068.017-.07.014a.36.36 0 0 1-.069.019l-.07.014c-.024.004-.043.017-.068.02l-.07.013c-.022.006-.044.013-.07.015a.24.24 0 0 1-.07.018l-.07.017-.07.018c-.022.003-.046.01-.067.015l-.07.018-.07.017c-.026.004-.048.012-.072.017l-.07.015c-.024.005-.046.015-.068.016l-.068.02c-.025.004-.046.012-.07.017l-.07.015c-.022.005-.043.013-.068.016l-.07.016c-.023.005-.045.016-.068.02s-.047.012-.07.017l-.07.018c-.023.002-.047.01-.066.015-.025.004-.05.013-.07.017l-.07.015a.42.42 0 0 0-.068.018c-.024.002-.047.01-.07.014s-.046.013-.07.017-.046.013-.07.018l-.14.036c-1.147.216-2.145 1.056-2.532 2.274-.56 1.775.385 3.68 2.112 4.253a3.19 3.19 0 0 0 2.268-.089l.066-.03c.024-.007.047-.017.067-.025l.067-.03c.02-.007.043-.02.065-.03a.67.67 0 0 0 .065-.028l.065-.027.066-.028.065-.03c.023-.006.047-.018.066-.027l.066-.027c.024-.01.042-.02.067-.033.02-.003.042-.014.065-.024s.044-.023.065-.028.044-.02.067-.03.042-.02.065-.026.044-.02.065-.028.046-.018.068-.03c.02-.007.042-.02.066-.027l.064-.028.067-.028.065-.028.064-.028.068-.027.065-.03.065-.027.066-.03a.3.3 0 0 0 .065-.027l.065-.027.067-.03.064-.028c.024-.008.043-.022.065-.028l.066-.03.067-.026c.02-.01.043-.023.065-.03a.53.53 0 0 0 .067-.03c.024-.008.04-.018.064-.025l.065-.028.066-.03c.024-.006.045-.016.07-.028a.58.58 0 0 0 .063-.028c.02-.01.045-.02.068-.028l.065-.028c.022-.007.043-.018.066-.027s.043-.02.064-.032a.21.21 0 0 0 .068-.027l.065-.026.065-.03c.022-.006.044-.017.067-.028l.065-.028.064-.03.065-.028c.024-.008.046-.02.067-.028l.065-.027.066-.028c.022-.008.044-.02.067-.03l.065-.027.065-.03c.022-.005.045-.018.065-.028s.046-.016.067-.028l.066-.03c.022-.008.042-.018.065-.028L9.568 47l.067-.03c.02-.01.042-.02.064-.027s.044-.02.064-.03l.067-.028c.022-.01.043-.02.066-.026s.044-.02.065-.03l.064-.027.07-.026.13-.06c.022-.007.043-.017.065-.028l.065-.027.067-.028.065-.03.067-.026.064-.03c.023-.008.046-.014.067-.028l.067-.026a.43.43 0 0 1 .065-.031c.023-.007.042-.018.064-.028a.47.47 0 0 0 .065-.028l.068-.025.063-.03c.024-.008.045-.02.07-.028l.065-.03.066-.028c.023-.008.044-.02.065-.028l.07-.03c.02-.007.042-.018.063-.028s.043-.018.067-.026a.32.32 0 0 0 .065-.03c.023-.008.043-.018.065-.028l.134-.056c.02-.01.044-.018.064-.028l.067-.028.065-.028a.48.48 0 0 0 .067-.03l.065-.023c.023-.01.042-.022.066-.03l.13-.057c.02-.005.044-.02.064-.027l.068-.028.065-.028.064-.028.068-.028.065-.028a.55.55 0 0 1 .067-.026l.064-.03.067-.028.063-.027.068-.03.066-.03c.024-.006.042-.018.064-.027l.067-.03c.022-.007.045-.02.065-.028l.067-.028.065-.028c.023-.008.045-.02.066-.03s.04-.017.065-.025l.065-.03c.023-.007.045-.02.067-.028s.043-.02.065-.028.044-.017.065-.03c.023-.003.043-.016.066-.025l.066-.028.065-.03a.3.3 0 0 0 .065-.027l.07-.028.064-.03c.024-.007.043-.017.066-.025l.066-.03c.67-.27 1.23-.832 1.472-1.6.425-1.342-.3-2.78-1.596-3.216m3.497-9.945c.016-.012.03-.034.044-.052s.032-.035.048-.055l.044-.052c.016-.015.03-.036.047-.052l.046-.054.046-.053.045-.053c.016-.02.03-.04.045-.053a3.47 3.47 0 0 0 .854-1.809c.283-1.865-.943-3.616-2.735-3.906-1.36-.23-2.66.455-3.33 1.615l-.036.06c-.01.023-.023.042-.035.062l-.035.06c-.012.023-.02.044-.035.064l-.036.063-.034.063a.39.39 0 0 0-.034.061.26.26 0 0 0-.034.062c-.014.02-.024.04-.036.06l-.038.064-.032.06-.038.066-.035.058-.033.065a.57.57 0 0 0-.035.06l-.037.06-.033.06-.036.064-.034.06-.037.062-.035.063c-.01.02-.02.044-.035.062l-.033.06-.035.06-.036.064c-.014.02-.023.04-.034.06s-.024.04-.033.064c-.015.017-.027.038-.037.06l-.072.125c-.01.018-.025.037-.035.06s-.02.04-.034.06-.023.042-.034.06l-.036.062-.035.063-.035.06-.036.064-.035.064c-.014.018-.023.037-.033.06l-.036.062-.036.06-.036.062-.033.064a.39.39 0 0 0-.035.064c-.012.016-.024.038-.038.06s-.02.04-.034.06l-.033.064-.036.06c-.013.02-.024.043-.035.064a.74.74 0 0 0-.036.061l-.035.06-.034.064-.036.062-.034.06c-.015.02-.024.04-.036.062l-.036.064c-.013.017-.022.04-.035.06l-.034.062c-.014.02-.024.04-.036.063l-.034.06c-.013.02-.02.042-.034.064-.013.015-.024.038-.034.06s-.028.04-.037.062-.023.04-.035.06l-.036.065c-.01.022-.024.042-.034.06l-.033.063c-.014.02-.024.042-.037.062a.61.61 0 0 0-.034.06c-.01.02-.024.042-.035.062l-.038.063-.033.06-.035.063-.036.063-.035.064c-.01.02-.02.042-.034.06l-.035.06a.56.56 0 0 0-.034.063c-.015.02-.024.042-.038.062l-.033.064-.036.06-.034.062-.036.062-.034.06-.035.06-.035.065c-.014.02-.025.042-.036.06l-.034.063-.034.062a.38.38 0 0 1-.038.06c-.014.018-.02.043-.034.06a.36.36 0 0 1-.034.062l-.036.063-.035.064c-.013.02-.026.04-.034.06l-.034.065c-.014.02-.024.042-.035.06l-.037.063a.49.49 0 0 0-.034.064.32.32 0 0 0-.034.059c-.016.02-.025.042-.036.064l-.037.06-.035.06c-.013.02-.022.044-.034.064l-.035.063c-.012.017-.023.04-.034.06l-.035.06-.036.06-.035.063-.037.06-.033.064c-.013.018-.024.04-.036.06l-.036.062-.033.062c-.013.024-.025.038-.036.062l-.035.06-.033.064c-.016.02-.025.043-.038.062l-.035.063c-.01.022-.023.04-.035.06l-.034.062-.035.06-.033.06c-.016.02-.025.042-.035.065s-.028.04-.036.06l-.037.06-.033.063-.037.062c-.01.02-.023.043-.036.06-.01.024-.023.042-.034.063s-.02.042-.035.062l-.034.063-.036.063-.034.062c-.013.02-.024.042-.035.064s-.023.04-.036.06l-.035.06-.033.06-.036.06L8 34.3c-.012.02-.024.043-.033.064-.016.02-.025.04-.035.06l-.04.066-.033.06-.035.06c-.015.02-.025.043-.034.06l-.038.064-.07.126-.035.06-.045.08-.035.062-.033.06-.035.062-.035.063-.036.06-.033.062-.036.06a2.4 2.4 0 0 0-.321.88c-.192 1.268.64 2.462 1.86 2.66.782.13 1.532-.183 2.02-.75l.045-.056.046-.05.047-.056c.016-.016.03-.036.044-.053l.045-.053.047-.054.043-.053.047-.053.046-.053c.014-.017.033-.036.044-.055l.05-.053.044-.053.047-.053.043-.053.046-.053a.49.49 0 0 0 .047-.055c.014-.02.03-.035.047-.053l.043-.057a.69.69 0 0 0 .046-.051c.018-.017.03-.036.046-.054l.047-.054.044-.053c.016-.015.03-.036.046-.052l.042-.06a.32.32 0 0 0 .045-.051l.05-.056.044-.052.047-.056c.015-.014.03-.035.045-.05l.045-.053.047-.054.046-.056.046-.05.045-.052.044-.057c.018-.016.033-.036.047-.052a.73.73 0 0 0 .047-.056.43.43 0 0 1 .044-.052c.017-.017.03-.036.045-.055l.046-.053.047-.054.044-.052.046-.054a.55.55 0 0 0 .046-.054l.047-.054.045-.054.046-.052.047-.053c.016-.017.03-.037.042-.055a.33.33 0 0 0 .047-.054c.016-.014.03-.036.047-.052l.046-.056c.016-.015.03-.036.045-.052a.41.41 0 0 0 .045-.054l.045-.052.047-.055c.016-.015.03-.037.047-.052l.042-.054.044-.055a.7.7 0 0 0 .047-.053l.047-.053.046-.053.045-.053c.02-.017.03-.036.047-.053l.042-.055c.02-.018.033-.037.048-.053a.4.4 0 0 0 .044-.056c.018-.017.032-.035.045-.053s.032-.036.046-.053l.047-.052c.014-.02.032-.036.046-.055s.033-.036.045-.053.03-.036.047-.053l.045-.055c.016-.017.03-.04.046-.052s.03-.04.046-.054l.047-.055.043-.053.047-.05.046-.055.1-.108.045-.052.05-.057.042-.053.046-.054c.017-.016.03-.035.046-.053l.045-.055c.02-.015.032-.035.047-.052s.03-.036.044-.057a.25.25 0 0 0 .047-.05c.014-.02.03-.037.045-.054l.05-.052a.45.45 0 0 1 .043-.053l.046-.053.044-.053.045-.055c.018-.015.03-.037.048-.05l.044-.055.046-.053.047-.057a.26.26 0 0 0 .043-.052.5.5 0 0 0 .047-.055l.046-.053c.015-.015.028-.036.046-.05l.044-.055.047-.056.046-.052.047-.056.046-.052c.016-.017.03-.038.045-.053L16 32.22l.047-.053c.013-.02.03-.034.047-.053s.026-.037.043-.054a.65.65 0 0 0 .047-.054l.044-.052c.016-.022.032-.036.046-.053l.047-.057a.57.57 0 0 0 .046-.053l.045-.054c.017-.015.033-.035.047-.053s.03-.036.045-.052a.62.62 0 0 0 .045-.056l.046-.054c.016-.015.03-.034.044-.052s.033-.035.047-.058c.016-.012.032-.032.047-.05l.047-.053c.015-.018.028-.037.044-.052l.046-.056.047-.052c.014-.02.03-.036.044-.056l.047-.052a.82.82 0 0 1 .047-.055l.044-.053c.016-.02.03-.036.05-.053l.042-.053c.016-.016.032-.036.045-.052l.047-.055.046-.053.045-.056c.016-.015.03-.033.047-.052l.045-.055c.015-.02.03-.036.046-.052l.044-.057a.4.4 0 0 0 .048-.051.69.69 0 0 0 .043-.054c.016-.016.032-.036.047-.055l.046-.054"/><path d="M37.98 53.263l-.005-.074c0-.028-.003-.05-.007-.076s-.003-.05-.005-.075l-.008-.074a.62.62 0 0 0-.005-.072l-.006-.078c-.001-.024-.002-.05-.007-.073l-.007-.073-.005-.074-.008-.074c0-.03-.002-.052-.005-.078l-.007-.07-.006-.077c0-.026-.005-.05-.008-.073s-.004-.052-.005-.078l-.006-.074c0-.02-.004-.047-.006-.073l-.006-.074-.007-.075a.65.65 0 0 0-.006-.075l-.005-.072-.01-.074-.005-.076c0-.025-.004-.05-.006-.077l-.005-.07-.008-.077-.008-.076c0-.023-.004-.048-.007-.075s-.001-.046-.004-.073l-.008-.075c0-.022-.003-.047-.004-.072l-.006-.077-.008-.073c0-.026-.003-.048-.005-.076a.56.56 0 0 0-.01-.073.68.68 0 0 0-.005-.074l-.007-.076c0-.023-.003-.047-.006-.072l-.006-.075a.5.5 0 0 0-.007-.076c-.004-.026-.002-.05-.004-.073l-.008-.074-.006-.076-.006-.07-.005-.077-.006-.075c0-.024-.006-.048-.008-.075s-.007-.046-.007-.072-.004-.052-.006-.078a.47.47 0 0 0-.01-.074c-.006-.026-.001-.048-.004-.074l-.006-.073-.004-.074-.008-.077-.006-.073-.008-.073c0-.026-.003-.052-.005-.075l-.008-.076c-.003-.024-.003-.046-.005-.073l-.008-.076c0-.025-.003-.048-.005-.075l-.007-.075-.006-.072c-.003-.022-.002-.05-.007-.076l-.003-.072-.01-.077-.012-.147-.008-.073c0-.028-.003-.05-.005-.076l-.008-.074c-.004-.02-.003-.05-.004-.073l-.008-.08-.007-.073-.005-.075-.006-.07-.005-.076c-.004-.025-.005-.052-.008-.075l-.007-.075-.005-.074c0-.023-.005-.046-.008-.073a.59.59 0 0 1-.005-.073l-.008-.074a.51.51 0 0 0-.006-.076.42.42 0 0 0-.007-.073l-.003-.08c0-.023-.01-.048-.01-.072l-.003-.078c-.004-.02-.005-.046-.01-.07s-.003-.05-.004-.076L37.4 46.5l-.004-.076-.008-.073-.007-.076c0-.02-.006-.048-.007-.075l-.006-.072-.007-.074c-.004-.024-.003-.05-.005-.074l-.005-.074c-.001-.028-.005-.05-.007-.075l-.005-.078-.01-.07-.005-.074-.006-.078-.006-.072-.01-.077-.003-.077c0-.02-.005-.046-.008-.07l-.007-.074-.003-.074-.01-.073a.52.52 0 0 0-.006-.078l-.004-.073-.007-.073-.005-.074-.01-.074-.003-.076-.01-.076c0-.023-.003-.048-.005-.073l-.004-.077c-.001-.023-.006-.048-.01-.072s-.003-.05-.006-.074l-.006-.074c0-.024-.004-.05-.005-.076l-.006-.073-.007-.075-.014-.146c0-.026-.003-.054-.006-.076l-.007-.074c0-.028-.003-.05-.006-.077 0-.02-.003-.046-.005-.072a2.54 2.54 0 0 0-1.088-1.946 2.7 2.7 0 0 0-3.696.57c-.284.378-.443.807-.488 1.246l-.008.073c-.001.025-.001.05-.007.075l-.005.076c-.003.023-.003.05-.005.075l-.008.07-.005.074-.006.073-.008.075-.006.076c-.003.023-.004.048-.005.072a.58.58 0 0 1-.008.074l-.003.074c-.006.024-.006.05-.01.075l-.003.073c-.005.023-.005.05-.007.073l-.004.074c-.007.025-.007.05-.01.072l-.006.078-.006.073-.008.075-.005.073-.006.073a.55.55 0 0 0-.004.074.38.38 0 0 0-.007.075c0 .025-.004.047-.008.072s-.004.05-.008.074l-.004.076c-.004.025-.004.05-.007.074l-.004.072c-.004.025-.004.052-.006.074l-.01.074-.005.073-.007.076c-.004.028-.003.05-.006.074l-.008.07-.005.076c-.003.026-.003.05-.005.077-.004.02-.004.05-.008.073l-.003.073c-.006.022-.006.048-.01.076l-.005.07c-.003.024-.003.05-.005.073l-.005.074-.007.073c-.004.028-.004.052-.006.076l-.014.146c-.005.024-.005.05-.007.072l-.006.08-.006.073c-.003.024-.003.048-.005.076-.004.02-.004.046-.006.073l-.006.072c-.002.026-.005.052-.01.075l-.004.073c-.005.028-.005.05-.008.076l-.007.072-.004.075-.008.073-.006.076-.006.072c-.004.025-.004.05-.006.074l-.007.077c-.003.022-.003.048-.004.073s-.004.05-.01.073l-.005.074-.007.073-.005.076-.008.075-.007.072-.004.077c-.003.022-.003.047-.004.07-.007.025-.007.05-.01.073l-.005.077-.006.073c-.004.024-.004.048-.006.073l-.007.073-.007.078c-.003.024-.003.047-.004.074l-.007.07c-.004.025-.004.05-.006.075s-.002.047-.008.072-.005.05-.006.076l-.005.073-.006.076-.006.073-.007.073-.005.073c-.004.026-.004.05-.007.074l-.006.076-.006.073-.01.075-.004.073c-.004.024-.004.05-.008.073l-.005.073-.007.076-.006.073-.006.077c-.003.024-.003.048-.003.073-.005.022-.005.048-.01.07s-.003.052-.005.076l-.007.07c-.003.027-.003.054-.003.077s-.005.05-.01.074l-.004.073-.006.07-.008.078-.008.075c-.005.025-.001.047-.005.075s-.004.046-.005.072c-.003.02-.003.046-.005.073l-.006.073-.007.076-.01.075-.005.073-.007.075c0 .023 0 .047-.005.073s-.003.052-.006.078c-.001.02-.001.047-.006.07s-.003.05-.005.073l-.007.075c-.001.025-.004.048-.008.073l-.008.075-.003.072c-.002.025-.002.052-.008.074l-.005.074c-.006.025-.006.048-.006.074s-.003.05-.01.072l-.005.076c-.003.025-.003.05-.005.073l-.008.073-.005.075-.004.075a3.35 3.35 0 0 0 1.41 3.2c1.563 1.103 3.755.766 4.9-.755a3.3 3.3 0 0 0 .657-2.26.43.43 0 0 0-.008-.073m-8.322-6.817l-.036-.06c-.01-.017-.024-.04-.033-.062s-.024-.04-.035-.062l-.036-.06c-.01-.022-.024-.04-.036-.064a.33.33 0 0 0-.035-.06l-.034-.06c-.01-.023-.023-.042-.035-.062l-.034-.063-.035-.06-.034-.064c-.01-.022-.024-.042-.036-.062s-.024-.038-.033-.06l-.036-.062c-.01-.022-.024-.042-.036-.064l-.033-.06-.036-.06c-.01-.025-.024-.042-.035-.063l-.035-.06c-.01-.022-.024-.044-.034-.063l-.033-.06-.036-.064-.037-.062c-.01-.02-.024-.04-.033-.062l-.073-.123-.033-.06-.036-.06c-.01-.02-.022-.043-.034-.06-.01-.023-.023-.043-.034-.065l-.035-.06c-.01-.02-.023-.04-.035-.062l-.035-.06c-.01-.022-.022-.04-.035-.062l-.035-.06-.033-.06c-.013-.02-.023-.043-.035-.064s-.026-.037-.036-.06a.73.73 0 0 0-.035-.061c-.01-.02-.024-.043-.036-.063s-.02-.04-.033-.063l-.035-.06c-.01-.02-.024-.038-.036-.06l-.036-.062c-.01-.023-.023-.043-.034-.064l-.035-.06-.033-.062c-.01-.022-.024-.04-.034-.06l-.035-.062-.036-.06-.035-.064-.033-.06c-.014-.02-.025-.042-.036-.063a.73.73 0 0 1-.037-.06c-.01-.022-.022-.04-.032-.062l-.037-.06-.033-.063-.037-.062c-.01-.02-.024-.04-.033-.062s-.027-.04-.038-.062l-.035-.06c-.01-.022-.023-.042-.033-.062s-.023-.037-.036-.062-.024-.04-.034-.06a.97.97 0 0 0-.035-.062l-.034-.064-.036-.06-.033-.064-.036-.06c-.01-.022-.023-.04-.036-.06s-.022-.044-.033-.06l-.036-.064c-.01-.02-.024-.04-.035-.062s-.024-.04-.033-.064-.025-.04-.036-.06L27 41.757l-.035-.058-.033-.062c-.01-.02-.025-.042-.034-.06l-.035-.063a.52.52 0 0 1-.035-.062l-.037-.064-.034-.06c-.01-.023-.025-.037-.036-.062l-.033-.06c-.01-.02-.025-.04-.036-.06l-.034-.06-.037-.064-.035-.062-.032-.06-.038-.06-.037-.064c-.008-.018-.022-.04-.033-.06l-.034-.06-.033-.063-.037-.063-.033-.063-.036-.06c-.01-.018-.024-.04-.033-.062l-.035-.06-.036-.064-.034-.062-.036-.062c-.012-.018-.022-.036-.034-.06l-.034-.06c-.013-.02-.026-.04-.034-.06l-.037-.065-.034-.06-.035-.063-.034-.06-.036-.063-.036-.06-.033-.064c-.012-.02-.025-.038-.035-.06l-.037-.062-.035-.06c-.01-.022-.024-.042-.033-.064s-.028-.04-.037-.06l-.035-.06a.41.41 0 0 0-.036-.061c-.01-.022-.023-.042-.033-.062l-.038-.062-.034-.062a.65.65 0 0 0-.036-.063l-.03-.06a.43.43 0 0 1-.038-.062c-.01-.02-.022-.04-.036-.06s-.022-.042-.03-.062l-.038-.063c-.01-.022-.022-.042-.033-.06l-.036-.062-.034-.062-.035-.06c-.01-.022-.024-.04-.035-.063l-.034-.06c-.01-.023-.024-.042-.036-.063l-.034-.062a.56.56 0 0 0-.036-.06c-.014-.02-.023-.044-.036-.06-.007-.023-.02-.042-.033-.064l-.036-.06-.035-.063-.035-.06-.033-.062-.034-.058c-.012-.026-.025-.043-.036-.064l-.035-.062c-.014-.02-.024-.042-.035-.062l-.036-.064c-.012-.02-.024-.037-.034-.06l-.033-.062-.038-.062c-.01-.023-.024-.04-.033-.06s-.025-.042-.034-.064l-.038-.06c-.01-.02-.023-.04-.034-.06l-.036-.063c-.304-.582-.776-1.076-1.387-1.4-1.618-.855-3.6-.192-4.423 1.492a3.52 3.52 0 0 0 .45 3.791l.046.053.043.054.048.053.045.054.045.056.048.052c.01.02.03.036.044.053s.032.036.046.054l.046.056.046.052.047.055c.013.018.03.035.046.054l.046.053c.016.02.033.035.045.053l.047.058.046.05.047.057.044.052.044.053c.017.02.034.036.048.057l.045.053.046.053.05.056c.012.02.03.032.042.052l.046.055a.6.6 0 0 0 .049.053.53.53 0 0 0 .044.054l.046.052.046.055.046.053c.014.02.03.038.044.053l.1.1a.48.48 0 0 1 .047.053l.05.054c.012.02.03.033.043.053s.032.037.046.055l.093.107.043.053c.017.02.032.037.05.05.01.02.03.038.044.056l.045.056c.015.02.032.036.047.056l.045.053.047.053.045.053c.016.015.03.035.045.053l.047.053c.014.02.03.036.046.058l.045.053.048.055c.013.018.03.033.043.052l.047.053c.014.02.03.036.047.053l.046.053c.015.02.032.037.045.06.016.014.03.033.047.05a.69.69 0 0 0 .046.056l.045.052c.015.02.03.038.047.053l.046.053c.016.02.032.036.044.056l.048.053.044.055.047.053.045.054c.016.014.032.036.047.05l.044.055.047.053c.014.02.03.04.046.055s.03.036.045.053l.045.053.047.053.093.11.043.053c.017.02.036.036.047.057l.094.106c.01.02.03.033.046.055l.044.053c.016.02.03.038.048.054s.03.036.045.054l.045.053.044.054.05.055c.013.017.03.032.043.053.016.015.03.036.05.05.012.02.03.038.045.055l.045.053.044.056.048.055.045.053.044.053.048.053.044.053.046.054.045.053.047.057.047.05.047.056.045.056.045.052c.013.02.03.036.046.052a.74.74 0 0 0 .047.055l.044.054.093.107.045.056.046.05.047.057c.013.016.03.034.047.052l.043.053.047.053.046.056c.014.02.03.036.046.052s.03.036.047.056l.044.053c.016.017.03.036.045.055s.03.035.046.052l.047.055.044.053.048.055c.015.014.028.034.047.05l.043.055c.016.02.03.036.05.053.012.02.028.034.045.054l.044.052c.014.022.03.037.045.06.016.014.033.033.047.05l.045.058.046.052.047.055.045.05.093.1.046.053.046.052.045.053c.015.016.03.04.046.056s.033.036.047.053l.047.053.043.052.047.056.045.054a.35.35 0 0 0 .05.053c.012.02.03.038.042.05.015.02.032.037.046.06.018.015.032.036.047.053l.047.053.044.055.05.054c.015.018.026.036.044.053l.046.053c.014.02.03.037.046.055l.046.053.047.053a2.2 2.2 0 0 0 .706.588c1.098.584 2.448.127 3-1.013.358-.737.306-1.57-.066-2.232l-.034-.063"/></g><path d="M121.5 17.716c-.778 0-2.82-.032-4.03.2v6.944l.307.03a42.36 42.36 0 0 0 3.604.16c3.116 0 4.92-.253 6.02-1.205 1.1-.958 1.383-2.536.7-3.9-1.08-2.136-4.448-2.23-6.598-2.23h0zm-4.02 21.96l5.708.12c1.517-.05 3.527-.167 4.956-1.6 1.274-1.3 1.5-3.22.557-4.813-.886-1.474-2.648-2.22-6.923-2.17-2.158 0-4.243.25-4.32.258l.023 8.215zM121.016 47c-4.505 0-8.72-.1-12.016-.3V11.3c1.146-.077 4.694-.155 9.7-.276 3.144-.078 6.15.044 8.504.4 5.328.833 7.3 3.344 8.146 4.73.806 1.33 1.34 2.808 1.213 4.734-.15 2.258-.934 4.1-3.272 5.93l-.412.323.47.23c1.618.808 2.654 2.086 3.36 3.34.848 1.515 1.28 3.243 1.28 5.127 0 3.818-1.394 6.665-4.214 8.6C131.287 46.162 127 47 121.016 47h0zM101.22 11H93c-.736 1.538-5.857 12.295-8.203 18.433l-.16.418h-.278l-.158-.418c-2.348-6.14-7.47-16.895-8.206-18.433h-8.22C66 24.003 65.12 44.118 65 47h8.183l.907-20.995.085-.863h.2l.328.762L81.53 42.38h5.935l6.826-16.476.33-.762h.2l.085.863c.34 3.408.833 18.583.907 20.995H104c-.12-2.882-1.004-22.993-2.78-36" fill="#fff"/></svg>