<?xml version="1.0" encoding="UTF-8"?>
<svg width="146px" height="66px" viewBox="0 0 146 66" version="1.1" 
    xmlns="http://www.w3.org/2000/svg" 
    xmlns:xlink="http://www.w3.org/1999/xlink">
    <!-- Generator: Sketch 62 (91390) - https://sketch.com -->
    <title>LOGO - White</title>
    <desc>Created with Sketch.</desc>
    <defs>
        <filter x="-0.8%" y="-10.0%" width="101.7%" height="120.0%" filterUnits="objectBoundingBox" id="filter-1">
            <feOffset dx="0" dy="2" in="SourceAlpha" result="shadowOffsetOuter1"></feOffset>
            <feGaussianBlur stdDeviation="2" in="shadowOffsetOuter1" result="shadowBlurOuter1"></feGaussianBlur>
            <feColorMatrix values="0 0 0 0 0   0 0 0 0 0   0 0 0 0 0  0 0 0 0.256036932 0" type="matrix" in="shadowBlurOuter1" result="shadowMatrixOuter1"></feColorMatrix>
            <feMerge>
                <feMergeNode in="shadowMatrixOuter1"></feMergeNode>
                <feMergeNode in="SourceGraphic"></feMergeNode>
            </feMerge>
        </filter>
        <polygon id="path-2" points="0.171441466 0.0633333333 11.6392534 0.0633333333 11.6392534 13.6700612 0.171441466 13.6700612"></polygon>
    </defs>
    <g id="Symbols" stroke="none" stroke-width="1" fill="none" fill-rule="evenodd">
        <g id="#Header/header-normal" transform="translate(-147.000000, -48.000000)">
            <g id="ca-nhan-2-copy" transform="translate(0.000000, -1.000000)">
                <g id="ca-nhan" filter="url(#filter-1)">
                    <g id="LOGO---White" transform="translate(151.000000, 51.000000)">
                        <path d="M64,46 C64.1749928,40.0110519 64.5407005,34.2585553 64.9549414,28.5109125 C65.2775844,24.0349765 65.7239528,19.5680547 66.1354594,15.0990527 C66.2626026,13.7205615 66.4642545,12.3490043 66.6153226,10.9725933 C66.6843627,10.3395135 66.9010531,9.99835776 67.633152,10.0136127 C69.8185117,10.0593775 72.0072893,10.0767126 74.1912818,10.007372 C75.0922215,9.9789424 75.2781514,10.5787386 75.5570462,11.1695206 C78.075986,16.5163747 80.5675832,21.87571 82.8062611,27.3515376 C82.9867224,27.7939307 83.0803709,28.2848622 83.445395,28.6343388 C83.9532844,28.5143796 83.9368788,28.0400898 84.0647056,27.7204296 C86.3074849,22.1246428 88.8954648,16.6883394 91.4103032,11.2173656 C91.8101892,10.347141 92.2633933,9.95606 93.2545636,10.003905 C95.1090775,10.092661 96.9704271,10.0170797 98.8290424,10.0330281 C100.36228,10.0462028 100.211896,9.76259971 100.476436,11.5661488 C100.782673,13.6470604 100.994579,15.7446137 101.183926,17.8414736 C101.974128,26.6186074 102.611212,35.4068357 102.946159,44.2158662 C102.961197,44.6041736 102.987856,44.9910942 102.999477,45.3794016 C103.011781,45.7829639 102.806711,45.9882121 102.41161,45.9882121 C100.061511,45.9902923 97.7114123,45.9930659 95.3613133,45.9861319 C94.9614273,45.9847451 94.7925866,45.7281848 94.780966,45.3419577 C94.7659275,44.8433987 94.7385849,44.3448398 94.7269643,43.8462808 C94.5895675,37.8607998 94.3147741,31.8801726 93.9866625,25.9030124 C93.9634213,25.4821149 94.058437,25.0244669 93.7412624,24.5841541 C93.2579815,24.7637462 93.2108154,25.24497 93.060431,25.6055412 C91.0575833,30.396977 89.0711412,35.1960403 87.0819649,39.9937168 C86.516656,41.3590333 86.5193902,41.3631937 85.0852693,41.3694344 C84.0469329,41.3735948 83.007913,41.3729014 81.9695766,41.3694344 C80.4964924,41.3645805 80.4971759,41.3625003 79.9475891,40.0346277 C78.0664161,35.4907379 76.1872938,30.9461546 74.3020195,26.404345 C74.0518344,25.8003883 73.7708889,25.2096063 73.4550815,24.503719 C72.8487587,24.9634472 73.0633983,25.5514555 73.0353722,26.0215848 C72.6915386,31.8323275 72.435885,37.6465373 72.3060075,43.4662943 C72.2492715,46 72.2349167,46 69.7057234,46 C67.8553109,46 66.0055819,46 64,46" id="Fill-1" fill="#FFFFFF"></path>
                        <path d="M18,26.6568658 C17.9873227,27.3344238 17.6557109,28.1303296 17.0718872,28.8155006 C14.7419305,31.5499559 12.4253183,34.2954847 10.0693398,37.0050247 C9.09185221,38.1289821 7.9428873,38.2840107 6.93737619,37.5545458 C5.96389199,36.8479199 5.69433228,35.5592446 6.38691391,34.3176317 C8.20110415,31.0668757 10.034644,27.8265012 11.9242309,24.6221154 C12.7495907,23.2227055 14.278875,22.7050207 15.67805,23.1618014 C17.0191763,23.5992035 17.985321,24.9515512 18,26.6568658" id="Fill-3" fill="#E30613"></path>
                        <path d="M33.4396821,41 C31.754617,40.9796894 30.3295577,39.7332199 30.0617375,38.0444306 C29.7392166,36.0118654 30.6954129,34.2869683 32.5772584,33.7483611 C34.3809601,33.2323212 36.2173401,32.8464197 38.0423537,32.4176402 C39.9781895,31.9625322 41.9126045,31.4961405 43.8569651,31.0876716 C45.3985297,30.7634541 46.4321594,31.3479483 46.8548465,32.6839348 C47.2775336,34.0214259 46.7752819,35.2189995 45.3715346,35.8802226 C41.9026589,37.5140981 38.4074985,39.0862895 34.9293877,40.6983499 C34.4456064,40.9225188 33.9518794,40.9872118 33.4396821,41" id="Fill-5" fill="#E30613"></path>
                        <path d="M35.9977853,23.2850919 C36.0599017,25.4641236 34.8096557,27.0184124 32.9699124,27 C31.1971573,26.9826342 29.8579995,25.3960074 30.0120727,23.3291266 C30.284898,19.6652985 30.647244,16.0097268 30.9553903,12.3493388 C31.0467381,11.2663594 31.4310075,10.4434602 32.3925947,10.1145757 C33.6659821,9.67835651 34.8193995,10.5198329 35.0526407,12.0926989 C35.1890533,13.010548 35.2085408,13.9497265 35.2864909,14.8785844 C35.5203411,17.6658459 35.7578452,20.4517314 35.9977853,23.2850919" id="Fill-7" fill="#E30613"></path>
                        <path d="M12.8887763,14.0070571 C13.7047085,14.2016481 14.7530534,14.4583585 15.8035305,14.7015972 C18.5157231,15.3302757 21.2286264,15.95147 23.9415297,16.5786517 C25.3715432,16.9094564 26.4589789,17.6863234 26.8498871,19.2460449 C27.1903327,20.6066849 26.9721348,21.8835011 25.9849138,22.8871415 C24.9699738,23.9192221 23.7538937,24.2904418 22.3842933,23.7583103 C21.6408569,23.470166 20.9158998,23.1273865 20.1880997,22.7965818 C17.5867829,21.6118222 14.9875983,20.4225719 12.3884138,19.2333217 C12.0245137,19.0671709 11.6492418,18.9197308 11.3073748,18.7116682 C10.1922201,18.0335935 9.76222102,16.8967331 10.1268318,15.6648225 C10.454484,14.555654 11.4054572,13.9254786 12.8887763,14.0070571" id="Fill-9" fill="#E30613"></path>
                        <path d="M19.0037447,39.3529903 C18.9836454,37.885044 19.7782372,36.7148384 21.0632517,36.2322259 C22.3851149,35.7359912 23.763926,36.0441108 24.7206521,37.0696623 C24.9337046,37.2979951 25.1166081,37.5587616 25.2794124,37.8247174 C27.0206807,40.6730394 28.7559192,43.5246047 30.4904878,46.3768187 C30.625153,46.5993134 30.7698679,46.8237542 30.8576347,47.0644117 C31.2026725,48.0108253 30.9052031,49.0078352 30.1313805,49.5747752 C29.3300889,50.161824 28.1187718,50.1430125 27.3040806,49.5060159 C27.0568594,49.3133601 26.8538566,49.0662158 26.6414741,48.8339909 C24.4801307,46.4702275 22.324147,44.1019234 20.1587837,41.7407547 C19.5062269,41.0291607 18.9488066,40.2844844 19.0037447,39.3529903" id="Fill-11" fill="#E30613"></path>
                        <path d="M11.9975932,22.0326194 C12.0031677,23.2569933 11.5885658,24.0561047 10.7691174,24.581256 C9.88974333,25.1453347 8.96925746,25.1277072 8.07455356,24.599618 C7.83624457,24.4593328 7.61117498,24.2639618 7.43209484,24.0465565 C5.20787766,21.3429451 2.94672956,18.6709163 0.793586993,15.9056089 C-0.498298547,14.2449554 -0.15546808,12.0003925 1.40538608,10.7591257 C2.9564849,9.52446914 5.133319,9.79034997 6.25169888,11.5971644 C8.16444203,14.6885798 9.91482848,17.8916358 11.7307151,21.0491542 C11.9390612,21.4112515 12.0150135,21.8108072 11.9975932,22.0326194" id="Fill-13" fill="#E30613"></path>
                        <g id="Group-17" transform="translate(25.000000, 0.000000)">
                            <mask id="mask-3" fill="white">
                                <use xlink:href="#path-2"></use>
                            </mask>
                            <g id="Clip-16"></g>
                            <path d="M8.23106667,0.0636 C10.7904,0.0169333333 12.5597333,2.72826667 11.1277333,4.8476 C9.10573333,7.84093333 6.59106667,10.4722667 4.1064,13.0962667 C3.39973333,13.8429333 2.3584,13.8056 1.4264,13.3016 C0.499066667,12.7996 0.0470666667,11.8209333 0.201066667,10.7436 C0.2624,10.3136 0.429733333,9.9296 0.653733333,9.56226667 C2.2304,6.9736 3.80706667,4.38626667 5.37506667,1.79226667 C6.0284,0.7116 6.9384,0.0769333333 8.23106667,0.0636" id="Fill-15" fill="#E30613" mask="url(#mask-3)"></path>
                        </g>
                        <path d="M30.0798232,52.6879122 C30.2859268,49.9964989 30.4816025,47.3043948 30.7024278,44.6143632 C30.8287889,43.0648662 31.6893942,42.0694026 32.9039332,42.0030844 C34.0835083,41.9388386 35.055753,42.8824912 35.2483617,44.4368238 C35.43729,45.9642147 35.5207129,47.5081851 35.6354194,49.0459382 C35.7703681,50.8586354 35.952549,52.6713326 35.9985543,54.4881748 C36.051307,56.5834151 34.6539736,58.0783377 32.8603816,57.9968216 C31.3955738,57.9311942 30.2822464,56.8024033 30.0454726,55.1644821 C29.9252455,54.3334323 30.0816634,53.5148171 30.0798232,52.6879122" id="Fill-18" fill="#E30613"></path>
                        <path d="M1,45.2315524 C0.996259457,43.3168855 1.9292107,41.9594211 3.70069253,41.4312635 C5.97679343,40.7532956 8.26477507,40.1311244 10.5477543,39.4883161 C11.1305362,39.3239834 11.7108168,39.1145548 12.3017276,39.0281846 C13.5792205,38.8424504 14.5515658,39.5861514 14.8779737,40.9206856 C15.236272,42.3828644 14.8054386,43.7517939 13.5867242,44.4037743 C10.7566053,45.9194567 7.9139804,47.4129733 5.02695901,48.7559153 C3.02098877,49.6884078 1.00501369,47.8280089 1,45.2315524" id="Fill-20" fill="#E30613"></path>
                        <path d="M51.8900313,31.9979397 C51.4539397,32.0201984 50.929003,31.8605502 50.4140771,31.594214 C47.8388217,30.2633006 45.2635662,28.9339223 42.6795515,27.6291052 C41.8399031,27.2054234 41.217362,26.5768086 41.0471799,25.43471 C40.7324682,23.3232089 42.0301066,21.6852798 43.8095105,22.0513961 C45.0865018,22.3146621 46.339092,22.7529271 47.6023186,23.1159733 C49.3510647,23.6179441 51.1148268,24.0562091 52.8435515,24.647982 C54.3970887,25.1806544 55.2242237,26.9951176 54.9470522,28.9500406 C54.6911534,30.7514557 53.5192745,31.9680057 51.8900313,31.9979397" id="Fill-22" fill="#E30613"></path>
                        <path d="M126.761742,38.6480832 C125.872707,39.1978654 124.870664,39.4331862 123.84645,39.5109261 C121.799452,39.6657056 119.747447,39.5760596 117.696873,39.5403412 C116.978779,39.5277348 116.671228,39.2777064 116.698407,38.5493325 C116.739175,37.4350605 116.709136,36.3186875 116.709851,35.2030147 C116.709851,34.0866417 116.731308,32.9702686 116.701268,31.8552963 C116.686248,31.2880051 116.9516,31.0442799 117.485164,31.0001573 C120.271713,30.7718401 123.066846,30.5673351 125.808336,31.2824022 C127.56781,31.741838 128.647812,32.9030341 128.833773,34.7197667 C129.011151,36.4475536 128.235838,37.7369155 126.761742,38.6480832 M116.70842,20.8904677 C116.70842,19.8126144 116.725586,18.9161542 116.702699,18.0210947 C116.687679,17.4334931 116.837162,17.0524975 117.534515,17.0356889 C119.705964,16.9817612 121.878843,16.8746062 124.041709,17.1414432 C124.600306,17.2100784 125.156043,17.394273 125.68317,17.600879 C127.281001,18.2270004 128.107811,19.4330195 128.02842,20.9457961 C127.951175,22.4235547 126.965583,23.5840504 125.296228,23.9951614 C124.415776,24.2122729 123.494555,24.2900128 122.586924,24.3719548 C121.906022,24.4335865 121.214391,24.4377886 120.530628,24.4020703 C119.289698,24.3376372 117.73335,24.8460982 116.907971,23.9706488 C116.229214,23.25208 116.78495,21.8205451 116.70842,20.8904677 M132.887001,26.5759862 C133.19169,26.2909399 133.384088,26.0857346 133.601519,25.9106447 C137.777052,22.5440165 137.423012,16.0180665 132.768987,12.6787524 C131.313487,11.6345163 129.666305,11.0111963 127.913268,10.6652187 C125.608785,10.2099851 123.272833,10.0418988 120.924722,10.0082815 C117.148289,9.95365348 113.379724,10.1833714 109.608298,10.2849235 C108.016188,10.3276455 108.003314,10.3374505 108.002599,11.8411224 C107.999023,22.9859434 107.999023,34.1307643 108.003314,45.2755853 C108.003314,46.6384849 108.017619,46.6622971 109.357251,46.7421381 C114.384627,47.0432927 119.417725,47.069206 124.447246,46.8794086 C126.382668,46.8065712 128.315229,46.5467378 130.189856,45.9864502 C134.540621,44.686583 137.282111,41.9299679 137.86288,37.465176 C138.447226,32.9751711 137.232759,29.1343995 132.887001,26.5759862" id="Fill-24" fill="#FFFFFF"></path>
                    </g>
                </g>
            </g>
        </g>
    </g>
</svg>