<?xml version="1.0" encoding="UTF-8"?>
<svg width="49px" height="49px" viewBox="0 0 49 49" version="1.1" xmlns="http://www.w3.org/2000/svg" xmlns:xlink="http://www.w3.org/1999/xlink">
    <!-- Generator: Sketch 61.2 (89653) - https://sketch.com -->
    <title>Group 13</title>
    <desc>Created with Sketch.</desc>
    <g id="Symbols" stroke="none" stroke-width="1" fill="none" fill-rule="evenodd">
        <g id="#-FOOTER" transform="translate(-181.000000, -60.000000)">
            <g id="contact">
                <g>
                    <g id="Group-8">
                        <g id="Group-38" transform="translate(135.000000, 25.000000)">
                            <g id="Group-13" transform="translate(34.000000, 23.000000)">
                                <rect id="Rectangle-10" fill-opacity="0" fill="#FFFFFF" x="0" y="0" width="72" height="72"></rect>
                                <g id="phone" transform="translate(13.000000, 13.000000)" stroke="#141ED2" stroke-linecap="square" stroke-width="2.31">
                                    <g id="Group-9" transform="translate(0.985714, 0.985714)">
                                        <path d="M12.7984746,16.9682319 C11.7889581,15.35155 11.971758,14.9001335 11.971758,14.9001335 L14.9813688,10.5196601 C15.7874998,9.4294933 15.6738675,7.91184248 14.7137563,6.9553676 L8.47550427,0.742819804 C7.56644536,-0.162489034 6.12874894,-0.250791719 5.11511532,0.53567986 L2.4060539,2.63926439 C2.17302521,2.81999605 1.95728841,3.03043703 1.78601644,3.27058732 C-3.56211546,10.749082 3.94009081,22.5255242 13.1879537,31.7420139 C22.1838491,40.7067995 34.3606273,48.6928284 41.7113238,42.9836884 C41.9188263,42.8219377 42.1016262,42.6263514 42.2613703,42.4183862 L44.379214,39.6471673 C45.1589955,38.6271475 45.0610082,37.1854205 44.1519493,36.2792864 L37.9145207,30.0683891 C36.9544095,29.1119142 35.4393114,29.0062811 34.3565102,29.8199862 L30.0038966,32.86189 C30.0038966,32.86189 28.2623571,33.4948634 19.808274,25.0697969 C16.7896055,22.0617288 14.9261995,19.9078035 13.7783479,18.3810749 C13.3666364,17.833103 13.0463249,17.3651813 12.7984746,16.9682319" id="Stroke-1"></path>
                                        <path d="M35.047619,20.8095238 C35.0492331,19.0456946 34.6570118,17.2545939 33.8270943,15.5613499 C31.7458041,11.3142033 27.4719724,8.82045844 23,8.76190476" id="Stroke-3"></path>
                                        <path d="M41.6190476,19.7142857 C41.6214123,16.9891249 41.018036,14.2214818 39.7407178,11.6033134 C36.5264112,5.01305012 29.91068,1.15424129 23,1.0952381" id="Stroke-5"></path>
                                        <path d="M39.4285714,12.047619 C37.1309834,6.44064286 29.9526741,1.40764785 23,1.0952381" id="Stroke-7"></path>
                                    </g>
                                </g>
                            </g>
                        </g>
                    </g>
                </g>
            </g>
        </g>
    </g>
</svg>