<?xml version="1.0" encoding="UTF-8"?>
<svg width="38px" height="42px" viewBox="0 0 38 42" version="1.1" xmlns="http://www.w3.org/2000/svg" xmlns:xlink="http://www.w3.org/1999/xlink">
    <!-- Generator: Sketch 63.1 (92452) - https://sketch.com -->
    <title>money</title>
    <desc>Created with Sketch.</desc>
    <g id="Page-1" stroke="none" stroke-width="1" fill="none" fill-rule="evenodd">
        <g id="#PC---eBanking-Login-2" transform="translate(-661.000000, -654.000000)" fill="#FFFFFF" fill-rule="nonzero">
            <g id="Group-15" transform="translate(152.000000, 639.000000)">
                <g id="Group-13">
                    <g id="Group-10-Copy-11" transform="translate(465.000000, 0.000000)">
                        <g id="Group-9" transform="translate(43.000000, 15.000000)">
                            <g id="icon/bank/money-3">
                                <g id="icon/money-3">
                                    <g id="money-copy">
                                        <g id="money" transform="translate(1.826087, 0.000000)">
                                            <path d="M19.0090613,22.9085713 C18.9314005,22.8917617 18.8517225,22.8887359 18.7730533,22.9005027 C17.9846792,22.8087218 17.3899527,22.1417136 17.3886078,21.3482966 C17.3886078,20.9680616 17.0803182,20.659772 16.7000832,20.659772 C16.3198483,20.659772 16.0115586,20.9680616 16.0115586,21.3482966 C16.0135758,22.6732358 16.8997823,23.8337762 18.1773181,24.1844262 L18.1773181,24.8729508 C18.1773181,25.2531859 18.4856077,25.5614754 18.8658427,25.5614754 C19.2460778,25.5614754 19.5543673,25.2531859 19.5543673,24.8729508 L19.5543673,24.2261142 C21.0289127,23.9174885 22.0311059,22.5441374 21.8761207,21.0457223 C21.7207992,19.5473073 20.458392,18.4086194 18.9519083,18.4082832 C18.088563,18.4082832 17.3886078,17.708328 17.3886078,16.8449827 C17.3886078,15.9816374 18.088563,15.2816823 18.9519083,15.2816823 C19.8152536,15.2816823 20.5152088,15.9816374 20.5152088,16.8449827 C20.5152088,17.2252177 20.8234984,17.5335073 21.2037334,17.5335073 C21.5839683,17.5335073 21.892258,17.2252177 21.892258,16.8449827 C21.8902408,15.4538134 20.9156154,14.2539383 19.5543673,13.9668289 L19.5543673,13.3401639 C19.5543673,12.9599289 19.2460778,12.6516393 18.8658427,12.6516393 C18.4856077,12.6516393 18.1773181,12.9599289 18.1773181,13.3401639 L18.1773181,14.0088531 C16.7565637,14.3968206 15.842117,15.7762231 16.0377818,17.2359759 C16.2334465,18.6957287 17.479044,19.7853324 18.9519083,19.7849961 C19.803823,19.7849961 20.4987352,20.4671331 20.5142002,21.3187116 C20.5300012,22.1702901 19.8603035,22.8776415 19.0090613,22.9085713 L19.0090613,22.9085713 Z" id="Path"></path>
                                            <path d="M8.96762931,19.1495902 C8.96762931,24.6638383 13.43766,29.1338691 18.9519083,29.1338691 C24.4661565,29.1338691 28.9361873,24.6638383 28.9361873,19.1495902 C28.9361873,13.635342 24.4661565,9.16531126 18.9519083,9.16531126 C13.4403496,9.1713627 8.97401701,13.6380315 8.96762931,19.1495902 Z M18.9519083,10.5423604 C23.7056865,10.5423604 27.5591381,14.395812 27.5591381,19.1495902 C27.5591381,23.9033683 23.7056865,27.7568199 18.9519083,27.7568199 C14.1981301,27.7568199 10.3446785,23.9033683 10.3446785,19.1495902 C10.3500576,14.3981654 14.2004835,10.5477395 18.9519083,10.5423604 Z" id="Shape"></path>
                                            <path d="M32.3303984,30.8313109 L26.9368436,33.3796587 C26.1921747,31.9945409 24.7636879,31.1130411 23.1916464,31.0686635 L18.2126184,30.9318328 C17.4242444,30.9093078 16.6506628,30.7096087 15.949699,30.3475282 L15.4430552,30.084961 C12.848985,28.7327901 9.75701208,28.736152 7.16563136,30.093702 L7.19723361,28.9459369 C7.20765563,28.5657018 6.90810707,28.2490074 6.52787203,28.2385854 L1.0680872,28.0883069 C0.687852246,28.0778848 0.371493959,28.3774334 0.361071934,28.7576684 L0.0310020804,40.7389376 C0.0208440492,41.1191726 0.320392525,41.435867 0.700627561,41.446289 L6.1604124,41.5965676 L6.17923924,41.5965676 C6.55241415,41.5965676 6.85767807,41.2997086 6.86776383,40.9268699 L6.88356495,40.3536597 L8.30196598,39.5941983 C8.85870266,39.2946497 9.50957356,39.2233766 10.1177478,39.3955078 L18.5878106,41.7727331 C18.6026031,41.7771036 18.6173956,41.7804656 18.6325244,41.7838275 C19.244733,41.9119172 19.8687084,41.9761302 20.4940286,41.9757954 C21.8186316,41.9764664 23.1277696,41.691038 24.3316791,41.1383357 C24.3612641,41.1248879 24.3898406,41.1090869 24.4170722,41.0912685 L36.69789,33.147685 C37.0038262,32.949667 37.1026671,32.5479156 36.9234759,32.2305488 C36.0117188,30.6127849 33.9895139,29.996542 32.3303984,30.8313109 L32.3303984,30.8313109 Z M1.42680584,40.0887391 L1.71862193,29.4838467 L5.80169375,29.5961354 L5.50987767,40.2013639 L1.42680584,40.0887391 Z M23.7114017,39.9085393 C22.2156762,40.5836162 20.54513,40.7698674 18.937452,40.4414062 L10.4902504,38.0702325 C9.53949477,37.8016137 8.52183658,37.9128938 7.65210359,38.3805391 L6.92727009,38.7688428 L7.12125389,31.7178535 C9.41812889,30.1901895 12.3638576,30.0331871 14.8100026,31.3076972 L15.3166464,31.5702645 C16.2021804,32.0274878 17.178823,32.2796331 18.1749648,32.3085457 L23.1543289,32.4453765 C24.5528945,32.4857198 25.7406666,33.4815254 26.024414,34.8518506 L18.607646,34.6471087 C18.227411,34.6366867 17.9110528,34.9365715 17.9002946,35.3164703 C17.8898725,35.6967053 18.1897573,36.0133997 18.5696561,36.0238217 L26.7546266,36.2490715 L26.7737897,36.2490715 C27.1466285,36.2487352 27.4515561,35.9518762 27.4616419,35.5793738 C27.4700467,35.2801614 27.447858,34.9806128 27.3950756,34.6861072 L32.927142,32.0722016 C32.9325211,32.0698483 32.9379002,32.0671587 32.9432793,32.0644692 C33.7279553,31.6674244 34.6766938,31.8002209 35.3221856,32.3976371 L23.7114017,39.9085393 Z" id="Shape"></path>
                                            <path d="M19.6404329,7.2295082 L19.6404329,0.68852459 C19.6404329,0.308289553 19.3321433,0 18.9519083,0 C18.5716733,0 18.2633837,0.308289553 18.2633837,0.68852459 L18.2633837,7.2295082 C18.2633837,7.60974323 18.5716733,7.91803279 18.9519083,7.91803279 C19.3321433,7.91803279 19.6404329,7.60974323 19.6404329,7.2295082 Z" id="Path"></path>
                                            <path d="M24.8043673,7.2295082 L24.8043673,4.13114754 C24.8043673,3.7509125 24.4960778,3.44262295 24.1158427,3.44262295 C23.7356077,3.44262295 23.4273181,3.7509125 23.4273181,4.13114754 L23.4273181,7.2295082 C23.4273181,7.60974323 23.7356077,7.91803279 24.1158427,7.91803279 C24.4960778,7.91803279 24.8043673,7.60974323 24.8043673,7.2295082 Z" id="Path"></path>
                                            <path d="M14.4764985,7.2295082 L14.4764985,4.13114754 C14.4764985,3.7509125 14.1682089,3.44262295 13.7879739,3.44262295 C13.4077388,3.44262295 13.0994493,3.7509125 13.0994493,4.13114754 L13.0994493,7.2295082 C13.0994493,7.60974323 13.4077388,7.91803279 13.7879739,7.91803279 C14.1682089,7.91803279 14.4764985,7.60974323 14.4764985,7.2295082 Z" id="Path"></path>
                                        </g>
                                    </g>
                                </g>
                            </g>
                        </g>
                    </g>
                </g>
            </g>
        </g>
    </g>
</svg>