<?xml version="1.0" encoding="UTF-8"?>
<svg width="42px" height="40px" viewBox="0 0 42 40" version="1.1" xmlns="http://www.w3.org/2000/svg" xmlns:xlink="http://www.w3.org/1999/xlink">
    <!-- Generator: Sketch 63.1 (92452) - https://sketch.com -->
    <title>Giay-to</title>
    <desc>Created with Sketch.</desc>
    <g id="Page-1" stroke="none" stroke-width="1" fill="none" fill-rule="evenodd">
        <g id="#PC---eBanking-Login-2" transform="translate(-880.000000, -655.000000)" fill="#FFFFFF" fill-rule="nonzero">
            <g id="Group-15" transform="translate(152.000000, 639.000000)">
                <g id="Group-13">
                    <g id="Group-10-Copy-12" transform="translate(697.000000, 0.000000)">
                        <g id="Group-9" transform="translate(31.000000, 15.000000)">
                            <g id="icon/bank/Giay-to">
                                <g id="Giay-to">
                                    <g transform="translate(0.000000, 0.913043)">
                                        <path d="M32.1847826,6.05347826 L32.3308696,6.05347826 C33.1408106,6.0923129 33.7786837,6.75826846 33.7826087,7.56913043 C33.8226855,7.91446794 34.1151709,8.17497306 34.4628261,8.17497306 C34.8104813,8.17497306 35.1029667,7.91446794 35.1430435,7.56913043 C35.1404891,6.21694834 34.199202,5.04793052 32.8786957,4.75695652 L32.8786957,4.09956522 C32.8386188,3.75422772 32.5461335,3.4937226 32.1984783,3.4937226 C31.8508231,3.4937226 31.5583377,3.75422772 31.5182609,4.09956522 L31.5182609,4.78434783 C30.1397403,5.17500948 29.2567556,6.51811145 29.4446199,7.93854886 C29.6324842,9.35898628 30.8342738,10.42636 32.2669565,10.4452174 C32.8844909,10.4415195 33.4432781,10.8106671 33.682165,11.3801366 C33.9210519,11.9496061 33.7928613,12.6069342 33.357504,13.0449141 C32.9221467,13.4828941 32.2656003,13.6150303 31.6947064,13.3795679 C31.1238124,13.1441055 30.7513154,12.5875455 30.7513043,11.97 C30.7816907,11.7081644 30.659092,11.4521312 30.4360575,11.3116433 C30.213023,11.1711554 29.9291509,11.1711554 29.7061164,11.3116433 C29.4830819,11.4521312 29.3604832,11.7081644 29.3908696,11.97 C29.4120055,13.2575131 30.283768,14.3751574 31.5273913,14.7091304 L31.5273913,15.5217391 C31.5674681,15.8670766 31.8599535,16.1275818 32.2076087,16.1275818 C32.5552639,16.1275818 32.8477493,15.8670766 32.8878261,15.5217391 L32.8878261,14.7821739 C34.2331303,14.3975726 35.1085783,13.1031457 34.9646784,11.7113646 C34.8207786,10.3195836 33.6990127,9.23165372 32.3034783,9.13043478 C31.7619879,9.15163772 31.2503185,8.88234837 30.9612111,8.42400542 C30.6721036,7.96566247 30.6494803,7.38789913 30.9018632,6.90835325 C31.1542461,6.42880736 31.6432922,6.12033337 32.1847826,6.09913043 L32.1847826,6.09913043 L32.1847826,6.05347826 Z" id="Path"></path>
                                        <path d="M32.34,0.0913043478 C28.2597931,0.103886415 24.6179682,2.65316388 23.2095652,6.4826087 L6.39130435,6.4826087 C6.00871806,6.49733434 5.70623845,6.81191314 5.70652174,7.19478261 L5.47826087,31.0434783 L0.693913043,31.0434783 C0.515570364,31.0360799 0.341712169,31.1005239 0.211278764,31.2223762 C0.0808453595,31.3442284 0.00473691424,31.5133059 0,31.6917391 L0,34.7230435 C0.00693404704,37.5756222 2.25414424,39.9193137 5.10391304,40.0461182 L5.10391304,40.0461182 L26.103913,40.0461182 L26.103913,40.0461182 L26.4508696,40.0461182 L26.4508696,40.0461182 C27.8722165,40.0509484 29.2368832,39.4890976 30.2427896,38.4849048 C31.248696,37.4807121 31.8128728,36.1170053 31.8104348,34.6956522 L31.8104348,19.4204348 L32.34,19.4204348 C37.5619733,19.2599106 41.7120403,14.9803095 41.7120403,9.75586957 C41.7120403,4.53142962 37.5619733,0.25182854 32.34,0.0913043478 Z M5.35956522,38.7221739 L5.35956522,38.7221739 C4.29416693,38.7221739 3.27279927,38.2971052 2.52202445,37.5411881 C1.77124963,36.785271 1.35313753,35.7610255 1.36034084,34.6956522 L1.36034084,32.4221739 L21.0913043,32.4221739 L21.0913043,34.6956522 C21.0944833,36.1155149 21.6628622,37.4756816 22.6708696,38.4756522 C22.743913,38.5486957 22.8352174,38.6034783 22.9082609,38.6856522 L5.35956522,38.6856522 L5.35956522,38.7221739 Z M30.45,34.6956522 C30.4621835,35.7577511 30.0494108,36.7806751 29.3035058,37.5368684 C28.5576009,38.2930617 27.540427,38.7198076 26.4782609,38.7221843 L26.4782609,38.7221843 C25.4096174,38.7246054 24.3840424,38.3011647 23.6283954,37.5455176 C22.8727484,36.7898706 22.4493076,35.7642957 22.4517391,34.6956522 L22.4517391,31.6826087 C22.4543032,31.5107314 22.386524,31.3452702 22.264116,31.2245861 C22.1417079,31.1039021 21.9753019,31.0384766 21.8034783,31.0434783 L6.87521739,31.0434783 L7.03043478,7.84304348 L22.826087,7.84304348 C22.7067327,8.46601661 22.6455997,9.0987435 22.6434783,9.73304348 C22.6428858,11.0727112 22.9228046,12.3976604 23.4652174,13.6226087 L17.073913,13.6226087 C16.8120774,13.5922224 16.5560443,13.714821 16.4155564,13.9378555 C16.2750685,14.16089 16.2750685,14.4447622 16.4155564,14.6677967 C16.5560443,14.8908312 16.8120774,15.0134298 17.073913,14.9830435 L24.2413043,14.9830435 C25.6440737,17.190331 27.8862489,18.7301777 30.45,19.2469565 L30.45,34.6956522 L30.45,34.6956522 Z M32.34,18.0326087 C27.7562767,18.0326087 24.0404348,14.3167668 24.0404348,9.73304348 C24.0404348,5.14932018 27.7562767,1.43347826 32.34,1.43347826 C36.9237233,1.43347826 40.6396457,5.14932018 40.6396457,9.73304348 C40.6492793,11.9405461 39.7791536,14.0609676 38.2216291,15.6253459 C36.6641045,17.1897242 34.547524,18.0691304 32.34,18.0691304 L32.34,18.0326087 Z" id="Shape"></path>
                                        <path d="M12.7004348,18.1604348 C11.5459505,18.2004411 10.6384579,19.1617051 10.6649009,20.3165797 C10.6913438,21.4714542 11.641882,22.3901753 12.7969875,22.3772994 C13.952093,22.3644235 14.8819157,21.4247422 14.8826087,20.2695652 C14.8730045,19.7004762 14.6376816,19.1585206 14.2284264,18.7629644 C13.8191713,18.3674081 13.269521,18.1506657 12.7004348,18.1604348 L12.7004348,18.1604348 Z M12.7004348,21.0182609 C12.2988218,20.9788867 12.0006708,20.6283051 12.026303,20.2255816 C12.0519352,19.822858 12.3921273,19.5129052 12.7954914,19.5247655 C13.1988556,19.5366257 13.5202484,19.8660314 13.5221739,20.2695652 C13.4928507,20.6961808 13.1275461,21.020896 12.7004348,21 L12.7004348,21.0182609 Z" id="Shape"></path>
                                        <path d="M16.4347826,20.2604348 C16.4347826,20.6386298 16.7413702,20.9452174 17.1195652,20.9452174 L26.1952174,20.9452174 C26.457053,20.9756037 26.7130862,20.8530051 26.8535741,20.6299706 C26.994062,20.4069361 26.994062,20.1230639 26.8535741,19.9000294 C26.7130862,19.6769949 26.457053,19.5543963 26.1952174,19.5847826 L17.073913,19.5847826 C16.7171453,19.608598 16.4387561,19.9028952 16.4347826,20.2604348 Z" id="Path"></path>
                                        <path d="M12.7004348,12.243913 C11.5459505,12.2839194 10.6384579,13.2451834 10.6649009,14.400058 C10.6913438,15.5549325 11.641882,16.4736536 12.7969875,16.4607777 C13.952093,16.4479018 14.8819157,15.5082205 14.8826087,14.3530435 C14.8730045,13.7839545 14.6376816,13.2419989 14.2284264,12.8464427 C13.8191713,12.4508864 13.269521,12.234144 12.7004348,12.243913 L12.7004348,12.243913 Z M12.7004348,15.1017391 C12.2988218,15.0623649 12.0006708,14.7117834 12.026303,14.3090598 C12.0519352,13.9063363 12.3921273,13.5963835 12.7954914,13.6082437 C13.1988556,13.620104 13.5202484,13.9495096 13.5221739,14.3530435 C13.5127099,14.5613756 13.4207587,14.7573852 13.2666015,14.8978394 C13.1124444,15.0382937 12.9087459,15.1116538 12.7004348,15.1017391 L12.7004348,15.1017391 L12.7004348,15.1017391 Z" id="Shape"></path>
                                        <path d="M12.7004348,24.0678261 C11.5459505,24.1078324 10.6384579,25.0690965 10.6649009,26.223971 C10.6913438,27.3788455 11.641882,28.2975666 12.7969875,28.2846907 C13.952093,28.2718148 14.8819157,27.3321335 14.8826087,26.1769565 C14.8730045,25.6078675 14.6376816,25.0659119 14.2284264,24.6703557 C13.8191713,24.2747994 13.269521,24.0580571 12.7004348,24.0678261 L12.7004348,24.0678261 Z M12.7004348,26.9256522 C12.2988218,26.886278 12.0006708,26.5356964 12.026303,26.1329729 C12.0519352,25.7302493 12.3921273,25.4202965 12.7954914,25.4321568 C13.1988556,25.444017 13.5202484,25.7734227 13.5221739,26.1769565 C13.5127099,26.3852886 13.4207587,26.5812982 13.2666015,26.7217525 C13.1124444,26.8622068 12.9087459,26.9355669 12.7004348,26.9256522 L12.7004348,26.9256522 Z" id="Shape"></path>
                                        <path d="M26.1404348,25.5652174 L17.073913,25.5652174 C16.8120774,25.5348311 16.5560443,25.6574297 16.4155564,25.8804642 C16.2750685,26.1034987 16.2750685,26.3873709 16.4155564,26.6104054 C16.5560443,26.8334399 16.8120774,26.9560385 17.073913,26.9256522 L26.1495652,26.9256522 C26.4115726,26.9542262 26.666726,26.8298961 26.8056825,26.6059419 C26.944639,26.3819878 26.9427342,26.0981611 26.8007842,25.8760923 C26.6588343,25.6540234 26.4020351,25.5331292 26.1404348,25.5652174 Z" id="Path"></path>
                                    </g>
                                </g>
                            </g>
                        </g>
                    </g>
                </g>
            </g>
        </g>
    </g>
</svg>