<?xml version="1.0" encoding="UTF-8"?>
<svg width="40px" height="42px" viewBox="0 0 40 42" version="1.1" xmlns="http://www.w3.org/2000/svg" xmlns:xlink="http://www.w3.org/1999/xlink">
    <!-- Generator: Sketch 63.1 (92452) - https://sketch.com -->
    <title>Dich-vu-khac</title>
    <desc>Created with Sketch.</desc>
    <g id="Page-1" stroke="none" stroke-width="1" fill="none" fill-rule="evenodd">
        <g id="#PC---eBanking-Login-2" transform="translate(-1113.000000, -655.000000)" fill="#FFFFFF" fill-rule="nonzero">
            <g id="Group-15" transform="translate(152.000000, 639.000000)">
                <g id="Group-13">
                    <g id="Group-10-Copy-13" transform="translate(930.000000, 0.000000)">
                        <g id="Group-9" transform="translate(29.000000, 16.000000)">
                            <g id="icon/bank/dich-vu-khac">
                                <g id="icon/dich-vu-khac">
                                    <g id="Dich-vu-khac">
                                        <g transform="translate(1.826087, 0.000000)">
                                            <path d="M25.7295652,32.5408696 L21.566087,34.6408696 C20.9123362,33.5526003 19.740345,32.8819033 18.4708696,32.8695652 L14.4808696,32.8695652 C13.8677542,32.8703996 13.2623291,32.7330867 12.7095652,32.4678261 L12.2986957,32.276087 C10.2178435,31.2687984 7.78297752,31.3060495 5.73391304,32.3765217 L5.73391304,31.6917391 C5.73441862,31.3172856 5.44133956,31.0081475 5.0673913,30.9886957 L1.53391304,30.9886957 C1.1678737,31.0131476 0.888224737,31.3252196 0.903913043,31.6917391 L0.903913043,41.2878261 C0.883074215,41.6578168 1.1641436,41.9755474 1.53391304,42 L5.0673913,42 C5.44489694,41.9804017 5.7393307,41.6658013 5.73391304,41.2878261 L5.73391304,40.8952174 L6.79304348,40.2926087 C7.20427224,40.0540382 7.69233031,39.9852515 8.15347826,40.1008696 L14.9830435,41.8173913 L14.9830435,41.8173913 C15.4168568,41.896314 15.8568921,41.9360394 16.2978261,41.936087 C17.443778,41.9370688 18.5746252,41.6746623 19.6030435,41.1691304 L19.74,41.0869565 L29.4,34.4582609 C29.7017676,34.2568277 29.7869864,33.8510237 29.5917391,33.5452174 C28.7748472,32.2385871 27.0794978,31.7977161 25.7295652,32.5408696 Z M4.40086957,40.6669565 L2.22782609,40.6669565 L2.22782609,32.3217391 L4.40086957,32.3217391 L4.40086957,40.6669565 Z M19.0095652,40.0095652 C17.8529349,40.5687692 16.5499498,40.7508039 15.2843478,40.53 L8.47304348,38.8226087 C7.67616844,38.6183631 6.83105196,38.7330106 6.1173913,39.1421739 L5.71565217,39.3704348 L5.71565217,33.9834783 C7.48057831,32.7629434 9.76634903,32.5884571 11.696087,33.5269565 L12.1069565,33.7186957 C12.8424075,34.0699782 13.6475749,34.2509849 14.4626087,34.2482609 L18.4526087,34.2482609 C19.4802671,34.2413482 20.3837147,34.9273686 20.6530435,35.9191304 L14.8826087,35.9191304 C14.5144989,35.9191304 14.216087,36.2175424 14.216087,36.5856522 C14.216087,36.953762 14.5144989,37.2521739 14.8826087,37.2521739 L21.4382609,37.2521739 C21.6257723,37.2502581 21.8040535,37.1704998 21.9304523,37.0319806 C22.056851,36.8934614 22.1199968,36.7086422 22.1047826,36.5217391 C22.106143,36.3014142 22.0878092,36.0814086 22.05,35.8643478 L26.3413043,33.6821739 L26.3413043,33.6821739 C26.868854,33.3951521 27.5139027,33.4341385 28.0030435,33.7826087 L19.0095652,40.0095652 Z" id="Shape"></path>
                                            <path d="M38.64,-2.31151903e-16 L33.4356522,-2.31151903e-16 C33.2623329,-0.0100646669 33.0925423,0.0518398167 32.9663726,0.171096141 C32.8402029,0.290352465 32.7688385,0.456388977 32.7691304,0.63 L32.7691304,1.05 L31.71,1.6526087 C31.2975257,1.88808315 30.8095352,1.95358523 30.3495652,1.83521739 L23.5108696,0.127826087 L23.5108696,0.127826087 C21.9411434,-0.154294784 20.3223342,0.0728503803 18.8908696,0.776086957 L18.8086957,0.82173913 L9.13043478,7.45043478 C8.82866718,7.65186793 8.74344833,8.05767198 8.93869565,8.36347826 C9.74271806,9.67291097 11.4277383,10.1291872 12.7826087,9.40434783 L16.9369565,7.30434783 C17.5996044,8.37861593 18.76998,9.03457863 20.0321739,9.03913043 L24.0221739,9.03913043 C24.6352544,9.03860839 25.240611,9.17590575 25.7934783,9.44086957 L26.2043478,9.6326087 C27.197694,10.1137084 28.2871515,10.3634408 29.3908696,10.3630435 C30.5671338,10.3597099 31.7255062,10.0748129 32.7691304,9.53217391 L32.7691304,10.2534783 C32.7686249,10.6279317 33.0617039,10.9370699 33.4356522,10.9565217 L38.64,10.9565217 C39.0024044,10.927391 39.2767779,10.6167034 39.2608696,10.2534783 L39.2608696,0.657391304 C39.2767029,0.485083081 39.2177028,0.314282793 39.0988935,0.188484684 C38.9800841,0.0626865755 38.8129312,-0.00596939336 38.64,-1.64148209e-16 L38.64,-2.31151903e-16 Z M26.7704348,8.4 L26.3778261,8.2173913 C25.6417636,7.86787785 24.8370033,7.68696273 24.0221739,7.68782609 L20.0321739,7.68782609 C19.0045155,7.69473874 18.1010679,7.00871834 17.8317391,6.01695652 L23.6204348,6.01695652 C23.9885446,6.01695651 24.2869565,5.71854457 24.2869565,5.35043478 C24.2869565,4.982325 23.9885446,4.68391305 23.6204348,4.68391304 L17.0647826,4.68391304 C16.6952007,4.68890785 16.3982271,4.9899496 16.3982609,5.35956522 C16.3969491,5.57988825 16.4152825,5.79988956 16.4530435,6.01695652 L12.1708696,8.2173913 L12.1708696,8.2173913 C11.6433199,8.50441313 10.9982712,8.46542667 10.5091304,8.11695652 L19.5026087,1.94478261 C20.659239,1.3855786 21.9622241,1.20354391 23.2278261,1.42434783 L30.0391304,3.13173913 C30.8360055,3.33598476 31.681122,3.22133718 32.3947826,2.81217391 L32.7965217,2.58391304 L32.7965217,7.97086957 C31.0251242,9.20195686 28.7257752,9.37667942 26.7886957,8.4273913 L26.7704348,8.4 Z M37.9186957,9.59608696 L34.083913,9.59608696 L34.083913,1.37869565 L37.9186957,1.37869565 L37.9186957,9.59608696 Z" id="Shape"></path>
                                            <path d="M36.0469565,9.06652174 C37.1059025,9.06652174 37.9643478,8.20807641 37.9643478,7.14913043 C37.9643478,6.09018446 37.1059025,5.23173913 36.0469565,5.23173913 C34.9880105,5.23173913 34.1295652,6.09018446 34.1295652,7.14913043 C34.1295652,7.65765423 34.3315755,8.14535021 34.6911561,8.50493083 C35.0507367,8.86451145 35.5384327,9.06652174 36.0469565,9.06652174 L36.0469565,9.06652174 Z M36.0469565,6.56478261 C36.2833032,6.56478261 36.4963776,6.70715439 36.5868235,6.9255102 C36.6772695,7.14386602 36.6272751,7.39520444 36.4601528,7.56232675 C36.2930305,7.72944905 36.0416921,7.77944337 35.8233363,7.68899743 C35.6049805,7.59855149 35.4626087,7.38547707 35.4626087,7.14913043 C35.4626087,6.82640404 35.7242301,6.56478261 36.0469565,6.56478261 L36.0469565,6.56478261 Z" id="Shape"></path>
                                            <path d="M19.256087,9.66912668 C13.0094986,9.66409694 7.94108655,14.7229834 7.93436243,20.9695701 C7.92765168,27.2161569 12.9851716,32.2859326 19.2317563,32.2943444 C25.478341,32.3027353 30.5494799,27.2465822 30.559569,21 C30.5646131,14.7507363 25.5053445,9.67920786 19.256087,9.66912668 Z M19.256087,30.9521781 C15.2209333,30.9558623 11.5813982,28.5270072 10.036362,24.7993616 C8.49132574,21.0717161 9.34545083,16.7803266 12.2000445,13.9283495 C15.0546381,11.0763723 19.346809,10.2261828 23.0730362,11.7746367 C26.7992634,13.3230906 29.22478,16.9648514 29.2174081,21 C29.207328,26.4958241 24.751918,30.9471503 19.256087,30.9521781 Z" id="Shape"></path>
                                            <path d="M19.256087,16.4804348 C20.4108423,16.4804348 21.3469565,17.416549 21.3469565,18.5713043 C21.3469565,18.9394141 21.6453685,19.2378261 22.0134783,19.2378261 C22.3815881,19.2378261 22.68,18.9394141 22.68,18.5713043 C22.6777889,16.9075068 21.4798242,15.4861275 19.8404348,15.2021739 L19.8404348,14.2891304 C19.8404348,13.9210206 19.5420228,13.6226087 19.173913,13.6226087 C18.8058033,13.6226087 18.5073913,13.9210206 18.5073913,14.2891304 L18.5073913,15.2021739 C16.8028962,15.582487 15.6577861,17.1846979 15.8498733,18.9205101 C16.0419605,20.6563223 17.5096795,21.9693943 19.256087,21.9678261 C20.1017648,21.9678261 20.8641717,22.4772501 21.1877986,23.2585545 C21.5114254,24.0398589 21.3325395,24.9391792 20.734555,25.5371637 C20.1365705,26.1351482 19.2372502,26.3140341 18.4559458,25.9904072 C17.6746414,25.6667804 17.1652174,24.9043735 17.1652174,24.0586957 C17.1652174,23.6905859 16.8668054,23.3921739 16.4986957,23.3921739 C16.1305859,23.3921739 15.8321739,23.6905859 15.8321739,24.0586957 C15.8385285,25.6541147 16.9431494,27.0348908 18.4982609,27.3913043 L18.4982609,28.4869565 C18.4982609,28.8550663 18.7966728,29.1534783 19.1647826,29.1534783 C19.5328924,29.1534783 19.8313043,28.8550663 19.8313043,28.4869565 L19.8313043,27.4552174 C21.5706442,27.1405556 22.7845872,25.5536175 22.6330973,23.792548 C22.4816075,22.0314784 21.014482,20.6751699 19.2469565,20.6621739 C18.0922012,20.6596526 17.1581309,19.7214945 17.1606522,18.5667391 C17.1631735,17.4119838 18.1013316,16.4779135 19.256087,16.4804348 L19.256087,16.4804348 Z" id="Path"></path>
                                        </g>
                                    </g>
                                </g>
                            </g>
                        </g>
                    </g>
                </g>
            </g>
        </g>
    </g>
</svg>