<?xml version="1.0" encoding="UTF-8"?>
<svg width="12px" height="27px" viewBox="0 0 12 27" version="1.1" xmlns="http://www.w3.org/2000/svg" xmlns:xlink="http://www.w3.org/1999/xlink">
    <!-- Generator: Sketch 63.1 (92452) - https://sketch.com -->
    <title>attach</title>
    <desc>Created with Sketch.</desc>
    <g id="Page-1" stroke="none" stroke-width="1" fill="none" fill-rule="evenodd">
        <g id="#PC---Nha-dau-tu" transform="translate(-807.000000, -3181.000000)" fill="#141ED2" fill-rule="nonzero">
            <g id="Group-26" transform="translate(149.000000, 2987.000000)">
                <g id="Group-28" transform="translate(0.000000, 54.000000)">
                    <g id="Group-27" transform="translate(64.000000, 128.000000)">
                        <g id="Group-23" transform="translate(587.000000, 1.000000)">
                            <g id="Group-19">
                                <g id="icon/-document" transform="translate(0.000000, 11.000000)">
                                    <g id="icon/document">
                                        <g id="attach">
                                            <g transform="translate(7.630435, 0.000000)" id="Path">
                                                <path d="M5.6494252,26.9911108 C2.54878807,26.9911108 0.0264272802,24.4685098 0.0264272802,21.3681129 L0.0264272802,3.93621868 C0.0264272802,1.76606102 1.79200777,3.49606449e-15 3.96264596,3.49606449e-15 C6.13304385,3.49606449e-15 7.89886464,1.76606102 7.89886464,3.93621868 L7.89886464,19.1186735 C7.89886464,20.3593127 6.88982421,21.3681129 5.6494252,21.3681129 C4.40926643,21.3681129 3.400226,20.3593127 3.400226,19.1186735 L3.400226,5.62323821 L4.52482557,5.62323821 L4.52482557,19.1186735 C4.52482557,19.7387528 5.02934585,20.2435133 5.6494252,20.2435133 C6.26974479,20.2435133 6.774265,19.7387528 6.774265,19.1186735 L6.774265,3.93621868 C6.774265,2.38614038 5.5127242,1.12459957 3.96264596,1.12459957 C2.41232736,1.12459957 1.15102685,2.38614038 1.15102685,3.93621868 L1.15102685,21.3681129 C1.15102685,23.8484304 3.16910772,25.8665112 5.6494252,25.8665112 C8.12998292,25.8665112 10.1480638,23.8484304 10.1480638,21.3681129 L10.1480638,5.62323821 L11.2726634,5.62323821 L11.2726634,21.3681129 C11.2726634,24.4685098 8.75030256,26.9911108 5.6494252,26.9911108 Z"></path>
                                            </g>
                                        </g>
                                    </g>
                                </g>
                            </g>
                        </g>
                    </g>
                </g>
            </g>
        </g>
    </g>
</svg>