<?xml version="1.0" encoding="UTF-8"?>
<svg width="48px" height="41px" viewBox="0 0 48 41" version="1.1" xmlns="http://www.w3.org/2000/svg" xmlns:xlink="http://www.w3.org/1999/xlink">
    <!-- Generator: Sketch 63.1 (92452) - https://sketch.com -->
    <title>ico-quote</title>
    <desc>Created with Sketch.</desc>
    <g id="Page-1" stroke="none" stroke-width="1" fill="none" fill-rule="evenodd">
        <g id="#PC---Nha-dau-tu" transform="translate(-853.000000, -749.000000)" fill="#E0E0E0" fill-rule="nonzero">
            <g id="thong-diep-background" transform="translate(-1.000000, 499.000000)">
                <g id="Group-11" transform="translate(2.000000, 0.000000)">
                    <g id="Group-3" transform="translate(149.000000, 50.000000)">
                        <g id="Group-35" transform="translate(703.000000, 200.000000)">
                            <g id="Group-4">
                                <g id="Group-44">
                                    <g id="ico-quote">
                                        <path d="M15.256,18.4695 C14.082,18.1315 12.908,17.96 11.766,17.96 C10.0025,17.96 8.531,18.363 7.39,18.8565 C8.49,14.8295 11.1325,7.881 16.3965,7.0985 C16.884,7.026 17.2835,6.6735 17.4165,6.199 L18.567,2.084 C18.664,1.736 18.6065,1.3635 18.408,1.0615 C18.2095,0.7595 17.8905,0.558 17.533,0.509 C17.1445,0.456 16.7485,0.429 16.356,0.429 C10.0375,0.429 3.78,7.024 1.1395,16.467 C-0.4105,22.007 -0.865,30.336 2.953,35.5785 C5.0895,38.512 8.2065,40.0785 12.2175,40.235 C12.234,40.2355 12.25,40.236 12.2665,40.236 C17.2155,40.236 21.604,36.903 22.939,32.1315 C23.7365,29.279 23.376,26.2875 21.923,23.706 C20.4855,21.1535 18.118,19.293 15.256,18.4695 Z" id="Path"></path>
                                        <path d="M46.2355,23.7065 C44.798,21.1535 42.4305,19.293 39.5685,18.4695 C38.3945,18.1315 37.2205,17.96 36.079,17.96 C34.3155,17.96 32.8435,18.363 31.7025,18.8565 C32.8025,14.8295 35.445,7.881 40.7095,7.0985 C41.197,7.026 41.596,6.6735 41.7295,6.199 L42.88,2.084 C42.977,1.736 42.9195,1.3635 42.721,1.0615 C42.523,0.7595 42.204,0.558 41.846,0.509 C41.458,0.456 41.062,0.429 40.669,0.429 C34.3505,0.429 28.093,7.024 25.452,16.467 C23.9025,22.007 23.448,30.336 27.2665,35.5795 C29.4025,38.5125 32.52,40.0795 36.5305,40.2355 C36.547,40.236 36.563,40.2365 36.58,40.2365 C41.5285,40.2365 45.9175,36.9035 47.2525,32.132 C48.049,29.2795 47.688,26.2875 46.2355,23.7065 Z" id="Path"></path>
                                    </g>
                                </g>
                            </g>
                        </g>
                    </g>
                </g>
            </g>
        </g>
    </g>
</svg>