<?xml version="1.0" encoding="UTF-8"?>
<svg width="54px" height="54px" viewBox="0 0 54 54" version="1.1" xmlns="http://www.w3.org/2000/svg" xmlns:xlink="http://www.w3.org/1999/xlink">
    <!-- Generator: Sketch 61.2 (89653) - https://sketch.com -->
    <title>phone</title>
    <desc>Created with Sketch.</desc>
    <g id="Symbols" stroke="none" stroke-width="1" fill="none" fill-rule="evenodd">
        <g id="#-FOOTER" transform="translate(-978.000000, -57.000000)" fill="#141ED2" fill-rule="nonzero" stroke="#141ED2" stroke-width="0.66">
            <g id="contact">
                <g>
                    <g id="Group-8">
                        <g id="Group-38-Copy-2" transform="translate(935.000000, 25.000000)">
                            <g id="Group-13" transform="translate(34.000000, 23.000000)">
                                <g id="phone" transform="translate(9.000000, 9.000000)">
                                    <g id="ico-diemGD-ATM" transform="translate(0.600000, 0.600000)">
                                        <path d="M26.4,22.88 C29.7968,22.88 32.56,20.11592 32.56,16.72 C32.56,13.32408 29.7968,10.56 26.4,10.56 C23.0032,10.56 20.24,13.32408 20.24,16.72 C20.24,20.11592 23.0032,22.88 26.4,22.88 Z M26.4,12.32 C28.82616,12.32 30.8,14.29384 30.8,16.72 C30.8,19.14616 28.82616,21.12 26.4,21.12 C23.97384,21.12 22,19.14616 22,16.72 C22,14.29384 23.97384,12.32 26.4,12.32 Z" id="Shape"></path>
                                        <path d="M26.24424,48.18616 L39.74432,28.688 C44.80784,21.93752 44.07568,10.8416 38.17704,4.94384 C34.98968,1.7556 30.7516,0 26.24424,0 C21.73688,0 17.4988,1.7556 14.31144,4.94296 C8.4128,10.84072 7.68064,21.93664 12.72392,28.66072 L26.24424,48.18616 Z M15.55576,6.18728 C18.41136,3.33256 22.2068,1.76 26.24424,1.76 C30.28168,1.76 34.07712,3.33256 36.93272,6.18728 C42.25672,11.5104 42.91232,21.53184 38.31696,27.6584 L26.24424,45.09384 L14.15216,27.632 C9.57616,21.53184 10.23264,11.5104 15.55576,6.18728 Z" id="Shape"></path>
                                        <path d="M37.06296,37.84616 C36.57896,37.7872 36.14248,38.13392 36.08616,38.61704 C36.02984,39.10016 36.3748,39.53752 36.85704,39.59384 C46.11112,40.68328 51.04,43.61896 51.04,45.32 C51.04,47.70832 41.66624,51.04 26.4,51.04 C11.13376,51.04 1.76,47.70832 1.76,45.32 C1.76,43.61896 6.68888,40.68328 15.94296,39.59384 C16.4252,39.53752 16.77016,39.09928 16.71384,38.61704 C16.65664,38.13392 16.22016,37.78544 15.73704,37.84616 C6.47152,38.93736 0,42.01032 0,45.32 C0,49.03712 9.0684,52.8 26.4,52.8 C43.7316,52.8 52.8,49.03712 52.8,45.32 C52.8,42.01032 46.32848,38.93736 37.06296,37.84616 Z" id="Shape"></path>
                                    </g>
                                </g>
                            </g>
                        </g>
                    </g>
                </g>
            </g>
        </g>
    </g>
</svg>