<?xml version="1.0" encoding="UTF-8"?>
<svg width="20px" height="24px" viewBox="0 0 20 24" version="1.1" xmlns="http://www.w3.org/2000/svg" xmlns:xlink="http://www.w3.org/1999/xlink">
    <!-- Generator: Sketch 61.2 (89653) - https://sketch.com -->
    <title>Location-pin - simple-line-icons</title>
    <desc>Created with Sketch.</desc>
    <defs>
        <filter x="-0.8%" y="-10.0%" width="101.7%" height="120.0%" filterUnits="objectBoundingBox" id="filter-1">
            <feOffset dx="0" dy="2" in="SourceAlpha" result="shadowOffsetOuter1"></feOffset>
            <feGaussianBlur stdDeviation="2" in="shadowOffsetOuter1" result="shadowBlurOuter1"></feGaussianBlur>
            <feColorMatrix values="0 0 0 0 0   0 0 0 0 0   0 0 0 0 0  0 0 0 0.256036932 0" type="matrix" in="shadowBlurOuter1" result="shadowMatrixOuter1"></feColorMatrix>
            <feMerge>
                <feMergeNode in="shadowMatrixOuter1"></feMergeNode>
                <feMergeNode in="SourceGraphic"></feMergeNode>
            </feMerge>
        </filter>
    </defs>
    <g id="#-Home" stroke="none" stroke-width="1" fill="none" fill-rule="evenodd">
        <g id="#PC---Home---2" transform="translate(-153.000000, -10.000000)" fill="#333333">
            <g id="Group-2" transform="translate(-1.000000, 0.000000)">
                <g id="#-HEADER">
                    <g filter="url(#filter-1)" id="diemgdich-ATM">
                        <g transform="translate(151.000000, 7.000000)">
                            <g id="ico-diemgdich">
                                <path d="M13.0835503,5 C14.0243103,5 14.8657551,5.15725212 15.6079102,5.47176107 C16.3500652,5.78627002 16.9746159,6.21490885 17.4815809,6.75769043 C17.988546,7.30047201 18.3752971,7.9320168 18.6418457,8.65234375 C18.9083943,9.3726707 19.0416667,10.133568 19.0416667,10.9350586 C19.0416667,11.7466946 18.8770362,12.5760727 18.5477702,13.4232178 C18.2185042,14.2703629 17.8030082,15.1022773 17.3012695,15.918986 C16.7995309,16.7356947 16.2559889,17.5092737 15.6706272,18.2397461 C15.0852654,18.9702185 14.5364971,19.6195176 14.0243056,20.1876628 C14.0243056,20.1978082 13.9459101,20.266289 13.7891168,20.3931071 C13.6323234,20.5199252 13.4494006,20.5833333 13.2403429,20.5833333 L13.1933051,20.5833333 C12.9737945,20.5833333 12.7882585,20.5199252 12.6366916,20.3931071 C12.4851247,20.266289 12.4093424,20.1978082 12.4093424,20.1876628 C11.8657923,19.5789358 11.2778262,18.9144187 10.6454264,18.1940918 C10.0130267,17.4737648 9.42767377,16.7154038 8.88935004,15.918986 C8.35102632,15.1225682 7.90155888,14.3033354 7.54093424,13.461263 C7.18030961,12.6191907 7,11.7771309 7,10.9350586 C7,10.133568 7.16201733,9.3726707 7.48605686,8.65234375 C7.81009638,7.9320168 8.24911109,7.30047201 8.80311415,6.75769043 C9.35711721,6.21490885 10.0025734,5.78627002 10.739502,5.47176107 C11.4764306,5.15725212 12.2577722,5 13.0835503,5 Z M13.2717014,19.5332845 C14.0661209,18.6506304 14.7612275,17.8085706 15.3570421,17.0070801 C15.9528567,16.2055895 16.4493614,15.4472285 16.8465712,14.7319743 C17.2437809,14.0167201 17.5416838,13.3420577 17.7402886,12.7079671 C17.9388935,12.0738765 18.0381944,11.4829129 18.0381944,10.9350586 C18.0381944,10.3161861 17.9415067,9.7100046 17.7481283,9.11649577 C17.5547498,8.52298694 17.2542338,7.99289513 16.8465712,7.52620443 C16.4389086,7.05951373 15.9241115,6.68413771 15.3021647,6.4000651 C14.6802179,6.1159925 13.9406872,5.97395833 13.0835503,5.97395833 C12.3936597,5.97395833 11.7403641,6.10584721 11.1236437,6.36962891 C10.5069233,6.63341061 9.96860762,6.99103236 9.50868056,7.44250488 C9.04875349,7.89397741 8.6829079,8.4215329 8.41113281,9.02518717 C8.13935773,9.62884145 8.00347222,10.2654589 8.00347222,10.9350586 C8.00347222,11.6553855 8.16026319,12.385847 8.47384983,13.1264648 C8.78743646,13.8670827 9.18464025,14.5950078 9.66547309,15.310262 C10.1463059,16.0255163 10.6741689,16.7153965 11.2490777,17.3799235 C11.8239865,18.0444505 12.3675285,18.66585 12.8797201,19.2441406 L13.1462674,19.5332845 L13.2089844,19.5941569 C13.2194373,19.5840115 13.2325032,19.5738662 13.2481825,19.5637207 C13.2638618,19.5535753 13.2717014,19.54343 13.2717014,19.5332845 Z M13.0365126,7.9370931 C13.8727436,7.9370931 14.5835293,8.22369776 15.1688911,8.79691569 C15.7542528,9.37013362 16.0469293,10.0574775 16.0469293,10.8589681 C16.0469293,11.6706041 15.7542528,12.3604844 15.1688911,12.9286296 C14.5835293,13.4967748 13.8727436,13.7808431 13.0365126,13.7808431 C12.2107344,13.7808431 11.5025619,13.4967748 10.9119737,12.9286296 C10.3213856,12.3604844 10.0260959,11.6706041 10.0260959,10.8589681 C10.0260959,10.0574775 10.3213856,9.37013362 10.9119737,8.79691569 C11.5025619,8.22369776 12.2107344,7.9370931 13.0365126,7.9370931 Z M13.0365126,12.8068848 C13.5905156,12.8068848 14.0608885,12.6141241 14.4476454,12.228597 C14.8344023,11.8430699 15.0277778,11.3814589 15.0277778,10.84375 C15.0277778,10.3060411 14.8317891,9.84696642 14.4398058,9.46651204 C14.0478225,9.08605767 13.5748364,8.89583333 13.0208333,8.89583333 C12.4668303,8.89583333 11.9938442,9.08605767 11.6018609,9.46651204 C11.2098776,9.84696642 11.0138889,10.3060411 11.0138889,10.84375 C11.0138889,11.3814589 11.2124908,11.8430699 11.6097005,12.228597 C12.0069103,12.6141241 12.4825095,12.8068848 13.0365126,12.8068848 Z" id="Location-pin---simple-line-icons"></path>
                            </g>
                        </g>
                    </g>
                </g>
            </g>
        </g>
    </g>
</svg>