<?xml version="1.0" encoding="UTF-8"?>
<svg width="42px" height="42px" viewBox="0 0 42 42" version="1.1" xmlns="http://www.w3.org/2000/svg" xmlns:xlink="http://www.w3.org/1999/xlink">
    <!-- Generator: Sketch 63.1 (92452) - https://sketch.com -->
    <title>icon-tietkiem</title>
    <desc>Created with Sketch.</desc>
    <g id="Page-1" stroke="none" stroke-width="1" fill="none" fill-rule="evenodd">
        <g id="#PC---eBanking-Login-2" transform="translate(-195.000000, -654.000000)" fill-rule="nonzero">
            <g id="Group-15" transform="translate(152.000000, 639.000000)">
                <g id="Group-13">
                    <g id="Group-10">
                        <g id="Stacked-Group">
                            <g id="Group-9" transform="translate(43.000000, 15.000000)">
                                <g id="icon-tietkiem">
                                    <path d="M27.9482609,41.8813043 L27.9482609,41.8813043 C25.9474762,41.8826756 24.0212736,41.1219888 22.5613043,39.753913 L22.2052174,39.416087 C20.0075243,39.7165469 17.7759514,39.6641481 15.5947826,39.2608696 L15.0104348,39.8269565 C13.5962503,41.1737938 11.7132734,41.9171603 9.76043478,41.8998706 L9.54130435,41.8998706 C7.51092134,41.8575237 5.58144837,41.006189 4.18173913,39.5347826 C2.13793755,37.3497974 1.72228897,34.1018532 3.15,31.4726087 C1.53790361,29.0827205 0.676301866,26.2658233 0.675652174,23.3830435 L0.675652174,22.6526087 C0.805607397,20.8570598 1.28641914,19.1044234 2.09086957,17.493913 L2.81217391,16.106087 C4.04726057,14.0816378 5.68126006,12.3295927 7.61478261,10.9565217 L7.61478261,10.9565217 C8.66478261,9.69652174 30.2217391,5.17695652 30.4408696,5.17695652 L30.4408696,5.17695652 C31.7515468,5.14645113 32.875865,6.10565965 33.0521739,7.40478261 C33.1110604,8.42798065 33.0497724,9.45455447 32.8695652,10.4634783 L32.7234783,11.8056522 C34.240619,13.0748719 35.5258025,14.5979379 36.5217391,16.3069565 L37.0878261,16.3708696 C39.5160107,16.6149096 41.3637159,18.6600192 41.3608728,21.1004348 L41.3608728,25.7204348 C41.3637159,28.1608503 39.5160107,30.2059599 37.0878261,30.45 L36.5217391,30.5047826 C36.0910496,31.2811866 35.5962876,32.0202755 35.0426087,32.7143478 C35.9074482,35.4242445 35.0189592,38.3870835 32.8056522,40.173913 C31.4290655,41.2811443 29.7148808,41.8836867 27.9482609,41.8813043 Z M27.9482609,40.2378261 C29.3430775,40.2370541 30.6958765,39.7603535 31.7830435,38.8865217 C33.5560137,37.4329417 34.1807115,34.9969897 33.326087,32.8695652 L33.1434783,32.4130435 L33.4630435,32.0386957 C34.1704074,31.2217651 34.7830044,30.3273734 35.2891304,29.3726087 L35.49,28.98 L36.9234783,28.833913 C38.5101574,28.670193 39.7164601,27.3337988 39.7173913,25.7386957 L39.7173913,21.1004348 C39.7164601,19.5053316 38.5101574,18.1689374 36.9234783,18.0052174 L36.9234783,18.0052174 L35.4991304,17.8591304 L35.2891304,17.4756522 C34.297963,15.6629644 32.9536854,14.0672168 31.3356522,12.7826087 L30.9886957,12.4995652 L31.226087,10.2717391 C31.372017,9.39392082 31.436205,8.50445826 31.4178261,7.61478261 C31.3973448,7.3669391 31.2766533,7.13817367 31.0836428,6.98135264 C30.8906323,6.82453161 30.6420051,6.75322561 30.3952174,6.78391304 C28.8430435,6.9573913 11.4678261,10.9565217 8.99347826,11.9791304 L8.70130435,12.18 C6.90124055,13.4299311 5.38078922,15.0405523 4.23652174,16.9095652 L3.57,18.206087 C2.86246082,19.6107666 2.43453455,21.1395177 2.31,22.7073913 L2.31,23.3830435 C2.32305425,26.0914903 3.18879031,28.7270337 4.78434783,30.9156522 L5.11304348,31.3630435 L4.82086957,31.8286957 C3.48900729,33.870778 3.71471126,36.5566552 5.36869565,38.3478261 C6.46812621,39.4883252 7.97568951,40.1452155 9.55956522,40.173913 L9.76043478,40.173913 C11.2870451,40.1845994 12.7588786,39.6056782 13.8691304,38.5578261 L15.0743478,37.4347826 L15.5217391,37.526087 C17.7673264,38.0044233 20.0805708,38.0755525 22.3513043,37.736087 L22.743913,37.6813043 L23.6569565,38.5943478 C24.8294984,39.6510234 26.3515781,40.2364387 27.93,40.2378261 L27.9482609,40.2378261 Z" id="Shape" fill="#141ED2"></path>
                                    <path d="M16.5808696,0.913018432 C20.2412714,0.904131888 23.4831352,3.27406353 24.5853002,6.7646012 C25.6874652,10.2551389 24.3943974,14.0570112 21.3926087,16.1517391 L11.7782609,16.1517391 C9.52916166,14.6050662 8.19486766,12.0425374 8.2173913,9.31304348 C8.21254294,7.09006644 9.09097007,4.95621133 10.6594276,3.3809046 C12.2278852,1.80559788 14.3578925,0.91788129 16.5808696,0.913018432 Z" id="Path" fill="#FFFFFF"></path>
                                    <path d="M16.4475852,12.2256861 C15.6918725,12.2246741 15.0792055,11.612007 15.0781934,10.8562943 C15.0781934,10.4747269 14.7688235,10.165357 14.3872561,10.165357 C14.0056887,10.165357 13.6963188,10.4747269 13.6963188,10.8562943 C13.6980056,12.0856769 14.5144452,13.1656038 15.6969331,13.5026382 L15.6969331,14.139596 C15.6969331,14.5211635 16.006303,14.8305333 16.3878704,14.8305333 C16.7694379,14.8305333 17.0788078,14.5211635 17.0788078,14.139596 L17.0788078,13.5336764 C18.4380784,13.2131732 19.3418973,11.9254253 19.1802963,10.5381528 C19.0190326,9.15121755 17.8443042,8.10469048 16.4475852,8.10502783 C15.6911978,8.10502783 15.0781934,7.49168597 15.0781934,6.73563594 C15.0781934,5.97924856 15.6911978,5.36590671 16.4475852,5.36624414 C17.2039727,5.36624414 17.8169771,5.97924856 17.8169771,6.73563594 C17.8169771,7.11720339 18.126347,7.42657325 18.5079144,7.42657325 C18.8894819,7.42657325 19.1988517,7.11720339 19.1988517,6.73563594 C19.1971649,5.42663362 18.2751279,4.29981203 16.9924406,4.03868635 L16.9924406,3.43006774 C16.9924406,3.04850029 16.6830707,2.73913043 16.3015033,2.73913043 C15.9199358,2.73913043 15.610566,3.04850029 15.610566,3.43006774 L15.610566,4.11493232 C14.3187696,4.52720062 13.5198734,5.81967175 13.7287065,7.15937484 C13.9375395,8.49941536 15.0916883,9.4872398 16.4475852,9.48690245 C17.2039727,9.48690245 17.8169771,10.1002443 17.8169771,10.8562943 C17.8169771,11.6126817 17.2039727,12.2256861 16.4475852,12.2256861 Z" id="Path" fill="#141ED2"></path>
                                    <path d="M21.6482609,17.01 L11.5317391,17.01 L11.3217391,16.8730435 C8.82278683,15.1725625 7.33918067,12.3355511 7.36826087,9.31304348 C7.37832241,4.23575502 11.4944432,0.123717693 16.5717391,0.118691045 L16.5717391,0.118691045 C20.5895288,0.114692539 24.1446174,2.71994714 25.3509978,6.55234797 C26.5573782,10.3847488 25.1356285,14.556635 21.84,16.8547826 L21.6482609,17.01 Z M12.033913,15.3665217 L21.1643478,15.3665217 C23.7728383,13.4135331 24.8342167,10.0074938 23.7969174,6.91841663 C22.7596182,3.8293395 19.8576721,1.75416798 16.5991304,1.77119901 L16.5991304,1.77119901 C12.4223646,1.76120038 9.02684191,5.13629274 9.01173913,9.31304348 C8.98598651,11.6997049 10.1108373,13.9528048 12.033913,15.3665217 L12.033913,15.3665217 Z" id="Shape" fill="#141ED2"></path>
                                </g>
                            </g>
                        </g>
                    </g>
                </g>
            </g>
        </g>
    </g>
</svg>