<?xml version="1.0" encoding="UTF-8"?>
<svg width="126px" height="43px" viewBox="0 0 126 43" version="1.1" xmlns="http://www.w3.org/2000/svg" xmlns:xlink="http://www.w3.org/1999/xlink">
    <!-- Generator: Sketch 62 (91390) - https://sketch.com -->
    <title>Group 27</title>
    <desc>Created with Sketch.</desc>
    <g id="Symbols" stroke="none" stroke-width="1" fill="none" fill-rule="evenodd">
        <g id="#-FOOTER" transform="translate(-970.000000, -224.000000)">
            <g id="Group-5">
                <g transform="translate(0.000000, 150.000000)">
                    <g id="---DOWNLOAD-APP">
                        <g id="Group-34" transform="translate(832.000000, 23.000000)">
                            <g id="Group-33" transform="translate(0.000000, 4.000000)">
                                <g id="Group-32" transform="translate(0.000000, 48.000000)">
                                    <g id="Group-27" transform="translate(139.356000, 0.000000)">
                                        <rect id="Rectangle-4" stroke="#FFFFFF" stroke-width="0.882" fill="#FFFFFF" x="-0.441" y="-0.441" width="124.362" height="41.454" rx="1.764"></rect>
                                        <g id="Group-25" transform="translate(7.938000, 6.174000)" fill="#002395">
                                            <g id="Group-24" transform="translate(23.814000, 0.000000)">
                                                <path d="M0,3.08020145 C0,1.20541748 1.39731941,0 3.13543479,0 C4.2999609,0 5.06101593,0.553342962 5.53611572,1.23219214 L4.68496521,1.7236187 C4.36263602,1.27681657 3.79800034,0.928746 3.13543479,0.928746 C1.9535611,0.928746 1.07499023,1.82179245 1.07499023,3.08020145 C1.07499023,4.32131848 1.9530015,5.2316569 3.13543479,5.2316569 C3.74483841,5.2316569 4.28205372,4.95498542 4.55066138,4.69616371 L4.55066138,3.77634259 L2.75938407,3.77634259 L2.75938407,2.85707929 L5.58983725,2.85707929 L5.58983725,5.07993383 C5.007854,5.73200835 4.16565707,6.16932778 3.13543479,6.16932778 C1.39731941,6.16932778 0,4.94661834 0,3.08020145 L0,3.08020145 Z" id="Shape"></path>
                                                <polygon id="Shape" points="7.056 5.95568831 7.056 0 11.1489092 0 11.1489092 0.919821114 8.10356986 0.919821114 8.10356986 2.45545939 11.0867936 2.45545939 11.0867936 3.37528051 8.10356986 3.37528051 8.10356986 5.03642501 11.1489092 5.03642501 11.1489092 5.95568831 7.056 5.95568831"></polygon>
                                                <polygon id="Shape" points="14.1571845 5.95513051 14.1571845 0.919821114 12.348 0.919821114 12.348 0 17.0144984 0 17.0144984 0.919821114 15.2058735 0.919821114 15.2058735 5.95513051"></polygon>
                                                <polygon id="Shape" points="20.286 5.95568831 20.286 0 21.3335699 0 21.3335699 5.95568831"></polygon>
                                                <polygon id="Shape" points="23.8591845 5.95513051 23.8591845 0.919821114 22.05 0.919821114 22.05 0 26.7164984 0 26.7164984 0.919821114 24.9073139 0.919821114 24.9073139 5.95513051"></polygon>
                                                <path d="M30.87,3.08020145 C30.87,1.30303343 32.1330156,0 33.9248525,0 C35.7066166,0 36.9791454,1.30359123 36.9791454,3.08020145 C36.9791454,4.85681166 35.7066166,6.1604029 33.9248525,6.1604029 C32.132456,6.1604029 30.87,4.85681166 30.87,3.08020145 L30.87,3.08020145 Z M35.9041552,3.08020145 C35.9041552,1.84800931 35.1246334,0.928746 33.9248525,0.928746 C32.7155584,0.928746 31.9449902,1.84800931 31.9449902,3.08020145 C31.9449902,4.3029109 32.7155584,5.2316569 33.9248525,5.2316569 C35.1246334,5.2316569 35.9041552,4.3029109 35.9041552,3.08020145 L35.9041552,3.08020145 Z" id="Shape"></path>
                                                <polygon id="Shape" points="42.0905379 5.95568831 38.9735699 1.69684404 38.9735699 5.95568831 37.926 5.95568831 37.926 0 39.0009902 0 42.0552831 4.12552878 42.0552831 0 43.1034126 0 43.1034126 5.95568831"></polygon>
                                            </g>
                                            <g id="Group-22" transform="translate(0.000000, 10.584000)">
                                                <g id="Group-21" transform="translate(23.814000, 0.882000)">
                                                    <path d="M53.6614564,12.7983873 L52.7582632,13.6473672 C52.5500923,13.7617173 52.3424809,13.894475 52.1354292,13.9887441 C51.5081184,14.272667 50.8701752,14.3440661 50.3033011,14.3440661 C49.7000531,14.3440661 48.7543303,14.3055775 47.7901407,13.6099942 C46.4499005,12.6684187 45.864,11.0513408 45.864,9.64176655 C45.864,6.72332867 48.2473334,5.292 50.1908217,5.292 C50.8707348,5.292 51.5685551,5.46157284 52.1359888,5.81912611 C53.0794732,6.44052133 53.3234585,7.24878136 53.4588815,7.68219616 L49.0190208,9.46996249 L47.5651818,9.58263918 C48.0358048,11.9750666 49.6597619,13.366791 51.4543969,13.366791 C52.3508749,13.366791 53.0162385,13.0756166 53.6267613,12.7744017 C53.6262017,12.7749595 53.7487539,12.7113697 53.6614564,12.7983873 L53.6614564,12.7983873 Z M50.9832143,8.03863382 C51.3441558,7.90810735 51.531062,7.79487285 51.531062,7.53326212 C51.531062,6.78134043 50.677673,5.91339522 49.6592023,5.91339522 C48.9043029,5.91339522 47.4885167,6.4990909 47.4885167,8.5322916 C47.4885167,8.84968288 47.5260099,9.18771295 47.5455958,9.52574303 L50.9832143,8.03863382 L50.9832143,8.03863382 Z" id="Shape"></path>
                                                    <path d="M44.728775,11.8779083 C44.728775,12.609749 44.8597212,12.7235413 45.4803169,12.7804374 C45.8037652,12.8183682 46.1260944,12.8356602 46.4456256,12.8730331 L45.7472457,13.2874826 L42.4193088,13.2874826 C42.8557962,12.7229835 42.9307825,12.667203 42.9307825,12.2906843 L42.9307825,11.8706568 L42.9235077,0.679406984 L41.454,0.679406984 L42.8681074,0 L45.5687335,0 C44.9833927,0.33747227 44.8087977,0.54386027 44.7332518,1.20207065 L44.728775,11.8779083 L44.728775,11.8779083 Z" id="Shape"></path>
                                                    <path d="M39.676557,5.9730804 C40.1096868,6.32840244 41.0151185,7.08199755 41.0151185,8.51276841 C41.0151185,9.90672412 40.2266431,10.5638189 39.4314525,11.1857719 C39.1874672,11.4306485 38.9026312,11.6961639 38.9026312,12.1067086 C38.9026312,12.5228315 39.1880268,12.7487427 39.3933998,12.9171999 L40.0755513,13.4420948 C40.9048774,14.1399093 41.6608961,14.7797121 41.6608961,16.0793987 C41.6608961,17.8504309 39.9418071,19.6354082 36.6933332,19.6354082 C33.9568927,19.6354082 32.634,18.3368372 32.634,16.9439971 C32.634,16.2657057 32.971998,15.3057226 34.0895177,14.6486279 C35.2601994,13.9351948 36.8466634,13.83981 37.6955755,13.7840295 C37.4303255,13.4426526 37.1275823,13.0850993 37.1275823,12.5016349 C37.1275823,12.1825702 37.2238333,11.9923585 37.3167268,11.7681208 C37.1102347,11.7876439 36.9020637,11.8077249 36.7129192,11.8077249 C34.7101133,11.8077249 33.5774844,10.3183845 33.5774844,8.85024068 C33.5774844,7.98452669 33.9736807,7.02454359 34.787338,6.32784464 C35.8640071,5.44428088 37.1477278,5.292 38.1678773,5.292 L42.0593307,5.292 L40.8494771,5.9730804 L39.676557,5.9730804 L39.676557,5.9730804 Z M38.3379955,14.3295632 C38.1835461,14.3094822 38.0906526,14.3094822 37.9037465,14.3094822 C37.7325091,14.3094822 36.7123596,14.3462973 35.9222054,14.6106971 C35.5041847,14.762978 34.2960099,15.2131269 34.2960099,16.5507443 C34.2960099,17.8850148 35.6004358,18.8466714 37.6189104,18.8466714 C39.4314525,18.8466714 40.3945229,17.9803996 40.3945229,16.8140285 C40.3939633,15.8540454 39.7711293,15.347558 38.3379955,14.3295632 L38.3379955,14.3295632 Z M38.8813664,10.7529149 C39.3178539,10.3189423 39.3559066,9.7187437 39.3559066,9.37736679 C39.3559066,8.02357307 38.5461664,5.91506864 36.9764904,5.91506864 C36.4868411,5.91506864 35.956341,6.16050302 35.6552765,6.53869508 C35.3363049,6.93083228 35.2406135,7.43955081 35.2406135,7.92874615 C35.2406135,9.18938637 35.9776057,11.280041 37.6004436,11.280041 C38.073305,11.280041 38.5825404,11.050783 38.8813664,10.7529149 L38.8813664,10.7529149 Z" id="Shape"></path>
                                                    <path d="M27.5397405,14.3055775 C24.5380499,14.3055775 22.932,11.9750666 22.932,9.86600432 C22.932,7.40106224 24.9510342,5.292 27.8228977,5.292 C30.5990698,5.292 32.3377448,7.45851619 32.3377448,9.73324664 C32.3377448,11.9544278 30.6192154,14.3055775 27.5397405,14.3055775 L27.5397405,14.3055775 Z M29.9012495,12.7827688 C30.3578825,12.180339 30.4686832,11.4284173 30.4686832,10.695461 C30.4686832,9.0376633 29.6762906,5.87602226 27.3343676,5.87602226 C26.7115336,5.87602226 26.0842228,6.11866761 25.6320665,6.51526725 C24.8945147,7.17403544 24.7630089,8.00126085 24.7630089,8.81342552 C24.7630089,10.6731487 25.6846689,13.7405207 27.97343,13.7405207 C28.7126606,13.7405207 29.4664408,13.384083 29.9012495,12.7827688 L29.9012495,12.7827688 Z" id="Shape"></path>
                                                    <path d="M17.8360617,14.3055775 C14.8338115,14.3055775 13.23,11.9750666 13.23,9.86600432 C13.23,7.40106224 15.2495938,5.292 18.1203381,5.292 C20.8948314,5.292 22.6318276,7.45851619 22.6318276,9.73324664 C22.6323872,11.9544278 20.9160962,14.3055775 17.8360617,14.3055775 L17.8360617,14.3055775 Z M20.1981303,12.7827688 C20.6514057,12.180339 20.7644448,11.4284173 20.7644448,10.695461 C20.7644448,9.0376633 19.9698138,5.87602226 17.6301292,5.87602226 C17.0050568,5.87602226 16.3844612,6.11866761 15.9311857,6.51526725 C15.1925147,7.17403544 15.0615685,8.00126085 15.0615685,8.81342552 C15.0615685,10.6731487 15.9871457,13.7405207 18.2719896,13.7405207 C19.0095414,13.7405207 19.7622024,13.384083 20.1981303,12.7827688 L20.1981303,12.7827688 Z" id="Shape"></path>
                                                    <path d="M12.1975856,12.9874929 L9.66595844,13.5648215 C8.64021295,13.7260273 7.71911253,13.8682676 6.74373098,13.8682676 C1.86010802,13.8682676 0,10.2849257 0,7.48139575 C0,4.05647056 2.63627223,0.882 7.15055966,0.882 C8.10579564,0.882 9.02521726,1.02200916 9.86237779,1.24903596 C11.1891877,1.62109216 11.8092237,2.07849259 12.1975856,2.3473548 L10.7269587,3.73963709 L10.1069227,3.87797283 L10.5490061,3.17513802 C9.95023488,2.59223137 8.84950308,1.51622475 6.76051896,1.51622475 C3.96755893,1.51622475 1.86010802,3.63253845 1.86010802,6.72222259 C1.86010802,10.040607 4.26638494,13.162086 8.12426241,13.162086 C9.25801056,13.162086 9.84167262,12.9350592 10.3716131,12.7230931 L10.3716131,9.87828558 L7.69896696,10.0216416 L9.11587234,9.26302622 L12.8668663,9.26302622 L12.4085545,9.70313468 C12.2843235,9.8080021 12.2680951,9.84370164 12.2334,9.98426861 C12.2149332,10.1449166 12.1981452,10.6558663 12.1981452,10.8354797 L12.1981452,12.9874929 L12.1975856,12.9874929 Z" id="Shape"></path>
                                                    <path d="M59.167236,12.9183155 L59.167236,17.7132108 L58.212,17.7132108 L58.212,5.51289094 L59.167236,5.51289094 L59.167236,6.9018264 C59.7889508,6.0043175 60.9260565,5.292 62.2472704,5.292 C64.6154946,5.292 66.2114718,7.08311316 66.2114718,9.91843803 C66.2114718,12.7347975 64.6154946,14.5632836 62.2472704,14.5632836 C61.0004832,14.5638414 59.8835231,13.922923 59.167236,12.9183155 L59.167236,12.9183155 Z M65.1851667,9.91899584 C65.1851667,7.78204333 64.0676469,6.15213594 62.0861058,6.15213594 C60.855547,6.15213594 59.6787097,7.11658148 59.167236,7.95663642 L59.167236,11.8618321 C59.6787097,12.7041182 60.855547,13.7031477 62.0861058,13.7031477 C64.0676469,13.7031477 65.1851667,12.0592952 65.1851667,9.91899584 L65.1851667,9.91899584 Z" id="Shape"></path>
                                                    <polygon id="Shape" points="67.914 13.963762 67.914 1.764 68.8686764 1.764 68.8686764 13.963762 67.914 13.963762"></polygon>
                                                    <path d="M77.007703,14.3200805 C76.9439086,14.0138453 76.8957831,13.7444253 76.8605283,13.5185141 C76.8308696,13.2937185 76.8146412,13.0639027 76.8146412,12.8301822 C76.486716,13.3093371 76.0228082,13.708168 75.4301926,14.0227702 C74.8370173,14.3384881 74.2740605,14.4941158 73.5006942,14.4941158 C72.5700806,14.4941158 71.8481976,14.2659734 71.332247,13.8029949 C70.8185349,13.3405742 70.56,12.7141587 70.56,11.9215172 C70.56,11.1299914 70.9343719,10.4873995 71.6808774,9.99597298 C72.4273828,9.5023152 73.3926916,9.25743863 74.5863169,9.25743863 L76.8140816,9.25743863 L76.8140816,8.15967759 C76.8140816,7.52768406 76.5975167,7.03123725 76.1666252,6.67033716 C75.7334954,6.30999486 75.1257706,6.12703469 74.3372952,6.12703469 C73.6170909,6.12703469 73.0328692,6.29381851 72.5879878,6.61846125 C72.1470236,6.94979766 71.9254223,7.36034244 71.9254223,7.85511584 L70.9478023,7.85511584 L70.9276567,7.80770238 C70.8918424,7.14112492 71.1985028,6.55542924 71.8493168,6.05061535 C72.4967731,5.54580146 73.3462448,5.292 74.3910167,5.292 C75.4318714,5.292 76.2746279,5.54189682 76.9103327,6.04057485 C77.5449183,6.53423264 77.8633303,7.24766575 77.8633303,8.18031639 L77.8633303,12.5373344 C77.8633303,12.8502632 77.8778798,13.1525938 77.9176114,13.447115 C77.9579025,13.7421941 78.0222565,14.0367153 78.1078751,14.3211961 L77.007703,14.3211961 L77.007703,14.3200805 Z M73.6182101,13.6261706 C74.4296291,13.6261706 75.0127315,13.4454416 75.6092643,13.0878883 C76.2013204,12.7320085 76.6036723,12.2684722 76.8152008,11.70732 L76.8152008,10.0115915 L74.5768037,10.0115915 C73.721736,10.0115915 73.0138429,10.2001298 72.4570416,10.5811109 C71.8991211,10.9604185 71.6159638,11.4194924 71.6159638,11.9533122 C71.6159638,12.4564526 71.7950356,12.8597459 72.1515004,13.1648655 C72.5079651,13.4733319 72.9959357,13.6261706 73.6182101,13.6261706 L73.6182101,13.6261706 Z" id="Shape"></path>
                                                    <path d="M80.6386103,16.7030252 C80.8423045,16.7933897 81.1909348,16.849728 81.4125361,16.849728 C81.9967578,16.849728 82.4035865,16.6115451 82.7690048,15.7698167 L83.4657059,14.1968055 L79.7024007,5.292 L80.7678778,5.292 L83.9956464,13.00868 L87.1920775,5.292 L88.2726638,5.292 L83.68339,16.0648958 C83.207171,17.1749286 82.4578676,17.7087483 81.4287645,17.7087483 C81.1198657,17.7087483 80.713037,17.6535256 80.4740881,17.5810109 L80.6386103,16.7030252 L80.6386103,16.7030252 Z" id="Path"></path>
                                                </g>
                                                <path d="M0.568665058,19.3731959 C0.224206959,19.280413 0,18.9384273 0,18.40922 L0,0.940864628 C0,0.450738002 0.189839318,0.120183304 0.490771318,3.90798505e-14 L0.490771318,3.90798505e-14 L9.07508071,9.73486625 L0.568665058,19.3731959 L0.568665058,19.3731959 Z M1.75035694,19.0023987 L12.0831563,13.1461149 L9.56645616,10.2921009 L1.75035694,19.0023987 L1.75035694,19.0023987 Z M12.1543089,6.24589772 L1.96550821,0.469885326 L9.58135465,9.1612245 L12.1543089,6.24589772 L12.1543089,6.24589772 Z M12.8456108,6.63779548 L16.8370218,8.90051909 C17.5927477,9.32893871 17.5996589,10.0195464 16.8370218,10.4517835 L12.744632,12.7712127 L10.0753528,9.724984 L12.8456108,6.63779548 L12.8456108,6.63779548 Z" id="google-play"></path>
                                            </g>
                                        </g>
                                    </g>
                                </g>
                            </g>
                        </g>
                    </g>
                </g>
            </g>
        </g>
    </g>
</svg>