<?xml version="1.0" encoding="UTF-8"?>
<svg width="126px" height="43px" viewBox="0 0 126 43" version="1.1" xmlns="http://www.w3.org/2000/svg" xmlns:xlink="http://www.w3.org/1999/xlink">
    <!-- Generator: Sketch 62 (91390) - https://sketch.com -->
    <title>Group 29</title>
    <desc>Created with Sketch.</desc>
    <g id="Symbols" stroke="none" stroke-width="1" fill="none" fill-rule="evenodd">
        <g id="#-FOOTER" transform="translate(-831.000000, -225.000000)">
            <g id="Group-5">
                <g transform="translate(0.000000, 150.000000)">
                    <g id="---DOWNLOAD-APP">
                        <g id="Group-34" transform="translate(832.000000, 23.000000)">
                            <g id="Group-33" transform="translate(0.000000, 4.000000)">
                                <g id="Group-32" transform="translate(0.000000, 48.000000)">
                                    <g id="Group-29" transform="translate(0.000000, 0.882000)">
                                        <rect id="Rectangle-3" stroke="#FFFFFF" stroke-width="0.882" fill="#FFFFFF" x="-0.441" y="-0.441" width="124.362" height="41.454" rx="1.764"></rect>
                                        <g id="Group-28" transform="translate(9.702000, 7.056000)" fill="#42d0e2">
                                            <path d="M2.02190553,0 C0.90523794,0 0,0.989269281 0,2.21435024 L0,25.1276498 C0,26.3506016 0.904236607,27.342 2.02190553,27.342 L12.0900945,27.342 C13.2067621,27.342 14.112,26.3527307 14.112,25.1276498 L14.112,2.21435024 C14.112,0.991398373 13.2077634,0 12.0900945,0 L2.02190553,0 L2.02190553,0 Z M1.323,3.58583607 L1.323,23.7561639 L12.789,23.7561639 L12.789,3.58583607 L1.323,3.58583607 L1.323,3.58583607 Z M7.056,26.445541 C7.54311515,26.445541 7.938,26.0441826 7.938,25.549082 C7.938,25.0539813 7.54311515,24.652623 7.056,24.652623 C6.56888485,24.652623 6.174,25.0539813 6.174,25.549082 C6.174,26.0441826 6.56888485,26.445541 7.056,26.445541 L7.056,26.445541 Z M5.292,1.79291803 C5.292,2.04046835 5.44359375,2.24114754 5.64317626,2.24114754 L8.46882374,2.24114754 C8.66277303,2.24114754 8.82,2.03322858 8.82,1.79291803 C8.82,1.54536771 8.66840625,1.34468852 8.46882374,1.34468852 L5.64317626,1.34468852 C5.44922697,1.34468852 5.292,1.55260749 5.292,1.79291803 Z" id="iPhone-Vector"></path>
                                            <path d="M22.38516,8.882 L23.12604,6.638192 L25.655616,6.638192 L26.417664,8.882 L27.401976,8.882 L24.967656,1.748384 L23.856336,1.748384 L21.4326,8.882 L22.38516,8.882 Z M25.465104,5.91848 L23.316552,5.91848 L24.015096,3.8546 C24.152688,3.420656 24.269112,2.986712 24.374952,2.563352 L24.39612,2.563352 C24.50196,2.976128 24.6078,3.399488 24.76656,3.865184 L25.465104,5.91848 Z M30.608928,8.882 L32.619888,3.759344 L31.64616,3.759344 L30.651264,6.638192 C30.48192,7.103888 30.333744,7.527248 30.21732,7.950608 L30.185568,7.950608 C30.079728,7.527248 29.942136,7.103888 29.772792,6.638192 L28.767312,3.759344 L27.772416,3.759344 L29.719872,8.882 L30.608928,8.882 Z M34.831944,8.998424 C35.56224,8.998424 36.112608,8.638568 36.398376,8.236376 L36.430128,8.236376 L36.504216,8.882 L37.350936,8.882 C37.287432,8.532728 37.266264,8.098784 37.266264,7.654256 L37.266264,5.738552 C37.266264,4.711904 36.88524,3.64292 35.318808,3.64292 C34.673184,3.64292 34.059312,3.822848 33.635952,4.098032 L33.847632,4.711904 C34.207488,4.479056 34.704936,4.33088 35.181216,4.33088 C36.229032,4.33088 36.345456,5.092928 36.345456,5.516288 L36.345456,5.622128 C34.366248,5.611544 33.265512,6.28892 33.265512,7.527248 C33.265512,8.268128 33.794712,8.998424 34.831944,8.998424 Z M35.075376,8.310464 C34.599096,8.310464 34.196904,8.024696 34.196904,7.421408 C34.196904,6.426512 35.35056,6.246584 36.366624,6.267752 L36.366624,7.156808 C36.366624,7.252064 36.345456,7.357904 36.313704,7.45316 C36.165528,7.887104 35.742168,8.310464 35.075376,8.310464 Z M39.4254,2.891456 C39.79584,2.891456 40.028688,2.63744 40.018104,2.31992 C40.018104,1.991816 39.79584,1.7378 39.446568,1.7378 C39.10788,1.7378 38.864448,1.991816 38.864448,2.31992 C38.864448,2.63744 39.097296,2.891456 39.4254,2.891456 Z M39.912264,8.882 L39.912264,3.759344 L38.980872,3.759344 L38.980872,8.882 L39.912264,8.882 Z M42.6006,8.882 L42.6006,1.36736 L41.669208,1.36736 L41.669208,8.882 L42.6006,8.882 Z M45.542952,8.998424 C46.273248,8.998424 46.823616,8.638568 47.109384,8.236376 L47.141136,8.236376 L47.215224,8.882 L48.061944,8.882 C47.99844,8.532728 47.977272,8.098784 47.977272,7.654256 L47.977272,5.738552 C47.977272,4.711904 47.596248,3.64292 46.029816,3.64292 C45.384192,3.64292 44.77032,3.822848 44.34696,4.098032 L44.55864,4.711904 C44.918496,4.479056 45.415944,4.33088 45.892224,4.33088 C46.94004,4.33088 47.056464,5.092928 47.056464,5.516288 L47.056464,5.622128 C45.077256,5.611544 43.97652,6.28892 43.97652,7.527248 C43.97652,8.268128 44.50572,8.998424 45.542952,8.998424 Z M45.786384,8.310464 C45.310104,8.310464 44.907912,8.024696 44.907912,7.421408 C44.907912,6.426512 46.061568,6.246584 47.077632,6.267752 L47.077632,7.156808 C47.077632,7.252064 47.056464,7.357904 47.024712,7.45316 C46.876536,7.887104 46.453176,8.310464 45.786384,8.310464 Z M52.2426239,8.998424 C53.3856959,8.998424 54.5393519,8.0882 54.5393519,6.257168 C54.5499359,4.70132 53.6502959,3.64292 52.3802159,3.64292 C51.5546639,3.64292 50.9619599,4.01336 50.6338559,4.584896 L50.6126879,4.584896 L50.6126879,1.36736 L49.6918799,1.36736 L49.6918799,7.559 C49.6918799,8.014112 49.6707119,8.532728 49.6495439,8.882 L50.4539279,8.882 L50.4962639,8.03528 L50.5280159,8.03528 C50.9090399,8.712656 51.5017439,8.998424 52.2426239,8.998424 Z M52.0521119,8.257544 C51.3747359,8.257544 50.8349519,7.813016 50.6550239,7.167392 C50.6338559,7.061552 50.6126879,6.945128 50.6126879,6.828704 L50.6126879,5.907896 C50.6126879,5.75972 50.6444399,5.632712 50.6656079,5.526872 C50.8561199,4.817744 51.4488239,4.3838 52.0838639,4.3838 C53.0787599,4.3838 53.6079599,5.262272 53.6079599,6.28892 C53.6079599,7.463744 53.0258399,8.257544 52.0521119,8.257544 Z M56.8572479,8.882 L56.8572479,1.36736 L55.9258559,1.36736 L55.9258559,8.882 L56.8572479,8.882 Z M60.7839119,8.98784 C61.5988799,8.98784 62.1598319,8.818496 62.4879359,8.67032 L62.3291759,8.003528 C61.9799039,8.151704 61.5777119,8.268128 60.9109199,8.268128 C59.9795279,8.268128 59.1751439,7.749512 59.1539759,6.490016 L62.7525359,6.490016 C62.7631199,6.39476 62.7842879,6.246584 62.7842879,6.056072 C62.7842879,5.114096 62.3397599,3.64292 60.6674879,3.64292 C59.1751439,3.64292 58.2649199,4.86008 58.2649199,6.405344 C58.2649199,7.950608 59.2068959,8.98784 60.7839119,8.98784 Z M61.8846479,5.823224 L59.1645599,5.823224 C59.2386479,5.1776 59.6514239,4.309712 60.5933999,4.309712 C61.6412159,4.309712 61.8952319,5.23052 61.8846479,5.823224 Z M68.6901599,8.998424 C69.9284879,8.998424 71.2409039,8.172872 71.2409039,6.278336 C71.2409039,4.711904 70.2460079,3.64292 68.7748319,3.64292 C67.3565759,3.64292 66.2346719,4.6484 66.2346719,6.363008 C66.2346719,7.98236 67.3036559,8.998424 68.6901599,8.998424 Z M68.7324959,8.29988 C67.8222719,8.29988 67.1766479,7.45316 67.1766479,6.331256 C67.1766479,5.357528 67.6529279,4.341464 68.7536639,4.341464 C69.8543999,4.341464 70.2883439,5.4422 70.2883439,6.310088 C70.2883439,7.463744 69.6215519,8.29988 68.7324959,8.29988 Z M73.5587999,8.882 L73.5587999,5.802056 C73.5587999,5.643296 73.5799679,5.484536 73.6223039,5.368112 C73.7810639,4.849496 74.2573439,4.415552 74.8712159,4.415552 C75.7496879,4.415552 76.0566239,5.103512 76.0566239,5.929064 L76.0566239,8.882 L76.9880159,8.882 L76.9880159,5.823224 C76.9880159,4.06628 75.8872799,3.64292 75.1781519,3.64292 C74.3314319,3.64292 73.7387279,4.1192 73.4847119,4.606064 L73.4635439,4.606064 L73.4106239,3.759344 L72.5850719,3.759344 C72.6168239,4.182704 72.6274079,4.616648 72.6274079,5.145848 L72.6274079,8.882 L73.5587999,8.882 Z M82.7457119,8.98784 C83.1055679,8.98784 83.3913359,8.93492 83.5712639,8.860832 L83.5289279,8.162288 C83.4125039,8.19404 83.2325759,8.225792 82.9891439,8.225792 C82.4705279,8.225792 82.2905999,7.865936 82.2905999,7.230896 L82.2905999,4.468472 L83.6241839,4.468472 L83.6241839,3.759344 L82.2905999,3.759344 L82.2905999,2.288168 L81.3803759,2.5316 L81.3803759,3.759344 L80.5865759,3.759344 L80.5865759,4.468472 L81.3803759,4.468472 L81.3803759,7.262648 C81.3803759,7.865936 81.4756319,8.321048 81.7402319,8.596232 C81.9624959,8.850248 82.3117679,8.98784 82.7457119,8.98784 Z M85.8150719,8.882 L85.8150719,5.791472 C85.8150719,5.611544 85.8256559,5.473952 85.8785759,5.346944 C86.0479199,4.838912 86.5241999,4.415552 87.1274879,4.415552 C88.0059599,4.415552 88.3128959,5.114096 88.3128959,5.939648 L88.3128959,8.882 L89.2442879,8.882 L89.2442879,5.833808 C89.2442879,4.06628 88.1435519,3.64292 87.4555919,3.64292 C87.1063199,3.64292 86.7782159,3.74876 86.5030319,3.90752 C86.2172639,4.06628 85.9844159,4.299128 85.8362399,4.563728 L85.8150719,4.563728 L85.8150719,1.36736 L84.8836799,1.36736 L84.8836799,8.882 L85.8150719,8.882 Z M93.1180319,8.98784 C93.9329999,8.98784 94.4939519,8.818496 94.8220559,8.67032 L94.6632959,8.003528 C94.3140239,8.151704 93.9118319,8.268128 93.2450399,8.268128 C92.3136479,8.268128 91.5092639,7.749512 91.4880959,6.490016 L95.0866559,6.490016 C95.0972399,6.39476 95.1184079,6.246584 95.1184079,6.056072 C95.1184079,5.114096 94.6738799,3.64292 93.0016079,3.64292 C91.5092639,3.64292 90.5990399,4.86008 90.5990399,6.405344 C90.5990399,7.950608 91.5410159,8.98784 93.1180319,8.98784 Z M94.2187679,5.823224 L91.4986799,5.823224 C91.5727679,5.1776 91.9855439,4.309712 92.9275199,4.309712 C93.9753359,4.309712 94.2293519,5.23052 94.2187679,5.823224 Z" id="Availableonthe" fill-rule="nonzero"></path>
                                            <path d="M23.4883731,25.584 L24.9007742,21.3064426 L29.7231149,21.3064426 L31.1758702,25.584 L33.0523459,25.584 L28.4115996,11.9845957 L26.2929981,11.9845957 L21.6724289,25.584 L23.4883731,25.584 Z M29.359926,19.9343958 L25.263963,19.9343958 L26.5956554,15.9998501 C26.8579585,15.1725866 27.0799072,14.3453231 27.2816788,13.5382368 L27.3220331,13.5382368 C27.5238047,14.325146 27.7255763,15.1322323 28.0282336,16.0200272 L29.359926,19.9343958 Z M35.9698144,29.5790772 L35.9698144,24.2724847 L36.0101687,24.2724847 C36.5953063,25.2409883 37.7252271,25.8059487 39.0165652,25.8059487 C41.3167612,25.8059487 43.4555399,24.0707132 43.4555399,20.5598877 C43.4555399,17.5938455 41.67995,15.5963069 39.3192226,15.5963069 C37.7252271,15.5963069 36.5751291,16.3025074 35.8487514,17.4929597 L35.8083971,17.4929597 L35.7276885,15.8182557 L34.133693,15.8182557 C34.1740474,16.7464049 34.2144017,17.7552628 34.2144017,19.0062466 L34.2144017,29.5790772 L35.9698144,29.5790772 Z M38.7139078,24.4137249 C37.4427469,24.4137249 36.3733575,23.5662842 36.050523,22.3354776 C36.0101687,22.1135289 35.9698144,21.871403 35.9698144,21.6090999 L35.9698144,19.9343958 C35.9698144,19.6922699 36.0303459,19.4299669 36.0908773,19.2080182 C36.433889,17.8763257 37.5638099,17.008708 38.7744393,17.008708 C40.650915,17.008708 41.67995,18.6834121 41.67995,20.6405964 C41.67995,22.8802609 40.5903835,24.4137249 38.7139078,24.4137249 Z M46.7361972,29.5790772 L46.7361972,24.2724847 L46.7765516,24.2724847 C47.3616891,25.2409883 48.49161,25.8059487 49.7829481,25.8059487 C52.083144,25.8059487 54.2219228,24.0707132 54.2219228,20.5598877 C54.2219228,17.5938455 52.4463329,15.5963069 50.0856054,15.5963069 C48.49161,15.5963069 47.341512,16.3025074 46.6151343,17.4929597 L46.57478,17.4929597 L46.4940713,15.8182557 L44.9000759,15.8182557 C44.9404302,16.7464049 44.9807845,17.7552628 44.9807845,19.0062466 L44.9807845,29.5790772 L46.7361972,29.5790772 Z M49.4802907,24.4137249 C48.2091298,24.4137249 47.1397404,23.5662842 46.8169059,22.3354776 C46.7765516,22.1135289 46.7361972,21.871403 46.7361972,21.6090999 L46.7361972,19.9343958 C46.7361972,19.6922699 46.7967287,19.4299669 46.8572602,19.2080182 C47.2002719,17.8763257 48.3301927,17.008708 49.5408222,17.008708 C51.4172978,17.008708 52.4463329,18.6834121 52.4463329,20.6405964 C52.4463329,22.8802609 51.3567664,24.4137249 49.4802907,24.4137249 Z M62.1552841,25.7857716 C65.3634522,25.7857716 66.9170934,23.9698274 66.9170934,21.871403 C66.9170934,19.8738644 65.7468182,18.7641207 63.4466222,17.8763257 C61.5701466,17.1499481 60.7428831,16.5244562 60.7428831,15.2532952 C60.7428831,14.325146 61.4490836,13.2154023 63.3053821,13.2154023 C64.5361887,13.2154023 65.4441608,13.6189455 65.8880583,13.8610713 L66.3723101,12.4284931 C65.7669954,12.0854815 64.7581375,11.7626469 63.3659136,11.7626469 C60.7227059,11.7626469 58.9672932,13.3364652 58.9672932,15.4550668 C58.9672932,17.3718968 60.3393399,18.5219948 62.5588273,19.3089039 C64.3949486,20.0151045 65.1213263,20.7414821 65.1213263,22.0126431 C65.1213263,23.3846898 64.0721141,24.3330162 62.2763471,24.3330162 C61.0657176,24.3330162 59.9156196,23.9294731 59.1287105,23.4452213 L58.684813,24.9181538 C59.4111907,25.4024056 60.8437689,25.7857716 62.1552841,25.7857716 Z M71.4890888,25.7857716 C72.1751121,25.7857716 72.7198954,25.6848858 73.0629071,25.5436457 L72.9821984,24.2119533 C72.7602497,24.2724847 72.417238,24.3330162 71.9531634,24.3330162 C70.9644827,24.3330162 70.621471,23.6469929 70.621471,22.4363634 L70.621471,17.1701252 L73.1637929,17.1701252 L73.1637929,15.8182557 L70.621471,15.8182557 L70.621471,13.0136307 L68.8862354,13.4777054 L68.8862354,15.8182557 L67.3729486,15.8182557 L67.3729486,17.1701252 L68.8862354,17.1701252 L68.8862354,22.4968949 C68.8862354,23.6469929 69.0678298,24.5146106 69.5722588,25.0392167 C69.9959791,25.5234685 70.6618253,25.7857716 71.4890888,25.7857716 Z M78.3007487,25.8059487 C80.6614762,25.8059487 83.1634437,24.2321304 83.1634437,20.6204192 C83.1634437,17.6341998 81.2667909,15.5963069 78.462166,15.5963069 C75.7584268,15.5963069 73.6196481,17.5131369 73.6196481,20.7818365 C73.6196481,23.8689416 75.657541,25.8059487 78.3007487,25.8059487 Z M78.3814573,24.4742563 C76.6462218,24.4742563 75.4154151,22.8600837 75.4154151,20.721305 C75.4154151,18.8650065 76.3233872,16.9279993 78.4218116,16.9279993 C80.520236,16.9279993 81.3474995,19.0264237 81.3474995,20.6809507 C81.3474995,22.8802609 80.0763386,24.4742563 78.3814573,24.4742563 Z M86.444101,25.584 L86.444101,20.3782933 C86.444101,20.0756359 86.4844553,19.7931557 86.5248097,19.5510298 C86.7669356,18.2193374 87.6547305,17.271011 88.9057143,17.271011 C89.1478402,17.271011 89.3294346,17.2911882 89.511029,17.3315425 L89.511029,15.6568384 C89.3496117,15.6164841 89.2083716,15.5963069 89.0066001,15.5963069 C87.8161478,15.5963069 86.7467584,16.4235704 86.3028609,17.7350856 L86.2221523,17.7350856 L86.1616208,15.8182557 L84.6079797,15.8182557 C84.6685112,16.7262277 84.6886883,17.7149085 84.6886883,18.8650065 L84.6886883,25.584 L86.444101,25.584 Z M94.4663904,25.7857716 C96.0200316,25.7857716 97.0894209,25.4629371 97.7149128,25.1804568 L97.4122555,23.9092959 C96.7464092,24.1917761 95.9796773,24.4137249 94.7085163,24.4137249 C92.9329264,24.4137249 91.3994624,23.4250441 91.3591081,21.0239623 L98.2193418,21.0239623 C98.2395189,20.8423679 98.2798732,20.5598877 98.2798732,20.1966989 C98.2798732,18.4009318 97.4324326,15.5963069 94.2444417,15.5963069 C91.3994624,15.5963069 89.6642269,17.9166801 89.6642269,20.8625451 C89.6642269,23.8084101 91.4599939,25.7857716 94.4663904,25.7857716 Z M96.5648148,19.7528014 L91.3792853,19.7528014 C91.5205254,18.5219948 92.3074345,16.8674679 94.1032016,16.8674679 C96.1007402,16.8674679 96.584992,18.6228806 96.5648148,19.7528014 Z" id="AppStore" fill-rule="nonzero"></path>
                                        </g>
                                    </g>
                                </g>
                            </g>
                        </g>
                    </g>
                </g>
            </g>
        </g>
    </g>
</svg>