<?xml version="1.0" encoding="UTF-8"?>
<svg width="72px" height="66px" viewBox="0 0 72 66" version="1.1" xmlns="http://www.w3.org/2000/svg" xmlns:xlink="http://www.w3.org/1999/xlink">
    <!-- Generator: Sketch 55 (78076) - https://sketchapp.com -->
    <title>ico-message</title>
    <desc>Created with Sketch.</desc>
    <g id="Page-1" stroke="none" stroke-width="1" fill="none" fill-rule="evenodd">
        <g id="#-Vay-mua-BDS---04-(Popup)-1" transform="translate(-684.000000, -298.000000)" fill="#EB2E4A">
            <g id="Popup-Warning" transform="translate(248.000000, 245.000000)">
                <g id="Group-4" transform="translate(97.000000, 50.000000)">
                    <g id="Group-2">
                        <g id="Group-5">
                            <g id="ico-message" transform="translate(339.000000, 0.000000)">
                                <g transform="translate(36.318182, 35.804688) scale(-1, 1) translate(-36.318182, -35.804688) translate(-0.181818, 3.304688)">
                                    <g id="Group" transform="translate(5.727273, 9.786222)" fill-rule="nonzero" stroke="#ED415D" stroke-width="0.5">
                                        <path d="M11.1149838,0 L0.339561624,0 C0.152033058,0 0,0.366327273 0,0.818181818 C0,1.27003636 0.152033058,1.63636364 0.339561624,1.63636364 L11.1149838,1.63636364 C11.3025124,1.63636364 11.4545455,1.27003636 11.4545455,0.818181818 C11.4545455,0.366327273 11.3025124,0 11.1149838,0 Z" id="Path"></path>
                                        <path d="M11.1149838,4.90909091 L0.339561624,4.90909091 C0.152033058,4.90909091 0,5.27541818 0,5.72727273 C0,6.17912727 0.152033058,6.54545455 0.339561624,6.54545455 L11.1149838,6.54545455 C11.3025124,6.54545455 11.4545455,6.17912727 11.4545455,5.72727273 C11.4545455,5.27541818 11.3025124,4.90909091 11.1149838,4.90909091 Z" id="Path"></path>
                                        <path d="M11.1149838,9.81818182 L0.339561624,9.81818182 C0.152033058,9.81818182 0,10.1845091 0,10.6363636 C0,11.0882182 0.152033058,11.4545455 0.339561624,11.4545455 L11.1149838,11.4545455 C11.3025124,11.4545455 11.4545455,11.0882182 11.4545455,10.6363636 C11.4545455,10.1845091 11.3025124,9.81818182 11.1149838,9.81818182 Z" id="Path"></path>
                                    </g>
                                    <path d="M66.7350367,14.6953125 L26.901327,14.6953125 C23.5471046,14.6953125 20.8181818,17.4409894 20.8181818,20.8161178 L20.8181818,46.0190128 C20.8181818,49.3940008 23.5469651,52.1398181 26.901327,52.1398181 L54.8210138,52.1398181 C55.119579,52.1398181 55.3969477,52.2749411 55.582139,52.51081 L64.5983636,63.9959843 C64.9536856,64.4486394 65.4721656,64.6953125 66.0150495,64.6953125 C66.2168356,64.6953125 66.4221079,64.661216 66.6234756,64.5907781 C67.3663327,64.331196 67.8463242,63.6522135 67.8463242,62.8609792 L67.8463242,52.0352837 C70.666727,51.5051749 72.8181818,48.9962088 72.8181818,46.0190128 L72.8181818,20.8159775 C72.8181818,17.4409894 70.0893985,14.6953125 66.7350367,14.6953125 Z M70.7264121,46.0190128 C70.7264121,48.2046939 68.9591456,50.0056324 66.7869125,50.0334147 C66.2146044,50.0408513 65.754415,50.5097829 65.754415,51.0857745 L65.754415,62.0731125 L57.2236204,51.2061644 C56.6394589,50.4617953 55.7637046,50.0349581 54.8210138,50.0349581 L26.901327,50.0349581 C24.7005064,50.0349581 22.9099515,48.2333181 22.9099515,46.0188725 L22.9099515,20.8159775 C22.9099515,18.6015318 24.7003669,16.7998918 26.901327,16.7998918 L66.7350367,16.7998918 C68.9358573,16.7998918 70.7264121,18.6015318 70.7264121,20.8159775 L70.7264121,46.0190128 Z" id="Shape" stroke="#ED415D" stroke-width="0.5" fill-rule="nonzero"></path>
                                    <path d="M14.6603731,28.3053297 C14.0177098,28.3969224 13.4421941,28.7291973 13.0398092,29.2407571 L6.58549009,36.628922 L6.58549009,29.2225141 C6.58549009,28.7060475 6.17208093,28.2855769 5.65795028,28.2789088 C4.02548521,28.2580237 2.69731434,26.9071583 2.69731434,25.2675497 L2.69731434,5.59514035 C2.69731434,3.93401756 4.04302378,2.58252312 5.69703623,2.58252312 L36.8484183,2.58252312 C38.5024308,2.58252312 39.8481402,3.93401756 39.8481402,5.59514035 L39.8481402,9.2351922 C39.8481402,9.75631396 40.2688153,10.1787975 40.7877065,10.1787975 C41.3065976,10.1787975 41.7272727,9.75631396 41.7272727,9.2351922 L41.7272727,5.59514035 C41.7272727,2.89340962 39.5385844,0.6953125 36.8484183,0.6953125 L5.69703623,0.6953125 C3.00687011,0.6953125 0.818181818,2.89340962 0.818181818,5.59514035 L0.818181818,25.2675497 C0.818181818,27.6161204 2.49324055,29.6003337 4.70648284,30.0640842 L4.70648284,37.5956771 C4.70648284,38.2660143 5.11387877,38.8413619 5.74451565,39.0612849 C5.91551671,39.1209207 6.08964965,39.149858 6.26102654,39.149858 C6.72166456,39.149858 7.16200795,38.940755 7.46354608,38.5573996 L14.5145524,30.4105761 C14.6162761,30.2811135 14.7619715,30.1970697 14.9245791,30.1737941 C15.438334,30.1005703 15.795745,29.6228544 15.7227094,29.106891 C15.649799,28.5909276 15.1748796,28.2317285 14.6603731,28.3053297 Z" id="Path" stroke="#ED415D" stroke-width="0.5" fill-rule="nonzero"></path>
                                    <path d="M51.7207792,28.1953125 C51.0194805,28.1953125 47.191135,28.460464 40.2357425,28.990767 C39.477974,28.990767 38.8636364,29.5504337 38.8636364,30.240767 C38.8636364,30.9311004 39.477974,31.490767 40.2357425,31.490767 L51.7207792,32.2862216 C52.7727273,32.2862216 53.5909091,31.2634943 53.5909091,30.240767 C53.5909091,29.2180398 52.7727273,28.1953125 51.7207792,28.1953125 Z" id="Path" stroke="#ED415D" stroke-width="0.5" fill-rule="nonzero" transform="translate(46.227273, 30.240767) rotate(-90.000000) translate(-46.227273, -30.240767) "></path>
                                    <circle id="Oval" cx="46.2272727" cy="42.1363636" r="2.04545455"></circle>
                                </g>
                            </g>
                        </g>
                    </g>
                </g>
            </g>
        </g>
    </g>
</svg>