<?xml version="1.0" encoding="UTF-8"?>
<svg width="118px" height="42px" viewBox="0 0 118 42" version="1.1" xmlns="http://www.w3.org/2000/svg" xmlns:xlink="http://www.w3.org/1999/xlink">
    <!-- Generator: Sketch 61.2 (89653) - https://sketch.com -->
    <title>Group 27</title>
    <desc>Created with Sketch.</desc>
    <g id="02.-Header---Footer---Banner" stroke="none" stroke-width="1" fill="none" fill-rule="evenodd">
        <g id="#-Footer" transform="translate(-243.000000, -373.000000)">
            <g id="#-FOOTER-Mb-1" transform="translate(0.000000, 165.000000)">
                <g id="---Download-app" transform="translate(1.000000, 194.000000)">
                    <g id="Group-33" transform="translate(15.000000, 15.000000)">
                        <g id="Group-32" transform="translate(102.000000, 0.000000)">
                            <g id="Group-27" transform="translate(126.000000, 0.000000)">
                                <rect id="Rectangle-4" stroke="#141ED2" stroke-width="0.571209408" fill="#FFFFFF" x="0" y="0" width="116" height="40" rx="19.0872818"></rect>
                                <g id="Group-25" transform="translate(10.000000, 7.000000)" fill="#141ED2">
                                    <g id="Group-24" transform="translate(20.166128, 0.000000)">
                                        <path d="M0,2.60837059 C0,1.02076944 1.18327548,0 2.65514319,0 C3.64128507,0 4.28576031,0.468580881 4.68808345,1.04344271 L3.96731372,1.45959166 C3.6943595,1.08123149 3.21621575,0.786478999 2.65514319,0.786478999 C1.65431106,0.786478999 0.910321268,1.54272697 0.910321268,2.60837059 C0.910321268,3.65937105 1.65383718,4.43026218 2.65514319,4.43026218 C3.17119725,4.43026218 3.62612095,4.19597174 3.8535828,3.97679681 L3.8535828,3.19787557 L2.3366966,3.19787557 L2.3366966,2.41942669 L4.73357582,2.41942669 L4.73357582,4.30178033 C4.24074182,4.85396889 3.52755415,5.22429894 2.65514319,5.22429894 C1.18327548,5.22429894 0,4.18888634 0,2.60837059 L0,2.60837059 Z" id="Shape"></path>
                                        <polygon id="Shape" points="5.97514909 5.04338515 5.97514909 0 9.44109899 0 9.44109899 0.778921243 6.8622503 0.778921243 6.8622503 2.07932766 9.38849844 2.07932766 9.38849844 2.8582489 6.8622503 2.8582489 6.8622503 4.26493627 9.44109899 4.26493627 9.44109899 5.04338515 5.97514909 5.04338515"></polygon>
                                        <polygon id="Shape" points="11.9885612 5.04291279 11.9885612 0.778921243 10.4565109 0.778921243 10.4565109 0 14.4081866 0 14.4081866 0.778921243 12.8766102 0.778921243 12.8766102 5.04291279"></polygon>
                                        <polygon id="Shape" points="17.1785536 5.04338515 17.1785536 0 18.0656548 0 18.0656548 5.04338515"></polygon>
                                        <polygon id="Shape" points="20.2043912 5.04291279 20.2043912 0.778921243 18.6723409 0.778921243 18.6723409 0 22.6240166 0 22.6240166 0.778921243 21.0919663 0.778921243 21.0919663 5.04291279"></polygon>
                                        <path d="M26.1412773,2.60837059 C26.1412773,1.1034324 27.2108218,0 28.7281819,0 C30.2370122,0 31.3146127,1.10390476 31.3146127,2.60837059 C31.3146127,4.11283642 30.2370122,5.21674118 28.7281819,5.21674118 C27.210348,5.21674118 26.1412773,4.11283642 26.1412773,2.60837059 L26.1412773,2.60837059 Z M30.4042914,2.60837059 C30.4042914,1.56492788 29.7441782,0.786478999 28.7281819,0.786478999 C27.7041297,0.786478999 27.0515985,1.56492788 27.0515985,2.60837059 C27.0515985,3.64378318 27.7041297,4.43026218 28.7281819,4.43026218 C29.7441782,4.43026218 30.4042914,3.64378318 30.4042914,2.60837059 L30.4042914,2.60837059 Z" id="Shape"></path>
                                        <polygon id="Shape" points="35.6430328 5.04338515 33.0035276 1.43691839 33.0035276 5.04338515 32.1164264 5.04338515 32.1164264 0 33.0267476 0 35.6131784 3.49357278 35.6131784 0 36.5007535 0 36.5007535 5.04338515"></polygon>
                                    </g>
                                    <g id="Group-22" transform="translate(0.000000, 8.962724)">
                                        <g id="Group-21" transform="translate(20.166128, 0.746894)">
                                            <path d="M45.441497,10.8379071 L44.6766565,11.5568387 C44.5003736,11.6536724 44.3245645,11.766094 44.1492293,11.8459228 C43.6180112,12.0863539 43.0777893,12.146816 42.59775,12.146816 C42.0869086,12.146816 41.2860533,12.1142232 40.4695601,11.5251905 C39.3346202,10.7278473 38.8384691,9.35847633 38.8384691,8.16482322 C38.8384691,5.69343696 40.8567191,4.48136182 42.5025003,4.48136182 C43.0782631,4.48136182 43.6691901,4.62495918 44.1497032,4.92774179 C44.948663,5.45395056 45.1552741,6.13839985 45.2699528,6.50542339 L41.510198,8.01933641 L40.2790608,8.11475309 C40.6775929,10.1407041 42.0527893,11.3192417 43.5725188,11.3192417 C44.3316727,11.3192417 44.8951147,11.0726699 45.4121165,10.8175956 C45.4116426,10.818068 45.5154221,10.764219 45.441497,10.8379071 L45.441497,10.8379071 Z M43.1735128,6.80726127 C43.4791647,6.69672909 43.6374402,6.60084006 43.6374402,6.37930333 C43.6374402,5.74256238 42.9147749,5.00757059 42.0523154,5.00757059 C41.4130529,5.00757059 40.2141394,5.50354834 40.2141394,7.22529966 C40.2141394,7.49407236 40.2458893,7.78032238 40.262475,8.06657239 L43.1735128,6.80726127 L43.1735128,6.80726127 Z" id="Shape"></path>
                                            <path d="M37.8771399,10.0584287 C37.8771399,10.6781647 37.9880276,10.7745261 38.5135592,10.8227068 C38.7874612,10.8548273 39.0604154,10.8694704 39.3310002,10.9011185 L38.7395994,11.2520818 L35.9214419,11.2520818 C36.2910674,10.7740537 36.3545672,10.7268178 36.3545672,10.4079749 L36.3545672,10.052288 L36.3484068,0.575334187 L35.1040009,0.575334187 L36.3014928,0 L38.5884321,0 C38.0927548,0.285777654 37.9449046,0.460550765 37.880931,1.01793528 L37.8771399,10.0584287 L37.8771399,10.0584287 Z" id="Shape"></path>
                                            <path d="M33.5988299,5.05811308 C33.9656121,5.35900625 34.7323481,5.99716429 34.7323481,7.20876707 C34.7323481,8.38919411 34.0646528,8.9456339 33.3912709,9.47231503 C33.1846597,9.67968097 32.9434554,9.90452421 32.9434554,10.252181 C32.9434554,10.6045614 33.1851336,10.7958671 33.3590472,10.9385197 L33.9367055,11.3830103 C34.6389939,11.9739323 35.2792043,12.515729 35.2792043,13.6163272 C35.2792043,15.1160694 33.8234484,16.6276207 31.0725817,16.6276207 C28.7553141,16.6276207 27.6350645,15.5279671 27.6350645,14.3484848 C27.6350645,13.7740954 27.9212874,12.9611642 28.8676234,12.4047244 C29.858978,11.8005763 31.2024245,11.7198028 31.9212987,11.6725668 C31.6966802,11.3834826 31.4403117,11.0807 31.4403117,10.5866117 C31.4403117,10.3164219 31.5218189,10.1553472 31.6004828,9.96545862 C31.4256215,9.98199121 31.2493385,9.99899617 31.0891675,9.99899617 C29.3931551,9.99899617 28.4340243,8.73779561 28.4340243,7.49454472 C28.4340243,6.76144238 28.7695305,5.94851123 29.4585504,5.35853389 C30.3702933,4.61031603 31.4573713,4.48136182 32.3212525,4.48136182 L35.616606,4.48136182 L34.5920799,5.05811308 L33.5988299,5.05811308 L33.5988299,5.05811308 Z M32.4653116,12.1345346 C32.3345211,12.1175297 32.2558572,12.1175297 32.0975817,12.1175297 C31.9525747,12.1175297 31.0886936,12.1487054 30.4195767,12.372604 C30.0655892,12.5015582 29.0424847,12.8827525 29.0424847,14.0154712 C29.0424847,15.1453557 30.1470963,15.959704 31.8563773,15.959704 C33.3912709,15.959704 34.2068164,15.2261293 34.2068164,14.238425 C34.2063425,13.4254939 33.6789154,12.9965912 32.4653116,12.1345346 L32.4653116,12.1345346 Z M32.925448,9.10576386 C33.2950735,8.73826797 33.3272973,8.23000887 33.3272973,7.94092469 C33.3272973,6.79450756 32.6415946,5.00898767 31.3123644,5.00898767 C30.8977204,5.00898767 30.4484833,5.21682596 30.1935364,5.53708588 C29.9234255,5.86915479 29.8423922,6.29994689 29.8423922,6.7142064 C29.8423922,7.78173946 30.4664907,9.55214383 31.8407393,9.55214383 C32.241167,9.55214383 32.6723967,9.35800397 32.925448,9.10576386 L32.925448,9.10576386 Z" id="Shape"></path>
                                            <path d="M23.321153,12.1142232 C20.7792668,12.1142232 19.4192345,10.1407041 19.4192345,8.35471184 C19.4192345,6.26735407 21.1289894,4.48136182 23.5609357,4.48136182 C25.9118487,4.48136182 27.3841902,6.31600712 27.3841902,8.24229022 C27.3841902,10.1232268 25.9289083,12.1142232 23.321153,12.1142232 L23.321153,12.1142232 Z M25.3209217,10.824681 C25.7076069,10.3145325 25.8014349,9.67779153 25.8014349,9.05711081 C25.8014349,7.6532576 25.1304224,4.97592249 23.1472394,4.97592249 C22.6198123,4.97592249 22.0885941,5.18139898 21.7057,5.51724677 C21.0811277,6.07510365 20.9697661,6.77561317 20.9697661,7.46336898 C20.9697661,9.03821642 21.7502446,11.6357227 23.6884091,11.6357227 C24.3144031,11.6357227 24.9527179,11.3338848 25.3209217,10.824681 L25.3209217,10.824681 Z" id="Shape"></path>
                                            <path d="M15.1039013,12.1142232 C12.5615413,12.1142232 11.2034045,10.1407041 11.2034045,8.35471184 C11.2034045,6.26735407 12.9136333,4.48136182 15.3446318,4.48136182 C17.6941231,4.48136182 19.1650431,6.31600712 19.1650431,8.24229022 C19.165517,10.1232268 17.7121305,12.1142232 15.1039013,12.1142232 L15.1039013,12.1142232 Z M17.104144,10.824681 C17.4879858,10.3145325 17.5837094,9.67779153 17.5837094,9.05711081 C17.5837094,7.6532576 16.9108014,4.97592249 14.9295139,4.97592249 C14.4001913,4.97592249 13.8746596,5.18139898 13.4908177,5.51724677 C12.8652977,6.07510365 12.75441,6.77561317 12.75441,7.46336898 C12.75441,9.03821642 13.5382056,11.6357227 15.473053,11.6357227 C16.0976253,11.6357227 16.7349923,11.3338848 17.104144,10.824681 L17.104144,10.824681 Z" id="Shape"></path>
                                            <path d="M10.3291373,10.9980451 L8.18530935,11.4869375 C7.31668942,11.6234495 6.53668484,11.7439012 5.710714,11.7439012 C1.57517329,11.7439012 0,8.7094621 0,6.33538195 C0,3.43509303 2.23244326,0.746893636 6.05522393,0.746893636 C6.86413512,0.746893636 7.64271807,0.865455936 8.35164083,1.05770636 C9.47520758,1.37277032 10.0002653,1.76010532 10.3291373,1.98778272 L9.08378365,3.16679268 L8.55872588,3.2839379 L8.93309017,2.68876461 C8.42603981,2.19514866 7.49392011,1.28396668 5.72493037,1.28396668 C3.35980104,1.28396668 1.57517329,3.07609961 1.57517329,5.69250032 C1.57517329,8.50256852 3.61285234,11.1458937 6.87977312,11.1458937 C7.83985167,11.1458937 8.33410731,10.9536433 8.78287058,10.7741466 L8.78287058,8.36511183 L6.5196252,8.48650829 L7.71948644,7.84409902 L10.8958964,7.84409902 L10.5077896,8.21679087 C10.4025885,8.3055945 10.388846,8.33582553 10.3594655,8.45486019 C10.3438275,8.5908998 10.3296111,9.02358134 10.3296111,9.17568118 L10.3296111,10.9980451 L10.3291373,10.9980451 Z" id="Shape"></path>
                                            <path d="M50.1038912,10.9394644 L50.1038912,14.9998689 L49.29498,14.9998689 L49.29498,4.66841628 L50.1038912,4.66841628 L50.1038912,5.84459208 C50.6303706,5.08456523 51.5932924,4.48136182 52.7121204,4.48136182 C54.7175757,4.48136182 56.0690781,5.99810901 56.0690781,8.39911366 C56.0690781,10.7840581 54.7175757,12.3324534 52.7121204,12.3324534 C51.6563183,12.3329257 50.7104561,11.7901844 50.1038912,10.9394644 L50.1038912,10.9394644 Z M55.1999843,8.39958602 C55.1999843,6.58997578 54.2536483,5.20974057 52.5756433,5.20974057 C51.5335837,5.20974057 50.5370165,6.02645059 50.1038912,6.73782439 L50.1038912,10.0448151 C50.5370165,10.7580783 51.5335837,11.6040746 52.5756433,11.6040746 C54.2536483,11.6040746 55.1999843,10.2120304 55.1999843,8.39958602 L55.1999843,8.39958602 Z" id="Shape"></path>
                                            <polygon id="Shape" points="57.51081 11.8247676 57.51081 1.49378727 58.3192473 1.49378727 58.3192473 11.8247676 57.51081 11.8247676"></polygon>
                                            <path d="M65.211523,12.1265045 C65.1575008,11.867179 65.1167472,11.6390292 65.0868929,11.4477235 C65.0617773,11.2573626 65.0480348,11.0627503 65.0480348,10.8648316 C64.7703418,11.2705886 64.3774962,11.6083259 63.8756585,11.8747368 C63.3733469,12.1420924 62.8966248,12.2738808 62.2417243,12.2738808 C61.4536637,12.2738808 60.84236,12.0806856 60.4054437,11.688627 C59.9704229,11.2970408 59.7514909,10.7665808 59.7514909,10.0953576 C59.7514909,9.42507906 60.0685159,8.88092062 60.7006702,8.46477167 C61.3328246,8.04673328 62.1502656,7.83936735 63.1610492,7.83936735 L65.0475609,7.83936735 L65.0475609,6.90976334 C65.0475609,6.37457973 64.8641698,5.95417955 64.4992831,5.64856278 C64.1325009,5.34341838 63.6178684,5.18848438 62.9501731,5.18848438 C62.3402911,5.18848438 61.8455615,5.32971995 61.4688279,5.60463333 C61.0954113,5.88521502 60.9077553,6.23287181 60.9077553,6.65185491 L60.079889,6.65185491 L60.0628293,6.61170433 C60.0325011,6.04723442 60.2921867,5.55125667 60.8433078,5.12377109 C61.3915856,4.69628551 62.1109337,4.48136182 62.9956655,4.48136182 C63.8770802,4.48136182 64.5907417,4.69297899 65.1290681,5.11526862 C65.6664467,5.533307 65.9360838,6.13745513 65.9360838,6.92724065 L65.9360838,10.6168427 C65.9360838,10.8818366 65.9484046,11.1378555 65.98205,11.3872615 C66.0161693,11.6371398 66.0706654,11.8865458 66.1431688,12.1274492 L65.211523,12.1274492 L65.211523,12.1265045 Z M62.3412388,11.538889 C63.0283631,11.538889 63.5221449,11.3858444 64.0272998,11.0830618 C64.5286636,10.7816963 64.8693825,10.3891653 65.0485087,9.91397141 L65.0485087,8.47799774 L63.1529933,8.47799774 C62.4289064,8.47799774 61.8294497,8.63765534 61.3579402,8.96027706 C60.885483,9.28148169 60.6457003,9.67023377 60.6457003,10.1222821 C60.6457003,10.5483506 60.7973415,10.8898667 61.0992024,11.1482475 C61.4010632,11.4094624 61.8142855,11.538889 62.3412388,11.538889 L62.3412388,11.538889 Z" id="Shape"></path>
                                            <path d="M68.2862414,14.1444254 C68.4587333,14.2209477 68.7539598,14.268656 68.9416158,14.268656 C69.4363453,14.268656 69.7808553,14.0669584 70.0902982,13.3541675 L70.6802773,12.022113 L67.4934421,4.48136182 L68.3957074,4.48136182 L71.1290406,11.0159867 L73.8358366,4.48136182 L74.7508966,4.48136182 L70.8646162,13.6040458 C70.4613453,14.5440418 69.8268215,14.9960901 68.9553583,14.9960901 C68.6937772,14.9960901 68.3492673,14.9493264 68.146921,14.8879197 L68.2862414,14.1444254 L68.2862414,14.1444254 Z" id="Path"></path>
                                        </g>
                                        <path d="M0.481555911,16.4055746 C0.189862529,16.3270043 0,16.0374046 0,15.5892622 L0,0.796741273 C0,0.381693135 0.160759386,0.101773407 0.415594075,1.27897692e-13 L0.415594075,1.27897692e-13 L7.68494335,8.24366174 L0.481555911,16.4055746 L0.481555911,16.4055746 Z M1.48223408,16.0915768 L10.2322365,11.1323691 L8.10104901,8.71553813 L1.48223408,16.0915768 L1.48223408,16.0915768 Z M10.2924898,5.28913975 L1.66442809,0.397907437 L8.11366533,7.75789148 L10.2924898,5.28913975 L10.2924898,5.28913975 Z M10.8778967,5.6210059 L14.2578962,7.53712139 C14.8978587,7.89991491 14.9037111,8.4847341 14.2578962,8.85076031 L10.7923861,10.8148951 L8.53199197,8.23529327 L10.8778967,5.6210059 L10.8778967,5.6210059 Z" id="google-play"></path>
                                    </g>
                                </g>
                            </g>
                        </g>
                    </g>
                </g>
            </g>
        </g>
    </g>
</svg>