<?xml version="1.0" encoding="UTF-8"?>
<svg width="1920px" height="300px" viewBox="0 0 1920 300" version="1.1" xmlns="http://www.w3.org/2000/svg" xmlns:xlink="http://www.w3.org/1999/xlink">
    <!-- Generator: Sketch 62 (91390) - https://sketch.com -->
    <title>#Banner[PC] - Post Detail</title>
    <desc>Created with Sketch.</desc>
    <defs>
        <rect id="path-1" x="0" y="2.27373675e-13" width="1440" height="300"></rect>
        <filter x="-1.8%" y="-4.5%" width="103.5%" height="117.0%" filterUnits="objectBoundingBox" id="filter-3">
            <feOffset dx="0" dy="12" in="SourceAlpha" result="shadowOffsetOuter1"></feOffset>
            <feGaussianBlur stdDeviation="6.5" in="shadowOffsetOuter1" result="shadowBlurOuter1"></feGaussianBlur>
            <feColorMatrix values="0 0 0 0 0   0 0 0 0 0   0 0 0 0 0  0 0 0 0.0272305254 0" type="matrix" in="shadowBlurOuter1"></feColorMatrix>
        </filter>
        <polygon id="path-4" points="0.20007314 0.636299273 271.646839 0.636299273 271.646839 158.839785 0.20007314 158.839785"></polygon>
        <polygon id="path-6" points="0.000219727891 0.275674334 275.981747 0.275674334 275.981747 141.939682 0.000219727891 141.939682"></polygon>
    </defs>
    <g id="#Banner[PC]---Post-Detail" stroke="none" stroke-width="1" fill="none" fill-rule="evenodd">
        <rect fill="#FFFFFF" x="0" y="0" width="1920" height="300"></rect>
        <g id="---BANNER" transform="translate(255.000000, 0.000000)">
            <mask id="mask-2" fill="white">
                <use xlink:href="#path-1"></use>
            </mask>
            <g id="Mask">
                <use fill="black" fill-opacity="1" filter="url(#filter-3)" xlink:href="#path-1"></use>
                <use fill="#FFFFFF" fill-rule="evenodd" xlink:href="#path-1"></use>
            </g>
            <g id="Group" mask="url(#mask-2)">
                <g transform="translate(900.000000, -183.000000)">
                    <path d="M281.946033,54.5779416 C261.440529,39.6103883 234.713089,39.5176491 214.448397,52.2032547 C192.052791,66.229364 169.886797,80.6348612 147.611597,94.8492594 C124.812769,109.398081 102.013941,123.949713 79.2151131,138.495724 C71.1226772,143.658209 63.0274411,148.823504 54.9350052,153.9888 C46.260138,159.527862 37.5376681,164.206979 31.7077541,173.132429 C26.6478815,180.871942 24.3265565,190.235796 25.1694019,199.459136 C26.2418597,211.211729 32.4077918,222.115616 41.9199042,229.059819 C54.3497737,238.131404 69.0505656,238.533274 82.9421138,233.168449 C99.6254125,226.727286 116.28911,220.229918 132.938807,213.696016 C166.2354,200.633833 199.46759,187.400223 232.635377,174.000806 C242.735521,169.939951 252.762861,165.62336 262.893807,161.672106 C275.707297,156.678238 287.000305,150.661428 295.266351,139.251689 C314.887007,112.177448 308.922686,74.2695762 281.946033,54.5779416" id="Fill-4" fill="#B5A6FA" transform="translate(165.911711, 139.830661) rotate(-20.000000) translate(-165.911711, -139.830661) "></path>
                    <g id="Group-9" stroke-width="1" fill="none" transform="translate(0.000000, 333.000000)">
                        <g id="Group-3" transform="translate(118.000000, 0.000000)">
                            <mask id="mask-5" fill="white">
                                <use xlink:href="#path-4"></use>
                            </mask>
                            <g id="Clip-2"></g>
                            <path d="M260.270219,64.6310266 C251.618865,52.7627065 239.367897,45.0668768 226.094735,41.8735774 C225.677961,41.7642927 225.258994,41.6790506 224.842219,41.5785086 C224.425445,41.4692239 224.006477,41.3861675 223.585316,41.2856256 C223.170735,41.1741552 222.751768,41.0910988 222.3328,40.9905569 C221.918219,40.8812722 221.497058,40.7960301 221.080284,40.6954881 C220.661316,40.5862034 220.242348,40.503147 219.827768,40.4026051 C219.410994,40.2933204 218.992026,40.2080783 218.573058,40.1097221 C218.158477,39.9982517 217.732929,39.9151953 217.313961,39.8124676 C216.901574,39.7031829 216.482606,39.6201265 216.068026,39.5195846 C215.649058,39.4102999 215.23009,39.3250578 214.808929,39.2245159 C214.394348,39.1152312 213.975381,39.0321748 213.554219,38.9316328 C213.141832,38.8223481 212.718477,38.737106 212.303897,38.6365641 C211.884929,38.5272794 211.465961,38.444223 211.051381,38.3436811 C210.632413,38.2343963 210.213445,38.1491543 209.792284,38.0486123 C209.379897,37.9393276 208.956542,37.8540855 208.539768,37.7557293 C208.127381,37.6464446 207.706219,37.5612025 207.291639,37.4606606 C206.872671,37.3513758 206.45151,37.2661338 206.032542,37.1655918 C205.615768,37.0563071 205.198994,36.9732507 204.777832,36.8727088 C204.365445,36.7634241 203.94209,36.678182 203.525316,36.5776401 C203.108542,36.4683553 202.689574,36.3831133 202.2728,36.284757 C201.853832,36.1732866 201.437058,36.0902302 201.015897,35.9896883 C200.60351,35.8804036 200.180155,35.7951615 199.763381,35.6946195 C199.3488,35.5853348 198.925445,35.5022784 198.510865,35.4017365 C198.091897,35.2924518 197.672929,35.2072097 197.253961,35.1066678 C196.839381,34.9973831 196.420413,34.9143267 196.001445,34.8137847 C195.586865,34.7023143 195.16351,34.6192579 194.746735,34.518716 C194.329961,34.4094313 193.910994,34.3241892 193.496413,34.225833 C193.077445,34.1143626 192.658477,34.0313062 192.23951,33.9307642 C191.824929,33.8214795 191.403768,33.7362374 190.986994,33.6356955 C190.572413,33.5264108 190.151252,33.4433544 189.734477,33.3428125 C189.31551,33.2335277 188.896542,33.1482857 188.477574,33.0477437 C188.062994,32.938459 187.644026,32.8532169 187.225058,32.7548607 C186.810477,32.6433903 186.387123,32.5603339 185.970348,32.459792 C185.553574,32.3505072 185.134606,32.2652652 184.717832,32.1647232 C184.301058,32.0554385 183.884284,31.9723821 183.465316,31.8718402 C183.048542,31.7625555 182.627381,31.6773134 182.206219,31.5767715 C181.793832,31.4674867 181.374865,31.3844304 180.960284,31.2838884 C180.541316,31.1746037 180.120155,31.0893616 179.703381,30.9888197 C179.284413,30.879535 178.867639,30.7942929 178.446477,30.693751 C178.03409,30.5844662 177.610735,30.5014099 177.193961,30.4008679 C176.777187,30.2915832 176.356026,30.2063411 175.941445,30.1057992 C175.522477,29.9965145 175.105703,29.9112724 174.684542,29.8107305 C174.269961,29.7014457 173.850994,29.6183894 173.429832,29.5178474 C173.017445,29.4085627 172.59409,29.3233206 172.17951,29.2227787 C171.762735,29.113494 171.341574,29.0304376 170.9248,28.9298956 C170.508026,28.8206109 170.091252,28.7353688 169.672284,28.6348269 C169.257703,28.5255422 168.834348,28.4403001 168.415381,28.3419439 C168.002994,28.2326592 167.579639,28.1474171 167.165058,28.0468751 C166.74609,27.9375904 166.329316,27.8523483 165.908155,27.7518064 C165.491381,27.6425217 165.074606,27.5572796 164.653445,27.4589234 C164.238865,27.3496387 163.817703,27.2643966 163.403123,27.1638546 C162.984155,27.0545699 162.565187,26.9715135 162.148413,26.8709716 C161.731639,26.7595012 161.312671,26.6764448 160.893703,26.5759029 C160.476929,26.4666182 160.055768,26.3813761 159.6368,26.2808341 C159.224413,26.1715494 158.803252,26.088493 158.386477,25.9879511 C157.969703,25.8786664 157.548542,25.7934243 157.129574,25.6928824 C156.717187,25.5835976 156.298219,25.5005413 155.879252,25.3999993 C155.464671,25.2907146 155.041316,25.2054725 154.622348,25.1049306 C154.207768,24.9956459 153.786606,24.9104038 153.372026,24.8120476 C152.953058,24.7005771 152.536284,24.6175208 152.115123,24.5169788 C151.698348,24.4076941 151.279381,24.322452 150.862606,24.2219101 C150.448026,24.1126254 150.024671,24.029569 149.607897,23.9290271 C149.191123,23.8197423 148.772155,23.7345003 148.355381,23.6339583 C147.9408,23.5246736 147.517445,23.4394315 147.100671,23.3410753 C146.683897,23.2296049 146.262735,23.1465485 145.845961,23.0460065 C145.429187,22.9367218 145.012413,22.8514798 144.591252,22.7531235 C144.176671,22.6416531 143.75551,22.556411 143.336542,22.4580548 C142.921961,22.3487701 142.505187,22.263528 142.090606,22.1651717 C141.673832,22.0537013 141.248284,21.9684592 140.829316,21.870103 C140.414735,21.7586326 139.993574,21.6755762 139.578994,21.5750343 C139.162219,21.4657496 138.741058,21.3805075 138.32209,21.2821512 C137.90751,21.1706808 137.486348,21.0876244 137.069574,20.9870825 C136.654994,20.8777978 136.231639,20.7925557 135.814865,20.6920138 C135.39809,20.5827291 134.979123,20.497487 134.560155,20.3991307 C134.145574,20.289846 133.726606,20.2046039 133.305445,20.104062 C132.890865,19.9947773 132.471897,19.9095352 132.055123,19.811179 C131.638348,19.6997086 131.217187,19.6166522 130.800413,19.5161102 C130.383639,19.4068255 129.964671,19.3215834 129.545703,19.2232272 C129.131123,19.1117568 128.712155,19.0287004 128.295381,18.9281585 C127.8808,18.8188737 127.457445,18.7336317 127.038477,18.6330897 C126.621703,18.523805 126.200542,18.4385629 125.783768,18.3402067 C125.369187,18.2287363 124.950219,18.1456799 124.529058,18.045138 C124.114477,17.9358532 123.693316,17.8506112 123.274348,17.7522549 C122.859768,17.6407845 122.442994,17.5577281 122.024026,17.4571862 C121.605058,17.3479015 121.18609,17.2626594 120.769316,17.1621175 C120.352542,17.0528327 119.933574,16.9675907 119.5168,16.8692344 C119.100026,16.7599497 118.678865,16.6747076 118.259897,16.5741657 C117.845316,16.464881 117.426348,16.3796389 117.009574,16.2812826 C116.594994,16.1698122 116.169445,16.0845702 115.750477,15.9862139 C115.335897,15.8769292 114.916929,15.7916871 114.502348,15.6933309 C114.085574,15.5818605 113.666606,15.4966184 113.247639,15.3982621 C112.828671,15.2889774 112.409703,15.2037353 111.990735,15.1031934 C111.576155,14.9939087 111.154994,14.9086666 110.738219,14.8103104 C110.323639,14.69884 109.900284,14.6157836 109.48351,14.5152416 C109.066735,14.4059569 108.647768,14.3207148 108.230994,14.2223586 C107.816413,14.1108882 107.395252,14.0278318 106.978477,13.9272899 C106.561703,13.8180051 106.140542,13.7327631 105.721574,13.6322211 C105.306994,13.5229364 104.888026,13.4376943 104.469058,13.3393381 C104.052284,13.2278677 103.633316,13.1426256 103.214348,13.0442694 C102.797574,12.9349846 102.3808,12.8497426 101.959639,12.7492006 C101.545058,12.6399159 101.123897,12.5546738 100.704929,12.4563176 C100.290348,12.3470329 99.8691871,12.2617908 99.4546065,12.1612489 C99.0378323,12.0519641 98.616671,11.9667221 98.1998968,11.8683658 C97.7831226,11.7568954 97.3641548,11.673839 96.9451871,11.5732971 C96.5306065,11.4640124 96.1094452,11.3787703 95.6904774,11.280414 C95.2737032,11.1689436 94.8547355,11.0837016 94.4357677,10.9853453 C94.0211871,10.8760606 93.6044129,10.7908185 93.1832516,10.6902766 C92.7664774,10.5809919 92.3475097,10.4957498 91.9285419,10.3973935 C91.5139613,10.2881088 91.0949935,10.2028668 90.6804129,10.1045105 C90.2636387,9.9930401 89.8402839,9.90779802 89.4213161,9.80725608 C89.0045419,9.69797137 88.5855742,9.61272929 88.1688,9.51437304 C87.7542194,9.40508833 87.3308645,9.31984625 86.9140903,9.21930431 C86.4973161,9.11001959 86.0783484,9.02477752 85.6593806,8.92642127 C85.2448,8.81713656 84.8258323,8.72970878 84.404671,8.63135254 C83.9900903,8.52206782 83.568929,8.43682575 83.1521548,8.3384695 C82.7375742,8.22918479 82.3208,8.14394271 81.9040258,8.04340077 C81.4828645,7.93411605 81.0617032,7.84887397 80.6427355,7.74833204 C80.2281548,7.63904732 79.8091871,7.55380524 79.3946065,7.455449 C78.9778323,7.34616428 78.5544774,7.2609222 78.1355097,7.16038027 C77.720929,7.05109555 77.3019613,6.96585347 76.8829935,6.86749723 C76.4684129,6.75602682 76.0494452,6.67078474 75.6282839,6.57242849 C75.2137032,6.46314378 74.7925419,6.3779017 74.3735742,6.27735976 C73.9589935,6.16807505 73.5422194,6.08283297 73.1210581,5.98447672 C72.7042839,5.87519201 72.2853161,5.78994993 71.8663484,5.68940799 C71.4517677,5.58012328 71.0328,5.4948812 70.6160258,5.39652495 C70.1992516,5.28724024 69.7780903,5.19981247 69.3591226,5.10145622 C68.9423484,4.99217151 68.5233806,4.90692943 68.1066065,4.80857318 C67.6920258,4.69710277 67.268671,4.61186069 66.8518968,4.51350445 C66.4373161,4.40421973 66.0183484,4.31897766 65.5993806,4.22062141 C65.1826065,4.109151 64.7636387,4.02390892 64.3402839,3.92555268 C63.9257032,3.81408227 63.508929,3.72884019 63.0921548,3.63266964 C62.6753806,3.52119923 62.2564129,3.43595715 61.8352516,3.33760091 C61.420671,3.2261305 61.0017032,3.14088842 60.5827355,3.04253218 C60.1659613,2.93324746 59.7469935,2.84800538 59.3302194,2.74964914 C58.9156387,2.63817873 58.4922839,2.55293665 58.0733161,2.45458041 C57.6587355,2.34311 57.2375742,2.25786792 56.8208,2.15951167 C44.1728,-1.19771479 30.1735742,0.928965774 18.7561548,9.19307598 C-1.35429677,23.7519858 -5.8115871,51.7966296 8.79963871,71.8328894 C13.6342194,78.4621002 19.9626065,83.3449413 26.9775742,86.4355131 C27.3636387,86.6191114 27.7672516,86.7568101 28.1620903,86.92948 C28.5459613,87.1130783 28.9495742,87.2507771 29.3400258,87.4234469 C29.7282839,87.6070452 30.1318968,87.744744 30.5245419,87.9174138 C30.9106065,88.1010121 31.3142194,88.2365252 31.7024774,88.409195 C32.0907355,88.5927934 32.4921548,88.7304921 32.8826065,88.903162 C33.2708645,89.0867603 33.6744774,89.224459 34.0671226,89.3971289 C34.4466065,89.5785415 34.8436387,89.7140545 35.2275097,89.882353 C35.4534452,89.8298963 35.6793806,89.7774397 35.9075097,89.7359115 C36.3198968,89.6484837 36.7278968,89.539199 37.1424774,89.4626997 C37.552671,89.3752719 37.9584774,89.2681729 38.3708645,89.1894879 C38.7832516,89.1020601 39.1890581,88.9949611 39.6014452,88.9184618 C40.0138323,88.8288483 40.4218323,88.7217493 40.8364129,88.64525 C41.2466065,88.5556366 41.6546065,88.4485375 42.0691871,88.3720382 C42.4793806,88.2846105 42.8851871,88.1775114 43.2975742,88.0988264 C43.7099613,88.0113987 44.1179613,87.9042997 44.5325419,87.8278003 C44.9427355,87.7381869 45.3485419,87.6310879 45.760929,87.5545886 C46.1733161,87.4671608 46.5813161,87.3578761 46.9937032,87.2813768 C47.4060903,87.193949 47.8140903,87.08685 48.2264774,87.0103507 C48.6388645,86.9207372 49.0468645,86.8136382 49.4614452,86.7371389 C49.8716387,86.6475254 50.2796387,86.5404264 50.6920258,86.4639271 C51.1022194,86.3764993 51.5058323,86.2694003 51.9204129,86.192901 C52.3306065,86.1032875 52.7386065,85.9961885 53.1509935,85.9196892 C53.5655742,85.8300757 53.9691871,85.7229767 54.3837677,85.6464774 C54.7939613,85.556864 55.1997677,85.4497649 55.6143484,85.3732656 C56.0267355,85.2858379 56.4347355,85.1765531 56.8493161,85.1000538 C57.2595097,85.0126261 57.6675097,84.9055271 58.0798968,84.8268421 C58.4900903,84.7394143 58.8958968,84.6323153 59.3082839,84.555816 C59.720671,84.4683882 60.1264774,84.3612892 60.5410581,84.2826042 C60.9512516,84.1951764 61.3592516,84.0880774 61.7716387,84.0093924 C62.1840258,83.9219646 62.5920258,83.8148656 63.0044129,83.7383663 C63.4168,83.6487528 63.8248,83.5416538 64.2393806,83.4651545 C64.6495742,83.375541 65.0553806,83.268442 65.4699613,83.1919427 C65.8801548,83.1045149 66.2859613,82.9974159 66.6983484,82.9209166 C67.1107355,82.8313031 67.5165419,82.7242041 67.9311226,82.6477048 C68.3413161,82.5580914 68.7493161,82.4509923 69.1617032,82.374493 C69.5740903,82.2848796 69.9820903,82.1777805 70.396671,82.1012812 C70.8068645,82.0138535 71.2148645,81.9067545 71.6272516,81.8280695 C72.0374452,81.7406417 72.4454452,81.6335427 72.8578323,81.5570434 C73.2702194,81.4674299 73.6760258,81.3625166 74.0906065,81.2838316 C74.5008,81.1964038 74.9088,81.0893048 75.3233806,81.0128055 C75.7335742,80.923192 76.1415742,80.816093 76.5539613,80.7395937 C76.9663484,80.6499802 77.3721548,80.5428812 77.788929,80.4663819 C78.1991226,80.3767684 78.6027355,80.2718551 79.0151226,80.1931701 C79.4275097,80.1057423 79.8355097,79.9986433 80.2500903,79.9199583 C80.6602839,79.8325305 81.0660903,79.7254315 81.4784774,79.6489322 C81.888671,79.5593188 82.296671,79.4522197 82.7090581,79.3757204 C83.1214452,79.286107 83.5272516,79.1790079 83.9418323,79.1025086 C84.3542194,79.0150809 84.7622194,78.9079818 85.1746065,78.8292969 C85.5869935,78.7418691 85.9928,78.6347701 86.4051871,78.5582708 C86.8175742,78.4686573 87.2255742,78.3615583 87.6401548,78.285059 C88.0503484,78.1954455 88.4561548,78.0905322 88.8685419,78.0118472 C89.2787355,77.9244194 89.6867355,77.8173204 90.1013161,77.7386354 C90.5115097,77.6512076 90.9173161,77.5441086 91.3297032,77.4676093 C91.7420903,77.3779958 92.1478968,77.2708968 92.5624774,77.1943975 C92.972671,77.104784 93.380671,76.9998707 93.7952516,76.9211857 C94.2076387,76.8337579 94.6156387,76.7266589 95.0280258,76.6479739 C95.4382194,76.5605462 95.8462194,76.4534471 96.2586065,76.3769478 C96.6688,76.2873344 97.0789935,76.1802353 97.4913806,76.103736 C97.9037677,76.0141226 98.3095742,75.9092092 98.7219613,75.8327099 C99.1343484,75.7430965 99.5401548,75.6359975 99.9547355,75.5594982 C100.364929,75.4698847 100.770735,75.3627857 101.185316,75.2862864 C101.597703,75.1966729 102.005703,75.0895739 102.420284,75.0130746 C102.830477,74.9234611 103.23409,74.8185478 103.646477,74.7420485 C104.058865,74.652435 104.466865,74.545336 104.881445,74.466651 C105.291639,74.3792232 105.697445,74.2721242 106.109832,74.1956249 C106.520026,74.1060114 106.928026,74.0010981 107.342606,73.9224131 C107.7528,73.8327997 108.1608,73.7278863 108.573187,73.651387 C108.985574,73.5617736 109.393574,73.4546745 109.808155,73.3781752 C110.218348,73.2885618 110.626348,73.1814627 111.038735,73.1049634 C111.448929,73.01535 111.856929,72.9104366 112.269316,72.8339373 C112.67951,72.7443239 113.085316,72.6372249 113.499897,72.5607256 C113.91009,72.4711121 114.31809,72.3640131 114.730477,72.2875138 C115.142865,72.1979003 115.548671,72.0908013 115.963252,72.014302 C116.375639,71.9246885 116.783639,71.8175895 117.198219,71.7410902 C117.608413,71.6514767 118.016413,71.5465634 118.4288,71.4700641 C118.838994,71.3804506 119.2448,71.2733516 119.657187,71.1968523 C120.069574,71.1072388 120.477574,71.0001398 120.889961,70.9236405 C121.300155,70.8340271 121.710348,70.7291137 122.122735,70.6526144 C135.1568,67.8068404 149.324929,71.4001219 159.461316,81.5002153 C175.278994,97.2634427 175.278994,122.818581 159.461316,138.579622 C158.6848,139.353358 157.881961,140.087751 157.061574,140.787174 C157.397187,140.931429 157.739381,141.053828 158.0728,141.204641 C158.458865,141.38824 158.864671,141.521567 159.252929,141.698608 C159.638994,141.880021 160.046994,142.015534 160.435252,142.190389 C160.821316,142.376173 161.229316,142.509501 161.617574,142.684356 C162.003639,142.867955 162.409445,143.003468 162.79551,143.178323 C163.181574,143.361922 163.589574,143.497435 163.980026,143.67229 C164.363897,143.855888 164.769703,143.991401 165.162348,144.166257 C165.546219,144.349855 165.949832,144.483183 166.342477,144.658038 C166.726348,144.841637 167.129961,144.97715 167.522606,145.152005 C167.908671,145.335603 168.31009,145.468931 168.700542,145.643786 C169.0888,145.827385 169.492413,145.962898 169.880671,146.137753 C170.271123,146.321352 170.674735,146.45905 171.065187,146.633906 C171.453445,146.815319 171.854865,146.950832 172.245316,147.125687 C172.631381,147.309285 173.034994,147.442613 173.423252,147.617468 C173.81151,147.801067 174.21951,147.93658 174.607768,148.111435 C174.993832,148.297219 175.401832,148.430547 175.787897,148.605402 C176.173961,148.789 176.581961,148.924514 176.968026,149.099369 C177.356284,149.282967 177.764284,149.41848 178.152542,149.593336 C178.538606,149.776934 178.944413,149.910262 179.332671,150.085117 C179.716542,150.268716 180.120155,150.404229 180.5128,150.579084 C180.896671,150.762682 181.302477,150.898196 181.695123,151.073051 C182.078994,151.256649 182.482606,151.389977 182.875252,151.564832 C183.261316,151.750616 183.664929,151.883944 184.057574,152.060985 C184.443639,152.244583 184.847252,152.377911 185.23551,152.552766 C185.625961,152.736364 186.029574,152.871877 186.420026,153.046733 C205.486348,162.106436 228.805961,160.746934 247.097961,147.503812 C273.701316,128.243474 279.601961,91.1413129 260.270219,64.6310266" id="Fill-1" fill="#9CE6C6" mask="url(#mask-5)"></path>
                        </g>
                        <g id="Group-6" transform="translate(0.000000, 90.000000)">
                            <mask id="mask-7" fill="white">
                                <use xlink:href="#path-6"></use>
                            </mask>
                            <g id="Clip-5"></g>
                            <path d="M274.63042,50.8882514 C274.239305,50.7124293 273.832808,50.5761672 273.446087,50.391554 C273.054971,50.215732 272.650672,50.0794699 272.263951,49.8948567 C271.872835,49.7212324 271.468536,49.5849703 271.081815,49.4003572 C270.690699,49.2245351 270.282005,49.088273 269.897482,48.9036599 C269.506366,48.7278378 269.099869,48.5915757 268.713148,48.4069626 C268.322033,48.2311405 267.917733,48.0948784 267.531012,47.9102653 C267.139897,47.736641 266.735597,47.6003789 266.348876,47.4135679 C265.957761,47.2399437 265.553461,47.1036816 265.16674,46.9190684 C264.775624,46.7432463 264.369128,46.6069843 263.98021,46.4223711 C263.591291,46.246549 263.186992,46.1124847 262.802468,45.9278716 C262.411352,45.7520495 262.002659,45.6157874 261.61374,45.4289765 C261.224822,45.2553522 260.820522,45.1190901 260.433801,44.9344769 C260.042686,44.7586549 259.638386,44.6245906 259.251665,44.4399774 C258.86055,44.2641553 258.454053,44.1278932 258.065135,43.9410823 C257.676216,43.7652602 257.26972,43.6311959 256.882999,43.444385 C256.491883,43.2707607 256.087584,43.1344986 255.700863,42.9498855 C255.309747,42.7740634 254.905448,42.6378013 254.518727,42.4531881 C254.127611,42.2795639 253.723312,42.1433018 253.33659,41.9586886 C252.945475,41.7828665 252.538978,41.6466045 252.152257,41.4619913 C251.761141,41.2861692 251.356842,41.1499071 250.967924,40.965294 C250.579005,40.7894719 250.174706,40.6532098 249.787985,40.4685967 C249.394672,40.2949724 248.990373,40.1565125 248.601454,39.9718994 C248.210339,39.7982751 247.806039,39.662013 247.419318,39.4773998 C247.028203,39.3015778 246.623903,39.1653157 246.237182,38.9807025 C245.846067,38.8048805 245.441767,38.6686184 245.055046,38.4840052 C244.663931,38.3103809 244.257434,38.1741188 243.870713,37.9873079 C243.479597,37.8136836 243.075298,37.6774215 242.68638,37.4928083 C242.297461,37.3169863 241.893162,37.1807242 241.506441,36.996111 C241.115325,36.8224868 240.708829,36.6840269 240.322107,36.4994137 C239.928795,36.3235917 239.524495,36.1873296 239.137774,36.0027164 C238.746659,35.8290921 238.342359,35.69283 237.955638,35.5082169 C237.56672,35.3323948 237.160223,35.1961327 236.775699,35.0137173 C236.382386,34.8378953 235.97589,34.6994354 235.589169,34.5148222 C235.198053,34.341198 234.793754,34.2027381 234.407033,34.0203227 C234.015917,33.8445007 233.60942,33.7082386 233.222699,33.5236254 C232.831584,33.3478033 232.427284,33.2115412 232.038366,33.0269281 C231.649448,32.851106 231.245148,32.7170417 230.860624,32.5324286 C230.467312,32.3566065 230.063012,32.2203444 229.674094,32.0357312 C229.282978,31.8599092 228.878679,31.7236471 228.489761,31.5390339 C228.100842,31.3632119 227.694346,31.2269498 227.309822,31.0423366 C226.916509,30.8687123 226.51221,30.7302525 226.125488,30.5456393 C225.734373,30.372015 225.330073,30.2357529 224.943352,30.0511398 C224.552237,29.8753177 224.14574,29.7390556 223.756822,29.5544425 C223.367903,29.3786204 222.963604,29.2423583 222.576883,29.0577451 C222.185767,28.8841209 221.779271,28.745661 221.39255,28.5610478 C221.001434,28.3874235 220.597135,28.2511615 220.210414,28.0665483 C219.819298,27.8907262 219.414999,27.7544641 219.030475,27.5720488 C218.637162,27.3962267 218.230665,27.2577668 217.843944,27.0731537 C217.452829,26.8995294 217.048529,26.7610695 216.659611,26.5764564 C216.268495,26.4028321 215.864196,26.2643722 215.477475,26.079759 C215.086359,25.9061348 214.68206,25.7698727 214.293141,25.5852595 C213.904223,25.4116352 213.499924,25.2731754 213.1154,25.09076 C212.722087,24.9149379 212.31559,24.7786758 211.928869,24.5918649 C211.537754,24.4182406 211.133454,24.2819785 210.746733,24.0973653 C210.355618,23.9215433 209.951318,23.7852812 209.564597,23.600668 C209.173482,23.4270438 208.766985,23.2885839 208.378067,23.1039707 C207.989148,22.9303464 207.584849,22.7940843 207.198128,22.6094712 C206.807012,22.4336491 206.400516,22.297387 206.011597,22.1105761 C205.620482,21.9369518 205.216182,21.8006897 204.829461,21.6160766 C204.438346,21.4424523 204.034046,21.3039924 203.647325,21.1193792 C203.25621,20.945755 202.85191,20.8072951 202.465189,20.6226819 C202.074073,20.4490577 201.669774,20.3127956 201.283053,20.1281824 C200.891937,19.9523603 200.485441,19.8160982 200.09872,19.6314851 C199.707604,19.4578608 199.301107,19.3194009 198.914386,19.1347878 C198.525468,18.9611635 198.121169,18.8249014 197.734448,18.6402882 C197.341135,18.4644662 196.936835,18.3282041 196.547917,18.1435909 C196.156801,17.9677689 195.752502,17.8315068 195.365781,17.6468936 C194.974665,17.4732693 194.570366,17.3348095 194.181448,17.1501963 C193.792529,16.976572 193.386033,16.8381121 192.999312,16.653499 C192.610393,16.4798747 192.206094,16.3436126 191.819373,16.1589995 C191.42606,15.9853752 191.021761,15.8469153 190.632842,15.6623021 C190.241727,15.4886779 189.837427,15.350218 189.450706,15.1656048 C189.05959,14.9919805 188.655291,14.8557184 188.26857,14.6711053 C187.877454,14.4952832 187.470958,14.3590211 187.084237,14.174408 C186.693121,14.0007837 186.288822,13.8623238 185.902101,13.6777107 C185.510985,13.5040864 185.106686,13.3656265 184.719965,13.1810134 C184.326652,13.0073891 183.92455,12.871127 183.537829,12.6865138 C183.146713,12.5128895 182.740216,12.3744297 182.353495,12.1898165 C181.96238,12.0161922 181.555883,11.8777324 181.169162,11.6931192 C180.778046,11.5194949 180.373747,11.381035 179.987026,11.1964219 C179.59591,11.0227976 179.189414,10.8843377 178.802693,10.6997246 C178.413774,10.5261003 178.009475,10.3898382 177.624951,10.205225 C177.231638,10.0316007 176.827339,9.89314088 176.43842,9.70852772 C176.047305,9.53490344 175.643005,9.39864134 175.254087,9.2118304 C174.862971,9.03820612 174.458672,8.90194403 174.069754,8.71513309 C173.680835,8.54150881 173.274339,8.40524672 172.887618,8.22063356 C172.496502,8.04700927 172.092203,7.9085494 171.705482,7.72393624 C171.314366,7.55031196 170.910067,7.41185209 170.523346,7.22723893 C170.13223,7.05361465 169.727931,6.91735255 169.34121,6.73273939 C168.950094,6.55911511 168.543597,6.42065524 168.156876,6.23604208 C167.765761,6.0624178 167.361461,5.92395793 166.97474,5.74154255 C166.583624,5.56572049 166.177128,5.42726062 165.78821,5.24264746 C165.399291,5.06902318 164.994992,4.93276108 164.606073,4.74814792 C164.214958,4.57452364 163.810659,4.43606377 163.423937,4.25145061 C163.032822,4.07782633 162.628522,3.93936646 162.241801,3.7547533 C161.848488,3.58112901 161.444189,3.44266914 161.055271,3.25805598 C160.666352,3.0844317 160.262053,2.94816961 159.877529,2.76355645 C159.484216,2.58993217 159.079917,2.4514723 158.690999,2.26685914 C158.299883,2.09323485 157.897781,1.95477498 157.51106,1.7723596 C157.119944,1.59873532 156.713448,1.46027545 156.326727,1.27346451 C155.933414,1.102038 155.529114,0.963578134 155.142393,0.778964974 C154.751278,0.605340692 154.346978,0.466880822 153.962454,0.282267661 C153.955863,0.280069886 153.949271,0.27787211 153.942679,0.275674334 C153.760305,0.317432073 153.575733,0.361387587 153.393359,0.40094755 C152.978073,0.4778697 152.56938,0.585560711 152.156291,0.675669515 C151.743203,0.752591665 151.334509,0.860282675 150.92142,0.95039148 C150.508332,1.02731363 150.099638,1.13500464 149.688747,1.22291567 C149.275659,1.30203559 148.869162,1.4097266 148.456073,1.49763763 C148.042985,1.57455978 147.634291,1.68444857 147.221203,1.7723596 C146.808114,1.84928175 146.39942,1.95697276 145.988529,2.04708156 C145.575441,2.12400371 145.168944,2.23169472 144.755856,2.31960575 C144.342767,2.3965279 143.936271,2.50421891 143.523182,2.59432772 C143.107897,2.67124987 142.699203,2.77894088 142.286114,2.86904968 C141.873026,2.94597183 141.464332,3.05366284 141.051244,3.14157387 C140.638155,3.2206938 140.231659,3.32838481 139.81857,3.41629584 C139.405482,3.49321799 138.996788,3.60310677 138.585897,3.6910178 C138.172808,3.76793995 137.766312,3.87563096 137.35542,3.96354199 C136.940135,4.04266192 136.533638,4.15035293 136.12055,4.23826395 C135.707461,4.3151861 135.298767,4.42507489 134.885679,4.51298592 C134.470393,4.58990807 134.063897,4.69979686 133.650808,4.78770788 C133.23772,4.86463003 132.829026,4.97232104 132.415937,5.06023207 C132.005046,5.139352 131.596352,5.24704301 131.185461,5.33495404 C130.772373,5.41187619 130.363679,5.52176497 129.95059,5.609676 C129.537502,5.68659815 129.128808,5.79428916 128.717917,5.88439797 C128.304829,5.96132012 127.896135,6.06901113 127.480849,6.15692216 C127.067761,6.23604208 126.661264,6.34373309 126.248176,6.43164412 C125.835087,6.51076405 125.426393,6.61845506 125.015502,6.70636609 C124.602414,6.78328824 124.195917,6.89317702 123.782829,6.98108805 C123.36974,7.0580102 122.963244,7.16570121 122.550155,7.25361224 C122.134869,7.33273217 121.726176,7.44042318 121.313087,7.5283342 C120.899999,7.60525635 120.491305,7.71514514 120.080414,7.80305617 C119.667325,7.87997832 119.258631,7.98986711 118.84774,8.07777813 C118.432454,8.15470028 118.025958,8.26458907 117.612869,8.35030232 C117.199781,8.42942225 116.793284,8.53711326 116.380196,8.62502429 C115.967107,8.70194644 115.560611,8.80963745 115.147522,8.89754848 C114.734434,8.9766684 114.32574,9.08435941 113.912652,9.17227044 C113.497366,9.25139037 113.090869,9.35908138 112.677781,9.44699241 C112.264693,9.52611233 111.855999,9.63380334 111.44291,9.72171437 C111.029822,9.79863652 110.623325,9.90852531 110.212434,9.99423856 C109.799346,10.0733585 109.390652,10.1810495 108.977563,10.2689605 C108.562278,10.3480805 108.155781,10.4557715 107.742693,10.5436825 C107.329604,10.6228024 106.923107,10.7304934 106.512216,10.8184045 C106.096931,10.8953266 105.688237,11.0030176 105.277346,11.0931264 C104.86206,11.1700486 104.453366,11.2777396 104.040278,11.3656506 C103.629386,11.4447705 103.220693,11.5524615 102.809801,11.6403726 C102.396713,11.7172947 101.988019,11.8271835 101.574931,11.9150945 C101.161842,11.9920167 100.753148,12.1019055 100.342257,12.1898165 C99.9291687,12.2667387 99.5204748,12.3744297 99.1095837,12.4623407 C98.694298,12.5414606 98.2856041,12.6491516 97.8725156,12.7370627 C97.4594272,12.8161826 97.0507333,12.9238736 96.6398422,13.0117846 C96.2267537,13.0887068 95.8202571,13.1963978 95.409366,13.2843088 C94.9940803,13.3634287 94.5853864,13.4711197 94.172298,13.5590308 C93.7592095,13.6381507 93.3505156,13.7458417 92.9396245,13.8337527 C92.5265361,13.9106749 92.1200395,14.0205637 91.706951,14.1062769 C91.2938626,14.1853969 90.8851687,14.2930879 90.4742776,14.3809989 C90.0589918,14.4601188 89.650298,14.5678098 89.2372095,14.6557209 C88.8241211,14.7348408 88.4176245,14.8425318 88.0045361,14.9304428 C87.5892503,15.007365 87.1827537,15.1172538 86.7696653,15.2051648 C86.3565769,15.2820869 85.947883,15.3919757 85.5369918,15.477689 C85.1239034,15.5568089 84.7174068,15.6644999 84.3065156,15.7524109 C83.8912299,15.8293331 83.4847333,15.9392219 83.0716449,16.0271329 C82.6563592,16.1040551 82.2476653,16.2139438 81.8345769,16.3018549 C81.4214884,16.378777 81.0127946,16.486468 80.6019034,16.5743791 C80.188815,16.653499 79.7801211,16.76119 79.3692299,16.849101 C78.9539442,16.9260232 78.5452503,17.035912 78.1343592,17.123823 C77.7212707,17.2007451 77.3147741,17.3106339 76.903883,17.3963472 C76.4885973,17.4754671 76.0821007,17.5831581 75.6712095,17.6710691 C75.2559238,17.7501891 74.8472299,17.8578801 74.4319442,17.9457911 C74.0188558,18.0227133 73.6123592,18.132602 73.1992707,18.2205131 C72.7861823,18.2974352 72.3774884,18.407324 71.9665973,18.4930373 C71.5535088,18.5721572 71.144815,18.6798482 70.7339238,18.7677592 C70.3208354,18.8446814 69.9143388,18.9545702 69.5012503,19.0402834 C69.0859646,19.1194033 68.6772707,19.2292921 68.2641823,19.3150054 C67.8510939,19.3941253 67.4424,19.5040141 67.0315088,19.5897273 C66.6162231,19.6688473 66.2097265,19.7765383 65.7966381,19.8644493 C65.3835497,19.9435692 64.9748558,20.0512602 64.5639646,20.1391713 C64.1508762,20.2160934 63.7443796,20.3259822 63.3312912,20.4116955 C62.9182027,20.4908154 62.5095088,20.6007042 62.0964204,20.6864174 C61.683332,20.7655374 61.2768354,20.8732284 60.8659442,20.9611394 C60.4506585,21.0380615 60.0419646,21.1479503 59.6288762,21.2358614 C59.2157878,21.3127835 58.8070939,21.4226723 58.3962027,21.5105833 C57.980917,21.5875055 57.5722231,21.6973943 57.161332,21.7831075 C56.7482435,21.8622274 56.3417469,21.9699184 55.9308558,22.0578295 C55.5155701,22.1347516 55.1068762,22.2446404 54.6937878,22.3325514 C54.2806993,22.4094736 53.8742027,22.5193624 53.4633116,22.6050756 C53.0480259,22.6841956 52.639332,22.7918866 52.2262435,22.8797976 C51.8131551,22.9589175 51.4044612,23.0666085 50.9913728,23.1545196 C50.5804816,23.2314417 50.173985,23.3413305 49.7608966,23.4270438 C49.3478082,23.5061637 48.9391143,23.6160525 48.5260259,23.7017657 C37.1485156,25.8511904 26.2741823,31.3170586 17.471883,40.1235459 C-5.82366803,63.4221663 -5.82366803,101.195338 17.471883,124.493958 C35.1753592,142.203635 61.2328898,146.414573 82.9485973,137.199299 C83.3441075,137.043257 83.7286313,136.858644 84.1197469,136.691613 C84.5108626,136.535571 84.8909918,136.353156 85.2799102,136.188323 C85.6732231,136.030083 86.0555497,135.847667 86.4466653,135.680636 C86.8399782,135.524594 87.2223048,135.339981 87.6112231,135.175148 C88.0045361,135.019106 88.3868626,134.834493 88.7779782,134.66966 C89.1690939,134.51142 89.5492231,134.329004 89.9381415,134.164171 C90.3314544,134.008129 90.7159782,133.823516 91.1070939,133.656485 C91.4982095,133.500443 91.8827333,133.31583 92.273849,133.150996 C92.6627673,132.994954 93.0450939,132.810341 93.4340122,132.645508 C93.8273252,132.489466 94.2096517,132.304853 94.6007673,132.14002 C94.991883,131.98178 95.3764068,131.799364 95.7653252,131.632333 C96.1586381,131.476291 96.5409646,131.291678 96.929883,131.126845 C97.3231959,130.970803 97.7055224,130.78619 98.0944408,130.621357 C98.4855565,130.465315 98.867883,130.280701 99.2568014,130.115868 C99.6523116,129.957628 100.034638,129.773015 100.425754,129.608182 C100.816869,129.45214 101.199196,129.267527 101.588114,129.102694 C101.97923,128.946652 102.363754,128.764236 102.752672,128.597205 C103.145985,128.441163 103.528312,128.25655 103.919427,128.091717 C104.310543,127.933477 104.695067,127.751062 105.083985,127.584031 C105.475101,127.427989 105.857427,127.245573 106.246346,127.08074 C106.639659,126.9225 107.021985,126.740085 107.413101,126.573054 C107.804216,126.417012 108.18874,126.232399 108.577659,126.067565 C108.970971,125.909325 109.353298,125.72691 109.742216,125.562077 C110.135529,125.403837 110.517856,125.219224 110.908971,125.054391 C111.300087,124.898349 111.682414,124.713736 112.071332,124.548902 C112.464645,124.39286 112.846971,124.210445 113.23589,124.043414 C113.629203,123.887372 114.011529,123.702759 114.402645,123.537925 C114.793761,123.379686 115.176087,123.19727 115.567203,123.030239 C115.960516,122.874197 116.342842,122.691782 116.731761,122.524751 C117.122876,122.368709 117.5074,122.184096 117.896318,122.019262 C118.289631,121.86322 118.669761,121.678607 119.058679,121.513774 C119.454189,121.357732 119.836516,121.173119 120.229829,121.006088 C120.618747,120.850046 121.001073,120.66763 121.387795,120.502797 C121.781107,120.344557 122.165631,120.159944 122.556747,119.995111 C122.947863,119.839069 123.330189,119.654456 123.719107,119.489623 C124.11242,119.333581 124.494747,119.148967 124.885863,118.981936 C125.276978,118.825894 125.659305,118.643479 126.046026,118.478646 C126.441536,118.320406 126.823863,118.137991 127.214978,117.97096 C127.608291,117.814918 127.990618,117.630304 128.379536,117.465471 C128.772849,117.309429 129.155176,117.124816 129.544094,116.957785 C129.937407,116.801743 130.319733,116.619328 130.708652,116.452297 C131.101965,116.296255 131.484291,116.113839 131.87321,115.946808 C132.264325,115.790766 132.646652,115.608351 133.03557,115.44132 C133.428883,115.285278 133.813407,115.100665 134.204522,114.935831 C134.597835,114.777591 134.980162,114.595176 135.36908,114.428145 C135.760196,114.272103 136.142522,114.089688 136.531441,113.922657 C136.924754,113.766615 137.30708,113.584199 137.698196,113.417168 C138.089312,113.261126 138.471638,113.078711 138.860556,112.91168 C139.253869,112.755638 139.638393,112.571025 140.027312,112.403994 C140.420624,112.247952 140.805148,112.065536 141.194067,111.898505 C141.585182,111.742463 141.967509,111.560048 142.35423,111.393017 C142.747543,111.236975 143.132067,111.052362 143.523182,110.887528 C143.914298,110.731486 144.296624,110.546873 144.685543,110.38204 C145.078856,110.2238 145.461182,110.041385 145.850101,109.874354 C146.243414,109.718312 146.62574,109.535896 147.016856,109.368865 C147.407971,109.212823 147.792495,109.02821 148.181414,108.863377 C148.572529,108.707335 148.954856,108.522722 149.343774,108.357889 C149.737087,108.201847 150.119414,108.017233 150.510529,107.850202 C150.903842,107.69416 151.286169,107.511745 151.675087,107.344714 C152.0684,107.188672 152.450727,107.006257 152.839645,106.839226 C153.232958,106.683184 153.615284,106.49857 154.0064,106.331539 C154.397516,106.175497 154.779842,105.993082 155.166563,105.828249 C155.559876,105.672207 155.9444,105.487594 156.335516,105.320563 C156.728829,105.16452 157.111155,104.979907 157.500073,104.815074 C157.891189,104.659032 158.275713,104.474419 158.664631,104.309586 C159.055747,104.153544 159.438073,103.971128 159.826992,103.804097 C160.220305,103.645857 160.604829,103.463442 160.995944,103.296411 C161.38706,103.140369 161.769386,102.957954 162.156107,102.790923 C162.54942,102.634881 162.931747,102.452465 163.322863,102.285434 C163.716176,102.129392 164.098502,101.944779 164.48742,101.779946 C164.880733,101.621706 165.265257,101.439291 165.654176,101.27226 C166.045291,101.116218 166.429815,100.933802 166.818733,100.766771 C167.209849,100.610729 167.594373,100.426116 167.983291,100.261283 C168.374407,100.103043 168.756733,99.9206276 169.145652,99.7557944 C169.538965,99.5997524 169.921291,99.417337 170.312407,99.250306 C170.703522,99.0920662 171.088046,98.9096508 171.476965,98.7426198 C171.870278,98.5865778 172.252604,98.4041624 172.641522,98.2371314 C173.034835,98.0810893 173.417162,97.8964762 173.808278,97.7294452 C174.199393,97.5756009 174.579522,97.3909878 174.968441,97.2261546 C175.361754,97.0701125 175.74408,96.8854994 176.135196,96.7184684 C176.528509,96.5624263 176.913033,96.3800109 177.301951,96.21298 C177.695264,96.0569379 178.07759,95.8745225 178.466509,95.7074916 C178.857624,95.5514495 179.239951,95.3668363 179.626672,95.2020032 C180.022182,95.0437633 180.406706,94.8613479 180.797822,94.694317 C181.188937,94.5382749 181.569067,94.3558595 181.957985,94.1910263 C182.351298,94.0327865 182.733624,93.8503711 183.12474,93.6833401 C183.518053,93.5272981 183.90038,93.3448827 184.289298,93.1778517 C184.682611,93.0196119 185.064937,92.8371965 185.453856,92.6701655 C185.847169,92.5141235 186.231693,92.3317081 186.620611,92.1646771 C187.011727,92.008635 187.394053,91.8262197 187.782971,91.6591887 C188.176284,91.5031466 188.560808,91.3185335 188.949727,91.1515025 C189.340842,90.9954604 189.725366,90.813045 190.112087,90.6460141 C190.5054,90.489972 190.887727,90.3075566 191.276645,90.1427235 C191.669958,89.9844836 192.052284,89.8020682 192.4434,89.6350373 C192.836713,89.4789952 193.219039,89.2965798 193.607958,89.1295488 C194.001271,88.9735068 194.383597,88.7888936 194.772516,88.6218627 C195.165829,88.4658206 195.548155,88.2834052 195.934876,88.118572 C196.330386,87.9603322 196.712713,87.7779168 197.103829,87.6086881 C197.494944,87.4548438 197.877271,87.2724284 198.266189,87.1053974 C198.659502,86.9493553 199.041829,86.76694 199.430747,86.599909 C199.82406,86.4416691 200.208584,86.2592538 200.597502,86.0922228 C200.990815,85.9361807 201.373141,85.7537653 201.76206,85.5867344 C202.153176,85.4306923 202.535502,85.2482769 202.92442,85.081246 C203.317733,84.9252039 203.702257,84.7427885 204.093373,84.5735598 C204.484488,84.4175177 204.866815,84.2351023 205.253536,84.0702691 C205.646849,83.9142271 206.031373,83.7296139 206.420291,83.562583 C206.813604,83.4065409 207.195931,83.2241255 207.584849,83.0570945 C207.978162,82.9010525 208.360488,82.7186371 208.749407,82.5516061 C209.140522,82.395564 209.525046,82.2131487 209.913965,82.0461177 C210.307278,81.8900756 210.689604,81.7054625 211.078522,81.5384315 C211.471835,81.3823894 211.856359,81.1999741 212.245278,81.0329431 C212.636393,80.876901 213.020917,80.6944856 213.409835,80.5274547 C213.800951,80.3714126 214.185475,80.1867995 214.574393,80.0197685 C214.967706,79.8659242 215.347835,79.6835088 215.736754,79.5164779 C216.130067,79.358238 216.51459,79.1758226 216.905706,79.0087917 C217.296822,78.8527496 217.679148,78.6703342 218.065869,78.5033032 C218.459182,78.3472612 218.843706,78.1648458 219.234822,77.9978148 C219.625937,77.8417728 220.008264,77.6571596 220.397182,77.4901286 C220.790495,77.3340866 221.172822,77.1516712 221.563937,76.9846402 C221.955053,76.8285982 222.33738,76.6461828 222.724101,76.4791518 C223.119611,76.3231097 223.504135,76.1406944 223.89525,75.9714656 C224.286366,75.8154235 224.668693,75.6352059 225.055414,75.468175 C225.448727,75.3121329 225.831053,75.1275197 226.222169,74.9604888 C226.613284,74.8044467 226.997808,74.6220313 227.386727,74.4550004 C227.780039,74.2989583 228.162366,74.1165429 228.551284,73.949512 C228.9424,73.7934699 229.326924,73.6110545 229.715842,73.4440235 C230.106958,73.2879815 230.491482,73.1055661 230.8804,72.9363374 C231.273713,72.7802953 231.658237,72.5978799 232.047155,72.4308489 C232.438271,72.2748069 232.822795,72.0923915 233.209516,71.9253605 C233.602829,71.7693184 233.987352,71.5869031 234.376271,71.4176743 C234.769584,71.26383 235.15191,71.0814146 235.540829,70.9121859 C235.931944,70.7561438 236.316468,70.5737285 236.705386,70.4066975 C237.098699,70.2506554 237.481026,70.06824 237.869944,69.9012091 C238.263257,69.745167 238.645584,69.5627516 239.032305,69.3957207 C239.427815,69.2396786 239.812339,69.0550654 240.201257,68.8880345 C240.592373,68.7319924 240.974699,68.549577 241.363618,68.3825461 C241.754733,68.226504 242.139257,68.0440886 242.528176,67.8770577 C242.921488,67.7210156 243.306012,67.5386002 243.694931,67.3693715 C244.086046,67.2133294 244.47057,67.0331118 244.859488,66.863883 C245.250604,66.7100387 245.632931,66.5276234 246.021849,66.3583946 C246.415162,66.2045503 246.799686,66.0199372 247.188604,65.8529062 C247.57972,65.6968641 247.964244,65.5144488 248.353162,65.3474178 C248.746475,65.1913757 249.128801,65.0089603 249.51772,64.8419294 C249.911033,64.6858873 250.295556,64.5034719 250.684475,64.3342432 C251.07559,64.1782011 251.457917,63.9979835 251.844638,63.8287548 C252.237951,63.6727127 252.622475,63.4902973 253.01359,63.3232664 C253.406903,63.1672243 253.78923,62.9848089 254.178148,62.8155802 C254.569264,62.6617359 254.953788,62.4793205 255.340509,62.3100918 C255.733822,62.1540497 256.118346,61.9738321 256.507264,61.8046033 C256.900577,61.6485613 257.282903,61.4661459 257.671822,61.2991149 C258.065135,61.1430729 258.447461,60.9606575 258.834182,60.7936265 C259.229693,60.6375844 259.614216,60.4551691 260.003135,60.2859403 C260.39425,60.1298982 260.776577,59.9496806 261.163298,59.7804519 C261.556611,59.6244098 261.941135,59.4441922 262.330053,59.2749635 C262.723366,59.1189214 263.10789,58.936506 263.496808,58.7672773 C263.887924,58.613433 264.272448,58.4310176 264.659169,58.2617889 C268.69557,56.6640059 272.527624,54.4002969 275.981747,51.459673 C275.924618,51.4332997 275.865291,51.411322 275.812556,51.3849487 C275.419244,51.2091266 275.017141,51.0728645 274.63042,50.8882514" id="Fill-4" fill="#A0D1FF" mask="url(#mask-7)"></path>
                        </g>
                        <path d="M277.232181,81.9444787 C267.17734,71.7130761 253.125368,68.0730792 240.196162,70.9536364 C239.78274,71.0333443 239.380198,71.1396216 238.971129,71.2304001 C238.564235,71.307894 238.157342,71.4163854 237.750448,71.5071639 C237.341379,71.5846577 236.936661,71.6931491 236.529768,71.7817135 C236.120698,71.8614215 235.71598,71.9676988 235.309087,72.0584773 C234.897841,72.1359711 234.493124,72.2444625 234.084054,72.335241 C233.672809,72.4127349 233.270267,72.5212263 232.863374,72.6120048 C232.452128,72.6894986 232.04741,72.79799 231.640517,72.8887686 C231.231447,72.9662624 230.82673,73.0725397 230.419836,73.1633182 C230.010767,73.2430262 229.608225,73.3493034 229.199155,73.440082 C228.790086,73.5175758 228.385368,73.6260672 227.978475,73.7168457 C227.567229,73.7943396 227.162512,73.9006168 226.753442,73.9936095 C226.344373,74.0711033 225.939655,74.1773806 225.532761,74.2681591 C225.121516,74.3478671 224.718974,74.4541444 224.309905,74.5449229 C223.900835,74.6224167 223.498294,74.7309081 223.0914,74.8194725 C222.680155,74.8991805 222.275437,75.0076719 221.868543,75.0984504 C221.459474,75.1759442 221.054756,75.2822215 220.647863,75.373 C220.236617,75.4504939 219.8319,75.5589853 219.425006,75.6497638 C219.013761,75.7272576 218.609043,75.835749 218.202149,75.9265276 C217.790904,76.0040214 217.388362,76.1125128 216.979293,76.2010772 C216.570223,76.2807852 216.167681,76.3870624 215.760788,76.477841 C215.351718,76.5553348 214.944825,76.6638262 214.540107,76.7546047 C214.128862,76.8320986 213.72632,76.94059 213.31725,77.0291544 C212.908181,77.1088623 212.503463,77.2173537 212.094394,77.3059181 C211.683148,77.3856261 211.280607,77.4919034 210.871537,77.5826819 C210.462468,77.6601757 210.05775,77.7686671 209.648681,77.8594456 C209.239611,77.9369395 208.837069,78.0454309 208.430176,78.1339953 C208.01893,78.2137032 207.616389,78.3199805 207.207319,78.410759 C206.79825,78.490467 206.395708,78.5967443 205.988814,78.6875228 C205.577569,78.7650167 205.172851,78.873508 204.763782,78.9642866 C204.354712,79.0417804 203.95217,79.1502718 203.545277,79.2388362 C203.134032,79.3185442 202.729314,79.4248215 202.320244,79.5156 C201.911175,79.5930938 201.506457,79.7015852 201.097388,79.7923637 C200.688318,79.8698576 200.283601,79.978349 199.876707,80.0691275 C199.467637,80.1466213 199.065096,80.2551127 198.658202,80.3436771 C198.246957,80.4233851 197.842239,80.5318765 197.43317,80.6204409 C197.0241,80.6979347 196.621558,80.8064261 196.214665,80.8972046 C195.803419,80.9746985 195.398702,81.0831899 194.989632,81.1739684 C194.580563,81.2514623 194.175845,81.3599536 193.768951,81.448518 C193.357706,81.528226 192.955164,81.6367174 192.546095,81.7252818 C192.137025,81.8027757 191.732308,81.9112671 191.323238,82.0020456 C190.916345,82.0795394 190.513803,82.1880308 190.106909,82.2765952 C189.69784,82.3563032 189.290946,82.4625805 188.884053,82.553359 C188.472807,82.6308528 188.06809,82.7393442 187.65902,82.8301227 C187.249951,82.9076166 186.845233,83.016108 186.438339,83.1068865 C186.027094,83.1843803 185.624552,83.2928717 185.215483,83.3814361 C184.806413,83.4611441 184.403871,83.5696355 183.996978,83.6581999 C183.587908,83.7356937 183.183191,83.8441851 182.776297,83.9349636 C182.365052,84.0124575 181.960334,84.1209489 181.551265,84.2117274 C181.142195,84.2892213 180.737477,84.3977126 180.328408,84.4862771 C179.919339,84.565985 179.514621,84.6744764 179.107727,84.7630408 C178.698658,84.8427488 178.29394,84.9490261 177.884871,85.0398046 C177.475801,85.1172984 177.073259,85.2257898 176.666366,85.3143542 C176.257296,85.3940622 175.852579,85.5025536 175.445685,85.591118 C175.03444,85.6686118 174.629722,85.7793173 174.220653,85.8678817 C173.811583,85.9453756 173.406865,86.053867 172.999972,86.1446455 C172.588726,86.2221393 172.186185,86.3306307 171.777115,86.4214092 C171.368046,86.4989031 170.963328,86.6073945 170.556434,86.6959589 C170.147365,86.7756669 169.744823,86.8841582 169.33793,86.9727226 C168.926684,87.0502165 168.524142,87.1587079 168.115073,87.2472723 C167.703828,87.3269803 167.29911,87.4354717 166.89004,87.5240361 C166.480971,87.603744 166.076253,87.7122354 165.671536,87.8007998 C165.258114,87.8782937 164.855573,87.9889992 164.446503,88.0775636 C164.039609,88.1550574 163.634892,88.2635488 163.227998,88.3521132 C162.816753,88.4318212 162.414211,88.5403126 162.005142,88.628877 C161.596072,88.7085849 161.191354,88.8170763 160.784461,88.9056407 C160.375391,88.9831346 159.970674,89.091626 159.561604,89.1824045 C159.150359,89.2598983 158.745641,89.3683897 158.338748,89.4591682 C157.927502,89.5366621 157.52496,89.6451535 157.115891,89.7337179 C156.706821,89.8134259 156.30428,89.9219173 155.899562,90.0104817 C155.488317,90.0879755 155.083599,90.1964669 154.672354,90.2872454 C154.448236,90.3293135 154.221942,90.3824521 154,90.4355908 C154.004352,90.4378049 154.01088,90.4422331 154.017407,90.4444472 C154.400366,90.6304325 154.800732,90.7677073 155.188042,90.942622 C155.571001,91.1286072 155.971367,91.2680962 156.358677,91.4430109 C156.743812,91.6289961 157.144178,91.768485 157.533664,91.9433997 C157.914447,92.129385 158.314813,92.2666598 158.702123,92.4415745 C159.085082,92.6275597 159.487624,92.7670487 159.87711,92.9441775 C160.257893,93.1279486 160.656083,93.2674376 161.043393,93.4401381 C161.426352,93.6283375 161.828894,93.7678264 162.216204,93.9427411 C162.601339,94.1287264 163.001704,94.2660012 163.389015,94.4409159 C163.771974,94.6269011 164.172339,94.7663901 164.55965,94.9413048 C164.942609,95.12729 165.342974,95.2667789 165.730285,95.4416936 C166.115419,95.6276789 166.515785,95.7671678 166.905272,95.9420825 C167.28823,96.1280678 167.688596,96.2675567 168.073731,96.4402573 C168.458865,96.6284566 168.859231,96.7657315 169.248718,96.9406461 C169.631676,97.1266314 170.032042,97.2661203 170.417177,97.441035 C170.800135,97.6270203 171.202677,97.7642951 171.587812,97.9392098 C171.972946,98.125195 172.373312,98.264684 172.760623,98.4395987 C173.143581,98.6255839 173.543947,98.7650728 173.931258,98.9399875 C174.316392,99.1259728 174.716758,99.2654617 175.104069,99.4403764 C175.487027,99.6263616 175.889569,99.7658506 176.279055,99.9407653 C176.659838,100.126751 177.06238,100.266239 177.44969,100.441154 C177.832649,100.627139 178.230839,100.764414 178.618149,100.939329 C179.001108,101.125314 179.401474,101.264803 179.788784,101.439718 C180.171743,101.625703 180.574285,101.762978 180.959419,101.937893 C181.344554,102.126092 181.74492,102.263367 182.134406,102.440496 C182.517365,102.626481 182.917731,102.763756 183.305041,102.93867 C183.688,103.124656 184.088366,103.264144 184.475676,103.439059 C184.858635,103.625044 185.261177,103.762319 185.648487,103.939448 C186.031446,104.125433 186.433988,104.262708 186.819122,104.437623 C187.202081,104.623608 187.602447,104.763097 187.991933,104.938012 C188.374892,105.123997 188.775258,105.261272 189.162568,105.438401 C189.545527,105.624386 189.945893,105.761661 190.333203,105.936575 C190.716162,106.124775 191.118703,106.26205 191.510366,106.439178 C191.891149,106.625164 192.289338,106.762438 192.676649,106.937353 C193.059608,107.123338 193.459973,107.260613 193.847284,107.437742 C194.230243,107.623727 194.632784,107.761002 195.020095,107.938131 C195.403054,108.121902 195.803419,108.261391 196.19073,108.436306 C196.573689,108.622291 196.97623,108.76178 197.365717,108.936694 C197.746499,109.12268 198.146865,109.259955 198.534176,109.437083 C198.917134,109.623069 199.3175,109.760343 199.704811,109.935258 C200.089945,110.121243 200.490311,110.260732 200.877622,110.435647 C201.26058,110.621632 201.665298,110.761121 202.048257,110.936036 C202.431215,111.122021 202.833757,111.259296 203.218892,111.436425 C203.604026,111.62241 204.004392,111.759685 204.391703,111.934599 C204.774661,112.120585 205.175027,112.25786 205.562338,112.434988 C205.947472,112.620974 206.347838,112.760463 206.737324,112.935377 C207.118107,113.121362 207.518473,113.258637 207.905783,113.433552 C208.290918,113.621751 208.691284,113.759026 209.08077,113.936155 C209.463729,114.12214 209.861919,114.259415 210.249229,114.43433 C210.632188,114.620315 211.03473,114.75759 211.42204,114.934719 C211.804999,115.120704 212.207541,115.260193 212.594851,115.435107 C212.97781,115.621093 213.378176,115.758368 213.76331,115.933282 C214.146269,116.119267 214.546635,116.256542 214.936121,116.433671 C215.31908,116.619656 215.719446,116.756931 216.106756,116.93406 C216.489715,117.120045 216.890081,117.25732 217.277391,117.434449 C217.662526,117.620434 218.065068,117.757709 218.452378,117.934838 C218.835337,118.120823 219.235703,118.258098 219.620837,118.433013 C220.003796,118.618998 220.404162,118.756273 220.791472,118.933401 C221.176607,119.119387 221.579148,119.256661 221.966459,119.43379 C222.349418,119.619776 222.749783,119.75705 223.134918,119.931965 C223.520053,120.11795 223.920418,120.257439 224.307729,120.432354 C224.692863,120.618339 225.093229,120.755614 225.478364,120.932743 C225.863498,121.118728 226.263864,121.256003 226.651175,121.433132 C227.034133,121.619117 227.434499,121.756392 227.82181,121.931306 C228.204768,122.117292 228.60731,122.254566 228.994621,122.431695 C229.377579,122.617681 229.780121,122.757169 230.167432,122.932084 C230.55039,123.118069 230.950756,123.255344 231.335891,123.430259 C231.718849,123.616244 232.121391,123.755733 232.508702,123.930648 C232.89166,124.116633 233.292026,124.253908 233.679337,124.431037 C234.062295,124.617022 234.464837,124.754297 234.852147,124.931426 C235.235106,125.117411 235.637648,125.254686 236.027134,125.431814 C236.407917,125.6178 236.808283,125.755074 237.195593,125.929989 C237.578552,126.115974 237.978918,126.253249 238.366228,126.430378 C238.749187,126.616363 239.149553,126.753638 239.536863,126.930767 C239.924174,127.116752 240.32454,127.254027 240.71185,127.431156 C241.092633,127.617141 241.492999,127.754416 241.880309,127.929331 C242.263268,128.115316 242.66581,128.252591 243.05312,128.429719 C243.436079,128.615705 243.836445,128.75298 244.223755,128.930108 C244.606714,129.116094 245.009256,129.253368 245.39439,129.428283 C245.777349,129.616482 246.179891,129.753757 246.567201,129.928672 C246.95016,130.114657 247.350526,130.251932 247.73566,130.429061 C248.120795,130.615046 248.523337,130.752321 248.910647,130.92945 C249.293606,131.115435 249.693972,131.25271 250.081282,131.427624 C250.464241,131.61361 250.864607,131.750885 251.251917,131.928013 C251.637052,132.113999 252.037417,132.251273 252.426904,132.428402 C252.809862,132.614387 253.210228,132.751662 253.595363,132.928791 C253.980497,133.114776 254.380863,133.252051 254.768174,133.426966 C255.151132,133.612951 255.551498,133.750226 255.936633,133.927355 C256.321767,134.11334 256.722133,134.250615 257.109444,134.427744 C257.494578,134.613729 257.894944,134.751004 258.284431,134.928132 C258.665213,135.114118 259.067755,135.251393 259.45289,135.426307 C259.835848,135.612292 260.236214,135.749567 260.623525,135.926696 C261.008659,136.112681 261.411201,136.25217 261.800687,136.429299 C262.18147,136.61307 262.581836,136.750345 262.966971,136.92526 C263.352105,137.113459 263.754647,137.250734 264.141957,137.427863 C264.524916,137.613848 264.925282,137.748909 265.310417,137.926037 C265.693375,138.112023 266.095917,138.249298 266.483227,138.426426 C266.866186,138.612412 267.266552,138.749686 267.653862,138.924601 C268.036821,139.1128 268.437187,139.247861 268.824497,139.42499 C269.209632,139.610975 269.612174,139.74825 269.999484,139.927593 C270.384619,140.111364 270.782809,140.248639 271.170119,140.425768 C271.555254,140.611753 271.953444,140.749028 272.340754,140.923943 C272.725889,141.112142 273.126255,141.247203 273.513565,141.426545 C273.896524,141.610317 274.29689,141.747591 274.6842,141.92472 C274.738598,141.95129 274.795171,141.975645 274.851745,142 C275.667708,141.293699 276.461912,140.549758 277.232181,139.765963 C292.922606,123.800015 292.922606,97.9126405 277.232181,81.9444787" id="Fill-7" fill="#141FD1"></path>
                    </g>
                </g>
            </g>
        </g>
    </g>
</svg>