<?xml version="1.0" encoding="UTF-8"?>
<svg width="375px" height="235px" viewBox="0 0 375 235" version="1.1" xmlns="http://www.w3.org/2000/svg" xmlns:xlink="http://www.w3.org/1999/xlink">
    <!-- Generator: Sketch 62 (91390) - https://sketch.com -->
    <title>Artboard</title>
    <desc>Created with Sketch.</desc>
    <defs>
        <polygon id="path-1" points="0.102200823 0.324620622 138.761907 0.324620622 138.761907 81.0352485 0.102200823 81.0352485"></polygon>
        <polygon id="path-3" points="0.00011224081 0.140640698 140.976253 0.140640698 140.976253 72.4133277 0.00011224081 72.4133277"></polygon>
    </defs>
    <g id="Artboard" stroke="none" stroke-width="1" fill="none" fill-rule="evenodd">
        <g id="Group">
            <g transform="translate(-15.234375, -75.000000)">
                <path d="M143.942572,28.1829646 C133.461592,20.5548996 119.816988,20.4849026 109.482578,26.9178241 C98.0614678,34.0305295 86.7579007,41.3363381 75.3984199,48.5448855 C63.7719095,55.9230293 52.1454015,63.302602 40.5188887,70.6793169 C36.3920616,73.2973658 32.2638074,75.9168412 28.1369827,78.536319 C23.7131425,81.3453482 19.2642661,83.7170808 16.2956864,88.2504154 C13.7192042,92.181395 12.5421559,96.940643 12.9803162,101.631148 C13.5378567,107.607897 16.6949223,113.157458 21.5568498,116.696501 C27.9101287,121.319745 35.4153183,121.536648 42.5024556,118.820671 C51.013879,115.559796 59.5152479,112.270325 68.0094382,108.962266 C84.996394,102.349004 101.950325,95.6485214 118.871236,88.8636761 C124.023952,86.807488 129.139283,84.621204 134.307817,82.6207709 C140.844916,80.0924932 146.604925,77.0427816 150.815042,71.2483449 C160.808371,57.4986943 157.731151,38.2186101 143.942572,28.1829646" id="Fill-4" fill="#B5A6FA" transform="translate(84.787620, 71.423597) rotate(-20.000000) translate(-84.787620, -71.423597) "></path>
                <g id="Group-9" transform="translate(227.343750, 223.828125)">
                    <g id="Group-3" transform="translate(60.276442, 0.000000)">
                        <mask id="mask-2" fill="white">
                            <use xlink:href="#path-1"></use>
                        </mask>
                        <g id="Clip-2"></g>
                        <path d="M132.950533,32.9727927 C128.531271,26.9179352 122.273265,22.9917559 115.493104,21.3626312 C115.280209,21.3068775 115.066193,21.2633896 114.853297,21.2120961 C114.640402,21.1563424 114.426386,21.1139695 114.211249,21.062676 C113.999474,21.0058072 113.785458,20.9634344 113.571442,20.9121409 C113.359667,20.8563872 113.144531,20.8128992 112.931635,20.7616058 C112.717619,20.705852 112.503603,20.6634792 112.291828,20.6121857 C112.078933,20.556432 111.864917,20.512944 111.650901,20.4627657 C111.439126,20.4058968 111.221749,20.363524 111.007733,20.3111155 C110.797078,20.2553617 110.583062,20.2129889 110.371287,20.1616954 C110.157271,20.1059416 109.943255,20.0624537 109.728119,20.0111603 C109.516344,19.9554065 109.302328,19.9130337 109.087191,19.8617402 C108.876537,19.8059865 108.66028,19.7624985 108.448505,19.7112051 C108.234489,19.6554513 108.020473,19.6130785 107.808698,19.561785 C107.594682,19.5060313 107.380666,19.4625433 107.16553,19.4112499 C106.954875,19.3554961 106.738618,19.3120082 106.525723,19.2618298 C106.315068,19.2060761 106.099932,19.1625882 105.888157,19.1112947 C105.674141,19.0555409 105.459004,19.012053 105.244988,18.9607596 C105.032093,18.9050058 104.819197,18.862633 104.604061,18.8113395 C104.393406,18.7555858 104.17715,18.7120978 103.964254,18.6608044 C103.751359,18.6050506 103.537343,18.5615627 103.324447,18.5113843 C103.110431,18.4545155 102.897536,18.4121426 102.682399,18.3608492 C102.471745,18.3050954 102.255488,18.2616075 102.042592,18.2103141 C101.830817,18.1545603 101.61456,18.1121874 101.402785,18.060894 C101.188769,18.0051402 100.974753,17.9616523 100.760737,17.9103589 C100.548962,17.8546051 100.334946,17.8122323 100.120931,17.7609388 C99.9091556,17.70407 99.6928986,17.6616971 99.4800031,17.6104037 C99.2671076,17.5546499 99.0530917,17.511162 98.8413167,17.4609836 C98.6273007,17.4041148 98.4132847,17.3617419 98.1992688,17.3104485 C97.9874938,17.2546947 97.7723573,17.2112068 97.5594618,17.1599134 C97.3476869,17.1041596 97.1325504,17.0617867 96.9196549,17.0104933 C96.705639,16.9547395 96.491623,16.9112516 96.277607,16.8599582 C96.065832,16.8042044 95.8518161,16.7607165 95.6378001,16.7105381 C95.4260251,16.6536693 95.2097681,16.6112964 94.9968727,16.560003 C94.7839772,16.5042492 94.5699612,16.4607613 94.3570658,16.4094678 C94.1441703,16.3537141 93.9312748,16.3113412 93.7172588,16.2600478 C93.5043634,16.204294 93.2892269,16.1608061 93.0740904,16.1095126 C92.8634359,16.0537589 92.64942,16.011386 92.437645,15.9600926 C92.223629,15.9043388 92.0084926,15.8608509 91.7955971,15.8095575 C91.5815811,15.7538037 91.3686856,15.7103158 91.1535492,15.6590223 C90.9428947,15.6032686 90.7266377,15.5608957 90.5137422,15.5096023 C90.3008468,15.4538485 90.0857103,15.4103606 89.8739353,15.3590671 C89.6599194,15.3033134 89.4470239,15.2598255 89.2318874,15.208532 C89.0201124,15.1527782 88.8060965,15.1104054 88.59096,15.0591119 C88.3803055,15.0033582 88.1640485,14.9598703 87.9522736,14.9085768 C87.7393781,14.8528231 87.5242416,14.8104502 87.3113462,14.7591568 C87.0984507,14.703403 86.8855552,14.6599151 86.6715392,14.6086216 C86.4597643,14.5528679 86.2435073,14.5093799 86.0294913,14.4592016 C85.8188368,14.4034478 85.6025799,14.3599599 85.3908049,14.3086664 C85.1767889,14.2529127 84.9638935,14.2094248 84.748757,14.1581313 C84.5358615,14.1023775 84.322966,14.0588896 84.1078296,14.0087112 C83.8960546,13.9529575 83.6809181,13.9094696 83.4691431,13.8581761 C83.2551272,13.8024224 83.0411112,13.7600495 82.8282157,13.7087561 C82.6153203,13.6518872 82.4013043,13.6095144 82.1872883,13.5582209 C81.9743928,13.5024672 81.7592564,13.4589792 81.5452404,13.4076858 C81.3345859,13.351932 81.1194494,13.3095592 80.906554,13.2582657 C80.6936585,13.202512 80.478522,13.159024 80.264506,13.1077306 C80.0538516,13.0519768 79.8398356,13.009604 79.6258196,12.9583105 C79.4140447,12.9025568 79.1977877,12.8590689 78.9837717,12.8077754 C78.7719967,12.7520217 78.5568603,12.7085337 78.3450853,12.6583553 C78.1310693,12.6014865 77.9181739,12.5591137 77.7030374,12.5078202 C77.4901419,12.4520665 77.2761259,12.4085785 77.0632305,12.3572851 C76.8514555,12.3015313 76.6351985,12.2591585 76.422303,12.207865 C76.2094076,12.1521113 75.9953916,12.1086233 75.7824961,12.0573299 C75.5707212,12.0015761 75.3544642,11.9580882 75.1415687,11.9079098 C74.9286732,11.851041 74.7135368,11.8086682 74.5006413,11.7573747 C74.2877458,11.701621 74.0748503,11.658133 73.8597139,11.6079546 C73.6479389,11.5510858 73.4328024,11.5075979 73.2187864,11.4574195 C73.0070115,11.4016658 72.794116,11.3581778 72.582341,11.3079995 C72.3694456,11.2511306 72.1520681,11.2076427 71.9380521,11.1574643 C71.7262771,11.1005955 71.5111407,11.0582226 71.2993657,11.0069292 C71.0864702,10.9511754 70.8713337,10.9076875 70.6573178,10.8575091 C70.4455428,10.8006403 70.2304063,10.7582675 70.0175109,10.706974 C69.8057359,10.6512202 69.5894789,10.6077323 69.3765834,10.5564389 C69.163688,10.5006851 68.949672,10.4571972 68.735656,10.4070188 C68.523881,10.3512651 68.3098651,10.3077771 68.0947286,10.2564837 C67.8829536,10.2007299 67.6689377,10.157242 67.4560422,10.1070636 C67.2431467,10.0501948 67.0280102,10.0078219 66.8151148,9.95652849 C66.6022193,9.90077473 66.3882033,9.85728681 66.1741873,9.80710843 C65.9624124,9.7502396 65.7483964,9.70786675 65.5355009,9.6565733 C65.323726,9.60081954 65.107469,9.55733162 64.893453,9.50603816 C64.6805575,9.45028441 64.4654211,9.40679648 64.2525256,9.35661811 C64.0407506,9.29974928 63.8267346,9.25737643 63.6115982,9.20608297 C63.3998232,9.15032922 63.1846867,9.10684129 62.9706708,9.05666292 C62.7588958,8.99979409 62.5460003,8.95742124 62.3319843,8.90612778 C62.1179684,8.85037403 61.9039524,8.8068861 61.6910569,8.75559265 C61.4781614,8.6998389 61.2641455,8.65635097 61.05125,8.60617259 C60.8383545,8.55041884 60.6232181,8.50693091 60.4092021,8.45563746 C60.1974271,8.39988371 59.9834111,8.35639578 59.7705157,8.3062174 C59.5587407,8.24934858 59.3413632,8.20586065 59.1273472,8.15568227 C58.9155723,8.09992852 58.7015563,8.05644059 58.4897813,8.00626221 C58.2768859,7.94939339 58.0628699,7.90590546 57.8488539,7.85572708 C57.6348379,7.79997333 57.420822,7.7564854 57.206806,7.70519195 C56.995031,7.6494382 56.7798945,7.60595027 56.5669991,7.55577189 C56.3552241,7.49890306 56.1389671,7.45653021 55.9260717,7.40523676 C55.7131762,7.34948301 55.4991602,7.30599508 55.2862647,7.2558167 C55.0744898,7.19894787 54.8593533,7.15657502 54.6464578,7.10528157 C54.4335623,7.04952782 54.2184259,7.00603989 54.0044099,6.95474644 C53.7926349,6.89899268 53.578619,6.85550476 53.364603,6.80532638 C53.1517075,6.74845755 52.9376915,6.70496962 52.7236756,6.65479125 C52.5107801,6.59903749 52.2978846,6.55554957 52.0827481,6.50425611 C51.8709732,6.44850236 51.6558367,6.40501443 51.4418207,6.35483606 C51.2300458,6.2990823 51.0149093,6.25559438 50.8031343,6.20430092 C50.5902388,6.14854717 50.3751024,6.10505924 50.1622069,6.05488087 C49.9493114,5.99801204 49.7352954,5.95563919 49.5212795,5.90434573 C49.3095045,5.84859198 49.094368,5.80510405 48.880352,5.75492568 C48.6674566,5.69805685 48.4534406,5.65456892 48.2394246,5.60439054 C48.0276497,5.54863679 47.8147542,5.50514886 47.5996177,5.45385541 C47.3867222,5.39810166 47.1727063,5.35461373 46.9586903,5.30443535 C46.7469153,5.2486816 46.5328993,5.20519367 46.3211244,5.15501529 C46.1082289,5.09814647 45.8919719,5.05465854 45.677956,5.00336509 C45.4650605,4.94761133 45.2510445,4.90412341 45.038149,4.85394503 C44.8263741,4.79819128 44.6101171,4.75470335 44.3972216,4.7034099 C44.1843261,4.64765614 43.9703102,4.60416822 43.7562942,4.55398984 C43.5445192,4.49823609 43.3305033,4.45363308 43.1153668,4.40345471 C42.9035918,4.34770095 42.6884553,4.30421303 42.4755599,4.25403465 C42.2637849,4.1982809 42.0508894,4.15479297 41.837994,4.10349952 C41.6228575,4.04774576 41.407721,4.00425784 41.193705,3.95296438 C40.9819301,3.89721063 40.7679141,3.8537227 40.5561391,3.80354433 C40.3432436,3.74779057 40.1269867,3.70430265 39.9129707,3.65300919 C39.7011957,3.59725544 39.4871797,3.55376751 39.2731638,3.50358914 C39.0613888,3.44672031 38.8473728,3.40323238 38.6322364,3.353054 C38.4204614,3.29730025 38.2053249,3.25381232 37.9913089,3.20251887 C37.779534,3.14676512 37.5666385,3.10327719 37.351502,3.05309881 C37.1386065,2.99734506 36.9245906,2.95385713 36.7105746,2.90256368 C36.4987996,2.84680993 36.2847837,2.803322 36.0718882,2.75314362 C35.8589927,2.69738987 35.6438562,2.65278687 35.4298403,2.60260849 C35.2169448,2.54685474 35.0029288,2.50336681 34.7900333,2.45318843 C34.5782584,2.39631961 34.3620014,2.35283168 34.1491059,2.3026533 C33.937331,2.24689955 33.723315,2.20341162 33.509299,2.15323324 C33.2964035,2.09636442 33.0823876,2.05287649 32.8661306,2.00269811 C32.6543556,1.94582928 32.4414601,1.90234136 32.2285647,1.85327805 C32.0156692,1.79640923 31.8016532,1.7529213 31.5865167,1.70274292 C31.3747418,1.64587409 31.1607258,1.60238617 30.9467098,1.55220779 C30.7338144,1.49645404 30.5197984,1.45296611 30.3069029,1.40278773 C30.0951279,1.3459189 29.878871,1.30243098 29.664855,1.2522526 C29.45308,1.19538377 29.2379435,1.15189584 29.0250481,1.10171747 C22.5642308,-0.611037821 15.4131839,0.473930208 9.58096852,4.690029 C-0.691798232,12.1175439 -2.96865927,26.425072 4.49500775,36.646965 C6.96459522,40.0289877 10.1972449,42.5200654 13.7806118,44.0967815 C13.9778203,44.1904478 14.1839927,44.2606975 14.3856832,44.3487884 C14.5817711,44.4424548 14.7879435,44.5127045 14.987393,44.6007954 C15.1857219,44.6944617 15.3918944,44.7647114 15.5924643,44.8528024 C15.7896728,44.9464687 15.9958452,45.0156033 16.1941742,45.1036943 C16.3925031,45.1973606 16.5975551,45.2676103 16.7970045,45.3557012 C16.9953334,45.4493675 17.2015059,45.5196173 17.4020758,45.6077082 C17.5959228,45.7002594 17.7987337,45.7693941 17.9948217,45.8552549 C18.1102334,45.828493 18.2256452,45.8017312 18.3421774,45.7805448 C18.5528319,45.7359418 18.7612453,45.6801881 18.9730203,45.6411604 C19.1825543,45.5965574 19.3898472,45.5419188 19.6005017,45.5017761 C19.8111562,45.4571731 20.0184491,45.4025344 20.2291036,45.3635068 C20.4397581,45.3177887 20.6481715,45.26315 20.8599465,45.2241224 C21.0694805,45.1784043 21.2778939,45.1237656 21.4896689,45.084738 C21.6992029,45.040135 21.9064958,44.9854963 22.1171503,44.9453536 C22.3278047,44.9007506 22.5362182,44.8461119 22.7479932,44.8070843 C22.9575271,44.7613662 23.1648201,44.7067275 23.3754746,44.6676999 C23.586129,44.6230969 23.7945425,44.5673432 24.005197,44.5283155 C24.2158514,44.4837125 24.4242649,44.4290739 24.6349194,44.3900462 C24.8455738,44.3443281 25.0539873,44.2896895 25.2657623,44.2506618 C25.4752962,44.2049438 25.6837097,44.1503051 25.8943641,44.1112775 C26.1038981,44.0666745 26.3100706,44.0120358 26.5218455,43.9730082 C26.7313795,43.9272901 26.939793,43.8726514 27.1504474,43.8336238 C27.3622224,43.7879057 27.5683949,43.733267 27.7801698,43.6942394 C27.9897038,43.6485213 28.1969967,43.5938826 28.4087717,43.554855 C28.6194262,43.510252 28.8278396,43.4544983 29.0396146,43.4154706 C29.2491486,43.3708676 29.457562,43.3162289 29.6682165,43.2760862 C29.8777505,43.2314832 30.0850434,43.1768446 30.2956979,43.1378169 C30.5063524,43.0932139 30.7136453,43.0385753 30.9254203,42.9984326 C31.1349542,42.9538296 31.3433677,42.8991909 31.5540222,42.8590482 C31.7646766,42.8144452 31.9730901,42.7598065 32.1837446,42.7207789 C32.394399,42.6750608 32.6028125,42.6204221 32.8145875,42.5813945 C33.0241214,42.5356764 33.2314144,42.4810377 33.4431894,42.4420101 C33.6527233,42.3974071 33.8600163,42.3427684 34.0706708,42.3037408 C34.2813252,42.2580227 34.4886182,42.203384 34.7003931,42.1643564 C34.9099271,42.1186383 35.1183406,42.0639997 35.328995,42.024972 C35.5396495,41.979254 35.748063,41.9246153 35.9598379,41.8855876 C36.1693719,41.8409846 36.3777854,41.786346 36.5884398,41.7462033 C36.7979738,41.7016003 37.0063873,41.6469616 37.2170417,41.607934 C37.4276962,41.5622159 37.6349891,41.5086923 37.8467641,41.4685496 C38.0562981,41.4239466 38.2647115,41.3693079 38.4764865,41.3302803 C38.6860205,41.2845622 38.8944339,41.2299235 39.1050884,41.1908959 C39.3157429,41.1451778 39.5230358,41.0905391 39.7359313,41.0515115 C39.9454653,41.0057934 40.1516377,40.9522698 40.3622922,40.9121271 C40.5729467,40.8675241 40.7813601,40.8128854 40.9931351,40.7727427 C41.202669,40.7281397 41.409962,40.6735011 41.6206165,40.6344734 C41.8301504,40.5887554 42.0385639,40.5341167 42.2492184,40.4950891 C42.4598728,40.449371 42.6671658,40.3947323 42.8789408,40.3557047 C43.0895952,40.3111017 43.2980087,40.256463 43.5086632,40.2163203 C43.7193176,40.1717173 43.9266106,40.1170786 44.137265,40.078051 C44.3479195,40.0323329 44.556333,39.9776942 44.7681079,39.9386666 C44.9776419,39.8929485 45.1849349,39.8394249 45.3955893,39.7992822 C45.6051233,39.7546792 45.8135368,39.7000405 46.0253117,39.6598978 C46.2348457,39.6152948 46.4421386,39.5606562 46.6527931,39.5216285 C46.8634476,39.4759105 47.0707405,39.4212718 47.2825155,39.3822441 C47.4920495,39.3365261 47.7004629,39.2830025 47.9122379,39.2428598 C48.1228924,39.1982568 48.3313058,39.1436181 48.5419603,39.1034754 C48.7514943,39.0588724 48.9599077,39.0042337 49.1705622,38.9652061 C49.3800962,38.919488 49.5896301,38.8648493 49.8002846,38.8258217 C50.0109391,38.7801036 50.218232,38.72658 50.4288865,38.6875524 C50.6395409,38.6418343 50.8468339,38.5871956 51.0586089,38.548168 C51.2681428,38.5024499 51.4754358,38.4478113 51.6872108,38.4087836 C51.8978652,38.3630655 52.1062787,38.3084269 52.3180537,38.2693992 C52.5275876,38.2236812 52.7337601,38.1701576 52.9444145,38.1311299 C53.155069,38.0854119 53.3634825,38.0307732 53.5752574,37.9906305 C53.7847914,37.9460275 53.9920844,37.8913888 54.2027388,37.8523612 C54.4122728,37.8066431 54.6206863,37.7531195 54.8324612,37.7129768 C55.0419952,37.6672587 55.2504087,37.6137351 55.4610631,37.5747075 C55.6717176,37.5289894 55.880131,37.4743507 56.091906,37.4353231 C56.30144,37.389605 56.5098534,37.3349663 56.7205079,37.2959387 C56.9300419,37.2502206 57.1384553,37.196697 57.3491098,37.1576694 C57.5586438,37.1119513 57.7659367,37.0573127 57.9777117,37.018285 C58.1872457,36.972567 58.3956591,36.9179283 58.6063136,36.8789006 C58.8169681,36.8331826 59.024261,36.7785439 59.236036,36.7395163 C59.4466904,36.6937982 59.6551039,36.6391595 59.8668789,36.6001319 C60.0764128,36.5544138 60.2848263,36.5008902 60.4954808,36.4618626 C60.7050147,36.4161445 60.9123077,36.3615058 61.1229622,36.3224782 C61.3336166,36.2767601 61.5420301,36.2221214 61.7526846,36.1830938 C61.9622185,36.1373757 62.1717525,36.0838521 62.3824069,36.0448245 C69.0404327,34.5929968 76.2777582,36.4261802 81.4556002,41.578942 C89.5355436,49.6208633 89.5355436,62.6583209 81.4556002,70.6991271 C81.0589423,71.0938637 80.6488384,71.4685289 80.2297705,71.8253529 C80.4012074,71.8989479 80.5760057,71.9613921 80.7463221,72.0383322 C80.9435306,72.1319986 81.1508235,72.2000181 81.3491525,72.2903392 C81.5463609,72.3828904 81.7547743,72.4520251 81.9531033,72.5412311 C82.1503117,72.6360125 82.3587252,72.7040321 82.5570541,72.7932381 C82.7542626,72.8869044 82.9615555,72.956039 83.158764,73.045245 C83.3559724,73.1389113 83.5643859,73.208046 83.7638353,73.297252 C83.9599232,73.3909183 84.1672162,73.4600529 84.3677861,73.5492589 C84.5638741,73.6429253 84.7700465,73.7109448 84.9706165,73.8001508 C85.1667044,73.8938171 85.3728769,73.9629518 85.5734468,74.0521578 C85.7706552,74.1458241 85.9757072,74.2138437 86.1751566,74.3030497 C86.3734856,74.396716 86.579658,74.4658506 86.777987,74.5550566 C86.9774364,74.648723 87.1836089,74.7189727 87.3830583,74.8081787 C87.5813873,74.9007299 87.7864392,74.9698646 87.9858886,75.0590706 C88.1830971,75.1527369 88.3892695,75.2207565 88.5875985,75.3099625 C88.7859274,75.4036288 88.9943409,75.4727634 89.1926698,75.5619694 C89.3898783,75.6567508 89.5982917,75.7247704 89.7955002,75.8139764 C89.9927086,75.9076427 90.2011221,75.9767773 90.3983305,76.0659834 C90.5966594,76.1596497 90.8050729,76.2287843 91.0034018,76.3179903 C91.2006103,76.4116566 91.4079032,76.4796762 91.6062322,76.5688822 C91.8023201,76.6625485 92.0084926,76.7316832 92.2090625,76.8208892 C92.4051504,76.9145555 92.6124434,76.9836901 92.8130133,77.0728961 C93.0091013,77.1665624 93.2152737,77.234582 93.4158437,77.323788 C93.6130521,77.4185694 93.8192246,77.486589 94.0197945,77.5769101 C94.2170029,77.6705764 94.4231754,77.7385959 94.6215043,77.8278019 C94.8209538,77.9214682 95.0271262,77.9906029 95.2265757,78.0798089 C104.965983,82.701795 116.878045,82.0082183 126.221915,75.2519786 C139.811369,65.4259372 142.825521,46.4975381 132.950533,32.9727927" id="Fill-1" fill="#9CE6C6" mask="url(#mask-2)"></path>
                    </g>
                    <g id="Group-6" transform="translate(0.000000, 45.915275)">
                        <mask id="mask-4" fill="white">
                            <use xlink:href="#path-3"></use>
                        </mask>
                        <g id="Clip-5"></g>
                        <path d="M140.285972,25.9616449 C140.086183,25.8719458 139.878538,25.802429 139.680994,25.708245 C139.481205,25.6185459 139.274682,25.5490291 139.077138,25.4548451 C138.87735,25.3662672 138.670827,25.2967504 138.473283,25.2025664 C138.273494,25.1128673 138.064726,25.0433505 137.868305,24.9491665 C137.668516,24.8594674 137.460871,24.7899506 137.263327,24.6957665 C137.063538,24.6060674 136.857015,24.5365506 136.659471,24.4423666 C136.459683,24.3537887 136.25316,24.284272 136.055616,24.1889667 C135.855827,24.1003888 135.649304,24.030872 135.45176,23.936688 C135.251972,23.8469889 135.044326,23.7774721 134.84566,23.6832881 C134.646994,23.593589 134.440471,23.5251934 134.244049,23.4310094 C134.044261,23.3413103 133.835493,23.2717935 133.636826,23.1764882 C133.43816,23.0879103 133.231637,23.0183935 133.034093,22.9242095 C132.834305,22.8345104 132.627782,22.7661149 132.430238,22.6719308 C132.230449,22.5822317 132.022804,22.5127149 131.824137,22.4174096 C131.625471,22.3277106 131.417826,22.259315 131.220282,22.1640097 C131.020493,22.0754319 130.81397,22.0059151 130.616426,21.911731 C130.416638,21.8220319 130.210114,21.7525151 130.012571,21.6583311 C129.812782,21.5697532 129.606259,21.5002365 129.408715,21.4060524 C129.208926,21.3163533 129.001281,21.2468365 128.803737,21.1526525 C128.603948,21.0629534 128.397425,20.9934366 128.198759,20.8992526 C128.000093,20.8095535 127.79357,20.7400367 127.596026,20.6458526 C127.395115,20.5572748 127.188592,20.4866367 126.989926,20.3924527 C126.790137,20.3038748 126.583614,20.2343581 126.38607,20.140174 C126.186281,20.0504749 125.979758,19.9809581 125.782215,19.8867741 C125.582426,19.797075 125.375903,19.7275582 125.178359,19.6333741 C124.97857,19.5447963 124.770925,19.4752795 124.573381,19.3799742 C124.373592,19.2913964 124.167069,19.2218796 123.968403,19.1276955 C123.769737,19.0379964 123.563214,18.9684796 123.36567,18.8742956 C123.165881,18.7857178 122.958236,18.7150797 122.760692,18.6208957 C122.559781,18.5311966 122.353258,18.4616798 122.155714,18.3674957 C121.955925,18.2789179 121.749402,18.2094011 121.551858,18.1152171 C121.353192,18.025518 121.145547,17.9560012 120.949125,17.8629384 C120.748214,17.7732393 120.540569,17.7026012 120.343025,17.6084172 C120.143236,17.5198393 119.936713,17.4492013 119.739169,17.3561385 C119.539381,17.2664394 119.331735,17.1969226 119.134191,17.1027386 C118.934403,17.0130395 118.72788,16.9435227 118.529213,16.8493386 C118.330547,16.7596396 118.124024,16.691244 117.927603,16.59706 C117.726692,16.5073609 117.520169,16.4378441 117.321502,16.34366 C117.121714,16.2539609 116.915191,16.1844441 116.716524,16.0902601 C116.517858,16.000561 116.310213,15.9310442 116.113791,15.8368602 C115.91288,15.7482823 115.706357,15.6776443 115.508813,15.5834602 C115.309025,15.4948824 115.102501,15.4253656 114.904958,15.3311816 C114.705169,15.2414825 114.497524,15.1719657 114.298857,15.0777816 C114.100191,14.9880825 113.893668,14.9185657 113.696124,14.8243817 C113.496335,14.7358038 113.28869,14.6651658 113.091146,14.5709818 C112.891358,14.4824039 112.684834,14.4128871 112.487291,14.3187031 C112.287502,14.229004 112.080979,14.1594872 111.884557,14.0664244 C111.683646,13.9767253 111.476001,13.9060873 111.278457,13.8119032 C111.078668,13.7233254 110.872145,13.6526873 110.673479,13.5585033 C110.47369,13.4699254 110.267167,13.3992874 110.069624,13.3051034 C109.869835,13.2165255 109.663312,13.1470087 109.464646,13.0528247 C109.265979,12.9642468 109.059456,12.8936088 108.863035,12.800546 C108.662124,12.7108469 108.454478,12.6413301 108.256934,12.5460248 C108.057146,12.457447 107.850623,12.3879302 107.653079,12.2937461 C107.45329,12.204047 107.246767,12.1345302 107.049223,12.0403462 C106.849435,11.9517683 106.641789,11.8811303 106.443123,11.7869463 C106.244457,11.6983684 106.037934,11.6288516 105.84039,11.5346676 C105.640601,11.4449685 105.432956,11.3754517 105.234289,11.2801464 C105.034501,11.1915686 104.827978,11.1220518 104.630434,11.0278677 C104.430645,10.9392899 104.224122,10.8686518 104.026578,10.7744678 C103.82679,10.6858899 103.620267,10.6152519 103.422723,10.5210679 C103.222934,10.43249 103.016411,10.3629732 102.818867,10.2687892 C102.619079,10.1790901 102.411433,10.1095733 102.213889,10.0153892 C102.014101,9.92681139 101.806455,9.85617336 101.608911,9.76198932 C101.410245,9.67341147 101.203722,9.60389467 101.006178,9.50971063 C100.805267,9.42001154 100.598744,9.35049474 100.400078,9.2563107 C100.200289,9.16661161 99.9937661,9.09709481 99.7962222,9.00291077 C99.5964336,8.91433292 99.3899105,8.84369489 99.1912443,8.74951084 C98.992578,8.66093299 98.7849325,8.59029496 98.5873887,8.49611091 C98.3887225,8.40753306 98.1821994,8.33801627 97.9846556,8.24383222 C97.7837445,8.15525437 97.5772214,8.08461634 97.3785552,7.99043229 C97.1787666,7.90185444 96.9722435,7.83121641 96.7746996,7.73703236 C96.574911,7.64845451 96.3683879,7.57893772 96.1708441,7.48475367 C95.9710554,7.39505458 95.7634099,7.32553779 95.5658661,7.23135375 C95.3660775,7.14277589 95.1595544,7.07213786 94.9620106,6.97795382 C94.7622219,6.88937597 94.5556988,6.81873793 94.358155,6.72455389 C94.157244,6.63597604 93.9518433,6.56645924 93.7542995,6.4722752 C93.5545108,6.38369735 93.3468653,6.31305931 93.1493215,6.21887527 C92.9495328,6.13029742 92.7418873,6.05965939 92.5443435,5.96547534 C92.3445549,5.87689749 92.1380318,5.80625946 91.940488,5.71207541 C91.7406993,5.62349756 91.5330538,5.55285953 91.33551,5.45867548 C91.1368438,5.37009763 90.9303207,5.30058084 90.7338993,5.20639679 C90.5329882,5.11781894 90.3264651,5.04718091 90.1277989,4.95299687 C89.9280102,4.86441901 89.7214872,4.79490222 89.5228209,4.69959694 C89.3230323,4.61101909 89.1165092,4.54150229 88.917843,4.44619701 C88.7191767,4.35761916 88.5115312,4.28810236 88.3139874,4.19391832 C88.1141988,4.10534047 87.9076757,4.03470243 87.7101318,3.94051839 C87.5103432,3.85194054 87.3038201,3.7813025 87.1062763,3.68711846 C86.9064876,3.59854061 86.6999646,3.52902381 86.5024207,3.43483977 C86.3026321,3.34626192 86.0949866,3.27562389 85.8974428,3.18143984 C85.6976541,3.09286199 85.491131,3.02222396 85.2935872,2.92916115 C85.0937986,2.83946206 84.8861531,2.76882403 84.6874868,2.67463998 C84.4888206,2.58606213 84.2822975,2.51654534 84.0836313,2.42236129 C83.8838426,2.33378344 83.6773195,2.26314541 83.4797757,2.16896137 C83.2799871,2.08038351 83.073464,2.00974548 82.8759202,1.91556144 C82.6750091,1.82698359 82.468486,1.75634555 82.2698198,1.66216151 C82.0711536,1.57358366 81.8646305,1.50406686 81.6682091,1.40988282 C81.467298,1.32130497 81.2607749,1.25066693 81.0621087,1.15648289 C80.86232,1.06790504 80.6569194,0.997267005 80.4593755,0.9042042 C80.2595869,0.815626349 80.0519414,0.744988315 79.8543976,0.649683032 C79.6534865,0.56222642 79.4469634,0.491588387 79.2494196,0.397404342 C79.049631,0.308826491 78.8431079,0.238188458 78.6466865,0.144004414 C78.6433192,0.142883175 78.639952,0.141761936 78.6365848,0.140640698 C78.5434249,0.161944232 78.4491426,0.184369004 78.3559828,0.204551299 C78.1438476,0.243794651 77.9350797,0.298735344 77.724067,0.344706127 C77.5130543,0.383949479 77.3042864,0.438890171 77.0932736,0.484860955 C76.8822609,0.524104307 76.673493,0.579044999 76.4636027,0.623894544 C76.25259,0.664259135 76.0449445,0.719199827 75.8339318,0.764049372 C75.622919,0.803292724 75.4141511,0.859354655 75.2031384,0.9042042 C74.9921257,0.943447552 74.7833578,0.998388244 74.5734675,1.04435903 C74.3624547,1.08360238 74.1548092,1.13854307 73.9437965,1.18339262 C73.7327838,1.22263597 73.5251383,1.27757666 73.3141256,1.32354744 C73.1019905,1.3627908 72.8932225,1.41773149 72.6822098,1.46370227 C72.4711971,1.50294562 72.2624292,1.55788632 72.0514165,1.60273586 C71.8404037,1.64310045 71.6327582,1.69804114 71.4217455,1.74289069 C71.2107328,1.78213404 71.0019649,1.83819597 70.7920746,1.88304552 C70.5810619,1.92228887 70.3734164,1.97722956 70.163526,2.02207911 C69.9513909,2.0624437 69.7437454,2.11738439 69.5327327,2.16223393 C69.32172,2.20147729 69.1129521,2.25753922 68.9019393,2.30238876 C68.6898042,2.34163211 68.4821587,2.39769404 68.271146,2.44254359 C68.0601333,2.48178694 67.8513654,2.53672763 67.6403526,2.58157718 C67.4304623,2.62194177 67.2216944,2.67688246 67.0118041,2.72173201 C66.8007914,2.76097536 66.5920235,2.81703729 66.3810108,2.86188683 C66.169998,2.90113019 65.9612301,2.95607088 65.7513398,3.00204166 C65.5403271,3.04128501 65.3315592,3.09622571 65.1194241,3.14107525 C64.9084113,3.18143984 64.7007658,3.23638053 64.4897531,3.28123008 C64.2787404,3.32159467 64.0699725,3.37653536 63.8600822,3.42138491 C63.6490694,3.46062826 63.441424,3.51669019 63.2304112,3.56153973 C63.0193985,3.60078309 62.811753,3.65572378 62.6007403,3.70057332 C62.3886052,3.74093791 62.1798372,3.79587861 61.9688245,3.84072815 C61.7578118,3.8799715 61.5490439,3.93603343 61.3391536,3.98088298 C61.1281409,4.02012633 60.919373,4.07618826 60.7094826,4.12103781 C60.4973475,4.16028116 60.289702,4.21634309 60.0786893,4.2600714 C59.8676766,4.30043599 59.6600311,4.35537668 59.4490183,4.40022622 C59.2380056,4.43946958 59.0303601,4.49441027 58.8193474,4.53925981 C58.6083347,4.5796244 58.3995668,4.6345651 58.1885541,4.67941464 C57.9764189,4.71977923 57.7687734,4.77471992 57.5577607,4.81956947 C57.346748,4.85993406 57.1379801,4.91487475 56.9269674,4.9597243 C56.7159546,4.99896765 56.5083091,5.05502958 56.2984188,5.09875789 C56.0874061,5.13912248 55.8786382,5.19406317 55.6676255,5.23891271 C55.4554903,5.2792773 55.2478448,5.334218 55.0368321,5.37906754 C54.8258194,5.41943213 54.6181739,5.47437282 54.4082836,5.51922237 C54.1961484,5.55846572 53.9873805,5.61340641 53.7774902,5.6593772 C53.5653551,5.69862055 53.3565872,5.75356124 53.1455745,5.79841079 C52.9356842,5.83877538 52.7269162,5.89371607 52.5170259,5.93856561 C52.3060132,5.97780897 52.0972453,6.0338709 51.8862326,6.07872044 C51.6752199,6.11796379 51.466452,6.17402573 51.2565616,6.21887527 C51.0455489,6.25811862 50.836781,6.31305931 50.6268907,6.35790886 C50.4147556,6.39827345 50.2059877,6.45321414 49.9949749,6.49806369 C49.7839622,6.53842828 49.5751943,6.59336897 49.365304,6.63821851 C49.1542913,6.67746187 48.9466458,6.73240256 48.7367555,6.7772521 C48.5246203,6.81761669 48.3158524,6.87255739 48.1048397,6.91740693 C47.893827,6.95777152 47.6850591,7.01271221 47.4751688,7.05756176 C47.264156,7.09680511 47.0565105,7.15286704 46.8454978,7.19659535 C46.6344851,7.23695994 46.4257172,7.29190063 46.2158269,7.33675018 C46.0036917,7.37711477 45.7949238,7.43205546 45.5839111,7.476905 C45.3728984,7.51726959 45.1652529,7.57221029 44.9542402,7.61705983 C44.742105,7.65630318 44.5344595,7.71236512 44.3234468,7.75721466 C44.1124341,7.79645801 43.9036662,7.85251994 43.6937759,7.89624825 C43.4827632,7.93661284 43.2751177,7.99155353 43.0652273,8.03640308 C42.8530922,8.07564643 42.6454467,8.13170836 42.434434,8.1765579 C42.2222989,8.21580126 42.013531,8.27186319 41.8025182,8.31671273 C41.5915055,8.35595608 41.3827376,8.41089678 41.1728473,8.45574632 C40.9618346,8.49611091 40.7530667,8.5510516 40.5431763,8.59590115 C40.3310412,8.6351445 40.1222733,8.69120643 39.912383,8.73605598 C39.7013703,8.77529933 39.4937248,8.83136126 39.2838345,8.87508957 C39.0716993,8.91545416 38.8640538,8.97039485 38.6541635,9.01524439 C38.4420284,9.05560898 38.2332605,9.11054968 38.0211254,9.15539922 C37.8101126,9.19464257 37.6024671,9.25070451 37.3914544,9.29555405 C37.1804417,9.3347974 36.9716738,9.39085933 36.7617835,9.43458764 C36.5507707,9.47495223 36.3420028,9.52989292 36.1321125,9.57474247 C35.9210998,9.61398582 35.7134543,9.67004775 35.5024416,9.71377606 C35.2903064,9.75414065 35.0815385,9.81020258 34.8705258,9.85393088 C34.6595131,9.89429547 34.4507452,9.95035741 34.2408549,9.99408571 C34.0287197,10.0344503 33.8210742,10.089391 33.6100615,10.1342405 C33.3990488,10.1746051 33.1902809,10.2295458 32.9803906,10.2743954 C32.7693779,10.3136387 32.5617324,10.3697007 32.3507196,10.413429 C32.1397069,10.4537935 31.930939,10.5098555 31.7199263,10.5535838 C31.5089136,10.5939484 31.3012681,10.6488891 31.0913778,10.6937386 C30.8792426,10.732982 30.6704747,10.7890439 30.459462,10.8338934 C30.2484493,10.8731368 30.0396814,10.9291987 29.8297911,10.9740483 C29.6176559,11.0132916 29.408888,11.0693536 29.1989977,11.1130819 C28.987985,11.1534464 28.7803395,11.2083871 28.5704492,11.2532367 C28.358314,11.29248 28.1495461,11.348542 27.9385334,11.3933915 C27.7275207,11.4326349 27.5198752,11.4886968 27.3099849,11.5324251 C27.0978497,11.5727897 26.8890818,11.6277304 26.6780691,11.6725799 C26.4670564,11.7129445 26.2582885,11.7678852 26.0472758,11.8127348 C25.8373854,11.8519781 25.62974,11.90804 25.4187272,11.9517683 C25.2077145,11.9921329 24.9989466,12.0481949 24.7879339,12.0919232 C18.9761047,13.1884945 13.4213071,15.977015 8.92494023,20.4698182 C-2.97483042,32.3560688 -2.97483042,51.626797 8.92494023,63.5130476 C17.9681823,72.5479885 31.2788199,74.6962817 42.3715791,69.9949281 C42.5736126,69.9153202 42.770034,69.8211361 42.9698227,69.735922 C43.1696113,69.656314 43.3637879,69.5632512 43.5624541,69.4791583 C43.7633652,69.3984292 43.9586642,69.3053664 44.1584528,69.2201522 C44.3593639,69.1405443 44.5546629,69.0463602 44.7533291,68.9622673 C44.9542402,68.8826594 45.1495392,68.7884754 45.3493278,68.7043825 C45.5491165,68.6236533 45.7432931,68.5305905 45.9419593,68.4464976 C46.1428703,68.3668896 46.3392918,68.2727056 46.5390804,68.1874915 C46.738869,68.1078835 46.9352905,68.0136995 47.1350791,67.9296066 C47.3337453,67.8499986 47.5290443,67.7558146 47.7277106,67.6717217 C47.9286216,67.5921137 48.1239206,67.4979297 48.3237093,67.4138368 C48.5234979,67.3331076 48.7199193,67.2400448 48.9185856,67.1548307 C49.1194966,67.0752227 49.3147956,66.9810387 49.5134619,66.8969458 C49.7143729,66.8173379 49.9096719,66.7231538 50.1083382,66.6390609 C50.3081268,66.559453 50.5034258,66.4652689 50.702092,66.381176 C50.9041255,66.3004469 51.0994245,66.2062628 51.2992131,66.1221699 C51.4990018,66.042562 51.6943008,65.9483779 51.892967,65.864285 C52.0927557,65.7846771 52.2891771,65.6916143 52.4878433,65.6064001 C52.6887544,65.5267922 52.8840534,65.4326082 53.083842,65.3485153 C53.2836307,65.2677861 53.4800521,65.1747233 53.6787183,65.0895091 C53.878507,65.0099012 54.073806,64.9168384 54.2724722,64.8327455 C54.4733832,64.7520163 54.6686823,64.6589535 54.8684709,64.5737394 C55.0682595,64.4941314 55.264681,64.3999474 55.4633472,64.3158545 C55.6642582,64.2351253 55.8595573,64.1420625 56.0582235,64.0579696 C56.2591345,63.9772404 56.4544335,63.8830564 56.6542222,63.7989635 C56.8540108,63.7193555 57.0493098,63.6251715 57.2479761,63.5410786 C57.4488871,63.4614707 57.6441861,63.3684079 57.8428524,63.2831937 C58.0437634,63.2035858 58.2390624,63.1094017 58.4388511,63.0253088 C58.6386397,62.9445797 58.8339387,62.8515169 59.0337274,62.7663027 C59.2346384,62.6866948 59.4299374,62.593632 59.6286036,62.5084178 C59.8283923,62.4288099 60.0248137,62.3346258 60.2234799,62.2505329 C60.424391,62.170925 60.6185676,62.076741 60.8172338,61.9926481 C61.0192673,61.9130401 61.2145663,61.8188561 61.4154773,61.7336419 C61.6141436,61.654034 61.8094426,61.5609712 62.0069864,61.4768783 C62.2078975,61.3961491 62.4043189,61.3019651 62.6041075,61.2178722 C62.8038962,61.1382642 62.9991952,61.0440802 63.1978614,60.9599873 C63.3987724,60.8803794 63.5940715,60.7861953 63.7938601,60.7009812 C63.9936487,60.6213732 64.1889477,60.5283104 64.3864916,60.4442175 C64.588525,60.3634883 64.783824,60.2704255 64.9836127,60.1852114 C65.1845237,60.1056035 65.3798227,60.0114194 65.578489,59.9273265 C65.7794,59.8477186 65.974699,59.7535345 66.1733653,59.6683204 C66.3742763,59.5887125 66.5695753,59.4956497 66.7682416,59.4104355 C66.9691526,59.3308276 67.1644516,59.2377648 67.3631178,59.1525506 C67.5629065,59.0729427 67.7582055,58.9798799 67.9568717,58.8946658 C68.1577828,58.8150578 68.3542042,58.7208738 68.5539928,58.6367809 C68.7549039,58.5560517 68.9502029,58.4629889 69.1488691,58.3777747 C69.3486578,58.2981668 69.5439568,58.205104 69.742623,58.1198899 C69.9435341,58.0402819 70.1388331,57.9472191 70.3386217,57.862005 C70.5384104,57.782397 70.7337094,57.6893342 70.9323756,57.6041201 C71.1332866,57.5245122 71.3297081,57.4303281 71.5283743,57.345114 C71.7292853,57.265506 71.9257068,57.1724432 72.124373,57.0872291 C72.3241616,57.0076212 72.5194606,56.9145583 72.7170045,56.8293442 C72.9179155,56.7497363 73.1143369,56.6555522 73.3141256,56.5714593 C73.5139142,56.4918514 73.7092132,56.3976673 73.9078795,56.3135744 C74.1087905,56.2328453 74.3040895,56.1397825 74.5027558,56.0545683 C74.7036668,55.9749604 74.8989658,55.8818976 75.0987545,55.7966834 C75.2985431,55.7170755 75.4949645,55.6228915 75.6936307,55.5387986 C75.8934194,55.4591906 76.0887184,55.3650066 76.2873846,55.2809137 C76.4882957,55.2013057 76.6835947,55.1071217 76.8833833,55.0219075 C77.0842944,54.9422996 77.2795934,54.8492368 77.4782596,54.7640227 C77.6791707,54.6844147 77.8744697,54.5913519 78.0731359,54.5061378 C78.274047,54.4265298 78.469346,54.3323458 78.6691346,54.2471317 C78.8689233,54.1675237 79.0642223,54.0744609 79.2617661,53.990368 C79.4626771,53.9107601 79.6590986,53.816576 79.8588872,53.7313619 C80.0597982,53.651754 80.2550973,53.5575699 80.4537635,53.473477 C80.6535521,53.3938691 80.8499735,53.299685 81.0486398,53.2155921 C81.2484284,53.1359842 81.4437274,53.0429214 81.6423937,52.9577072 C81.8433047,52.8769781 82.0397261,52.7839153 82.2395148,52.6987011 C82.4393034,52.6190932 82.6346024,52.5260304 82.8321463,52.4408162 C83.0330573,52.3612083 83.2283563,52.2681455 83.428145,52.1829314 C83.629056,52.1033234 83.824355,52.0091394 84.0230212,51.9250465 C84.2239323,51.8443173 84.4203537,51.7512545 84.6190199,51.6660404 C84.8188086,51.5864324 85.01523,51.4933696 85.2138962,51.4081555 C85.4136849,51.3285475 85.6101063,51.2343635 85.8087725,51.1502706 C86.0085612,51.0695414 86.2038602,50.9764786 86.4025264,50.8923857 C86.6034375,50.8127778 86.7987365,50.719715 86.9985251,50.6345008 C87.1983138,50.5537716 87.3947352,50.4607088 87.5934014,50.3754947 C87.7943125,50.2958868 87.9896115,50.202824 88.1882777,50.1176098 C88.3891887,50.0380019 88.5844878,49.9438178 88.7842764,49.8586037 C88.984065,49.780117 89.1782416,49.6859329 89.3769079,49.60184 C89.5778189,49.5222321 89.7731179,49.4280481 89.9729066,49.3428339 C90.1738176,49.263226 90.370239,49.1701632 90.5689053,49.084949 C90.7698163,49.0053411 90.9651153,48.9122783 91.1637816,48.8270642 C91.3635702,48.7474562 91.5588692,48.6532722 91.756413,48.5691793 C91.9584465,48.4884501 92.1548679,48.3953873 92.3546566,48.3101732 C92.5544452,48.2305652 92.7486218,48.1375024 92.947288,48.0534095 C93.1481991,47.9726803 93.3434981,47.8796175 93.5432867,47.7944034 C93.7441978,47.7147954 93.9394968,47.6217326 94.138163,47.5365185 C94.3390741,47.4557893 94.5343731,47.3627265 94.7330393,47.2775124 C94.9339504,47.1979044 95.1303718,47.1048416 95.329038,47.0196275 C95.5288267,46.9400196 95.7241257,46.8469568 95.9227919,46.7617426 C96.1237029,46.6821347 96.3201244,46.5879506 96.5187906,46.5027365 C96.7185792,46.4231286 96.9150007,46.3300657 97.1125445,46.2448516 C97.3134555,46.1652437 97.5087545,46.0721809 97.7074208,45.988088 C97.9083318,45.9073588 98.1036308,45.814296 98.3034195,45.7290818 C98.5043305,45.6494739 98.6996295,45.5564111 98.8982958,45.471197 C99.0992068,45.391589 99.2945058,45.297405 99.4931721,45.2121908 C99.6940831,45.1325829 99.8893821,45.0395201 100.086926,44.9554272 C100.288959,44.874698 100.484258,44.7816352 100.684047,44.6952998 C100.883836,44.6168131 101.079135,44.5237503 101.277801,44.4385362 C101.478712,44.3589283 101.674011,44.2658654 101.872677,44.1806513 C102.073588,44.0999221 102.27001,44.0068593 102.468676,43.9216452 C102.669587,43.8420372 102.864886,43.7489744 103.063552,43.6637603 C103.263341,43.5841524 103.45864,43.4910896 103.657306,43.4058754 C103.858217,43.3262675 104.054639,43.2332047 104.254427,43.1468693 C104.454216,43.0672614 104.649515,42.9741986 104.847059,42.8901057 C105.04797,42.8104977 105.244391,42.7163137 105.443057,42.6310995 C105.643968,42.5514916 105.839267,42.4584288 106.037934,42.3732147 C106.238845,42.2936067 106.434144,42.2005439 106.63281,42.1153298 C106.832599,42.0357218 107.02902,41.942659 107.227686,41.8574449 C107.428597,41.7778369 107.623896,41.6836529 107.822563,41.5984388 C108.023474,41.5188308 108.219895,41.425768 108.418561,41.3405539 C108.61835,41.2609459 108.814771,41.1678831 109.013438,41.082669 C109.213226,41.0030611 109.409648,40.908877 109.608314,40.8236629 C109.809225,40.7451762 110.003401,40.6521134 110.202068,40.5668992 C110.402979,40.48617 110.5994,40.3931072 110.799189,40.3078931 C110.998977,40.2282852 111.194276,40.1352224 111.39182,40.0500082 C111.592731,39.9704003 111.789153,39.8773375 111.988941,39.7921233 C112.18873,39.7125154 112.384029,39.6183314 112.582695,39.5331172 C112.783606,39.4535093 112.978905,39.3604465 113.178694,39.2752323 C113.378483,39.1956244 113.573782,39.1025616 113.771325,39.0173475 C113.973359,38.9377395 114.16978,38.8446767 114.369569,38.7583413 C114.569358,38.6787334 114.764657,38.5867918 114.9622,38.5015777 C115.163112,38.4219697 115.358411,38.3277857 115.558199,38.2425716 C115.757988,38.1629636 115.954409,38.0699008 116.153075,37.9846867 C116.353987,37.9050787 116.549286,37.8120159 116.747952,37.7268018 C116.94774,37.6471939 117.144162,37.5541311 117.342828,37.4689169 C117.542617,37.389309 117.739038,37.2962462 117.937704,37.2099108 C118.138615,37.1303029 118.335037,37.03724 118.533703,36.9520259 C118.733492,36.872418 118.929913,36.7793552 119.127457,36.694141 C119.328368,36.6145331 119.524789,36.5214703 119.723456,36.4351349 C119.924367,36.3566482 120.119666,36.2635854 120.318332,36.17725 C120.518121,36.0976421 120.714542,36.0045793 120.913208,35.9193651 C121.114119,35.8397572 121.309418,35.7466944 121.508084,35.6614803 C121.708996,35.5818723 121.904295,35.4888095 122.101838,35.4035954 C122.303872,35.3239874 122.500293,35.2298034 122.698959,35.1445893 C122.898748,35.0649813 123.094047,34.9719185 123.292713,34.8867044 C123.492502,34.8070964 123.688923,34.7140336 123.88759,34.6288195 C124.088501,34.5492115 124.284922,34.4561487 124.483588,34.3698134 C124.683377,34.2902054 124.879798,34.1982639 125.078465,34.1119285 C125.278253,34.0334418 125.473552,33.940379 125.672219,33.8540436 C125.87313,33.7755569 126.069551,33.6813728 126.268217,33.5961587 C126.468006,33.5165508 126.664427,33.423488 126.863094,33.3382738 C127.064005,33.2586659 127.259304,33.1656031 127.45797,33.0803889 C127.658881,33.000781 127.855302,32.9077182 128.053969,32.8213828 C128.253757,32.7417749 128.449056,32.6498333 128.6466,32.5634979 C128.847511,32.48389 129.043932,32.3908272 129.243721,32.3056131 C129.444632,32.2260051 129.639931,32.1329423 129.838597,32.0466069 C130.038386,31.9681202 130.234807,31.8750574 130.432351,31.7887221 C130.633262,31.7091141 130.829684,31.6171725 131.02835,31.5308372 C131.229261,31.4512292 131.42456,31.3581664 131.623226,31.2729523 C131.824137,31.1933443 132.019436,31.1002815 132.21698,31.0150674 C132.419014,30.9354595 132.615435,30.8423967 132.814101,30.7560613 C133.01389,30.6764533 133.209189,30.5845118 133.406733,30.4981764 C133.607644,30.4185685 133.804065,30.3266269 134.002731,30.2402915 C134.203642,30.1606836 134.400064,30.0676208 134.59873,29.9812854 C134.798519,29.9027987 134.99494,29.8097359 135.192484,29.7234005 C137.254348,28.90826 139.211827,27.7533843 140.976253,26.253167 C140.94707,26.2397121 140.916765,26.2284997 140.889828,26.2150449 C140.688916,26.1253458 140.483516,26.055829 140.285972,25.9616449" id="Fill-4" fill="#A0D1FF" mask="url(#mask-4)"></path>
                    </g>
                    <path d="M141.614996,41.8055917 C136.478809,36.5858399 129.300819,34.7288237 122.696357,36.1983968 C122.485174,36.2390614 122.279549,36.2932808 122.070589,36.3395933 C121.86274,36.3791283 121.654892,36.4344773 121.447044,36.4807898 C121.238084,36.5203248 121.031347,36.5756738 120.823499,36.6208567 C120.614539,36.6615213 120.407802,36.7157407 120.199954,36.7620532 C119.989883,36.8015882 119.783146,36.8569372 119.574186,36.9032497 C119.364115,36.9427847 119.15849,36.9981337 118.950642,37.0444461 C118.74057,37.0839812 118.533833,37.1393302 118.325985,37.1856426 C118.117025,37.2251776 117.910289,37.2793971 117.70244,37.3257095 C117.493481,37.3663741 117.287855,37.4205936 117.078896,37.466906 C116.869936,37.5064411 116.663199,37.5617901 116.455351,37.6081025 C116.245279,37.6476375 116.038543,37.701857 115.829583,37.749299 C115.620623,37.788834 115.413886,37.8430535 115.206038,37.8893659 C114.995967,37.9300305 114.790341,37.98425 114.581382,38.0305624 C114.372422,38.0700974 114.166797,38.1254465 113.958948,38.1706293 C113.748877,38.2112939 113.54214,38.2666429 113.334292,38.3129554 C113.125332,38.3524904 112.918595,38.4067099 112.710747,38.4530223 C112.500676,38.4925573 112.293939,38.5479064 112.086091,38.5942188 C111.87602,38.6337538 111.669283,38.6891028 111.461434,38.7354153 C111.251363,38.7749503 111.045738,38.8302993 110.836778,38.8754822 C110.627818,38.9161468 110.422193,38.9703662 110.214345,39.0166787 C110.005385,39.0562137 109.797537,39.1115627 109.5908,39.1578752 C109.380729,39.1974102 109.175103,39.2527592 108.966144,39.2979421 C108.757184,39.3386067 108.550447,39.3939557 108.341487,39.4391386 C108.131416,39.4798032 107.925791,39.5340226 107.716831,39.5803351 C107.507871,39.6198701 107.301134,39.6752191 107.092175,39.7215316 C106.883215,39.7610666 106.677589,39.8164156 106.469741,39.8615985 C106.25967,39.9022631 106.054045,39.9564825 105.845085,40.002795 C105.636125,40.0434596 105.4305,40.097679 105.222652,40.1439915 C105.01258,40.1835265 104.805843,40.2388755 104.596884,40.285188 C104.387924,40.324723 104.182299,40.380072 103.97445,40.4252549 C103.764379,40.4659195 103.557642,40.5201389 103.348683,40.5664514 C103.139723,40.6059864 102.932986,40.6613354 102.724026,40.7076478 C102.515066,40.7471829 102.30833,40.8025319 102.100481,40.8488443 C101.891522,40.8883793 101.685896,40.9437284 101.478048,40.9889112 C101.267977,41.0295758 101.06124,41.0849249 100.85228,41.1301077 C100.64332,41.1696428 100.437695,41.2249918 100.229847,41.2713042 C100.019776,41.3108392 99.8130387,41.3661883 99.604079,41.4125007 C99.3951192,41.4520357 99.1883824,41.5073848 98.9805341,41.5525676 C98.7704629,41.5932322 98.5648376,41.6485812 98.3558778,41.6937641 C98.146918,41.7332991 97.9401812,41.7886482 97.7312214,41.8349606 C97.5233732,41.8744956 97.3177479,41.9298447 97.1098996,41.9750275 C96.9009398,42.0156921 96.6930915,42.0699116 96.4852432,42.116224 C96.275172,42.155759 96.0684352,42.2111081 95.8594754,42.2574205 C95.6505157,42.2969555 95.4437789,42.3523045 95.2359306,42.398617 C95.0258593,42.438152 94.820234,42.493501 94.6112742,42.5386839 C94.4023145,42.5793485 94.1966892,42.6346975 93.9888409,42.6798804 C93.7798811,42.7194154 93.5731443,42.7747644 93.365296,42.8210769 C93.1552248,42.8606119 92.948488,42.9159609 92.7395282,42.9622734 C92.5305684,43.0018084 92.3238316,43.0571574 92.1148719,43.1023403 C91.9059121,43.1430049 91.6991753,43.1983539 91.491327,43.2435368 C91.2823673,43.2842014 91.0756305,43.3384208 90.8666707,43.3847333 C90.6577109,43.4242683 90.4520856,43.4796173 90.2442373,43.5248002 C90.0352776,43.5654648 89.8285408,43.6208138 89.6206925,43.6659967 C89.4106212,43.7055317 89.2038844,43.7620103 88.9949247,43.8071932 C88.7859649,43.8467282 88.5792281,43.9020772 88.3713798,43.9483897 C88.1613086,43.9879247 87.9556833,44.0432737 87.7467235,44.0895861 C87.5377637,44.1291212 87.3310269,44.1844702 87.1231786,44.2296531 C86.9142189,44.2703176 86.7085936,44.3256667 86.5007453,44.3708495 C86.290674,44.4103846 86.0850487,44.4657336 85.8760889,44.5109165 C85.6660177,44.5515811 85.4592809,44.6069301 85.2503211,44.652113 C85.0413614,44.6927775 84.8346246,44.7481266 84.6278878,44.7933094 C84.416705,44.8328445 84.2110797,44.8893231 84.0021199,44.9345059 C83.7942717,44.9740409 83.5875349,45.02939 83.3796866,45.0745728 C83.1696153,45.1152374 82.96399,45.1705865 82.7550303,45.2157693 C82.5460705,45.2564339 82.3393337,45.3117829 82.1314854,45.3569658 C81.9225256,45.3965008 81.7157888,45.4518499 81.5068291,45.4981623 C81.2967578,45.5376973 81.090021,45.5930464 80.8821727,45.6393588 C80.6721015,45.6788938 80.4664762,45.7342428 80.2575164,45.7794257 C80.0485566,45.8200903 79.8429313,45.8754393 79.6361945,45.9206222 C79.4261233,45.9601572 79.2193865,46.0155062 79.0093152,46.0618187 C78.8948319,46.0832806 78.7792372,46.1103903 78.6658654,46.1375 C78.6680884,46.1386296 78.6714228,46.1408887 78.6747573,46.1420183 C78.8703792,46.2369023 79.074893,46.3069358 79.2727379,46.396172 C79.4683598,46.491056 79.6728736,46.5622191 79.8707185,46.6514552 C80.0674519,46.7463393 80.2719657,46.8175023 80.4709221,46.9067385 C80.6654325,47.0016225 80.8699464,47.071656 81.0677913,47.1608922 C81.2634132,47.2557762 81.4690385,47.3269392 81.6679949,47.417305 C81.8625053,47.5110595 82.0659076,47.5822225 82.2637525,47.6703291 C82.4593744,47.7663427 82.6649997,47.8375057 82.8628446,47.9267419 C83.059578,48.021626 83.2640918,48.0916594 83.4619367,48.1808956 C83.6575586,48.2757796 83.8620724,48.3469427 84.0599173,48.4361788 C84.2555392,48.5310629 84.4600531,48.6022259 84.6578979,48.6914621 C84.8546313,48.7863461 85.0591452,48.8575092 85.2581015,48.9467454 C85.4537235,49.0416294 85.6582373,49.1127924 85.8549707,49.200899 C86.0517041,49.2969126 86.2562179,49.3669461 86.4551743,49.4561823 C86.6507962,49.5510663 86.85531,49.6222294 87.0520434,49.7114655 C87.2476653,49.8063496 87.4532906,49.876383 87.650024,49.9656192 C87.8467574,50.0605033 88.0512712,50.1316663 88.2491161,50.2209025 C88.444738,50.3157865 88.6492519,50.3869495 88.8470967,50.4761857 C89.0438301,50.5710698 89.248344,50.6422328 89.4461889,50.731469 C89.6418108,50.826353 89.8474361,50.897516 90.0463924,50.9867522 C90.2409029,51.0816363 90.4465282,51.1527993 90.6443731,51.2420355 C90.839995,51.3369195 91.0433973,51.406953 91.2412422,51.4961892 C91.4368641,51.5910732 91.6413779,51.6622362 91.8392228,51.7514724 C92.0348447,51.8463564 92.24047,51.9163899 92.4372034,52.0056261 C92.6339368,52.1016397 92.8384507,52.1716732 93.037407,52.2620389 C93.2330289,52.3569229 93.4375428,52.4269564 93.6353877,52.5161926 C93.8310096,52.6110766 94.0355234,52.6822397 94.2333683,52.7714758 C94.4289902,52.8663599 94.6346155,52.9363933 94.8324604,53.0267591 C95.0280823,53.1216431 95.2337076,53.1916766 95.430441,53.2809128 C95.6260629,53.3757968 95.8305767,53.4469598 96.0295331,53.536196 C96.225155,53.6310801 96.4296688,53.7011135 96.6275137,53.7914793 C96.8231356,53.8863633 97.0276495,53.9563968 97.2254943,54.045633 C97.4211163,54.1416466 97.6267416,54.21168 97.8268094,54.3020458 C98.0213199,54.3969298 98.2247222,54.4669633 98.4225671,54.5561995 C98.618189,54.6510835 98.8227028,54.721117 99.0205477,54.8114827 C99.2161696,54.9063667 99.4217949,54.9764002 99.6196398,55.066766 C99.8152617,55.1605204 100.019776,55.2316835 100.21762,55.3209196 C100.413242,55.4158037 100.618868,55.4869667 100.817824,55.5762029 C101.012334,55.6710869 101.216848,55.7411204 101.414693,55.8314861 C101.610315,55.9263702 101.814829,55.9964036 102.012674,56.0856398 C102.209407,56.1805239 102.413921,56.2516869 102.611766,56.3409231 C102.807388,56.4358071 103.014125,56.5069701 103.209746,56.5962063 C103.405368,56.6910904 103.610994,56.7611238 103.807727,56.8514896 C104.004461,56.9463736 104.208974,57.0164071 104.406819,57.1056433 C104.602441,57.2005273 104.806955,57.2705608 105.0048,57.3609265 C105.201533,57.4558105 105.406047,57.5269736 105.605003,57.6162098 C105.799514,57.7110938 106.004028,57.7811273 106.201873,57.8703634 C106.398606,57.9663771 106.60312,58.0364105 106.802076,58.1267763 C106.997698,58.2216603 107.2011,58.2916938 107.398945,58.3809299 C107.594567,58.475814 107.800193,58.5458474 107.998037,58.6362132 C108.193659,58.7310972 108.399285,58.8022603 108.59713,58.8914964 C108.792751,58.9863805 108.997265,59.0564139 109.193999,59.1456501 C109.389621,59.2405342 109.594134,59.3105676 109.793091,59.4009334 C109.988713,59.4958174 110.193226,59.5658509 110.391071,59.6562166 C110.586693,59.7511007 110.791207,59.8211341 110.989052,59.9114999 C111.185785,60.0063839 111.391411,60.0764174 111.589256,60.1667831 C111.784877,60.2616672 111.989391,60.3317006 112.186125,60.4209368 C112.381747,60.5158209 112.58626,60.5858543 112.784105,60.6762201 C112.980839,60.7711041 113.186464,60.8411376 113.384309,60.9315033 C113.579931,61.0263874 113.784445,61.0964208 113.981178,61.185657 C114.177911,61.280541 114.382425,61.3517041 114.58027,61.4409402 C114.777004,61.5358243 114.981517,61.6058577 115.178251,61.6962235 C115.374984,61.7911075 115.579498,61.861141 115.777343,61.9515067 C115.972965,62.0463908 116.177479,62.1164242 116.375324,62.2056604 C116.570945,62.3005445 116.776571,62.3705779 116.974416,62.4609437 C117.170038,62.5558277 117.375663,62.6269907 117.573508,62.7162269 C117.76913,62.811111 117.973643,62.8811444 118.170377,62.9703806 C118.365999,63.0652647 118.571624,63.1364277 118.769469,63.2256639 C118.965091,63.3205479 119.169605,63.3905814 119.36745,63.4809471 C119.563071,63.5758312 119.768697,63.6458646 119.966542,63.7362304 C120.162164,63.8311144 120.367789,63.9011479 120.566745,63.9915136 C120.761256,64.0863977 120.96577,64.1564311 121.163614,64.2456673 C121.359236,64.3405513 121.56375,64.4105848 121.761595,64.5009505 C121.957217,64.5958346 122.161731,64.665868 122.359576,64.7562338 C122.557421,64.8511178 122.761934,64.9211513 122.959779,65.0115171 C123.15429,65.1064011 123.358803,65.1764345 123.556648,65.2656707 C123.75227,65.3605548 123.957896,65.4305882 124.15574,65.520954 C124.351362,65.615838 124.555876,65.6858715 124.753721,65.7762372 C124.949343,65.8711213 125.154968,65.9411547 125.351702,66.0303909 C125.547324,66.1264045 125.752949,66.196438 125.950794,66.2856742 C126.146416,66.3805582 126.35093,66.4505917 126.547663,66.5409574 C126.744396,66.6358415 126.950022,66.7058749 127.147867,66.7962407 C127.343488,66.8911247 127.548002,66.9611582 127.745847,67.0503943 C127.941469,67.1452784 128.145983,67.2153118 128.343828,67.3056776 C128.540561,67.4005616 128.745075,67.4705951 128.944031,67.5609609 C129.139653,67.6558449 129.344167,67.7258783 129.540901,67.8162441 C129.737634,67.9111281 129.942148,67.9811616 130.139993,68.0703978 C130.335615,68.1652818 130.540128,68.2353153 130.736862,68.325681 C130.933595,68.4205651 131.138109,68.4905985 131.335954,68.5809643 C131.532687,68.6758483 131.737201,68.7458818 131.936157,68.8362475 C132.130668,68.9311316 132.336293,69.001165 132.533027,69.0904012 C132.728649,69.1852853 132.933162,69.2553187 133.131007,69.3456845 C133.327741,69.4405685 133.533366,69.5117315 133.732322,69.6020973 C133.926833,69.6958518 134.131347,69.7658852 134.32808,69.8551214 C134.524813,69.951135 134.730439,70.0211685 134.928284,70.1115342 C135.123905,70.2064183 135.328419,70.2753221 135.525153,70.3656879 C135.720775,70.4605719 135.9264,70.5306054 136.124245,70.6209712 C136.319867,70.7158552 136.524381,70.7858887 136.722225,70.8751248 C136.917847,70.9711384 137.122361,71.0400423 137.320206,71.1304081 C137.516939,71.2252921 137.722565,71.2953256 137.92041,71.3868209 C138.117143,71.4805754 138.320545,71.5506088 138.51839,71.6409746 C138.715124,71.7358586 138.918526,71.8058921 139.116371,71.8951283 C139.313104,71.9911419 139.517618,72.0600458 139.715463,72.1515411 C139.911085,72.2452956 140.115599,72.315329 140.313444,72.4056948 C140.341231,72.4192496 140.370129,72.4316749 140.399028,72.4441002 C140.815836,72.0837668 141.221529,71.7042306 141.614996,71.3043622 C149.629937,63.1590191 149.629937,49.9520644 141.614996,41.8055917" id="Fill-7" fill="#141FD1"></path>
                </g>
            </g>
        </g>
    </g>
</svg>