<?xml version="1.0" encoding="UTF-8"?>
<svg width="410px" height="462px" viewBox="0 0 410 462" version="1.1" xmlns="http://www.w3.org/2000/svg" xmlns:xlink="http://www.w3.org/1999/xlink">
    <!-- Generator: Sketch 63.1 (92452) - https://sketch.com -->
    <title>Group 10</title>
    <desc>Created with Sketch.</desc>
    <defs>
        <polygon id="path-1" points="0.00127538949 0.219601627 245.685454 0.219601627 245.685454 251.709951 0.00127538949 251.709951"></polygon>
    </defs>
    <g id="06.-Tips" stroke="none" stroke-width="1" fill="none" fill-rule="evenodd">
        <g id="Artboard" transform="translate(-218.000000, -75.000000)">
            <g id="Group-10" transform="translate(218.000000, 75.000000)">
                <g id="Group-3">
                    <mask id="mask-2" fill="white">
                        <use xlink:href="#path-1"></use>
                    </mask>
                    <g id="Clip-2"></g>
                    <path d="M242.375855,41.8440135 C250.696236,66.2843828 242.812868,92.33947 224.509745,108.28427 C224.184127,108.577073 223.841372,108.848345 223.511471,109.132536 C223.194422,109.425338 222.851667,109.69661 222.521765,109.980801 C222.204717,110.273603 221.857677,110.544875 221.523491,110.833372 C221.206442,111.126174 220.863687,111.397446 220.53807,111.681637 C220.212453,111.970133 219.869697,112.245712 219.54408,112.529902 C219.222747,112.822704 218.884276,113.089671 218.554375,113.378167 C218.233042,113.675275 217.890287,113.946548 217.560385,114.230738 C217.239052,114.52354 216.896297,114.799119 216.562111,115.083309 C216.245062,115.371805 215.902307,115.643078 215.57669,115.927268 C215.255357,116.22007 214.908317,116.491343 214.5827,116.779839 C214.261367,117.068336 213.918612,117.343914 213.58871,117.628104 C213.267377,117.920907 212.924622,118.187873 212.59472,118.47637 C212.277672,118.769172 211.930632,119.04475 211.60073,119.328941 C211.283682,119.617437 210.940927,119.893015 210.611025,120.177206 C210.289692,120.470008 209.946937,120.74128 209.621319,121.025471 C209.295702,121.322579 208.952947,121.589546 208.627329,121.873736 C208.301712,122.166538 207.963241,122.442117 207.637624,122.726307 C207.312007,123.019109 206.973536,123.290382 206.643634,123.574572 C206.322301,123.867374 205.979546,124.142953 205.64536,124.427143 C205.328311,124.715639 204.985556,124.986912 204.655655,125.275408 C204.338606,125.56821 203.991566,125.835177 203.665949,126.123673 C203.344616,126.416475 203.001861,126.687748 202.671959,126.976244 C202.346342,127.264741 202.007871,127.536013 201.677969,127.824509 C201.356637,128.117312 201.013881,128.388584 200.679695,128.672774 C200.366931,128.965577 200.019892,129.236849 199.694274,129.52104 C199.372941,129.813842 199.030186,130.085114 198.700284,130.369305 C198.383236,130.666413 198.036196,130.937685 197.710579,131.21757 C197.380677,131.514678 197.046491,131.78595 196.716589,132.074447 C196.390972,132.362943 196.052501,132.634216 195.726884,132.922712 C195.401266,133.215514 195.058511,133.486787 194.728609,133.770977 C194.411561,134.063779 194.068806,134.330746 193.738904,134.619242 C193.417571,134.912044 193.070531,135.183317 192.744914,135.471813 C192.423581,135.764615 192.080826,136.035888 191.755209,136.315772 C191.429591,136.608574 191.086836,136.884153 190.761219,137.172649 C190.439886,137.45684 190.097131,137.732418 189.767229,138.016608 C189.445896,138.313716 189.107425,138.584989 188.768955,138.864873 C188.451906,139.161982 188.113436,139.433254 187.787818,139.717445 C187.462201,140.005941 187.115161,140.281519 186.789544,140.570016 C186.463927,140.858512 186.125456,141.13409 185.795554,141.413975 C185.474221,141.711083 185.131466,141.982355 184.805849,142.266546 C184.484516,142.559348 184.141761,142.826315 183.807574,143.119117 C183.490526,143.411919 183.147771,143.683192 182.822153,143.963076 C182.50082,144.260184 182.153781,144.527151 181.832448,144.815647 C181.506831,145.104143 181.159791,145.379722 180.834174,145.668218 C180.508556,145.96102 180.170086,146.227987 179.840184,146.512177 C179.518851,146.809285 179.176096,147.080558 178.850478,147.364748 C178.529146,147.65755 178.18639,147.924517 177.860773,148.213013 C177.535156,148.505816 177.196685,148.777088 176.866783,149.061278 C176.54545,149.354081 176.198411,149.629659 175.868509,149.913849 C175.55146,150.206652 175.204421,150.477924 174.878804,150.76642 C174.557471,151.059223 174.214715,151.326189 173.884814,151.61038 C173.567765,151.903182 173.220726,152.17876 172.890824,152.462951 C172.569491,152.755753 172.23102,153.02272 171.905403,153.311216 C171.579785,153.604018 171.23703,153.875291 170.911413,154.163787 C170.585796,154.447977 170.243041,154.723556 169.917423,155.012052 C169.591806,155.304854 169.253335,155.571821 168.923433,155.860317 C168.606385,156.153119 168.26363,156.424392 167.933728,156.708582 C167.612395,157.001384 167.26964,157.276963 166.935454,157.561153 C166.618405,157.853955 166.27565,158.120922 165.945748,158.405112 C165.624415,158.70222 165.28166,158.973493 164.956043,159.257683 C164.630425,159.550486 164.291955,159.821758 163.957768,160.110254 C163.636436,160.403057 163.302249,160.670023 162.972348,160.954214 C162.651015,161.251322 162.303975,161.522594 161.974073,161.811091 C161.65274,162.099587 161.309985,162.375165 160.980083,162.659356 C160.663035,162.952158 160.32028,163.219125 159.994662,163.503315 C159.669045,163.800423 159.32629,164.071696 159.000673,164.355886 C158.675055,164.644382 158.336585,164.919961 158.006683,165.208457 C157.68535,165.496953 157.342595,165.772532 157.016977,166.04811 C156.695644,166.345218 156.352889,166.620797 156.018703,166.904987 C155.701655,167.193483 155.358899,167.469062 155.028998,167.753252 C154.707665,168.046054 154.360625,168.317327 154.035008,168.601517 C153.713675,168.898625 153.375204,169.169898 153.041018,169.454088 C152.719685,169.746891 152.381214,170.018163 152.047028,170.306659 C151.72998,170.595156 151.387224,170.870734 151.053038,171.150619 C150.740274,171.443421 150.397519,171.714693 150.063333,172.00319 C149.746284,172.291686 149.399245,172.562958 149.073627,172.851455 C148.752294,173.148563 148.409539,173.415529 148.079638,173.69972 C147.75402,173.992522 147.419834,174.2681 147.089932,174.552291 C146.764315,174.840787 146.425844,175.11206 146.100227,175.400556 C145.774609,175.693358 145.436139,175.964631 145.101952,176.248821 C144.784904,176.545929 144.437864,176.817202 144.107963,177.101392 C143.790914,177.394194 143.443875,177.661161 143.118257,177.949657 C142.796924,178.242459 142.454169,178.513732 142.128552,178.793616 C141.79865,179.090724 141.460179,179.366303 141.130278,179.650493 C140.808945,179.93899 140.470474,180.210262 140.140572,180.498758 C139.819239,180.791561 139.476484,181.062833 139.142298,181.347024 C138.829534,181.644132 138.486779,181.911098 138.152592,182.199595 C137.831259,182.488091 137.488504,182.759363 137.162887,183.04786 C136.83727,183.340662 136.498799,183.611934 136.168897,183.896125 C135.847564,184.193233 135.509094,184.4602 135.179192,184.748696 C134.853574,185.037192 134.515104,185.308465 134.180917,185.596961 C133.863869,185.889763 133.525398,186.161036 133.191212,186.44092 C132.874164,186.738028 132.527124,187.009301 132.201507,187.293491 C131.880174,187.586293 131.537419,187.857566 131.207517,188.146062 C130.881899,188.438864 130.543429,188.710137 130.217811,188.994327 C129.892194,189.287129 129.553723,189.558402 129.219537,189.842592 C128.902489,190.1397 128.559733,190.402361 128.225547,190.690857 C127.908499,190.987966 127.565744,191.259238 127.235842,191.543428 C126.914509,191.836231 126.567469,192.111809 126.246136,192.391694 C125.920519,192.684496 125.582048,192.955768 125.252147,193.244265 C124.930814,193.537067 124.588059,193.808339 124.258157,194.09253 C123.936824,194.385332 123.598353,194.656604 123.264167,194.940795 C122.942834,195.233597 122.604363,195.50487 122.278746,195.78906 C121.953129,196.081862 121.606089,196.357441 121.280472,196.645937 C120.959139,196.930127 120.616384,197.205706 120.290766,197.489896 C119.965149,197.782698 119.626678,198.053971 119.296776,198.338161 C118.975443,198.635269 118.632688,198.906542 118.302787,199.190732 C117.981454,199.479228 117.642983,199.754807 117.308797,200.038997 C116.991748,200.331799 116.648993,200.598766 116.319091,200.882956 C115.997758,201.180065 115.655003,201.451337 115.325101,201.739833 C115.003768,202.02833 114.665298,202.303908 114.331112,202.588099 C114.014063,202.880901 113.671308,203.147867 113.341406,203.436364 C113.020073,203.729166 112.677318,204.004744 112.347416,204.288935 C112.026083,204.577431 111.683328,204.853009 111.357711,205.1372 C111.036378,205.430002 110.689338,205.701275 110.359437,205.985465 C110.042388,206.278267 109.699633,206.54954 109.374016,206.83373 C109.048398,207.122226 108.709928,207.402111 108.375741,207.686301 C108.058693,207.979103 107.715938,208.250376 107.386036,208.53026 C107.064703,208.827368 106.721948,209.102947 106.392046,209.387137 C106.074998,209.675633 105.732242,209.951212 105.402341,210.235402 C105.081008,210.528204 104.733968,210.799477 104.404066,211.083667 C104.087018,211.380775 103.744263,211.652048 103.414361,211.931932 C103.093028,212.224735 102.754557,212.496007 102.424656,212.784503 C102.103323,213.073 101.760568,213.348578 101.430666,213.632769 C101.109333,213.925571 100.766578,214.196843 100.436676,214.481034 C100.119627,214.76953 99.7725879,215.045108 99.4469705,215.329299 C99.1256376,215.626407 98.7828824,215.897679 98.4529806,216.177564 C98.1273633,216.474672 97.793177,216.745945 97.4589908,217.034441 C97.1376579,217.322937 96.7991872,217.59421 96.4692854,217.8784 C96.1479525,218.175508 95.8051973,218.446781 95.4710111,218.730971 C95.1539626,219.028079 94.8112075,219.295046 94.4813057,219.579236 C94.1599728,219.867732 93.8172176,220.139005 93.4916003,220.431807 C93.1702674,220.724609 92.8275122,220.995882 92.4976104,221.275766 C92.1762775,221.572874 91.8378068,221.844147 91.507905,222.128337 C91.1822877,222.416834 90.843817,222.692412 90.5096307,222.980908 C90.1925823,223.269405 89.8498271,223.540677 89.5199253,223.824868 C89.1985924,224.121976 88.8558373,224.393248 88.5259355,224.673133 C88.2046026,224.970241 87.8618474,225.241513 87.5362301,225.53001 C87.2106127,225.818506 86.872142,226.094084 86.5422402,226.373969 C86.2209073,226.666771 85.8824366,226.94235 85.5525348,227.22654 C85.2269175,227.515036 84.8884468,227.790615 84.5542605,228.074805 C84.237212,228.371913 83.8944569,228.63888 83.5645551,228.92307 C83.2475066,229.220178 82.9004671,229.491451 82.5705653,229.775641 C82.2535168,230.064137 81.9064772,230.339716 81.5808599,230.628212 C81.2552425,230.916708 80.9167718,231.187981 80.5911545,231.467865 C80.2655371,231.764974 79.9270664,232.036246 79.5885957,232.324742 C79.2715472,232.617545 78.9330766,232.884511 78.5988903,233.173007 C78.2818418,233.46581 77.9390867,233.741388 77.6049005,234.016967 C77.287852,234.314075 76.9408124,234.589653 76.6151951,234.873844 C76.2895777,235.166646 75.951107,235.437918 75.6254897,235.722109 C75.3041567,236.014911 74.9614016,236.286183 74.6357842,236.570374 C74.3101669,236.867482 73.9716962,237.138755 73.6332255,237.422945 C73.316177,237.715747 72.9777064,237.982714 72.6478046,238.27121 C72.3264716,238.564012 71.9837165,238.839591 71.6538147,239.119475 C71.3324818,239.412277 70.9897267,239.687856 70.6598249,239.972046 C70.3384919,240.264848 70.0000212,240.531815 69.6701194,240.816005 C66.3711014,243.830145 62.5536663,246.357717 58.2820806,248.222178 C57.2623841,248.669993 56.2212654,249.070443 55.1544401,249.440752 C33.38949,256.933042 9.70082678,245.264015 2.25018736,223.394276 C-2.52267768,209.374219 0.553549519,194.58771 9.09243644,183.784171 C9.34950278,183.435392 9.63227576,183.103837 9.90219541,182.763669 C10.1549773,182.41489 10.4420347,182.087641 10.7119544,181.747474 C10.9690207,181.398694 11.2517937,181.071445 11.5217134,180.726972 C11.7787797,180.382499 12.0572682,180.055249 12.3271879,179.710776 C12.5885387,179.361997 12.8713116,179.034748 13.1412313,178.685969 C13.3982976,178.341495 13.6810706,178.014246 13.9509903,177.669773 C14.2080566,177.3253 14.4908296,176.993744 14.7607492,176.653577 C15.0178156,176.304798 15.3005886,175.977548 15.5705082,175.637381 C15.8275745,175.288602 16.1103475,174.957047 16.3759827,174.621185 C16.6373335,174.2681 16.9201065,173.940851 17.1857417,173.600684 C17.4470925,173.251905 17.7298655,172.916043 17.9997851,172.575876 C18.2611359,172.231403 18.5439089,171.895542 18.8095441,171.55968 C19.0666104,171.210901 19.3493834,170.879346 19.6235875,170.539179 C19.8763694,170.1904 20.1591424,169.86315 20.429062,169.522983 C20.6861284,169.174204 20.9689013,168.842649 21.238821,168.506787 C21.4958873,168.158008 21.7829448,167.826453 22.0442955,167.486286 C22.3099308,167.141812 22.5927037,166.805951 22.8583389,166.465784 C23.1196897,166.121311 23.4024627,165.785449 23.6680979,165.449588 C23.9294487,165.096503 24.2122217,164.769254 24.4821413,164.429086 C24.7349232,164.080307 25.0176962,163.748752 25.2876159,163.412891 C25.5446822,163.064112 25.8317396,162.732556 26.0973748,162.396695 C26.3587256,162.04361 26.6414986,161.71636 26.9071338,161.376193 C27.1684846,161.027414 27.4512576,160.695859 27.7211772,160.355692 C27.9782435,160.006912 28.2610165,159.675357 28.5266517,159.33519 C28.7880025,158.986411 29.0707755,158.654855 29.3406952,158.314688 C29.5977615,157.970215 29.8805345,157.63866 30.1461697,157.302798 C30.4075205,156.949713 30.6902934,156.618158 30.9602131,156.282297 C31.2172794,155.933518 31.5000524,155.601962 31.7656876,155.266101 C32.0270384,154.917322 32.3098114,154.581461 32.579731,154.245599 C32.8367974,153.89682 33.1195703,153.569571 33.38949,153.225098 C33.6465563,152.876318 33.9293293,152.549069 34.199249,152.204596 C34.4605998,151.855817 34.7390883,151.528567 35.0090079,151.1884 C35.2660743,150.835315 35.5488473,150.508066 35.8187669,150.167898 C36.0758333,149.819119 36.3586062,149.49187 36.6285259,149.151703 C36.8855922,148.802924 37.1726496,148.475674 37.4382849,148.131201 C37.6996356,147.782422 37.9781242,147.455172 38.2480438,147.115005 C38.5093946,146.766226 38.7921676,146.434671 39.0578028,146.094504 C39.3148691,145.745724 39.5976421,145.414169 39.8718462,145.074002 C40.1246281,144.725223 40.4116855,144.397973 40.6816052,144.057806 C40.9386715,143.704721 41.2214445,143.377472 41.4870797,143.037304 C41.7484305,142.688525 42.026919,142.361276 42.2968387,142.021109 C42.5581895,141.67233 42.8409624,141.34508 43.1065977,141.004913 C43.3679484,140.647522 43.6507214,140.324578 43.9206411,139.980105 C44.1777074,139.62702 44.4604804,139.304077 44.7304,138.959604 C44.9874664,138.610825 45.2702393,138.283575 45.540159,137.943408 C45.7972253,137.594629 46.0799983,137.267379 46.3413491,136.927212 C46.6026999,136.578433 46.8897573,136.251184 47.1553925,135.911016 C47.4167433,135.557931 47.7038007,135.230682 47.9694359,134.890515 C48.2265023,134.53743 48.5049908,134.21018 48.7791949,133.865707 C49.0362612,133.516928 49.3190342,133.193984 49.5889539,132.849511 C49.8503046,132.500732 50.1330776,132.173483 50.3987128,131.833316 C50.6557792,131.480231 50.9385521,131.152981 51.2084718,130.812814 C51.4655381,130.464035 51.7483111,130.136785 52.0139463,129.796618 C52.2752971,129.443533 52.5580701,129.12059 52.8237053,128.776116 C53.0893405,128.423031 53.3721135,128.100088 53.6377487,127.755615 C53.8990995,127.406836 54.1818725,127.079586 54.4475077,126.735113 C54.7088585,126.386334 54.9916314,126.059085 55.2615511,125.718917 C55.514333,125.370138 55.797106,125.042889 56.0670256,124.702722 C56.324092,124.353942 56.6111494,124.026693 56.8725002,123.68222 C57.1338509,123.337747 57.4209083,123.006191 57.6865436,122.657412 C57.9478943,122.317245 58.2306673,121.98569 58.4963025,121.641216 C58.7576533,121.296743 59.0361419,120.969494 59.3060615,120.625021 C59.5674123,120.276242 59.8501853,119.948992 60.1158205,119.608825 C60.3728868,119.260046 60.6599442,118.932796 60.9298639,118.588323 C61.1826458,118.239544 61.4654188,117.912295 61.7353384,117.572128 C61.9966892,117.223348 62.2794622,116.896099 62.5450974,116.54732 C62.8064482,116.207153 63.0935056,115.875597 63.3548564,115.526818 C63.6162071,115.182345 63.9032646,114.855096 64.1688998,114.510622 C64.4259661,114.166149 64.7087391,113.8389 64.9786587,113.494427 C65.2357251,113.149954 65.5142136,112.818398 65.7884177,112.473925 C65.9298042,112.284465 66.0797596,112.095005 66.2339994,111.914156 C66.3539637,111.763449 66.473928,111.612742 66.5938922,111.457729 C66.855243,111.10895 67.138016,110.781701 67.4036512,110.437228 C67.665002,110.092754 67.9520594,109.765505 68.2176946,109.416726 C68.4790454,109.072253 68.7618184,108.745003 69.0274536,108.40053 C69.2845199,108.056057 69.5630085,107.728808 69.8372126,107.380028 C70.0899945,107.035555 70.3813363,106.704 70.6469715,106.363833 C70.9040379,106.015054 71.1910953,105.687804 71.4567305,105.343331 C71.7137968,104.998858 71.9965698,104.671608 72.2664895,104.331441 C72.5278403,103.982662 72.8106132,103.651107 73.071964,103.31094 C73.3333148,102.96216 73.6203722,102.630605 73.8860074,102.290438 C74.1430738,101.941659 74.4301312,101.610103 74.6957664,101.269936 C74.9571172,100.921157 75.2398901,100.589602 75.5098098,100.25374 C75.7668761,99.9049613 76.0453647,99.5734059 76.3152843,99.2332387 C76.5766351,98.8844597 76.8594081,98.5572102 77.1250433,98.2170429 C77.3863941,97.8682639 77.6691671,97.5410144 77.9348023,97.2008472 C78.1961531,96.8520681 78.4746416,96.5205127 78.7445612,96.1803455 C79.005912,95.8315664 79.2929694,95.4957051 79.5543202,95.1555379 C79.815671,94.8110648 80.098444,94.4795094 80.3640792,94.1393421 C80.6211455,93.794869 80.9082029,93.4633136 81.1738382,93.1231464 C81.4351889,92.7743673 81.7179619,92.4428119 81.9878816,92.1026447 C82.2449479,91.7581716 82.5234364,91.4266162 82.7976405,91.0907549 C83.0547069,90.7376699 83.3417643,90.4061145 83.6073995,90.0659473 C83.8687503,89.7171682 84.1515233,89.3856128 84.4171585,89.0454456 C84.6742248,88.7009724 84.9612822,88.369417 85.2269175,88.0292498 C85.4839838,87.6804708 85.7667568,87.3489154 86.0366764,87.0087481 C86.2937428,86.664275 86.5765157,86.3327196 86.842151,85.9925524 C87.0992173,85.6437733 87.3905591,85.3122179 87.6561944,84.9720507 C87.9175451,84.6275776 88.2003181,84.2917162 88.4659533,83.951549 C88.7273041,83.6070759 89.0057926,83.2798264 89.2757123,82.9353533 C89.5327786,82.5865742 89.8198361,82.2593247 90.0854713,81.9148516 C90.3468221,81.5703784 90.629595,81.238823 90.8909458,80.8986558 C91.1522966,80.5541827 91.4350696,80.2226273 91.7049892,79.8824601 C91.9620556,79.5293751 92.249113,79.2021256 92.5147482,78.8619584 C92.776099,78.5131793 93.0588719,78.1859298 93.3245072,77.8414567 C93.5815735,77.4926776 93.8686309,77.1654282 94.1385506,76.8252609 C94.3956169,76.4764819 94.6783899,76.1492324 94.9483095,75.8047593 C95.2010914,75.4559802 95.4838644,75.1287307 95.7537841,74.7842576 C96.0151349,74.4354785 96.2979078,74.108229 96.5678275,73.7680618 C96.8248938,73.4192828 97.1076668,73.0920333 97.3690176,72.751866 C97.6303684,72.3987811 97.9174258,72.0715316 98.183061,71.7313644 C98.4444118,71.3782794 98.7314692,71.0553358 98.9971044,70.7108627 C99.2584552,70.3577777 99.5369437,70.0348342 99.8068634,69.6946669 C100.06393,69.341582 100.346703,69.0186384 100.616622,68.6741652 C100.873689,68.3210803 101.160746,67.9938308 101.422097,67.6536636 C101.683448,67.3048845 101.966221,66.9819409 102.231856,66.6374678 C102.493207,66.2886888 102.77598,65.9614393 103.045899,65.6169661 C103.302966,65.2638812 103.585739,64.9409376 103.851374,64.5964645 C104.112725,64.2476854 104.399782,63.9247418 104.665417,63.5845746 C104.922484,63.2314896 105.209541,62.9042401 105.475176,62.559767 C105.736527,62.210988 106.015015,61.8837385 106.28922,61.5435712 C106.542001,61.1947922 106.824774,60.8675427 107.094694,60.5273755 C107.35176,60.1742905 107.638818,59.847041 107.900169,59.5068738 C108.161519,59.1580947 108.448577,58.8308453 108.714212,58.4863721 C108.975563,58.1375931 109.258336,57.8146495 109.523971,57.4701764 C109.785322,57.1170914 110.06381,56.7898419 110.33373,56.4496747 C110.595081,56.0965897 110.877854,55.7736461 111.147773,55.429173 C111.400555,55.080394 111.683328,54.7574504 111.953248,54.4129772 C112.214599,54.0641982 112.497372,53.7369487 112.763007,53.3924756 C113.024358,53.0480024 113.307131,52.716447 113.572766,52.3719739 C113.834117,52.0275007 114.11689,51.7002513 114.382525,51.3514722 C114.639591,51.0069991 114.926649,50.6797496 115.196568,50.3352764 C115.453635,49.9908033 115.740692,49.6592479 116.006327,49.3147748 C116.263394,48.9703016 116.546167,48.6430521 116.816086,48.298579 C117.073153,47.9541059 117.355926,47.6268564 117.621561,47.2823832 C117.882912,46.9336042 118.165684,46.6063547 118.43132,46.2575756 C118.69267,45.9174084 118.979728,45.585853 119.245363,45.2413799 C119.506714,44.8969067 119.789487,44.5696573 120.055122,44.2208782 C120.312188,43.8764051 120.594961,43.5491556 120.860597,43.2046824 C121.121947,42.8602093 121.40472,42.5329598 121.67464,42.1884867 C121.931706,41.8397076 122.218764,41.5124581 122.484399,41.167985 C122.741465,40.8235119 123.028523,40.4919565 123.294158,40.1474833 C123.555509,39.8030102 123.838282,39.4757607 124.103917,39.1269816 C124.365268,38.7868144 124.648041,38.455259 124.913676,38.1107859 C125.170742,37.7663127 125.4578,37.4390633 125.723435,37.0945901 C125.984786,36.750117 126.267559,36.4185616 126.537478,36.0740884 C126.794545,35.7296153 127.073033,35.4023658 127.338668,35.0578927 C127.600019,34.7091136 127.887077,34.3818641 128.156996,34.0330851 C128.414063,33.6929179 128.696836,33.3613625 128.962471,33.0211952 C129.219537,32.6724162 129.510879,32.3408608 129.77223,32.0006936 C130.033581,31.6562204 130.316353,31.324665 130.586273,30.9844978 C130.843339,30.6357187 131.126112,30.3041633 131.391748,29.9639961 C131.648814,29.6152171 131.935871,29.2836617 132.205791,28.9478003 C132.462857,28.5990213 132.74563,28.2674659 133.01555,27.9272987 C133.272616,27.5785196 133.555389,27.2469642 133.825309,26.906797 C134.082375,26.5623238 134.369433,26.2307685 134.630784,25.8906012 C134.896419,25.5461281 135.179192,25.2102668 135.440543,24.8700995 C142.56128,15.3023581 152.514032,7.71103125 164.609003,3.54721216 C196.605194,-7.45870467 231.416261,9.68744589 242.375855,41.8440135" id="Fill-1" fill="#B7A2FF" mask="url(#mask-2)"></path>
                </g>
                <path d="M487.596903,309.573317 C478.159884,296.672728 464.798688,288.301069 450.3237,284.835752 C449.874729,284.715666 449.417125,284.621314 448.963837,284.509806 C448.506232,284.394009 448.048627,284.299657 447.595339,284.192438 C447.137735,284.076641 446.68013,283.982289 446.222525,283.870781 C445.773554,283.750696 445.31595,283.660632 444.858345,283.557701 C444.405057,283.433327 443.943135,283.338975 443.494165,283.231756 C443.03656,283.115959 442.583272,283.021606 442.129984,282.914387 C441.67238,282.794302 441.210458,282.699949 440.75717,282.588442 C440.303882,282.472645 439.841961,282.382581 439.39299,282.271073 C438.935385,282.155277 438.47778,282.065213 438.024493,281.953705 C437.566888,281.83362 437.109283,281.743556 436.651678,281.632048 C436.202708,281.511963 435.740786,281.426188 435.287498,281.310391 C434.838527,281.194595 434.376606,281.100242 433.923318,280.993023 C433.465713,280.872938 433.008108,280.782874 432.550504,280.671366 C432.097216,280.551281 431.639611,280.461217 431.186323,280.353998 C430.737353,280.233913 430.279748,280.143849 429.822143,280.03663 C429.368855,279.916544 428.911251,279.822192 428.449329,279.714973 C428.000358,279.594887 427.538436,279.504823 427.080832,279.397604 C426.631861,279.27323 426.169939,279.183167 425.716651,279.075948 C425.263364,278.955862 424.805759,278.865798 424.352471,278.758579 C423.894866,278.634205 423.441579,278.544141 422.983974,278.432634 C422.526369,278.316837 422.068764,278.226773 421.615477,278.115265 C421.157872,277.999469 420.700267,277.905116 420.246979,277.793608 C419.793691,277.673523 419.336087,277.587748 418.878482,277.480529 C418.425194,277.360444 417.967589,277.266091 417.514302,277.154583 C417.061014,277.038787 416.599092,276.944434 416.145804,276.837215 C415.692517,276.71713 415.234912,276.627066 414.77299,276.515558 C414.328336,276.395473 413.866415,276.305409 413.413127,276.19819 C412.959839,276.078105 412.502234,275.983752 412.04463,275.876533 C411.591342,275.756448 411.133737,275.666384 410.671815,275.559165 C410.227162,275.439079 409.76524,275.344727 409.311952,275.233219 C408.858664,275.117422 408.392426,275.02307 407.943455,274.920139 C407.48585,274.800054 407.028245,274.705701 406.574958,274.594194 C406.12167,274.478397 405.664065,274.388333 405.20646,274.276826 C404.75749,274.161029 404.295568,274.066676 403.846597,273.955169 C403.388992,273.839372 402.931388,273.745019 402.469466,273.6378 C402.016178,273.522004 401.56289,273.427651 401.105286,273.316143 C400.656315,273.196058 400.190076,273.105994 399.736788,272.998775 C399.287818,272.87869 398.825896,272.788626 398.372608,272.677118 C397.91932,272.557033 397.461716,272.466969 397.004111,272.35975 C396.550823,272.235376 396.093218,272.149601 395.635614,272.038093 C395.182326,271.918008 394.724721,271.823655 394.267116,271.720725 C393.813828,271.596351 393.356224,271.510576 392.898619,271.399068 C392.449648,271.278983 391.992043,271.188919 391.534439,271.077411 C391.081151,270.961614 390.619229,270.87155 390.165941,270.760043 C389.708337,270.639957 389.259366,270.549893 388.797444,270.438386 C388.348473,270.3183 387.890869,270.232525 387.433264,270.121017 C386.979976,270.000932 386.518054,269.906579 386.064767,269.79936 C385.607162,269.679275 385.153874,269.589211 384.696269,269.481992 C384.242982,269.357618 383.785377,269.267554 383.323455,269.156047 C382.878801,269.04025 382.41688,268.954475 381.963592,268.842967 C381.510304,268.722882 381.052699,268.628529 380.595095,268.52131 C380.146124,268.401225 379.684202,268.311161 379.226597,268.203942 C378.777627,268.083857 378.311388,267.985215 377.862417,267.877996 C377.409129,267.7622 376.951525,267.667847 376.49392,267.560628 C376.040632,267.444831 375.583027,267.350479 375.125423,267.238971 C374.676452,267.118886 374.218847,267.028822 373.765559,266.925892 C373.307955,266.805806 372.846033,266.707165 372.392745,266.599946 C371.93514,266.479861 371.481853,266.389797 371.024248,266.286866 C370.57096,266.166781 370.113355,266.06814 369.655751,265.960921 C369.202463,265.840835 368.740541,265.746483 368.29157,265.643552 C367.833965,265.527756 367.380678,265.433403 366.92739,265.321895 C366.469785,265.20181 366.01218,265.111746 365.554576,265.000238 C365.101288,264.884442 364.639366,264.790089 364.186078,264.68287 C363.732791,264.562785 363.275186,264.472721 362.821898,264.361213 C362.36861,264.245417 361.911006,264.151064 361.449084,264.043845 C361.000113,263.92376 360.538191,263.829407 360.084904,263.722188 C359.631616,263.606392 359.178328,263.516328 358.72504,263.40482 C358.267436,263.280446 357.809831,263.190382 357.347909,263.083163 C356.898938,262.963078 356.441334,262.877302 355.988046,262.761506 C355.530441,262.645709 355.072836,262.551357 354.615232,262.444138 C354.157627,262.324052 353.704339,262.233988 353.246734,262.122481 C352.797764,262.002395 352.340159,261.912331 351.882554,261.800824 C351.429266,261.685027 350.967345,261.594963 350.518374,261.483456 C350.060769,261.36337 349.603164,261.273306 349.14556,261.161799 C348.696589,261.041713 348.238984,260.955938 347.781379,260.848719 C347.328092,260.724345 346.86617,260.629992 346.412882,260.527062 C345.959594,260.402688 345.50199,260.312624 345.048702,260.209694 C344.595414,260.08532 344.137809,259.990967 343.675888,259.883748 C343.226917,259.763663 342.764995,259.677888 342.311707,259.56638 C341.85842,259.450583 341.400815,259.351942 340.94321,259.244723 C340.485605,259.124638 340.032317,259.038863 339.574713,258.927355 C339.121425,258.80727 338.66382,258.712917 338.206215,258.605698 C337.757245,258.485613 337.29964,258.395549 336.842035,258.28833 C336.38443,258.168244 335.931143,258.073892 335.473538,257.966673 C335.02025,257.846587 334.562645,257.752235 334.105041,257.649304 C333.651753,257.529219 333.194148,257.434866 332.74086,257.327647 C332.283256,257.207562 331.829968,257.113209 331.37668,257.010279 C330.919075,256.890194 330.461471,256.795841 329.999549,256.684334 C329.550578,256.568537 329.092973,256.474184 328.639686,256.366965 C328.182081,256.251169 327.728793,256.156816 327.271188,256.049597 C326.817901,255.925223 326.360296,255.835159 325.898374,255.723651 C325.449403,255.607855 324.987482,255.513502 324.534194,255.406283 C324.080906,255.286198 323.623301,255.196134 323.170014,255.088915 C322.716726,254.96883 322.259121,254.878766 321.797199,254.767258 C321.352546,254.647173 320.890624,254.55282 320.437336,254.445601 C319.984048,254.329804 319.526444,254.235452 319.068839,254.128233 C318.611234,254.008148 318.153629,253.918084 317.696025,253.806576 C317.247054,253.686491 316.789449,253.596427 316.336161,253.489208 C315.878557,253.369122 315.416635,253.27477 314.967664,253.167551 C314.510059,253.047465 314.052454,252.957401 313.599167,252.850182 C313.145879,252.725808 312.683957,252.635744 312.230669,252.528525 C311.777382,252.40844 311.31546,252.318376 310.862172,252.211157 C310.408884,252.091072 309.955597,251.996719 309.497992,251.8895 C309.040387,251.765126 308.582782,251.679351 308.125178,251.572132 C307.67189,251.452047 307.214285,251.357694 306.760997,251.250475 C306.30771,251.13039 305.850105,251.040326 305.396817,250.933107 C304.943529,250.808733 304.485925,250.718669 304.024003,250.61145 C303.570715,250.491365 303.11311,250.401301 302.66414,250.294082 C302.210852,250.173996 301.74893,250.079644 301.291325,249.968136 C300.833721,249.852339 300.380433,249.762275 299.922828,249.655056 C299.473857,249.534971 299.016253,249.43633 298.558648,249.329111 C298.10536,249.213314 297.643438,249.118962 297.190151,249.011743 C296.732546,248.895946 296.274941,248.797305 295.821653,248.690086 C295.368366,248.57 294.910761,248.475648 294.457473,248.372717 C294.004185,248.252632 293.546581,248.158279 293.093293,248.055349 C292.631371,247.930975 292.173766,247.840911 291.716162,247.733692 C291.267191,247.613607 290.809586,247.519254 290.356298,247.412035 C289.903011,247.29195 289.441089,247.197597 288.987801,247.094667 C288.534513,246.974582 288.076909,246.880229 287.619304,246.77301 C287.166016,246.652925 286.708411,246.558572 286.246489,246.451353 C285.801836,246.331268 285.335597,246.236915 284.886626,246.133985 C284.433339,246.0139 283.971417,245.919547 283.518129,245.812328 C283.060524,245.696531 282.607236,245.602179 282.149632,245.490671 C281.696344,245.374874 281.238739,245.280522 280.781134,245.173303 C280.332164,245.053217 279.870242,244.963153 279.412637,244.851646 C278.959349,244.73156 278.506062,244.641496 278.04414,244.534277 C277.595169,244.414192 277.137564,244.324128 276.67996,244.212621 C276.226672,244.096824 275.769067,244.002471 275.315779,243.895252 C274.858175,243.775167 274.40057,243.685103 273.942965,243.569307 C273.493994,243.45351 273.03639,243.359157 272.578785,243.256227 C272.125497,243.136142 271.667892,243.041789 271.210288,242.93457 C270.752683,242.814485 270.299395,242.724421 269.846107,242.612913 C269.39282,242.492828 268.930898,242.402764 268.473293,242.295545 C268.024322,242.17546 267.562401,242.081107 267.109113,241.973888 C266.655825,241.853803 266.19822,241.763739 265.740616,241.660809 C251.952034,238.002497 236.682713,240.318427 224.23241,249.299089 C202.306234,265.128901 197.445263,295.617693 213.375089,317.404592 C218.646178,324.613997 225.549103,329.919193 233.198873,333.277292 C233.621941,333.478863 234.057961,333.633259 234.489664,333.813387 C234.908415,334.019247 235.348752,334.165065 235.776137,334.35377 C236.199206,334.555342 236.639543,334.70116 237.066928,334.894154 C237.489997,335.091437 237.926016,335.241544 238.353402,335.430249 C238.772154,335.623243 239.21249,335.77335 239.639876,335.962055 C240.058627,336.167916 240.503281,336.318022 240.930667,336.49815 C241.340784,336.699722 241.776804,336.84554 242.195555,337.025668 C242.441626,336.969914 242.687696,336.91416 242.938084,336.866984 C243.382737,336.772631 243.831708,336.652546 244.284996,336.571059 C244.72965,336.476706 245.174303,336.356621 245.623274,336.275135 C246.067928,336.180782 246.516898,336.064985 246.965869,335.97921 C247.41484,335.884858 247.859493,335.769061 248.312781,335.683286 C248.757435,335.588933 249.202089,335.473137 249.651059,335.387361 C250.104347,335.293009 250.549001,335.177212 250.997971,335.091437 C251.442625,334.992796 251.891596,334.876999 252.340567,334.795513 C252.789537,334.696871 253.234191,334.581075 253.683162,334.495299 C254.127815,334.405235 254.576786,334.28515 255.02144,334.199375 C255.474728,334.105022 255.915064,333.989226 256.368352,333.903451 C256.817323,333.804809 257.266293,333.689013 257.710947,333.607526 C258.164235,333.513173 258.604571,333.393088 259.057859,333.307313 C259.502513,333.21296 259.947167,333.097164 260.396137,333.011389 C260.845108,332.917036 261.289762,332.801239 261.738732,332.719753 C262.183386,332.6254 262.636674,332.505315 263.081327,332.423829 C263.530298,332.325187 263.974952,332.209391 264.423923,332.127904 C264.872893,332.029263 265.321864,331.913466 265.770835,331.827691 C266.219805,331.737627 266.664459,331.617542 267.117747,331.531767 C267.562401,331.437414 268.002737,331.321617 268.451708,331.235842 C268.904996,331.141489 269.349649,331.025693 269.79862,330.939918 C270.243274,330.849854 270.687927,330.72548 271.136898,330.643993 C271.590186,330.545352 272.03484,330.429555 272.48381,330.34378 C272.928464,330.249427 273.377435,330.133631 273.830722,330.047856 C274.279693,329.953503 274.72003,329.837706 275.169001,329.751931 C275.617971,329.657579 276.062625,329.541782 276.507279,329.456007 C276.964883,329.361654 277.40522,329.245858 277.858508,329.164371 C278.303161,329.06573 278.752132,328.949933 279.196786,328.864158 C279.650074,328.769805 280.09041,328.654009 280.543698,328.568234 C280.992669,328.469592 281.437322,328.358084 281.886293,328.272309 C282.339581,328.177957 282.7756,328.057871 283.228888,327.976385 C283.673542,327.882032 284.122513,327.761947 284.571483,327.68046 C285.020454,327.581819 285.465108,327.466022 285.918395,327.380247 C286.363049,327.290183 286.807703,327.170098 287.256674,327.084323 C287.705644,326.98997 288.150298,326.874174 288.603586,326.788398 C289.048239,326.694046 289.492893,326.578249 289.941864,326.492474 C290.395152,326.398121 290.835488,326.282325 291.293093,326.19655 C291.73343,326.102197 292.1824,325.9864 292.627054,325.900625 C293.076025,325.806272 293.520678,325.690476 293.973966,325.604701 C294.41862,325.510348 294.863274,325.394552 295.312244,325.308776 C295.765532,325.210135 296.210186,325.094338 296.663473,325.012852 C297.10381,324.91421 297.552781,324.798414 297.997434,324.716927 C298.450722,324.622575 298.895376,324.50249 299.348664,324.416714 C299.793317,324.322362 300.237971,324.206565 300.686942,324.12079 C301.140229,324.022148 301.580566,323.910641 302.033854,323.824865 C302.478508,323.730513 302.923161,323.614716 303.372132,323.528941 C303.821103,323.434588 304.261439,323.314503 304.719044,323.233017 C305.163698,323.138664 305.612668,323.022867 306.057322,322.937092 C306.51061,322.84274 306.950947,322.722654 307.404234,322.641168 C307.853205,322.542526 308.297859,322.42673 308.742512,322.345243 C309.1958,322.246602 309.636137,322.130805 310.093742,322.049319 C310.538395,321.954966 310.987366,321.834881 311.43202,321.753395 C311.88099,321.654753 312.321327,321.538957 312.774615,321.453181 C313.223585,321.358829 313.668239,321.243032 314.11721,321.157257 C314.566181,321.062904 315.010834,320.942819 315.464122,320.861333 C315.908776,320.762691 316.353429,320.646895 316.8024,320.565408 C317.255688,320.466767 317.696025,320.35097 318.153629,320.265195 C318.593966,320.175131 319.042937,320.055046 319.48759,319.973559 C319.940878,319.874918 320.381215,319.759121 320.834502,319.677635 C321.279156,319.578993 321.728127,319.463197 322.172781,319.381711 C322.626068,319.287358 323.066405,319.167273 323.52401,319.085786 C323.968663,318.987145 324.413317,318.871348 324.862288,318.785573 C325.311259,318.686931 325.755912,318.575424 326.204883,318.493937 C326.649537,318.399585 327.098507,318.279499 327.543161,318.193724 C327.996449,318.095083 328.436785,317.979286 328.890073,317.8978 C329.339044,317.799158 329.783698,317.683362 330.232668,317.601875 C330.685956,317.507523 331.126293,317.387437 331.57958,317.301662 C332.024234,317.207309 332.473205,317.091513 332.917859,317.005738 C333.371146,316.911385 333.811483,316.795588 334.264771,316.709813 C334.713741,316.615461 335.158395,316.499664 335.603049,316.418178 C336.056336,316.319536 336.496673,316.20374 336.949961,316.122253 C351.165928,313.025769 366.612247,316.932829 377.668151,327.916342 C394.918987,345.054226 394.918987,372.832522 377.668151,389.970405 C376.822014,390.815291 375.945658,391.613 375.052033,392.372111 C375.414663,392.530795 375.790245,392.663746 376.148558,392.831008 C376.575943,393.024002 377.01628,393.16982 377.439349,393.367103 C377.862417,393.560097 378.302754,393.710204 378.725822,393.898909 C379.148891,394.100481 379.589228,394.246299 380.02093,394.435004 C380.439682,394.636576 380.875701,394.782394 381.307404,394.971099 C381.726155,395.172671 382.166492,395.318488 382.593878,395.511483 C383.016946,395.708766 383.452966,395.854583 383.884668,396.047578 C384.30342,396.244861 384.73944,396.394967 385.171142,396.579384 C385.589894,396.785244 386.03023,396.926773 386.457616,397.115479 C386.880685,397.312762 387.316704,397.462868 387.74409,397.655862 C388.162841,397.853145 388.603178,397.998963 389.030564,398.191957 C389.449315,398.38924 389.898286,398.539347 390.325671,398.728052 C390.740106,398.929624 391.18476,399.075442 391.607828,399.264147 C392.030897,399.465719 392.471233,399.607248 392.894302,399.800242 C393.31737,399.997525 393.757707,400.143343 394.180776,400.340626 C394.603844,400.537909 395.048498,400.679438 395.471567,400.872432 C395.894635,401.069715 396.334972,401.219822 396.75804,401.408527 C397.181109,401.610099 397.621446,401.755917 398.048831,401.944622 C398.4719,402.146194 398.907919,402.292012 399.335305,402.485006 C399.754056,402.682289 400.190076,402.828107 400.621779,403.021101 C401.04053,403.214095 401.480867,403.364202 401.912569,403.552907 C402.331321,403.758767 402.771658,403.904585 403.194726,404.089002 C403.622112,404.290574 404.062448,404.436391 404.489834,404.625097 C404.908586,404.826669 405.353239,404.972486 405.776308,405.165481 C406.195059,405.362764 406.639713,405.51287 407.062782,405.701576 C427.857896,415.548568 453.28518,414.077523 473.22984,399.675868 C502.240256,378.738144 508.672625,338.393782 487.596903,309.573317" id="Fill-4" fill="#9BE6C8"></path>
                <path d="M374.534935,390.019731 C374.109594,389.830008 373.671363,389.683403 373.250318,389.480744 C372.829273,389.291021 372.391042,389.140105 371.969997,388.941758 C371.548952,388.752035 371.110722,388.605431 370.693973,388.402772 C370.268631,388.213048 369.826104,388.062132 369.405059,387.859473 C368.984014,387.66975 368.541487,387.523146 368.124739,387.320487 C367.699397,387.135076 367.261167,386.988471 366.844418,386.781501 C366.423373,386.591777 365.980846,386.445173 365.559801,386.246826 C365.138756,386.052791 364.700525,385.906187 364.283777,385.70784 C363.858435,385.513805 363.415908,385.3672 362.999159,385.164541 C362.573818,384.974818 362.139884,384.828214 361.723135,384.625555 C361.293497,384.440144 360.85097,384.284916 360.429925,384.086569 C360.00888,383.896845 359.57065,383.745929 359.153901,383.551894 C358.728559,383.357859 358.294625,383.211255 357.87358,383.008596 C357.448239,382.818873 357.014304,382.672268 356.588963,382.46961 C356.163622,382.279886 355.725391,382.133282 355.304346,381.930623 C354.879005,381.736588 354.44507,381.589984 354.024025,381.391637 C353.60298,381.197602 353.16475,381.050997 352.743705,380.85265 C352.322659,380.658615 351.884429,380.512011 351.463384,380.313664 C351.042339,380.119629 350.599812,379.977336 350.183063,379.770366 C349.762018,379.584954 349.319491,379.434038 348.898446,379.231379 C348.473105,379.045968 348.03917,378.895052 347.618125,378.696705 C347.19708,378.50267 346.750257,378.356065 346.337805,378.153406 C345.908167,377.963683 345.469936,377.817079 345.057484,377.61442 C344.627846,377.424697 344.193912,377.278093 343.777163,377.075434 C343.347525,376.881399 342.913591,376.734794 342.492546,376.540759 C342.067205,376.346724 341.63327,376.20012 341.207929,376.001773 C340.786884,375.803426 340.348653,375.656822 339.927608,375.458475 C339.502267,375.268751 339.068333,375.122147 338.647287,374.919488 C338.226242,374.729765 337.783715,374.578849 337.36267,374.37619 C336.941625,374.186467 336.499098,374.039862 336.08235,373.841515 C335.657008,373.64748 335.218778,373.500876 334.797733,373.298217 C334.376687,373.108494 333.938457,372.966201 333.521708,372.763543 C333.100663,372.573819 332.658136,372.427215 332.237091,372.220244 C331.816046,372.034833 331.373519,371.883917 330.95677,371.681258 C330.535725,371.491535 330.093198,371.34493 329.672153,371.146583 C329.246812,370.952548 328.812878,370.801632 328.391833,370.603285 C327.966491,370.40925 327.532557,370.266958 327.115808,370.064299 C326.690467,369.878887 326.24794,369.723659 325.831191,369.525312 C325.40585,369.335589 324.963323,369.184673 324.55087,368.990638 C324.121233,368.796603 323.687298,368.645687 323.266253,368.44734 C322.840912,368.257616 322.406978,368.111012 321.981636,367.908353 C321.560591,367.71863 321.122361,367.572026 320.705612,367.365055 C320.275974,367.175332 319.84204,367.028727 319.416698,366.83038 C318.995653,366.636345 318.561719,366.489741 318.140674,366.295706 C317.715333,366.101671 317.277102,365.950755 316.856057,365.748096 C316.430716,365.558372 315.992485,365.41608 315.575736,365.213421 C315.154691,365.023698 314.712164,364.872782 314.299712,364.670123 C313.87437,364.4804 313.431843,364.329484 313.010798,364.135448 C312.589753,363.941413 312.147226,363.790497 311.730478,363.59215 C311.305136,363.402427 310.866906,363.255823 310.450157,363.053164 C310.020519,362.863441 309.586585,362.716836 309.16554,362.514177 C308.744495,362.324454 308.306264,362.173538 307.889516,361.975191 C307.459878,361.785468 307.025944,361.638863 306.604898,361.436205 C306.179557,361.246481 305.741326,361.095565 305.324578,360.892906 C304.899236,360.703183 304.465302,360.560891 304.044257,360.358232 C303.614619,360.17282 303.180685,360.017592 302.75964,359.814933 C302.334298,359.62521 301.896068,359.478606 301.479319,359.280259 C301.053978,359.090536 300.611451,358.93962 300.190406,358.736961 C299.769361,358.547237 299.33113,358.400633 298.910085,358.197974 C298.48904,358.012563 298.050809,357.861647 297.629764,357.658988 C297.208719,357.469265 296.770489,357.318349 296.349444,357.124313 C295.928398,356.930278 295.485872,356.779362 295.069123,356.585327 C294.648078,356.391292 294.205551,356.240376 293.784506,356.042029 C293.363461,355.852306 292.92523,355.705701 292.504185,355.503042 C292.08314,355.313319 291.644909,355.166715 291.228161,354.964056 C290.798523,354.774333 290.360292,354.623417 289.943544,354.42507 C289.513906,354.231034 289.079972,354.08443 288.663223,353.881771 C288.233585,353.692048 287.795354,353.549756 287.378606,353.342785 C286.953264,353.157374 286.515034,353.010769 286.098285,352.803798 C285.672944,352.618387 285.239009,352.467471 284.817964,352.269124 C284.388326,352.079401 283.954392,351.928485 283.529051,351.730138 C283.108006,351.536103 282.669775,351.389498 282.253027,351.186839 C281.827685,350.997116 281.389454,350.850512 280.972706,350.647853 C280.547364,350.462442 280.104837,350.307214 279.688089,350.108867 C279.267044,349.919143 278.828813,349.768227 278.403472,349.574192 C277.982427,349.380157 277.544196,349.229241 277.123151,349.030894 C276.702106,348.841171 276.259579,348.694566 275.84283,348.491907 C275.421785,348.302184 274.979258,348.15558 274.562509,347.952921 C274.132872,347.763198 273.698937,347.612282 273.277892,347.413935 C272.856847,347.219899 272.418617,347.073295 271.997572,346.874948 C271.57223,346.680913 271.134,346.534309 270.717251,346.33165 C270.291909,346.146239 269.853679,345.999634 269.441227,345.796975 C269.011589,345.607252 268.573358,345.456336 268.152313,345.257989 C267.726972,345.068266 267.293037,344.91735 266.871992,344.714691 C266.446651,344.524968 266.012717,344.378363 265.587375,344.175704 C265.162034,343.985981 264.7281,343.839377 264.302758,343.636718 C263.881713,343.451307 263.443483,343.30039 263.026734,343.097732 C262.601392,342.908008 262.163162,342.757092 261.742117,342.563057 C261.321072,342.369022 260.882841,342.222418 260.461796,342.024071 C260.040751,341.830036 259.598224,341.679119 259.177179,341.480772 C258.76043,341.291049 258.3222,341.144445 257.901155,340.941786 C257.480109,340.752063 257.033286,340.601147 256.616537,340.398488 C256.191196,340.208764 255.752965,340.06216 255.336217,339.863813 C254.910875,339.67409 254.472645,339.523174 254.055896,339.320515 C253.626258,339.135104 253.192324,338.988499 252.775575,338.781529 C252.345937,338.596117 251.907707,338.449513 251.486662,338.242542 C251.065617,338.052819 250.627386,337.906215 250.210637,337.707868 C249.785296,337.513833 249.347065,337.367228 248.921724,337.164569 C248.500679,336.974846 248.066745,336.82393 247.6457,336.625583 C247.220358,336.440172 246.786424,336.293567 246.365379,336.086597 C245.940038,335.901185 245.497511,335.745957 245.080762,335.54761 C244.659717,335.357887 244.221486,335.211283 243.800441,335.008624 L243.778959,335 C243.581326,335.047431 243.383692,335.094862 243.186059,335.137981 C242.734939,335.224218 242.292412,335.340639 241.845589,335.435501 C241.398766,335.521739 240.956239,335.63816 240.509415,335.733021 C240.062592,335.814947 239.620065,335.931368 239.173242,336.034854 C238.722122,336.112468 238.283891,336.233201 237.837068,336.328062 C237.390245,336.4143 236.947718,336.535033 236.500894,336.625583 C236.049775,336.711821 235.607248,336.828242 235.160424,336.927415 C234.717898,337.009341 234.275371,337.125762 233.828547,337.220624 C233.381724,337.311174 232.939197,337.427595 232.492374,337.522456 C232.041254,337.604382 231.598727,337.725115 231.151904,337.819977 C230.700784,337.901903 230.262553,338.022636 229.81573,338.117497 C229.368907,338.203735 228.92638,338.320156 228.479556,338.415018 C228.032733,338.501256 227.590206,338.617677 227.143383,338.712538 C226.696559,338.798776 226.254032,338.915197 225.807209,339.010059 C225.364682,339.096297 224.917859,339.212718 224.471035,339.307579 C224.024212,339.389505 223.577389,339.510238 223.130565,339.609412 C222.683742,339.691338 222.245511,339.807759 221.798688,339.90262 C221.347568,339.99317 220.905041,340.109591 220.458218,340.200141 C220.015691,340.286379 219.568868,340.4028 219.126341,340.506285 C218.679517,340.583899 218.232694,340.704632 217.785871,340.799494 C217.339047,340.885731 216.896521,341.002152 216.453994,341.097014 C216.00717,341.183252 215.560347,341.299673 215.113524,341.394535 C214.6667,341.480772 214.224173,341.597193 213.77735,341.692055 C213.330527,341.778293 212.888,341.894714 212.441176,341.989576 C211.990057,342.075813 211.551826,342.192234 211.105003,342.291408 C210.658179,342.373334 210.215652,342.489755 209.773125,342.584617 C209.322006,342.675166 208.879479,342.791587 208.428359,342.882137 C207.985832,342.968375 207.539009,343.084796 207.096482,343.183969 C206.645362,343.265895 206.207131,343.382316 205.756012,343.477178 C205.309188,343.567728 204.866661,343.688461 204.424134,343.77901 C203.973015,343.860936 203.534784,343.981669 203.083664,344.080843 C202.641137,344.162769 202.198611,344.27919 201.747491,344.374051 C201.300667,344.460289 200.862437,344.581022 200.411317,344.671572 C199.964494,344.75781 199.51767,344.874231 199.075144,344.973404 C198.624024,345.05533 198.185793,345.171751 197.73897,345.266613 C197.292147,345.352851 196.84962,345.473584 196.402796,345.564133 C195.955973,345.650371 195.513446,345.766792 195.066623,345.865966 C194.619799,345.947892 194.172976,346.064313 193.730449,346.159174 C193.279329,346.249724 192.841099,346.366145 192.394275,346.456695 C191.947452,346.542933 191.504925,346.663666 191.058102,346.762839 C190.606982,346.840453 190.164455,346.961186 189.717632,347.056048 C189.275105,347.146597 188.828281,347.263018 188.385754,347.353568 C187.934635,347.439806 187.496404,347.556227 187.045284,347.6554 C186.598461,347.737326 186.155934,347.858059 185.713407,347.952921 C185.257991,348.039159 184.824057,348.15558 184.372937,348.250441 C183.926114,348.332367 183.483587,348.4531 183.04106,348.547962 C182.585644,348.629888 182.147413,348.750621 181.696293,348.845482 C181.253767,348.93172 180.81124,349.048141 180.364416,349.138691 C179.913297,349.224929 179.475066,349.345662 179.023946,349.444835 C178.581419,349.522449 178.134596,349.643182 177.692069,349.738044 C177.240949,349.824282 176.802719,349.945015 176.355895,350.035564 C175.909072,350.121802 175.462249,350.238223 175.019722,350.337397 C174.568602,350.419323 174.130371,350.535744 173.679252,350.630605 C173.232428,350.721155 172.789901,350.837576 172.343078,350.932438 C171.891958,351.014364 171.453728,351.135097 171.006904,351.229958 C170.560081,351.311884 170.113258,351.432617 169.670731,351.527479 C169.223907,351.613717 168.785677,351.730138 168.338853,351.824999 C167.89203,351.911237 167.445207,352.027658 167.00268,352.12252 C166.55156,352.204446 166.109033,352.325179 165.657913,352.42004 C165.21109,352.506278 164.768563,352.627011 164.326036,352.717561 C163.874916,352.803798 163.436686,352.92022 162.989863,353.019393 C162.543039,353.101319 162.096216,353.21774 161.649393,353.316914 C161.202569,353.403151 160.764339,353.523884 160.313219,353.610122 C159.870692,353.69636 159.423869,353.812781 158.981342,353.911955 C158.530222,353.99388 158.091991,354.114613 157.640872,354.209475 C157.194048,354.295713 156.751521,354.416446 156.308994,354.506995 C155.853578,354.593233 155.415348,354.709654 154.964228,354.808828 C154.521701,354.890754 154.079174,355.007175 153.632351,355.102036 C153.185527,355.188274 152.747297,355.304695 152.296177,355.399557 C151.849354,355.485795 151.40253,355.602216 150.960003,355.701389 C150.508884,355.783315 150.070653,355.904048 149.619533,355.994598 C149.17271,356.085148 148.730183,356.201569 148.28336,356.29643 C147.836536,356.378356 147.398306,356.499089 146.947186,356.598263 C146.500363,356.680189 146.057836,356.79661 145.615309,356.887159 C145.164189,356.977709 144.721662,357.098442 144.274839,357.188992 C143.832312,357.27523 143.385489,357.391651 142.942962,357.490824 C142.491842,357.57275 142.049315,357.689171 141.602492,357.784033 C141.155668,357.870271 140.708845,357.991004 140.266318,358.081553 C139.815198,358.167791 139.376968,358.284212 138.925848,358.383386 C138.483321,358.465312 138.040794,358.581733 137.598267,358.676594 C137.142851,358.762832 136.70462,358.887877 136.257797,358.978427 C135.810974,359.060353 135.368447,359.181085 134.92592,359.275947 C134.470504,359.357873 134.032273,359.478606 133.581153,359.573468 C133.138626,359.664017 132.691803,359.780438 132.24498,359.870988 C131.79386,359.957226 131.359926,360.073647 130.908806,360.17282 C130.461983,360.250434 130.019456,360.375479 129.576929,360.470341 C117.246323,362.803074 105.465654,368.74486 95.9276944,378.32157 C70.6907685,403.645307 70.6907685,444.707446 95.9276944,470.035495 C115.106727,489.288089 143.338228,493.863005 166.869492,483.846482 C167.294834,483.674006 167.711582,483.475659 168.136924,483.29456 C168.557969,483.122084 168.970421,482.928049 169.391466,482.742638 C169.816808,482.574474 170.233556,482.376127 170.654601,482.195028 C171.079943,482.026864 171.496692,481.824205 171.917737,481.651729 C172.343078,481.474942 172.75553,481.276595 173.176575,481.095495 C173.606213,480.927332 174.018666,480.724673 174.439711,480.547885 C174.869348,480.379722 175.281801,480.177063 175.702846,479.995963 C176.128187,479.823488 176.549232,479.629452 176.965981,479.444041 C177.391322,479.271565 177.808071,479.073219 178.22482,478.892119 C178.650161,478.728267 179.06691,478.525608 179.487955,478.348821 C179.913297,478.176345 180.330045,477.973686 180.75109,477.796899 C181.176432,477.624423 181.59318,477.426076 182.014225,477.244977 C182.439567,477.076813 182.852019,476.874154 183.277361,476.697366 C183.698406,476.529203 184.115154,476.322232 184.5362,476.145444 C184.961541,475.972969 185.37829,475.778934 185.799335,475.593522 C186.224676,475.421047 186.637128,475.2227 187.058174,475.045912 C187.487811,474.877748 187.900264,474.67509 188.321309,474.498302 C188.750947,474.325826 189.159103,474.127479 189.584444,473.94638 C190.009785,473.773904 190.422238,473.575557 190.847579,473.394458 C191.272921,473.226294 191.685373,473.023635 192.106418,472.846848 C192.531759,472.674372 192.948508,472.476025 193.369553,472.294926 C193.794895,472.12245 194.211643,471.924103 194.632688,471.743004 C195.05803,471.579152 195.470482,471.372181 195.895824,471.199705 C196.316869,471.022918 196.733617,470.824571 197.163255,470.643471 C197.5843,470.470996 197.996753,470.276961 198.417798,470.095861 C198.843139,469.923386 199.255591,469.725039 199.676636,469.543939 C200.101978,469.375775 200.518727,469.173116 200.944068,468.996329 C201.369409,468.823853 201.781862,468.625506 202.202907,468.440095 C202.632545,468.271931 203.044997,468.073584 203.466042,467.892485 C203.89568,467.728633 204.308132,467.521662 204.729177,467.349187 C205.154519,467.176711 205.566971,466.978364 205.988016,466.792953 C206.413358,466.624789 206.834403,466.426442 207.255448,466.245342 C207.680789,466.077179 208.093241,465.87452 208.50999,465.697732 C208.935332,465.525257 209.35208,465.322598 209.777422,465.141498 C210.202763,464.973334 210.615216,464.770676 211.040557,464.593888 C211.461602,464.425724 211.878351,464.223065 212.303692,464.046278 C212.724737,463.873802 213.13719,463.675455 213.553938,463.494356 C213.983576,463.326192 214.400325,463.127845 214.825666,462.942434 C215.246711,462.77427 215.66346,462.575923 216.084505,462.394824 C216.514143,462.22666 216.926595,462.024001 217.34764,461.842902 C217.772982,461.674738 218.185434,461.476391 218.610775,461.290979 C219.036117,461.122816 219.448569,460.920157 219.869614,460.743369 C220.294956,460.575206 220.711704,460.372547 221.128453,460.195759 C221.558091,460.023283 221.97484,459.829248 222.395885,459.643837 C222.821226,459.471361 223.237975,459.273014 223.65902,459.091915 C224.084361,458.928063 224.496814,458.725404 224.917859,458.544305 C225.3432,458.376141 225.759949,458.173482 226.18529,457.992383 C226.606335,457.824219 227.018788,457.625872 227.444129,457.444773 C227.869471,457.272297 228.281923,457.07395 228.707264,456.892851 C229.132606,456.720375 229.549354,456.522028 229.9704,456.340928 C230.395741,456.172765 230.808193,455.97873 231.224942,455.793318 C231.65458,455.625155 232.067032,455.422496 232.488077,455.241396 C232.922011,455.077544 233.334464,454.874885 233.751212,454.693786 C234.176554,454.525622 234.593303,454.327275 235.014348,454.141864 C235.439689,453.9737 235.856438,453.771041 236.273186,453.589942 C236.702824,453.42609 237.119573,453.219119 237.540618,453.046644 C237.961663,452.869856 238.374115,452.675821 238.79516,452.494722 C239.224798,452.322246 239.637251,452.123899 240.062592,451.942799 C240.487933,451.774636 240.900386,451.571977 241.330024,451.395189 C241.746772,451.222714 242.163521,451.024367 242.588862,450.843267 C243.009908,450.670792 243.426656,450.476756 243.851998,450.291345 C244.273043,450.123181 244.685495,449.920523 245.10654,449.743735 C245.536178,449.571259 245.94863,449.372912 246.373972,449.196125 C246.799313,449.019337 247.211765,448.825302 247.632811,448.639891 C248.062448,448.471727 248.474901,448.27338 248.895946,448.092281 C249.321287,447.924117 249.738036,447.72577 250.154785,447.544671 C250.584422,447.372195 251.001171,447.173848 251.41792,446.992748 C251.847558,446.820273 252.264306,446.621926 252.676759,446.440826 C253.106396,446.276975 253.523145,446.074316 253.94419,445.897528 C254.369532,445.720741 254.781984,445.522394 255.207325,445.341294 C255.632667,445.168819 256.049416,444.970472 256.470461,444.789372 C256.891506,444.62552 257.308254,444.422861 257.733596,444.246074 C258.154641,444.069286 258.57139,443.875251 258.992435,443.68984 C259.417776,443.521676 259.830228,443.323329 260.251273,443.14223 C260.680911,442.969754 261.089067,442.771407 261.514409,442.590308 C261.944046,442.426456 262.356499,442.219485 262.777544,442.042697 C263.202885,441.870222 263.615338,441.676187 264.040679,441.490775 C264.466021,441.3183 264.882769,441.124265 265.303814,440.938853 C265.724859,440.775001 266.141608,440.572343 266.562653,440.395555 C266.983698,440.223079 267.404743,440.024732 267.821492,439.843633 C268.25113,439.671157 268.667878,439.47281 269.088924,439.291711 C269.514265,439.123547 269.926717,438.920888 270.352059,438.744101 C270.773104,438.567313 271.185556,438.373278 271.610898,438.192179 C272.036239,438.019703 272.452988,437.825668 272.874033,437.640257 C273.299374,437.472093 273.711827,437.273746 274.132872,437.092646 C274.558213,436.920171 274.974962,436.721824 275.396007,436.540724 C275.825645,436.372561 276.238097,436.174214 276.659142,435.993114 C277.08878,435.820639 277.496936,435.61798 277.917981,435.441192 C278.347619,435.273028 278.764367,435.070369 279.185412,434.893582 C279.610754,434.716794 280.027503,434.527071 280.444251,434.337348 C280.869593,434.169184 281.290638,433.970837 281.707386,433.789738 C282.132728,433.625886 282.549477,433.423227 282.970522,433.242128 C283.391567,433.069652 283.804019,432.871305 284.229361,432.690206 C284.654702,432.522042 285.071451,432.319383 285.496792,432.138283 C285.917837,431.97012 286.330289,431.771773 286.755631,431.590673 C287.180972,431.418198 287.593425,431.219851 288.01447,431.038751 C288.444108,430.870588 288.85656,430.676552 289.277605,430.491141 C289.702946,430.322977 290.119695,430.120318 290.54074,429.939219 C290.970378,429.766743 291.378534,429.572708 291.799579,429.391609 C292.229217,429.219133 292.641669,429.025098 293.067011,428.839687 C293.488056,428.671523 293.904804,428.468864 294.325849,428.287765 C294.751191,428.119601 295.16794,427.921254 295.588985,427.744466 C296.014326,427.567679 296.431075,427.377956 296.847823,427.188232 C297.273165,427.020069 297.689914,426.821722 298.115255,426.63631 C298.540596,426.472459 298.953049,426.2698 299.374094,426.093012 C299.799435,425.920536 300.211888,425.722189 300.637229,425.54109 C301.058274,425.368614 301.479319,425.170267 301.896068,424.989168 C302.325706,424.821004 302.738158,424.618345 303.159203,424.441558 C303.580248,424.269082 303.996997,424.070735 304.418042,423.889636 C304.851976,423.71716 305.264428,423.523125 305.685473,423.337714 C306.110815,423.16955 306.523267,422.971203 306.944312,422.790104 C307.37395,422.617628 307.786402,422.419281 308.207448,422.242493 C308.632789,422.070018 309.049538,421.871671 309.470583,421.690571 C309.895924,421.522408 310.308377,421.319749 310.729422,421.138649 C311.154763,420.970485 311.575808,420.767827 311.996853,420.591039 C312.417898,420.418563 312.830351,420.224528 313.251396,420.039117 C313.676737,419.870953 314.093486,419.672606 314.523124,419.487195 C314.944169,419.323343 315.356621,419.120684 315.781962,418.943897 C316.203007,418.767109 316.619756,418.573074 317.045098,418.387663 C317.466143,418.219499 317.878595,418.025464 318.29964,417.840052 C318.729278,417.671889 319.146027,417.46923 319.567072,417.28813 C319.996709,417.119967 320.404865,416.917308 320.82591,416.736208 C321.255548,416.568045 321.668001,416.37401 322.089046,416.188598 C322.514387,416.016123 322.931136,415.817776 323.352181,415.636676 C323.773226,415.472824 324.194271,415.270165 324.61102,415.093378 C325.036361,414.920902 325.45311,414.722555 325.874155,414.541456 C326.299496,414.36898 326.716245,414.170633 327.132994,413.989534 C327.562632,413.82137 327.97938,413.618711 328.400425,413.437612 C328.825767,413.269448 329.238219,413.071101 329.663561,412.88569 C330.084606,412.717526 330.501354,412.519179 330.926696,412.338079 C331.347741,412.169916 331.764489,411.971569 332.185535,411.790469 C332.60658,411.617994 333.023328,411.419647 333.444373,411.238547 C333.874011,411.070383 334.286464,410.872036 334.711805,410.686625 C335.137146,410.518461 335.545302,410.320114 335.970644,410.139015 C336.400282,409.970851 336.808438,409.768192 337.233779,409.587093 C337.65912,409.418929 338.071573,409.224894 338.492618,409.035171 C338.917959,408.867007 339.334708,408.66866 339.751457,408.483249 C340.181094,408.319397 340.597843,408.12105 341.018888,407.93995 C341.44423,407.767475 341.856682,407.57344 342.277727,407.388028 C342.703069,407.219865 343.119817,407.021518 343.540862,406.840418 C343.966204,406.667943 344.382952,406.469596 344.803997,406.288496 C345.229339,406.11602 345.641791,405.921985 346.067133,405.736574 C346.492474,405.56841 346.904926,405.370063 347.325972,405.184652 C347.755609,405.0208 348.168062,404.818141 348.589107,404.637042 C349.014448,404.464566 349.426901,404.270531 349.847946,404.089432 C350.277583,403.916956 350.694332,403.718609 351.115377,403.53751 C351.540719,403.369346 351.953171,403.166687 352.374216,402.985588 C352.799557,402.817424 353.216306,402.619077 353.637351,402.437977 C354.062693,402.265502 354.479441,402.071467 354.900486,401.886055 C355.325828,401.717892 355.742577,401.519545 356.159325,401.334133 C356.588963,401.170281 357.001415,400.967622 357.42246,400.790835 C357.847802,400.614047 358.264551,400.420012 358.689892,400.234601 C359.110937,400.066437 359.523389,399.86809 359.948731,399.686991 C360.369776,399.518827 360.786525,399.316168 361.20757,399.139381 C361.632911,398.966905 362.04966,398.768558 362.470705,398.587459 C362.896046,398.414983 363.312795,398.216636 363.73384,398.035537 C368.107553,396.297844 372.257855,393.835755 376,390.640643 C375.935554,390.614772 375.875405,390.588901 375.815256,390.563029 C375.394211,390.364682 374.951684,390.22239 374.534935,390.019731" id="Fill-6" fill="#8FD4FF"></path>
                <path d="M378.184857,326.774733 C367.234045,315.826224 351.934551,311.93741 337.853715,315.022821 C337.409012,315.099742 336.968585,315.215125 336.523882,315.317687 C336.079179,315.398882 335.634476,315.518538 335.194049,315.60828 C334.749346,315.698022 334.308918,315.813404 333.864215,315.907419 C333.419512,315.988614 332.979085,316.099723 332.534382,316.202285 C332.089679,316.287754 331.649252,316.403136 331.204549,316.497152 C330.75557,316.58262 330.315143,316.698002 329.87044,316.792018 C329.425737,316.873213 328.98531,316.988595 328.540607,317.086884 C328.095904,317.172352 327.655477,317.287735 327.210774,317.38175 C326.766071,317.467218 326.325644,317.582601 325.885217,317.676616 C325.436238,317.757811 325.000087,317.873194 324.555384,317.975756 C324.106405,318.056951 323.665978,318.172333 323.221275,318.266348 C322.772296,318.351817 322.336145,318.471473 321.891442,318.565488 C321.446739,318.646683 321.002036,318.762065 320.561609,318.864628 C320.116906,318.945823 319.676479,319.061205 319.236052,319.150947 C318.787073,319.240689 318.346646,319.356071 317.897667,319.450086 C317.452964,319.531282 317.016813,319.646664 316.57211,319.744953 C316.123131,319.830421 315.682704,319.945804 315.238001,320.039819 C314.793298,320.125287 314.352871,320.24067 313.912444,320.338958 C313.459189,320.420153 313.023038,320.535536 312.578335,320.633825 C312.133632,320.71502 311.693205,320.830402 311.248502,320.924417 C310.803799,321.009886 310.363372,321.125268 309.918669,321.223557 C309.473966,321.304752 309.033539,321.420134 308.588836,321.518423 C308.144133,321.599618 307.703706,321.719274 307.254727,321.813289 C306.810024,321.898758 306.369597,322.01414 305.92917,322.112429 C305.480191,322.18935 305.039764,322.304733 304.595061,322.407295 C304.150358,322.48849 303.714207,322.603872 303.269504,322.697888 C302.824801,322.783356 302.380098,322.898738 301.939671,322.997027 C301.490692,323.078222 301.054541,323.193605 300.609838,323.28762 C300.160859,323.373088 299.720432,323.488471 299.280005,323.582486 C298.831026,323.667955 298.390599,323.783337 297.950172,323.881626 C297.501193,323.962821 297.060766,324.078203 296.616063,324.176492 C296.167084,324.26196 295.730933,324.377343 295.28623,324.467085 C294.841527,324.556826 294.396824,324.672209 293.956397,324.770498 C293.511694,324.847419 293.071267,324.962802 292.630839,325.065364 C292.18186,325.146559 291.741433,325.261941 291.29673,325.355956 C290.852027,325.441425 290.4116,325.556807 289.966897,325.655096 C289.517918,325.732018 289.077491,325.851673 288.632788,325.949962 C288.188085,326.035431 287.747658,326.150813 287.307231,326.244828 C286.858252,326.326023 286.417825,326.445679 285.973122,326.539694 C285.528419,326.62089 285.087992,326.736272 284.643289,326.834561 C284.198586,326.915756 283.762435,327.031138 283.317732,327.125153 C282.868753,327.214895 282.428326,327.330278 281.983623,327.424293 C281.53892,327.505488 281.098493,327.62087 280.65379,327.723433 C280.204811,327.804628 279.764384,327.92001 279.323957,328.014025 C278.874978,328.103767 278.438827,328.214876 277.989848,328.313165 C277.545145,328.39436 277.108994,328.505469 276.664291,328.608031 C276.219588,328.693499 275.779161,328.808882 275.334458,328.898624 C274.885479,328.988366 274.449328,329.103748 274.000349,329.197763 C273.555646,329.278958 273.115219,329.394341 272.670516,329.492629 C272.225813,329.578098 271.785386,329.69348 271.340683,329.787496 C270.89598,329.872964 270.455553,329.988346 270.01085,330.082362 C269.561871,330.163557 269.12572,330.283213 268.685293,330.377228 C268.236314,330.462696 267.795887,330.578079 267.351184,330.672094 C266.906481,330.757563 266.466054,330.872945 266.017075,330.971234 C265.572372,331.048155 265.131945,331.163538 264.687242,331.2661 C264.246815,331.351568 263.802112,331.466951 263.357409,331.556693 C262.912706,331.646434 262.472279,331.761817 262.027576,331.855832 C261.582873,331.937027 261.142446,332.05241 260.702019,332.150698 C260.257316,332.236167 259.816889,332.351549 259.372186,332.445564 C258.923207,332.531033 258.48278,332.646415 258.038077,332.740431 C257.589098,332.825899 257.152947,332.941281 256.708244,333.035297 C256.263541,333.120765 255.823114,333.236148 255.378411,333.330163 C254.933708,333.415631 254.493281,333.531014 254.052854,333.629302 C253.603875,333.710497 253.159172,333.82588 252.718745,333.924169 C252.274042,334.009637 251.833615,334.120746 251.388912,334.214761 C250.939933,334.304503 250.503781,334.419886 250.054802,334.513901 C249.610099,334.595096 249.169672,334.710478 248.724969,334.808767 C248.280266,334.894236 247.839839,335.013891 247.395136,335.103633 C246.950433,335.189102 246.510006,335.308758 246.069579,335.402773 C245.624876,335.479694 245.180173,335.59935 244.73547,335.697639 C244.491739,335.7361 244.243731,335.800201 244,335.851482 C244.008552,335.855756 244.017104,335.860029 244.02138,335.864302 C244.436151,336.065153 244.876578,336.21045 245.295625,336.39848 C245.710396,336.590784 246.150823,336.740354 246.574146,336.932658 C246.993193,337.129236 247.425068,337.283079 247.848391,337.466836 C248.267438,337.667687 248.699314,337.817257 249.118361,337.99674 C249.541684,338.197591 249.977835,338.347161 250.401158,338.535192 C250.811653,338.736042 251.25208,338.881339 251.671127,339.069369 C252.085898,339.265947 252.526325,339.415517 252.953924,339.607821 C253.368695,339.800125 253.80057,339.953968 254.228169,340.137725 C254.64294,340.338576 255.079091,340.488146 255.502414,340.667629 C255.917185,340.872754 256.353336,341.01805 256.776659,341.206081 C257.191431,341.402658 257.631858,341.552228 258.050905,341.740258 C258.469952,341.941109 258.910379,342.090679 259.32515,342.27871 C259.744197,342.475287 260.184624,342.624857 260.607947,342.812887 C261.018442,343.013738 261.458869,343.159035 261.877916,343.342792 C262.296963,343.547916 262.733114,343.688939 263.152161,343.881243 C263.571208,344.073547 264.007359,344.223117 264.426406,344.415421 C264.845453,344.611998 265.281605,344.761568 265.704928,344.949599 C266.128251,345.146176 266.560126,345.295746 266.983449,345.483777 C267.402496,345.684627 267.834371,345.829924 268.257694,346.022228 C268.676741,346.214532 269.112892,346.364102 269.540491,346.556406 C269.950986,346.74871 270.387137,346.902553 270.81046,347.08631 C271.225231,347.287161 271.661382,347.436731 272.084705,347.616214 C272.499476,347.821339 272.935627,347.970908 273.35895,348.154666 C273.777998,348.355517 274.214149,348.500813 274.637472,348.693117 C275.052243,348.889694 275.49267,349.039264 275.911717,349.227295 C276.326488,349.423872 276.766915,349.573442 277.185962,349.757199 C277.605009,349.962323 278.04116,350.10762 278.460207,350.291377 C278.879254,350.496501 279.315405,350.637524 279.738728,350.829828 C280.153499,351.026406 280.593926,351.171702 281.012973,351.364006 C281.43202,351.560583 281.868172,351.710153 282.287219,351.898184 C282.706266,352.099035 283.142417,352.244331 283.561464,352.428088 C283.984787,352.633212 284.416662,352.778509 284.844261,352.966539 C285.263308,353.16739 285.695183,353.312687 286.118506,353.500717 C286.533277,353.697295 286.969428,353.846864 287.392751,354.034895 C287.807522,354.231473 288.243673,354.381042 288.671272,354.569073 C289.086043,354.769924 289.517918,354.919494 289.945517,355.103251 C290.360289,355.304102 290.79644,355.449398 291.219763,355.641702 C291.63881,355.838279 292.074961,355.983576 292.494008,356.17588 C292.913055,356.372457 293.34493,356.522027 293.768253,356.710058 C294.1873,356.910908 294.627727,357.056205 295.046774,357.239962 C295.461545,357.445086 295.901972,357.590383 296.321019,357.77414 C296.73579,357.974991 297.176217,358.120287 297.595264,358.312591 C298.014311,358.509168 298.446187,358.658738 298.86951,358.846769 C299.288557,359.043346 299.724708,359.192916 300.143755,359.376673 C300.562802,359.581798 301.003229,359.731367 301.426552,359.915124 C301.841323,360.115975 302.277474,360.261272 302.696521,360.449302 C303.119844,360.64588 303.551719,360.79545 303.975042,360.987754 C304.394089,361.180058 304.83024,361.329627 305.249287,361.521931 C305.668334,361.718509 306.104485,361.863805 306.523532,362.051836 C306.94258,362.252687 307.378731,362.402256 307.80633,362.590287 C308.221101,362.791138 308.657252,362.932161 309.076299,363.124465 C309.495346,363.321042 309.927221,363.466339 310.350544,363.658643 C310.769591,363.850947 311.205742,364.00479 311.629065,364.188547 C312.043836,364.393671 312.479987,364.538968 312.90331,364.722725 C313.322357,364.923576 313.762784,365.073145 314.181831,365.261176 C314.596602,365.462027 315.037029,365.607323 315.456077,365.795354 C315.870848,365.991931 316.306999,366.137228 316.730322,366.329532 C317.149369,366.530383 317.58552,366.679952 318.008843,366.86371 C318.42789,367.06456 318.859765,367.209857 319.278812,367.393614 C319.702135,367.598738 320.13401,367.744035 320.561609,367.936339 C320.980656,368.128643 321.412531,368.278212 321.831578,368.466243 C322.254901,368.667094 322.686776,368.81239 323.110099,369.000421 C323.529147,369.201272 323.961022,369.350841 324.384345,369.534599 C324.799116,369.739723 325.239543,369.885019 325.662866,370.07305 C326.077637,370.269627 326.513788,370.419197 326.941387,370.611501 C327.356158,370.803805 327.788033,370.953375 328.211356,371.141405 C328.630403,371.337983 329.062278,371.487553 329.485601,371.675583 C329.904648,371.872161 330.340799,372.021731 330.764122,372.209761 C331.178893,372.410612 331.61932,372.555908 332.038368,372.743939 C332.457415,372.940516 332.897842,373.090086 333.316889,373.28239 C333.73166,373.474694 334.167811,373.628537 334.586858,373.812295 C335.005905,374.013145 335.442056,374.158442 335.865379,374.342199 C336.28015,374.547323 336.720577,374.69262 337.139624,374.88065 C337.558671,375.081501 337.994822,375.226797 338.418145,375.419101 C338.832916,375.615679 339.269067,375.765249 339.69239,375.953279 C340.115714,376.15413 340.547589,376.299426 340.966636,376.483184 C341.385683,376.688308 341.821834,376.833604 342.245157,377.017361 C342.659928,377.222486 343.096079,377.363509 343.519402,377.555813 C343.934173,377.75239 344.370324,377.897687 344.797923,378.089991 C345.208418,378.286568 345.644569,378.436138 346.072168,378.624168 C346.486939,378.825019 346.92309,378.970316 347.346413,379.158346 C347.76546,379.359197 348.197336,379.504493 348.620659,379.696797 C349.039706,379.889101 349.475857,380.034398 349.894904,380.230975 C350.313951,380.423279 350.754378,380.577122 351.173425,380.765153 C351.592472,380.96173 352.028623,381.107027 352.44767,381.295057 C352.866717,381.495908 353.298592,381.641205 353.721915,381.829235 C354.140962,382.030086 354.577113,382.175382 354.99616,382.367686 C355.415207,382.564264 355.851358,382.70956 356.274681,382.901864 C356.698005,383.098442 357.12988,383.248012 357.553203,383.436042 C357.97225,383.636893 358.404125,383.782189 358.827448,383.965947 C359.246495,384.171071 359.67837,384.312094 360.101693,384.504398 C360.516464,384.700975 360.956891,384.846272 361.380214,385.038576 C361.799261,385.235153 362.231136,385.384723 362.654459,385.572753 C363.06923,385.773604 363.509657,385.918901 363.93298,386.106931 C364.347751,386.307782 364.783902,386.453078 365.20295,386.641109 C365.621997,386.84196 366.058148,386.982983 366.481471,387.17956 C366.896242,387.371864 367.336669,387.517161 367.755716,387.709465 C368.170487,387.906042 368.610914,388.055612 369.029961,388.243642 C369.449008,388.444493 369.889435,388.58979 370.308482,388.77782 C370.727529,388.978671 371.16368,389.128241 371.582727,389.316272 C372.001774,389.512849 372.433649,389.658145 372.856972,389.850449 C373.27602,390.047027 373.712171,390.196597 374.135494,390.384627 C374.550265,390.585478 374.986416,390.730774 375.409739,390.914532 C375.469603,390.944446 375.529467,390.974359 375.593606,391 C376.478736,390.243604 377.346762,389.448748 378.184857,388.611157 C395.271714,371.530287 395.271714,343.847056 378.184857,326.774733" id="Fill-8" fill="#141ED2"></path>
            </g>
        </g>
    </g>
</svg>