<?xml version="1.0" encoding="UTF-8"?>
<svg width="18px" height="16px" viewBox="0 0 18 16" version="1.1" xmlns="http://www.w3.org/2000/svg" xmlns:xlink="http://www.w3.org/1999/xlink">
    <title>2936963</title>
    <g id="Page-1" stroke="none" stroke-width="1" fill="none" fill-rule="evenodd">
        <g id="Home" transform="translate(-667.000000, -72.000000)" fill="#FFFFFF" fill-rule="nonzero">
            <g id="2936963" transform="translate(667.000000, 72.000000)">
                <path d="M3.13044498,16 L14.869555,16 C15.3017108,16 15.6521624,15.6418391 15.6521624,15.199998 L15.6521624,7.68221921 L16.7081344,8.60750152 C17.0376121,8.89622224 17.5315156,8.85470214 17.8116108,8.5206213 C18.0928798,8.18518046 18.0548451,7.6801392 17.7266196,7.39253848 L9.50932085,0.192600482 C9.21631267,-0.0642001605 8.78376559,-0.0642001605 8.49067915,0.192600482 L0.273380384,7.39253848 C-0.0548451325,7.6800592 -0.092879849,8.18510046 0.188389227,8.5206213 C0.469580043,8.85614214 0.963718315,8.89494224 1.29186557,8.60750152 L2.34783765,7.68221921 L2.34783765,15.199998 C2.34783765,15.6418391 2.69828921,16 3.13044498,16 Z M3.91305232,6.31077578 L9,1.85364463 L14.0869477,6.31077578 L14.0869477,14.399996 L9.78260734,14.399996 L9.78260734,11.199988 C9.78260734,10.7581469 9.43215577,10.399986 9,10.399986 C8.56784423,10.399986 8.21739266,10.7581469 8.21739266,11.199988 L8.21739266,14.399996 L3.91305232,14.399996 L3.91305232,6.31077578 Z" id="Shape"></path>
            </g>
        </g>
    </g>
</svg>