<?xml version="1.0" encoding="UTF-8"?>
<svg width="165px" height="117px" viewBox="0 0 165 117" version="1.1" 
    xmlns="http://www.w3.org/2000/svg" 
    xmlns:xlink="http://www.w3.org/1999/xlink">
    <!-- Generator: Sketch 62 (91390) - https://sketch.com -->
    <title>Group 4</title>
    <desc>Created with Sketch.</desc>
    <g id="#-Dki-online" stroke="none" stroke-width="1" fill="none" fill-rule="evenodd">
        <g id="#PC---Dki-online/-Step-4" transform="translate(-638.000000, -558.000000)">
            <g id="Group-8" transform="translate(345.000000, 504.000000)">
                <g id="Group-6">
                    <g id="Group-3" transform="translate(0.000000, 54.000000)">
                        <g id="Group-4" transform="translate(293.000000, 0.000000)">
                            <path d="M58.7165119,66.2068995 L52.7980769,72.1287955 L71.821618,91.1634615 L114.096154,48.8642038 L108.177719,42.9423077 L71.821618,79.3196694 L58.7165119,66.2068995 Z M110.5,74 C110.5,92.7 95.2,108 76.5,108 C57.8,108 42.5,92.7 42.5,74 C42.5,55.3 57.8,40 76.5,40 C79.9,40 82.875,40.425 85.85,41.275 L92.6501667,34.475 C87.55,32.775 82.025,31.5 76.5,31.5 C53.125,31.5 34,50.625 34,74 C34,97.375 53.125,116.5 76.5,116.5 C99.875,116.5 119,97.375 119,74 L110.5,74 Z" id="Shape" fill="#002395" fill-rule="nonzero"></path>
                            <g id="Group-2" transform="translate(0.000000, 0.500000)">
                                <polyline id="Fill-7" fill="#002395" points="71.1634524 0.258496939 73.7694048 6.24159694 79.7997619 8.82656633 73.7694048 11.4115357 71.1634524 17.3933367 68.5575 11.4115357 62.5271429 8.82656633 68.5575 6.24159694 71.1634524 0.258496939"></polyline>
                                <polyline id="Fill-8" fill="#002395" points="157.320952 60.4597061 159.378214 65.1814969 164.139643 67.2221939 159.378214 69.2641898 157.320952 73.9872796 155.262381 69.2641898 150.502262 67.2221939 155.262381 65.1814969 157.320952 60.4597061"></polyline>
                                <polyline id="Fill-9" fill="#002395" points="5.46464286 65.0567949 6.98369048 68.5432561 10.4997619 70.0500724 6.98369048 71.5568888 5.46464286 75.044649 3.94559524 71.5568888 0.430833333 70.0500724 3.94559524 68.5432561 5.46464286 65.0567949"></polyline>
                                <path d="M129.312857,15.2266388 C132.322143,15.9982327 134.130595,19.0443398 133.351429,22.0293949 C132.573571,25.01445 129.504048,26.8083408 126.494762,26.035448 C123.485476,25.2638541 121.677024,22.2177469 122.45619,19.2339908 C123.232738,16.2489357 126.303571,14.4550449 129.312857,15.2266388" id="Fill-10" fill="#A0D1FF"></path>
                                <path d="M19.6625,30.0947592 C19.6625,32.1341571 17.9954762,33.7877582 15.9395238,33.7877582 C13.8835714,33.7877582 12.2178571,32.1341571 12.2178571,30.0947592 C12.2178571,28.0553612 13.8835714,26.4017602 15.9395238,26.4017602 C17.9954762,26.4017602 19.6625,28.0553612 19.6625,30.0947592" id="Fill-11" fill="#A0D1FF"></path>
                            </g>
                        </g>
                    </g>
                </g>
            </g>
        </g>
    </g>
</svg>