<?xml version="1.0" encoding="UTF-8"?>
<svg width="33px" height="31px" viewBox="0 0 33 31" version="1.1" xmlns="http://www.w3.org/2000/svg" xmlns:xlink="http://www.w3.org/1999/xlink">
    <!-- Generator: Sketch 59.1 (86144) - https://sketch.com -->
    <title>ion-heart - Ionicons</title>
    <desc>Created with Sketch.</desc>
    <defs>
        <filter x="-4.7%" y="-29.2%" width="109.3%" height="158.3%" filterUnits="objectBoundingBox" id="filter-1">
            <feOffset dx="0" dy="-4" in="SourceAlpha" result="shadowOffsetOuter1"></feOffset>
            <feGaussianBlur stdDeviation="2.5" in="shadowOffsetOuter1" result="shadowBlurOuter1"></feGaussianBlur>
            <feColorMatrix values="0 0 0 0 0.34375   0 0 0 0 0.165592275   0 0 0 0 0.0646362305  0 0 0 0.241989357 0" type="matrix" in="shadowBlurOuter1" result="shadowMatrixOuter1"></feColorMatrix>
            <feMerge>
                <feMergeNode in="shadowMatrixOuter1"></feMergeNode>
                <feMergeNode in="SourceGraphic"></feMergeNode>
            </feMerge>
        </filter>
    </defs>
    <g id="Symbols" stroke="none" stroke-width="1" fill="none" fill-rule="evenodd">
        <g id="#-Menu-bottom" transform="translate(-216.000000, -1.000000)" stroke="#FFFFFF" stroke-width="0.98">
            <g id="menu-bottom">
                <g filter="url(#filter-1)">
                    <g id="wishlist" transform="translate(193.000000, 0.000000)">
                        <g id="Group-4" transform="translate(13.000000, 9.000000)">
                            <g id="Group-3" transform="translate(15.000000, 0.000000)">
                                <path d="M20.2836538,3.66666667 C21.4278903,4.88195052 22,6.36631068 22,8.11979167 C22,9.87327266 21.4278903,11.3576328 20.2836538,12.5729167 L11.5,22 L2.71634615,12.5729167 C1.57210966,11.3576328 1,9.87327266 1,8.11979167 C1,6.36631068 1.57210966,4.88195052 2.71634615,3.66666667 C3.72596659,2.55555 4.96273306,2 6.42668269,2 C7.89063232,2 9.1273988,2.55555 10.1370192,3.66666667 L11.5,5.125 L12.9134615,3.66666667 C13.923082,2.55555 15.1514351,2 16.5985577,2 C18.0456803,2 19.2740334,2.55555 20.2836538,3.66666667 Z" id="ion-heart---Ionicons"></path>
                            </g>
                        </g>
                    </g>
                </g>
            </g>
        </g>
    </g>
</svg>