<?xml version="1.0" encoding="UTF-8"?>
<svg width="24px" height="24px" viewBox="0 0 24 24" version="1.1" xmlns="http://www.w3.org/2000/svg" xmlns:xlink="http://www.w3.org/1999/xlink">
    <title>icofooter-atm</title>
    <g id="Symbols" stroke="none" stroke-width="1" fill="none" fill-rule="evenodd">
        <g id="Footer-26/8" transform="translate(-1092.000000, -489.000000)">
            <g id="Group-5" transform="translate(1077.000000, 479.000000)">
                <g id="icofooter-atm" transform="translate(12.000000, 7.000000)">
                    <rect id="Rectangle-10" fill-opacity="0" fill="#FFFFFF" x="0" y="0" width="30" height="30"></rect>
                    <g id="phone" transform="translate(3.750000, 3.750000)" fill="#42d0e2" fill-rule="nonzero" stroke="#42d0e2" stroke-width="0.3">
                        <g id="ico-diemGD-ATM" transform="translate(0.250000, 0.250000)">
                            <path d="M11,9.53333333 C12.4153333,9.53333333 13.5666667,8.38163333 13.5666667,6.96666667 C13.5666667,5.5517 12.4153333,4.4 11,4.4 C9.58466667,4.4 8.43333333,5.5517 8.43333333,6.96666667 C8.43333333,8.38163333 9.58466667,9.53333333 11,9.53333333 Z M11,5.13333333 C12.0109,5.13333333 12.8333333,5.95576667 12.8333333,6.96666667 C12.8333333,7.97756667 12.0109,8.8 11,8.8 C9.9891,8.8 9.16666667,7.97756667 9.16666667,6.96666667 C9.16666667,5.95576667 9.9891,5.13333333 11,5.13333333 Z" id="Shape"></path>
                            <path d="M10.9351,20.0775667 L16.5601333,11.9533333 C18.6699333,9.14063333 18.3648667,4.51733333 15.9071,2.05993333 C14.5790333,0.7315 12.8131667,0 10.9351,0 C9.05703333,0 7.29116667,0.7315 5.9631,2.05956667 C3.50533333,4.51696667 3.20026667,9.14026667 5.30163333,11.9419667 L10.9351,20.0775667 Z M6.48156667,2.57803333 C7.6714,1.38856667 9.25283333,0.733333333 10.9351,0.733333333 C12.6173667,0.733333333 14.1988,1.38856667 15.3886333,2.57803333 C17.6069667,4.796 17.8801333,8.9716 15.9654,11.5243333 L10.9351,18.7891 L5.89673333,11.5133333 C3.99006667,8.9716 4.2636,4.796 6.48156667,2.57803333 Z" id="Shape"></path>
                            <path d="M15.4429,15.7692333 C15.2412333,15.7446667 15.0593667,15.8891333 15.0359,16.0904333 C15.0124333,16.2917333 15.1561667,16.4739667 15.3571,16.4974333 C19.2129667,16.9513667 21.2666667,18.1745667 21.2666667,18.8833333 C21.2666667,19.8784667 17.3609333,21.2666667 11,21.2666667 C4.63906667,21.2666667 0.733333333,19.8784667 0.733333333,18.8833333 C0.733333333,18.1745667 2.78703333,16.9513667 6.6429,16.4974333 C6.84383333,16.4739667 6.98756667,16.2913667 6.9641,16.0904333 C6.94026667,15.8891333 6.7584,15.7439333 6.5571,15.7692333 C2.69646667,16.2239 0,17.5043 0,18.8833333 C0,20.4321333 3.7785,22 11,22 C18.2215,22 22,20.4321333 22,18.8833333 C22,17.5043 19.3035333,16.2239 15.4429,15.7692333 Z" id="Shape"></path>
                        </g>
                    </g>
                </g>
            </g>
        </g>
    </g>
</svg>