<?xml version="1.0" encoding="UTF-8"?>
<svg width="186px" height="90px" viewBox="0 0 186 90" version="1.1" xmlns="http://www.w3.org/2000/svg" xmlns:xlink="http://www.w3.org/1999/xlink">
    <!-- Generator: Sketch 61.2 (89653) - https://sketch.com -->
    <title>Group 26</title>
    <desc>Created with Sketch.</desc>
    <defs>
        <path d="M76.5304878,54 C76.7356311,47.0128939 77.1643484,40.3016479 77.649961,33.5960646 C78.0281938,28.3741392 78.5514694,23.1627305 79.0338766,17.9488948 C79.182926,16.340655 79.4193215,14.740505 79.5964179,13.1346921 C79.6773533,12.3960991 79.9313783,11.9980841 80.7896144,12.0158815 C83.3515011,12.0692737 85.9173944,12.0894981 88.4776784,12.0086007 C89.5338457,11.9754328 89.7518104,12.6751951 90.0787574,13.3644407 C93.0316984,19.6024371 95.9525858,25.854995 98.5769771,32.2434606 C98.7885311,32.7595858 98.8983148,33.3323392 99.3262308,33.740062 C99.921627,33.6001095 99.9023948,33.0467715 100.052246,32.6738346 C102.681445,26.1454166 105.715321,19.8030626 108.663454,13.4202599 C109.132239,12.4049978 109.663528,11.9487367 110.825472,12.0045558 C112.99951,12.1081045 115.181561,12.0199263 117.360406,12.0385327 C119.157814,12.0539032 118.981519,11.723033 119.291638,13.8271737 C119.650639,16.2549038 119.899054,18.7020493 120.121026,21.1483859 C121.047376,31.3883753 121.794225,41.6413084 122.186882,51.9185106 C122.204512,52.3715359 122.235764,52.8229432 122.249387,53.2759685 C122.263811,53.7467912 122.023409,53.9862474 121.560234,53.9862474 C118.805224,53.9886744 116.050214,53.9919103 113.295204,53.9838205 C112.82642,53.9822026 112.628489,53.6828823 112.614866,53.2322839 C112.597236,52.6506318 112.565183,52.0689797 112.55156,51.4873276 C112.390491,44.5042664 112.068352,37.526868 111.683708,30.5535145 C111.656462,30.0624674 111.767849,29.5285447 111.396027,29.0148464 C110.829479,29.2243706 110.774186,29.7857984 110.597891,30.2064647 C108.249962,35.7964732 105.921266,41.3953803 103.589364,46.9926696 C102.926655,48.5855388 102.929861,48.5903927 101.248647,48.5976734 C100.031411,48.6025273 98.8133726,48.6017183 97.5961359,48.5976734 C95.8692464,48.5920106 95.8700477,48.5895837 95.2257697,47.040399 C93.0204797,41.7391942 90.8175937,36.4371804 88.6074957,31.1384025 C88.3142049,30.4337863 87.9848538,29.7445407 87.6146343,28.9210055 C86.903845,29.457355 87.155466,30.1433648 87.1226111,30.691849 C86.7195366,37.4710488 86.4198351,44.2542935 86.2675804,51.04401 C86.2010691,54 86.1842409,54 83.2192798,54 C81.0500502,54 78.8816218,54 76.5304878,54" id="path-1"></path>
        <filter x="-77.6%" y="-89.3%" width="255.3%" height="269.0%" filterUnits="objectBoundingBox" id="filter-2">
            <feOffset dx="0" dy="-2" in="SourceAlpha" result="shadowOffsetOuter1"></feOffset>
            <feGaussianBlur stdDeviation="11.5" in="shadowOffsetOuter1" result="shadowBlurOuter1"></feGaussianBlur>
            <feColorMatrix values="0 0 0 0 0   0 0 0 0 0   0 0 0 0 0  0 0 0 0.0694633152 0" type="matrix" in="shadowBlurOuter1"></feColorMatrix>
        </filter>
        <polygon id="path-3" points="0.212995114 0.0769047619 14.4603529 0.0769047619 14.4603529 16.59936 0.212995114 16.59936"></polygon>
        <path d="M149.968646,46.0679908 C148.937762,46.7217859 147.775842,47.0016269 146.588211,47.0940743 C144.214609,47.2781364 141.835201,47.1715303 139.457451,47.1290544 C138.624783,47.114063 138.268162,46.8167319 138.299677,45.9505576 C138.34695,44.6254774 138.312118,43.2978986 138.312947,41.9711527 C138.312947,40.6435739 138.337827,39.3159951 138.302995,37.990082 C138.285578,37.3154655 138.593268,37.0256302 139.211963,36.97316 C142.443115,36.7016477 145.684218,36.4584526 148.863121,37.3088026 C150.903324,37.8551587 152.155644,39.2360405 152.371275,41.3964793 C152.576954,43.4511448 151.677938,44.98444 149.968646,46.0679908 M138.311288,24.9508264 C138.311288,23.6690549 138.331193,22.6029942 138.304653,21.5385992 C138.287237,20.8398296 138.460571,20.3867538 139.269189,20.3667652 C141.787098,20.302635 144.306667,20.1752074 146.814624,20.492527 C147.462347,20.5741473 148.106753,20.7931895 148.717984,21.0388832 C150.570754,21.78346 151.529484,23.2176448 151.437426,25.0166224 C151.347856,26.7739569 150.205011,28.1540059 148.269305,28.6428947 C147.248374,28.9010812 146.18017,28.9935287 145.127724,29.0909733 C144.338182,29.164265 143.536199,29.1692622 142.74334,29.1267863 C141.304416,29.0501632 139.499748,29.6548195 138.542677,28.6137446 C137.755623,27.7592302 138.400029,26.0568645 138.311288,24.9508264 M157.071207,31.7119836 C157.424511,31.3730096 157.647606,31.1289816 157.899729,30.9207667 C162.74148,26.9172088 162.330951,19.1566197 156.934365,15.1855433 C155.246635,13.9437491 153.33664,13.2025038 151.303901,12.7910709 C148.631732,12.249712 145.923072,12.0498256 143.200312,12.0098483 C138.821339,11.9448852 134.451489,12.2180633 130.078321,12.338828 C128.232186,12.3896324 128.217257,12.4012925 128.216428,14.1894428 C128.212281,27.4427434 128.212281,40.6960441 128.217257,53.9493447 C128.217257,55.5700902 128.233844,55.5984074 129.787219,55.6933535 C135.616727,56.0514832 141.45287,56.0822991 147.284866,55.856594 C149.52909,55.7699766 151.769996,55.4609855 153.943725,54.7946976 C158.988667,53.2489095 162.167569,49.9707726 162.841002,44.6612904 C163.518582,39.3218251 162.110344,34.7544211 157.071207,31.7119836" id="path-5"></path>
        <filter x="-102.1%" y="-85.2%" width="304.1%" height="261.4%" filterUnits="objectBoundingBox" id="filter-6">
            <feOffset dx="0" dy="-2" in="SourceAlpha" result="shadowOffsetOuter1"></feOffset>
            <feGaussianBlur stdDeviation="11.5" in="shadowOffsetOuter1" result="shadowBlurOuter1"></feGaussianBlur>
            <feColorMatrix values="0 0 0 0 0   0 0 0 0 0   0 0 0 0 0  0 0 0 0.0694633152 0" type="matrix" in="shadowBlurOuter1"></feColorMatrix>
        </filter>
    </defs>
    <g id="Symbols" stroke="none" stroke-width="1" fill="none" fill-rule="evenodd">
        <g id="#-FOOTER" transform="translate(-148.000000, -333.000000)">
            <g id="Group-5">
                <g transform="translate(0.000000, 150.000000)">
                    <g id="Group-4" transform="translate(148.000000, 196.000000)">
                        <g id="Group-2">
                            <g id="Group-47">
                                <g id="Group-46" transform="translate(0.000000, 0.000000)">
                                    <g id="Group-26">
                                        <g id="Fill-1">
                                            <use fill="black" fill-opacity="1" filter="url(#filter-2)" xlink:href="#path-1"></use>
                                            <use fill="#42d0e2" fill-rule="evenodd" xlink:href="#path-1"></use>
                                        </g>
                                        <path d="M21.8658537,32.1444479 C21.8501036,32.912347 21.4381164,33.8143735 20.7127867,34.5909007 C17.8180997,37.68995 14.9399915,40.8015494 12.0129755,43.8723614 C10.7985664,45.1461797 9.3711176,45.3218788 8.12189268,44.4951519 C6.91245727,43.6943092 6.5775622,42.2338106 7.43801042,40.8266492 C9.69192055,37.1424592 11.9698702,33.4700347 14.3174514,29.8383975 C15.3428604,28.2523995 17.2428096,27.6656901 18.981114,28.1833749 C20.6472998,28.6790973 21.8476168,30.211758 21.8658537,32.1444479" id="Fill-3" fill="#E30613"></path>
                                        <path d="M39.0096958,48 C36.9408372,47.9756273 35.1912038,46.4798639 34.8623843,44.4533167 C34.4664055,42.0142385 35.6403868,39.944362 37.9508449,39.2980333 C40.165361,38.6787855 42.4199983,38.2157036 44.6606803,37.7011683 C47.0374256,37.1550386 49.4124265,36.5953686 51.7996382,36.1052059 C53.6923125,35.716145 54.9613636,36.4175379 55.4803227,38.0207218 C55.9992817,39.6257111 55.3826363,41.0627994 53.6591689,41.8562671 C49.4002157,43.8169177 45.1089912,45.7035474 40.8386995,47.6380199 C40.2447312,47.9070226 39.6385521,47.9846542 39.0096958,48" id="Fill-5" fill="#E30613"></path>
                                        <path d="M42.7352368,27.6295199 C42.8072641,30.1930866 41.3575378,32.0216616 39.2242581,32 C37.168655,31.9795696 35.6158308,30.1129498 35.7944868,27.6813255 C36.110842,23.3709394 36.5310014,19.0702668 36.8883134,14.7639281 C36.9942359,13.4898346 37.4398167,12.5217178 38.5548278,12.1347949 C40.0313878,11.6215959 41.3688362,12.6115681 41.6392917,14.4619987 C41.7974693,15.5418212 41.8200662,16.6467371 41.9104534,17.739511 C42.181615,21.0186423 42.4570136,24.2961546 42.7352368,27.6295199" id="Fill-7" fill="#E30613"></path>
                                        <path d="M15.4735586,16.0084685 C16.475329,16.2419777 17.7624468,16.5500302 19.0521825,16.8419166 C22.382109,17.5963309 25.7129082,18.341764 29.0437074,19.094382 C30.7994233,19.4913476 32.1345354,20.4235881 32.6144776,22.2952539 C33.0324637,23.9280219 32.7645687,25.4602013 31.5524964,26.6645698 C30.3063918,27.9030665 28.8133351,28.3485302 27.131792,27.7099724 C26.2190291,27.3641992 25.3289544,26.9528638 24.4353892,26.5558982 C21.2415917,25.1341866 18.0504121,23.7070863 14.8592326,22.279986 C14.41245,22.0806051 13.9517054,21.903677 13.5319741,21.6540018 C12.1628298,20.8403122 11.6348933,19.4760797 12.0825485,17.997787 C12.4848274,16.6667848 13.652396,15.9105743 15.4735586,16.0084685" id="Fill-9" fill="#E30613"></path>
                                        <path d="M21.8705059,46.0714883 C21.845535,44.288982 22.8327185,42.868018 24.4291923,42.2819885 C26.0714461,41.6794179 27.7844508,42.0535631 28.9730663,43.2988757 C29.237758,43.576137 29.4649933,43.8927819 29.6672577,44.2157283 C31.8305713,47.6744049 33.9863935,51.1370199 36.1413834,54.6004226 C36.3086885,54.8705948 36.4884791,55.1431301 36.5975188,55.4353571 C37.0261861,56.5845735 36.6566166,57.7952285 35.6952364,58.4836556 C34.6997293,59.1965006 33.1948155,59.173658 32.1826611,58.4001622 C31.8755189,58.166223 31.6233127,57.8661192 31.3594533,57.5841319 C28.6742477,54.7138477 25.995701,51.8380498 23.3055011,48.9709164 C22.4947788,48.106838 21.8022521,47.2025882 21.8705059,46.0714883" id="Fill-11" fill="#E30613"></path>
                                        <path d="M14.9055465,25.6369687 C14.9124721,27.0245924 14.3973798,27.930252 13.3793151,28.5254235 C12.2868,29.1647126 11.1432086,29.1447348 10.0316481,28.5462337 C9.73557824,28.3872438 9.45595672,28.1658234 9.23347148,27.9194307 C6.47015289,24.8553378 3.66095212,21.8270385 0.98593506,18.6930234 C-0.619075177,16.8109495 -0.19315013,14.2671115 1.74602081,12.8603424 C3.67307194,11.461065 6.37752284,11.7623966 7.76697345,13.8101196 C10.1433236,17.3137238 12.3179653,20.9438539 14.5739829,24.5223747 C14.8328276,24.9327517 14.927189,25.3855815 14.9055465,25.6369687" id="Fill-13" fill="#E30613"></path>
                                        <g id="Group-17" transform="translate(28.823171, 0.000000)">
                                            <mask id="mask-4" fill="white">
                                                <use xlink:href="#path-3"></use>
                                            </mask>
                                            <g id="Clip-16"></g>
                                            <path d="M10.2260965,0.0772285714 C13.4057561,0.0205619048 15.603937,3.31289524 13.8248516,5.88637143 C11.3127632,9.52113333 8.18859654,12.7163238 5.10170122,15.9026095 C4.22375407,16.8092762 2.93002439,16.7639429 1.77212805,16.1519429 C0.620029472,15.5423714 0.0584745935,14.3539905 0.249800813,13.0458 C0.326,12.5236571 0.53389126,12.0573714 0.812183943,11.6113238 C2.771,8.46794286 4.72981606,5.32618095 6.67786484,2.17632381 C7.48955183,0.864085714 8.62011585,0.0934190476 10.2260965,0.0772285714" id="Fill-15" fill="#E30613" mask="url(#mask-4)"></path>
                                        </g>
                                        <path d="M35.873047,62.0239012 C36.112035,58.9960613 36.3389314,55.9674442 36.59499,52.9411586 C36.7415124,51.1979745 37.7394296,50.0780779 39.1477519,50.0034699 C40.5155315,49.9311934 41.6429006,50.9928026 41.8662406,52.7414268 C42.0853129,54.4597415 42.1820461,56.1967082 42.3150544,57.9266804 C42.4715346,59.9659648 42.6827829,62.0052492 42.7361285,64.0491966 C42.797298,66.406342 41.1770162,68.0881299 39.0972514,67.9964243 C37.3987294,67.9225935 36.1077674,66.6527037 35.8332157,64.8100424 C35.693806,63.8751113 35.8751808,62.9541693 35.873047,62.0239012" id="Fill-18" fill="#E30613"></path>
                                        <path d="M0.993902439,53.4778629 C0.989388046,51.1802626 2.11534968,49.5513053 4.25331838,48.9175162 C7.00030252,48.1039547 9.76162531,47.3573493 12.5169108,46.5859793 C13.2202595,46.3887801 13.9205895,46.1374657 14.6337488,46.0338215 C16.1755314,45.8109405 17.349037,46.7033816 17.7429726,48.3048228 C18.1753962,50.0594373 17.6554314,51.7021527 16.1845874,52.4845292 C12.7689692,54.3033481 9.3382577,56.095568 5.85396491,57.7070984 C3.43299647,58.8260894 0.99995337,56.5936107 0.993902439,53.4778629" id="Fill-20" fill="#E30613"></path>
                                        <path d="M60.8502947,37.9975277 C60.3239838,38.024238 59.6904475,37.8326602 59.0689928,37.5130568 C55.9609646,35.9159607 52.8529364,34.3207067 49.7343367,32.7549263 C48.7209806,32.2465081 47.9696472,31.4921704 47.7642576,30.1216519 C47.3844378,27.5878507 48.9505337,25.6223357 51.0980634,26.0616753 C52.6392406,26.3775945 54.1509686,26.9035126 55.6755335,27.339168 C57.7860628,27.9415329 59.9147148,28.4674509 62.0010807,29.1775784 C63.8760161,29.8167853 64.87427,31.9941412 64.5397568,34.3400487 C64.2309172,36.5017468 62.8165983,37.9616068 60.8502947,37.9975277" id="Fill-22" fill="#E30613"></path>
                                        <g id="Fill-24">
                                            <use fill="black" fill-opacity="1" filter="url(#filter-6)" xlink:href="#path-5"></use>
                                            <use fill="#42d0e2" fill-rule="evenodd" xlink:href="#path-5"></use>
                                        </g>
                                    </g>
                                </g>
                            </g>
                        </g>
                    </g>
                </g>
            </g>
        </g>
    </g>
</svg>