<?xml version="1.0" encoding="UTF-8"?>
<svg width="39px" height="41px" viewBox="0 0 39 41" version="1.1" xmlns="http://www.w3.org/2000/svg" xmlns:xlink="http://www.w3.org/1999/xlink">
    <!-- Generator: Sketch 63.1 (92452) - https://sketch.com -->
    <title>Group 2</title>
    <desc>Created with Sketch.</desc>
    <defs>
        <polygon id="path-1" points="0.127797068 0.0461428571 8.67621176 0.0461428571 8.67621176 9.959616 0.127797068 9.959616"></polygon>
    </defs>
    <g id="#-Vá»-MB" stroke="none" stroke-width="1" fill="none" fill-rule="evenodd">
        <g id="#PC---Ve-MB/-Lich-su" transform="translate(-452.000000, -1718.000000)">
            <g id="Group-25" transform="translate(150.000000, 569.000000)">
                <g id="Group-14" transform="translate(98.000000, 287.000000)">
                    <g id="Group-11-Copy-2" transform="translate(0.000000, 810.000000)">
                        <g id="Group-8" transform="translate(0.000000, 52.000000)">
                            <g id="Group-2" transform="translate(204.000000, 0.000000)">
                                <path d="M13.1195122,19.2866687 C13.1100622,19.7474082 12.8628698,20.2886241 12.427672,20.7545404 C10.6908598,22.61397 8.96399492,24.4809296 7.20778529,26.3234168 C6.47913983,27.0877078 5.62267056,27.1931273 4.87313561,26.6970911 C4.14747436,26.2165855 3.94653732,25.3402864 4.46280625,24.4959895 C5.81515233,22.2854755 7.1819221,20.0820208 8.59047087,17.9030385 C9.20571621,16.9514397 10.3456858,16.5994141 11.3886684,16.9100249 C12.3883799,17.2074584 13.1085701,18.1270548 13.1195122,19.2866687" id="Fill-3" fill="#E30613"></path>
                                <path d="M23.4058175,28.8 C22.1645023,28.7853764 21.1147223,27.8879183 20.9174306,26.67199 C20.6798433,25.2085431 21.3842321,23.9666172 22.7705069,23.57882 C24.0992166,23.2072713 25.451999,22.9294222 26.7964082,22.620701 C28.2224554,22.2930232 29.6474559,21.9572211 31.0797829,21.6631235 C32.2153875,21.429687 32.9768182,21.8505227 33.2881936,22.8124331 C33.599569,23.7754267 33.2295818,24.6376796 32.1955013,25.1137603 C29.6401294,26.2901506 27.0653947,27.4221284 24.5032197,28.5828119 C24.1468387,28.7442135 23.7831313,28.7907925 23.4058175,28.8" id="Fill-5" fill="#E30613"></path>
                                <path d="M25.6411421,16.5777119 C25.6843585,18.115852 24.8145227,19.212997 23.5345549,19.2 C22.301193,19.1877418 21.3694985,18.0677699 21.4766921,16.6087953 C21.6665052,14.0225636 21.9186008,11.4421601 22.132988,8.85835683 C22.1965415,8.09390075 22.46389,7.5130307 23.1328967,7.28087694 C24.0188327,6.97295753 24.8213017,7.56694088 24.983575,8.6771992 C25.0784816,9.32509272 25.0920397,9.98804225 25.146272,10.6437066 C25.308969,12.6111854 25.4742082,14.5776928 25.6411421,16.5777119" id="Fill-7" fill="#E30613"></path>
                                <path d="M9.28413517,9.60508111 C9.88519738,9.74518662 10.6574681,9.93001811 11.4313095,10.10515 C13.4292654,10.5577985 15.4277449,11.0050584 17.4262244,11.4566292 C18.479654,11.6948086 19.2807212,12.2541529 19.5686866,13.3771524 C19.8194782,14.3568131 19.6587412,15.2761208 18.9314978,15.9987419 C18.1838351,16.7418399 17.288001,17.0091181 16.2790752,16.6259834 C15.7314175,16.4185195 15.1973726,16.1717183 14.6612335,15.9335389 C12.744955,15.080512 10.8302473,14.2242518 8.91553953,13.3679916 C8.64746997,13.2483631 8.37102324,13.1422062 8.11918446,12.9924011 C7.29769786,12.5041873 6.98093598,11.6856478 7.24952912,10.7986722 C7.49089643,10.0000709 8.19143758,9.54634457 9.28413517,9.60508111" id="Fill-9" fill="#E30613"></path>
                                <path d="M13.1223036,27.642893 C13.107321,26.5733892 13.6996311,25.7208108 14.6575154,25.3691931 C15.6428676,25.0076507 16.6706705,25.2321378 17.3838398,25.9793254 C17.5426548,26.1456822 17.678996,26.3356692 17.8003546,26.529437 C19.0983428,28.604643 20.3918361,30.682212 21.68483,32.7602536 C21.7852131,32.9223569 21.8930875,33.085878 21.9585113,33.2612143 C22.2157117,33.9507441 21.99397,34.6771371 21.4171418,35.0901934 C20.8198376,35.5179004 19.9168893,35.5041948 19.3095967,35.0400973 C19.1253113,34.8997338 18.9739876,34.7196715 18.815672,34.5504791 C17.2045486,32.8283086 15.5974206,31.1028299 13.9833007,29.3825498 C13.4968673,28.8641028 13.0813513,28.3215529 13.1223036,27.642893" id="Fill-11" fill="#E30613"></path>
                                <path d="M8.94332789,15.3821812 C8.94748326,16.2147554 8.63842789,16.7581512 8.02758904,17.1152541 C7.37208001,17.4988276 6.68592515,17.4868409 6.01898886,17.1277402 C5.84134695,17.0323463 5.67357403,16.899494 5.54008289,16.7516584 C3.88209173,14.9132027 2.19657127,13.0962231 0.591561036,11.215814 C-0.371445106,10.0865697 -0.115890078,8.56026689 1.04761249,7.71620545 C2.20384316,6.87663902 3.82651371,7.05743798 4.66018407,8.28607179 C6.08599414,10.3882343 7.39077916,12.5663123 8.74438973,14.7134248 C8.89969655,14.959651 8.95631341,15.2313489 8.94332789,15.3821812" id="Fill-13" fill="#E30613"></path>
                                <g id="Group-17" transform="translate(17.293902, 0.000000)">
                                    <mask id="mask-2" fill="white">
                                        <use xlink:href="#path-1"></use>
                                    </mask>
                                    <g id="Clip-16"></g>
                                    <path d="M6.13565793,0.0463371429 C8.04345366,0.0123371429 9.3623622,1.98773714 8.29491098,3.53182286 C6.78765793,5.71268 4.91315793,7.62979429 3.06102073,9.54156571 C2.53425244,10.0855657 1.75801463,10.0583657 1.06327683,9.69116571 C0.372017683,9.32542286 0.0350847561,8.61239429 0.149880488,7.82748 C0.1956,7.51419429 0.320334756,7.23442286 0.487310366,6.96679429 C1.6626,5.08076571 2.83788963,3.19570857 4.0067189,1.30579429 C4.4937311,0.518451429 5.17206951,0.0560514286 6.13565793,0.0463371429" id="Fill-15" fill="#E30613" mask="url(#mask-2)"></path>
                                </g>
                                <path d="M21.5238282,37.2143407 C21.667221,35.3976368 21.8033588,33.5804665 21.956994,31.7646951 C22.0449074,30.7187847 22.6436578,30.0468467 23.4886511,30.0020819 C24.3093189,29.9587161 24.9857403,30.5956816 25.1197443,31.6448561 C25.2511877,32.6758449 25.3092277,33.7180249 25.3890326,34.7560083 C25.4829208,35.9795789 25.6096698,37.2031495 25.6416771,38.429518 C25.6783788,39.8438052 24.7062097,40.8528779 23.4583508,40.7978546 C22.4392377,40.7535561 21.6646604,39.9916222 21.4999294,38.8860255 C21.4162836,38.3250668 21.5251085,37.7725016 21.5238282,37.2143407" id="Fill-18" fill="#E30613"></path>
                                <path d="M0.596341463,32.0867178 C0.593632828,30.7081576 1.26920981,29.7307832 2.55199103,29.3505097 C4.20018151,28.8623728 5.85697519,28.4144096 7.51014647,27.9515876 C7.93215568,27.833268 8.35235369,27.6824794 8.7802493,27.6202929 C9.70531885,27.4865643 10.4094222,28.022029 10.6457836,28.9828937 C10.9052377,30.0356624 10.5932588,31.0212916 9.71075244,31.4907175 C7.66138153,32.5820088 5.60295462,33.6573408 3.51237894,34.624259 C2.05979788,35.2956536 0.599972022,33.9561664 0.596341463,32.0867178" id="Fill-20" fill="#E30613"></path>
                                <path d="M36.5101768,22.7985166 C36.1943903,22.8145428 35.8142685,22.6995961 35.4413957,22.5078341 C33.5765788,21.5495764 31.7117619,20.592424 29.840602,19.6529558 C29.2325884,19.3479049 28.7817883,18.8953022 28.6585546,18.0729912 C28.4306627,16.5527104 29.3703202,15.3734014 30.658838,15.6370052 C31.5835444,15.8265567 32.4905812,16.1421075 33.4053201,16.4035008 C34.6716377,16.7649197 35.9488289,17.0804706 37.2006484,17.5065471 C38.3256096,17.8900712 38.924562,19.1964847 38.7238541,20.6040292 C38.5385503,21.9010481 37.689959,22.7769641 36.5101768,22.7985166" id="Fill-22" fill="#E30613"></path>
                            </g>
                        </g>
                    </g>
                </g>
            </g>
        </g>
    </g>
</svg>