<?xml version="1.0" encoding="UTF-8"?>
<svg width="38px" height="46px" viewBox="0 0 38 46" version="1.1" xmlns="http://www.w3.org/2000/svg" xmlns:xlink="http://www.w3.org/1999/xlink">
    <!-- Generator: Sketch 63.1 (92452) - https://sketch.com -->
    <title>icon/other/tinh-toan</title>
    <desc>Created with Sketch.</desc>
    <defs>
        <rect id="path-1" x="0" y="0" width="46" height="46"></rect>
    </defs>
    <g id="Page-1" stroke="none" stroke-width="1" fill="none" fill-rule="evenodd">
        <g id="#PC---Công-cụ" transform="translate(-194.000000, -1134.000000)">
            <g id="Group-24" transform="translate(150.000000, 1049.000000)">
                <g id="Group-22" transform="translate(0.000000, 50.000000)">
                    <g id="Group-10">
                        <g id="Group-7" transform="translate(40.000000, 35.000000)">
                            <g id="Group-14">
                                <g id="icon/other/tinh-toan">
                                    <g id="icon/tinh-toan">
                                        <g id="Tinh-toan">
                                            <mask id="mask-2" fill="white">
                                                <use xlink:href="#path-1"></use>
                                            </mask>
                                            <g id="Mask"></g>
                                            <g mask="url(#mask-2)" fill="#141ED2" fill-rule="nonzero" id="Shape">
                                                <g transform="translate(4.000000, 0.000000)">
                                                    <path d="M32,46.0000839 L6,46.0000839 C4.57059665,46.0079856 3.19699645,45.4457467 2.18342833,44.4378095 C1.16986021,43.4298723 0.6,42.0594257 0.6,40.63 L0.6,5.37 C0.6,3.94057435 1.16986021,2.57012769 2.18342833,1.5621905 C3.19699645,0.554253316 4.57059665,-0.00798561836 6,-8.39177857e-05 L32,-8.39177857e-05 C33.4294033,-0.00798561836 34.8030035,0.554253316 35.8165717,1.5621905 C36.8301398,2.57012769 37.4,3.94057435 37.4,5.37 L37.4,40.63 C37.4,42.0594257 36.8301398,43.4298723 35.8165717,44.4378095 C34.8030035,45.4457467 33.4294033,46.0079856 32,46.0000839 Z M6,1.52988265 C4.97638071,1.52200273 3.99193695,1.92303976 3.26529576,2.64404807 C2.53865457,3.36505639 2.13,4.34634947 2.13,5.37 L2.13,40.63 C2.13,41.6536505 2.53865457,42.6349436 3.26529576,43.3559519 C3.99193695,44.0769602 4.97638071,44.4779973 6,44.4701174 L32,44.4701174 C34.1129701,44.4645046 35.8245046,42.7529701 35.83,40.64 L35.83,5.37 C35.83,3.25312567 34.1168671,1.53551269 32,1.52988265 L6,1.52988265 Z"></path>
                                                    <path d="M21.3,42.93 L16.7,42.93 C15.4297451,42.93 14.4,41.9002549 14.4,40.63 L14.4,40.63 L14.4,37.57 C14.4,36.2997451 15.4297451,35.27 16.7,35.27 L21.3,35.27 C22.5702549,35.27 23.6,36.2997451 23.6,37.57 L23.6,40.64 C23.6,41.9102549 22.5702549,42.94 21.3,42.94 L21.3,42.94 L21.3,42.93 Z M16.7,36.8 C16.2747407,36.8 15.93,37.1447407 15.93,37.57 L15.93,40.64 C15.93,41.0652593 16.2747407,41.41 16.7,41.41 L21.3,41.41 C21.7252593,41.41 22.07,41.0652593 22.07,40.64 L22.07,37.57 C22.07,37.1447407 21.7252593,36.8 21.3,36.8 L16.7,36.8 Z"></path>
                                                    <path d="M10.57,42.93 L6,42.93 C4.72974508,42.93 3.7,41.9002549 3.7,40.63 L3.7,40.63 L3.7,37.57 C3.7,36.2997451 4.72974508,35.27 6,35.27 L10.6,35.27 C11.8702549,35.27 12.9,36.2997451 12.9,37.57 L12.9,40.64 C12.9,41.9102549 11.8702549,42.94 10.6,42.94 L10.6,42.94 L10.57,42.93 Z M6,36.8 C5.57474074,36.8 5.23,37.1447407 5.23,37.57 L5.23,40.64 C5.23,41.0652593 5.57474074,41.41 6,41.41 L10.6,41.41 C11.0252593,41.41 11.37,41.0652593 11.37,40.64 L11.37,37.57 C11.37,37.1447407 11.0252593,36.8 10.6,36.8 L6,36.8 Z"></path>
                                                    <path d="M32,42.93 L27.4,42.93 C26.1297451,42.93 25.1,41.9002549 25.1,40.63 L25.1,40.63 L25.1,28.37 C25.1,27.0997451 26.1297451,26.07 27.4,26.07 L32,26.07 C32.6099979,26.07 33.1950119,26.3123207 33.6263456,26.7436544 C34.0576793,27.1749881 34.3,27.7600021 34.3,28.37 L34.3,40.63 C34.3,41.9002549 33.2702549,42.93 32,42.93 L32,42.93 L32,42.93 Z M27.43,27.6 C27.0047407,27.6 26.66,27.9447407 26.66,28.37 L26.66,40.63 C26.66,41.0552593 27.0047407,41.4 27.43,41.4 L32,41.4 C32.4252593,41.4 32.77,41.0552593 32.77,40.63 L32.77,28.37 C32.77,27.9447407 32.4252593,27.6 32,27.6 L27.4,27.6 L27.43,27.6 Z"></path>
                                                    <path d="M21.3,33.73 L16.7,33.73 C15.4297451,33.73 14.4,32.7002549 14.4,31.43 L14.4,28.37 C14.4,27.0997451 15.4297451,26.07 16.7,26.07 L21.3,26.07 C21.9099979,26.07 22.4950119,26.3123207 22.9263456,26.7436544 C23.3576793,27.1749881 23.6,27.7600021 23.6,28.37 L23.6,31.44 C23.5944941,32.7063479 22.5663599,33.73 21.3,33.73 Z M16.7,27.6 C16.2747407,27.6 15.93,27.9447407 15.93,28.37 L15.93,31.44 C15.93,31.8652593 16.2747407,32.21 16.7,32.21 L21.3,32.21 C21.7252593,32.21 22.07,31.8652593 22.07,31.44 L22.07,28.37 C22.07,27.9447407 21.7252593,27.6 21.3,27.6 L16.7,27.6 L16.7,27.6 Z"></path>
                                                    <path d="M10.57,33.73 L6,33.73 C4.72974508,33.73 3.7,32.7002549 3.7,31.43 L3.7,28.37 C3.7,27.0997451 4.72974508,26.07 6,26.07 L10.6,26.07 C11.2099979,26.07 11.7950119,26.3123207 12.2263456,26.7436544 C12.6576793,27.1749881 12.9,27.7600021 12.9,28.37 L12.9,31.44 C12.8973849,32.0534961 12.6497759,32.6405219 12.2122252,33.070561 C11.7746745,33.5006001 11.1834494,33.7380078 10.57,33.73 L10.57,33.73 Z M6,27.6 C5.57474074,27.6 5.23,27.9447407 5.23,28.37 L5.23,31.44 C5.23,31.8652593 5.57474074,32.21 6,32.21 L10.6,32.21 C11.0252593,32.21 11.37,31.8652593 11.37,31.44 L11.37,28.37 C11.37,27.9447407 11.0252593,27.6 10.6,27.6 L6,27.6 L6,27.6 Z"></path>
                                                    <path d="M21.3,24.53 L16.7,24.53 C15.4297451,24.53 14.4,23.5002549 14.4,22.23 L14.4,19.17 C14.4,17.8997451 15.4297451,16.87 16.7,16.87 L21.3,16.87 C22.5702549,16.87 23.6,17.8997451 23.6,19.17 L23.6,22.24 C23.5944941,23.5063479 22.5663599,24.53 21.3,24.53 Z M16.7,18.4 C16.2747407,18.4 15.93,18.7447407 15.93,19.17 L15.93,22.24 C15.93,22.6652593 16.2747407,23.01 16.7,23.01 L21.3,23.01 C21.7252593,23.01 22.07,22.6652593 22.07,22.24 L22.07,19.17 C22.07,18.7447407 21.7252593,18.4 21.3,18.4 L16.7,18.4 L16.7,18.4 Z"></path>
                                                    <path d="M10.57,24.53 L6,24.53 C4.72974508,24.53 3.7,23.5002549 3.7,22.23 L3.7,19.17 C3.7,17.8997451 4.72974508,16.87 6,16.87 L10.6,16.87 C11.8702549,16.87 12.9,17.8997451 12.9,19.17 L12.9,22.24 C12.8973849,22.8534961 12.6497759,23.4405219 12.2122252,23.870561 C11.7746745,24.3006001 11.1834494,24.5380078 10.57,24.53 L10.57,24.53 Z M6,18.4 C5.57474074,18.4 5.23,18.7447407 5.23,19.17 L5.23,22.24 C5.23547252,22.6613489 5.57861557,23 6,23 L10.6,23 C11.0252593,23 11.37,22.6552593 11.37,22.23 L11.37,19.17 C11.37,18.7447407 11.0252593,18.4 10.6,18.4 L6,18.4 L6,18.4 Z"></path>
                                                    <path d="M32,24.53 L27.4,24.53 C26.1297451,24.53 25.1,23.5002549 25.1,22.23 L25.1,19.17 C25.1,17.8997451 26.1297451,16.87 27.4,16.87 L32,16.87 C33.2702549,16.87 34.3,17.8997451 34.3,19.17 L34.3,22.24 C34.2944941,23.5063479 33.2663599,24.53 32,24.53 Z M27.4,18.4 C26.9747407,18.4 26.63,18.7447407 26.63,19.17 L26.63,22.24 C26.63,22.6652593 26.9747407,23.01 27.4,23.01 L32,23.01 C32.4252593,23.01 32.77,22.6652593 32.77,22.24 L32.77,19.17 C32.77,18.9657833 32.6888752,18.7699308 32.5444722,18.6255278 C32.4000692,18.4811248 32.2042167,18.4 32,18.4 L27.4,18.4 L27.4,18.4 Z"></path>
                                                    <path d="M32,13.8 L6,13.8 C4.72974508,13.8 3.7,12.7702549 3.7,11.5 L3.7,5.37 C3.7,4.09974508 4.72974508,3.07 6,3.07 L32,3.07 C33.2702549,3.07 34.3,4.09974508 34.3,5.37 L34.3,11.5 C34.3,12.7702549 33.2702549,13.8 32,13.8 Z M6,4.6 C5.57474074,4.6 5.23,4.94474074 5.23,5.37 L5.23,11.5 C5.23,11.9252593 5.57474074,12.27 6,12.27 L32,12.27 C32.4252593,12.27 32.77,11.9252593 32.77,11.5 L32.77,5.37 C32.77,4.94474074 32.4252593,4.6 32,4.6 L6,4.6 Z"></path>
                                                    <path d="M29.73,11.5 C28.4597451,11.5 27.43,10.4702549 27.43,9.2 L27.43,7.67 C27.43,6.39974508 28.4597451,5.37 29.73,5.37 C31.0002549,5.37 32.03,6.39974508 32.03,7.67 L32.03,9.2 C32.03,10.4702549 31.0002549,11.5 29.73,11.5 Z M29.73,6.9 C29.3047407,6.9 28.96,7.24474074 28.96,7.67 L28.96,9.2 C28.9263093,9.49419252 29.064307,9.78164054 29.3149393,9.93933571 C29.5655716,10.0970309 29.8844284,10.0970309 30.1350607,9.93933571 C30.385693,9.78164054 30.5236907,9.49419252 30.49,9.2 L30.49,7.67 C30.4900355,7.24861557 30.1513489,6.90547252 29.73,6.9 L29.73,6.9 Z"></path>
                                                </g>
                                            </g>
                                        </g>
                                    </g>
                                </g>
                            </g>
                        </g>
                    </g>
                </g>
            </g>
        </g>
    </g>
</svg>