<?xml version="1.0" encoding="UTF-8"?>
<svg width="23px" height="28px" viewBox="0 0 23 28" version="1.1" xmlns="http://www.w3.org/2000/svg" xmlns:xlink="http://www.w3.org/1999/xlink">
    <!-- Generator: Sketch 61.2 (89653) - https://sketch.com -->
    <title>Group 20</title>
    <desc>Created with Sketch.</desc>
    <defs>
        <filter x="-0.8%" y="-10.0%" width="101.7%" height="120.0%" filterUnits="objectBoundingBox" id="filter-1">
            <feOffset dx="0" dy="2" in="SourceAlpha" result="shadowOffsetOuter1"></feOffset>
            <feGaussianBlur stdDeviation="2" in="shadowOffsetOuter1" result="shadowBlurOuter1"></feGaussianBlur>
            <feColorMatrix values="0 0 0 0 0   0 0 0 0 0   0 0 0 0 0  0 0 0 0.256036932 0" type="matrix" in="shadowBlurOuter1" result="shadowMatrixOuter1"></feColorMatrix>
            <feMerge>
                <feMergeNode in="shadowMatrixOuter1"></feMergeNode>
                <feMergeNode in="SourceGraphic"></feMergeNode>
            </feMerge>
        </filter>
        <polygon id="path-2" points="0 0 14.6099749 0 14.6099749 19.7696004 0 19.7696004"></polygon>
    </defs>
    <g id="#-Home" stroke="none" stroke-width="1" fill="none" fill-rule="evenodd">
        <g id="#PC---Home---2" transform="translate(-300.000000, -9.000000)">
            <g id="Group-2" transform="translate(-1.000000, 0.000000)">
                <g id="#-HEADER">
                    <g filter="url(#filter-1)" id="bieuphi">
                        <g transform="translate(299.000000, 7.000000)">
                            <g id="ico-diemgdich">
                                <g id="Group-20" transform="translate(6.000000, 4.000000)">
                                    <path d="M8.03195315,8.25964734 L2.31065834,8.25964734 C2.15068666,8.25964734 2.02106442,8.38930819 2.02106442,8.54924126 C2.02106442,8.70921295 2.15072527,8.83883519 2.31065834,8.83883519 L8.03195315,8.83883519 C8.19188622,8.83883519 8.32154708,8.70921295 8.32154708,8.54924126 C8.32154708,8.38930819 8.19188622,8.25964734 8.03195315,8.25964734" id="Fill-1" fill="#000000"></path>
                                    <path d="M12.2210335,7.70582019 L10.8655023,8.48532982 L10.9899891,8.03391081 C11.0325401,7.879731 10.9420323,7.72026128 10.7878525,7.67774889 C10.6335569,7.63519789 10.474203,7.72574426 10.4316906,7.87992406 L10.2732248,8.45436257 C10.2161941,8.66109402 10.2889015,8.87952507 10.4584105,9.01084626 C10.6194247,9.13556471 10.8573937,9.15815303 11.0435832,9.05104189 L12.5097394,8.20793745 C12.6483583,8.12820259 12.6961606,7.95116417 12.6163872,7.8125066 C12.5367295,7.67388764 12.3596911,7.62612395 12.2210335,7.70582019" id="Fill-3" fill="#000000"></path>
                                    <path d="M8.03195315,10.4673879 L2.31065834,10.4673879 C2.15072527,10.4673879 2.02106442,10.5970487 2.02106442,10.7569818 C2.02106442,10.9169535 2.15068666,11.0465757 2.31065834,11.0465757 L8.03195315,11.0465757 C8.19188622,11.0465757 8.32154708,10.9169921 8.32154708,10.7569818 C8.32154708,10.5970487 8.19188622,10.4673879 8.03195315,10.4673879" id="Fill-5" fill="#000000"></path>
                                    <path d="M12.2210335,9.91361478 L10.8655023,10.6930858 L10.9899891,10.2417054 C11.0325787,10.0875256 10.9420323,9.92805586 10.7878525,9.88554347 C10.6335569,9.84299247 10.474203,9.93353884 10.4316906,10.0877186 L10.2732248,10.6621572 C10.2161941,10.8688886 10.2889015,11.087281 10.4584491,11.2186408 C10.6199266,11.3437454 10.8568531,11.3662179 11.0436219,11.2588365 L12.509778,10.415732 C12.6483583,10.3359586 12.6961606,10.1589587 12.6163872,10.0203012 C12.5367295,9.88164361 12.3596911,9.83387992 12.2210335,9.91361478" id="Fill-7" fill="#000000"></path>
                                    <path d="M8.03195315,12.6751245 L2.31065834,12.6751245 C2.15072527,12.6751245 2.02106442,12.8047854 2.02106442,12.9647185 C2.02106442,13.1246901 2.15068666,13.2543124 2.31065834,13.2543124 L8.03195315,13.2543124 C8.19188622,13.2543124 8.32154708,13.1246901 8.32154708,12.9647185 C8.32154708,12.8047854 8.19188622,12.6751245 8.03195315,12.6751245" id="Fill-9" fill="#000000"></path>
                                    <path d="M12.2210335,12.1213553 L10.8655023,12.9008649 L10.9899891,12.4494073 C11.0325787,12.2952275 10.9420323,12.1357578 10.7878525,12.0932454 C10.6335569,12.0506944 10.474203,12.1412407 10.4316906,12.2954206 L10.2732248,12.8698591 C10.2161941,13.0765905 10.2889015,13.2950216 10.4584491,13.4263814 C10.6266066,13.5566214 10.8592471,13.5725298 11.0435832,13.466577 L12.5097394,12.6234726 C12.6483583,12.5437377 12.6961606,12.3666993 12.6163872,12.2280417 C12.5367295,12.0894227 12.3596911,12.0416591 12.2210335,12.1213553" id="Fill-11" fill="#000000"></path>
                                    <path d="M8.03195315,14.8829037 L2.31065834,14.8829037 C2.15072527,14.8829037 2.02106442,15.0125259 2.02106442,15.1724976 C2.02106442,15.3324307 2.15068666,15.4620915 2.31065834,15.4620915 L8.03195315,15.4620915 C8.19188622,15.4620915 8.32154708,15.3324307 8.32154708,15.1724976 C8.32154708,15.0125259 8.19188622,14.8829037 8.03195315,14.8829037" id="Fill-13" fill="#000000"></path>
                                    <path d="M12.2210335,14.329092 L10.8655023,15.1086016 L10.9899891,14.657144 C11.0325401,14.5029642 10.9420323,14.3434944 10.7878525,14.300982 C10.6335569,14.258431 10.474203,14.3489774 10.4316906,14.5031572 L10.2732248,15.0775957 C10.2161941,15.2842886 10.2889015,15.5027582 10.4584491,15.6340794 C10.626568,15.7643195 10.8591698,15.780305 11.0435832,15.674275 L12.5097394,14.8311706 C12.6483583,14.7514357 12.6961606,14.5744359 12.6163872,14.435817 C12.5367295,14.2971208 12.3596911,14.2493957 12.2210335,14.329092" id="Fill-15" fill="#000000"></path>
                                    <g id="Group-19">
                                        <mask id="mask-3" fill="white">
                                            <use xlink:href="#path-2"></use>
                                        </mask>
                                        <g id="Clip-18"></g>
                                        <path d="M14.0308102,18.5265088 C14.0308102,18.8925941 13.7329146,19.1904125 13.3668679,19.1904125 L1.24311474,19.1904125 C0.87702941,19.1904125 0.579172405,18.8925941 0.579172405,18.5265088 L0.579172405,17.2137988 C0.579172405,17.2135285 0.579172405,17.2132969 0.579172405,17.2130266 L0.579172405,5.67703327 L4.25048974,5.67703327 C4.88960422,5.67703327 5.43195572,5.25453504 5.61281678,4.6741502 C5.65552223,4.53726881 5.67706802,4.39374606 5.67706802,4.25037776 L5.67706802,0.579176266 L13.3669065,0.579176266 C13.7329532,0.579176266 14.0308102,0.877187721 14.0308102,1.24346612 L14.0308102,6.32433361 C14.0308102,6.3246039 14.0308102,6.32483558 14.0308102,6.32506725 L14.0308102,18.5265088 Z M5.09788017,0.988700689 L5.09788017,4.25041637 C5.09788017,4.7099054 4.71295193,5.09784542 4.25048974,5.09784542 L0.98873544,5.09784542 L5.09788017,0.988700689 Z M14.6099981,1.24346612 C14.6099981,0.557862153 14.0523174,-1.1583757e-05 13.3668679,-1.1583757e-05 L5.38743548,-1.1583757e-05 C5.3116391,-1.1583757e-05 5.23638329,0.0312645601 5.18271189,0.0847815175 C5.18271189,0.0847815175 0.0857815818,5.18175043 0.0846618186,5.18283159 C0.0319171118,5.2365416 -1.54450093e-05,5.31222215 -1.54450093e-05,5.38743935 L-1.54450093e-05,17.2137988 L-1.54450093e-05,17.5998854 L-1.54450093e-05,18.5265088 C-1.54450093e-05,19.2119583 0.557626617,19.7696004 1.24307613,19.7696004 L13.3668679,19.7696004 C14.0523174,19.7696004 14.6099981,19.2119583 14.6099981,18.5265088 L14.6099981,6.32576228 C14.6099981,6.3255306 14.6099981,6.32529893 14.6099981,6.32502864 L14.6099981,1.24346612 Z" id="Fill-17" fill="#000000" mask="url(#mask-3)"></path>
                                    </g>
                                </g>
                            </g>
                        </g>
                    </g>
                </g>
            </g>
        </g>
    </g>
</svg>