<?xml version="1.0" encoding="UTF-8"?>
<svg width="22px" height="26px" viewBox="0 0 22 26" version="1.1" xmlns="http://www.w3.org/2000/svg" xmlns:xlink="http://www.w3.org/1999/xlink">
    <!-- Generator: Sketch 61.2 (89653) - https://sketch.com -->
    <title>Tai-lieu-3</title>
    <desc>Created with Sketch.</desc>
    <defs>
        <filter x="-0.8%" y="-10.0%" width="101.7%" height="120.0%" filterUnits="objectBoundingBox" id="filter-1">
            <feOffset dx="0" dy="2" in="SourceAlpha" result="shadowOffsetOuter1"></feOffset>
            <feGaussianBlur stdDeviation="2" in="shadowOffsetOuter1" result="shadowBlurOuter1"></feGaussianBlur>
            <feColorMatrix values="0 0 0 0 0   0 0 0 0 0   0 0 0 0 0  0 0 0 0.256036932 0" type="matrix" in="shadowBlurOuter1" result="shadowMatrixOuter1"></feColorMatrix>
            <feMerge>
                <feMergeNode in="shadowMatrixOuter1"></feMergeNode>
                <feMergeNode in="SourceGraphic"></feMergeNode>
            </feMerge>
        </filter>
    </defs>
    <g id="Symbols" stroke="none" stroke-width="1" fill="none" fill-rule="evenodd">
        <g id="#Header" transform="translate(-302.000000, -10.000000)" fill="#333333" fill-rule="nonzero">
            <g id="ca-nhan" filter="url(#filter-1)">
                <g id="Group-11" transform="translate(1.000000, 0.000000)">
                    <g id="bieuphi" transform="translate(298.000000, 7.000000)">
                        <g id="ico-diemgdich">
                            <g id="Tai-lieu-3" transform="translate(7.000000, 5.000000)">
                                <path d="M3.28222222,10.1111111 C3.47921914,10.1111111 3.66814757,10.1893678 3.80744543,10.3286657 C3.94674328,10.4679635 4.025,10.656892 4.025,10.8538889 C4.025,10.9849031 4.13120801,11.0911111 4.26222222,11.0911111 C4.39323644,11.0911111 4.49944444,10.9849031 4.49944444,10.8538889 C4.5033153,10.2626311 4.08173248,9.75410707 3.5,9.64833333 L3.5,9.33333333 C3.5,9.20231912 3.39379199,9.09611111 3.26277778,9.09611111 C3.13176356,9.09611111 3.02555556,9.20231912 3.02555556,9.33333333 L3.02555556,9.66388889 C2.44608059,9.81899383 2.06600161,10.3731527 2.13001078,10.9696018 C2.19401996,11.566051 2.68303109,12.0269416 3.28222222,12.0555556 C3.69244706,12.0555556 4.025,12.3881085 4.025,12.7983333 C4.025,13.2085582 3.69244706,13.5411111 3.28222222,13.5411111 C2.87199738,13.5411111 2.53944444,13.2085582 2.53944444,12.7983333 C2.53944444,12.6673191 2.43323644,12.5611111 2.30222222,12.5611111 C2.17120801,12.5611111 2.065,12.6673191 2.065,12.7983333 C2.0582201,13.3725782 2.45372304,13.8734405 3.01388889,14 L3.01388889,14.3888889 C3.01388889,14.5231248 3.12270857,14.6319444 3.25694444,14.6319444 C3.39118032,14.6319444 3.5,14.5231248 3.5,14.3888889 L3.5,14 C4.11814943,13.8882956 4.54977457,13.3245552 4.49635758,12.6986692 C4.44294058,12.0727833 3.92202747,11.5903384 3.29388889,11.585 C2.92208683,11.5412073 2.64098512,11.2275615 2.63802185,10.8532009 C2.63505857,10.4788404 2.91115999,10.160784 3.28222222,10.1111111 L3.28222222,10.1111111 Z" id="Path"></path>
                                <path d="M10.3327778,7.56 L7.06611111,7.56 C6.69328195,7.55787557 6.39156888,7.2561625 6.38944444,6.88333333 L6.38944444,2.45 C6.39156888,2.07717083 6.69328195,1.77545777 7.06611111,1.77333333 L10.3288889,1.77333333 C10.7032359,1.77333333 11.0073053,2.07565914 11.0094444,2.45 L11.0094444,6.88333333 C11.00732,7.2561625 10.7056069,7.55787557 10.3327778,7.56 L10.3327778,7.56 Z M7.06611111,2.35666667 C7.01456453,2.35666667 6.97277778,2.39845342 6.97277778,2.45 L6.97277778,6.88333333 C6.97277778,6.93487991 7.01456453,6.97666667 7.06611111,6.97666667 L10.3288889,6.97666667 C10.3804355,6.97666667 10.4222222,6.93487991 10.4222222,6.88333333 L10.4222222,2.45 C10.4222222,2.39845342 10.3804355,2.35666667 10.3288889,2.35666667 L7.06611111,2.35666667 Z" id="Shape"></path>
                                <path d="M10.7061111,9.85833333 L6.68111111,9.85833333 C6.52002807,9.85833333 6.38944446,9.72774971 6.38944446,9.56666667 C6.38944446,9.40558362 6.52002807,9.275 6.68111111,9.275 L10.7061111,9.275 C10.8671942,9.275 10.9977778,9.40558361 10.9977778,9.56666667 C10.9977778,9.72774972 10.8671942,9.85833333 10.7061111,9.85833333 Z" id="Path"></path>
                                <path d="M10.7061111,12.1761111 L6.68111111,12.1761111 C6.52002806,12.1761111 6.38944444,12.0455275 6.38944444,11.8844444 C6.38944444,11.7233614 6.52002806,11.5927778 6.68111111,11.5927778 L10.7061111,11.5927778 C10.8671942,11.5927778 10.9977778,11.7233614 10.9977778,11.8844444 C10.9977778,12.0455275 10.8671942,12.1761111 10.7061111,12.1761111 Z" id="Path"></path>
                                <path d="M10.7061111,14.4783333 L6.68111111,14.4783333 C6.52002806,14.4783333 6.38944444,14.3477497 6.38944444,14.1866667 C6.38944444,14.0255836 6.52002806,13.895 6.68111111,13.895 L10.7061111,13.895 C10.8671942,13.895 10.9977778,14.0255836 10.9977778,14.1866667 C10.9977778,14.3477497 10.8671942,14.4783333 10.7061111,14.4783333 Z" id="Path"></path>
                                <path d="M3.15388889,5.05555556 L0.361666667,5.05555556 C0.243778245,5.05545186 0.137543872,4.98439081 0.0924439537,4.87547026 C0.0473440351,4.7665497 0.0722476601,4.64118932 0.155555556,4.55777778 L4.53833333,0.171111111 C4.62322655,0.0861321371 4.7515356,0.0618884154 4.8615824,0.110033889 C4.97162919,0.158179363 5.04090585,0.26886683 5.03611111,0.388888889 L5.03611111,4.75222222 C5.0358036,4.79098114 5.02787534,4.82930109 5.01277778,4.865 C4.94666667,5.02055556 4.93111111,5.05555556 3.15388889,5.05555556 Z M1.06166667,4.47222222 C2.32166667,4.47222222 3.85,4.47222222 4.45277778,4.47222222 L4.45277778,1.08111111 L1.06166667,4.47222222 Z" id="Shape"></path>
                                <path d="M12.075,16.8 L0.750555556,16.8 C0.374695101,16.8 0.07,16.4953049 0.07,16.1194444 L0.07,4.66666667 L4.63555556,0.0855555482 L12.075,0.0855555482 C12.2575342,0.0855555482 12.432428,0.158829198 12.5603977,0.28899262 C12.6883673,0.419156042 12.7586847,0.595270359 12.7556557,0.777777778 L12.7556557,16.1194444 C12.7556557,16.4953049 12.4508605,16.8 12.075,16.8 Z M0.653333333,4.89222222 L0.653333333,16.1194444 C0.653333333,16.1731388 0.696861205,16.2166667 0.750555556,16.2166667 L12.075,16.2166667 C12.1286944,16.2166667 12.1722222,16.1731388 12.1722222,16.1194444 L12.1722222,0.777777778 C12.1722222,0.724083427 12.1286944,0.680555556 12.075,0.680555556 L4.87666667,0.680555556 L0.653333333,4.89222222 Z" id="Shape"></path>
                                <path d="M13.2494444,17.8033333 L1.925,17.8033333 C1.74246576,17.8033333 1.56757199,17.7300597 1.43960233,17.5998963 C1.31163268,17.4697328 1.24131528,17.2936185 1.24444444,17.1111111 L1.24444444,16.8038889 L0.750555556,16.8038889 C0.374695101,16.8038889 0.07,16.4991938 0.07,16.1233333 L0.07,4.66666667 L4.64333333,0.0855555482 L12.075,0.0855555482 C12.2575342,0.0855555482 12.432428,0.158829198 12.5603977,0.28899262 C12.6883673,0.419156042 12.7586847,0.595270359 12.7555556,0.777777778 L12.7555556,1.085 L13.2494444,1.085 C13.6253049,1.085 13.9301001,1.3896951 13.9301001,1.76555556 L13.9301001,17.1111111 C13.9331292,17.2936185 13.8628118,17.4697328 13.7348421,17.5998963 C13.6068725,17.7300597 13.4319787,17.8033333 13.2494444,17.8033333 L13.2494444,17.8033333 Z M0.653333333,4.9 L0.653333333,16.1233333 C0.653333333,16.1770277 0.696861205,16.2205556 0.750555556,16.2205556 L1.82777778,16.2205556 L1.82777778,17.1111111 C1.82777778,17.1648055 1.87130565,17.2083333 1.925,17.2083333 L13.2494444,17.2083333 C13.3031388,17.2083333 13.3466667,17.1648055 13.3466667,17.1111111 L13.3466667,1.76555556 C13.3466667,1.7118612 13.3031388,1.66833333 13.2494444,1.66833333 L12.1722222,1.66833333 L12.1722222,0.777777778 C12.1722222,0.724083427 12.1286944,0.680555556 12.075,0.680555556 L4.88444444,0.680555556 L0.653333333,4.9 Z" id="Shape"></path>
                            </g>
                        </g>
                    </g>
                </g>
            </g>
        </g>
    </g>
</svg>