<?xml version="1.0" encoding="UTF-8"?>
<svg width="119px" height="39px" viewBox="0 0 119 39" version="1.1" xmlns="http://www.w3.org/2000/svg" xmlns:xlink="http://www.w3.org/1999/xlink">
    <!-- Generator: Sketch 61.2 (89653) - https://sketch.com -->
    <title>Group 29</title>
    <desc>Created with Sketch.</desc>
    <g id="Symbols" stroke="none" stroke-width="1" fill="none" fill-rule="evenodd">
        <g id="#-FOOTER" transform="translate(-131.000000, -383.000000)">
            <g id="Group-76">
                <g transform="translate(0.000000, 63.000000)">
                    <g id="Group-64" transform="translate(131.000000, 283.000000)">
                        <g id="Group-31">
                            <g id="Group-48">
                                <g id="Group-32" transform="translate(0.000000, 37.000000)">
                                    <g id="Group-29">
                                        <rect id="Rectangle-3" fill="#343434" x="0" y="0" width="118.5408" height="38.94912" rx="3.84"></rect>
                                        <g id="Group-28" transform="translate(9.313920, 6.773760)" fill="#FFFFFF">
                                            <path d="M1.94102931,0 C0.869028422,0 0,0.94969851 0,2.12577623 L0,24.1225438 C0,25.2965776 0.868067143,26.24832 1.94102931,26.24832 L11.6064907,26.24832 C12.6784916,26.24832 13.54752,25.2986215 13.54752,24.1225438 L13.54752,2.12577623 C13.54752,0.951742438 12.6794529,0 11.6064907,0 L1.94102931,0 L1.94102931,0 Z M1.27008,3.44240262 L1.27008,22.8059174 L12.27744,22.8059174 L12.27744,3.44240262 L1.27008,3.44240262 L1.27008,3.44240262 Z M6.77376,25.3877193 C7.24139054,25.3877193 7.62048,25.0024153 7.62048,24.5271187 C7.62048,24.0518221 7.24139054,23.666518 6.77376,23.666518 C6.30612946,23.666518 5.92704,24.0518221 5.92704,24.5271187 C5.92704,25.0024153 6.30612946,25.3877193 6.77376,25.3877193 L6.77376,25.3877193 Z M5.08032,1.72120131 C5.08032,1.95884962 5.22585,2.15150164 5.41744921,2.15150164 L8.13007079,2.15150164 C8.31626211,2.15150164 8.4672,1.95189944 8.4672,1.72120131 C8.4672,1.483553 8.32167,1.29090098 8.13007079,1.29090098 L5.41744921,1.29090098 C5.23125789,1.29090098 5.08032,1.49050319 5.08032,1.72120131 Z" id="iPhone-Vector"></path>
                                            <text id="Availabel-on-the" font-family="Helvetica" font-size="10.16064" font-weight="normal" letter-spacing="0.203212792">
                                                <tspan x="20.32128" y="10.84672">Availabel on the</tspan>
                                            </text>
                                            <text id="App-Store" font-family="Helvetica" font-size="19.37" font-weight="normal" letter-spacing="-0.6858406">
                                                <tspan x="20.32128" y="29.16064">App </tspan>
                                                <tspan x="20.32128" y="52.16064">Store</tspan>
                                            </text>
                                        </g>
                                    </g>
                                </g>
                            </g>
                        </g>
                    </g>
                </g>
            </g>
        </g>
    </g>
</svg>