<?xml version="1.0" encoding="UTF-8"?>
<svg width="118px" height="42px" viewBox="0 0 118 42" version="1.1" xmlns="http://www.w3.org/2000/svg" xmlns:xlink="http://www.w3.org/1999/xlink">
    <!-- Generator: Sketch 61.2 (89653) - https://sketch.com -->
    <title>Group 29</title>
    <desc>Created with Sketch.</desc>
    <g id="02.-Header---Footer---Banner" stroke="none" stroke-width="1" fill="none" fill-rule="evenodd">
        <g id="#-Footer" transform="translate(-117.000000, -374.000000)">
            <g id="#-FOOTER-Mb-1" transform="translate(0.000000, 165.000000)">
                <g id="---Download-app" transform="translate(1.000000, 194.000000)">
                    <g id="Group-33" transform="translate(15.000000, 15.000000)">
                        <g id="Group-32" transform="translate(102.000000, 0.000000)">
                            <g id="Group-29" transform="translate(0.000000, 0.829882)">
                                <rect id="Rectangle-3" stroke="#141ED2" stroke-width="0.571209408" fill="#FFFFFF" x="0" y="0" width="116" height="40" rx="19.0872818"></rect>
                                <g id="Group-28" transform="translate(18.000000, 7.000000)" fill="#141ED2">
                                    <path d="M1.5760318,0.170118182 C0.705613473,0.170118182 0,1.00228823 0,2.03282229 L0,21.3074141 C0,22.3361571 0.704832956,23.1701182 1.5760318,23.1701182 L9.4239682,23.1701182 C10.2943865,23.1701182 11,22.3379481 11,21.3074141 L11,2.03282229 C11,1.00407922 10.295167,0.170118182 9.4239682,0.170118182 L1.5760318,0.170118182 L1.5760318,0.170118182 Z M1.03125,3.18651162 L1.03125,20.1537247 L9.96875,20.1537247 L9.96875,3.18651162 L1.03125,3.18651162 L1.03125,3.18651162 Z M5.5,22.4160198 C5.87969577,22.4160198 6.1875,22.0783985 6.1875,21.6619215 C6.1875,21.2454444 5.87969577,20.9078231 5.5,20.9078231 C5.12030423,20.9078231 4.8125,21.2454444 4.8125,21.6619215 C4.8125,22.0783985 5.12030423,22.4160198 5.5,22.4160198 L5.5,22.4160198 Z M4.125,1.6783149 C4.125,1.88655342 4.24316406,2.05536408 4.39873433,2.05536408 L6.60126567,2.05536408 C6.75244497,2.05536408 6.875,1.88046334 6.875,1.6783149 C6.875,1.47007639 6.75683594,1.30126572 6.60126567,1.30126572 L4.39873433,1.30126572 C4.24755503,1.30126572 4.125,1.47616647 4.125,1.6783149 Z" id="iPhone-Vector"></path>
                                    <path d="M17.8884688,8.17011818 L18.4921719,6.49949318 L20.6981563,6.49949318 L21.2638906,8.17011818 L22.0916094,8.17011818 L20.067875,2.59250881 L19.2135781,2.59250881 L17.1139062,8.17011818 L17.8884688,8.17011818 Z M20.4551563,5.88439943 L18.7085937,5.88439943 L19.6084531,3.42022756 L20.4551563,5.88439943 Z M24.475895,8.17011818 L26.0098325,4.10366506 L25.2618481,4.10366506 L24.1265825,7.41454006 L23.0406762,4.10366506 L22.2471294,4.10366506 L23.746895,8.17011818 L24.475895,8.17011818 Z M27.8435712,8.30680568 C28.1574462,8.30680568 28.4447431,8.23972756 28.7054619,8.10557131 C28.9661806,7.97141506 29.1661494,7.81321193 29.3053681,7.63096193 C29.3281494,7.79296193 29.3673837,7.91825881 29.4230712,8.00685256 C29.5293837,8.17391506 29.7002431,8.25744631 29.9356494,8.25744631 C30.0318369,8.25744631 30.1077744,8.25364943 30.1634619,8.24605568 C30.2191494,8.23846193 30.3001494,8.21947756 30.4064619,8.18910256 L30.4064619,8.18910256 L30.4064619,7.68411818 C30.3634306,7.69171193 30.3229306,7.69740724 30.2849619,7.70120412 C30.2469931,7.70500099 30.2128212,7.70689943 30.1824462,7.70689943 C30.08879,7.70689943 30.0274072,7.68538381 29.9982978,7.64235256 C29.9691884,7.59932131 29.9546337,7.54236818 29.9546337,7.47149318 L29.9546337,7.47149318 L29.9546337,5.12882131 C29.9546337,4.74407131 29.8065556,4.46057131 29.5103994,4.27832131 C29.2117119,4.09607131 28.823165,4.00494631 28.3447587,4.00494631 C27.932165,4.00494631 27.5695634,4.10303224 27.256954,4.29920412 C26.9443447,4.49537599 26.7817119,4.84405568 26.7690556,5.34524318 L26.7690556,5.34524318 L27.4069306,5.34524318 C27.4322431,5.13514943 27.486665,4.97694631 27.5701962,4.87063381 C27.71954,4.67825881 27.972665,4.58207131 28.3295712,4.58207131 C28.6383837,4.58207131 28.8756884,4.63459474 29.0414853,4.73964162 C29.2072822,4.84468849 29.2901806,5.01364943 29.2901806,5.24652443 C29.2901806,5.36043068 29.2749931,5.44775881 29.2446181,5.50850881 C29.1914619,5.61988381 29.086415,5.68569631 28.9294775,5.70594631 L28.9294775,5.70594631 L27.8397744,5.84263381 C27.4575556,5.89072756 27.1487431,6.01855568 26.9133369,6.22611818 C26.6779306,6.43368068 26.5602275,6.72604006 26.5602275,7.10319631 C26.5602275,7.44744631 26.679829,7.73411037 26.9190322,7.96318849 C27.1582353,8.19226662 27.466415,8.30680568 27.8435712,8.30680568 Z M28.00304,7.72588381 C27.8056025,7.72588381 27.6347431,7.66893068 27.4904619,7.55502443 C27.3461806,7.44111818 27.27404,7.28544631 27.27404,7.08800881 C27.27404,6.82729006 27.3790869,6.63744631 27.5891806,6.51847756 C27.7132119,6.44760256 27.8992587,6.39571193 28.1473212,6.36280568 L28.1473212,6.36280568 L28.5611806,6.30964943 C28.6877431,6.29446193 28.8168369,6.26914943 28.9484619,6.23371193 C29.0800869,6.19827443 29.187665,6.15397756 29.2711962,6.10082131 L29.2711962,6.10082131 L29.2711962,6.65136818 C29.2711962,7.07155568 29.0813525,7.37404006 28.701665,7.55882131 C28.4763837,7.67019631 28.2435087,7.72588381 28.00304,7.72588381 Z M31.92506,3.36707131 L31.92506,2.59250881 L31.2302318,2.59250881 L31.2302318,3.36707131 L31.92506,3.36707131 Z M31.92506,8.17011818 L31.92506,4.12264943 L31.2302318,4.12264943 L31.2302318,8.17011818 L31.92506,8.17011818 Z M33.8157518,8.17011818 L33.8157518,2.59250881 L33.1323143,2.59250881 L33.1323143,8.17011818 L33.8157518,8.17011818 Z M36.0899281,8.30680568 C36.4038031,8.30680568 36.6911,8.23972756 36.9518187,8.10557131 C37.2125375,7.97141506 37.4125062,7.81321193 37.551725,7.63096193 C37.5745062,7.79296193 37.6137406,7.91825881 37.6694281,8.00685256 C37.7757406,8.17391506 37.9466,8.25744631 38.1820062,8.25744631 C38.2781937,8.25744631 38.3541312,8.25364943 38.4098187,8.24605568 C38.4655062,8.23846193 38.5465062,8.21947756 38.6528187,8.18910256 L38.6528187,8.18910256 L38.6528187,7.68411818 C38.6097875,7.69171193 38.5692875,7.69740724 38.5313187,7.70120412 C38.49335,7.70500099 38.4591781,7.70689943 38.4288031,7.70689943 C38.3351468,7.70689943 38.273764,7.68538381 38.2446546,7.64235256 C38.2155453,7.59932131 38.2009906,7.54236818 38.2009906,7.47149318 L38.2009906,7.47149318 L38.2009906,5.12882131 C38.2009906,4.74407131 38.0529125,4.46057131 37.7567562,4.27832131 C37.4580687,4.09607131 37.0695218,4.00494631 36.5911156,4.00494631 C36.1785218,4.00494631 35.8159203,4.10303224 35.5033109,4.29920412 C35.1907015,4.49537599 35.0280687,4.84405568 35.0154125,5.34524318 L35.0154125,5.34524318 L35.6532875,5.34524318 C35.6786,5.13514943 35.7330218,4.97694631 35.8165531,4.87063381 C35.9658968,4.67825881 36.2190218,4.58207131 36.5759281,4.58207131 C36.8847406,4.58207131 37.1220453,4.63459474 37.2878421,4.73964162 C37.453639,4.84468849 37.5365375,5.01364943 37.5365375,5.24652443 C37.5365375,5.36043068 37.52135,5.44775881 37.490975,5.50850881 C37.4378187,5.61988381 37.3327718,5.68569631 37.1758343,5.70594631 L37.1758343,5.70594631 L36.0861312,5.84263381 C35.7039125,5.89072756 35.3951,6.01855568 35.1596937,6.22611818 C34.9242875,6.43368068 34.8065843,6.72604006 34.8065843,7.10319631 C34.8065843,7.44744631 34.9261859,7.73411037 35.165389,7.96318849 C35.4045921,8.19226662 35.7127718,8.30680568 36.0899281,8.30680568 Z M36.2493968,7.72588381 C36.0519593,7.72588381 35.8811,7.66893068 35.7368187,7.55502443 C35.5925375,7.44111818 35.5203968,7.28544631 35.5203968,7.08800881 C35.5203968,6.82729006 35.6254437,6.63744631 35.8355375,6.51847756 C35.9595687,6.44760256 36.1456156,6.39571193 36.3936781,6.36280568 L36.3936781,6.36280568 L36.8075375,6.30964943 C36.9341,6.29446193 37.0631937,6.26914943 37.1948187,6.23371193 C37.3264437,6.19827443 37.4340218,6.15397756 37.5175531,6.10082131 L37.5175531,6.10082131 L37.5175531,6.65136818 C37.5175531,7.07155568 37.3277093,7.37404006 36.9480218,7.55882131 C36.7227406,7.67019631 36.4898656,7.72588381 36.2493968,7.72588381 Z M41.2421356,8.29921193 C41.7939481,8.29921193 42.2255262,8.08658693 42.5368699,7.66133693 C42.8482137,7.23608693 43.0038856,6.70199318 43.0038856,6.05905568 C43.0038856,5.38068068 42.8463153,4.86746974 42.5311746,4.51942287 C42.216034,4.17137599 41.8053387,3.99735256 41.2990887,3.99735256 C41.0560887,3.99735256 40.8308074,4.04861037 40.6232449,4.15112599 C40.4156824,4.25364162 40.2372293,4.40235256 40.0878856,4.59725881 L40.0878856,4.59725881 L40.0878856,2.57352443 L39.4234324,2.57352443 L39.4234324,8.17011818 L40.0537137,8.17011818 L40.0537137,7.64994631 C40.1979949,7.84485256 40.3334168,7.98660256 40.4599793,8.07519631 C40.6726043,8.22454006 40.9333231,8.29921193 41.2421356,8.29921193 Z M41.2003699,7.69550881 C40.7093074,7.69550881 40.3739168,7.47149318 40.1941981,7.02346193 C40.0980106,6.78552443 40.0499168,6.47544631 40.0499168,6.09322756 C40.0499168,5.56419631 40.1669871,5.18450881 40.4011278,4.95416506 C40.6352684,4.72382131 40.9080106,4.60864943 41.2193543,4.60864943 C41.5762606,4.60864943 41.8464715,4.74913381 42.0299871,5.03010256 C42.2135028,5.31107131 42.3052606,5.66544631 42.3052606,6.09322756 C42.3052606,6.57416506 42.2135028,6.96144631 42.0299871,7.25507131 C41.8464715,7.54869631 41.5699324,7.69550881 41.2003699,7.69550881 Z M44.6591712,8.17011818 L44.6591712,2.59250881 L43.9757337,2.59250881 L43.9757337,8.17011818 L44.6591712,8.17011818 Z M47.4269412,8.31439943 C47.6345037,8.31439943 47.8205505,8.29414943 47.9850818,8.25364943 C48.291363,8.18277443 48.5482849,8.04608693 48.7558474,7.84358693 C48.8798787,7.72714943 48.9918865,7.57717287 49.0918709,7.39365724 C49.1918552,7.21014162 49.2507068,7.04371193 49.2684255,6.89436818 L49.2684255,6.89436818 L48.5963787,6.89436818 C48.5457537,7.07408693 48.4596912,7.23229006 48.3381912,7.36897756 C48.1255662,7.60438381 47.8408005,7.72208693 47.4838943,7.72208693 C47.1016755,7.72208693 46.8194412,7.59742287 46.6371912,7.34809474 C46.4549412,7.09876662 46.357488,6.76780568 46.3448318,6.35521193 L46.3448318,6.35521193 L49.3253787,6.35521193 C49.3253787,5.94514943 49.3051287,5.64646193 49.2646287,5.45914943 C49.2190662,5.18577443 49.1279412,4.94657131 48.9912537,4.74154006 C48.8495037,4.52638381 48.6432068,4.35109474 48.372363,4.21567287 C48.1015193,4.08025099 47.8218162,4.01254006 47.5332537,4.01254006 C46.9611912,4.01254006 46.4979724,4.21630568 46.1435974,4.62383693 C45.7892224,5.03136818 45.6120349,5.56166506 45.6120349,6.21472756 C45.6120349,6.87791506 45.7879568,7.39365724 46.1398005,7.76195412 C46.4916443,8.13025099 46.9206912,8.31439943 47.4269412,8.31439943 Z M48.6229568,5.81225881 L46.3638162,5.81225881 C46.3764724,5.46294631 46.489113,5.17501662 46.701738,4.94846974 C46.914363,4.72192287 47.177613,4.60864943 47.491488,4.60864943 C47.9293943,4.60864943 48.2420037,4.77318068 48.4293162,5.10224318 C48.5305662,5.27943068 48.595113,5.51610256 48.6229568,5.81225881 L48.6229568,5.81225881 Z M54.1850749,8.31819631 C54.8558562,8.31819631 55.3507155,8.10430568 55.669653,7.67652443 C55.9885905,7.24874318 56.1480593,6.70705568 56.1480593,6.05146193 C56.1480593,5.37308693 55.9670749,4.85924318 55.6051062,4.50993068 C55.2431374,4.16061818 54.8001687,3.98596193 54.2761999,3.98596193 C53.6914812,3.98596193 53.2257312,4.18846193 52.8789499,4.59346193 C52.5321687,4.99846193 52.358778,5.54268068 52.358778,6.22611818 C52.358778,6.86399318 52.5233093,7.37214162 52.8523718,7.75056349 C53.1814343,8.12898537 53.6256687,8.31819631 54.1850749,8.31819631 Z M54.2496218,7.72968068 C53.837028,7.72968068 53.5358093,7.58539943 53.3459655,7.29683693 C53.1561218,7.00827443 53.0611999,6.64757131 53.0611999,6.21472756 C53.0611999,5.76416506 53.1561218,5.37941506 53.3459655,5.06047756 C53.5358093,4.74154006 53.8395593,4.58207131 54.2572155,4.58207131 C54.728028,4.58207131 55.0596218,4.76938381 55.2519968,5.14400881 C55.3734968,5.38194631 55.4342468,5.69075881 55.4342468,6.07044631 C55.4342468,6.49063381 55.3500827,6.87221974 55.1817546,7.21520412 C55.0134265,7.55818849 54.7027155,7.72968068 54.2496218,7.72968068 Z M57.799548,8.17011818 L57.799548,6.04007131 C57.799548,5.77429006 57.816634,5.56989162 57.8508058,5.42687599 C57.8849777,5.28386037 57.9590168,5.14527443 58.072923,5.01111818 C58.214673,4.84405568 58.3792043,4.73268068 58.5665168,4.67699318 C58.670298,4.64408693 58.8031886,4.62763381 58.9651886,4.62763381 C59.2841261,4.62763381 59.5043449,4.75419631 59.6258449,5.00732131 C59.6992511,5.15919631 59.7359543,5.35916506 59.7359543,5.60722756 L59.7359543,5.60722756 L59.7359543,8.17011818 L60.4307824,8.17011818 L60.4307824,5.56166506 C60.4307824,5.15160256 60.3750949,4.83646193 60.2637199,4.61624318 C60.0612199,4.21377443 59.6714074,4.01254006 59.0942824,4.01254006 C58.8310324,4.01254006 58.5918293,4.06443068 58.376673,4.16821193 C58.1615168,4.27199318 57.9577511,4.44285256 57.7653761,4.68079006 L57.7653761,4.68079006 L57.7653761,4.10366506 L57.1161105,4.10366506 L57.1161105,8.17011818 L57.799548,8.17011818 Z M64.8690255,8.23466506 C64.9677443,8.23466506 65.0595021,8.22960256 65.1442989,8.21947756 C65.2290958,8.20935256 65.3107286,8.19289943 65.3891974,8.17011818 L65.3891974,8.17011818 L65.3891974,7.63096193 C65.3385724,7.63602443 65.2942755,7.63918849 65.2563068,7.64045412 C65.218338,7.64171974 65.1829005,7.64235256 65.1499943,7.64235256 C65.025963,7.64235256 64.9373693,7.62843068 64.884213,7.60058693 C64.7880255,7.55249318 64.7399318,7.45757131 64.7399318,7.31582131 L64.7399318,7.31582131 L64.7399318,4.66180568 L65.3891974,4.66180568 L65.3891974,4.10366506 L64.7399318,4.10366506 L64.7399318,2.96839943 L64.0489005,2.96839943 L64.0489005,4.10366506 L63.4983536,4.10366506 L63.4983536,4.66180568 L64.0489005,4.66180568 L64.0489005,7.35379006 C64.0489005,7.61450881 64.1058536,7.82650099 64.2197599,7.98976662 C64.3336661,8.15303224 64.550088,8.23466506 64.8690255,8.23466506 Z M66.9115924,8.17011818 L66.9115924,6.01349318 C66.9115924,5.47180568 67.0267642,5.10350881 67.257108,4.90860256 C67.4874517,4.71369631 67.7443736,4.61624318 68.0278736,4.61624318 C68.3695924,4.61624318 68.6024674,4.72761818 68.7264986,4.95036818 C68.8024361,5.08958693 68.8404049,5.30854006 68.8404049,5.60722756 L68.8404049,5.60722756 L68.8404049,8.17011818 L69.5428267,8.17011818 L69.5428267,5.56166506 C69.5428267,5.16172756 69.4858736,4.84911818 69.3719674,4.62383693 C69.1618736,4.21124318 68.7619361,4.00494631 68.1721549,4.00494631 C67.8430924,4.00494631 67.5684517,4.07708693 67.348233,4.22136818 C67.2191392,4.30489943 67.0735924,4.44918068 66.9115924,4.65421193 L66.9115924,4.65421193 L66.9115924,2.57352443 L66.2281549,2.57352443 L66.2281549,8.17011818 L66.9115924,8.17011818 Z M72.2954092,8.31439943 C72.5029717,8.31439943 72.6890186,8.29414943 72.8535499,8.25364943 C73.1598311,8.18277443 73.416753,8.04608693 73.6243155,7.84358693 C73.7483467,7.72714943 73.8603545,7.57717287 73.9603389,7.39365724 C74.0603233,7.21014162 74.1191749,7.04371193 74.1368936,6.89436818 L74.1368936,6.89436818 L73.4648467,6.89436818 C73.4142217,7.07408693 73.3281592,7.23229006 73.2066592,7.36897756 C72.9940342,7.60438381 72.7092686,7.72208693 72.3523624,7.72208693 C71.9701436,7.72208693 71.6879092,7.59742287 71.5056592,7.34809474 C71.3234092,7.09876662 71.2259561,6.76780568 71.2132999,6.35521193 L71.2132999,6.35521193 L74.1938467,6.35521193 C74.1938467,5.94514943 74.1735967,5.64646193 74.1330967,5.45914943 C74.0875342,5.18577443 73.9964092,4.94657131 73.8597217,4.74154006 C73.7179717,4.52638381 73.5116749,4.35109474 73.2408311,4.21567287 C72.9699874,4.08025099 72.6902842,4.01254006 72.4017217,4.01254006 C71.8296592,4.01254006 71.3664405,4.21630568 71.0120655,4.62383693 C70.6576905,5.03136818 70.480503,5.56166506 70.480503,6.21472756 C70.480503,6.87791506 70.6564249,7.39365724 71.0082686,7.76195412 C71.3601124,8.13025099 71.7891592,8.31439943 72.2954092,8.31439943 Z M73.4914249,5.81225881 L71.2322842,5.81225881 C71.2449405,5.46294631 71.3575811,5.17501662 71.5702061,4.94846974 C71.7828311,4.72192287 72.0460811,4.60864943 72.3599561,4.60864943 C72.7978624,4.60864943 73.1104717,4.77318068 73.2977842,5.10224318 C73.3990342,5.27943068 73.4635811,5.51610256 73.4914249,5.81225881 L73.4914249,5.81225881 Z" id="Availableonthe" fill-rule="nonzero"></path>
                                    <text id="App-Store" font-family="Helvetica" font-size="15.552" font-weight="normal" letter-spacing="-0.550655258">
                                        <tspan x="17" y="22.1701182">App </tspan>
                                        <tspan x="17" y="41.1701182">Store</tspan>
                                    </text>
                                </g>
                            </g>
                        </g>
                    </g>
                </g>
            </g>
        </g>
    </g>
</svg>