<?xml version="1.0" encoding="UTF-8"?>
<svg width="46px" height="31px" viewBox="0 0 46 31" version="1.1" xmlns="http://www.w3.org/2000/svg" xmlns:xlink="http://www.w3.org/1999/xlink">
    <!-- Generator: Sketch 62 (91390) - https://sketch.com -->
    <title>icon/other/car</title>
    <desc>Created with Sketch.</desc>
    <defs>
        <rect id="path-1" x="0" y="0" width="46" height="46"></rect>
    </defs>
    <g id="Page-1" stroke="none" stroke-width="1" fill="none" fill-rule="evenodd">
        <g id="08.-Icon-set" transform="translate(-560.000000, -492.000000)">
            <g id="icon/other/car" transform="translate(560.000000, 484.000000)">
                <g id="icon/car">
                    <g id="car">
                        <mask id="mask-2" fill="white">
                            <use xlink:href="#path-1"></use>
                        </mask>
                        <g id="Mask"></g>
                        <g mask="url(#mask-2)" fill="#141ED2" fill-rule="nonzero">
                            <g transform="translate(0.000000, 8.000000)">
                                <path d="M7.80359916,15.6055485 C6.35647329,15.6055485 5.18334599,16.7786758 5.18334599,18.2258017 C5.18334599,19.6729276 6.35647329,20.8460549 7.80359916,20.8460549 C9.25072502,20.8460549 10.4238523,19.6729276 10.4238523,18.2258017 C10.4223546,16.7792967 9.25010418,15.6070463 7.80359916,15.6055485 L7.80359916,15.6055485 Z M7.80359916,19.4874051 C7.10683485,19.4874051 6.54199578,18.922566 6.54199578,18.2258017 C6.54199578,17.5290374 7.10683485,16.9641983 7.80359916,16.9641983 C8.50036346,16.9641983 9.06520253,17.5290374 9.06520253,18.2258017 C9.06423975,18.9220882 8.49988602,19.4862249 7.80359916,19.4869198 L7.80359916,19.4874051 Z" id="Shape"></path>
                                <path d="M38.1963038,15.6055485 C36.7491779,15.6055485 35.5760506,16.7786758 35.5760506,18.2258017 C35.5760506,19.6729276 36.7491779,20.8460549 38.1963038,20.8460549 C39.6434297,20.8460549 40.816557,19.6729276 40.816557,18.2258017 C40.8150592,16.7792967 39.6428088,15.6070463 38.1963038,15.6055485 Z M38.1963038,19.4874051 C37.4995395,19.4874051 36.9347004,18.922566 36.9347004,18.2258017 C36.9347004,17.5290374 37.4995395,16.9641983 38.1963038,16.9641983 C38.8930681,16.9641983 39.4579072,17.5290374 39.4579072,18.2258017 C39.4569977,18.9221104 38.8926128,19.4862783 38.1963038,19.4869198 L38.1963038,19.4874051 Z" id="Shape"></path>
                                <path d="M0.679324895,11.257384 L0.680198312,11.257384 L3.03570886,11.261557 C2.00886076,12.0434599 1.34816878,13.3523249 1.34816878,14.860038 C1.34814377,14.8892342 1.34992637,14.9184039 1.35350633,14.9473797 L2.44391983,23.5928565 C2.47495435,24.8138687 3.35922015,25.8452216 4.56118143,26.0622996 L4.56118143,28.8308397 C4.56379218,29.7293314 5.28616811,30.4598691 6.18457384,30.4725738 L9.02803376,30.4725738 C9.93102646,30.4615918 10.6611925,29.733792 10.6751055,28.8308397 L10.6751055,26.1054852 L35.3248945,26.1054852 L35.3248945,28.8308397 C35.3387094,29.7339468 36.0691083,30.46185 36.9722574,30.4725738 L39.8157173,30.4725738 C40.713987,30.4596601 41.4361584,29.7291983 41.4388186,28.8308397 L41.4388186,26.0536624 C42.6224015,25.8257796 43.485042,24.8006884 43.5073629,23.5955738 L44.6478523,14.9527173 C44.6514086,14.9231585 44.6530295,14.8933989 44.6527046,14.8636287 C44.6527046,13.3738692 43.9588228,12.0570464 42.9045105,11.2729114 L45.3209662,11.272038 C45.5067444,11.2719349 45.684375,11.1957521 45.8125016,11.0612265 C45.9406281,10.9267009 46.0080705,10.7455712 45.9991266,10.5600084 C45.9577664,9.98834169 45.8456631,9.42401166 45.665384,8.87994093 C45.2679789,7.68762869 44.0155949,6.91727426 42.4742068,6.91727426 C41.5476076,6.91727426 39.8676371,6.91135443 39.1010675,6.90834599 L37.5860759,4.10195781 C36.5242911,2.19819831 34.9755274,0 32.3990422,0 L13.7583671,0 C11.658962,0 9.79567089,1.46646835 8.51,4.1061308 L6.92814346,6.91523629 C6.16341772,6.91368354 4.46384388,6.91378059 3.52530802,6.91378059 C1.98411392,6.91378059 0.731535865,7.68578481 0.334130802,8.87790295 C0.153933434,9.4222103 0.0419601302,9.98677089 0.000776371308,10.5586498 C-0.00813632066,10.7424104 0.0595820976,10.921634 0.18778481,11.0535865 C0.316673161,11.1861663 0.494437246,11.2598691 0.679324895,11.257384 Z M9.3164557,28.8308397 C9.30354975,28.9837284 9.18066831,29.1041332 9.02754852,29.1139241 L6.18457384,29.1139241 C6.03643463,29.1021492 5.92167109,28.9794347 5.91983122,28.8308397 L5.91983122,26.1054852 L9.3164557,26.1054852 L9.3164557,28.8308397 Z M39.8153291,29.1139241 L36.9718692,29.1139241 C36.8189398,29.1039374 36.6963341,28.9835602 36.6835443,28.8308397 L36.6835443,26.1054852 L40.0801688,26.1054852 L40.0801688,28.8308397 C40.0782335,28.9794325 39.963464,29.1021084 39.8153291,29.1139241 Z M42.1510422,23.4584473 C42.1470835,23.4889864 42.1451061,23.5197497 42.1451224,23.5505443 C42.144645,24.2098284 41.6112173,24.7446444 40.9519367,24.7468354 L4.99924895,24.7468354 C4.33996831,24.7446444 3.80654065,24.2098284 3.80606329,23.5505443 C3.80605096,23.5215398 3.80423593,23.4925641 3.80062869,23.4637848 L2.70701266,14.8235485 C2.72428692,13.3981308 3.64428692,11.9234135 5.1816962,11.8442236 C5.22076765,11.8460166 5.25992077,11.8444907 5.29873418,11.8396624 L40.6275105,11.8396624 C40.6338186,11.8396624 40.6399325,11.8562574 40.6462405,11.8562574 C42.0930084,11.8562574 43.2724135,13.183173 43.2927932,14.8130675 L42.1510422,23.4584473 Z M10.8206751,10.4810127 C11.0827004,9.02531646 12.3968059,7.8294135 13.9746835,7.8294135 C15.5525612,7.8294135 16.8666667,9.02531646 17.128692,10.4810127 L10.8206751,10.4810127 Z M42.4744979,8.27563291 C43.4061435,8.27563291 44.1706751,8.69099156 44.3766076,9.30927426 C44.4422136,9.50738154 44.4964219,9.70908299 44.5389662,9.91338819 L40.7324177,9.91474684 L39.8395907,8.26942194 C40.6777806,8.27233333 41.7843038,8.27563291 42.4744008,8.27563291 L42.4744979,8.27563291 Z M9.70357384,4.7528481 C9.71046414,4.74052321 9.71706329,4.72286076 9.72298312,4.71014768 C10.329135,3.46048101 11.6593502,1.35864979 13.7583671,1.35864979 L32.3990422,1.35864979 C33.876962,1.35864979 35.0734473,2.3704557 36.3957046,4.74110549 L39.5108945,10.4810127 L18.5014135,10.4810127 C18.2233257,8.19211961 16.2804078,6.47096834 13.9746835,6.47096834 C11.6689593,6.47096834 9.72604138,8.19211961 9.44795359,10.4810127 L6.46222363,10.4810127 L9.70357384,4.7528481 Z M1.62348945,9.30898312 C1.82951899,8.69079747 2.59395359,8.27543882 3.52559916,8.27543882 C4.21734599,8.27543882 5.32309283,8.27718565 6.1625443,8.2787384 L5.24361181,9.90708017 L1.46132489,9.91193249 C1.50385867,9.70809977 1.55796882,9.50685538 1.62339241,9.30917722 L1.62348945,9.30898312 Z" id="Shape"></path>
                                <path d="M14.0118523,19.7004219 L31.9881477,19.7004219 C32.2097503,19.6913082 32.4142578,19.5788139 32.5406039,19.39653 C32.6669501,19.2142461 32.7005143,18.9832662 32.6312743,18.7725612 L32.0115359,16.9674979 C31.5855992,15.7155992 30.2161772,14.7512489 28.8928523,14.7512489 L17.0583333,14.7512489 C15.732,14.7512489 14.3701477,15.7166667 13.9587679,16.9775907 L13.3661055,18.7818776 C13.2984948,18.9934115 13.3339886,19.2244086 13.4619873,19.4058861 C13.5882643,19.5856316 13.7922531,19.6948985 14.0118523,19.7004219 Z M15.2502616,17.4189578 C15.478903,16.7203207 16.3232068,16.1097046 17.0583333,16.1097046 L28.8928523,16.1097046 C29.6311814,16.1097046 30.4874219,16.721097 30.7251857,17.4198312 L31.039616,18.3417722 L14.9482532,18.3417722 L15.2502616,17.4189578 Z" id="Shape"></path>
                                <path d="M34.3605443,20.6708861 L12.1897089,20.6708861 C11.8145281,20.6708861 11.510384,20.9750302 11.510384,21.350211 C11.510384,21.7253917 11.8145281,22.0295359 12.1897089,22.0295359 L34.3605443,22.0295359 C34.7357251,22.0295359 35.0398692,21.7253917 35.0398692,21.350211 C35.0398692,20.9750302 34.7357251,20.6708861 34.3605443,20.6708861 L34.3605443,20.6708861 Z" id="Path"></path>
                            </g>
                        </g>
                    </g>
                </g>
            </g>
        </g>
    </g>
</svg>