<?xml version="1.0" encoding="UTF-8"?>
<svg width="46px" height="46px" viewBox="0 0 46 46" version="1.1" xmlns="http://www.w3.org/2000/svg" xmlns:xlink="http://www.w3.org/1999/xlink">
    <!-- Generator: Sketch 62 (91390) - https://sketch.com -->
    <title>icon/other/dien</title>
    <desc>Created with Sketch.</desc>
    <g id="Page-1" stroke="none" stroke-width="1" fill="none" fill-rule="evenodd">
        <g id="08.-Icon-set" transform="translate(-818.000000, -570.000000)" fill="#141ED2">
            <g id="icon/other/dien" transform="translate(818.000000, 570.000000)">
                <g id="icon/dien">
                    <g id="dien" fill-rule="nonzero">
                        <path d="M37.8736208,34.4910875 C38.68255,33.5839292 38.6459417,32.2039292 37.7900542,31.3408542 L35.5168875,29.0676875 C38.5608417,25.1014333 38.1983042,19.4944167 34.6689542,15.9530875 L24.8510208,6.13362083 L25.0488208,5.93582083 C26.4066833,4.57795833 26.4066833,2.37628333 25.0488208,1.01842083 C23.6909583,-0.339441667 21.4892833,-0.339441667 20.1314208,1.01842083 L16.1002875,5.04955417 L11.7517542,0.701020833 C10.8172833,-0.23345 9.30215833,-0.23345 8.3676875,0.701020833 C7.43321667,1.63549167 7.43321667,3.15061667 8.3676875,4.0850875 L12.7162208,8.43362083 L8.43362083,12.7162208 L4.0850875,8.3676875 C3.15061667,7.43321667 1.63549167,7.43321667 0.701020833,8.3676875 C-0.23345,9.30215833 -0.23345,10.8172833 0.701020833,11.7517542 L5.04955417,16.1002875 L1.01842083,20.1314208 C-0.339441667,21.4892833 -0.339441667,23.6909583 1.01842083,25.0488208 C2.37628333,26.4066833 4.57795833,26.4066833 5.93582083,25.0488208 L6.13362083,24.8510208 L15.9530875,34.6704875 C19.4914458,38.2063542 25.1035417,38.569275 29.0676875,35.5184208 L31.3408542,37.7915875 C32.2007667,38.6546625 33.5866125,38.6914625 34.4910875,37.8751542 L42.6162208,46.0002875 L46.0002875,46.0002875 L46.0002875,42.6162208 L37.8736208,34.4910875 Z M9.45175417,3.00102083 C9.11595417,2.66522083 9.11595417,2.1208875 9.45175417,1.7850875 C9.78755417,1.4492875 10.3318875,1.4492875 10.6676875,1.7850875 L15.0162208,6.13362083 L13.8002875,7.34955417 L9.45175417,3.00102083 Z M1.7850875,10.6676875 C1.4492875,10.3318875 1.4492875,9.78755417 1.7850875,9.45175417 C2.1208875,9.11595417 2.66522083,9.11595417 3.00102083,9.45175417 L7.34955417,13.8002875 L6.13362083,15.0162208 L1.7850875,10.6676875 Z M5.04955417,23.7669542 L4.85175417,23.9647542 C4.08058333,24.7119667 2.8497,24.6926083 2.1024875,23.9214375 C1.37185417,23.1674208 1.37185417,21.9695042 2.1024875,21.2154875 L6.13362083,17.1843542 L9.5176875,13.8002875 L13.8002875,9.5176875 L17.1843542,6.13362083 L21.2154875,2.1024875 C21.9866583,1.355275 23.2175417,1.37463333 23.9647542,2.14580417 C24.6953875,2.89982083 24.6953875,4.0977375 23.9647542,4.85175417 L23.7669542,5.04955417 L5.04955417,23.7669542 Z M28.9641875,33.5864208 C25.6684792,36.8746542 20.3328625,36.8746542 17.0371542,33.5864208 L7.2176875,23.7669542 L23.7669542,7.2176875 L33.5864208,17.0371542 C36.8746542,20.3328625 36.8746542,25.6683833 33.5864208,28.9641875 L28.9641875,33.5864208 Z M33.5089875,36.7075208 C33.2096042,37.0068083 32.7243042,37.0068083 32.4249208,36.7075208 L30.2176875,34.5002875 L34.5002875,30.2176875 L36.7075208,32.4249208 C37.0068083,32.7243042 37.0068083,33.2096042 36.7075208,33.5089875 L33.5089875,36.7075208 Z M44.4669542,44.4669542 L43.2510208,44.4669542 L35.5843542,36.8002875 L36.8002875,35.5843542 L44.4669542,43.2510208 L44.4669542,44.4669542 Z" id="Shape"></path>
                        <path d="M28.3531542,28.2251208 L26.0531542,15.9584542 C25.974475,15.5424417 25.5734125,15.2689333 25.1574,15.3476125 C25.0062708,15.3761708 24.8671208,15.4495792 24.7582542,15.5582542 L22.5134542,17.8030542 L21.4117542,15.0491875 C21.3159208,14.8098917 21.1062375,14.6347083 20.8536208,14.5830542 C20.6011958,14.5294833 20.3389,14.6080667 20.1574875,14.7915875 L16.3241542,18.6249208 C16.1072833,18.8416 16.0403917,19.1666667 16.1539542,19.4513875 L19.2206208,27.1180542 C19.3776917,27.5112583 19.8237,27.7027333 20.217,27.5456625 C20.3136,27.5070417 20.4013833,27.4492542 20.4748875,27.3756542 L23.0002875,24.8510208 L27.0582542,28.9089875 C27.3581167,29.2078917 27.8435125,29.2072208 28.1425125,28.9073583 C28.3207625,28.7285333 28.3995375,28.4733292 28.3531542,28.2251208 Z M23.5423208,23.2249208 C23.2429375,22.9256333 22.7576375,22.9256333 22.4582542,23.2249208 L20.2134542,25.4697208 L17.7670208,19.3524875 L20.4204542,16.6982875 L21.5221542,19.4521542 C21.679225,19.8453583 22.1252333,20.0368333 22.5185333,19.8797625 C22.6151333,19.8411417 22.7029167,19.7833542 22.7764208,19.7097542 L24.8149875,17.6711875 L26.3912542,26.0730875 L23.5423208,23.2249208 Z" id="Shape"></path>
                    </g>
                </g>
            </g>
        </g>
    </g>
</svg>