<?xml version="1.0" encoding="UTF-8"?>
<svg width="46px" height="46px" viewBox="0 0 46 46" version="1.1" xmlns="http://www.w3.org/2000/svg" xmlns:xlink="http://www.w3.org/1999/xlink">
    <!-- Generator: Sketch 62 (91390) - https://sketch.com -->
    <title>icon/other/education</title>
    <desc>Created with Sketch.</desc>
    <defs>
        <rect id="path-1" x="0" y="0" width="46" height="46"></rect>
        <path d="M5.06898418,41.3501255 L7.24140597,41.3501255 L7.24140597,42.7834632 C7.2414685,43.0732812 7.41789895,43.3345343 7.68845087,43.4454345 C7.95900279,43.5563346 8.27041392,43.4950494 8.47751397,43.2901481 L10.862109,40.9301575 L13.2467039,43.2901481 C13.453804,43.4950494 13.7652151,43.5563346 14.035767,43.4454345 C14.306319,43.3345343 14.4827494,43.0732812 14.4828119,42.7834632 L14.4828119,41.3501255 L31.1380457,41.3501255 C31.5379775,41.3501255 31.8621863,41.0292619 31.8621863,40.6334566 L31.8621863,35.1968066 L34.9709219,38.273466 C35.2536987,38.5532406 35.7120799,38.5532406 35.9948567,38.273466 L41.7879814,32.5401151 C42.0706729,32.260256 42.0706729,31.8066044 41.7879814,31.5267453 L31.8621863,21.7033651 L31.8621863,17.2800849 L40.7017705,8.53170801 C41.9843518,7.26236044 41.9843518,5.20434148 40.7017705,3.93499395 C39.4191892,2.66564641 37.3397141,2.66564639 36.0571328,3.93499389 L31.8621863,8.08665664 L31.8621863,1.21666887 C31.8621863,0.820863582 31.5379775,0.5 31.1380457,0.5 L4.37742991,0.5 C1.96100011,0.502764511 0.0027933326,2.44076639 0,4.83226331 L0,36.3334434 C0.00319247229,39.1027706 2.27078495,41.346966 5.06898418,41.3501255 Z M37.0810676,4.94836367 C37.8081847,4.26309171 38.9507186,4.26309171 39.6778357,4.94836367 C40.394388,5.65825788 40.394388,6.80844401 39.6778357,7.51833823 L39.1035922,8.08665664 L36.5068241,5.51668208 L37.0810676,4.94836367 Z M35.4828893,6.53005186 L38.0796574,9.10002642 L36.9311705,10.2366632 L34.3344023,7.66668868 L35.4828893,6.53005186 Z M31.8621863,10.1133962 L33.3104675,8.68005846 L34.0968842,9.45836085 L31.8621863,11.670001 L31.8621863,10.1133962 Z M31.8621863,13.6967405 L35.120819,10.4717306 L35.9072357,11.250033 L31.8621863,15.2533453 L31.8621863,13.6967405 Z M31.8621863,32.0334302 L31.8621863,23.7301047 L33.3727436,25.225076 L32.0743595,26.5100632 L33.0982943,27.523433 L34.3966784,26.2384457 L35.5451654,27.3750826 L34.2467813,28.6600698 L35.2707161,29.6734396 L36.5691002,28.3884523 L37.7175871,29.5250892 L36.4192031,30.8100764 L37.4431379,31.8234462 L38.741522,30.5384589 L40.2520792,32.0334302 L35.4828893,36.7534114 L31.8621863,33.170067 L31.8621863,32.0334302 Z M13.0345307,41.0534246 L11.3740764,39.4101029 C11.0912996,39.1303283 10.6329184,39.1303283 10.3501416,39.4101029 L8.68968717,41.0534246 L8.68968717,35.6167745 L13.0345307,35.6167745 L13.0345307,41.0534246 Z M1.44828119,18.4167217 L1.44828119,16.9905507 C1.44987686,15.7998315 2.42481122,14.8349566 3.62794439,14.8333774 L4.34484358,14.8333774 L4.34484358,19.8500594 L3.62794439,19.8500594 C2.83911851,19.852789 2.07313844,20.1124491 1.44828119,20.588945 L1.44828119,18.4167217 Z M1.44828119,24.8667415 L1.44828119,23.4405705 C1.44987686,22.2498513 2.42481122,21.2849764 3.62794439,21.2833972 L4.34484358,21.2833972 L4.34484358,29.8834236 L5.79312478,29.8834236 L5.79312478,3.36667547 L4.34484358,3.36667547 L4.34484358,13.4000396 L3.62794439,13.4000396 C2.83911851,13.4027692 2.07313844,13.6624293 1.44828119,14.1389252 L1.44828119,4.83226331 C1.4498779,3.23188593 2.76036758,1.93491797 4.37742991,1.93333774 L30.4139051,1.93333774 L30.4139051,31.3167613 L5.06898418,31.3167613 C3.70516744,31.3164455 2.39921722,31.8621286 1.44828119,32.8296493 L1.44828119,24.8667415 Z M5.06898418,32.7500991 L30.4139051,32.7500991 L30.4139051,39.9167878 L14.4828119,39.9167878 L14.4828119,34.9001057 C14.4828119,34.5043004 14.1586032,34.1834368 13.7586713,34.1834368 L7.96554657,34.1834368 C7.56561476,34.1834368 7.24140597,34.5043004 7.24140597,34.9001057 L7.24140597,39.9167878 L5.06898418,39.9167878 C3.06932514,39.9167878 1.44828119,38.3124699 1.44828119,36.3334434 C1.44828119,34.354417 3.06932514,32.7500991 5.06898418,32.7500991 Z" id="path-3"></path>
        <filter x="-84.5%" y="-87.2%" width="269.0%" height="265.1%" filterUnits="objectBoundingBox" id="filter-4">
            <feOffset dx="0" dy="-2" in="SourceAlpha" result="shadowOffsetOuter1"></feOffset>
            <feGaussianBlur stdDeviation="11.5" in="shadowOffsetOuter1" result="shadowBlurOuter1"></feGaussianBlur>
            <feColorMatrix values="0 0 0 0 0   0 0 0 0 0   0 0 0 0 0  0 0 0 0.0694633152 0" type="matrix" in="shadowBlurOuter1"></feColorMatrix>
        </filter>
        <path d="M13.6666667,13 C14.2291535,13.0038664 14.7289801,13.4044411 14.916,14.00125 C15.0104821,14.3002069 15.261964,14.5 15.544,14.5 L22.456,14.5 C22.738036,14.5 22.9895179,14.3002069 23.084,14.00125 C23.2710199,13.4044411 23.7708465,13.0038664 24.3333333,13 C24.7015232,13 25,12.6642136 25,12.25 L25,7.75 C25,7.33578644 24.7015232,7 24.3333333,7 C23.7708465,6.99613364 23.2710199,6.59555889 23.084,5.99875 C22.9895179,5.69979308 22.738036,5.5 22.456,5.5 L15.544,5.5 C15.261964,5.5 15.0104821,5.69979308 14.916,5.99875 C14.7289801,6.59555889 14.2291535,6.99613364 13.6666667,7 C13.2984768,7 13,7.33578644 13,7.75 L13,12.25 C13,12.6642136 13.2984768,13 13.6666667,13 Z M14.3333333,8.40325 C15.02251,8.19927677 15.6107398,7.69411557 15.9673333,7 L22.034,7 C22.3902841,7.69379974 22.9779852,8.19891917 23.6666667,8.40325 L23.6666667,11.59675 C22.97749,11.8007232 22.3892602,12.3058844 22.0326667,13 L15.966,13 C15.6097159,12.3062003 15.0220148,11.8010808 14.3333333,11.59675 L14.3333333,8.40325 Z" id="path-5"></path>
        <filter x="-295.8%" y="-416.7%" width="691.7%" height="888.9%" filterUnits="objectBoundingBox" id="filter-6">
            <feOffset dx="0" dy="-2" in="SourceAlpha" result="shadowOffsetOuter1"></feOffset>
            <feGaussianBlur stdDeviation="11.5" in="shadowOffsetOuter1" result="shadowBlurOuter1"></feGaussianBlur>
            <feColorMatrix values="0 0 0 0 0   0 0 0 0 0   0 0 0 0 0  0 0 0 0.0694633152 0" type="matrix" in="shadowBlurOuter1"></feColorMatrix>
        </filter>
    </defs>
    <g id="Page-1" stroke="none" stroke-width="1" fill="none" fill-rule="evenodd">
        <g id="08.-Icon-set" transform="translate(-646.000000, -656.000000)">
            <g id="icon/other/education" transform="translate(646.000000, 656.000000)">
                <g id="education">
                    <mask id="mask-2" fill="white">
                        <use xlink:href="#path-1"></use>
                    </mask>
                    <g id="Mask"></g>
                    <g mask="url(#mask-2)" id="Shape">
                        <g transform="translate(2.000000, 1.000000)">
                            <g>
                                <use fill="black" fill-opacity="1" filter="url(#filter-4)" xlink:href="#path-3"></use>
                                <use fill="#141ED2" fill-rule="evenodd" xlink:href="#path-3"></use>
                            </g>
                            <g>
                                <use fill="black" fill-opacity="1" filter="url(#filter-6)" xlink:href="#path-5"></use>
                                <use fill="#141ED2" fill-rule="evenodd" xlink:href="#path-5"></use>
                            </g>
                        </g>
                    </g>
                </g>
            </g>
        </g>
    </g>
</svg>