<?xml version="1.0" encoding="UTF-8"?>
<svg width="46px" height="46px" viewBox="0 0 46 46" version="1.1" xmlns="http://www.w3.org/2000/svg" xmlns:xlink="http://www.w3.org/1999/xlink">
    <!-- Generator: Sketch 62 (91390) - https://sketch.com -->
    <title>icon/other/Fast</title>
    <desc>Created with Sketch.</desc>
    <g id="Page-1" stroke="none" stroke-width="1" fill="none" fill-rule="evenodd">
        <g id="08.-Icon-set" transform="translate(-1076.000000, -484.000000)" fill="#141ED2">
            <g id="icon/other/Fast" transform="translate(1076.000000, 484.000000)">
                <g id="icon/Fast">
                    <g id="Fast" fill-rule="nonzero">
                        <path d="M45.91,25.12 C45.1344791,17.3322195 39.4491809,10.9211386 31.81,9.22 L31.81,6.94 C33.2872164,6.55250347 34.2501223,5.13218365 34.0631847,3.61647388 C33.8762472,2.10076412 32.5970998,0.956964203 31.07,0.94 L24.6,0.94 C23.0729002,0.956964203 21.7937528,2.10076412 21.6068153,3.61647388 C21.4198777,5.13218365 22.3827836,6.55250347 23.86,6.94 L23.86,9.23 C20.5020577,9.97355184 17.427426,11.6635582 15,14.1 C14.4539674,14.6437678 13.9429433,15.2215924 13.47,15.83 L7,15.83 C6.50294373,15.83 6.1,16.2329437 6.1,16.73 C6.1,17.2270563 6.50294373,17.63 7,17.63 L12.25,17.63 C11.5997946,18.720698 11.0668273,19.8771364 10.66,21.08 L0.9,21.08 C0.402943725,21.08 0,21.4829437 0,21.98 C0,22.4770563 0.402943725,22.88 0.9,22.88 L10.17,22.88 C9.91059283,24.0130665 9.75990976,25.1683034 9.72,26.33 L5.72,26.33 C5.22294373,26.33 4.82,26.7329437 4.82,27.23 C4.82,27.7270563 5.22294373,28.13 5.72,28.13 L9.72,28.13 C9.79580063,29.2952745 9.98332801,30.4505771 10.28,31.58 L4.49,31.58 C3.99294375,31.58 3.59000008,31.9829438 3.59000008,32.48 C3.59000008,32.9770562 3.99294375,33.38 4.49,33.38 L10.88,33.38 C13.3248709,39.8201899 19.2048777,44.3212229 26.06,45 C26.6533333,45.06 27.2466667,45.09 27.84,45.09 C31.3537273,45.09 34.7922552,44.0723493 37.74,42.16 C38.156975,41.8838576 38.2711423,41.321975 37.995,40.905 C37.7188576,40.488025 37.156975,40.3738576 36.74,40.65 C29.7207313,45.2028153 20.3969821,43.7220895 15.1335846,37.2186361 C9.87018706,30.7151827 10.3655812,21.2875937 16.2815874,15.3715874 C22.1975937,9.45558116 31.6251827,8.96018706 38.1286361,14.2235846 C44.6320895,19.4869821 46.1128153,28.8107313 41.56,35.83 C41.3813672,36.0997355 41.3602059,36.4442809 41.5044873,36.7338492 C41.6487687,37.0234175 41.9365731,37.2140164 42.2594873,37.2338492 C42.5824015,37.253682 42.8913672,37.0997355 43.07,36.83 C45.3180635,33.3620378 46.3195871,29.2325162 45.91,25.12 Z M23.35,4 C23.3446574,3.66410235 23.4736725,3.33997899 23.7083848,3.09963359 C23.9430971,2.85928819 24.2640701,2.72262371 24.6,2.72 L31.07,2.72 C31.7658788,2.72 32.33,3.28412122 32.33,3.98 C32.33,4.67587878 31.7658788,5.24 31.07,5.24 L24.6,5.24 C23.9157531,5.23465518 23.3608405,4.68418189 23.35,4 Z M25.67,8.94 L25.67,7 L30,7 L30,8.92 C28.5584492,8.74794276 27.1015508,8.74794276 25.66,8.92 L25.67,8.94 Z" id="_Compound_Path_"></path>
                        <path d="M40.05,38.23 C39.620847,38.233433 39.2538219,38.5394045 39.173216,38.9609336 C39.0926101,39.3824627 39.3208512,39.8022626 39.7184599,39.9637911 C40.1160685,40.1253196 40.5724136,39.9836329 40.8086199,39.6253164 C41.0448263,39.267 40.9951715,38.7917523 40.69,38.49 C40.5197444,38.321652 40.289425,38.2280848 40.05,38.23 L40.05,38.23 Z" id="_Path_"></path>
                        <path d="M27.85,13 C22.2108866,13 17.1272253,16.3974564 14.9701654,21.6077052 C12.8131055,26.817954 14.0075867,32.8145804 17.9964725,36.8006047 C21.9853583,40.786629 27.9828403,41.9768067 33.1915398,39.8160083 C38.4002393,37.65521 41.7940453,32.5691119 41.7900036,26.93 C41.7516632,19.248711 35.5313145,13.0328246 27.85,13 Z M27.85,39.08 C21.1478698,39.074477 15.7181636,33.6388016 15.7200041,26.9366694 C15.7218456,20.2345372 21.1545372,14.8018456 27.8566694,14.8000041 C34.5588016,14.7981636 39.994477,20.2278698 40,26.93 C39.9944804,33.6363541 34.5563564,39.0700023 27.85,39.07 L27.85,39.08 Z" id="_Compound_Path_2"></path>
                        <path d="M33.54,20 L29.09,24.45 C28.3118717,24.0641565 27.3981283,24.0641565 26.62,24.45 L24.62,22.45 C24.2634323,22.1378032 23.7258521,22.1556172 23.3907346,22.4907346 C23.0556172,22.8258521 23.0378032,23.3634323 23.35,23.72 L25.35,25.72 C24.7686731,26.8933663 25.0816015,28.3131355 26.1023392,29.133394 C27.1230769,29.9536525 28.5769231,29.9536525 29.5976608,29.133394 C30.6183985,28.3131355 30.9313269,26.8933663 30.35,25.72 L34.67,21.4 L34.67,21.4 L34.8,21.27 C35.0705405,21.0553082 35.1943591,20.704734 35.1186619,20.3677552 C35.0429648,20.0307764 34.7811055,19.7668389 34.4447356,19.6884803 C34.1083658,19.6101217 33.7568237,19.7311651 33.54,20 Z M27.86,27.95 C27.3077153,27.95 26.86,27.5022847 26.86,26.95 C26.86,26.3977153 27.3077153,25.95 27.86,25.95 C28.4122847,25.95 28.86,26.3977153 28.86,26.95 C28.8436892,27.4944401 28.3946546,27.9256911 27.85,27.92 L27.86,27.95 Z" id="_Compound_Path_3"></path>
                        <path d="M37.46,26 L36.63,26 C36.1329437,26 35.73,26.4029437 35.73,26.9 C35.73,27.3970563 36.1329437,27.8 36.63,27.8 L37.46,27.8 C37.9570563,27.8 38.3599999,27.3970563 38.3599999,26.9 C38.3599999,26.4029437 37.9570563,26 37.46,26 L37.46,26 Z" id="_Path_2"></path>
                        <path d="M19.08,26 L18.25,26 C17.7529437,26 17.35,26.4029437 17.35,26.9 C17.35,27.3970563 17.7529437,27.8 18.25,27.8 L19.08,27.8 C19.401539,27.8 19.6986534,27.628461 19.8594229,27.35 C20.0201924,27.071539 20.0201924,26.728461 19.8594229,26.45 C19.6986534,26.171539 19.401539,26 19.08,26 L19.08,26 Z" id="_Path_3"></path>
                        <path d="M27.86,19.05 C28.3570563,19.05 28.76,18.6470563 28.76,18.15 L28.76,17.32 C28.76,16.8229437 28.3570563,16.42 27.86,16.42 C27.3629437,16.42 26.96,16.8229437 26.96,17.32 L26.96,18.15 C26.96,18.3886948 27.0548212,18.6176134 27.2236039,18.7863961 C27.3923866,18.9551788 27.6213052,19.05 27.86,19.05 Z" id="_Path_4"></path>
                        <path d="M27.84,34.81 C27.3429437,34.81 26.94,35.2129437 26.94,35.71 L26.94,36.54 C26.94,37.0370563 27.3429437,37.44 27.84,37.44 C28.3370563,37.44 28.74,37.0370563 28.74,36.54 L28.74,35.7 C28.7345203,35.2068534 28.3331771,34.8099696 27.84,34.81 L27.84,34.81 Z" id="_Path_5"></path>
                        <path d="M0.9,31.5799958 C0.491204032,31.5787625 0.132923098,31.8531936 0.0276370842,32.2482006 C-0.0776489294,32.6432076 0.0965100437,33.0595564 0.451689316,33.2619505 C0.806868588,33.4643445 1.25383964,33.4019382 1.54,33.11 C1.79332054,32.8515647 1.86721313,32.4665393 1.72756225,32.1326864 C1.58791137,31.7988335 1.26188245,31.5810955 0.9,31.5799958 L0.9,31.5799958 Z" id="_Path_6"></path>
                    </g>
                </g>
            </g>
        </g>
    </g>
</svg>