<?xml version="1.0" encoding="UTF-8"?>
<svg width="46px" height="44px" viewBox="0 0 46 44" version="1.1" xmlns="http://www.w3.org/2000/svg" xmlns:xlink="http://www.w3.org/1999/xlink">
    <!-- Generator: Sketch 62 (91390) - https://sketch.com -->
    <title>icon/other/key</title>
    <desc>Created with Sketch.</desc>
    <defs>
        <rect id="path-1" x="0" y="0" width="46" height="46"></rect>
    </defs>
    <g id="Page-1" stroke="none" stroke-width="1" fill="none" fill-rule="evenodd">
        <g id="08.-Icon-set" transform="translate(-990.000000, -485.000000)">
            <g id="icon/other/key" transform="translate(990.000000, 484.000000)">
                <g id="icon/key">
                    <g id="key-(2)">
                        <mask id="mask-2" fill="white">
                            <use xlink:href="#path-1"></use>
                        </mask>
                        <g id="Mask"></g>
                        <g id="key-(1)" mask="url(#mask-2)" fill="#141ED2" fill-rule="nonzero">
                            <g transform="translate(0.000000, 1.000000)">
                                <path d="M23.6610576,21.478239 L21.193282,21.478239 C20.9249892,21.478239 20.6776191,21.6228468 20.546713,21.8572558 L20.1278873,22.6065872 L19.708321,21.8572558 C19.5766742,21.6228468 19.3300448,21.478239 19.0617519,21.478239 L15.8648272,21.478239 C15.5965343,21.478239 15.3491643,21.6228468 15.2182581,21.8572558 L14.7994325,22.6065872 L14.3806068,21.8572558 C14.2497006,21.6228468 14.0023306,21.478239 13.7340377,21.478239 L11.8391386,21.478239 C11.6619431,21.478239 11.4912282,21.5419331 11.356804,21.6569157 L8.39725082,24.1963472 C8.24468126,24.3272533 8.15136201,24.5161137 8.14043774,24.7170093 C8.12895799,24.9188307 8.20042868,25.1154677 8.33781535,25.263038 L10.1134732,27.1673801 C10.2538224,27.3177278 10.4497187,27.4030853 10.6552433,27.4030853 L23.6690194,27.4030853 C24.790887,29.659041 27.0770234,31.0903064 29.6251572,31.0903064 C33.2964548,31.0903064 36.2828558,28.1039054 36.2828558,24.4326078 C36.2828558,20.7613102 33.2964548,17.7750943 29.6251572,17.7750943 C27.0690616,17.7750943 24.7799628,19.2130254 23.6610576,21.478239 L23.6610576,21.478239 Z M34.801598,24.432793 C34.801598,27.2868065 32.4791708,29.6092337 29.6251572,29.6092337 C27.5125132,29.6092337 25.6305751,28.3427582 24.8319919,26.3834244 C24.7184906,26.1042073 24.4472352,25.9220126 24.1463547,25.9220126 L10.9770465,25.9220126 L9.94775748,24.8175497 L12.1133565,22.9594969 L13.3002143,22.9594969 L14.1528634,24.4848221 C14.4146757,24.9534551 15.1841892,24.9534551 15.4460015,24.4848221 L16.2986506,22.9594969 L18.6275582,22.9594969 L19.4809479,24.4848221 C19.7442415,24.9534551 20.5122737,24.9519738 20.774086,24.4848221 L21.6267351,22.9594969 L24.1400594,22.9594969 C24.4416805,22.9594969 24.7136765,22.7765615 24.8264372,22.4966038 C25.6226133,20.5278269 27.5060327,19.2563522 29.6251572,19.2563522 C32.4791708,19.2563522 34.801598,21.5787794 34.801598,24.432793 Z" id="Shape"></path>
                                <path d="M28.0391004,24.432793 C28.0391004,25.9284931 29.256324,27.1457167 30.7520242,27.1457167 C32.2477243,27.1457167 33.4649479,25.9284931 33.4649479,24.432793 C33.4649479,22.9370928 32.2477243,21.7198692 30.7520242,21.7198692 C29.256324,21.7198692 28.0391004,22.9370928 28.0391004,24.432793 Z M30.7520242,23.201127 C31.4311809,23.201127 31.9836901,23.7536362 31.9836901,24.432793 C31.9836901,25.1119497 31.4311809,25.6644589 30.7520242,25.6644589 C30.0728674,25.6644589 29.5203582,25.1119497 29.5203582,24.432793 C29.5203582,23.7536362 30.0728674,23.201127 30.7520242,23.201127 Z" id="Shape"></path>
                                <path d="M44.4377358,6.07649006 L44.4377358,4.44377358 C44.4377358,1.99340277 42.4443331,0 39.9939623,0 C37.5435914,0 35.5501887,1.99340277 35.5501887,4.44377358 L35.5501887,6.07649006 C34.6875411,6.40107069 34.0689308,7.22798289 34.0689308,8.20246541 L34.0689308,8.95827723 L3.01972931,8.95827723 C2.61034667,8.95827723 2.27910038,9.28952352 2.27910038,9.69890616 L2.27910038,37.0314465 L0.740628931,37.0314465 C0.331246289,37.0314465 0,37.3626928 0,37.7720755 C0,41.0391748 2.65793208,43.6971069 5.92503145,43.6971069 L38.5127044,43.6971069 C41.7798038,43.6971069 44.4377358,41.0391748 44.4377358,37.7720755 C44.4377358,37.3626928 44.1064896,37.0314465 43.6971069,37.0314465 L42.1688191,37.0314465 L42.1688191,17.7750943 L43.6413746,17.7750943 C44.8969258,17.7750943 45.9189937,16.7530264 45.9189937,15.4974752 L45.9189937,8.20265057 C45.9189937,7.22816805 45.3003834,6.40107069 44.4377358,6.07649006 Z M37.0314465,4.44377358 C37.0314465,2.80994616 38.3601348,1.48125786 39.9939623,1.48125786 C41.6277897,1.48125786 42.956478,2.80994616 42.956478,4.44377358 L42.956478,5.92503145 L37.0314465,5.92503145 L37.0314465,4.44377358 Z M36.3465499,17.7750943 L38.5127044,17.7750943 L38.5127044,34.8095597 L5.92503145,34.8095597 L5.92503145,12.5906918 L34.0689308,12.5906918 L34.0689308,15.4974752 C34.0689308,16.7530264 35.0909987,17.7750943 36.3465499,17.7750943 Z M38.5127044,42.2158491 L5.92503145,42.2158491 C3.72702994,42.2158491 1.89638038,40.6116468 1.54273006,38.5127044 L17.228325,38.5127044 C18.1924387,39.8934219 19.7829394,40.7345912 21.478239,40.7345912 L22.9594969,40.7345912 C24.6547965,40.7345912 26.2452971,39.8934219 27.2094108,38.5127044 L42.8950058,38.5127044 C42.5413555,40.6116468 40.7107059,42.2158491 38.5127044,42.2158491 Z M40.6875613,37.0314465 L26.8037313,37.0314465 C26.5396971,37.0314465 26.2952896,37.1725364 26.1629021,37.4010204 C25.5017057,38.5438108 24.2744835,39.2533333 22.9594969,39.2533333 L21.478239,39.2533333 C20.1632523,39.2533333 18.9360302,38.5438108 18.2748337,37.4010204 C18.1424463,37.1725364 17.8980387,37.0314465 17.6340045,37.0314465 L3.76017308,37.0314465 L3.76017308,10.4397203 L34.0689308,10.4397203 L34.0689308,11.109434 L5.18440252,11.109434 C4.77501987,11.109434 4.44377358,11.4406803 4.44377358,11.8500629 L4.44377358,35.5501887 C4.44377358,35.9595713 4.77501987,36.2908176 5.18440252,36.2908176 L39.2533333,36.2908176 C39.662716,36.2908176 39.9939623,35.9595713 39.9939623,35.5501887 L39.9939623,17.7750943 L40.6875613,17.7750943 L40.6875613,37.0314465 Z M44.4377358,15.4974752 C44.4377358,15.936483 44.0803824,16.2938365 43.6413746,16.2938365 L36.3465499,16.2938365 C35.9075421,16.2938365 35.5501887,15.936483 35.5501887,15.4974752 L35.5501887,8.20265057 C35.5501887,7.76364277 35.9075421,7.40628931 36.3465499,7.40628931 L43.6413746,7.40628931 C44.0803824,7.40628931 44.4377358,7.76364277 44.4377358,8.20265057 L44.4377358,15.4974752 Z" id="Shape"></path>
                                <path d="M39.9939623,9.15102591 C39.321286,9.15102591 38.7761831,9.69631396 38.7761831,10.368805 C38.7761831,10.7613384 38.9650435,11.1066566 39.2533333,11.3294008 L39.2533333,14.0719497 C39.2533333,14.4813323 39.5845796,14.8125786 39.9939623,14.8125786 C40.4033449,14.8125786 40.7345912,14.4813323 40.7345912,14.0719497 L40.7345912,11.3294008 C41.022881,11.1066566 41.2117414,10.7613384 41.2117414,10.368805 C41.2117414,9.69612881 40.6666385,9.15102591 39.9939623,9.15102591 Z" id="Path"></path>
                            </g>
                        </g>
                    </g>
                </g>
            </g>
        </g>
    </g>
</svg>