<?xml version="1.0" encoding="UTF-8"?>
<svg width="44px" height="46px" viewBox="0 0 44 46" version="1.1" xmlns="http://www.w3.org/2000/svg" xmlns:xlink="http://www.w3.org/1999/xlink">
    <!-- Generator: Sketch 62 (91390) - https://sketch.com -->
    <title>icon/other/Medicine</title>
    <desc>Created with Sketch.</desc>
    <defs>
        <rect id="path-1" x="0" y="0" width="46" height="46"></rect>
    </defs>
    <g id="Page-1" stroke="none" stroke-width="1" fill="none" fill-rule="evenodd">
        <g id="08.-Icon-set" transform="translate(-561.000000, -570.000000)">
            <g id="icon/other/Medicine" transform="translate(560.000000, 570.000000)">
                <g id="icon/Medicine">
                    <g id="Medicine">
                        <mask id="mask-2" fill="white">
                            <use xlink:href="#path-1"></use>
                        </mask>
                        <g id="Mask"></g>
                        <g mask="url(#mask-2)" fill="#141ED2" fill-rule="nonzero">
                            <g transform="translate(1.000000, 0.000000)">
                                <path d="M10.29,11.32 C9.79294373,11.32 9.39,11.7229437 9.39,12.22 C9.39,12.7170563 9.79294373,13.12 10.29,13.12 C10.7870563,13.12 11.19,12.7170563 11.19,12.22 C11.19,11.9813052 11.0951788,11.7523866 10.9263961,11.5836039 C10.7576134,11.4148212 10.5286948,11.32 10.29,11.32 L10.29,11.32 Z" id="Path"></path>
                                <path d="M18.38,28.12 L15.68,28.12 L15.68,25.42 C15.68,24.9229437 15.2770563,24.52 14.78,24.52 C14.2829437,24.52 13.88,24.9229437 13.88,25.42 L13.88,28.12 L11.18,28.12 C10.6829437,28.12 10.28,28.5229437 10.28,29.02 C10.28,29.5170563 10.6829437,29.92 11.18,29.92 L13.88,29.92 L13.88,32.62 C13.88,33.1170563 14.2829437,33.52 14.78,33.52 C15.2770563,33.52 15.68,33.1170563 15.68,32.62 L15.68,29.92 L18.38,29.92 C18.7015391,29.92 18.9986534,29.748461 19.159423,29.47 C19.3201925,29.191539 19.3201925,28.848461 19.159423,28.57 C18.9986534,28.291539 18.7015391,28.12 18.38,28.12 L18.38,28.12 Z" id="Path"></path>
                                <path d="M42.63,28.93 C41.6781587,27.2772969 40.1078817,26.0712004 38.2656044,25.5778003 C36.4233271,25.0844001 34.4604413,25.3442422 32.81,26.3 L29.16,28.4 L29.16,20.6 C29.1585646,19.6265675 28.8429112,18.6796072 28.26,17.9 L23.77,11.9 L23.77,9.37 C24.8468457,8.98928031 25.5676368,7.97216395 25.57,6.83 L25.57,2.7 C25.57,1.98391548 25.2855365,1.29715991 24.7791883,0.790811691 C24.2728401,0.284463469 23.5860845,0 22.87,0 L6.7,0 C5.20883118,0 4,1.20883118 4,2.7 L4,6.83 C4.00236321,7.97216395 4.72315433,8.98928031 5.8,9.37 L5.8,11.92 L1.31,17.92 C0.729127576,18.696865 0.413583849,19.6399901 0.41,20.61 L0.41,38 C0.415499414,40.477477 2.42252298,42.4845006 4.9,42.49 L19.34,42.49 C21.3611396,45.8527394 25.7073117,46.9704538 29.1,45 L40,38.75 C43.4372652,36.7639938 44.6145799,32.368089 42.63,28.93 Z M5.8,2.7 C5.8,2.20294373 6.20294373,1.8 6.7,1.8 L22.87,1.8 C23.3670563,1.8 23.77,2.20294373 23.77,2.7 L23.77,6.83 C23.77,7.32705627 23.3670563,7.73 22.87,7.73 L6.7,7.73 C6.20294373,7.73 5.8,7.32705627 5.8,6.83 L5.8,2.7 L5.8,2.7 Z M2.75,19 L7.42,12.77 C7.53683992,12.6142134 7.6,12.4247332 7.6,12.23 L7.6,9.52 L22,9.52 L22,11.32 L13.89,11.32 C13.3929437,11.32 12.99,11.7229437 12.99,12.22 C12.99,12.7170563 13.3929437,13.12 13.89,13.12 L22.42,13.12 L26.82,19 C27.1070522,19.386252 27.2864895,19.8417468 27.34,20.32 L2.23,20.32 C2.28351046,19.8417468 2.46294781,19.386252 2.75,19 Z M4.9,40.7 C3.41273791,40.6944916 2.21,39.4872723 2.21,38 L2.21,37.09 L18.53,37.09 C18.22516,38.2706401 18.22516,39.5093599 18.53,40.69 L4.9,40.69 L4.9,40.7 Z M19.23,35.31 L2.23,35.31 L2.23,22.1 L27.36,22.1 L27.36,29.44 L21.91,32.58 C20.7846571,33.228875 19.8579647,34.1728564 19.23,35.31 Z M28.23,43.48 C26.5615697,44.4428308 24.5062124,44.4424262 22.8381613,43.4789386 C21.1701102,42.5154509 20.1427819,40.7352569 20.1431611,38.8089385 C20.1435405,36.88262 21.1715696,35.1028307 22.84,34.14 L27.72,31.32 L33.11,40.66 L28.23,43.48 Z M39.1,37.19 L34.64,39.76 L29.25,30.42 L33.71,27.85 C35.3784303,26.8871692 37.4337876,26.8875738 39.1018387,27.8510614 C40.7698898,28.8145491 41.797218,30.5947431 41.7968389,32.5210615 C41.7964595,34.44738 40.7684304,36.2271693 39.1,37.19 Z" id="Shape"></path>
                            </g>
                        </g>
                    </g>
                </g>
            </g>
        </g>
    </g>
</svg>