<?xml version="1.0" encoding="UTF-8"?>
<svg width="46px" height="46px" viewBox="0 0 46 46" version="1.1" xmlns="http://www.w3.org/2000/svg" xmlns:xlink="http://www.w3.org/1999/xlink">
    <!-- Generator: Sketch 62 (91390) - https://sketch.com -->
    <title>icon/other/meeting</title>
    <desc>Created with Sketch.</desc>
    <g id="Page-1" stroke="none" stroke-width="1" fill="none" fill-rule="evenodd">
        <g id="08.-Icon-set" transform="translate(-1076.000000, -398.000000)" fill="#141ED2">
            <g id="icon/other/meeting" transform="translate(1076.000000, 398.000000)">
                <g id="icon/meeting">
                    <g id="Hop" fill-rule="nonzero">
                        <path d="M42.46,15.9 C44.0987357,14.3557127 44.577789,11.9420883 43.6530548,9.88900655 C42.7283206,7.83592483 40.6033047,6.59520634 38.3608244,6.79906819 C36.118344,7.00293004 34.2519006,8.60650848 33.7125538,10.7926885 C33.1732071,12.9788684 34.0796508,15.2665386 35.97,16.49 C34.9370832,17.1924272 34.3191556,18.3608722 34.32,19.61 L34.32,24.89 L31.32,24.89 L31.32,21.11 C31.3188463,18.4384786 29.3224365,16.1887609 26.67,15.87 C28.2342141,14.3813479 28.7343164,12.0902432 27.9327105,10.0851799 C27.1311046,8.08011668 25.1893635,6.76523857 23.03,6.76523857 C20.8706365,6.76523857 18.9288954,8.08011668 18.1272895,10.0851799 C17.3256836,12.0902432 17.8257859,14.3813479 19.39,15.87 C16.7375635,16.1887609 14.7411537,18.4384786 14.74,21.11 L14.74,24.88 L11.74,24.88 L11.74,19.61 C11.7208307,18.3437675 11.0672059,17.1717505 10,16.49 C11.8903492,15.2665386 12.7967929,12.9788684 12.2574462,10.7926885 C11.7180994,8.60650848 9.85165598,7.00293004 7.60917562,6.79906819 C5.36669526,6.59520634 3.24167935,7.83592483 2.31694519,9.88900655 C1.39221103,11.9420883 1.87126433,14.3557127 3.51,15.9 C1.70342672,16.2112014 0.382567377,17.7768206 0.38,19.61 L0.38,30.92 C0.384082164,32.7037764 1.63460772,34.2419229 3.38,34.61 L3.38,46 L4.9,46 L4.9,34.69 L11.69,34.69 L11.69,45.25 C11.69,45.6642136 12.0257864,46 12.44,46 L17,46 C17.4142136,46 17.75,45.6642136 17.75,45.25 L17.75,33.18 L22.27,33.18 L22.27,44.49 L19.27,44.49 L19.27,46 L26.81,46 L26.81,44.49 L23.81,44.49 L23.81,33.18 L28.33,33.18 L28.33,45.25 C28.3278048,45.634882 28.6173069,45.9589515 29,46 L33.52,46 C33.9342136,46 34.27,45.6642136 34.27,45.25 L34.27,34.69 L41.1,34.69 L41.1,46 L42.61,46 L42.61,34.61 C44.3553923,34.2419229 45.6059178,32.7037764 45.61,30.92 L45.61,19.61 C45.6057691,17.7704382 44.2745206,16.2025233 42.46,15.9 Z M35.07,12.07 C35.07,9.98788649 36.7578865,8.3 38.84,8.3 C40.9221135,8.3 42.61,9.98788649 42.61,12.07 C42.61,14.1521135 40.9221135,15.84 38.84,15.84 C36.7578865,15.84 35.07,14.1521135 35.07,12.07 L35.07,12.07 Z M19.23,12.07 C19.23,9.98788649 20.9178865,8.3 23,8.3 C25.0821135,8.3 26.77,9.98788649 26.77,12.07 C26.77,14.1521135 25.0821135,15.84 23,15.84 C20.9178865,15.84 19.23,14.1521135 19.23,12.07 L19.23,12.07 Z M24.17,17.35 L23,20.48 L21.83,17.35 L24.18,17.35 L24.17,17.35 Z M16.1699854,21.12 C16.1671872,20.107918 16.5714258,19.137208 17.2917651,18.4262726 C18.0121044,17.7153372 18.9880424,17.3238886 20,17.34 L20.23,17.34 L22.31,22.88 C22.4176563,23.1766134 22.6994539,23.3741192 23.015,23.3741192 C23.3305461,23.3741192 23.6123437,23.1766134 23.72,22.88 L25.8,17.34 L26,17.34 C28.0821135,17.34 29.77,19.0278865 29.77,21.11 L29.77,24.88 L26.77,24.88 C26.3557864,24.88 26.02,25.2157864 26.02,25.63 L26.02,28.63 L20,28.63 L20,25.63 C20,25.2157864 19.6642136,24.88 19.25,24.88 L16.25,24.88 L16.25,21.11 L16.1699854,21.12 Z M3.35,12.12 C3.35,10.0378865 5.03788649,8.35 7.12,8.35 C9.20211351,8.35 10.89,10.0378865 10.89,12.12 C10.89,14.2021135 9.20211351,15.89 7.12,15.89 C6.11836233,15.8794608 5.16209798,15.4707329 4.46228706,14.7540365 C3.76247614,14.03734 3.3766595,13.0716043 3.39,12.07 L3.35,12.12 Z M16.21,44.49 L13.21,44.49 L13.21,33.93 C13.21,33.5157864 12.8742136,33.18 12.46,33.18 L4.15,33.18 C2.90411196,33.1745235 1.89547651,32.165888 1.89,30.92 L1.89,19.61 C1.89547651,18.364112 2.90411196,17.3554765 4.15,17.35 L7.92,17.35 C9.16588804,17.3554765 10.1745235,18.364112 10.18,19.61 L10.18,25.61 C10.18,26.0242136 10.5157864,26.36 10.93,26.36 L18.47,26.36 L18.47,28.62 L7.92,28.62 L7.92,21.87 L6.41,21.87 L6.41,29.41 C6.41,29.8242136 6.74578644,30.16 7.16,30.16 L14,30.16 C15.245888,30.1654765 16.2545235,31.174112 16.26,32.42 L16.26,44.49 L16.21,44.49 Z M28.36,31.67 L17.64,31.67 C17.5400583,31.1258006 17.3215554,30.6102704 17,30.16 L29,30.16 C28.6784446,30.6102704 28.4599417,31.1258006 28.36,31.67 L28.36,31.67 Z M44.11,30.92 C44.1045235,32.165888 43.095888,33.1745235 41.85,33.18 L33.55,33.18 C33.1357864,33.18 32.8,33.5157864 32.8,33.93 L32.8,44.49 L29.8,44.49 L29.8,32.43 C29.7994165,31.2031492 30.7737325,30.1978323 32,30.16 L38.79,30.16 C39.2042136,30.16 39.54,29.8242136 39.54,29.41 L39.54,21.87 L38.08,21.87 L38.08,28.66 L27.52,28.66 L27.52,26.39 L35.06,26.39 C35.4742136,26.39 35.81,26.0542136 35.81,25.64 L35.81,19.64 C35.8154765,18.394112 36.824112,17.3854765 38.07,17.38 L41.84,17.38 C43.085888,17.3854765 44.0945235,18.394112 44.1,19.64 L44.1,30.92 L44.11,30.92 Z" id="Shape"></path>
                        <rect id="Rectangle" x="22.25" y="24.89" width="1.51" height="1.51"></rect>
                        <path d="M19.23,-1.38669458e-16 L8.67,-1.38669458e-16 C8.25578644,-1.64039789e-16 7.92,0.335786438 7.92,0.75 L7.92,4.52 C7.92,4.93421356 8.25578644,5.27 8.67,5.27 L11.67,5.27 L11.67,6.79 C11.6670604,7.07772243 11.8289889,7.3417624 12.0867737,7.46958961 C12.3445586,7.59741682 12.6527497,7.56649398 12.88,7.39 L15.7,5.28 L19.22,5.28 C19.4258057,5.28825944 19.6259507,5.21151561 19.7734735,5.06777544 C19.9209963,4.92403526 20.002912,4.72595082 20.0000751,4.52 L20.0000751,0.75 C20.0000751,0.54757342 19.9183149,0.353713284 19.7733068,0.212471677 C19.6282988,0.0712300713 19.4323546,-0.00539805528 19.23,-1.38669458e-16 Z M18.48,3.77 L15.48,3.77 C15.3177223,3.77 15.1598221,3.8226334 15.03,3.92 L13.2,5.28 L13.2,4.52 C13.2,4.10578644 12.8642136,3.77 12.45,3.77 L9.45,3.77 L9.45,1.51 L18.45,1.51 L18.45,3.77 L18.48,3.77 Z" id="Shape"></path>
                        <rect id="Rectangle" x="26.77" y="2.26" width="1.51" height="1.51"></rect>
                        <rect id="Rectangle" x="29.79" y="2.26" width="1.51" height="1.51"></rect>
                        <rect id="Rectangle" x="32.8" y="2.26" width="1.51" height="1.51"></rect>
                    </g>
                </g>
            </g>
        </g>
    </g>
</svg>