<?xml version="1.0" encoding="UTF-8"?>
<svg width="34px" height="46px" viewBox="0 0 34 46" version="1.1" xmlns="http://www.w3.org/2000/svg" xmlns:xlink="http://www.w3.org/1999/xlink">
    <!-- Generator: Sketch 62 (91390) - https://sketch.com -->
    <title>icon/other/nhien-lieu</title>
    <desc>Created with Sketch.</desc>
    <defs>
        <rect id="path-1" x="0" y="0" width="46" height="46"></rect>
    </defs>
    <g id="Page-1" stroke="none" stroke-width="1" fill="none" fill-rule="evenodd">
        <g id="08.-Icon-set" transform="translate(-1082.000000, -570.000000)">
            <g id="icon/other/nhien-lieu" transform="translate(1076.000000, 570.000000)">
                <g id="icon/nhien-lieu">
                    <g id="nhien-lieu">
                        <mask id="mask-2" fill="white">
                            <use xlink:href="#path-1"></use>
                        </mask>
                        <g id="Mask"></g>
                        <g id="gasoline" mask="url(#mask-2)" fill="#141ED2" fill-rule="nonzero">
                            <g transform="translate(6.000000, 0.000000)" id="Shape">
                                <path d="M32.6434978,6.60089686 C33.0422325,6.60089686 33.3654709,6.2776585 33.3654709,5.87892377 L33.3654709,3.01702242 C33.3654709,2.61828769 33.0422325,2.29504933 32.6434978,2.29504933 L30.0823498,2.29504933 L30.0823498,0.721973094 C30.0823498,0.323238364 29.7591114,0 29.3603767,0 L23.4125561,0 C23.0138213,0 22.690583,0.323238364 22.690583,0.721973094 L22.690583,2.29504933 L0.773542601,2.29504933 C0.374807871,2.29504933 0.0515695067,2.61828769 0.0515695067,3.01702242 L0.0515695067,5.87892377 C0.0515695067,6.2776585 0.374807871,6.60089686 0.773542601,6.60089686 L1.9253991,6.60089686 L1.9253991,21.9946009 L0.773542601,21.9946009 C0.374807871,21.9946009 0.0515695067,22.3178393 0.0515695067,22.716574 L0.0515695067,25.5784753 C0.0515695067,25.9772101 0.374807871,26.3004484 0.773542601,26.3004484 L1.9253991,26.3004484 L1.9253991,41.6941525 L0.773542601,41.6941525 C0.374807871,41.6941525 0.0515695067,42.0173908 0.0515695067,42.4161256 L0.0515695067,45.2780269 C0.0515695067,45.6767616 0.374807871,46 0.773542601,46 L32.6434978,46 C33.0422325,46 33.3654709,45.6767616 33.3654709,45.2780269 L33.3654709,42.4161256 C33.3654709,42.0173908 33.0422325,41.6941525 32.6434978,41.6941525 L31.4916413,41.6941525 L31.4916413,26.3004484 L32.6434978,26.3004484 C33.0422325,26.3004484 33.3654709,25.9772101 33.3654709,25.5784753 L33.3654709,22.716574 C33.3654709,22.3178393 33.0422325,21.9946009 32.6434978,21.9946009 L31.4916413,21.9946009 L31.4916413,6.60089686 L32.6434978,6.60089686 Z M24.1345291,1.44394619 L28.6384036,1.44394619 L28.6384036,2.29504933 L24.1345291,2.29504933 L24.1345291,1.44394619 Z M1.4955157,3.73899552 L31.9215247,3.73899552 L31.9215247,5.15695067 L1.4955157,5.15695067 L1.4955157,3.73899552 Z M1.4955157,23.4385471 L11.4690583,23.4385471 C11.2773207,23.8907387 11.1522495,24.368372 11.0977578,24.8565022 L1.4955157,24.8565022 L1.4955157,23.4385471 Z M20.8856502,25.1147623 C20.8856502,27.4217276 19.0154854,29.2918924 16.7085202,29.2918924 C14.401555,29.2918924 12.5313901,27.4217276 12.5313901,25.1147623 C12.5950499,24.4124517 12.8210212,23.7345376 13.1914798,23.1344933 C13.2243019,23.0906332 13.2519865,23.0431542 13.273991,22.9929865 C14.2569349,21.3711782 15.4081419,19.857531 16.7085202,18.477148 C18.5052018,20.412861 20.8856502,23.5173453 20.8856502,25.1143498 L20.8856502,25.1147623 Z M31.9215247,44.5564664 L1.4955157,44.5564664 L1.4955157,43.1385112 L31.9215247,43.1385112 L31.9215247,44.5564664 Z M30.0476951,41.694565 L3.36934529,41.694565 L3.36934529,26.3004484 L11.2161614,26.3004484 C11.7736783,28.8881031 14.0616938,30.735662 16.7087265,30.735662 C19.3557591,30.735662 21.6437746,28.8881031 22.2012915,26.3004484 L30.0481076,26.3004484 L30.0476951,41.694565 Z M31.9215247,24.8565022 L22.3192825,24.8565022 C22.2658451,24.3685391 22.1418871,23.8909115 21.9512825,23.4385471 L31.9235874,23.4385471 L31.9215247,24.8565022 Z M30.0476951,21.9946009 L21.229722,21.9946009 C20.0807663,20.1650406 18.7373794,18.4650586 17.2229776,16.924287 C16.9355718,16.6481891 16.4814685,16.6481891 16.1940628,16.924287 C14.679661,18.4650586 13.336274,20.1650406 12.1873184,21.9946009 L3.36934529,21.9946009 L3.36934529,6.60089686 L30.0476951,6.60089686 L30.0476951,21.9946009 Z"></path>
                            </g>
                        </g>
                    </g>
                </g>
            </g>
        </g>
    </g>
</svg>