<?xml version="1.0" encoding="UTF-8"?>
<svg width="46px" height="46px" viewBox="0 0 46 46" version="1.1" xmlns="http://www.w3.org/2000/svg" xmlns:xlink="http://www.w3.org/1999/xlink">
    <!-- Generator: Sketch 62 (91390) - https://sketch.com -->
    <title>icon/other/phone</title>
    <desc>Created with Sketch.</desc>
    <defs>
        <rect id="path-1" x="0" y="0" width="46" height="46"></rect>
    </defs>
    <g id="Page-1" stroke="none" stroke-width="1" fill="none" fill-rule="evenodd">
        <g id="08.-Icon-set" transform="translate(-560.000000, -656.000000)">
            <g id="icon/other/phone" transform="translate(560.000000, 656.000000)">
                <g id="icon/phone">
                    <g id="telephone">
                        <mask id="mask-2" fill="white">
                            <use xlink:href="#path-1"></use>
                        </mask>
                        <g id="Mask"></g>
                        <g mask="url(#mask-2)" fill="#141ED2" fill-rule="nonzero" id="Path">
                            <path d="M26.1309488,0.0448341413 C25.6356716,0.0448341413 25.234266,0.446239768 25.234266,0.941516968 C25.234266,1.43679417 25.6356716,1.83819979 26.1309488,1.83819979 C36.0484009,1.83819979 44.1167951,9.90659393 44.1167951,19.8240461 C44.1167951,20.3189729 44.5182007,20.7207289 45.0134779,20.7207289 C45.5087551,20.7207289 45.9101607,20.3189729 45.9101607,19.8240461 C45.9101607,8.91779093 37.0372039,0.0448341413 26.1309488,0.0448341413 L26.1309488,0.0448341413 Z"></path>
                            <path d="M26.1309488,5.43929202 C25.6356716,5.43929202 25.234266,5.84104798 25.234266,6.33632509 C25.234266,6.83125204 25.6356716,7.23300791 26.1309488,7.23300791 C33.0735856,7.23300791 38.721987,12.881059 38.721987,19.8240461 C38.721987,20.3189729 39.1233926,20.7207289 39.6186698,20.7207289 C40.1139469,20.7207289 40.5153526,20.3189729 40.5153526,19.8240461 C40.5153526,11.892256 34.0627389,5.43929202 26.1309488,5.43929202 L26.1309488,5.43929202 Z"></path>
                            <path d="M33.3264782,19.8240461 C33.3264782,20.3189729 33.7278839,20.7207289 34.223161,20.7207289 C34.7184382,20.7207289 35.1198438,20.3189729 35.1198438,19.8240461 C35.1198438,14.8674216 31.0875732,10.835151 26.1309488,10.835151 C25.6356716,10.835151 25.234266,11.2365567 25.234266,11.7318339 C25.234266,12.227111 25.6356716,12.6285167 26.1309488,12.6285167 C30.09842,12.6285167 33.3264782,15.8562245 33.3264782,19.8240461 L33.3264782,19.8240461 Z"></path>
                            <path d="M25.234266,17.126642 C25.234266,17.6215689 25.6356716,18.0233248 26.1309488,18.0233248 C27.123955,18.0233248 27.9316701,18.8310399 27.9316701,19.8240461 C27.9316701,20.3189729 28.3330757,20.7207289 28.8283529,20.7207289 C29.3236301,20.7207289 29.7250357,20.3189729 29.7250357,19.8240461 C29.7250357,17.8418866 28.1127579,16.2299592 26.1309488,16.2299592 C25.6356716,16.2299592 25.234266,16.6313648 25.234266,17.126642 L25.234266,17.126642 Z"></path>
                            <path d="M17.1252409,28.951997 C17.1252409,29.4472742 16.7238352,29.8486798 16.2285581,29.8486798 C15.733281,29.8486798 15.3318753,29.4472742 15.3318753,28.951997 C15.3318753,28.4567199 15.733281,28.0549639 16.2285581,28.0549639 C16.7238352,28.0549639 17.1252409,28.4567199 17.1252409,28.951997 L17.1252409,28.951997 Z"></path>
                            <path d="M31.8360933,29.9390487 C30.7873947,28.8899998 29.0805449,28.8899998 28.0318464,29.9390487 L25.0808491,32.8900459 C24.5232245,33.4476705 23.475927,33.5474965 22.7939577,33.1086123 C21.7624222,32.443806 20.7568064,31.7142005 19.8058322,30.9397607 C19.4215896,30.6273228 18.8569596,30.6851168 18.5441715,31.0693595 C18.2317335,31.453602 18.2895275,32.018232 18.6737701,32.3306699 C19.6762335,33.1467914 20.7354401,33.9156269 21.8226681,34.6161603 C23.2104248,35.510041 25.1985387,35.3086376 26.3491649,34.1580114 L29.3001622,31.2070143 C29.6500786,30.857448 30.2185615,30.8577983 30.5681277,31.2070143 L37.5426389,38.1825761 C37.892205,38.5321423 37.892205,39.1009755 37.5426389,39.4505418 L34.9324512,42.0607293 C32.8224444,44.1707361 29.5674157,44.7458741 26.8328833,43.4919192 C13.1416574,37.2165405 6.00462256,26.6766643 2.42874955,18.9399728 C1.19651115,16.2751436 1.78916245,13.0635479 3.90407292,10.9489877 L6.4732794,8.38013147 C6.82319589,8.02986475 7.38992741,8.02881392 7.74089472,8.38013147 L14.7164567,15.3556934 C15.0660228,15.7052596 15.0660228,16.2737425 14.7164567,16.6233087 L11.7654595,19.5746561 C10.6148332,20.7252823 10.4137801,22.7133964 11.3076608,24.1011531 C11.8144967,24.8875019 12.3588113,25.6622919 12.9258931,26.4045071 C13.2267722,26.7978567 13.7896508,26.873164 14.1830004,26.5722849 C14.57635,26.271756 14.6516573,25.7088774 14.3511284,25.3155279 C13.8127685,24.6111415 13.296125,23.8759316 12.8152088,23.1295132 C12.3759743,22.4478941 12.4761507,21.4002463 13.0337753,20.8426217 L15.9847725,17.8916245 C17.0359229,16.8404741 17.0362732,15.1388783 15.9847725,14.0873776 L9.00921052,7.11181567 C7.95770984,6.06031499 6.25646436,6.06031499 5.20461335,7.11181567 L2.63575712,9.68067191 C-0.0084064015,12.3248354 -0.745717844,16.3483493 0.800359454,19.6923458 C5.97520016,30.887571 14.6744246,39.8918777 26.0854141,45.1224109 C29.4854533,46.681448 33.553451,45.9760109 36.2004168,43.3290452 L38.8109547,40.7188576 C39.8596533,39.6698087 39.8596533,37.9633092 38.8109547,36.9146106 L31.8360933,29.9390487 Z"></path>
                        </g>
                    </g>
                </g>
            </g>
        </g>
    </g>
</svg>