<?xml version="1.0" encoding="UTF-8"?>
<svg width="46px" height="42px" viewBox="0 0 46 42" version="1.1" xmlns="http://www.w3.org/2000/svg" xmlns:xlink="http://www.w3.org/1999/xlink">
    <!-- Generator: Sketch 62 (91390) - https://sketch.com -->
    <title>icon/other/policy</title>
    <desc>Created with Sketch.</desc>
    <defs>
        <rect id="path-1" x="0" y="0" width="46" height="46"></rect>
    </defs>
    <g id="Page-1" stroke="none" stroke-width="1" fill="none" fill-rule="evenodd">
        <g id="08.-Icon-set" transform="translate(-560.000000, -401.000000)">
            <g id="icon/other/policy" transform="translate(560.000000, 398.000000)">
                <g id="icon/policy">
                    <g id="policy">
                        <mask id="mask-2" fill="white">
                            <use xlink:href="#path-1"></use>
                        </mask>
                        <g id="Mask"></g>
                        <g mask="url(#mask-2)" fill="#141ED2" fill-rule="nonzero">
                            <g transform="translate(0.000000, 3.000000)">
                                <path d="M41.0199972,-2.63824836e-15 L11.3681754,-2.63824836e-15 C8.7948168,-2.63824836e-15 6.70117536,2.0740611 6.70117536,4.61514854 L6.51008614,30.7251121 L0.723383221,30.7251121 C0.313284753,30.7251121 0,31.0877102 0,31.4978087 L0,35.0911557 C0,38.4549783 2.69192825,41.20601 5.94080717,41.3568508 L5.94080717,41.4 L30.9107623,41.4 L30.9107623,41.3514118 C31.0964126,41.3590264 31.208818,41.4 31.3364525,41.4 L31.3542198,41.4 C34.8192072,41.3796945 37.6123003,38.555418 37.5941704,35.0904306 L37.5941704,12.2529148 L45.1322222,12.2529148 C45.5423206,12.2529148 45.8556131,11.8816143 45.8556131,11.4718785 L45.8556131,4.87875738 C45.8603191,2.19915742 43.6995972,0.0192176758 41.0199972,-2.63824836e-15 Z M6.26569507,39.9147982 L6.26061865,39.9147982 C3.61909155,39.9147982 1.48520179,37.7315951 1.48520179,35.0904306 L1.48520179,32.2103139 L25.0627803,32.2103139 L25.0627803,35.0781022 C25.0569787,36.7496795 25.7172698,38.3545386 26.8975266,39.5380588 C27.0229856,39.6642429 27.1542461,39.729148 27.2884073,39.9147982 L6.26569507,39.9147982 Z M36.1089686,35.0897053 C36.1089686,37.7315951 33.9957469,39.9147982 31.353132,39.9147982 L31.3379028,39.9147982 C28.6822345,39.8955805 26.5418179,37.7341332 26.5479821,35.0784649 L26.5479821,31.4978087 C26.5501577,31.0819086 26.2212812,30.739616 25.8053812,30.7251121 L7.99528793,30.7251121 L8.18637715,4.62022496 C8.18637715,2.89317022 9.61356325,1.48520179 11.3681754,1.48520179 L37.5140362,1.48520179 C36.6677322,2.41345291 36.1089686,3.58790817 36.1089686,4.8987003 L36.1089686,35.0897053 Z M44.3704413,4.89181091 L44.3704413,10.767713 L37.5941704,10.767713 L37.5941704,4.89724981 C37.5941704,3.03857203 39.1402887,1.48520179 40.9982413,1.48520179 L41.0189094,1.48520179 C42.8815759,1.50369432 44.3791059,3.02334286 44.3704413,4.88637192 L44.3704413,4.89181091 Z" id="Shape"></path>
                                <path d="M17.437705,18.2785699 L21.2663782,20.8961655 C21.5162083,21.0683997 21.8465351,21.0683997 22.0963653,20.8961655 L25.9134354,18.2792951 C27.2394567,17.3746129 28.2188341,15.4833012 28.2188341,13.8795299 L28.2188341,8.58342209 C28.2268113,8.30349636 28.0723445,8.04387612 27.822877,7.91660417 L21.9933874,5.04917844 C21.7888821,4.94765097 21.5488421,4.94765097 21.3443368,5.04917844 L15.5257251,7.90862706 C15.2762577,8.03589892 15.1221535,8.29551924 15.1304933,8.57544488 L15.1304933,13.8795299 C15.1304933,15.4833012 16.1120463,17.3746129 17.437705,18.2785699 Z M16.6156951,9.03884529 L21.6746637,6.54272001 L26.7336323,9.04573468 L26.7336323,13.8795299 C26.7336323,14.998145 26.0004589,16.4209799 25.0754712,17.0515379 L21.6659613,19.3834063 L18.2698675,17.0519006 C17.3448799,16.4206173 16.6156951,14.998145 16.6156951,13.8795299 L16.6156951,9.03884529 Z" id="Shape"></path>
                                <path d="M20.4186239,15.0006831 C20.5571364,15.1420964 20.7464126,15.2222306 20.9443911,15.2233184 L20.9462041,15.2233184 C21.1434575,15.2225932 21.3323711,15.1435468 21.4712462,15.0035839 L24.4253328,12.0484095 C24.7157739,11.758331 24.7157739,11.2876786 24.4256954,10.9976001 C24.1359795,10.7071591 23.6653272,10.7071591 23.3752487,10.9972376 L20.9487423,13.4233814 L19.9787924,12.444004 C19.6898018,12.1524751 19.219512,12.1502995 18.9279831,12.4392902 C18.6364542,12.7282809 18.6346413,13.1985706 18.9232693,13.4900995 L20.4186239,15.0006831 Z" id="Path"></path>
                                <path d="M30.9107623,23.0206278 L13.0883408,23.0206278 C12.6782423,23.0206278 12.3457399,23.3531302 12.3457399,23.7632287 C12.3457399,24.1733272 12.6782423,24.5058296 13.0883408,24.5058296 L30.9107623,24.5058296 C31.3208608,24.5058296 31.6533632,24.1733272 31.6533632,23.7632287 C31.6533632,23.3531302 31.3208608,23.0206278 30.9107623,23.0206278 Z" id="Path"></path>
                                <path d="M30.9107623,26.455157 L13.0883408,26.455157 C12.6782423,26.455157 12.3457399,26.7876594 12.3457399,27.1977578 C12.3457399,27.6078563 12.6782423,27.9403587 13.0883408,27.9403587 L30.9107623,27.9403587 C31.3208608,27.9403587 31.6533632,27.6078563 31.6533632,27.1977578 C31.6533632,26.7876594 31.3208608,26.455157 30.9107623,26.455157 Z" id="Path"></path>
                            </g>
                        </g>
                    </g>
                </g>
            </g>
        </g>
    </g>
</svg>