<?xml version="1.0" encoding="UTF-8"?>
<svg width="39px" height="46px" viewBox="0 0 39 46" version="1.1" xmlns="http://www.w3.org/2000/svg" xmlns:xlink="http://www.w3.org/1999/xlink">
    <!-- Generator: Sketch 62 (91390) - https://sketch.com -->
    <title>icon/other/Shop</title>
    <desc>Created with Sketch.</desc>
    <defs>
        <rect id="path-1" x="0" y="0" width="46" height="46"></rect>
    </defs>
    <g id="Page-1" stroke="none" stroke-width="1" fill="none" fill-rule="evenodd">
        <g id="08.-Icon-set" transform="translate(-907.000000, -484.000000)">
            <g id="icon/other/Shop" transform="translate(904.000000, 484.000000)">
                <g id="icon/Shop">
                    <g id="Shop-1">
                        <mask id="mask-2" fill="white">
                            <use xlink:href="#path-1"></use>
                        </mask>
                        <g id="Mask"></g>
                        <g mask="url(#mask-2)" fill="#141ED2" fill-rule="nonzero">
                            <g transform="translate(3.000000, 0.000000)">
                                <path d="M25.9948936,6.53787234 C25.6273563,3.92433433 23.7134799,1.79378574 21.1541686,1.14912293 C18.5948573,0.504460129 15.9000681,1.47413579 14.3382979,3.60170213 C14.0896522,3.94223855 14.1641444,4.41986499 14.5046809,4.66851064 C14.8452173,4.91715628 15.3228437,4.84266409 15.5714894,4.50212766 C16.7697497,2.88725602 18.8241517,2.15521671 20.7735962,2.6484755 C22.7230407,3.14173429 24.1820583,4.76275766 24.4680851,6.75319149 C24.5215614,7.12860792 24.8424976,7.40786415 25.2217021,7.40893617 L25.3489362,7.40893617 C25.5505148,7.37994665 25.7321544,7.27161594 25.8534619,7.10803463 C25.9747694,6.94445332 26.0256877,6.73918323 25.9948936,6.53787234 L25.9948936,6.53787234 Z" id="Path"></path>
                                <path d="M37.0153191,15.0821277 L34.7251064,11.2651064 C34.5872514,11.0343279 34.3381789,10.8930629 34.0693617,10.8931915 L31.8770213,10.8931915 C31.4554047,10.8931915 31.113617,11.2349792 31.113617,11.6565957 C31.113617,12.0782123 31.4554047,12.42 31.8770213,12.42 L33.6387234,12.42 L35.0187234,14.6808511 L4.13021277,14.6808511 L5.50042553,12.3906383 L6.31276596,12.3906383 C6.73438249,12.3906383 7.07617021,12.0488506 7.07617021,11.627234 C7.07617021,11.2056175 6.73438249,10.8638297 6.31276596,10.8638297 L5.07957447,10.8638297 C4.81075727,10.8637012 4.56168475,11.0049662 4.42382979,11.2357447 L2.13361702,15.052766 C1.9926775,15.2887081 1.98943972,15.5821969 2.12513971,15.821191 C2.2608397,16.060185 2.51452974,16.2077911 2.7893617,16.2076597 L36.3595745,16.2076597 C36.6253987,16.2020134 36.8691364,16.0584656 37.0029835,15.8287281 C37.1368306,15.5989905 37.1415036,15.3161616 37.0153191,15.0821277 Z" id="Path"></path>
                                <path d="M33.2080851,8.04510638 C33.1028036,7.87342528 32.9339474,7.75030097 32.7382979,7.70255319 L22.3344681,5.27531915 C22.1371742,5.22831758 21.9292863,5.2617565 21.7566833,5.36825628 C21.5840802,5.47475606 21.4609506,5.64556189 21.4144681,5.84297872 L20.6314894,9.2 C20.5449132,9.60747296 20.8009772,10.0091218 21.2069232,10.1025963 C21.6128692,10.1960707 22.0188031,9.94685551 22.1191489,9.54255319 L22.7259574,6.9293617 L31.6421277,9.01404255 L30.2425532,15.013617 C30.1955516,15.2109109 30.2289905,15.4187988 30.3354903,15.5914019 C30.4419901,15.7640049 30.6127959,15.8871345 30.8102128,15.9336177 L30.986383,15.9336177 C31.3405199,15.9340952 31.6484891,15.6909616 31.7302128,15.346383 L33.2765957,8.62255319 C33.3308322,8.42857011 33.3062067,8.22101309 33.2080851,8.04510638 L33.2080851,8.04510638 Z" id="Path"></path>
                                <path d="M19.9757447,9.85574468 L19.2808511,3.98340426 C19.2563905,3.78214608 19.1528784,3.59888361 18.9931428,3.47403282 C18.8334073,3.34918204 18.6305692,3.29299837 18.4293617,3.31787234 L5.67659574,4.81531915 C5.47533757,4.83977968 5.2920751,4.9432918 5.16722431,5.10302737 C5.04237353,5.26276293 4.98618986,5.46560102 5.01106383,5.66680851 L6.16595745,15.4540426 C6.21046042,15.8372224 6.5338262,16.1269918 6.91957447,16.1293617 L7.00765957,16.1293617 C7.20891775,16.1049012 7.39218022,16.001389 7.51703101,15.8416535 C7.64188179,15.6819179 7.69806546,15.4790798 7.67319149,15.2778723 L6.60638298,6.23446809 L17.8519149,4.89361702 L18.4587234,10.0123404 C18.5197894,10.4152461 18.8865409,10.6991545 19.2918941,10.6573116 C19.6972472,10.6154687 19.9982699,10.2626287 19.9757447,9.85574468 Z" id="Path"></path>
                                <path d="M26.0144681,15.1897872 L24.4680851,8.88680851 C24.4216026,8.68939168 24.298473,8.51858585 24.1258699,8.41208607 C23.9532668,8.30558628 23.745379,8.27214737 23.5480851,8.31914894 L11.2553191,11.2553191 C11.0579023,11.3018017 10.8870965,11.4249312 10.7805967,11.5975343 C10.6740969,11.7701374 10.640658,11.9780252 10.6876596,12.1753191 L11.4412766,15.3268085 C11.5042161,15.5925533 11.7041478,15.8045338 11.9657594,15.8828989 C12.2273709,15.9612641 12.5109172,15.8941084 12.7095892,15.7067287 C12.9082611,15.5193491 12.9918757,15.2402129 12.9289362,14.9744681 L12.3514894,12.5668085 L23.1174468,9.96340426 L24.4582979,15.5225532 C24.5400215,15.8671318 24.8479907,16.1102654 25.2021277,16.1097879 L25.3782979,16.1097879 C25.5883126,16.0794031 25.7762044,15.9629761 25.8968949,15.7884391 C26.0175854,15.6139021 26.0601831,15.3970057 26.0144681,15.1897872 Z" id="Path"></path>
                                <path d="M37.1229787,15.4344681 C37.117622,15.0166787 36.7773982,14.6808504 36.3595745,14.6808504 L2.7893617,14.6808504 C2.38257235,14.6803158 2.04681811,14.9988519 2.02595745,15.4051064 L0.499148936,45.1974468 C0.488408409,45.406608 0.564071289,45.6109961 0.70841797,45.7627451 C0.852764651,45.9144942 1.05311664,46.0000007 1.26255319,46.0000007 L37.886383,46.0000007 C38.0958195,46.0000007 38.2961715,45.9144942 38.4405182,45.7627451 C38.5848649,45.6109961 38.6605278,45.406608 38.6497872,45.1974468 L37.1229787,15.4344681 Z M2.06510638,44.4731915 L3.51361702,16.2370213 L35.6353191,16.2370213 L37.0838298,44.4731915 L2.06510638,44.4731915 Z" id="Shape"></path>
                                <path d="M25.3,17.7638298 C24.0351504,17.7638298 23.0097872,18.789193 23.0097872,20.0540426 C23.0097872,21.3188921 24.0351504,22.3442553 25.3,22.3442553 C26.5648496,22.3442553 27.5902128,21.3188921 27.5902128,20.0540426 C27.5902128,19.4466404 27.3489232,18.8641158 26.919425,18.4346176 C26.4899268,18.0051194 25.9074022,17.7638298 25.3,17.7638298 L25.3,17.7638298 Z M25.3,20.8174468 C24.8783835,20.8174468 24.5365957,20.4756591 24.5365957,20.0540426 C24.5365957,19.632426 24.8783835,19.2906383 25.3,19.2906383 C25.7216165,19.2906383 26.0634043,19.632426 26.0634043,20.0540426 C26.0634043,20.25651 25.9829744,20.4506848 25.8398083,20.5938509 C25.6966423,20.7370169 25.5024674,20.8174468 25.3,20.8174468 Z" id="Shape"></path>
                                <path d="M13.8489362,17.7638298 C12.5840866,17.7638298 11.5587234,18.789193 11.5587234,20.0540426 C11.5587234,21.3188921 12.5840866,22.3442553 13.8489362,22.3442553 C15.1137858,22.3442553 16.1391489,21.3188921 16.1391489,20.0540426 C16.1391489,19.4466404 15.8978594,18.8641158 15.4683611,18.4346176 C15.0388629,18.0051194 14.4563384,17.7638298 13.8489362,17.7638298 L13.8489362,17.7638298 Z M13.8489362,20.8174468 C13.4273196,20.8174468 13.0855319,20.4756591 13.0855319,20.0540426 C13.0855319,19.632426 13.4273196,19.2906383 13.8489362,19.2906383 C14.2705527,19.2906383 14.6123404,19.632426 14.6123404,20.0540426 C14.6123404,20.25651 14.5319106,20.4506848 14.3887445,20.5938509 C14.2455784,20.7370169 14.0514036,20.8174468 13.8489362,20.8174468 L13.8489362,20.8174468 Z" id="Shape"></path>
                                <path d="M25.3,20.0540426 L25.2412766,20.0540426 C25.0388092,20.0540426 24.8446343,20.1344724 24.7014683,20.2776385 C24.5583022,20.4208046 24.4778723,20.6149794 24.4778723,20.8174468 C24.4776104,20.9182618 24.497579,21.0181046 24.5365957,21.1110638 L24.5365957,25.0259574 C24.5365958,26.7987549 23.5908196,28.4368874 22.0555319,29.3232861 C20.5202443,30.2096849 18.6286919,30.2096849 17.0934042,29.3232861 C15.5581166,28.4368874 14.6123404,26.7987549 14.6123404,25.0259574 L14.6123404,20.8174468 C14.6123404,20.3958303 14.2705527,20.0540426 13.8489362,20.0540426 C13.4273196,20.0540426 13.0855319,20.3958303 13.0855319,20.8174468 L13.0855319,25.0161702 C12.9931797,27.3927819 14.2084355,29.6294729 16.2526269,30.8452417 C18.2968183,32.0610105 20.8423307,32.0610105 22.886522,30.8452417 C24.9307134,29.6294729 26.1459692,27.3927819 26.053617,25.0161702 L26.053617,20.8174468 C26.0536514,20.399623 25.7177894,20.0593993 25.3,20.0540426 L25.3,20.0540426 Z" id="Path"></path>
                            </g>
                        </g>
                    </g>
                </g>
            </g>
        </g>
    </g>
</svg>