<?xml version="1.0" encoding="UTF-8"?>
<svg width="36px" height="46px" viewBox="0 0 36 46" version="1.1" xmlns="http://www.w3.org/2000/svg" xmlns:xlink="http://www.w3.org/1999/xlink">
    <!-- Generator: Sketch 62 (91390) - https://sketch.com -->
    <title>Tai-lieu-3</title>
    <desc>Created with Sketch.</desc>
    <defs>
        <rect id="path-1" x="0" y="0" width="46" height="46"></rect>
    </defs>
    <g id="Page-1" stroke="none" stroke-width="1" fill="none" fill-rule="evenodd">
        <g id="08.-Icon-set" transform="translate(-823.000000, -186.000000)">
            <g id="Tai-lieu-3" transform="translate(818.000000, 186.000000)">
                <mask id="mask-2" fill="white">
                    <use xlink:href="#path-1"></use>
                </mask>
                <g id="Mask"></g>
                <g mask="url(#mask-2)" fill="#141ED2" fill-rule="nonzero">
                    <g transform="translate(5.000000, 0.000000)">
                        <path d="M8.44,26 C8.9465635,26 9.43237947,26.2012316 9.79057395,26.559426 C10.1487684,26.9176205 10.35,27.4034365 10.35,27.91 C10.35,28.2468937 10.6231063,28.52 10.96,28.52 C11.2968937,28.52 11.57,28.2468937 11.57,27.91 C11.5799536,26.3896228 10.4958835,25.0819896 9,24.81 L9,24 C9,23.6631063 8.7268937,23.39 8.39,23.39 C8.0531063,23.39 7.78,23.6631063 7.78,24 L7.78,24.85 C6.28992152,25.2488413 5.31257556,26.6738211 5.47717059,28.2075475 C5.64176562,29.741274 6.8992228,30.9264213 8.44,31 C9.49486387,31 10.35,31.8551361 10.35,32.91 C10.35,33.9648639 9.49486387,34.82 8.44,34.82 C7.38513613,34.82 6.53,33.9648639 6.53,32.91 C6.53,32.5731063 6.2568937,32.3 5.92,32.3 C5.5831063,32.3 5.31,32.5731063 5.31,32.91 C5.29256598,34.3866296 6.30957353,35.6745613 7.75,36 L7.75,37 C7.75,37.345178 8.02982203,37.625 8.375,37.625 C8.72017797,37.625 9,37.345178 9,37 L9,36 C10.5895271,35.7127602 11.6994203,34.2631419 11.5620623,32.6537209 C11.4247044,31.0443 10.0852135,29.8037273 8.47,29.79 C7.51393755,29.6773902 6.7911046,28.8708723 6.78348474,27.908231 C6.77586489,26.9455897 7.48583998,26.1277303 8.44,26 L8.44,26 Z" id="Path"></path>
                        <path d="M26.57,19.44 L18.17,19.44 C17.2112964,19.4345372 16.4354628,18.6587036 16.43,17.7 L16.43,6.3 C16.4354628,5.34129643 17.2112964,4.56546283 18.17,4.56 L26.56,4.56 C27.5226065,4.56 28.3044994,5.33740922 28.31,6.3 L28.31,17.7 C28.3045372,18.6587036 27.5287036,19.4345372 26.57,19.44 L26.57,19.44 Z M18.17,6.06 C18.0374517,6.06 17.93,6.16745166 17.93,6.3 L17.93,17.7 C17.93,17.8325483 18.0374517,17.94 18.17,17.94 L26.56,17.94 C26.6925483,17.94 26.8,17.8325483 26.8,17.7 L26.8,6.3 C26.8,6.16745166 26.6925483,6.06 26.56,6.06 L18.17,6.06 Z" id="Shape"></path>
                        <path d="M27.53,25.35 L17.18,25.35 C16.7657865,25.35 16.43,25.0142135 16.43,24.6 C16.43,24.1857865 16.7657865,23.85 17.18,23.85 L27.53,23.85 C27.9442136,23.85 28.28,24.1857864 28.28,24.6 C28.28,25.0142136 27.9442136,25.35 27.53,25.35 Z" id="Path"></path>
                        <path d="M27.53,31.31 L17.18,31.31 C16.7657864,31.31 16.43,30.9742136 16.43,30.56 C16.43,30.1457864 16.7657864,29.81 17.18,29.81 L27.53,29.81 C27.9442136,29.81 28.28,30.1457864 28.28,30.56 C28.28,30.9742136 27.9442136,31.31 27.53,31.31 Z" id="Path"></path>
                        <path d="M27.53,37.23 L17.18,37.23 C16.7657864,37.23 16.43,36.8942136 16.43,36.48 C16.43,36.0657864 16.7657864,35.73 17.18,35.73 L27.53,35.73 C27.9442136,35.73 28.28,36.0657864 28.28,36.48 C28.28,36.8942136 27.9442136,37.23 27.53,37.23 Z" id="Path"></path>
                        <path d="M8.11,13 L0.93,13 C0.626858346,12.9997334 0.353684243,12.8170049 0.237713024,12.5369235 C0.121741805,12.2568421 0.185779697,11.9344868 0.4,11.72 L11.67,0.44 C11.8882968,0.221482638 12.2182344,0.15914164 12.5012119,0.282944286 C12.7841894,0.406746933 12.9623293,0.691371848 12.95,1 L12.95,12.22 C12.9492093,12.3196658 12.9288223,12.4182028 12.89,12.51 C12.72,12.91 12.68,13 8.11,13 Z M2.73,11.5 C5.97,11.5 9.9,11.5 11.45,11.5 L11.45,2.78 L2.73,11.5 Z" id="Shape"></path>
                        <path d="M31.05,43.2 L1.93,43.2 C0.963501688,43.2 0.18,42.4164983 0.18,41.45 L0.18,12 L11.92,0.219999981 L31.05,0.219999981 C31.5193738,0.219999981 31.9691006,0.408417937 32.2981654,0.74312388 C32.6272303,1.07782982 32.8080464,1.53069521 32.8002575,2 L32.8002575,41.45 C32.8002575,42.4164983 32.0164983,43.2 31.05,43.2 Z M1.68,12.58 L1.68,41.45 C1.68,41.5880712 1.79192881,41.7 1.93,41.7 L31.05,41.7 C31.1880712,41.7 31.3,41.5880712 31.3,41.45 L31.3,2 C31.3,1.86192881 31.1880712,1.75 31.05,1.75 L12.54,1.75 L1.68,12.58 Z" id="Shape"></path>
                        <path d="M34.07,45.78 L4.95,45.78 C4.48062624,45.78 4.03089941,45.5915821 3.70183458,45.2568761 C3.37276974,44.9221702 3.19195359,44.4693048 3.2,44 L3.2,43.21 L1.93,43.21 C0.963501688,43.21 0.18,42.4264983 0.18,41.46 L0.18,12 L11.94,0.219999981 L31.05,0.219999981 C31.5193738,0.219999981 31.9691006,0.408417937 32.2981654,0.74312388 C32.6272303,1.07782982 32.8080464,1.53069521 32.8,2 L32.8,2.79 L34.07,2.79 C35.0364983,2.79 35.8202575,3.57350169 35.8202575,4.54 L35.8202575,44 C35.8280464,44.4693048 35.6472303,44.9221702 35.3181654,45.2568761 C34.9891006,45.5915821 34.5393738,45.78 34.07,45.78 L34.07,45.78 Z M1.68,12.6 L1.68,41.46 C1.68,41.5980712 1.79192881,41.71 1.93,41.71 L4.7,41.71 L4.7,44 C4.7,44.1380712 4.81192881,44.25 4.95,44.25 L34.07,44.25 C34.2080712,44.25 34.32,44.1380712 34.32,44 L34.32,4.54 C34.32,4.40192881 34.2080712,4.29 34.07,4.29 L31.3,4.29 L31.3,2 C31.3,1.86192881 31.1880712,1.75 31.05,1.75 L12.56,1.75 L1.68,12.6 Z" id="Shape"></path>
                    </g>
                </g>
            </g>
        </g>
    </g>
</svg>