<?xml version="1.0" encoding="UTF-8"?>
<svg width="46px" height="33px" viewBox="0 0 46 33" version="1.1" xmlns="http://www.w3.org/2000/svg" xmlns:xlink="http://www.w3.org/1999/xlink">
    <!-- Generator: Sketch 62 (91390) - https://sketch.com -->
    <title>icon/other/travel</title>
    <desc>Created with Sketch.</desc>
    <defs>
        <rect id="path-1" x="0" y="0" width="46" height="46"></rect>
    </defs>
    <g id="Page-1" stroke="none" stroke-width="1" fill="none" fill-rule="evenodd">
        <g id="08.-Icon-set" transform="translate(-990.000000, -577.000000)">
            <g id="icon/other/travel" transform="translate(990.000000, 570.000000)">
                <g id="icon/travel">
                    <g id="travel">
                        <mask id="mask-2" fill="white">
                            <use xlink:href="#path-1"></use>
                        </mask>
                        <g id="Mask"></g>
                        <g id="plane" mask="url(#mask-2)" fill="#141ED2" fill-rule="nonzero">
                            <g transform="translate(0.000000, 7.000000)" id="Shape">
                                <path d="M5.48363262,19.6184244 C5.08762881,19.8042164 4.91291389,20.2719691 5.08939108,20.6717491 L6.89821946,24.5547511 C6.98708742,24.7480956 7.1492149,24.8986425 7.34860141,24.9729089 C7.43595884,25.0046295 7.52860308,25.0209933 7.62175085,25.0209933 C7.73831135,25.0220003 7.85336144,24.997077 7.95934845,24.9489926 L21.6258841,18.5656032 L20.3880261,31.5083557 C20.3641098,31.7631273 20.4622926,32.0136193 20.6528678,32.1838027 C21.2520343,32.6797514 21.9987268,32.9622157 22.7756293,32.9876425 C22.9898691,32.9876425 23.2028502,32.9604534 23.4105444,32.9075858 C24.5200095,32.6180725 25.3802415,31.6294478 25.9670722,29.9409562 L31.3452213,14.0157137 L41.9967912,9.04716298 C45.1320937,7.58424002 46.7478294,4.61786213 45.6627841,2.30251138 C45.047002,1.09234607 43.8675502,0.269121425 42.5194255,0.107749277 C41.0215091,-0.118322836 39.4906135,0.117315769 38.130153,0.783448013 L25.8381759,6.54727909 L12.6222739,1.37808301 C10.9579504,0.75122393 9.63978403,0.767335972 8.71535566,1.43472695 C7.93971187,2.07115259 7.498393,3.02780505 7.51727432,4.03103136 C7.52533034,4.28555128 7.6534714,4.52093815 7.86292794,4.66644999 L16.7620616,10.7839907 L11.6656214,13.1957619 L3.11969402,11.0249161 C2.76950885,10.9388174 2.40497391,11.096665 2.22748972,11.4108499 L0.0974275164,15.2452639 C-0.0130910336,15.4484267 -0.0304618122,15.6896038 0.0498466603,15.9066129 C0.129651599,16.1238737 0.299331503,16.2958193 0.515585325,16.3788971 L6.84233085,18.9918171 L5.48363262,19.6184244 Z M9.16498228,3.62923733 C9.2123114,3.28937392 9.38425711,2.97997239 9.64758826,2.76094936 C10.1060262,2.43115598 10.9420901,2.4794921 12.0593595,2.89739818 L23.8287022,7.48781951 L18.4583574,9.99601115 L9.16498228,3.62923733 Z M1.93017223,15.2374597 L3.32889882,12.753436 L11.5528372,14.7951337 C11.7300696,14.8399454 11.9171204,14.8230781 12.0837793,14.7473012 L38.813656,2.26248308 C39.8762955,1.7383382 41.0731181,1.54751124 42.246276,1.71568067 C43.0689972,1.7914576 43.8018433,2.26625929 44.2079171,2.98576267 C44.8826088,4.43307712 43.5563864,6.54727909 41.3132882,7.59229604 L32.0523889,11.9337359 L32.6153033,10.2691607 C32.7575424,9.84093275 32.5251766,9.3782151 32.0969487,9.23622773 C31.6682174,9.09424037 31.2057514,9.32660623 31.0637641,9.75483406 L24.4475053,29.4422382 C24.0535155,30.5600111 23.5631053,31.227402 23.0165546,31.3716551 C22.67795,31.4368585 22.3275131,31.3703963 22.0357341,31.1871219 L23.6436655,14.3047235 C23.6857079,13.8608871 23.3601943,13.4668973 22.9158543,13.424855 C22.472018,13.3823091 22.0780282,13.7083262 22.0357341,14.1521626 L21.7867527,16.7326067 L7.9913208,23.1638288 L6.85844289,20.7520576 L9.12495398,19.6911803 C9.41673293,19.5625357 9.60479068,19.2740295 9.60479068,18.955565 C9.60479068,18.6368486 9.41673293,18.3483424 9.12495398,18.2199495 L1.93017223,15.2374597 Z"></path>
                            </g>
                        </g>
                    </g>
                </g>
            </g>
        </g>
    </g>
</svg>