<?xml version="1.0" encoding="UTF-8"?>
<svg width="42px" height="46px" viewBox="0 0 42 46" version="1.1" xmlns="http://www.w3.org/2000/svg" xmlns:xlink="http://www.w3.org/1999/xlink">
    <!-- Generator: Sketch 62 (91390) - https://sketch.com -->
    <title>icon/other/tu-van</title>
    <desc>Created with Sketch.</desc>
    <defs>
        <rect id="path-1" x="0" y="0" width="46" height="46"></rect>
    </defs>
    <g id="Page-1" stroke="none" stroke-width="1" fill="none" fill-rule="evenodd">
        <g id="08.-Icon-set" transform="translate(-992.000000, -398.000000)">
            <g id="icon/other/tu-van" transform="translate(990.000000, 398.000000)">
                <g id="icon/tu-van">
                    <g id="Tu-van">
                        <mask id="mask-2" fill="white">
                            <use xlink:href="#path-1"></use>
                        </mask>
                        <g id="Mask"></g>
                        <g mask="url(#mask-2)" fill="#141ED2" fill-rule="nonzero" id="Shape">
                            <g transform="translate(2.000000, 0.000000)">
                                <path d="M36.74,15.74 C36.5248007,7.20428846 29.5434239,0.39670518 21.005,0.39670518 C12.4665761,0.39670518 5.4851993,7.20428846 5.27,15.74 C4.00299684,15.8365881 2.82751584,16.4367948 2.00630919,17.4064576 C1.18510254,18.3761204 0.786644011,19.6343868 0.9,20.9 L0.9,29.12 C0.9,32.97 3.59,34.37 6.15,34.37 L8.69,34.37 C9.17048773,34.37 9.56,33.9804877 9.56,33.5 L9.56,16.56 C9.56,16.0795123 9.17048773,15.69 8.69,15.69 L7,15.69 C7,7.9580135 13.2680135,1.69 21,1.69 C28.7319865,1.69 35,7.9580135 35,15.69 L33.33,15.69 C32.8495123,15.69 32.46,16.0795123 32.46,16.56 L32.46,33.46 C32.46,33.9404877 32.8495123,34.33 33.33,34.33 L35,34.33 C34.76,40.33 31.87,41.74 26.11,42 L26.11,41.41 C26.11,40.4435017 25.3264983,39.66 24.36,39.66 L18.86,39.66 C17.8935017,39.66 17.11,40.4435017 17.11,41.41 L17.11,44.25 C17.1099843,45.2126065 17.8874092,45.9944994 18.85,46 L24.37,46 C25.3364983,46 26.12,45.2164983 26.12,44.25 L26.12,43.74 C31.66,43.49 36.45,42.34 36.74,34.27 C38.0070032,34.1734119 39.1824842,33.5732052 40.0036908,32.6035424 C40.8248975,31.6338796 41.223356,30.3756132 41.11,29.11 L41.11,20.9 C41.11,17.48 39,16 36.74,15.74 Z M7.8,17.37 L7.8,32.58 L6.1,32.58 C5.14313772,32.6860831 4.189917,32.3515815 3.50916776,31.6708322 C2.82841852,30.990083 2.49391692,30.0368623 2.6,29.08 L2.6,20.87 C2.49780951,19.9140538 2.83357749,18.9631922 3.51338486,18.2833849 C4.19319222,17.6035775 5.14405376,17.2678095 6.1,17.37 L7.8,17.37 Z M24.37,42.93 L24.37,44.26 L18.85,44.26 L18.85,41.42 L24.37,41.42 L24.37,42.93 Z M39.37,29.11 C39.4721905,30.0659462 39.1364225,31.0168078 38.4566151,31.6966151 C37.7768078,32.3764225 36.8259462,32.7121905 35.87,32.61 L34.2,32.61 L34.2,17.43 L35.9,17.43 C36.8568623,17.3239169 37.810083,17.6584185 38.4908322,18.3391678 C39.1715815,19.019917 39.5060831,19.9731377 39.4,20.93 L39.37,29.11 Z"></path>
                            </g>
                        </g>
                    </g>
                </g>
            </g>
        </g>
    </g>
</svg>