<?xml version="1.0" encoding="UTF-8"?>
<svg width="36px" height="46px" viewBox="0 0 36 46" version="1.1" xmlns="http://www.w3.org/2000/svg" xmlns:xlink="http://www.w3.org/1999/xlink">
    <!-- Generator: Sketch 62 (91390) - https://sketch.com -->
    <title>icon/other/user</title>
    <desc>Created with Sketch.</desc>
    <defs>
        <rect id="path-1" x="0" y="0" width="46" height="46"></rect>
    </defs>
    <g id="Page-1" stroke="none" stroke-width="1" fill="none" fill-rule="evenodd">
        <g id="08.-Icon-set" transform="translate(-479.000000, -398.000000)">
            <g id="icon/other/user" transform="translate(474.000000, 398.000000)">
                <g id="User">
                    <g>
                        <mask id="mask-2" fill="white">
                            <use xlink:href="#path-1"></use>
                        </mask>
                        <g id="Mask"></g>
                        <g id="user-(3)" mask="url(#mask-2)" fill-rule="nonzero" stroke="#141ED2" stroke-width="1.7">
                            <g transform="translate(5.000000, 0.000000)" id="Path">
                                <path d="M34.4166667,39.0670333 L34.4166667,41.4 C34.4166667,41.8599744 34.0645065,42.2090649 33.605686,42.5281615 C32.8370875,43.0626999 31.7034614,43.4823978 30.3781482,43.8281317 C26.5469962,44.8275626 21.1636283,45.15 17.6333333,45.15 C14.1030384,45.15 8.71967049,44.8275626 4.88851848,43.8281317 C3.56320529,43.4823978 2.42957915,43.0626999 1.66098066,42.5281615 C1.20216019,42.2090649 0.85,41.8599744 0.85,41.4 L0.85,38.9175333 C0.85,37.8066354 1.15268889,36.7410962 1.69932109,35.8202384 C2.24598089,34.899334 3.03657232,34.1231839 4.01189098,33.5909779 L10.8519397,29.8600419 C11.3138942,29.6075721 11.6883791,29.2396136 11.9474077,28.8031967 C12.2063788,28.3668764 12.35,27.8620763 12.35,27.3355 L12.35,24.5049558 C11.6902746,23.6475161 10.3018126,21.6685939 9.63849088,19.0421005 C8.82374132,18.1682066 8.51666667,17.5404477 8.51666667,16.8666667 L8.51666667,13.8 C8.51666667,13.1684533 8.7993919,12.5618109 9.28333333,12.13713 L9.28333333,7.66308446 C9.25918966,7.46333296 9.02093305,5.15488896 10.6762475,3.26679596 C12.1185016,1.62231724 14.4817159,0.85 17.6333333,0.85 C20.784881,0.85 23.148071,1.62227454 24.5903191,3.26744851 C26.2456961,5.15561281 26.0074807,7.4632607 25.9833333,7.66308723 L25.9833333,12.13713 C26.4672748,12.5618109 26.75,13.1684533 26.75,13.8 L26.75,16.8666667 C26.75,17.2996858 26.6251563,17.7082765 26.4030967,18.0534375 C26.1783101,18.4028371 25.8543506,18.6869994 25.4616782,18.8670554 C24.4853743,20.8962355 23.761444,22.3176871 22.8573027,23.5947229 C22.6076886,23.9475911 22.369586,24.2544298 22.15,24.5028359 L22.15,27.4068 C22.15,27.9551235 22.3030646,28.4754053 22.577798,28.9201312 C22.8525876,29.364948 23.249412,29.7346794 23.7400003,29.9802457 L31.0638362,33.6417803 C32.0977511,34.1589059 32.9365833,34.9367411 33.5163998,35.8749599 C34.0961777,36.8131165 34.4166667,37.9111412 34.4166667,39.0670333 Z"></path>
                            </g>
                        </g>
                    </g>
                </g>
            </g>
        </g>
    </g>
</svg>