<?xml version="1.0" encoding="UTF-8"?>
<svg width="46px" height="36px" viewBox="0 0 46 36" version="1.1" xmlns="http://www.w3.org/2000/svg" xmlns:xlink="http://www.w3.org/1999/xlink">
    <!-- Generator: Sketch 62 (91390) - https://sketch.com -->
    <title>icon/other/van-chuyen</title>
    <desc>Created with Sketch.</desc>
    <defs>
        <rect id="path-1" x="0" y="0" width="46" height="46"></rect>
    </defs>
    <g id="Page-1" stroke="none" stroke-width="1" fill="none" fill-rule="evenodd">
        <g id="08.-Icon-set" transform="translate(-474.000000, -489.000000)">
            <g id="icon/other/van-chuyen" transform="translate(474.000000, 484.000000)">
                <g id="icon/van-chuyen">
                    <g id="Van-chuyen">
                        <mask id="mask-2" fill="white">
                            <use xlink:href="#path-1"></use>
                        </mask>
                        <g id="Mask"></g>
                        <g mask="url(#mask-2)" fill="#141ED2" fill-rule="nonzero">
                            <g transform="translate(0.000000, 5.000000)">
                                <path d="M33.73,28 C32.7997368,28 31.9610734,28.560377 31.6050771,29.4198281 C31.2490808,30.2792792 31.445859,31.2685502 32.1036544,31.9263456 C32.7614498,32.584141 33.7507208,32.7809192 34.6101719,32.4249229 C35.469623,32.0689266 36.03,31.2302632 36.03,30.3 C36.03,29.0297451 35.0002549,28 33.73,28 Z M33.73,31.07 C33.3047407,31.07 32.96,30.7252593 32.96,30.3 C32.96,29.8747407 33.3047407,29.53 33.73,29.53 C34.1552593,29.53 34.5,29.8747407 34.5,30.3 C34.4636979,30.6977078 34.1293578,31.0016534 33.73,31 L33.73,31.07 Z" id="Shape"></path>
                                <path d="M8.43,28 C7.49973684,28 6.66107338,28.560377 6.30507708,29.4198281 C5.94908077,30.2792792 6.14585901,31.2685502 6.8036544,31.9263456 C7.46144979,32.584141 8.4507208,32.7809192 9.31017189,32.4249229 C10.169623,32.0689266 10.73,31.2302632 10.73,30.3 C10.73,29.0297451 9.70025492,28 8.43,28 Z M8.43,31.07 C8.00474074,31.07 7.66,30.7252593 7.66,30.3 C7.66,29.8747407 8.00474074,29.53 8.43,29.53 C8.85525926,29.53 9.2,29.8747407 9.2,30.3 C9.16369786,30.6977078 8.82935779,31.0016534 8.43,31 L8.43,31.07 Z" id="Shape-2"></path>
                                <path d="M41,7.16 C40.6455586,6.29696132 39.8029747,5.73523869 38.87,5.74 L29.9,5.74 L29.9,2.67 C29.9,1.39974508 28.8702549,0.37 27.6,0.37 L2.3,0.37 C1.02974508,0.37 0,1.39974508 0,2.67 L0,24.13 C0.00421955925,24.8073814 0.308120873,25.4481372 0.83,25.88 C0.017068032,26.7728728 -0.194768892,28.0603205 0.289223832,29.1665896 C0.773216555,30.2728587 1.86252319,30.991056 3.07,31 L3.13,31 C3.51071037,33.6370497 5.77061047,35.5941182 8.435,35.5941182 C11.0993895,35.5941182 13.3592896,33.6370497 13.74,31 L28.43,31 C28.8659982,33.5788507 31.0995526,35.4664817 33.715,35.4664817 C36.3304474,35.4664817 38.5640018,33.5788507 39,31 L43.7,31 C44.9702549,31 46,29.9702549 46,28.7 L46,20.44 C45.9961545,19.7538509 45.8603538,19.0748474 45.6,18.44 L41,7.16 Z M39.58,7.74 L44.18,19 C44.250384,19.178809 44.3072112,19.3626616 44.35,19.55 L35.27,19.55 C35.0657833,19.55 34.8699308,19.4688752 34.7255278,19.3244722 C34.5811248,19.1800692 34.5,18.9842167 34.5,18.78 L34.5,7.26999953 L38.84,7.26999953 C39.1496397,7.26966005 39.4293613,7.45482781 39.55,7.74 L39.55,7.74 L39.58,7.74 Z M12.18,26.43 L30,26.43 C29.1558676,27.2534399 28.6074456,28.3327062 28.44,29.5 L13.74,29.5 C13.5725544,28.3327062 13.0241324,27.2534399 12.18,26.43 L12.18,26.43 Z M1.53,2.67 C1.53,2.24474074 1.87474074,1.9 2.3,1.9 L27.6,1.9 C28.0252593,1.9 28.37,2.24474074 28.37,2.67 L28.37,24.9 L2.3,24.9 C1.87474074,24.9 1.53,24.5552593 1.53,24.13 L1.53,2.67 Z M2,29.05 C1.55681104,28.6134552 1.42205924,27.9520326 1.6591382,27.3768967 C1.89621715,26.8017607 2.45792186,26.4274271 3.08,26.4299868 L4.68,26.4299868 C3.83953959,27.2548562 3.29471133,28.3339676 3.13,29.5 L3.07,29.5 C2.66784716,29.4974565 2.28309206,29.3356436 2,29.05 L2,29.05 Z M8.43,34.1 C6.31474941,34.1 4.6,32.3852506 4.6,30.27 C4.6,28.1547494 6.31474941,26.44 8.43,26.44 C10.5452506,26.44 12.26,28.1547494 12.26,30.27 C12.26,31.2857792 11.8564833,32.2599546 11.138219,32.978219 C10.4199546,33.6964833 9.44577916,34.1 8.43,34.1 Z M33.73,34.1 C32.1809096,34.1 30.7843526,33.1668505 30.1915414,31.7356775 C29.5987302,30.3045046 29.9264087,28.6571534 31.021781,27.561781 C32.1171534,26.4664087 33.7645046,26.1387302 35.1956775,26.7315414 C36.6268505,27.3243526 37.56,28.7209096 37.56,30.27 C37.56,31.2857792 37.1564833,32.2599546 36.438219,32.978219 C35.7199546,33.6964833 34.7457792,34.1 33.73,34.1 L33.73,34.1 Z M43.73,29.5 L39,29.5 C38.6176367,26.8609377 36.3566171,24.9022389 33.69,24.9 L29.9,24.9 L29.9,7.27 L33,7.27 L33,18.77 C33,20.0402549 34.0297451,21.07 35.3,21.07 L44.5,21.07 L44.5,22.6 L43.7,22.6 C43.4058075,22.5663093 43.1183595,22.704307 42.9606643,22.9549393 C42.8029691,23.2055716 42.8029691,23.5244284 42.9606643,23.7750607 C43.1183595,24.025693 43.4058075,24.1636907 43.7,24.13 L44.47,24.13 L44.47,25.66 L43.7,25.66 C43.4058075,25.6263093 43.1183595,25.764307 42.9606643,26.0149393 C42.8029691,26.2655716 42.8029691,26.5844284 42.9606643,26.8350607 C43.1183595,27.085693 43.4058075,27.2236907 43.7,27.19 L44.47,27.19 L44.47,28.72 C44.47,28.9242167 44.3888752,29.1200692 44.2444722,29.2644722 C44.1000692,29.4088752 43.9042167,29.49 43.7,29.49 L43.7,29.49 L43.73,29.5 Z" id="Shape-3"></path>
                                <path d="M3.83,5 L6.13,5 C6.42419252,5.03369065 6.71164054,4.895693 6.86933571,4.64506072 C7.02703087,4.39442845 7.02703087,4.07557155 6.86933571,3.82493928 C6.71164054,3.574307 6.42419252,3.43630935 6.13,3.47 L3.83,3.47 C3.44117796,3.51452753 3.14760708,3.84363664 3.14760708,4.235 C3.14760708,4.62636336 3.44117796,4.95547247 3.83,5 L3.83,5 Z" id="Shape-4"></path>
                                <path d="M9.2,5 L26.07,5 C26.3641925,5.03369065 26.6516405,4.895693 26.8093357,4.64506072 C26.9670309,4.39442845 26.9670309,4.07557155 26.8093357,3.82493928 C26.6516405,3.574307 26.3641925,3.43630935 26.07,3.47 L9.2,3.47 C8.90580748,3.43630935 8.61835946,3.574307 8.46066429,3.82493928 C8.30296913,4.07557155 8.30296913,4.39442845 8.46066429,4.64506072 C8.61835946,4.895693 8.90580748,5.03369065 9.2,5 L9.2,5 Z" id="Shape-5"></path>
                            </g>
                        </g>
                    </g>
                </g>
            </g>
        </g>
    </g>
</svg>