<?xml version="1.0" encoding="UTF-8"?>
<svg width="45px" height="40px" viewBox="0 0 45 40" version="1.1" xmlns="http://www.w3.org/2000/svg" xmlns:xlink="http://www.w3.org/1999/xlink">
    <!-- Generator: Sketch 62 (91390) - https://sketch.com -->
    <title>icon/other/VIP</title>
    <desc>Created with Sketch.</desc>
    <defs>
        <rect id="path-1" x="0" y="0" width="46" height="46"></rect>
    </defs>
    <g id="Page-1" stroke="none" stroke-width="1" fill="none" fill-rule="evenodd">
        <g id="08.-Icon-set" transform="translate(-647.000000, -573.000000)">
            <g id="icon/other/VIP" transform="translate(646.000000, 570.000000)">
                <g id="icon/VIP">
                    <g id="VIP">
                        <mask id="mask-2" fill="white">
                            <use xlink:href="#path-1"></use>
                        </mask>
                        <g id="Mask"></g>
                        <g mask="url(#mask-2)" fill="#141ED2" fill-rule="nonzero" id="Shape">
                            <g transform="translate(0.000000, 3.000000)">
                                <path d="M45.8238298,9.33702128 L38.3170213,0.332765957 C38.1747274,0.160273672 37.9631808,0.0598786728 37.7395745,0.0587234043 L9.2293617,0.0587234043 C9.00575536,0.0598786728 8.79420875,0.160273672 8.65191489,0.332765957 L1.14510638,9.33702128 C0.958759585,9.56288929 0.920116543,9.87625183 1.04600818,10.1406243 C1.17189982,10.4049967 1.43953298,10.5725134 1.73234043,10.5702362 L45.246383,10.5702362 C45.5374216,10.5687155 45.8015842,10.399766 45.9250053,10.1361887 C46.0484264,9.87261149 46.0090425,9.56152513 45.8238298,9.33702128 Z M3.32765957,9.07276596 L9.58170213,1.56595745 L37.3970213,1.56595745 L43.6510638,9.07276596 L3.32765957,9.07276596 Z"></path>
                                <path d="M24.1842553,0.528510638 C24.0661834,0.249405944 23.7924134,0.0681779198 23.4893617,0.0685101809 L9.2293617,0.0685101809 C8.96282467,0.0718571495 8.71788346,0.215756635 8.58520087,0.446945996 C8.45251828,0.678135358 8.45183512,0.962217719 8.58340426,1.19404255 L13.8391489,10.1982979 C13.9568528,10.3964711 14.158774,10.5298833 14.387234,10.5604263 L14.4851064,10.5604263 C14.6826912,10.5607107 14.872485,10.4833873 15.013617,10.3451064 L24.0178723,1.34085106 C24.2307075,1.12766263 24.296138,0.808207543 24.1842553,0.528510638 Z M14.6808511,8.60297872 L10.5408511,1.56595745 L21.6787234,1.56595745 L14.6808511,8.60297872 Z"></path>
                                <path d="M45.9217021,9.48382979 C45.7950381,9.22645221 45.5332399,9.06330256 45.246383,9.06297872 L1.73234043,9.06297872 C1.4451045,9.06297872 1.18282769,9.2262001 1.05603739,9.48393775 C0.929247096,9.7416754 0.959993323,10.0490758 1.13531915,10.2765957 L22.8923404,38.7868085 C23.0326777,38.9756498 23.2540841,39.0869623 23.4893617,39.0869623 C23.7246393,39.0869623 23.9460457,38.9756498 24.086383,38.7868085 L45.8434043,10.2765957 C46.0184517,10.0488561 46.0488165,9.74141256 45.9217021,9.48382979 Z M23.4893617,37.093617 L3.2493617,10.5702128 L43.7293617,10.5702128 L23.4893617,37.093617 Z"></path>
                                <path d="M24.2038298,38.1017021 L15.1995745,9.59148936 C15.1016816,9.27870008 14.81285,9.06504385 14.4851064,9.06297872 L1.76170213,9.06297872 C1.46917612,9.05136365 1.19639353,9.21021179 1.06212283,9.47036127 C0.927852129,9.73051075 0.956393113,10.0448807 1.13531915,10.2765957 L22.8923404,38.7868085 C23.0350349,38.9719828 23.2555857,39.0804255 23.4893617,39.0804255 C23.6090189,39.0794237 23.726617,39.0491842 23.8319149,38.9923404 C24.1546718,38.8242036 24.311167,38.4494387 24.2038298,38.1017021 Z M3.2493617,10.5702128 L13.9370213,10.5702128 L21.4829787,34.4608511 L3.2493617,10.5702128 Z"></path>
                                <path d="M38.3953191,0.440425532 C38.2606715,0.211196233 38.0152079,0.0698687536 37.7493617,0.0685106383 L23.4893617,0.0685106383 C23.1872573,0.0719861983 22.9164292,0.255547123 22.8012882,0.534870774 C22.6861471,0.814194424 22.7489516,1.13528328 22.9608511,1.3506383 L31.9651064,10.3548936 C32.105641,10.4940815 32.2958256,10.5715641 32.493617,10.5702302 L32.5914894,10.5702302 C32.8199494,10.5396705 33.0218706,10.4062583 33.1395745,10.2080851 L38.3953191,1.20382979 C38.5337397,0.968185533 38.5337397,0.676069786 38.3953191,0.440425532 Z M32.2978723,8.60297872 L25.3,1.56595745 L36.4378723,1.56595745 L32.2978723,8.60297872 Z"></path>
                                <path d="M45.9217021,9.48382979 C45.7950381,9.22645221 45.5332399,9.06330256 45.246383,9.06297872 L32.5229787,9.06297872 C32.1952351,9.06504385 31.9064035,9.27870008 31.8085106,9.59148936 L22.8042553,38.1017021 C22.7011304,38.4475324 22.8576447,38.8179305 23.177509,38.9850238 C23.4973733,39.1521171 23.8907982,39.0690007 24.1157447,38.7868085 L45.8434043,10.2765957 C46.0184517,10.0488561 46.0488165,9.74141256 45.9217021,9.48382979 Z M25.4957447,34.4608511 L33.0417021,10.5702128 L43.7293617,10.5702128 L25.4957447,34.4608511 Z"></path>
                            </g>
                        </g>
                    </g>
                </g>
            </g>
        </g>
    </g>
</svg>