<?xml version="1.0" encoding="UTF-8"?>
<svg width="46px" height="45px" viewBox="0 0 46 45" version="1.1" xmlns="http://www.w3.org/2000/svg" xmlns:xlink="http://www.w3.org/1999/xlink">
    <!-- Generator: Sketch 62 (91390) - https://sketch.com -->
    <title>icon/other/water</title>
    <desc>Created with Sketch.</desc>
    <defs>
        <rect id="path-1" x="0" y="0" width="46" height="46"></rect>
    </defs>
    <g id="Page-1" stroke="none" stroke-width="1" fill="none" fill-rule="evenodd">
        <g id="08.-Icon-set" transform="translate(-732.000000, -571.000000)">
            <g id="icon/other/water" transform="translate(732.000000, 570.000000)">
                <g id="icon/water">
                    <g id="water">
                        <mask id="mask-2" fill="white">
                            <use xlink:href="#path-1"></use>
                        </mask>
                        <g id="Mask"></g>
                        <g mask="url(#mask-2)" fill="#141ED2" fill-rule="nonzero" id="Shape">
                            <g transform="translate(0.000000, 1.000000)">
                                <path d="M4.70107427,32.5833333 C4.37688802,33.1538411 1.53333333,38.2000651 1.53333333,40.6333333 C1.53333333,42.7502767 3.24972328,44.4666667 5.36666667,44.4666667 C7.48361005,44.4666667 9.2,42.7502767 9.2,40.6333333 C9.2,38.2000651 6.35644531,33.1538411 6.03225907,32.5833333 C5.8843913,32.359847 5.63470052,32.2250814 5.36666667,32.2250814 C5.09863281,32.2250814 4.84894203,32.359847 4.70107427,32.5833333 Z M5.36666667,42.9333333 C4.09650067,42.9333333 3.06666667,41.9034993 3.06666667,40.6333333 C3.06666667,39.2778158 4.39897463,36.4252767 5.36666667,34.5722493 C6.3343587,36.4252767 7.66666667,39.2778158 7.66666667,40.6333333 C7.66666667,41.9034993 6.63683266,42.9333333 5.36666667,42.9333333 Z"></path>
                                <path d="M45.2333333,9.2 L40.6333333,9.2 C40.2099446,9.2 39.8666667,9.54327797 39.8666667,9.96666667 L39.8666667,12.2666667 L29.5634603,12.2666667 L28.4235677,8.22556964 C28.3303548,7.89501948 28.0286295,7.66666667 27.6849772,7.66666667 L25.3,7.66666667 L25.3,4.6 L30.6666667,4.6 C31.9368327,4.6 32.9666667,3.57016599 32.9666667,2.3 C32.9666667,1.02983401 31.9368327,0 30.6666667,0 L15.3333333,0 C14.0631673,0 13.0333333,1.02983401 13.0333333,2.3 C13.0333333,3.57016599 14.0631673,4.6 15.3333333,4.6 L20.7,4.6 L20.7,7.66666667 L18.3150228,7.66666667 C17.9713705,7.66666667 17.6696452,7.89501948 17.5764323,8.22556964 L16.4365397,12.2666667 L9.96666667,12.2666667 C4.46486005,12.2730306 0.0063639275,16.7315267 0,22.2333333 L0,28.3666667 C0,28.7900554 0.343277971,29.1333333 0.766666667,29.1333333 L9.96666667,29.1333333 C10.3900554,29.1333333 10.7333333,28.7900554 10.7333333,28.3666667 L10.7333333,25.3 C10.7333333,24.029834 11.7631673,23 13.0333333,23 L13.9317708,23 C14.6104655,26.4784505 17.9953288,29.1333333 22.0630045,29.1333333 L23.9369955,29.1333333 C28.0061686,29.1333333 31.3895345,26.4784505 32.0682292,23 L39.8666667,23 L39.8666667,25.3 C39.8666667,25.7233887 40.2099446,26.0666667 40.6333333,26.0666667 L45.2333333,26.0666667 C45.656722,26.0666667 46,25.7233887 46,25.3 L46,9.96666667 C46,9.54327797 45.656722,9.2 45.2333333,9.2 Z M14.5666667,2.3 C14.5666667,1.8766113 14.9099446,1.53333333 15.3333333,1.53333333 L30.6666667,1.53333333 C31.0900554,1.53333333 31.4333333,1.8766113 31.4333333,2.3 C31.4333333,2.7233887 31.0900554,3.06666667 30.6666667,3.06666667 L15.3333333,3.06666667 C14.9099446,3.06666667 14.5666667,2.7233887 14.5666667,2.3 Z M22.2333333,4.6 L23.7666667,4.6 L23.7666667,7.66666667 L22.2333333,7.66666667 L22.2333333,4.6 Z M9.2,25.3 L9.2,27.6 L1.53333333,27.6 L1.53333333,22.2333333 C1.53894859,17.5779297 5.31126302,13.8056153 9.96666667,13.8 L16.0041667,13.8 L13.8423014,21.4666667 L13.0333333,21.4666667 C10.9171387,21.4692871 9.20262047,23.1838054 9.2,25.3 Z M23.9369955,27.6 L22.0630045,27.6 C18.3913899,27.6 15.3969726,25.0184896 15.334082,21.8245443 L18.8952637,9.2 L27.1047363,9.2 L30.6666667,21.8245443 C30.6030274,25.0184896 27.60861,27.6 23.9369955,27.6 Z M32.1576986,21.4666667 L29.9958333,13.8 L39.8666667,13.8 L39.8666667,21.4666667 L32.1576986,21.4666667 Z M44.4666667,24.5333333 L41.4,24.5333333 L41.4,10.7333333 L44.4666667,10.7333333 L44.4666667,24.5333333 Z"></path>
                            </g>
                        </g>
                    </g>
                </g>
            </g>
        </g>
    </g>
</svg>