<?xml version="1.0" encoding="UTF-8"?>
<svg width="46px" height="46px" viewBox="0 0 46 46" version="1.1" xmlns="http://www.w3.org/2000/svg" xmlns:xlink="http://www.w3.org/1999/xlink">
    <!-- Generator: Sketch 62 (91390) - https://sketch.com -->
    <title>icon/other/xay-dung</title>
    <desc>Created with Sketch.</desc>
    <g id="Page-1" stroke="none" stroke-width="1" fill="none" fill-rule="evenodd">
        <g id="08.-Icon-set" transform="translate(-646.000000, -484.000000)" fill="#141ED2">
            <g id="icon/other/xay-dung" transform="translate(646.000000, 484.000000)">
                <g id="icon/xay-dung">
                    <g id="Xay-dung" fill-rule="nonzero">
                        <path d="M45.67,7.25 L38.28,0.25 C37.9970929,-0.00929697616 37.5629071,-0.00929697616 37.28,0.25 L29.89,7.25 C29.7446853,7.38820333 29.6616843,7.57946648 29.66,7.78 L29.66,19.44 C29.6603238,19.7363198 29.8373822,20.0038748 30.11,20.12 L35.57,22.43 L35.57,28.27 L34.82,28.27 C34.6237398,28.27 34.4355179,28.3479641 34.296741,28.486741 C34.1579641,28.6255179 34.08,28.8137398 34.08,29.01 L34.08,37.87 C34.08,39.9106922 35.7343078,41.565 37.775,41.565 C39.8156922,41.565 41.47,39.9106922 41.47,37.87 L41.47,29 C41.47,28.5913093 41.1386907,28.26 40.73,28.26 L40,28.26 L40,22.43 L45.46,20.12 C45.7326178,20.0038748 45.9096762,19.7363198 45.91,19.44 L45.91,7.79 C45.9084596,7.5844819 45.8215173,7.38886171 45.67,7.25 Z M40,37.87 C40.0555895,38.6968656 39.6459905,39.4858521 38.9377382,39.9161725 C38.229486,40.3464928 37.340514,40.3464928 36.6322618,39.9161725 C35.9240095,39.4858521 35.5144105,38.6968656 35.57,37.87 L35.57,29.75 L40,29.75 L40,37.88 L40,37.87 Z M38.52,28.27 L37,28.27 L37,23.06 L37.45,23.25 C37.6350369,23.3300995 37.8449631,23.3300995 38.03,23.25 L38.48,23.06 L38.48,28.27 L38.52,28.27 Z M44.43,18.95 L37.78,21.77 L31.13,18.95 L31.13,8.1 L37.78,1.76 L44.42,8.1 L44.42,18.95 L44.43,18.95 Z" id="Shape"></path>
                        <path d="M32.6,24.58 L20.78,24.58 L20.78,19.41 L26.69,19.41 C27.0986907,19.41 27.43,19.0786907 27.43,18.67 L27.43,12 C27.43,11.5913093 27.0986907,11.26 26.69,11.26 L8.23,11.26 L8.23,5.37 C8.23,5.1737398 8.15203594,4.9855179 8.01325902,4.84674098 C7.8744821,4.70796406 7.6862602,4.63 7.49,4.63 L0.84,4.63 C0.643739798,4.63 0.455517902,4.70796406 0.316740982,4.84674098 C0.177964062,4.9855179 0.1,5.1737398 0.1,5.37 L0.1,45.26 C0.1,45.6686907 0.431309285,46 0.84,46 L26,46 C26.4086907,46 26.74,45.6686907 26.74,45.26 L26.74,39.35 L32.6,39.35 C32.7962602,39.35 32.9844821,39.2720359 33.123259,39.133259 C33.2620359,38.9944821 33.34,38.8062602 33.34,38.61 L33.34,25.32 C33.34,25.1237398 33.2620359,24.9355179 33.123259,24.796741 C32.9844821,24.6579641 32.7962602,24.58 32.6,24.58 Z M31.86,31.23 L26.69,31.23 L26.69,26.05 L31.86,26.05 L31.86,31.22 L31.86,31.23 Z M25.21,31.23 L14.14,31.23 L14.14,26.05 L25.22,26.05 L25.22,31.22 L25.21,31.23 Z M19.3,37.88 L8.23,37.88 L8.23,32.7 L19.31,32.7 L19.31,37.87 L19.3,37.88 Z M1.57,37.88 L1.57,32.7 L6.75,32.7 L6.75,37.87 L1.58,37.87 L1.57,37.88 Z M12.65,31.23 L1.58,31.23 L1.58,26.05 L12.66,26.05 L12.66,31.22 L12.65,31.23 Z M6.75,24.58 L1.58,24.58 L1.58,19.41 L6.75,19.41 L6.75,24.58 Z M19.31,24.58 L8.23,24.58 L8.23,19.41 L19.31,19.41 L19.31,24.58 L19.31,24.58 Z M26,17.93 L14.14,17.93 L14.14,12.76 L26,12.76 L26,17.93 Z M12.7,17.93 L1.58,17.93 L1.58,12.76 L12.66,12.76 L12.66,17.93 L12.7,17.93 Z M1.58,6.11 L6.75,6.11 L6.75,11.28 L1.58,11.28 L1.58,6.11 Z M1.58,39.35 L12.66,39.35 L12.66,44.52 L1.58,44.52 L1.58,39.35 Z M25.22,44.52 L14.14,44.52 L14.14,39.35 L25.22,39.35 L25.22,44.52 Z M31.87,37.87 L20.78,37.87 L20.78,32.7 L31.86,32.7 L31.86,37.87 L31.87,37.87 Z" id="Shape"></path>
                    </g>
                </g>
            </g>
        </g>
    </g>
</svg>