<?xml version="1.0" encoding="iso-8859-1"?>
<!-- Generator: Adobe Illustrator 17.1.0, SVG Export Plug-In . SVG Version: 6.00 Build 0)  -->
<!DOCTYPE svg PUBLIC "-//W3C//DTD SVG 1.1//EN" "http://www.w3.org/Graphics/SVG/1.1/DTD/svg11.dtd">
<svg version="1.1" id="Capa_1" xmlns="http://www.w3.org/2000/svg" xmlns:xlink="http://www.w3.org/1999/xlink" x="0px" y="0px"
	 viewBox="0 0 470 470" style="enable-background:new 0 0 470 470;" xml:space="preserve">
<g>
	<path d="M439.311,157.783c-0.542-0.573-1.045-1.078-1.481-1.515L312.32,30.753C292.771,11.209,264.588,0,235,0
		s-57.771,11.21-77.325,30.756L30.754,157.679C11.209,177.229,0,205.412,0,235c0,29.586,11.211,57.77,30.759,77.326l126.934,126.923
		C177.244,458.792,205.422,470,235,470c29.586,0,57.769-11.21,77.325-30.756L439.247,312.32C458.791,292.769,470,264.586,470,235
		C470,205.449,458.815,177.313,439.311,157.783z M428.639,301.715L301.72,428.636C284.956,445.391,260.639,455,235,455
		c-25.631,0-49.943-9.608-66.703-26.359L41.366,301.721C24.61,284.957,15,260.639,15,235c0-25.641,9.608-49.957,26.361-66.715
		l126.92-126.921C185.042,24.609,209.36,15,235,15c25.641,0,49.957,9.608,66.714,26.359l125.509,125.516
		c0.363,0.364,0.785,0.785,1.238,1.268c0.055,0.059,0.11,0.115,0.167,0.172C445.388,185.054,455,209.359,455,235
		C455,260.639,445.392,284.956,428.639,301.715z"/>
	<path d="M158.772,147.57c3.715,0,7.269-1.155,10.278-3.343c7.807-5.672,9.543-16.637,3.871-24.442
		c-3.282-4.518-8.577-7.214-14.165-7.214c-3.714,0-7.268,1.155-10.277,3.343c-7.807,5.672-9.544,16.637-3.872,24.442
		C147.89,144.874,153.185,147.57,158.772,147.57z M157.296,128.049c0.544-0.395,1.095-0.478,1.461-0.478
		c0.386,0,1.354,0.1,2.03,1.03c0.81,1.115,0.562,2.681-0.553,3.491c-0.544,0.395-1.095,0.478-1.462,0.478
		c-0.385,0-1.354-0.1-2.03-1.03C155.933,130.425,156.181,128.859,157.296,128.049z"/>
	<path d="M144.229,169.049c5.67-7.806,3.933-18.771-3.873-24.441c-3.01-2.188-6.563-3.343-10.277-3.343
		c-5.588,0-10.883,2.696-14.165,7.214c-5.672,7.807-3.936,18.771,3.872,24.444c3.01,2.186,6.563,3.342,10.276,3.342
		C135.65,176.265,140.946,173.567,144.229,169.049z M132.094,160.233c-0.677,0.931-1.646,1.031-2.031,1.031
		c-0.533,0-1.025-0.161-1.461-0.478c-1.115-0.811-1.363-2.377-0.553-3.492c0.676-0.931,1.645-1.03,2.03-1.03
		c0.532,0,1.024,0.16,1.461,0.478C132.655,157.553,132.903,159.119,132.094,160.233z"/>
	<path d="M144.229,300.949c-3.282-4.518-8.577-7.214-14.165-7.214c-3.715,0-7.269,1.155-10.278,3.343
		c-7.807,5.672-9.543,16.637-3.871,24.442c3.282,4.518,8.577,7.215,14.166,7.215c3.713,0,7.266-1.156,10.276-3.343
		C148.162,319.722,149.899,308.757,144.229,300.949z M131.541,313.257c-0.544,0.396-1.095,0.479-1.461,0.479
		c-0.386,0-1.354-0.101-2.031-1.031c-0.81-1.115-0.562-2.681,0.553-3.491c0.544-0.395,1.095-0.478,1.462-0.478
		c0.385,0,1.354,0.1,2.029,1.029C132.903,310.881,132.655,312.447,131.541,313.257z"/>
	<path d="M169.051,325.771c-3.01-2.187-6.563-3.343-10.277-3.343c-5.588,0-10.884,2.697-14.166,7.214
		c-2.748,3.781-3.858,8.407-3.126,13.024c0.731,4.616,3.217,8.672,6.998,11.419c3.01,2.187,6.563,3.343,10.276,3.343
		c5.588,0,10.884-2.697,14.166-7.214c2.748-3.781,3.858-8.406,3.127-13.023S172.833,328.519,169.051,325.771z M160.787,341.397
		c-0.677,0.931-1.646,1.031-2.031,1.031c-0.532,0-1.023-0.161-1.46-0.478c-0.729-0.53-0.939-1.25-1-1.632s-0.083-1.131,0.446-1.859
		c0.677-0.931,1.646-1.031,2.031-1.031c0.533,0,1.024,0.161,1.461,0.478c0.729,0.529,0.938,1.249,0.999,1.631
		S161.316,340.669,160.787,341.397z"/>
	<path d="M311.227,321.357c-3.941,0-7.712,1.227-10.906,3.548c-8.284,6.019-10.127,17.655-4.108,25.938
		c3.482,4.794,9.103,7.656,15.032,7.656c3.941,0,7.712-1.227,10.906-3.548c8.284-6.019,10.127-17.655,4.108-25.938
		C322.776,324.22,317.156,321.357,311.227,321.357z M313.334,342.817c-0.776,0.563-1.565,0.683-2.09,0.683
		c-1.161,0-2.217-0.537-2.897-1.473c-1.157-1.593-0.803-3.83,0.79-4.987c0.776-0.563,1.565-0.683,2.09-0.683
		c1.161,0,2.217,0.537,2.897,1.473C315.281,339.423,314.927,341.66,313.334,342.817z"/>
	<path d="M350.215,297.078c-3.01-2.188-6.563-3.343-10.278-3.343c-5.588,0-10.883,2.696-14.166,7.215
		c-5.67,7.807-3.933,18.771,3.874,24.443c3.01,2.186,6.563,3.342,10.275,3.342c5.589,0,10.884-2.697,14.166-7.215
		C359.758,313.715,358.021,302.75,350.215,297.078z M341.951,312.704c-0.677,0.931-1.646,1.031-2.031,1.031
		c-0.532,0-1.024-0.161-1.46-0.478c-1.115-0.811-1.363-2.377-0.554-3.492c0.676-0.931,1.646-1.03,2.03-1.03
		c0.533,0,1.025,0.16,1.462,0.478C342.513,310.023,342.761,311.589,341.951,312.704z"/>
	<path d="M325.771,169.05c3.282,4.518,8.578,7.215,14.166,7.215c3.714,0,7.267-1.156,10.277-3.343
		c7.807-5.672,9.543-16.637,3.871-24.443c-3.282-4.518-8.577-7.214-14.165-7.214c-3.714,0-7.268,1.155-10.277,3.343
		C321.838,150.278,320.101,161.243,325.771,169.05z M338.46,156.742c0.544-0.395,1.095-0.478,1.461-0.478
		c0.386,0,1.354,0.1,2.03,1.03c0.811,1.115,0.563,2.682-0.552,3.491c-0.544,0.396-1.096,0.479-1.462,0.479
		c-0.386,0-1.354-0.101-2.03-1.03C337.097,159.119,337.345,157.553,338.46,156.742z"/>
	<path d="M300.949,144.228c3.01,2.188,6.563,3.343,10.278,3.343c5.588,0,10.883-2.696,14.165-7.214
		c5.672-7.806,3.935-18.771-3.872-24.442c-3.01-2.188-6.563-3.343-10.277-3.343c-5.588,0-10.883,2.696-14.165,7.214
		C291.406,127.591,293.143,138.556,300.949,144.228z M309.213,128.602c0.676-0.931,1.645-1.03,2.03-1.03
		c0.532,0,1.024,0.16,1.461,0.478c1.115,0.811,1.363,2.376,0.554,3.491c-0.676,0.931-1.646,1.03-2.03,1.03
		c-0.533,0-1.025-0.16-1.462-0.478C308.651,131.282,308.403,129.717,309.213,128.602z"/>
	<path d="M224.839,367.318c-3.837-1.567-8.213,0.271-9.781,4.104l-5.61,13.721c-1.567,3.834,0.27,8.213,4.104,9.781
		c0.93,0.38,1.891,0.56,2.836,0.56c2.956,0,5.757-1.759,6.945-4.663l5.61-13.721C230.51,373.266,228.673,368.887,224.839,367.318z"
		/>
	<path d="M374.264,229.502c0.945,0,1.906-0.18,2.836-0.56l13.719-5.609c3.834-1.568,5.671-5.947,4.104-9.781
		c-1.568-3.833-5.943-5.67-9.781-4.104l-13.719,5.609c-3.834,1.568-5.671,5.947-4.104,9.781
		C368.507,227.743,371.308,229.502,374.264,229.502z"/>
	<path d="M436.504,273.155C441.879,261.831,445,248.774,445,235c0-13.79-3.128-26.86-8.514-38.193
		c-0.027-0.073-0.048-0.147-0.078-0.221c-0.13-0.319-0.287-0.618-0.454-0.909c-10.21-20.687-28.058-35.286-48.266-37.31
		c-16.492-32.798-43.257-59.563-76.056-76.056c-2.022-20.194-16.603-38.033-37.269-48.247c-0.302-0.176-0.614-0.341-0.947-0.477
		c-0.086-0.035-0.174-0.06-0.26-0.091C261.831,28.122,248.774,25,235,25c-13.79,0-26.86,3.128-38.193,8.514
		c-0.073,0.027-0.148,0.048-0.221,0.078c-0.319,0.13-0.619,0.287-0.91,0.455c-20.687,10.21-35.285,28.058-37.309,48.266
		c-32.799,16.493-59.563,43.257-76.055,76.055c-20.197,2.022-38.037,16.605-48.25,37.275c-0.176,0.301-0.339,0.611-0.475,0.942
		c-0.035,0.085-0.059,0.172-0.091,0.258C28.122,208.167,25,221.225,25,235c0,13.79,3.128,26.86,8.514,38.193
		c0.027,0.073,0.048,0.147,0.078,0.221c0.125,0.305,0.276,0.589,0.435,0.867c10.207,20.709,28.064,35.326,48.285,37.351
		c16.502,32.82,43.251,59.557,76.056,76.052c2.021,20.195,16.602,38.035,37.267,48.249c0.303,0.177,0.615,0.342,0.949,0.479
		c0.088,0.036,0.178,0.062,0.267,0.094C208.174,441.879,221.228,445,235,445c13.788,0,26.856-3.127,38.188-8.512
		c0.075-0.028,0.151-0.049,0.226-0.08c0.32-0.131,0.62-0.288,0.912-0.456c20.685-10.21,35.283-28.058,37.307-48.265
		c32.798-16.492,59.563-43.256,76.055-76.055c20.17-2.02,37.99-16.565,48.21-37.191c0.194-0.323,0.367-0.666,0.514-1.025
		C436.448,273.33,436.472,273.242,436.504,273.155z M195.73,51.315l19.328,47.262c1.188,2.904,3.989,4.663,6.945,4.663
		c0.945,0,1.906-0.18,2.836-0.56c3.834-1.568,5.671-5.947,4.104-9.781l-19.741-48.274C217.149,41.68,225.918,40,235,40
		c9.082,0,17.851,1.68,25.799,4.625l-19.742,48.274c-1.567,3.834,0.27,8.213,4.104,9.781c0.93,0.38,1.891,0.56,2.836,0.56
		c2.955,0,5.757-1.759,6.945-4.663l19.328-47.262c12.333,7.947,20.851,19.346,22.38,31.785l-26.227,16.265
		c-2.205,1.368-3.547,3.779-3.547,6.374v15.655c-10.333-2.899-21.014-4.364-31.877-4.364c-10.864,0-21.544,1.465-31.877,4.364
		v-15.655c0-2.595-1.342-5.006-3.547-6.374L173.35,83.1C174.879,70.661,183.397,59.262,195.73,51.315z M51.315,274.27l47.262-19.328
		c3.834-1.568,5.671-5.947,4.104-9.781c-1.568-3.833-5.944-5.67-9.781-4.104l-48.274,19.741C41.68,252.851,40,244.082,40,235
		c0-9.083,1.68-17.851,4.625-25.799l48.274,19.742c0.93,0.38,1.891,0.56,2.836,0.56c2.955,0,5.757-1.759,6.945-4.663
		c1.567-3.834-0.27-8.213-4.104-9.781l-47.263-19.328c7.947-12.333,19.346-20.852,31.785-22.381l16.266,26.228
		c1.368,2.205,3.779,3.547,6.374,3.547h15.655c-2.899,10.333-4.364,21.014-4.364,31.877s1.465,21.544,4.364,31.877h-15.655
		c-2.595,0-5.006,1.342-6.374,3.547L83.1,296.65C70.661,295.121,59.262,286.604,51.315,274.27z M274.27,418.685l-19.327-47.262
		c-1.568-3.833-5.943-5.671-9.781-4.104c-3.834,1.568-5.671,5.947-4.104,9.781l19.741,48.274C252.851,428.32,244.082,430,235,430
		c-9.082,0-17.851-1.68-25.799-4.625l2.776-6.787c1.567-3.834-0.27-8.213-4.104-9.781c-3.834-1.565-8.212,0.271-9.781,4.104
		l-2.362,5.775c-12.333-7.947-20.851-19.347-22.38-31.786l26.227-16.265c2.205-1.368,3.547-3.779,3.547-6.374v-15.655
		c10.333,2.899,21.014,4.364,31.877,4.364s21.544-1.465,31.877-4.364v15.655c0,2.595,1.342,5.006,3.547,6.374l26.227,16.265
		C295.121,399.338,286.603,410.738,274.27,418.685z M304.829,374.321l-22.952-14.234v-21.851c0-2.468-1.214-4.777-3.246-6.177
		c-2.031-1.399-4.621-1.711-6.929-0.83c-11.718,4.473-24.066,6.74-36.702,6.74s-24.984-2.268-36.702-6.74
		c-2.307-0.881-4.897-0.569-6.929,0.83c-2.032,1.399-3.246,3.709-3.246,6.177v21.851l-22.949,14.232
		c-29.985-15.058-54.431-39.493-69.496-69.49l14.235-22.952h21.851c2.468,0,4.777-1.214,6.177-3.246s1.71-4.623,0.83-6.929
		c-4.473-11.718-6.74-24.066-6.74-36.702s2.268-24.984,6.74-36.702c0.88-2.306,0.569-4.896-0.83-6.929s-3.709-3.246-6.177-3.246
		h-21.851l-14.234-22.952c15.056-29.977,39.515-54.436,69.493-69.493l22.952,14.234v21.852c0,2.468,1.214,4.777,3.246,6.177
		c1.27,0.874,2.756,1.323,4.255,1.323c0.901,0,1.808-0.163,2.674-0.493c11.717-4.474,24.065-6.741,36.702-6.741
		c12.636,0,24.984,2.268,36.702,6.74c2.308,0.882,4.897,0.57,6.929-0.83c2.032-1.399,3.246-3.709,3.246-6.177v-21.851l22.952-14.234
		c29.978,15.056,54.436,39.516,69.493,69.493l-14.235,22.952h-21.851c-2.468,0-4.777,1.214-6.177,3.246s-1.71,4.623-0.83,6.929
		c4.473,11.718,6.74,24.066,6.74,36.702s-2.268,24.984-6.74,36.702c-0.88,2.306-0.569,4.896,0.83,6.929s3.709,3.246,6.177,3.246
		h21.851l14.234,22.952C359.265,334.806,334.806,359.265,304.829,374.321z M386.9,296.65l-16.266-26.227
		c-1.368-2.205-3.779-3.547-6.374-3.547h-15.655c2.899-10.333,4.364-21.014,4.364-31.877s-1.465-21.544-4.364-31.877h15.655
		c2.595,0,5.006-1.342,6.374-3.547L386.9,173.35c12.439,1.529,23.838,10.047,31.785,22.381l-5.777,2.362
		c-3.834,1.568-5.671,5.947-4.104,9.781c1.188,2.904,3.989,4.663,6.945,4.663c0.945,0,1.907-0.18,2.836-0.56l6.789-2.776
		C428.32,217.149,430,225.918,430,235s-1.68,17.851-4.625,25.799L377.1,241.058c-3.835-1.565-8.212,0.271-9.781,4.104
		c-1.567,3.834,0.27,8.213,4.104,9.781l47.263,19.328C410.738,286.604,399.339,295.121,386.9,296.65z"/>
	<path d="M280.5,258.304v-44.607c0-11.441-9.309-20.75-20.75-20.75S239,202.255,239,213.696v44.607
		c0,11.441,9.309,20.75,20.75,20.75S280.5,269.745,280.5,258.304z M254,258.304v-44.607c0-3.171,2.579-5.75,5.75-5.75
		s5.75,2.579,5.75,5.75v44.607c0,3.171-2.579,5.75-5.75,5.75S254,261.475,254,258.304z"/>
	<path d="M210.25,264.054c-3.171,0-5.75-2.579-5.75-5.75c0-4.143-3.357-7.5-7.5-7.5s-7.5,3.357-7.5,7.5
		c0,11.441,9.309,20.75,20.75,20.75s20.75-9.309,20.75-20.75v-21.318c0-11.441-9.309-20.75-20.75-20.75
		c-1.994,0-3.923,0.282-5.75,0.811v-9.1h12.375c4.143,0,7.5-3.357,7.5-7.5s-3.357-7.5-7.5-7.5H197c-4.143,0-7.5,3.357-7.5,7.5
		v36.539c0,4.143,3.357,7.5,7.5,7.5s7.5-3.357,7.5-7.5c0-3.171,2.579-5.75,5.75-5.75s5.75,2.579,5.75,5.75v21.318
		C216,261.475,213.421,264.054,210.25,264.054z"/>
	<path d="M322.97,235c0-48.507-39.463-87.97-87.97-87.97c-17.74,0-34.858,5.287-49.503,15.29c-3.42,2.337-4.299,7.003-1.963,10.424
		c2.337,3.419,7.002,4.299,10.424,1.963c12.141-8.293,26.333-12.677,41.042-12.677c40.235,0,72.97,32.734,72.97,72.97
		s-32.734,72.97-72.97,72.97s-72.97-32.734-72.97-72.97c0-14.709,4.384-28.901,12.678-41.042c2.336-3.42,1.457-8.087-1.963-10.424
		c-3.42-2.336-8.086-1.457-10.424,1.963C152.318,200.141,147.03,217.259,147.03,235c0,48.507,39.463,87.97,87.97,87.97
		S322.97,283.507,322.97,235z"/>
</g>
<g>
</g>
<g>
</g>
<g>
</g>
<g>
</g>
<g>
</g>
<g>
</g>
<g>
</g>
<g>
</g>
<g>
</g>
<g>
</g>
<g>
</g>
<g>
</g>
<g>
</g>
<g>
</g>
<g>
</g>
</svg>
