<?xml version="1.0" encoding="iso-8859-1"?>
<!-- Generator: Adobe Illustrator 19.0.0, SVG Export Plug-In . SVG Version: 6.00 Build 0)  -->
<svg version="1.1" id="Capa_1" 
	xmlns="http://www.w3.org/2000/svg" 
	xmlns:xlink="http://www.w3.org/1999/xlink" x="0px" y="0px" viewBox="0 0 512 512" style="enable-background:new 0 0 512 512;" xml:space="preserve">
	<path style="fill:#009688;" d="M480,80H32C14.368,80,0,94.368,0,112v288c0,17.664,14.368,32,32,32h448c17.664,0,32-14.336,32-32V112
	C512,94.368,497.664,80,480,80z"/>
	<g>
		<path style="fill:#4DB6AC;" d="M144,144H80c-8.832,0-16,7.168-16,16s7.168,16,16,16h64c8.832,0,16-7.168,16-16S152.832,144,144,144
		z"/>
		<path style="fill:#4DB6AC;" d="M432,336h-64c-8.832,0-16,7.168-16,16s7.168,16,16,16h64c8.832,0,16-7.168,16-16
		S440.832,336,432,336z"/>
	</g>
	<path style="fill:#FAFAFA;" d="M297.92,332.704c-24.064,9.92-47.84-3.872-61.696-28.704H256c8.832,0,16-7.168,16-16s-7.168-16-16-16
	h-30.56c-0.8-5.184-1.44-10.496-1.44-16s0.608-10.816,1.408-16H272c8.832,0,16-7.168,16-16s-7.168-16-16-16h-35.776
	c13.856-24.832,37.632-38.624,61.696-28.704c8.128,3.296,17.504-0.544,20.896-8.736c3.328-8.16-0.576-17.504-8.704-20.864
	C300.896,145.92,291.424,144,281.92,144c-35.744,0-66.4,26.304-80.896,64H176c-8.832,0-16,7.168-16,16s7.168,16,16,16h17.312
	c-0.64,5.28-1.312,10.528-1.312,16s0.672,10.72,1.312,16H176c-8.832,0-16,7.168-16,16s7.168,16,16,16h25.024
	c14.496,37.696,45.152,64,80.896,64c9.536,0,19.008-1.92,28.192-5.696c8.16-3.36,12.064-12.704,8.704-20.864
	C315.424,333.248,306.08,329.408,297.92,332.704z"/>
	<g>
	</g>
	<g>
	</g>
	<g>
	</g>
	<g>
	</g>
	<g>
	</g>
	<g>
	</g>
	<g>
	</g>
	<g>
	</g>
	<g>
	</g>
	<g>
	</g>
	<g>
	</g>
	<g>
	</g>
	<g>
	</g>
	<g>
	</g>
	<g>
	</g>
</svg>
