<svg id="Flat" height="512" viewBox="0 0 512 512" width="512" 
    xmlns="http://www.w3.org/2000/svg">
    <circle cx="256" cy="256" fill="#ffd754" r="232"/>
    <circle cx="256" cy="256" fill="#edb90c" r="184"/>
    <path d="m328 208a48.054 48.054 0 0 0 -48-48h-72a8 8 0 0 0 -8 8v176a8 8 0 0 0 16 0v-88h51.056l45.789 91.578a8 8 0 1 0 14.31-7.156l-42.332-84.664a48.067 48.067 0 0 0 43.177-47.758zm-48 32h-64v-64h64a32 32 0 0 1 0 64z" fill="#fbe36a"/>
    <g fill="#fbefb2">
        <path d="m74.782 232a8 8 0 0 1 -7.889-9.383 192.259 192.259 0 0 1 155.725-155.724 8 8 0 1 1 2.764 15.759 176.214 176.214 0 0 0 -142.729 142.73 8 8 0 0 1 -7.871 6.618z"/>
        <path d="m287.991 445.229a8 8 0 0 1 -1.373-15.881 176.214 176.214 0 0 0 142.729-142.73 8 8 0 1 1 15.76 2.764 192.259 192.259 0 0 1 -155.725 155.725 8.048 8.048 0 0 1 -1.391.122z"/>
        <circle cx="72" cy="256" r="8"/>
        <circle cx="256" cy="72" r="8"/>
        <circle cx="440" cy="256" r="8"/>
        <circle cx="256" cy="440" r="8"/>
    </g>
</svg>