<?xml version="1.0" encoding="UTF-8"?>
<svg width="46px" height="46px" viewBox="0 0 46 46" version="1.1" xmlns="http://www.w3.org/2000/svg" xmlns:xlink="http://www.w3.org/1999/xlink">
    <!-- Generator: Sketch 62 (91390) - https://sketch.com -->
    <title>icon/bank/atm</title>
    <desc>Created with Sketch.</desc>
    <g id="Page-1" stroke="none" stroke-width="1" fill="none" fill-rule="evenodd">
        <g id="08.-Icon-set" transform="translate(-732.000000, -272.000000)" fill="#141ED2">
            <g id="icon/bank/atm" transform="translate(732.000000, 272.000000)">
                <g id="icon/atm">
                    <g id="ATM-1" fill-rule="nonzero">
                        <path d="M42.29,0 L3.71,0 C1.6633038,0.00549451611 0.00549451611,1.6633038 0,3.71 L0,36.36 C0.00549451611,38.4066962 1.6633038,40.0645055 3.71,40.07 L7.43,40.07 L7.43,46 L22.27,46 L22.27,40.07 L42.27,40.07 C43.2566064,40.0726557 44.2038586,39.683273 44.9033701,38.9875122 C45.6028816,38.2917515 45.9973514,37.3466064 46,36.36 L46,3.71 C45.9945055,1.6633038 44.3366962,0.00549451611 42.29,0 Z M20.77,44.51 L8.9,44.51 L8.9,33.39 L20.77,33.39 L20.77,44.51 L20.77,44.51 Z M7.42,31.9 L7.42,34.9 L5.93,34.9 L5.93,30.42 L23.73,30.42 L23.73,34.88 L22.25,34.88 L22.25,31.88 L7.42,31.88 L7.42,31.9 Z M44.52,36.36 C44.52,37.591595 43.521595,38.59 42.29,38.59 L22.29,38.59 L22.29,36.36 L25.29,36.36 L25.29,28.94 L4.46,28.94 L4.46,36.36 L7.46,36.36 L7.46,38.59 L3.71,38.59 C2.47840501,38.59 1.48,37.591595 1.48,36.36 L1.48,3.71 C1.48550538,2.48231205 2.4822997,1.49 3.71,1.49 L42.29,1.49 C43.521595,1.49 44.52,2.48840501 44.52,3.72 L44.52,36.36 Z" id="Shape"></path>
                        <path d="M4.46,4.46 L4.46,26.71 L25.23,26.71 L25.23,4.46 L4.46,4.46 Z M23.73,25.22 L5.93,25.22 L5.93,5.93 L23.73,5.93 L23.73,25.22 Z" id="Shape"></path>
                        <path d="M26.71,7.42 L26.71,11.88 L31.17,11.88 L31.17,7.42 L26.71,7.42 Z M29.71,10.42 L28.2,10.42 L28.2,8.9 L29.69,8.9 L29.69,10.39 L29.71,10.42 Z" id="Shape"></path>
                        <path d="M32.64,7.42 L32.64,11.88 L37.1,11.88 L37.1,7.42 L32.64,7.42 Z M35.64,10.42 L34.13,10.42 L34.13,8.9 L35.62,8.9 L35.62,10.39 L35.64,10.42 Z" id="Shape"></path>
                        <path d="M38.58,7.42 L38.58,11.88 L43,11.88 L43,7.42 L38.58,7.42 Z M41.58,10.42 L40.07,10.42 L40.07,8.9 L41.56,8.9 L41.56,10.39 L41.58,10.42 Z" id="Shape"></path>
                        <path d="M26.71,13.35 L26.71,17.8 L31.17,17.8 L31.17,13.35 L26.71,13.35 Z M29.71,16.35 L28.2,16.35 L28.2,14.84 L29.69,14.84 L29.69,16.33 L29.71,16.35 Z" id="Shape"></path>
                        <path d="M32.64,13.35 L32.64,17.8 L37.1,17.8 L37.1,13.35 L32.64,13.35 Z M35.64,16.35 L34.13,16.35 L34.13,14.84 L35.62,14.84 L35.62,16.33 L35.64,16.35 Z" id="Shape"></path>
                        <path d="M38.58,13.35 L38.58,17.8 L43,17.8 L43,13.35 L38.58,13.35 Z M41.58,16.35 L40.07,16.35 L40.07,14.84 L41.56,14.84 L41.56,16.33 L41.58,16.35 Z" id="Shape"></path>
                        <path d="M26.71,19.29 L26.71,23.75 L31.17,23.75 L31.17,19.29 L26.71,19.29 Z M29.71,22.29 L28.2,22.29 L28.2,20.77 L29.69,20.77 L29.69,22.26 L29.71,22.29 Z" id="Shape"></path>
                        <path d="M32.64,19.29 L32.64,23.75 L37.1,23.75 L37.1,19.29 L32.64,19.29 Z M35.64,22.29 L34.13,22.29 L34.13,20.77 L35.62,20.77 L35.62,22.26 L35.64,22.29 Z" id="Shape"></path>
                        <path d="M38.58,19.29 L38.58,23.75 L43,23.75 L43,19.29 L38.58,19.29 Z M41.58,22.29 L40.07,22.29 L40.07,20.77 L41.56,20.77 L41.56,22.26 L41.58,22.29 Z" id="Shape"></path>
                        <rect id="Rectangle" x="26.71" y="4.46" width="16.33" height="1.49"></rect>
                    </g>
                </g>
            </g>
        </g>
    </g>
</svg>