<?xml version="1.0" encoding="UTF-8"?>
<svg width="46px" height="46px" viewBox="0 0 46 46" version="1.1" xmlns="http://www.w3.org/2000/svg" xmlns:xlink="http://www.w3.org/1999/xlink">
    <!-- Generator: Sketch 62 (91390) - https://sketch.com -->
    <title>icon/bank/bank</title>
    <desc>Created with Sketch.</desc>
    <g id="Page-1" stroke="none" stroke-width="1" fill="none" fill-rule="evenodd">
        <g id="08.-Icon-set" transform="translate(-474.000000, -100.000000)" fill="#141ED2">
            <g id="icon/bank/bank" transform="translate(474.000000, 100.000000)">
                <g id="icon">
                    <g id="Ngan-hang" fill-rule="nonzero">
                        <path d="M44.51,44.51 L44.51,41.51 L43,41.51 L43,37.11 L41.54,37.11 L41.54,19.33 L43,19.33 L43,14.89 L44.49,14.89 L44.49,10 L23,0 L1.49,10 L1.49,14.92 L3,14.92 L3,19.37 L4.46,19.37 L4.46,37.11 L3,37.11 L3,41.56 L1.49,41.56 L1.49,44.56 L0,44.56 L0,46 L46,46 L46,44.51 L44.51,44.51 Z M3,13.4 L3,10.92 L23,1.63 L43,10.91 L43,13.4 L3,13.4 Z M26.71,37.11 L26.71,19.33 L28.2,19.33 L28.2,14.89 L32.66,14.89 L32.66,19.34 L34.15,19.34 L34.15,37.11 L32.65,37.11 L32.65,41.56 L28.2,41.56 L28.2,37.11 L26.71,37.11 Z M11.87,37.11 L11.87,19.33 L13.36,19.33 L13.36,14.89 L17.82,14.89 L17.82,19.34 L19.3,19.34 L19.3,37.11 L17.8,37.11 L17.8,41.56 L13.35,41.56 L13.35,37.11 L11.87,37.11 L11.87,37.11 Z M4.46,17.86 L4.46,14.86 L11.88,14.86 L11.88,17.86 L4.46,17.86 Z M10.39,19.34 L10.39,37.11 L5.93,37.11 L5.93,19.33 L10.39,19.33 L10.39,19.34 Z M19.29,38.6 L26.72,38.6 L26.72,41.6 L19.29,41.6 L19.29,38.6 Z M20.78,37.11 L20.78,19.33 L25.24,19.33 L25.24,37.11 L20.77,37.11 L20.78,37.11 Z M19.29,17.86 L19.29,14.86 L26.72,14.86 L26.72,17.86 L19.29,17.86 Z M34.13,38.59 L41.55,38.59 L41.55,41.59 L34.13,41.59 L34.13,38.59 Z M35.62,37.1 L35.62,19.33 L40.08,19.33 L40.08,37.11 L35.61,37.11 L35.62,37.1 Z M34.13,17.86 L34.13,14.86 L41.55,14.86 L41.55,17.86 L34.13,17.86 Z M4.46,38.59 L11.88,38.59 L11.88,41.59 L4.46,41.59 L4.46,38.59 Z M43,44.51 L3,44.51 L3,43 L43,43 L43,44.49 L43,44.51 Z" id="Shape"></path>
                        <path d="M23,4.52 C20.9578573,4.52551932 19.3063289,6.18450178 19.3099999,8.22664865 C19.3136831,10.2687955 20.971175,11.9218198 23.0133243,11.9199865 C25.0554737,11.9181502 26.71,10.2621502 26.71,8.22 C26.7044877,6.17492991 25.0450775,4.52 23,4.52 L23,4.52 Z M23,10.4500226 C21.7752448,10.444483 20.7863361,9.4481255 20.7899998,8.22336335 C20.7936838,6.9986012 21.788552,6.00819429 23.0133183,6.01002247 C24.2380846,6.01185571 25.23,7.00523234 25.23,8.23 C25.23,8.82051732 24.9947416,9.38670378 24.5762455,9.80332319 C24.1577494,10.2199426 23.5905113,10.45266 23,10.4500226 L23,10.4500226 Z" id="Shape"></path>
                    </g>
                </g>
            </g>
        </g>
    </g>
</svg>