<?xml version="1.0" encoding="UTF-8"?>
<svg width="46px" height="44px" viewBox="0 0 46 44" version="1.1" xmlns="http://www.w3.org/2000/svg" xmlns:xlink="http://www.w3.org/1999/xlink">
    <!-- Generator: Sketch 62 (91390) - https://sketch.com -->
    <title>icon/bank/Giay-to</title>
    <desc>Created with Sketch.</desc>
    <defs>
        <rect id="path-1" x="0" y="0" width="46" height="46"></rect>
    </defs>
    <g id="Page-1" stroke="none" stroke-width="1" fill="none" fill-rule="evenodd">
        <g id="08.-Icon-set" transform="translate(-646.000000, -187.000000)">
            <g id="icon/bank/Giay-to" transform="translate(646.000000, 186.000000)">
                <g id="Giay-to">
                    <mask id="mask-2" fill="white">
                        <use xlink:href="#path-1"></use>
                    </mask>
                    <g id="Mask"></g>
                    <g mask="url(#mask-2)" fill="#141ED2" fill-rule="nonzero">
                        <g transform="translate(0.000000, 1.000000)">
                            <path d="M35.25,6.63 L35.41,6.63 C36.2970782,6.67253318 36.9957011,7.40191307 37,8.29 C37.0438936,8.66822679 37.3642348,8.95354192 37.745,8.95354192 C38.1257652,8.95354192 38.4461064,8.66822679 38.49,8.29 C38.4872023,6.80903866 37.4562689,5.52868581 36.01,5.21 L36.01,4.49 C35.9661064,4.11177321 35.6457652,3.82645808 35.265,3.82645808 C34.8842348,3.82645808 34.5638936,4.11177321 34.52,4.49 L34.52,5.24 C33.0101918,5.66786753 32.0431133,7.13888397 32.2488695,8.69460114 C32.4546256,10.2503183 33.7708713,11.4193467 35.34,11.44 C36.0163472,11.4359499 36.6283522,11.8402545 36.8899902,12.4639592 C37.1516283,13.0876638 37.0112291,13.8075946 36.5344091,14.2872869 C36.0575892,14.7669793 35.3385147,14.9116998 34.7132499,14.6538124 C34.0879851,14.3959251 33.6800121,13.7863593 33.68,13.11 C33.7132803,12.8232276 33.5790056,12.5428104 33.3347297,12.3889427 C33.0904538,12.235075 32.7795462,12.235075 32.5352703,12.3889427 C32.2909944,12.5428104 32.1567197,12.8232276 32.19,13.11 C32.2131489,14.5201334 33.1679364,15.74422 34.53,16.11 L34.53,17 C34.5738936,17.3782268 34.8942348,17.6635419 35.275,17.6635419 C35.6557652,17.6635419 35.9761064,17.3782268 36.02,17 L36.02,16.19 C37.4934285,15.76877 38.4522524,14.3510643 38.2946478,12.8267327 C38.1370433,11.302401 36.9084425,10.1108588 35.38,10 C34.7869391,10.0232223 34.2265393,9.72828631 33.9098978,9.22629165 C33.5932563,8.724297 33.5684785,8.09150857 33.8448978,7.56629165 C34.1213172,7.04107473 34.6569391,6.70322226 35.25,6.68 L35.25,6.68 L35.25,6.63 Z" id="Path"></path>
                            <path d="M35.42,0.1 C30.951202,0.11378036 26.9625366,2.90584616 25.42,7.1 L7,7.1 C6.58097692,7.11612809 6.24968973,7.46066677 6.25,7.88 L6,34 L0.76,34 C0.564672304,33.9918971 0.374256185,34.0624786 0.231400552,34.1959358 C0.0885449176,34.329393 0.00518804893,34.5145732 0,34.71 L0,38.03 C0.00759443247,41.1542529 2.46882464,43.7211531 5.59,43.8600343 L5.59,43.8600343 L28.59,43.8600343 L28.59,43.8600343 L28.97,43.8600343 L28.97,43.8600343 C30.5267133,43.8653244 32.0213483,43.249964 33.1230553,42.1501339 C34.2247623,41.0503037 34.8426702,39.5567201 34.84,38 L34.84,21.27 L35.42,21.27 C41.139304,21.0941878 45.6846156,16.4070057 45.6846156,10.685 C45.6846156,4.96299434 41.139304,0.27581221 35.42,0.1 Z M5.87,42.41 L5.87,42.41 C4.70313521,42.41 3.58449444,41.9444485 2.76221726,41.1165393 C1.93994007,40.2886301 1.48200778,39.1668374 1.48989711,38 L1.48989711,35.51 L23.1,35.51 L23.1,38 C23.1034817,39.5550877 23.7259919,41.0447941 24.83,42.14 C24.91,42.22 25.01,42.28 25.09,42.37 L5.87,42.37 L5.87,42.41 Z M33.35,38 C33.3633438,39.1632512 32.9112594,40.2835965 32.0943159,41.1118082 C31.2773724,41.9400199 30.1633248,42.4074083 29,42.4100114 L29,42.4100114 C27.8295809,42.4126631 26.7063322,41.9488946 25.8787188,41.1212812 C25.0511054,40.2936678 24.5873369,39.1704191 24.59,38 L24.59,34.7 C24.5928082,34.5117534 24.518574,34.330534 24.384508,34.1983562 C24.2504419,34.0661785 24.0681878,33.994522 23.88,34 L7.53,34 L7.7,8.59 L25,8.59 C24.8692787,9.2723039 24.8023234,9.9652905 24.8,10.66 C24.7993511,12.1272551 25.1059289,13.57839 25.7,14.92 L18.7,14.92 C18.4132276,14.8867197 18.1328104,15.0209944 17.9789427,15.2652703 C17.825075,15.5095462 17.825075,15.8204538 17.9789427,16.0647297 C18.1328104,16.3090056 18.4132276,16.4432803 18.7,16.41 L26.55,16.41 C28.0863665,18.8275054 30.5420821,20.5140042 33.35,21.08 L33.35,38 L33.35,38 Z M35.42,19.75 C30.3997316,19.75 26.33,15.6802684 26.33,10.66 C26.33,5.63973162 30.3997316,1.57 35.42,1.57 C40.4402684,1.57 44.5100881,5.63973162 44.5100881,10.66 C44.5206392,13.077741 43.5676444,15.4001074 41.8617842,17.1134741 C40.155924,18.8268408 37.8377644,19.79 35.42,19.79 L35.42,19.75 Z" id="Shape"></path>
                            <path d="M13.91,19.89 C12.6455648,19.9338165 11.6516444,20.9866294 11.6806057,22.251492 C11.709567,23.5163546 12.7506327,24.5225729 14.0157482,24.5084708 C15.2808637,24.4943686 16.299241,23.4651939 16.3,22.2 C16.2894812,21.576712 16.0317465,20.9831417 15.5835147,20.5499134 C15.1352828,20.1166851 14.5332849,19.8793006 13.91,19.89 L13.91,19.89 Z M13.91,23.02 C13.4701382,22.9768759 13.1435918,22.5929056 13.1716652,22.1518274 C13.1997385,21.7107493 13.5723299,21.3712771 14.0141097,21.3842669 C14.4558894,21.3972567 14.8078911,21.7580344 14.81,22.2 C14.7778841,22.6672457 14.3777886,23.0228861 13.91,23 L13.91,23.02 Z" id="Shape"></path>
                            <path d="M18,22.19 C18,22.6042136 18.3357864,22.94 18.75,22.94 L28.69,22.94 C28.9767724,22.9732803 29.2571896,22.8390056 29.4110573,22.5947297 C29.564925,22.3504538 29.564925,22.0395462 29.4110573,21.7952703 C29.2571896,21.5509944 28.9767724,21.4167197 28.69,21.45 L18.7,21.45 C18.3092544,21.4760835 18.0043519,21.798409 18,22.19 Z" id="Path"></path>
                            <path d="M13.91,13.41 C12.6455648,13.4538165 11.6516444,14.5066294 11.6806057,15.771492 C11.709567,17.0363546 12.7506327,18.0425729 14.0157482,18.0284708 C15.2808637,18.0143686 16.299241,16.9851939 16.3,15.72 C16.2894812,15.096712 16.0317465,14.5031417 15.5835147,14.0699134 C15.1352828,13.6366851 14.5332849,13.3993006 13.91,13.41 L13.91,13.41 Z M13.91,16.54 C13.4701382,16.4968759 13.1435918,16.1129056 13.1716652,15.6718274 C13.1997385,15.2307493 13.5723299,14.8912771 14.0141097,14.9042669 C14.4558894,14.9172567 14.8078911,15.2780344 14.81,15.72 C14.7996346,15.9481732 14.6989262,16.1628504 14.5300874,16.3166813 C14.3612486,16.4705122 14.1381503,16.550859 13.91,16.54 L13.91,16.54 L13.91,16.54 Z" id="Shape"></path>
                            <path d="M13.91,26.36 C12.6455648,26.4038165 11.6516444,27.4566294 11.6806057,28.721492 C11.709567,29.9863546 12.7506327,30.9925729 14.0157482,30.9784708 C15.2808637,30.9643686 16.299241,29.9351939 16.3,28.67 C16.2894812,28.046712 16.0317465,27.4531417 15.5835147,27.0199134 C15.1352828,26.5866851 14.5332849,26.3493006 13.91,26.36 L13.91,26.36 Z M13.91,29.49 C13.4701382,29.4468759 13.1435918,29.0629056 13.1716652,28.6218274 C13.1997385,28.1807493 13.5723299,27.8412771 14.0141097,27.8542669 C14.4558894,27.8672567 14.8078911,28.2280344 14.81,28.67 C14.7996346,28.8981732 14.6989262,29.1128504 14.5300874,29.2666813 C14.3612486,29.4205122 14.1381503,29.500859 13.91,29.49 L13.91,29.49 Z" id="Shape"></path>
                            <path d="M28.63,28 L18.7,28 C18.4132276,27.9667197 18.1328104,28.1009944 17.9789427,28.3452703 C17.825075,28.5895462 17.825075,28.9004538 17.9789427,29.1447297 C18.1328104,29.3890056 18.4132276,29.5232803 18.7,29.49 L28.64,29.49 C28.9269605,29.5212954 29.2064142,29.3851243 29.3586047,29.1398412 C29.5107951,28.8945581 29.5087088,28.5837003 29.3532398,28.340482 C29.1977709,28.0972638 28.9165146,27.9648558 28.63,28 Z" id="Path"></path>
                        </g>
                    </g>
                </g>
            </g>
        </g>
    </g>
</svg>