<?xml version="1.0" encoding="UTF-8"?>
<svg width="46px" height="46px" viewBox="0 0 46 46" version="1.1" xmlns="http://www.w3.org/2000/svg" xmlns:xlink="http://www.w3.org/1999/xlink">
    <!-- Generator: Sketch 62 (91390) - https://sketch.com -->
    <title>icon/bank/lai-suat</title>
    <desc>Created with Sketch.</desc>
    <g id="Page-1" stroke="none" stroke-width="1" fill="none" fill-rule="evenodd">
        <g id="08.-Icon-set" transform="translate(-560.000000, -186.000000)" fill="#141ED2">
            <g id="icon/bank/lai-suat" transform="translate(560.000000, 186.000000)">
                <g id="icon/lai-suat">
                    <g id="Lai-suat" fill-rule="nonzero">
                        <path d="M45.23,34.3 L44.17,34.3 L44.5,33.64 C44.9788428,32.6802492 45.2287148,31.6225719 45.23,30.55 L45.23,23.09 C45.2296068,22.3028034 45.0943154,21.5214958 44.83,20.78 L38.35,2.5 C38.0588286,1.44249383 37.2256022,0.620655955 36.1641893,0.344064748 C35.1027764,0.067473541 33.9744307,0.378149791 33.2041893,1.15906476 C32.4339478,1.93997972 32.1388285,3.07249385 32.43,4.13 L32.43,4.13 L35.43,13.13 C34.0867715,13.1757018 32.9305968,14.0925281 32.58,15.39 L30.17,24.39 C29.4752497,26.870861 29.7729096,29.5246968 31,31.79 L32.39,34.3 L31.39,34.3 C30.9647407,34.3 30.62,34.6447407 30.62,35.07 L30.62,39.67 C30.62,40.0952593 30.9647407,40.44 31.39,40.44 L32.2,40.44 L32.2,45 C32.2,45.4252593 32.5447407,45.77 32.97,45.77 L43.7,45.77 C44.1252593,45.77 44.47,45.4252593 44.47,45 L44.47,40.4 L45.24,40.4 C45.6462471,40.3952708 45.9789224,40.0757275 46,39.67 L46,35.07 C46,34.6447407 45.6552593,34.3 45.23,34.3 L45.23,34.3 Z M32.38,31 C31.3136153,29.0873684 31.0372781,26.8336049 31.61,24.72 L34.02,15.72 C34.1332366,15.2744725 34.4407932,14.9034697 34.8576061,14.7096032 C35.2744191,14.5157367 35.7563108,14.5195543 36.17,14.72 L36.17,14.72 C36.8250092,15.043373 37.1600607,15.7846745 36.97,16.49 L35.17,23.22 C35.1031085,23.6113823 35.3447898,23.9894544 35.7280945,24.0930503 C36.1113992,24.1966462 36.5106279,23.991793 36.65,23.62 L38.46,17 C38.8173333,15.7186125 38.2881444,14.3549335 37.16,13.65 L33.9,3.7 C33.7753046,3.23963261 33.8724334,2.74744811 34.1626697,2.3689643 C34.4529059,1.9904805 34.903045,1.76899812 35.38,1.76999662 C36.1051186,1.78150068 36.7266814,2.29118218 36.88,3 L43.39,21.3 C43.5942406,21.8747313 43.6990737,22.4800579 43.7,23.09 L43.7,30.55 C43.6980777,31.3833059 43.5029686,32.2048176 43.13,32.95 L42.46,34.3 L34.18,34.3 L32.38,31 Z M42.93,44.27 L33.73,44.27 L33.73,40.43 L42.93,40.43 L42.93,44.26 L42.93,44.27 Z M44.46,38.9 L32.2,38.9 L32.2,35.83 L44.47,35.83 L44.47,38.9 L44.46,38.9 Z" id="Shape"></path>
                        <path d="M29.19,12.83 C29.3944611,13.0316888 29.6941755,13.1028268 29.9674646,13.0145334 C30.2407538,12.92624 30.4421924,12.6931909 30.49,12.41 L31.57,5.9 C31.6154759,5.65379021 31.538404,5.40084234 31.3633628,5.22182301 C31.1883217,5.04280367 30.9371694,4.96006766 30.69,5 L24.18,6.11 C23.8968091,6.15780761 23.66376,6.35924622 23.5754666,6.63253536 C23.4871732,6.9058245 23.5583112,7.20553894 23.76,7.41 L24.86,8.51 L15.86,18.27 C15.5780928,18.5671034 15.5780928,19.0328966 15.86,19.33 L18,21.51 C18.1442001,21.6512871 18.3381198,21.7302914 18.54,21.7300008 L18.54,21.7300008 C18.7497353,21.7250725 18.9483794,21.6347798 19.09,21.48 L28.09,11.76 L29.19,12.83 Z M27.54,10.14 L18.54,19.86 L17.46,18.78 L26.5,9 C26.7819072,8.70289662 26.7819072,8.23710338 26.5,7.94 L25.9,7.38 L29.9,6.72 L29.24,10.72 L28.67,10.15 C28.5222178,10.0017254 28.3191898,9.92196438 28.11,9.93 C27.8992501,9.91892982 27.6931934,9.99484544 27.54,10.14 L27.54,10.14 Z" id="Shape"></path>
                        <path d="M15.88,24.37 L13.47,15.37 C13.1194032,14.0725281 11.9632285,13.1557018 10.62,13.11 L13.62,4.11 C13.9183168,3.04713487 13.626941,1.90585689 12.8556312,1.11607442 C12.0843214,0.32629196 10.9502578,0.00799175785 9.88063121,0.281074424 C8.81100463,0.55415709 7.96831677,1.37713487 7.67,2.44 L1.16,20.78 C0.895492794,21.5214454 0.76019565,22.3027864 0.76,23.09 L0.76,30.55 C0.761285229,31.6225719 1.01115722,32.6802492 1.49,33.64 L1.83,34.3 L0.77,34.3 C0.344740743,34.3 0,34.6447407 0,35.07 L0,39.67 C0,40.0952593 0.344740743,40.44 0.77,40.44 L1.53,40.44 L1.53,45 C1.53,45.4252593 1.87474074,45.77 2.3,45.77 L13,45.77 C13.2093634,45.7781633 13.4130129,45.7006568 13.563971,45.5553595 C13.7149292,45.4100623 13.8001591,45.2095224 13.8,45 L13.8,40.4 L14.57,40.4 C14.9952593,40.4 15.34,40.0552593 15.34,39.63 L15.34,35.03 C15.34,34.6047407 14.9952593,34.26 14.57,34.26 L13.57,34.26 L15,31.79 C16.2492142,29.5258975 16.5649709,26.8634938 15.88,24.37 Z M12.27,44.27 L3.07,44.27 L3.07,40.43 L12.27,40.43 L12.27,44.26 L12.27,44.27 Z M13.8,38.9 L1.53,38.9 L1.53,35.83 L13.8,35.83 L13.8,38.9 Z M13.62,31 L11.82,34.3 L3.54,34.3 L2.87,33 C2.49703139,32.2548176 2.30192234,31.4333059 2.3,30.6 L2.3,23.09 C2.30092631,22.4800579 2.40575941,21.8747313 2.61,21.3 L9.13,2.9 C9.28732573,2.29794539 9.79361257,1.8511506 10.4105583,1.76991576 C11.027504,1.68868091 11.6321904,1.98919097 11.94,2.53 C12.1425059,2.86985371 12.2035484,3.27560715 12.11,3.66 L8.84,13.66 C7.71615912,14.363697 7.18758954,15.7217142 7.54,17 L9.34,23.73 C9.47937205,24.101793 9.87860082,24.3066462 10.2619055,24.2030503 C10.6452102,24.0994544 10.8868915,23.7213823 10.82,23.33 L9,16.57 C8.80993927,15.8646745 9.1449908,15.123373 9.8,14.8 L9.8,14.8 C9.88984113,14.7575965 9.983623,14.724103 10.08,14.7 C10.4779741,14.5806866 10.9073581,14.6283525 11.2694755,14.8320436 C11.6315929,15.0357346 11.895302,15.3779336 12,15.78 L14.41,24.78 C14.9603899,26.8775165 14.6772658,29.1066712 13.62,31 Z" id="Shape"></path>
                        <path d="M27.6,15.13 C26.3583009,15.13 25.2388675,15.8779815 24.7636898,17.0251619 C24.2885122,18.1723422 24.5511683,19.492804 25.4291822,20.3708178 C26.307196,21.2488317 27.6276578,21.5114878 28.7748381,21.0363102 C29.9220185,20.5611325 30.67,19.4416991 30.67,18.2 C30.67,16.5044858 29.2955142,15.13 27.6,15.13 L27.6,15.13 Z M27.6,19.73 C26.7550043,19.73 26.07,19.0449957 26.07,18.2 C26.07,17.3550043 26.7550043,16.67 27.6,16.67 C28.4449957,16.67 29.13,17.3550043 29.13,18.2 C29.13,19.0449957 28.4449957,19.73 27.6,19.73 Z" id="Shape"></path>
                        <path d="M18.4,12.83 C20.0955142,12.83 21.47,11.4555142 21.47,9.76 C21.47,8.06448582 20.0955142,6.69 18.4,6.69 C16.7044858,6.69 15.33,8.06448582 15.33,9.76 C15.33,11.4555142 16.7044858,12.83 18.4,12.83 Z M18.4,8.23 C19.0188272,8.23 19.5767208,8.60277253 19.8135357,9.17449435 C20.0503506,9.74621616 19.9194503,10.4042964 19.4818734,10.8418734 C19.0442964,11.2794503 18.3862162,11.4103506 17.8144943,11.1735357 C17.2427725,10.9367208 16.87,10.3788272 16.87,9.76 C16.87,8.91500433 17.5550043,8.23 18.4,8.23 Z" id="Shape"></path>
                    </g>
                </g>
            </g>
        </g>
    </g>
</svg>