<?xml version="1.0" encoding="UTF-8"?>
<svg width="39px" height="46px" viewBox="0 0 39 46" version="1.1" xmlns="http://www.w3.org/2000/svg" xmlns:xlink="http://www.w3.org/1999/xlink">
    <!-- Generator: Sketch 62 (91390) - https://sketch.com -->
    <title>icon/bank/money-4</title>
    <desc>Created with Sketch.</desc>
    <defs>
        <rect id="path-1" x="0" y="0" width="46" height="46"></rect>
    </defs>
    <g id="Page-1" stroke="none" stroke-width="1" fill="none" fill-rule="evenodd">
        <g id="08.-Icon-set" transform="translate(-1080.000000, -100.000000)">
            <g id="icon/bank/money-4" transform="translate(1076.000000, 100.000000)">
                <g id="icon/money-4">
                    <g id="coin-copy">
                        <mask id="mask-2" fill="white">
                            <use xlink:href="#path-1"></use>
                        </mask>
                        <g id="Mask"></g>
                        <g id="coin" mask="url(#mask-2)" fill="#141ED2" fill-rule="nonzero">
                            <g transform="translate(4.000000, 0.000000)">
                                <path d="M19.2714844,24.0533405 C17.8688376,24.0517915 16.7318495,22.9148033 16.7303003,21.5121566 C16.7303003,21.0741683 16.3751852,20.7190531 15.9371969,20.7190531 C15.4992087,20.7190531 15.1440934,21.0741683 15.1440934,21.5121566 C15.1471915,23.5224104 16.5963093,25.2395104 18.5775189,25.5799098 L18.5775189,26.9442181 C18.5775189,27.3822064 18.932634,27.7373215 19.3706223,27.7373215 C19.8086106,27.7373215 20.1637258,27.3822064 20.1637258,26.9442181 L20.1637258,25.5411839 C22.219676,25.0861564 23.6033473,23.1560648 23.3744781,21.0629378 C23.1456088,18.9698107 21.3773908,17.3843784 19.2714844,17.3847656 C17.868063,17.3847656 16.7303003,16.2470029 16.7303003,14.8435816 C16.7303003,13.439773 17.868063,12.3023976 19.2714844,12.3023976 C20.6749057,12.3023976 21.8126684,13.439773 21.8126684,14.8435816 C21.8126684,15.2815699 22.1677836,15.636685 22.6057719,15.636685 C23.0437601,15.636685 23.3988753,15.2815699 23.3988753,14.8435816 C23.3961645,12.8708917 22.000101,11.1747037 20.0645878,10.793255 L20.0645878,9.59508012 C20.0645878,9.15709191 19.7094727,8.80197667 19.2714844,8.80197667 C18.8334961,8.80197667 18.4783809,9.15709191 18.4783809,9.59508012 L18.4783809,10.793255 C16.3929991,11.2014244 14.9582098,13.1268689 15.1630691,15.2420697 C15.3683156,17.3572703 17.146215,18.9709725 19.2714844,18.9709725 C20.6749057,18.9709725 21.8126684,20.1087352 21.8126684,21.5121566 C21.8126684,22.9155779 20.6749057,24.0533405 19.2714844,24.0533405 L19.2714844,24.0533405 Z" id="Path"></path>
                                <path d="M19.2714844,36.5125774 C29.3382442,36.5125774 37.5279668,28.3228549 37.5279668,18.2560951 C37.5279668,8.18972252 29.3382442,-2.81766947e-15 19.2714844,-2.81766947e-15 C9.20511175,-2.81766947e-15 1.01538933,8.18972252 1.01538933,18.2560951 C1.01538933,28.3228549 9.20511175,36.5125774 19.2714844,36.5125774 Z M19.2714844,1.5862069 C28.4634294,1.5862069 35.9417599,9.06453734 35.9417599,18.2560951 C35.9417599,27.4480402 28.4634294,34.9263705 19.2714844,34.9263705 C10.0799266,34.9263705 2.60159622,27.4480402 2.60159622,18.2560951 C2.60159622,9.06453734 10.0799266,1.5862069 19.2714844,1.5862069 Z" id="Shape"></path>
                                <path d="M19.2714844,31.7028387 C26.6863046,31.7028387 32.7182281,25.670528 32.7182281,18.2560951 C32.7182281,10.8412749 26.6863046,4.80935145 19.2714844,4.80935145 C11.8570514,4.80935145 5.82474068,10.8416622 5.82474068,18.2560951 C5.82474068,25.6709152 11.8570514,31.7028387 19.2714844,31.7028387 Z M19.2714844,6.39555835 C25.8219457,6.39555835 31.1320212,11.7056338 31.1320212,18.2557078 C31.1324084,24.8061692 25.822333,30.1162446 19.2718716,30.1166318 C12.7214102,30.1166318 7.41133481,24.8065564 7.41094758,18.2560951 C7.4183055,11.7087318 12.7241211,6.4033035 19.2714844,6.39555835 Z" id="Shape"></path>
                                <path d="M38.4051051,37.3537008 C38.4051051,36.9157126 38.0499899,36.5605974 37.6120016,36.5605974 L0.831829203,36.5605974 C0.393840897,36.5605974 0.0387257543,36.9157126 0.0387257543,37.3537008 L0.0387257543,45.1855974 C0.0387257543,45.6235857 0.393840897,45.9787008 0.831829203,45.9787008 L37.6120016,45.9787008 C38.0499899,45.9787008 38.4051051,45.6235857 38.4051051,45.1855974 L38.4051051,37.3537008 Z M9.65510506,38.1468043 L12.2326913,38.1468043 L12.2326913,44.3924939 L9.65510506,44.3924939 L9.65510506,38.1468043 Z M8.06889817,44.3924939 L5.49131196,44.3924939 L5.49131196,38.1468043 L8.06889817,38.1468043 L8.06889817,44.3924939 Z M13.8188982,38.1468043 L16.3964844,38.1468043 L16.3964844,44.3924939 L13.8188982,44.3924939 L13.8188982,38.1468043 Z M17.9826913,38.1468043 L20.5602775,38.1468043 L20.5602775,44.3924939 L17.9826913,44.3924939 L17.9826913,38.1468043 Z M22.1464844,38.1468043 L24.7240706,38.1468043 L24.7240706,44.3924939 L22.1464844,44.3924939 L22.1464844,38.1468043 Z M26.3102775,38.1468043 L28.8878637,38.1468043 L28.8878637,44.3924939 L26.3102775,44.3924939 L26.3102775,38.1468043 Z M30.4740706,38.1468043 L33.0516568,38.1468043 L33.0516568,44.3924939 L30.4740706,44.3924939 L30.4740706,38.1468043 Z M1.62493265,38.1468043 L3.90510506,38.1468043 L3.90510506,44.3924939 L1.62493265,44.3924939 L1.62493265,38.1468043 Z M36.9180361,44.3924939 L34.6378637,44.3924939 L34.6378637,38.1468043 L36.9180361,38.1468043 L36.9180361,44.3924939 Z" id="Shape"></path>
                            </g>
                        </g>
                    </g>
                </g>
            </g>
        </g>
    </g>
</svg>