<?xml version="1.0" encoding="UTF-8"?>
<svg width="46px" height="46px" viewBox="0 0 46 46" version="1.1" xmlns="http://www.w3.org/2000/svg" xmlns:xlink="http://www.w3.org/1999/xlink">
    <!-- Generator: Sketch 62 (91390) - https://sketch.com -->
    <title>icon/bank/pension</title>
    <desc>Created with Sketch.</desc>
    <defs>
        <rect id="path-1" x="0" y="0" width="46" height="46"></rect>
        <path d="M18.0732173,18.6190476 C23.2145506,18.6180598 27.3816932,14.4495158 27.3809524,9.30818243 C27.3802115,4.16684905 23.2118678,-0.000493846531 18.0705344,0 C12.929201,0.000493846531 8.7616579,4.16863744 8.76190476,9.30997087 C8.76757508,14.4497542 12.9334327,18.6146116 18.0732173,18.6190476 L18.0732173,18.6190476 Z M18.0732173,1.56507658 C22.3500661,1.56606437 25.8164518,5.03371789 25.8158756,9.31056682 C25.8152995,13.5874158 22.3479796,17.0541352 18.0711306,17.0539706 C13.7942817,17.0538061 10.3272286,13.5868198 10.3269815,9.30997087 C10.3324049,5.03459825 13.7978429,1.57056064 18.0732173,1.56686524 L18.0732173,1.56507658 Z" id="path-3"></path>
        <filter x="-190.7%" y="-201.4%" width="481.3%" height="481.3%" filterUnits="objectBoundingBox" id="filter-4">
            <feOffset dx="0" dy="-2" in="SourceAlpha" result="shadowOffsetOuter1"></feOffset>
            <feGaussianBlur stdDeviation="11.5" in="shadowOffsetOuter1" result="shadowBlurOuter1"></feGaussianBlur>
            <feColorMatrix values="0 0 0 0 0   0 0 0 0 0   0 0 0 0 0  0 0 0 0.0694633152 0" type="matrix" in="shadowBlurOuter1"></feColorMatrix>
        </filter>
        <path d="M16.6974324,11.779474 C16.6974324,11.3268808 16.3921324,10.9599815 16.0155258,10.9599815 C15.6389192,10.9599815 15.3336193,11.3268808 15.3336193,11.779474 C15.3352566,13.2798077 16.18058,14.5891316 17.3894701,14.9637873 L17.3894701,15.6090791 C17.3894702,16.0616722 17.6947701,16.4285714 18.0713767,16.4285714 C18.4479833,16.4285714 18.7532832,16.0616722 18.7532833,15.6090791 L18.7532833,14.9623825 C19.9631447,14.5903298 20.8094201,13.2802919 20.8094201,11.779474 C20.8094201,10.278656 19.9631447,8.96861817 18.7532833,8.59656544 L18.7532833,5.41459348 C19.1799118,5.70613378 19.4440788,6.2497761 19.4457107,6.83957371 C19.4457107,7.29216687 19.7510106,7.65906612 20.1276172,7.65906612 C20.5042238,7.65906612 20.8095238,7.29216687 20.8095238,6.83957371 C20.8077032,5.33916153 19.9622484,4.02988217 18.7532833,3.65526034 L18.7532833,3.0099686 C18.7532833,2.55737544 18.4479833,2.19047619 18.0713767,2.19047619 C17.6947701,2.19047619 17.3894701,2.55737544 17.3894701,3.0099686 L17.3894701,3.65479206 C16.1796087,4.02684479 15.3333333,5.33688263 15.3333333,6.83770058 C15.3333333,8.33851853 16.1796087,9.64855637 17.3894701,10.0206091 L17.3894701,13.2049225 C16.9628712,12.9131791 16.6988449,12.3693419 16.6974324,11.779474 L16.6974324,11.779474 Z M19.445321,11.779474 C19.443769,12.3691743 19.1797617,12.912794 18.7532833,13.2044542 L18.7532833,10.3544937 C19.1793113,10.6465134 19.4428398,11.190065 19.444152,11.779474 L19.445321,11.779474 Z M16.6974324,6.8372323 C16.6994414,6.24878463 16.9626944,5.70638736 17.3879115,5.41459348 L17.3879115,8.26455394 C16.9616073,7.97178406 16.6982098,7.42730278 16.6974324,6.8372323 L16.6974324,6.8372323 Z" id="path-5"></path>
        <filter x="-648.3%" y="-263.4%" width="1396.5%" height="598.7%" filterUnits="objectBoundingBox" id="filter-6">
            <feOffset dx="0" dy="-2" in="SourceAlpha" result="shadowOffsetOuter1"></feOffset>
            <feGaussianBlur stdDeviation="11.5" in="shadowOffsetOuter1" result="shadowBlurOuter1"></feGaussianBlur>
            <feColorMatrix values="0 0 0 0 0   0 0 0 0 0   0 0 0 0 0  0 0 0 0.0694633152 0" type="matrix" in="shadowBlurOuter1"></feColorMatrix>
        </filter>
        <path d="M44.7429329,39.849232 C44.510237,39.2514442 44.0461253,38.7694995 43.452912,38.5096436 C42.8596987,38.2497877 42.1860907,38.2333564 41.580586,38.463972 C40.4251667,38.8918465 39.2441274,39.2490893 38.0441787,39.5336708 C37.6514617,38.2852301 37.3251443,37.0173937 37.0665617,35.7353487 C37.2091128,35.5905203 37.2888435,35.3965836 37.2888295,35.1947051 L37.2888295,31.9294496 C37.2889495,31.7225475 37.2056943,31.5240855 37.0574045,31.3777836 C36.9091147,31.2314817 36.7079562,31.1493426 36.4982428,31.1494609 L36.3270243,31.1494609 C36.1408976,29.6197916 36.0026579,28.0321803 35.9141121,26.408021 L36.4982428,26.408021 C36.9348718,26.408021 37.2888295,26.0588082 37.2888295,25.6280323 L37.2888295,22.365451 C37.2889495,22.1585489 37.2056943,21.960087 37.0574045,21.813785 C36.9091147,21.6674831 36.7079562,21.585344 36.4982428,21.5854623 L35.8002677,21.5854623 C35.8490581,14.4015435 36.8659786,7.59023652 38.5460883,3.28157895 C39.0304612,2.03752724 38.402192,0.641475356 37.1420063,0.161624153 C36.5365413,-0.0687679262 35.8630842,-0.0522790241 35.269948,0.207459568 C34.6768117,0.46719816 34.2126413,0.948884441 33.9796594,1.54643837 C32.067343,6.44922448 30.956004,13.728079 30.9076652,21.5841252 L7.37935249,21.5841252 C5.1989861,21.5865814 3.43207078,23.3298107 3.42958121,25.4809487 L3.42958121,25.6266952 C3.42958121,26.0574711 3.78353894,26.4066839 4.22016794,26.4066839 L9.04319873,26.4066839 C8.95284596,28.0794254 8.80828153,29.7165102 8.61357131,31.2925331 C6.9026155,31.7590788 5.71670184,33.2936428 5.7136992,35.0449473 L5.7136992,35.1911395 C5.7136992,35.6219153 6.06765694,35.9711282 6.50428593,35.9711282 L7.84421749,35.9711282 C7.5704486,37.2668008 7.26008684,38.4572864 6.91719808,39.5301052 C5.71754561,39.2455222 4.53680699,38.888279 3.38169424,38.4604064 C2.56090972,38.1248044 1.62020236,38.2548219 0.924486616,38.8000233 C0.228770874,39.3452247 -0.112479745,40.2198205 0.0331109814,41.0845418 C0.178701708,41.9492631 0.788224528,42.6680428 1.62523642,42.9620554 C6.70667613,44.8950903 14.3085063,46 22.481366,46 C30.6542257,46 38.2551524,44.8933075 43.3388509,42.964284 C44.5963488,42.4844211 45.2240247,41.0918793 44.7429329,39.849232 L44.7429329,39.849232 Z M32.1256206,35.9715739 C32.4109814,37.4806133 32.7740676,38.9743327 33.2134679,40.4469262 C29.6580757,40.9399846 26.0717014,41.1835069 22.481366,41.1756585 C18.8909013,41.1838234 15.3043754,40.9405988 11.7488124,40.4478176 C12.1878261,38.9749495 12.5503116,37.4809225 12.8348527,35.9715739 L32.1256206,35.9715739 Z M34.7910272,40.1977755 C34.3665226,38.8076949 34.0142899,37.397122 33.7357069,35.9715739 L35.5043623,35.9715739 C35.7687023,37.2894787 36.1004193,38.5933532 36.4982428,39.878203 C35.9439286,39.9927499 35.3738026,40.0988284 34.7892202,40.1986669 L34.7910272,40.1977755 Z M34.7386226,31.1499066 L32.9889413,31.1499066 C32.8123016,29.6171174 32.6812901,28.0299518 32.5981655,26.4084667 L34.3324869,26.4084667 C34.4196773,28.0295061 34.5547547,29.6166717 34.7368156,31.1494609 L34.7386226,31.1499066 Z M21.6203041,31.1499066 L21.6203041,26.408021 L23.3455903,26.408021 L23.3455903,31.1494609 L21.6203041,31.1499066 Z M13.5635477,31.1499066 C13.7365733,29.6153345 13.8644225,28.0299518 13.9461917,26.4084667 L20.0373236,26.4084667 L20.0373236,31.1494609 L13.5635477,31.1499066 Z M24.9249566,26.408021 L31.0147333,26.408021 C31.0965025,28.0268318 31.2248034,29.6139974 31.397829,31.1494609 L24.9249566,31.1494609 L24.9249566,26.408021 Z M35.4569271,2.10847595 C35.5679701,1.82415994 35.8243198,1.61988771 36.1294117,1.57260661 C36.4345036,1.52532552 36.7419871,1.64221869 36.9360361,1.8792536 C37.130085,2.11628851 37.1812188,2.43745391 37.0701758,2.72176992 C35.3245603,7.19890505 34.26924,14.2210319 34.2190942,21.585908 L32.4897422,21.585908 C32.5380809,13.9148306 33.6114718,6.83966454 35.4569271,2.10847595 L35.4569271,2.10847595 Z M7.37935249,23.1458854 L35.7094631,23.1458854 L35.7094631,24.8484893 L31.7669201,24.8484893 C31.7560777,24.8484893 31.7456872,24.8458151 31.7339413,24.8484893 C31.7289719,24.8484893 31.7240025,24.8484893 31.7185813,24.8484893 L5.09930038,24.8484893 C5.38847759,23.8421076 6.3191002,23.1469934 7.37935249,23.1454397 L7.37935249,23.1458854 Z M12.3618559,26.408021 C12.2787314,28.0299518 12.1481716,29.6171174 11.9719837,31.1494609 L10.2236577,31.1494609 C10.4043632,29.6148888 10.5398923,28.0295061 10.6275345,26.408021 L12.3618559,26.408021 Z M9.66347049,32.7094383 L35.7094631,32.7094383 L35.7094631,34.4115965 L7.38341837,34.4115965 C7.67266498,33.4053892 8.60336886,32.7105782 9.66347049,32.7094383 L9.66347049,32.7094383 Z M9.45611088,35.9715739 L11.2252181,35.9715739 C10.9477818,37.3971291 10.5964508,38.8077142 10.1726083,40.1977755 C9.58802592,40.0979369 9.01654466,39.9918585 8.46358572,39.878203 C8.86134229,38.593436 9.19261189,37.2895422 9.45611088,35.9715739 Z M42.7709838,41.5086022 C37.8612143,43.3729981 30.4658402,44.4400226 22.481366,44.4400226 C14.4968918,44.4400226 7.1006142,43.3703238 2.19220004,41.5077108 C1.97819344,41.4266403 1.80560212,41.2650049 1.71240453,41.0583721 C1.61920695,40.8517393 1.61303968,40.6170406 1.69525981,40.4059211 C1.86715344,39.9662527 2.36740282,39.7469001 2.81337533,39.9156424 C7.46202528,41.6806454 14.8144818,42.733853 22.481366,42.733853 C27.6177429,42.7715257 32.7429412,42.2559078 37.7658921,41.196161 L37.7749274,41.196161 C39.2613284,40.8705711 40.7229938,40.4434451 42.1493567,39.917871 C42.3633361,39.8366295 42.601275,39.842654 42.8107491,39.934617 C43.0202231,40.02658 43.1840437,40.1969355 43.2661169,40.4081496 C43.4364188,40.8471409 43.2151217,41.3393807 42.7709838,41.5094936 L42.7709838,41.5086022 Z" id="path-7"></path>
        <filter x="-79.1%" y="-81.5%" width="258.1%" height="254.3%" filterUnits="objectBoundingBox" id="filter-8">
            <feOffset dx="0" dy="-2" in="SourceAlpha" result="shadowOffsetOuter1"></feOffset>
            <feGaussianBlur stdDeviation="11.5" in="shadowOffsetOuter1" result="shadowBlurOuter1"></feGaussianBlur>
            <feColorMatrix values="0 0 0 0 0   0 0 0 0 0   0 0 0 0 0  0 0 0 0.0694633152 0" type="matrix" in="shadowBlurOuter1"></feColorMatrix>
        </filter>
    </defs>
    <g id="Page-1" stroke="none" stroke-width="1" fill="none" fill-rule="evenodd">
        <g id="08.-Icon-set" transform="translate(-990.000000, -272.000000)">
            <g id="icon/bank/pension" transform="translate(990.000000, 272.000000)">
                <g id="icon/pension">
                    <g id="pension">
                        <mask id="mask-2" fill="white">
                            <use xlink:href="#path-1"></use>
                        </mask>
                        <g id="Mask"></g>
                        <g mask="url(#mask-2)" id="Shape">
                            <g transform="translate(1.000000, 0.000000)">
                                <g>
                                    <use fill="black" fill-opacity="1" filter="url(#filter-4)" xlink:href="#path-3"></use>
                                    <use fill="#141ED2" fill-rule="evenodd" xlink:href="#path-3"></use>
                                </g>
                                <g>
                                    <use fill="black" fill-opacity="1" filter="url(#filter-6)" xlink:href="#path-5"></use>
                                    <use fill="#141ED2" fill-rule="evenodd" xlink:href="#path-5"></use>
                                </g>
                                <g>
                                    <use fill="black" fill-opacity="1" filter="url(#filter-8)" xlink:href="#path-7"></use>
                                    <use fill="#141ED2" fill-rule="evenodd" xlink:href="#path-7"></use>
                                </g>
                            </g>
                        </g>
                    </g>
                </g>
            </g>
        </g>
    </g>
</svg>