<?xml version="1.0" encoding="UTF-8"?>
<svg width="46px" height="46px" viewBox="0 0 46 46" version="1.1" xmlns="http://www.w3.org/2000/svg" xmlns:xlink="http://www.w3.org/1999/xlink">
    <!-- Generator: Sketch 62 (91390) - https://sketch.com -->
    <title>icon/bank/save-money</title>
    <desc>Created with Sketch.</desc>
    <g id="Page-1" stroke="none" stroke-width="1" fill="none" fill-rule="evenodd">
        <g id="08.-Icon-set" transform="translate(-560.000000, -100.000000)">
            <g id="icon/bank/save-money" transform="translate(560.000000, 100.000000)">
                <g id="icon">
                    <g id="Tiet-kiem" fill-rule="nonzero">
                        <path d="M30.61,45.87 L30.61,45.87 C28.4186644,45.8715018 26.3090139,45.0383687 24.71,43.54 L24.32,43.17 C21.9130028,43.4990751 19.4688992,43.441686 17.08,43 L16.44,43.62 C14.8911313,45.0951075 12.8288233,45.9092708 10.69,45.8903345 L10.45,45.8903345 C8.22624719,45.8439545 6.11301488,44.9115403 4.58,43.3 C2.34155065,40.9069209 1.88631649,37.3496487 3.45,34.47 C1.68437062,31.8525035 0.740711567,28.7673303 0.74,25.61 L0.74,24.81 C0.882331911,22.8434464 1.40893525,20.9238923 2.29,19.16 L3.08,17.64 C4.43271396,15.4227462 6.22233245,13.5038397 8.34,12 L8.34,12 C9.49,10.62 33.1,5.67 33.34,5.67 L33.34,5.67 C34.7755036,5.63658933 36.0068997,6.68715104 36.2,8.11 C36.2644947,9.23064548 36.1973698,10.3549882 36,11.46 L35.84,12.93 C37.5016303,14.3200978 38.9092122,15.9882177 40,17.86 L40.62,17.93 C43.2794403,18.197282 45.3031174,20.4371639 45.3000036,23.11 L45.3000036,28.17 C45.3031174,30.8428361 43.2794403,33.082718 40.62,33.35 L40,33.41 C39.5282924,34.2603472 38.9864102,35.0698256 38.38,35.83 C39.3272052,38.7979821 38.3540981,42.0429963 35.93,44 C34.4223099,45.2126818 32.5448695,45.8726092 30.61,45.87 Z M30.61,44.07 C32.1376563,44.0691545 33.6192933,43.5470538 34.81,42.59 C36.7518245,40.9979838 37.4360174,38.3300364 36.5,36 L36.3,35.5 L36.65,35.09 C37.4247319,34.1952666 38.0956715,33.2156947 38.65,32.17 L38.87,31.74 L40.44,31.58 C42.1777914,31.4006876 43.4989802,29.9370177 43.5,28.19 L43.5,23.11 C43.4989802,21.3629823 42.1777914,19.8993124 40.44,19.72 L40.44,19.72 L38.88,19.56 L38.65,19.14 C37.5644357,17.1546753 36.0921317,15.4069518 34.32,14 L33.94,13.69 L34.2,11.25 C34.3598281,10.2885799 34.4301293,9.31440667 34.41,8.34 C34.3875681,8.06855235 34.2553822,7.81799974 34.0439898,7.64624337 C33.8325973,7.474487 33.5602913,7.39638996 33.29,7.43 C31.59,7.62 12.56,12 9.85,13.12 L9.53,13.34 C7.55850155,14.7089721 5.89324534,16.4729859 4.64,18.52 L3.91,19.94 C3.13507614,21.4784586 2.66639498,23.1528051 2.53,24.87 L2.53,25.61 C2.54429752,28.5763942 3.49248462,31.4629416 5.24,33.86 L5.6,34.35 L5.28,34.86 C3.8212937,37.0965664 4.06849328,40.0382414 5.88,42 C7.08413822,43.2491181 8.73527898,43.9685694 10.47,44 L10.69,44 C12.3620018,44.0117041 13.9740098,43.3776476 15.19,42.23 L16.51,41 L17,41.1 C19.4594527,41.6238922 21.9930061,41.7017955 24.48,41.33 L24.91,41.27 L25.91,42.27 C27.1942125,43.4273114 28.8612522,44.0684805 30.59,44.07 L30.61,44.07 Z" id="Shape" fill="#141ED2"></path>
                        <path d="M18.16,0.999972568 C22.1690115,0.990239687 25.7196243,3.5858791 26.9267574,7.40884893 C28.1338904,11.2318188 26.7176734,15.3957741 23.43,17.69 L12.9,17.69 C10.4367009,15.9960248 8.97533124,13.1894458 9,10.2 C8.99468989,7.76531086 9.95677674,5.42823145 11.6746112,3.70289552 C13.3924457,1.97755958 15.7253108,1.00529856 18.16,0.999972568 Z" id="Path" fill="#FFFFFF"></path>
                        <path d="M18.0140219,13.3900372 C17.1863366,13.3889288 16.5153203,12.7179124 16.5142118,11.8902271 C16.5142118,11.4723199 16.1753781,11.1334863 15.757471,11.1334863 C15.3395638,11.1334863 15.0007301,11.4723199 15.0007301,11.8902271 C15.0025776,13.2366938 15.8967734,14.4194709 17.1918792,14.7886038 L17.1918792,15.4862242 C17.1918792,15.9041314 17.5307128,16.2429651 17.94862,16.2429651 C18.3665272,16.2429651 18.7053609,15.9041314 18.7053609,15.4862242 L18.7053609,14.822598 C20.1940859,14.4715707 21.1839828,13.0611801 21.0069911,11.5417864 C20.8303691,10.0227621 19.5437617,8.87656576 18.0140219,8.87693524 C17.1855976,8.87693524 16.5142118,8.20517988 16.5142118,7.37712508 C16.5142118,6.5487008 17.1855976,5.87694544 18.0140219,5.87731501 C18.8424463,5.87731501 19.5138321,6.5487008 19.5138321,7.37712508 C19.5138321,7.79503229 19.8526657,8.13386594 20.2705729,8.13386594 C20.6884801,8.13386594 21.0273138,7.79503229 21.0273138,7.37712508 C21.0254663,5.94345587 20.0156162,4.70931794 18.6107683,4.42332315 L18.6107683,3.75674086 C18.6107683,3.33883365 18.2719346,3 17.8540274,3 C17.4361202,3 17.0972865,3.33883365 17.0972865,3.75674086 L17.0972865,4.50683064 C15.682462,4.95836258 14.8074804,6.3739262 15.0362023,7.84122006 C15.2649242,9.30888349 16.5289919,10.3907864 18.0140219,10.390417 C18.8424463,10.390417 19.5138321,11.0621723 19.5138321,11.8902271 C19.5138321,12.7186514 18.8424463,13.3900372 18.0140219,13.3900372 Z" id="Path" fill="#141ED2"></path>
                        <path d="M23.71,18.629995 L12.63,18.629995 L12.4,18.48 C9.66305224,16.6175684 8.03815025,13.5103655 8.07,10.2 C8.08101978,4.63916027 12.5891521,0.135500331 18.15,0.129994954 L18.15,0.129994954 C22.5504363,0.125615638 26.4441048,2.97898973 27.7653785,7.17638111 C29.0866523,11.3737725 27.5294979,15.9429812 23.92,18.46 L23.71,18.629995 Z M13.18,16.83 L23.18,16.83 C26.0369182,14.6910125 27.1993802,10.9605884 26.0632905,7.57731346 C24.9272009,4.1940385 21.7488789,1.9212316 18.18,1.93988463 L18.18,1.93988463 C13.605447,1.92893375 9.88654114,5.62546347 9.87,10.2 C9.84179475,12.8139625 11.0737741,15.2816433 13.18,16.83 L13.18,16.83 Z" id="Shape" fill="#141ED2"></path>
                    </g>
                </g>
            </g>
        </g>
    </g>
</svg>