<?xml version="1.0" encoding="UTF-8"?>
<svg width="34px" height="46px" viewBox="0 0 34 46" version="1.1" xmlns="http://www.w3.org/2000/svg" xmlns:xlink="http://www.w3.org/1999/xlink">
    <!-- Generator: Sketch 62 (91390) - https://sketch.com -->
    <title>icon/bank/the-2</title>
    <desc>Created with Sketch.</desc>
    <defs>
        <rect id="path-1" x="0" y="0" width="46" height="46"></rect>
    </defs>
    <g id="Page-1" stroke="none" stroke-width="1" fill="none" fill-rule="evenodd">
        <g id="08.-Icon-set" transform="translate(-996.000000, -186.000000)">
            <g id="icon/bank/the-2" transform="translate(990.000000, 186.000000)">
                <g id="icon/the-2">
                    <g id="The-2">
                        <mask id="mask-2" fill="white">
                            <use xlink:href="#path-1"></use>
                        </mask>
                        <g id="Mask"></g>
                        <g mask="url(#mask-2)" fill="#141ED2" fill-rule="nonzero">
                            <g transform="translate(6.000000, 0.000000)">
                                <path d="M20.07,0 L4.73,0 C2.61702986,0.00549539882 0.905495399,1.71702986 0.9,3.83 L0.9,31.43 C0.905495399,33.5429701 2.61702986,35.2545046 4.73,35.26 L18.53,35.26 L18.53,33.73 L4.73,33.73 C3.45974508,33.73 2.43,32.7002549 2.43,31.43 L2.43,3.83 C2.43,2.55974508 3.45974508,1.53 4.73,1.53 L20.07,1.53 C20.6799979,1.53 21.2650119,1.77232073 21.6963456,2.2036544 C22.1276793,2.63498807 22.37,3.22000207 22.37,3.83 L22.37,26.07 L23.9,26.07 L23.9,3.83 C23.8945046,1.71702986 22.1829701,0.00549539882 20.07,0 L20.07,0 Z" id="Path"></path>
                                <path d="M31.25,20.42 L23.73,11 L22.53,12 L30.05,21.4 C31.0265546,22.6244003 31.5588922,24.1438538 31.56,25.71 L31.56,44.47 L20.35,44.47 C16.3868793,44.4644918 13.1755082,41.2531207 13.17,37.29 L13.17,34.5 L11.63,34.5 L11.63,37.28 C11.6355108,42.0936385 15.5363615,45.9944892 20.35,46 L32.35,46 C32.7752593,46 33.12,45.6552593 33.12,45.23 L33.12,25.69 C33.1112427,23.7722906 32.4519608,21.9143146 31.25,20.42 L31.25,20.42 Z" id="Path"></path>
                                <path d="M13.93,18.08 C14.465392,18.092751 14.9733043,18.3196906 15.34,18.71 L25.64,29.66 L26.76,28.61 L16.45,17.66 C15.8118218,16.9811728 14.9311512,16.5821751 14,16.55 C13.0559142,16.5262357 12.1427108,16.8871857 11.47,17.55 L11.39,17.63 C10.0816989,18.9329814 9.99462731,21.0226988 11.19,22.43 L17.79,30.23 L17.79,32.6 C17.8009534,36.8564296 20.438855,40.6640793 24.42,42.17 L24.96,40.73 C21.5756053,39.4522557 19.3315985,36.2175438 19.32,32.6 L19.32,29.9 C19.3212357,29.7172538 19.2574334,29.5400253 19.14,29.4 L12.36,21.4 C11.6639448,20.5878964 11.7300324,19.371885 12.51,18.64 C12.8935983,18.2775003 13.4022272,18.0769142 13.93,18.08 Z" id="Path"></path>
                                <rect id="Rectangle" x="17.77" y="1.53" width="1.53" height="19.17"></rect>
                                <rect id="Rectangle" x="13.93" y="25.3" width="1.53" height="9.2"></rect>
                                <rect id="Rectangle" x="13.93" y="0.77" width="1.53" height="16.87"></rect>
                                <rect id="Rectangle" x="4.73" y="3.83" width="1.53" height="9.97"></rect>
                                <rect id="Rectangle" x="8.57" y="3.83" width="1.53" height="6.13"></rect>
                                <path d="M10.1,25.3 L5.5,25.3 C5.07474074,25.3 4.73,25.6447407 4.73,26.07 L4.73,30.67 C4.73,31.0952593 5.07474074,31.44 5.5,31.44 L10.1,31.44 C10.5252593,31.44 10.87,31.0952593 10.87,30.67 L10.87,26.07 C10.87,25.6447407 10.5252593,25.3 10.1,25.3 L10.1,25.3 Z M9.33,29.9 L6.27,29.9 L6.27,26.83 L9.34,26.83 L9.34,29.9 L9.33,29.9 Z" id="Shape"></path>
                            </g>
                        </g>
                    </g>
                </g>
            </g>
        </g>
    </g>
</svg>