<?xml version="1.0" encoding="UTF-8"?>
<svg width="46px" height="46px" viewBox="0 0 46 46" version="1.1" xmlns="http://www.w3.org/2000/svg" xmlns:xlink="http://www.w3.org/1999/xlink">
    <!-- Generator: Sketch 62 (91390) - https://sketch.com -->
    <title>icon/bank/ung-dung-3</title>
    <desc>Created with Sketch.</desc>
    <g id="Page-1" stroke="none" stroke-width="1" fill="none" fill-rule="evenodd">
        <g id="08.-Icon-set" transform="translate(-560.000000, -272.000000)" fill="#141ED2">
            <g id="icon/bank/ung-dung-3" transform="translate(560.000000, 272.000000)">
                <g id="icon/ung-dung-3">
                    <g fill-rule="nonzero" id="Ung-dung-3">
                        <g>
                            <path d="M42.17,0 L22.23,0 C20.1170299,0.00549539882 18.4054954,1.71702986 18.4,3.83 L18.4,9.53 C14.7695435,10.5519608 12.2615291,13.8634461 12.2615291,17.635 C12.2615291,21.4065539 14.7695435,24.7180392 18.4,25.74 L18.4,32.2 L16.2,32.2 L16.64,28.65 C16.7163273,28.0438509 16.5483586,27.4322395 16.1731504,26.9500969 C15.7979422,26.4679544 15.2463271,26.1549006 14.64,26.08 L14.35,26.08 L13,26.08 C12.6113591,26.0823843 12.2854191,26.3740149 12.24,26.76 L12.1,28.32 C11.8386973,30.6792686 10.0185172,32.5651889 7.67,32.91 L7.67,32.2 C7.67,31.7747407 7.32525926,31.43 6.9,31.43 L0.77,31.43 C0.344740743,31.43 1.36869682e-15,31.7747407 1.31665512e-15,32.2 L1.31665512e-15,45.2 C-0.00816327326,45.4093634 0.069343228,45.6130129 0.214640477,45.763971 C0.359937725,45.9149292 0.560477597,46 0.77,46 L6.9,46 C7.32525926,46 7.67,45.6552593 7.67,45.23 L7.67,45 C9.0193692,45.6558389 10.4996945,45.9977154 12,46 L19.18,46 C19.6542165,45.998705 20.1160109,45.848272 20.5,45.57 C21.0368582,45.8514982 21.6338177,45.9990227 22.24,46 L42.17,46 C44.2829701,45.9945046 45.9945046,44.2829701 46,42.17 L46,3.83 C45.9945046,1.71702986 44.2829701,0.00549539882 42.17,0 Z M13.8,17.63 C13.8,13.8192352 16.8892352,10.73 20.7,10.73 C24.5107648,10.73 27.6,13.8192352 27.6,17.63 C27.6,21.4407648 24.5107648,24.53 20.7,24.53 C18.8700062,24.53 17.1149642,23.8030378 15.8209632,22.5090368 C14.5269622,21.2150358 13.8,19.4599938 13.8,17.63 Z M22.85,36.8 C22.8103738,36.6759361 22.7601902,36.5554956 22.7,36.44 C22.8382322,36.3517145 22.9657518,36.2476853 23.08,36.13 C23.5707942,35.6535998 23.8206126,34.9812946 23.76,34.3 C23.708559,33.7238329 23.4362195,33.1899042 23,32.81 L23,25.74 C26.6304565,24.7180392 29.1384709,21.4065539 29.1384709,17.635 C29.1384709,13.8634461 26.6304565,10.5519608 23,9.53 L23,6.13 L41.4,6.13 L41.4,36.8 L22.85,36.8 Z M19.93,26 C20.18,26 20.44,26 20.7,26 C20.96,26 21.21,26 21.47,26 L21.47,32.18 L19.93,32.18 L19.93,26 Z M6.13,44.47 L1.53,44.47 L1.53,33 L6.13,33 L6.13,44.5 L6.13,44.47 Z M19.13,44.470006 L12,44.470006 C10.4788131,44.4718133 8.98568526,44.0605119 7.68,43.28 L7.68,34.46 C10.8442136,34.1242136 13.3442136,31.6242136 13.68,28.46 L13.78,27.58 L14.42,27.58 C14.6390684,27.581343 14.8471936,27.6759358 14.9922629,27.8400932 C15.1373323,28.0042506 15.20561,28.2224295 15.18,28.44 L14.63,32.85 C14.6045646,33.0529327 14.6609081,33.2576474 14.7866013,33.418985 C14.9122946,33.5803226 15.0970099,33.6850267 15.3,33.71 L21.44,33.71 C21.8596055,33.694744 22.2245125,33.9952556 22.29,34.41 C22.2892703,34.6408133 22.1823037,34.8584349 22,35 C21.8583738,35.1451591 21.6627449,35.2248597 21.46,35.22 L20.7,35.22 C20.311178,35.2645275 20.0176071,35.5936366 20.0176071,35.985 C20.0176071,36.3763634 20.311178,36.7054725 20.7,36.75 C21.1252593,36.75 21.47,37.0947407 21.47,37.52 C21.4726196,37.7272373 21.3893666,37.9263205 21.24,38.07 C21.1007724,38.2126081 20.9092913,38.2920908 20.71,38.29 L19.93,38.29 C19.541178,38.3345275 19.2476071,38.6636366 19.2476071,39.055 C19.2476071,39.4463634 19.541178,39.7754725 19.93,39.82 C20.3552593,39.82 20.7,40.1647407 20.7,40.59 C20.7026196,40.7972373 20.6193666,40.9963205 20.47,41.14 C20.3307724,41.2826081 20.1392913,41.3620908 19.94,41.36 L19.17,41.36 C18.8758075,41.3263093 18.5883595,41.464307 18.4306643,41.7149393 C18.2729691,41.9655716 18.2729691,42.2844284 18.4306643,42.5350607 C18.5883595,42.785693 18.8758075,42.9236907 19.17,42.89 C19.5952593,42.89 19.94,43.2347407 19.94,43.66 C19.9426196,43.8672373 19.8593666,44.0663205 19.71,44.21 C19.5755153,44.369968 19.3789187,44.4646257 19.17,44.470006 L19.13,44.470006 Z M44.43,42.17 C44.43,43.4402549 43.4002549,44.47 42.13,44.47 L22.23,44.47 C21.9383261,44.4689633 21.6496362,44.4112253 21.38,44.3 C21.545879,43.7218906 21.4700991,43.1012167 21.17,42.58 C21.3082322,42.4917145 21.4357518,42.3876853 21.55,42.27 C21.9893525,41.8420561 22.2349668,41.2533041 22.23,40.64 C22.2299154,40.2436608 22.1265159,39.8541893 21.93,39.51 C22.0682322,39.4217145 22.1957518,39.3176853 22.31,39.2 C22.5586664,38.9568559 22.7470163,38.6589206 22.86,38.33 L42.17,38.33 C42.5952593,38.33 42.94,37.9852593 42.94,37.56 L42.94,5.37 C42.94,4.94474074 42.5952593,4.6 42.17,4.6 L22.23,4.6 C21.8047407,4.6 21.46,4.94474074 21.46,5.37 L21.46,9.24 C21.21,9.24 20.95,9.24 20.69,9.24 C20.43,9.24 20.18,9.24 19.92,9.24 L19.92,3.83 C19.92,2.55974508 20.9497451,1.53 22.22,1.53 L42.17,1.53 C43.4402549,1.53 44.47,2.55974508 44.47,3.83 L44.47,42.17 L44.43,42.17 Z" id="Shape"></path>
                            <path d="M32.2,39.1 C30.9297451,39.1 29.9,40.1297451 29.9,41.4 C29.9,42.6702549 30.9297451,43.7 32.2,43.7 C33.4702549,43.7 34.5,42.6702549 34.5,41.4 C34.5,40.1297451 33.4702549,39.1 32.2,39.1 L32.2,39.1 Z M32.2,42.17 C31.7790375,42.1535863 31.4494176,41.8019194 31.460255,41.3807765 C31.4710925,40.9596336 31.8183633,40.6253854 32.2396128,40.6306446 C32.6608623,40.6359039 32.9996801,40.9787178 33.0000002,41.4 C33.0001591,41.6095224 32.9149292,41.8100623 32.763971,41.9553595 C32.6130129,42.1006568 32.4093634,42.1781633 32.2,42.17 Z" id="Shape"></path>
                            <path d="M33.73,2.3 L30.67,2.3 C30.3758075,2.26630935 30.0883595,2.404307 29.9306643,2.65493928 C29.7729691,2.90557155 29.7729691,3.22442845 29.9306643,3.47506072 C30.0883595,3.725693 30.3758075,3.86369065 30.67,3.83 L33.74,3.83 C34.034378,3.86170848 34.3208626,3.72181791 34.4768824,3.47018002 C34.6329023,3.21854213 34.6308186,2.89973421 34.4715228,2.6501572 C34.3122271,2.40058019 34.0239383,2.26444631 33.73,2.3 L33.73,2.3 Z" id="Path"></path>
                            <path d="M25.13,14.74 C24.8303477,14.4452107 24.3496523,14.4452107 24.05,14.74 L19.17,19.62 L17.23,17.68 C16.9278586,17.417552 16.4750359,17.4303172 16.1881596,17.7093696 C15.9012832,17.9884221 15.8760049,18.4407189 16.13,18.75 L16.13,18.75 L18.62,21.24 C18.9196523,21.5347893 19.4003477,21.5347893 19.7,21.24 L25.12,15.82 C25.4175815,15.5230847 25.4220326,15.0423747 25.13,14.74 Z" id="Path"></path>
                        </g>
                    </g>
                </g>
            </g>
        </g>
    </g>
</svg>