<?xml version="1.0" encoding="UTF-8"?>
<svg width="46px" height="45px" viewBox="0 0 46 45" version="1.1" xmlns="http://www.w3.org/2000/svg" xmlns:xlink="http://www.w3.org/1999/xlink">
    <!-- Generator: Sketch 62 (91390) - https://sketch.com -->
    <title>icon/bank/atm-3</title>
    <desc>Created with Sketch.</desc>
    <defs>
        <rect id="path-1" x="0" y="0" width="46" height="46"></rect>
    </defs>
    <g id="Page-1" stroke="none" stroke-width="1" fill="none" fill-rule="evenodd">
        <g id="08.-Icon-set" transform="translate(-904.000000, -273.000000)">
            <g id="icon/bank/atm-3" transform="translate(904.000000, 272.000000)">
                <g id="icon/atm-3">
                    <g id="ATM-3">
                        <mask id="mask-2" fill="white">
                            <use xlink:href="#path-1"></use>
                        </mask>
                        <g id="Mask"></g>
                        <g mask="url(#mask-2)" fill="#141ED2" fill-rule="nonzero">
                            <g transform="translate(0.000000, 1.000000)">
                                <path d="M44.3655319,24.6834043 C43.7579992,24.0545897 42.8349114,23.8468949 42.0165957,24.1548936 L42.0165957,2.25106383 C42.0165957,1.00783561 41.0087601,0 39.7655319,0 L2.25106383,0 C1.00783561,0 0,1.00783561 0,2.25106383 L0,35.2340426 C0,36.4772708 1.00783561,37.4851064 2.25106383,37.4851064 L30.1055319,37.4851064 L31.2212766,40.5485106 C30.9492562,40.6681425 30.7729345,40.9364582 30.7710638,41.233617 L30.7710638,44.2382979 C30.7710638,44.6545091 31.1084697,44.9919149 31.5246809,44.9919149 L42.0165957,44.9919149 C42.2164674,44.9919149 42.4081528,44.9125162 42.5494835,44.7711856 C42.6908141,44.629855 42.7702128,44.4381695 42.7702128,44.2382979 L42.7702128,41.272766 C42.7683421,40.9756071 42.5920204,40.7072914 42.32,40.5876596 L45.0212766,33.2765957 C45.0357008,33.1923863 45.0357008,33.1063371 45.0212766,33.0221277 L45.0212766,26.2689362 C45.0271736,25.6732872 44.7904379,25.1008817 44.3655319,24.6834043 L44.3655319,24.6834043 Z M2.25106383,36.0170215 C2.04599935,36.0170215 1.84972628,35.9337605 1.70752047,35.7860142 C1.56531465,35.6382679 1.48945722,35.4389514 1.49744681,35.2340426 L1.49744681,2.25106383 C1.49744681,1.83485264 1.83485264,1.49744681 2.25106383,1.49744681 L39.7655319,1.49744681 C40.1817431,1.49744681 40.5191489,1.83485264 40.5191489,2.25106383 L40.5191489,22.6476596 C40.0095063,22.4479403 39.4432597,22.4479403 38.933617,22.6476596 C38.7823399,22.0780215 38.4099772,21.5923143 37.8991565,21.2983167 C37.3883357,21.0043192 36.7813054,20.926347 36.212766,21.0817021 L35.9876596,21.1502128 L35.9876596,19.5059574 L38.2387234,19.5059574 C38.6549346,19.5059574 38.9923404,19.1685516 38.9923404,18.7523404 L38.9923404,9.78723404 C39.0002812,9.58732182 38.9284029,9.39245665 38.7925471,9.24558547 C38.6566912,9.09871428 38.4680092,9.0118926 38.2680851,9.00425532 L29.2638298,9.00425532 C28.8476186,9.00425532 28.5102128,9.34166115 28.5102128,9.75787234 L28.5102128,18.7621277 C28.5102128,19.1783388 28.8476186,19.5157447 29.2638298,19.5157447 L31.5148936,19.5157447 L31.5148936,23.3425532 C29.7667117,23.7003672 28.5111457,25.2381289 28.5102128,27.0225532 L28.5102128,33.0221277 C28.4957885,33.1063371 28.4957885,33.1923863 28.5102128,33.2765957 L29.4889362,36.0170215 L2.25106383,36.0170215 Z M31.5148936,14.26 L31.5148936,18.0085106 L30.0174468,18.0085106 L30.0174468,10.5017021 L37.5242553,10.5017021 L37.5242553,18.0085106 L36.0170213,18.0085106 L36.0170213,14.26 C36.0170213,13.4557723 35.587971,12.7126353 34.8914894,12.3105215 C34.1950078,11.9084076 33.3369071,11.9084076 32.6404255,12.3105215 C31.9439439,12.7126353 31.5148936,13.4557723 31.5148936,14.26 L31.5148936,14.26 Z M41.3021277,43.5238298 L32.2978723,43.5238298 L32.2978723,42.0165957 L41.3021277,42.0165957 L41.3021277,43.5140426 L41.3021277,43.5238298 Z M43.5531915,32.8851064 L40.773617,40.5191489 L32.787234,40.5191489 L30.0076596,32.8851064 L30.0076596,27.012766 C30.0106682,26.0626888 30.6098469,25.2167895 31.5051064,24.8987234 L31.5051064,29.2638298 L33.0025532,29.2638298 L33.0025532,14.26 C33.0461333,13.8794508 33.3682401,13.5921261 33.7512766,13.5921261 C34.1343131,13.5921261 34.4564199,13.8794508 34.5,14.26 L34.5,29.2638298 L36.0170213,29.2638298 L36.0170213,23.2642553 C36.0606014,22.8837061 36.3827082,22.5963814 36.7657447,22.5963814 C37.1487812,22.5963814 37.4708879,22.8837061 37.5144681,23.2642553 L37.5144681,29.2638298 L39.0119149,29.2638298 L39.0119149,24.7617021 C39.0119149,24.3454909 39.3493207,24.0080851 39.7655319,24.0080851 C39.9683599,24.0055213 40.1632073,24.0870029 40.3038298,24.2331915 C40.4424525,24.3700991 40.5200689,24.5570839 40.5191489,24.7519149 L40.5191489,29.2540426 L42.0165957,29.2540426 L42.0165957,26.2591489 C42.0165957,26.0592773 42.0959945,25.8675918 42.2373251,25.7262612 C42.3786557,25.5849306 42.5703411,25.5055319 42.7702128,25.5055319 C42.9730408,25.5029681 43.1678882,25.5844497 43.3085106,25.7306383 C43.4471334,25.8675459 43.5247497,26.0545307 43.5238298,26.2493617 L43.5238298,32.8851064 L43.5531915,32.8851064 Z" id="Shape"></path>
                                <path d="M8.2506383,16.5110638 L5.25574468,16.5110638 C4.83953349,16.5110638 4.50212766,16.8484697 4.50212766,17.2646809 L4.50212766,20.2595745 C4.50212766,20.6757857 4.83953349,21.0131915 5.25574468,21.0131915 L8.2506383,21.0131915 C8.66684949,21.0131915 9.00425532,20.6757857 9.00425532,20.2595745 L9.00425532,17.2548936 C8.99889923,16.8425096 8.6630571,16.5110638 8.2506383,16.5110638 Z M7.50680851,19.5059574 L5.99957447,19.5059574 L5.99957447,18.0085106 L7.50680851,18.0085106 L7.50680851,19.5059574 Z" id="Shape"></path>
                                <path d="M15.7574468,16.5110638 L12.7234043,16.5110638 C12.3071931,16.5110638 11.9697872,16.8484697 11.9697872,17.2646809 L11.9697872,20.2595745 C11.9697872,20.6757857 12.3071931,21.0131915 12.7234043,21.0131915 L15.7574468,21.0131915 C16.173658,21.0131915 16.5110638,20.6757857 16.5110638,20.2595745 L16.5110638,17.2548936 C16.5057077,16.8425096 16.1698656,16.5110638 15.7574468,16.5110638 Z M15.0038298,19.5157447 L13.506383,19.5157447 L13.506383,18.0085106 L15.0038298,18.0085106 L15.0038298,19.5059574 L15.0038298,19.5157447 Z" id="Shape"></path>
                                <path d="M23.2642553,16.5110638 L20.2595745,16.5110638 C19.8433633,16.5110638 19.5059574,16.8484697 19.5059574,17.2646809 L19.5059574,20.2595745 C19.5059574,20.6757857 19.8433633,21.0131915 20.2595745,21.0131915 L23.2642553,21.0131915 C23.6804665,21.0131915 24.0178723,20.6757857 24.0178723,20.2595745 L24.0178723,17.2548936 C24.0125163,16.8425096 23.6766741,16.5110638 23.2642553,16.5110638 Z M22.5106383,19.5059574 L21.0131915,19.5059574 L21.0131915,18.0085106 L22.5106383,18.0085106 L22.5106383,19.5059574 Z" id="Shape"></path>
                                <path d="M8.2506383,22.5106383 L5.25574468,22.5106383 C4.83953349,22.5106383 4.50212766,22.8480441 4.50212766,23.2642553 L4.50212766,26.2689362 C4.50212766,26.6851474 4.83953349,27.0225532 5.25574468,27.0225532 L8.2506383,27.0225532 C8.66684949,27.0225532 9.00425532,26.6851474 9.00425532,26.2689362 L9.00425532,23.2642553 C9.00425532,22.8480441 8.66684949,22.5106383 8.2506383,22.5106383 Z M7.50680851,25.5153191 L5.99957447,25.5153191 L5.99957447,24.0080851 L7.50680851,24.0080851 L7.50680851,25.5055319 L7.50680851,25.5153191 Z" id="Shape"></path>
                                <path d="M15.7574468,22.5106383 L12.7234043,22.5106383 C12.3071931,22.5106383 11.9697872,22.8480441 11.9697872,23.2642553 L11.9697872,26.2689362 C11.9697872,26.6851474 12.3071931,27.0225532 12.7234043,27.0225532 L15.7574468,27.0225532 C16.173658,27.0225532 16.5110638,26.6851474 16.5110638,26.2689362 L16.5110638,23.2642553 C16.5110638,22.8480441 16.173658,22.5106383 15.7574468,22.5106383 Z M15.0038298,25.5153191 L13.506383,25.5153191 L13.506383,24.0080851 L15.0038298,24.0080851 L15.0038298,25.5055319 L15.0038298,25.5153191 Z" id="Shape"></path>
                                <path d="M23.2642553,22.5106383 L20.2595745,22.5106383 C19.8433633,22.5106383 19.5059574,22.8480441 19.5059574,23.2642553 L19.5059574,26.2689362 C19.5059574,26.6851474 19.8433633,27.0225532 20.2595745,27.0225532 L23.2642553,27.0225532 C23.6804665,27.0225532 24.0178723,26.6851474 24.0178723,26.2689362 L24.0178723,23.2642553 C24.0178723,22.8480441 23.6804665,22.5106383 23.2642553,22.5106383 Z M22.5106383,25.5153191 L21.0131915,25.5153191 L21.0131915,24.0080851 L22.5106383,24.0080851 L22.5106383,25.5055319 L22.5106383,25.5153191 Z" id="Shape"></path>
                                <path d="M8.2506383,28.5102128 L5.25574468,28.5102128 C4.83953349,28.5102128 4.50212766,28.8476186 4.50212766,29.2638298 L4.50212766,32.2978723 C4.50212766,32.497744 4.58152637,32.6894294 4.72285697,32.83076 C4.86418758,32.9720907 5.05587302,33.0514894 5.25574468,33.0514894 L8.2506383,33.0514894 C8.45050996,33.0514894 8.6421954,32.9720907 8.783526,32.83076 C8.92485661,32.6894294 9.00425532,32.497744 9.00425532,32.2978723 L9.00425532,29.2638298 C9.00425532,28.8476186 8.66684949,28.5102128 8.2506383,28.5102128 L8.2506383,28.5102128 Z M7.50680851,31.5148936 L5.99957447,31.5148936 L5.99957447,30.0174468 L7.50680851,30.0174468 L7.50680851,31.5148936 Z" id="Shape"></path>
                                <path d="M15.7574468,28.5102128 L12.7234043,28.5102128 C12.3071931,28.5102128 11.9697872,28.8476186 11.9697872,29.2638298 L11.9697872,32.2978723 C11.9697872,32.497744 12.0491859,32.6894294 12.1905165,32.83076 C12.3318472,32.9720907 12.5235326,33.0514894 12.7234043,33.0514894 L15.7574468,33.0514894 C15.9573185,33.0514894 16.1490039,32.9720907 16.2903345,32.83076 C16.4316651,32.6894294 16.5110638,32.497744 16.5110638,32.2978723 L16.5110638,29.2638298 C16.5110638,28.8476186 16.173658,28.5102128 15.7574468,28.5102128 L15.7574468,28.5102128 Z M15.0038298,31.5148936 L13.506383,31.5148936 L13.506383,30.0174468 L15.0038298,30.0174468 L15.0038298,31.5148936 Z" id="Shape"></path>
                                <path d="M23.2642553,28.5102128 L20.2595745,28.5102128 C19.8433633,28.5102128 19.5059574,28.8476186 19.5059574,29.2638298 L19.5059574,32.2978723 C19.5059574,32.497744 19.5853562,32.6894294 19.7266868,32.83076 C19.8680174,32.9720907 20.0597028,33.0514894 20.2595745,33.0514894 L23.2642553,33.0514894 C23.6766393,33.0461333 24.0080851,32.7102911 24.0080851,32.2978723 L24.0080851,29.2638298 C24.0080851,28.851411 23.6766393,28.5155689 23.2642553,28.5102128 L23.2642553,28.5102128 Z M22.5106383,31.5148936 L21.0131915,31.5148936 L21.0131915,30.0174468 L22.5106383,30.0174468 L22.5106383,31.5148936 Z" id="Shape"></path>
                                <path d="M23.2642553,4.50212766 L5.25574468,4.50212766 C4.83953349,4.50212766 4.50212766,4.83953349 4.50212766,5.25574468 L4.50212766,14.26 C4.50212766,14.6762112 4.83953349,15.013617 5.25574468,15.013617 L23.2642553,15.013617 C23.6804665,15.013617 24.0178723,14.6762112 24.0178723,14.26 L24.0178723,5.25574468 C24.0178723,4.83953349 23.6804665,4.50212766 23.2642553,4.50212766 Z M22.5106383,13.506383 L5.99957447,13.506383 L5.99957447,5.99957447 L22.5106383,5.99957447 L22.5106383,13.506383 Z" id="Shape"></path>
                                <rect id="Rectangle" x="31.5148936" y="4.50212766" width="7.50680851" height="1.49744681"></rect>
                                <rect id="Rectangle" x="28.5102128" y="4.50212766" width="1.49744681" height="1.49744681"></rect>
                                <path d="M19.5059574,11.2553191 L21.0034043,11.2553191 L21.0034043,8.2506383 C21.0034043,7.83442711 20.6659984,7.49702128 20.2497872,7.49702128 L17.2548936,7.49702128 L17.2548936,9.00425532 L19.5059574,9.00425532 L19.5059574,11.2553191 Z" id="Path"></path>
                            </g>
                        </g>
                    </g>
                </g>
            </g>
        </g>
    </g>
</svg>