<?xml version="1.0" encoding="UTF-8"?>
<svg width="46px" height="46px" viewBox="0 0 46 46" version="1.1" xmlns="http://www.w3.org/2000/svg" xmlns:xlink="http://www.w3.org/1999/xlink">
    <!-- Generator: Sketch 62 (91390) - https://sketch.com -->
    <title>icon/bank/atm-2</title>
    <desc>Created with Sketch.</desc>
    <defs>
        <rect id="path-1" x="0" y="0" width="46" height="46"></rect>
    </defs>
    <g id="Page-1" stroke="none" stroke-width="1" fill="none" fill-rule="evenodd">
        <g id="08.-Icon-set" transform="translate(-818.000000, -272.000000)">
            <g id="icon/bank/atm-2" transform="translate(818.000000, 272.000000)">
                <g id="icon/atm-2">
                    <g id="ATM-2">
                        <mask id="mask-2" fill="white">
                            <use xlink:href="#path-1"></use>
                        </mask>
                        <g id="Mask"></g>
                        <g mask="url(#mask-2)" fill="#141ED2" fill-rule="nonzero">
                            <path d="M13.4280851,32.9144681 C13.2968893,32.6473545 13.0207888,32.4824612 12.7234043,32.493617 L10.4723404,32.493617 L10.4723404,24.2429787 C10.4739586,23.8521179 10.17648,23.5248915 9.78723404,23.4893617 L3.74851064,23.4893617 C3.33229945,23.4893617 2.99489362,23.8267675 2.99489362,24.2429787 L2.99489362,32.493617 L0.753617021,32.493617 C0.464519669,32.494397 0.201349054,32.6604889 0.0762471927,32.9211178 C-0.0488546685,33.1817467 -0.0138352607,33.4909698 0.166382979,33.7170213 L6.16595745,41.2140426 C6.30900721,41.3918925 6.52495077,41.4953305 6.75319149,41.4953305 C6.98143221,41.4953305 7.19737577,41.3918925 7.34042553,41.2140426 L13.34,33.707234 C13.5182643,33.4814503 13.5524392,33.1738761 13.4280851,32.9144681 Z M6.75319149,39.5502128 L2.30978723,33.9910638 L3.74851064,33.9910638 C4.14990049,33.9916058 4.48127659,33.677444 4.50212766,33.2765957 L4.50212766,24.9868085 L9.00425532,24.9868085 L9.00425532,33.2765957 C9.00425532,33.4764674 9.08365403,33.6681528 9.22498463,33.8094835 C9.36631524,33.9508141 9.55800068,34.0302128 9.75787234,34.0302128 L11.1965957,34.0302128 L6.75319149,39.5502128 Z" id="Shape"></path>
                            <path d="M9.78723404,17.4897872 L3.74851064,17.4897872 C3.33229945,17.4897872 2.99489362,17.8271931 2.99489362,18.2434043 L2.99489362,21.2382979 C2.99489362,21.6545091 3.33229945,21.9919149 3.74851064,21.9919149 L9.78723404,21.9919149 C10.2034452,21.9919149 10.5408511,21.6545091 10.5408511,21.2382979 L10.5408511,18.233617 C10.535495,17.821233 10.1996528,17.4897872 9.78723404,17.4897872 Z M9.00425532,20.4846809 L4.50212766,20.4846809 L4.50212766,18.987234 L9.00425532,18.987234 L9.00425532,20.4846809 Z" id="Shape"></path>
                            <path d="M9.78723404,11.4804255 L3.74851064,11.4804255 C3.33229945,11.4804255 2.99489362,11.8178314 2.99489362,12.2340426 L2.99489362,15.2387234 C2.99489362,15.6549346 3.33229945,15.9923404 3.74851064,15.9923404 L9.78723404,15.9923404 C10.2034452,15.9923404 10.5408511,15.6549346 10.5408511,15.2387234 L10.5408511,12.2340426 C10.5408511,11.8178314 10.2034452,11.4804255 9.78723404,11.4804255 Z M9.00425532,14.4851064 L4.50212766,14.4851064 L4.50212766,12.9876596 L9.00425532,12.9876596 L9.00425532,14.4851064 Z" id="Shape"></path>
                            <path d="M9.78723404,5.48085106 L3.74851064,5.48085106 C3.33229945,5.48085106 2.99489362,5.8182569 2.99489362,6.23446809 L2.99489362,9.2293617 C2.99489362,9.64557289 3.33229945,9.98297872 3.74851064,9.98297872 L9.78723404,9.98297872 C10.2034452,9.98297872 10.5408511,9.64557289 10.5408511,9.2293617 L10.5408511,6.23446809 C10.5408511,5.8182569 10.2034452,5.48085106 9.78723404,5.48085106 Z M9.00425532,8.48553191 L4.50212766,8.48553191 L4.50212766,6.97829787 L9.00425532,6.97829787 L9.00425532,8.48553191 Z" id="Shape"></path>
                            <path d="M43.9251064,26.5821277 L38.2680851,20.9251064 L38.2680851,11.4804255 C40.1981116,11.5637705 42.018291,10.5815918 43.0081699,8.92264986 C43.9980488,7.2637079 43.9980488,5.19544103 43.0081699,3.53649908 C42.018291,1.87755712 40.1981116,0.8953784 38.2680851,0.978723404 L18.7621277,0.978723404 C16.8321011,0.8953784 15.0119218,1.87755712 14.0220429,3.53649908 C13.0321639,5.19544103 13.0321639,7.2637079 14.0220429,8.92264986 C15.0119218,10.5815918 16.8321011,11.5637705 18.7621277,11.4804255 L18.7621277,27.2378723 C18.7621277,28.4811006 19.7699633,29.4889362 21.0131915,29.4889362 L29.7042553,29.4889362 L30.6046809,30.3893617 C29.9611725,31.7901541 29.7597464,33.3537671 30.027234,34.8719149 C30.4297918,36.9115443 31.6269887,38.7073396 33.3548936,39.8634043 L34.1770213,38.6106383 C32.7890465,37.6807392 31.8277925,36.2370978 31.5051064,34.5978723 C31.2658036,33.2266853 31.5005287,31.8148826 32.1706383,30.5948936 C32.3295264,30.3024856 32.2778111,29.9404783 32.0434043,29.7042553 L30.5459574,28.2068085 L26.8365957,24.4680851 C26.3720263,24.0023868 26.221268,23.3087537 26.4506217,22.692234 C26.6799754,22.0757144 27.2474206,21.6492628 27.9034043,21.6004255 C28.3720741,21.5640211 28.8342734,21.7275686 29.1757447,22.0506383 L38.512766,30.7612766 L39.4914894,29.6651064 L37.9646809,28.2361702 C38.1344759,27.9199887 38.2251469,27.5673794 38.2289362,27.2085106 L38.2289362,23.0489362 L42.8191489,27.6391489 C43.2417913,28.0621553 43.4778763,28.6365115 43.4748936,29.2344681 L43.4748936,46 L45.0212946,46 L45.0212946,29.2344681 C45.024367,28.2395199 44.6297122,27.2845962 43.9251064,26.5821277 Z M36.7706383,10.7659574 L36.7706383,27.1106383 L30.193617,20.9740426 C29.3754028,20.1838015 28.1977531,19.8901007 27.1042771,20.2035744 C26.0108012,20.5170482 25.167624,21.3900724 24.8923622,22.4937872 C24.6171005,23.597502 24.951573,24.764227 25.7697872,25.5544681 L28.2068085,27.9914894 L21.0131915,27.9914894 C20.5969803,27.9914894 20.2595745,27.6540835 20.2595745,27.2378723 L20.2595745,6.97829787 L36.7706383,6.97829787 L36.7706383,10.7659574 Z M37.5144681,5.48085106 L19.5059574,5.48085106 C19.0897463,5.48085106 18.7523404,5.8182569 18.7523404,6.23446809 L18.7523404,9.98297872 C17.4113782,9.98297872 16.172278,9.26758395 15.5017969,8.10627662 C14.8313158,6.94496929 14.8313158,5.51417965 15.5017969,4.35287232 C16.172278,3.19156499 17.4113782,2.47617021 18.7523404,2.47617021 L38.2680851,2.47617021 C39.6090473,2.47617021 40.8481475,3.19156499 41.5186286,4.35287232 C42.1891097,5.51417965 42.1891097,6.94496929 41.5186286,8.10627662 C40.8481475,9.26758395 39.6090473,9.98297872 38.2680851,9.98297872 L38.2680851,6.23446809 C38.2680851,5.8182569 37.9306793,5.48085106 37.5144681,5.48085106 Z" id="Shape"></path>
                            <path d="M29.146383,40.3429787 C28.3558815,39.0989136 27.8789815,37.6816473 27.7565957,36.212766 L26.2591489,36.3302128 C26.5248429,39.6431092 28.3388236,42.6361774 31.152766,44.4046809 L31.9553191,43.1421277 C30.8248667,42.4266055 29.8658465,41.4709268 29.146383,40.3429787 L29.146383,40.3429787 Z" id="Path"></path>
                            <path d="M32.2978723,8.48553191 L30.7612766,8.48553191 C29.5180484,8.48553191 28.5102128,9.49336752 28.5102128,10.7365957 L28.5102128,13.7021277 C28.5102128,14.9453559 29.5180484,15.9531915 30.7612766,15.9531915 L32.2978723,15.9531915 C33.5411006,15.9531915 34.5489362,14.9453559 34.5489362,13.7021277 L34.5489362,10.7659574 C34.5567902,10.1638672 34.323097,9.58372826 33.9000864,9.1552001 C33.4770757,8.72667194 32.9000138,8.48553191 32.2978723,8.48553191 Z M33.0123404,13.7021277 C33.0123404,13.9019993 32.9329417,14.0936848 32.7916111,14.2350154 C32.6502805,14.376346 32.4585951,14.4557447 32.2587234,14.4557447 L30.7612766,14.4557447 C30.3488926,14.4503886 30.017412,14.1145465 30.0174468,13.7021277 L30.0174468,10.7659574 C30.0174468,10.3497463 30.3548526,10.0123404 30.7710638,10.0123404 L32.2978723,10.0123404 C32.497744,10.0123404 32.6894294,10.0917391 32.83076,10.2330697 C32.9720907,10.3744003 33.0514894,10.5660858 33.0514894,10.7659574 L33.0514894,13.7021277 L33.0123404,13.7021277 Z" id="Shape"></path>
                            <rect id="Rectangle" x="22.5106383" y="8.48553191" width="1.49744681" height="3.74851064"></rect>
                            <rect id="Rectangle" x="22.5106383" y="15.2387234" width="1.49744681" height="3.74851064"></rect>
                            <rect id="Rectangle" x="22.5106383" y="21.9919149" width="1.49744681" height="4.50212766"></rect>
                        </g>
                    </g>
                </g>
            </g>
        </g>
    </g>
</svg>