<?xml version="1.0" encoding="UTF-8"?>
<svg width="46px" height="37px" viewBox="0 0 46 37" version="1.1" xmlns="http://www.w3.org/2000/svg" xmlns:xlink="http://www.w3.org/1999/xlink">
    <!-- Generator: Sketch 62 (91390) - https://sketch.com -->
    <title>icon/bank/bieu-do</title>
    <desc>Created with Sketch.</desc>
    <defs>
        <rect id="path-1" x="0" y="0" width="46" height="46"></rect>
    </defs>
    <g id="Page-1" stroke="none" stroke-width="1" fill="none" fill-rule="evenodd">
        <g id="08.-Icon-set" transform="translate(-474.000000, -191.000000)">
            <g id="icon/bank/bieu-do" transform="translate(474.000000, 186.000000)">
                <g id="icon/bieu-do">
                    <g id="graph-copy">
                        <mask id="mask-2" fill="white">
                            <use xlink:href="#path-1"></use>
                        </mask>
                        <g id="Mask"></g>
                        <g id="graph" mask="url(#mask-2)" fill="#141ED2" fill-rule="nonzero">
                            <g transform="translate(0.000000, 5.000000)">
                                <path d="M23.2461334,13.9003112 C23.4416001,13.9006793 23.6293073,13.8253008 23.7700877,13.6896934 L28.6552787,9.00366438 L33.7163527,12.9902255 C33.9894149,13.2056454 34.3740669,13.2067539 34.6489766,12.993551 L41.7127535,7.50385422 L41.47036,10.6549705 C41.4382132,11.0717691 41.7500733,11.4353595 42.166872,11.4675062 C42.1864556,11.4689842 42.2060392,11.4697232 42.2256228,11.4697232 C42.6206208,11.4693537 42.9491085,11.1648837 42.9794077,10.7709943 L43.3533441,5.90945145 C43.3684936,5.70881164 43.3034612,5.51001941 43.1719185,5.35741495 C43.0403755,5.20481049 42.8534074,5.11095684 42.6527676,5.09654623 L37.4172884,4.72260982 C37.0019678,4.69526669 36.642442,5.00860471 36.6128818,5.42392538 C36.5829521,5.83887647 36.8940731,6.20024984 37.3093937,6.23239657 L40.5813373,6.46592207 L34.1878377,11.43499 L29.0742943,7.40741412 C28.7779534,7.17388862 28.3548732,7.19458075 28.0825499,7.45581886 L22.7221791,12.597814 C22.4993691,12.8117558 22.4287941,13.1395044 22.5440789,13.4262383 C22.6593636,13.7126026 22.9372294,13.9003112 23.2461334,13.9003112 Z" id="Path"></path>
                                <path d="M44.8324621,35.4496883 L41.242377,35.4496883 L41.242377,16.1055 C41.242377,15.6875928 40.8713966,15.3960555 40.4534894,15.3960555 L33.1491665,15.3960555 C32.7312594,15.3960555 32.3506719,15.6875928 32.3506719,16.1055 L32.3506719,35.4496883 L27.7156341,35.4496883 L27.7156341,19.7728111 C27.7060271,19.3449273 27.3616508,19.0005511 26.9337671,18.9905746 L19.6298136,18.9905746 C19.2115369,18.9905746 18.9185216,19.3549038 18.9185216,19.7728111 L18.9185216,35.4496883 L14.1888912,35.4496883 L14.1888912,26.6015844 C14.1837181,26.1714836 13.8437759,25.820087 13.4140447,25.8012423 L6.10972178,25.8012423 C5.69181457,25.8012423 5.39177865,26.1836773 5.39177865,26.6015844 L5.39177865,35.4496883 L1.51348173,35.4496883 L1.51348173,0.801820105 C1.51348173,0.383912991 1.17464807,0.0450792424 0.756740863,0.0450792424 C0.338833654,0.0450792424 0,0.383912991 0,0.801820105 L0,36.2334028 C0.00221701425,36.4318256 0.0838770626,36.6210108 0.227243984,36.7584657 C0.370241332,36.8955511 0.56275214,36.9694516 0.761174891,36.96317 L44.8324621,36.96317 C45.2503693,36.96317 45.5892029,36.6243364 45.5892029,36.2064292 C45.5892029,35.788522 45.2503693,35.4496883 44.8324621,35.4496883 Z M6.90526037,35.4496883 L6.90526037,27.314724 L12.6754094,27.314724 L12.6754094,35.4496883 L6.90526037,35.4496883 Z M20.4320033,35.4496883 L20.4320033,20.5040563 L26.2021524,20.5040563 L26.2021524,35.4496883 L20.4320033,35.4496883 Z M33.8641536,35.4496883 L33.8641536,16.9095372 L39.7288953,16.9095372 L39.7288953,35.4496883 L33.8641536,35.4496883 Z" id="Shape"></path>
                                <path d="M11.7948853,15.4754984 C10.9671999,15.47439 10.2961836,14.8033736 10.2950752,13.9756883 C10.2950752,13.5577811 9.95624145,13.2189475 9.53833434,13.2189475 C9.12042713,13.2189475 8.78159348,13.5577811 8.78159348,13.9756883 C8.78344096,15.322155 9.67763671,16.5049321 10.9727425,16.874065 L10.9727425,17.5716854 C10.9727425,17.9895926 11.3115762,18.3284263 11.7294834,18.3284263 C12.1473906,18.3284263 12.4862242,17.9895926 12.4862242,17.5716854 L12.4862242,16.9080592 C13.9749493,16.5570319 14.9648462,15.1466413 14.7878545,13.6272476 C14.6112324,12.1082233 13.3246251,10.962027 11.7948853,10.9623964 C10.966461,10.9623964 10.2950752,10.2906411 10.2950752,9.46258628 C10.2950752,8.634162 10.966461,7.96240664 11.7948853,7.96277621 C12.6233096,7.96277621 13.2946954,8.634162 13.2946954,9.46258628 C13.2946954,9.88049349 13.6335291,10.2193271 14.0514363,10.2193271 C14.4693435,10.2193271 14.8081772,9.88049349 14.8081772,9.46258628 C14.8063297,8.02891707 13.7964796,6.79477914 12.3916316,6.50878435 L12.3916316,5.84220206 C12.3916316,5.42429486 12.052798,5.0854612 11.6348908,5.0854612 C11.2169836,5.0854612 10.8781499,5.42429486 10.8781499,5.84220206 L10.8781499,6.59229184 C9.46332533,7.04382379 8.58834371,8.45938741 8.8170657,9.92668126 C9.0457876,11.3943447 10.3098553,12.4762476 11.7948853,12.4758782 C12.6233096,12.4758782 13.2946954,13.1476335 13.2946954,13.9756883 C13.2946954,14.8041126 12.6233096,15.4754984 11.7948853,15.4754984 Z" id="Path"></path>
                                <path d="M11.7948853,21.0923041 C16.9424229,21.0923041 21.1152132,16.9195138 21.1152132,11.7723456 C21.1152132,6.62480805 16.9424229,2.45201776 11.7948853,2.45201776 C6.64734776,2.45201776 2.47455738,6.62480805 2.47455738,11.7723456 C2.48046942,16.9172967 6.64993421,21.0867615 11.7948853,21.0923041 Z M11.7948853,3.96549948 C16.1066085,3.96549948 19.6017314,7.46062246 19.6017314,11.7723456 C19.6017314,16.0836994 16.1066085,19.5788223 11.7948853,19.5788223 C7.48353156,19.5788223 3.9880391,16.0836994 3.9880391,11.7723456 C3.99321218,7.46283943 7.48537905,3.97030299 11.7948853,3.96549948 Z" id="Shape"></path>
                            </g>
                        </g>
                    </g>
                </g>
            </g>
        </g>
    </g>
</svg>