<?xml version="1.0" encoding="UTF-8"?>
<svg width="43px" height="46px" viewBox="0 0 43 46" version="1.1" xmlns="http://www.w3.org/2000/svg" xmlns:xlink="http://www.w3.org/1999/xlink">
    <!-- Generator: Sketch 62 (91390) - https://sketch.com -->
    <title>icon/bank/dich-vu-khac</title>
    <desc>Created with Sketch.</desc>
    <defs>
        <rect id="path-1" x="0" y="0" width="46" height="46"></rect>
    </defs>
    <g id="Page-1" stroke="none" stroke-width="1" fill="none" fill-rule="evenodd">
        <g id="08.-Icon-set" transform="translate(-820.000000, -100.000000)">
            <g id="icon/bank/dich-vu-khac" transform="translate(818.000000, 100.000000)">
                <g id="icon/dich-vu-khac">
                    <g id="Dich-vu-khac">
                        <mask id="mask-2" fill="white">
                            <use xlink:href="#path-1"></use>
                        </mask>
                        <g id="Mask"></g>
                        <g mask="url(#mask-2)" fill="#141ED2" fill-rule="nonzero">
                            <g transform="translate(2.000000, 0.000000)">
                                <path d="M28.18,35.64 L23.62,37.94 C22.9039872,36.748086 21.6203779,36.0135131 20.23,36 L15.86,36 C15.1884927,36.0009139 14.5254081,35.8505235 13.92,35.56 L13.47,35.35 C11.1909714,34.2467793 8.52421348,34.2875781 6.28,35.46 L6.28,34.71 C6.28055372,34.2998843 5.95956237,33.9613044 5.55,33.94 L1.68,33.94 C1.27909977,33.9667807 0.972817569,34.3085738 0.99,34.71 L0.99,45.22 C0.967176521,45.6252279 1.27501442,45.9732186 1.68,46 L5.55,46 C5.96345855,45.9785352 6.28593362,45.6339728 6.28,45.22 L6.28,44.79 L7.44,44.13 C7.89039341,43.8687085 8.42493319,43.7933707 8.93,43.92 L16.41,45.8 L16.41,45.8 C16.8851289,45.8864391 17.3670723,45.9299479 17.85,45.93 C19.1050901,45.9310754 20.3436371,45.6436777 21.47,45.09 L21.62,45 L32.2,37.74 C32.5305074,37.5193827 32.6238423,37.0749307 32.41,36.74 C31.5153088,35.3089288 29.6584976,34.8260701 28.18,35.64 Z M4.82,44.54 L2.44,44.54 L2.44,35.4 L4.82,35.4 L4.82,44.54 Z M20.82,43.82 C19.5532144,44.4324615 18.1261355,44.6318329 16.74,44.39 L9.28,42.52 C8.4072321,42.2963024 7.48162833,42.4218688 6.7,42.87 L6.26,43.12 L6.26,37.22 C8.19301434,35.8832237 10.6964775,35.6921196 12.81,36.72 L13.26,36.93 C14.0654939,37.3147381 14.9473439,37.5129834 15.84,37.51 L20.21,37.51 C21.3355306,37.502429 22.3250209,38.2537847 22.62,39.34 L16.3,39.34 C15.8968321,39.34 15.57,39.6668321 15.57,40.07 C15.57,40.4731679 15.8968321,40.8 16.3,40.8 L23.48,40.8 C23.6853697,40.7979017 23.88063,40.7105474 24.0190668,40.5588359 C24.1575035,40.4071244 24.2266632,40.2047033 24.21,40 C24.21149,39.7586918 24.1914101,39.5177332 24.15,39.28 L28.85,36.89 L28.85,36.89 C29.4277924,36.5756428 30.1342744,36.6183422 30.67,37 L20.82,43.82 Z" id="Shape"></path>
                                <path d="M42.32,-2.52402266e-16 L36.62,-2.52402266e-16 C36.4301741,-0.0110232066 36.244213,0.0567769421 36.1060271,0.187391011 C35.9678412,0.31800508 35.8896802,0.499854594 35.89,0.69 L35.89,1.15 L34.73,1.81 C34.2782424,2.0679006 33.7437766,2.13964097 33.24,2.01 L25.75,0.14 L25.75,0.14 C24.0307761,-0.168989525 22.2577946,0.0797885117 20.69,0.85 L20.6,0.9 L10,8.16 C9.66949263,8.38061726 9.5761577,8.82506931 9.79,9.16 C10.670596,10.5941406 12.5160943,11.0938717 14,10.3 L18.55,8 C19.2757572,9.17657936 20.5575971,9.89501469 21.94,9.9 L26.31,9.9 C26.9814692,9.89942823 27.6444787,10.0498015 28.25,10.34 L28.7,10.55 C29.7879506,11.0769187 30.981166,11.3504351 32.19,11.35 C33.4782894,11.346349 34.746983,11.0343189 35.89,10.44 L35.89,11.23 C35.8894463,11.6401157 36.2104376,11.9786956 36.62,12 L42.32,12 C42.7169191,11.9680949 43.0174234,11.627818 43,11.23 L43,0.72 C43.0173413,0.531281469 42.9527221,0.344214487 42.8225976,0.206435606 C42.6924731,0.0686567256 42.5094008,-0.00653790701 42.32,-1.79110199e-16 L42.32,-2.52402266e-16 Z M29.32,9.2 L28.89,9 C28.0838364,8.61719955 27.2024321,8.41905442 26.31,8.42 L21.94,8.42 C20.8144694,8.427571 19.8249791,7.67621533 19.53,6.59 L25.87,6.59 C26.2731679,6.58999999 26.6,6.26316786 26.6,5.86 C26.6,5.45683214 26.2731679,5.13000001 25.87,5.13 L18.69,5.13 C18.2852199,5.1354705 17.959963,5.46518289 17.96,5.87 C17.9585633,6.11130617 17.9786428,6.35225999 18.02,6.59 L13.33,9 L13.33,9 C12.7522076,9.31435724 12.0457256,9.27165778 11.51,8.89 L21.36,2.13 C22.6267856,1.51753846 24.0538645,1.31816714 25.44,1.56 L32.9,3.43 C33.7727679,3.6536976 34.6983717,3.5281312 35.48,3.08 L35.92,2.83 L35.92,8.73 C33.9798979,10.0783337 31.4615633,10.2696965 29.34,9.23 L29.32,9.2 Z M41.53,10.51 L37.33,10.51 L37.33,1.51 L41.53,1.51 L41.53,10.51 Z" id="Shape"></path>
                                <path d="M39.48,9.93 C40.639798,9.93 41.58,8.98979797 41.58,7.83 C41.58,6.67020203 40.639798,5.73 39.48,5.73 C38.320202,5.73 37.38,6.67020203 37.38,7.83 C37.38,8.38695463 37.6012494,8.92109785 37.9950758,9.31492424 C38.3889022,9.70875064 38.9230454,9.93 39.48,9.93 L39.48,9.93 Z M39.48,7.19 C39.7388558,7.19 39.9722231,7.34593099 40.0712829,7.5850826 C40.1703427,7.82423421 40.1155871,8.09950962 39.9325483,8.28254834 C39.7495096,8.46558706 39.4742342,8.52034274 39.2350826,8.4212829 C38.995931,8.32222306 38.84,8.08885584 38.84,7.83 C38.84,7.47653776 39.1265378,7.19 39.48,7.19 L39.48,7.19 Z" id="Shape"></path>
                                <path d="M21.09,10.5899959 C14.2484985,10.5844871 8.6973805,16.1251723 8.69001599,22.9666721 C8.68266612,29.8081718 14.2218547,35.3607833 21.0633522,35.3699962 C27.9048497,35.3791863 33.4589542,29.8414948 33.4700041,23 C33.4755286,16.1555684 27.934425,10.6010372 21.09,10.5899959 Z M21.09,33.9000046 C16.670546,33.9040397 12.6843885,31.243865 10.992206,27.1612056 C9.30002343,23.0785462 10.2354938,18.3784529 13.3619535,15.2548589 C16.4884132,12.1312649 21.1893622,11.200105 25.2704682,12.8960307 C29.3515742,14.5919563 32.0080924,18.5805516 32.0000184,23 C31.9889783,29.0192359 27.1092435,33.894498 21.09,33.9000046 Z" id="Shape"></path>
                                <path d="M21.09,18.05 C22.3547321,18.05 23.38,19.0752679 23.38,20.34 C23.38,20.7431679 23.7068321,21.07 24.11,21.07 C24.5131679,21.07 24.84,20.7431679 24.84,20.34 C24.8375783,18.5177455 23.5255217,16.9609968 21.73,16.65 L21.73,15.65 C21.73,15.2468321 21.4031679,14.92 21,14.92 C20.5968321,14.92 20.27,15.2468321 20.27,15.65 L20.27,16.65 C18.403172,17.0665334 17.1490038,18.8213358 17.359385,20.7224635 C17.5697662,22.6235911 19.177268,24.0617175 21.09,24.06 C22.0162185,24.06 22.8512356,24.6179406 23.2056841,25.4736549 C23.5601326,26.3293693 23.3642099,27.3143391 22.7092745,27.9692745 C22.0543391,28.6242099 21.0693693,28.8201326 20.2136549,28.4656841 C19.3579406,28.1112356 18.8,27.2762185 18.8,26.35 C18.8,25.9468321 18.4731679,25.62 18.07,25.62 C17.6668321,25.62 17.34,25.9468321 17.34,26.35 C17.3469598,28.0973637 18.5567827,29.6096423 20.26,30 L20.26,31.2 C20.26,31.6031679 20.5868321,31.93 20.99,31.93 C21.3931679,31.93 21.72,31.6031679 21.72,31.2 L21.72,30.07 C23.6249912,29.7253704 24.9545479,27.9872953 24.7886304,26.0585049 C24.622713,24.1297145 23.0158612,22.6442337 21.08,22.63 C19.8152679,22.6272385 18.7922386,21.5997321 18.795,20.335 C18.7977615,19.0702679 19.8252679,18.0472386 21.09,18.05 L21.09,18.05 Z" id="Path"></path>
                            </g>
                        </g>
                    </g>
                </g>
            </g>
        </g>
    </g>
</svg>