<?xml version="1.0" encoding="UTF-8"?>
<svg width="46px" height="46px" viewBox="0 0 46 46" version="1.1" xmlns="http://www.w3.org/2000/svg" xmlns:xlink="http://www.w3.org/1999/xlink">
    <!-- Generator: Sketch 62 (91390) - https://sketch.com -->
    <title>icon/bank/ket-sat</title>
    <desc>Created with Sketch.</desc>
    <g id="Page-1" stroke="none" stroke-width="1" fill="none" fill-rule="evenodd">
        <g id="08.-Icon-set" transform="translate(-732.000000, -186.000000)" fill="#141ED2">
            <g id="icon/bank/ket-sat" transform="translate(732.000000, 186.000000)">
                <g id="icon/ket-sat">
                    <g id="Ket-sat" fill-rule="nonzero">
                        <path d="M0,0 L0,43 L3.71,43 L3.71,46 L11.13,46 L11.13,43 L34.87,43 L34.87,46 L42.29,46 L42.29,43 L46,43 L46,0 L0,0 Z M9.65,44.51 L5.2,44.51 L5.2,43 L9.65,43 L9.65,44.49 L9.65,44.51 Z M40.8,44.51 L36.35,44.51 L36.35,43 L40.8,43 L40.8,44.49 L40.8,44.51 Z M44.51,41.51 L1.51,41.51 L1.51,1.49 L44.51,1.49 L44.51,41.54 L44.51,41.51 Z" id="Shape"></path>
                        <path d="M41.54,4.46 L4.46,4.46 L4.46,38.58 L41.56,38.58 L41.56,4.46 L41.56,4.46 L41.54,4.46 Z M5.93,37.1 L5.93,5.93 L40.06,5.93 L40.06,37.1 L5.93,37.1 Z" id="Shape"></path>
                        <path d="M18.54,11.87 C13.215975,11.87 8.9,16.185975 8.9,21.51 C8.9,26.834025 13.215975,31.15 18.54,31.15 C23.864025,31.15 28.18,26.834025 28.18,21.51 C28.168998,16.1905389 23.8594611,11.881002 18.54,11.87 Z M24.81,26.73 L23.81,25.73 L22.76,26.78 L23.76,27.78 C22.4938029,28.8401153 20.9344719,29.4889645 19.29,29.64 L19.29,28.2 L17.81,28.2 L17.81,29.65 C16.1652184,29.5002152 14.6055281,28.8512166 13.34,27.79 L14.34,26.79 L13.3,25.72 L12.3,26.72 C11.2398847,25.4538029 10.5910355,23.8944719 10.44,22.25 L11.89,22.25 L11.89,20.78 L10.42,20.78 C10.5697848,19.1352184 11.2187834,17.5755281 12.28,16.31 L13.28,17.31 L14.33,16.26 L13.33,15.26 C14.5961971,14.1998847 16.1555281,13.5510355 17.8,13.4 L17.8,14.85 L19.29,14.85 L19.29,13.39 C20.9347816,13.5397848 22.4944719,14.1887834 23.76,15.25 L22.76,16.25 L23.81,17.3 L24.81,16.3 C25.8701153,17.5661971 26.5189645,19.1255281 26.67,20.77 L25.22,20.77 L25.22,22.26 L26.67,22.26 C26.5202152,23.9047816 25.8712166,25.4644719 24.81,26.73 L24.81,26.73 Z" id="Shape"></path>
                        <path d="M18.55,18.54 C18.0251427,18.5472372 17.5113703,18.6920589 17.06,18.96 L15.39,17.31 L14.34,18.36 L16,20 C15.2996487,21.1709498 15.477657,22.6670119 16.4332149,23.640934 C17.3887729,24.6148561 18.8811758,24.8213077 20.0652437,24.1433708 C21.2493116,23.4654339 21.8267783,22.0738805 21.4706119,20.7567773 C21.1144455,19.4396741 19.9143642,18.5287989 18.55,18.54 Z M18.55,23 C17.9439763,23.0162749 17.3885131,22.6637484 17.1452336,22.1084605 C16.9019541,21.5531725 17.0193688,20.9058487 17.4421753,20.4713786 C17.8649817,20.0369085 18.5088716,19.9019263 19.0705726,20.1300087 C19.6322736,20.358091 19.9997815,20.9037579 20,21.51 C20.0001645,22.3213295 19.3511651,22.9836645 18.54,23 L18.55,23 Z" id="Shape"></path>
                        <polygon id="Path" points="32.64 14.84 32.64 16.33 34.87 16.33 34.87 26.71 32.64 26.71 32.64 28.2 36.36 28.2 36.36 14.84"></polygon>
                    </g>
                </g>
            </g>
        </g>
    </g>
</svg>