<?xml version="1.0" encoding="UTF-8"?>
<svg width="41px" height="46px" viewBox="0 0 41 46" version="1.1" xmlns="http://www.w3.org/2000/svg" xmlns:xlink="http://www.w3.org/1999/xlink">
    <!-- Generator: Sketch 62 (91390) - https://sketch.com -->
    <title>icon/bank/money-3</title>
    <desc>Created with Sketch.</desc>
    <defs>
        <rect id="path-1" x="0" y="0" width="46" height="46"></rect>
    </defs>
    <g id="Page-1" stroke="none" stroke-width="1" fill="none" fill-rule="evenodd">
        <g id="08.-Icon-set" transform="translate(-992.000000, -100.000000)">
            <g id="icon/bank/money-3" transform="translate(990.000000, 100.000000)">
                <g id="icon/money-3">
                    <g id="money-copy">
                        <mask id="mask-2" fill="white">
                            <use xlink:href="#path-1"></use>
                        </mask>
                        <g id="Mask"></g>
                        <g id="money" mask="url(#mask-2)" fill="#141ED2" fill-rule="nonzero">
                            <g transform="translate(2.000000, 0.000000)">
                                <path d="M20.819448,25.09034 C20.734391,25.0719295 20.6471247,25.0686155 20.5609631,25.0815029 C19.6975058,24.980981 19.0461386,24.2504483 19.0446657,23.3814677 C19.0446657,22.9650198 18.7070152,22.6273694 18.2905673,22.6273694 C17.8741195,22.6273694 17.536469,22.9650198 17.536469,23.3814677 C17.5386783,24.8325915 18.5092853,26.1036597 19.9084913,26.4877049 L19.9084913,27.2418033 C19.9084913,27.6582512 20.2461418,27.9959016 20.6625897,27.9959016 C21.0790375,27.9959016 21.416688,27.6582512 21.416688,27.2418033 L21.416688,26.5333632 C23.0316663,26.1953446 24.1293065,24.6911981 23.9595608,23.0500768 C23.7894467,21.4089556 22.4068103,20.1618212 20.7568519,20.161453 C19.8112833,20.161453 19.0446657,19.3948354 19.0446657,18.4492668 C19.0446657,17.5036981 19.8112833,16.7370806 20.7568519,16.7370806 C21.7024206,16.7370806 22.4690382,17.5036981 22.4690382,18.4492668 C22.4690382,18.8657147 22.8066887,19.2033651 23.2231366,19.2033651 C23.6395844,19.2033651 23.9772349,18.8657147 23.9772349,18.4492668 C23.9750256,16.9256052 22.9075787,15.6114562 21.416688,15.2970031 L21.416688,14.6106557 C21.416688,14.1942078 21.0790375,13.8565574 20.6625897,13.8565574 C20.2461418,13.8565574 19.9084913,14.1942078 19.9084913,14.6106557 L19.9084913,15.3430296 C18.352427,15.7679464 17.3508901,17.2787206 17.5651895,18.8774974 C17.779489,20.4762743 19.1437148,21.6696497 20.7568519,21.6692815 C21.6899013,21.6692815 22.4509957,22.4163839 22.4679336,23.3490651 C22.4852395,24.2817463 21.751761,25.0564645 20.819448,25.09034 L20.819448,25.09034 Z" id="Path"></path>
                                <path d="M9.82168925,20.9733607 C9.82168925,27.0127753 14.7174372,31.9085233 20.7568519,31.9085233 C26.7962667,31.9085233 31.6920146,27.0127753 31.6920146,20.9733607 C31.6920146,14.933946 26.7962667,10.038198 20.7568519,10.038198 C14.7203829,10.0448258 9.8286853,14.9368917 9.82168925,20.9733607 Z M20.7568519,11.5463948 C25.9633709,11.5463948 30.1838179,15.7668417 30.1838179,20.9733607 C30.1838179,26.1798796 25.9633709,30.4003265 20.7568519,30.4003265 C15.550333,30.4003265 11.329886,26.1798796 11.329886,20.9733607 C11.3357774,15.7694192 15.5529105,11.5522862 20.7568519,11.5463948 Z" id="Shape"></path>
                                <path d="M35.4094839,33.7676262 L29.5022573,36.5586738 C28.6866675,35.04164 27.1221344,34.0761879 25.4003746,34.0275839 L19.9471535,33.8777216 C19.0836962,33.8530514 18.2364402,33.6343334 17.4687179,33.237769 L16.9138224,32.9501953 C14.0726979,31.4692463 10.6862513,31.4729284 7.84807244,32.9597688 L7.88268443,31.7026928 C7.89409902,31.2862449 7.56602203,30.939389 7.14957413,30.9279745 L1.16980979,30.7633837 C0.753361984,30.7519691 0.406874336,31.0800461 0.395459738,31.496494 L0.0339546595,44.6188364 C0.0228291967,45.0352843 0.350906098,45.3821401 0.767353996,45.3935547 L6.74711834,45.5581455 L6.76773822,45.5581455 C7.17645359,45.5581455 7.51079026,45.2330142 7.52183658,44.824667 L7.53914257,44.1968654 L9.0926294,43.3650743 C9.70238862,43.0369973 10.4152472,42.9589363 11.0813429,43.1474609 L20.3580782,45.7510886 C20.3742796,45.7558754 20.3904809,45.7595575 20.4070505,45.7632396 C21.0775647,45.9035284 21.7609663,45.9738569 22.4458408,45.9734902 C23.8965965,45.9742251 25.3304143,45.6616131 26.6489819,45.0562724 C26.6813845,45.0415439 26.7126825,45.024238 26.7425077,45.0047227 L40.1929271,36.3046074 C40.5280002,36.0877305 40.6362545,35.6477171 40.4399974,35.3001248 C39.4414062,33.5282883 37.2266105,32.8533555 35.4094839,33.7676262 L35.4094839,33.7676262 Z M1.56269211,43.9067143 L1.8823002,32.2918321 L6.35423602,32.4148149 L6.03462792,44.0300653 L1.56269211,43.9067143 Z M25.9696305,43.7093526 C24.3314549,44.4487225 22.5018091,44.6527119 20.7410188,44.2929687 L11.4893219,41.6959689 C10.4480181,41.4017674 9.33344006,41.5236456 8.38087536,42.0358286 L7.58701009,42.4611136 L7.79946854,34.7386014 C10.3150935,33.0654457 13.5413678,32.8934906 16.220479,34.2893827 L16.7753746,34.5769563 C17.7452452,35.0777247 18.8149013,35.3538839 19.9059138,35.3855501 L25.3595031,35.5354124 C26.8912654,35.5795978 28.1921587,36.6702421 28.5029297,38.1710745 L20.3798028,37.9468334 C19.9633549,37.9354188 19.6168673,38.263864 19.6050845,38.6799436 C19.5936699,39.0963915 19.9221151,39.4432473 20.3381948,39.4546619 L29.3026863,39.701364 L29.3236745,39.701364 C29.7320217,39.7009957 30.0659901,39.3758645 30.0770364,38.9678855 C30.0862417,38.6401767 30.0619397,38.3120997 30.0041304,37.989546 L36.0630603,35.126697 C36.0689517,35.1241195 36.0748431,35.1211738 36.0807345,35.1182281 C36.9401415,34.6833696 37.979236,34.8288134 38.6862032,35.4831263 L25.9696305,43.7093526 Z" id="Shape"></path>
                                <path d="M21.5109503,7.91803279 L21.5109503,0.754098361 C21.5109503,0.337650463 21.1732998,0 20.7568519,0 C20.340404,0 20.0027536,0.337650463 20.0027536,0.754098361 L20.0027536,7.91803279 C20.0027536,8.33448068 20.340404,8.67213115 20.7568519,8.67213115 C21.1732998,8.67213115 21.5109503,8.33448068 21.5109503,7.91803279 Z" id="Path"></path>
                                <path d="M27.166688,7.91803279 L27.166688,4.52459016 C27.166688,4.10814227 26.8290375,3.7704918 26.4125897,3.7704918 C25.9961418,3.7704918 25.6584913,4.10814227 25.6584913,4.52459016 L25.6584913,7.91803279 C25.6584913,8.33448068 25.9961418,8.67213115 26.4125897,8.67213115 C26.8290375,8.67213115 27.166688,8.33448068 27.166688,7.91803279 Z" id="Path"></path>
                                <path d="M15.8552126,7.91803279 L15.8552126,4.52459016 C15.8552126,4.10814227 15.5175621,3.7704918 15.1011142,3.7704918 C14.6846663,3.7704918 14.3470159,4.10814227 14.3470159,4.52459016 L14.3470159,7.91803279 C14.3470159,8.33448068 14.6846663,8.67213115 15.1011142,8.67213115 C15.5175621,8.67213115 15.8552126,8.33448068 15.8552126,7.91803279 Z" id="Path"></path>
                            </g>
                        </g>
                    </g>
                </g>
            </g>
        </g>
    </g>
</svg>