<?xml version="1.0" encoding="UTF-8"?>
<svg width="46px" height="46px" viewBox="0 0 46 46" version="1.1" xmlns="http://www.w3.org/2000/svg" xmlns:xlink="http://www.w3.org/1999/xlink">
    <!-- Generator: Sketch 62 (91390) - https://sketch.com -->
    <title>icon/bank/money-2</title>
    <desc>Created with Sketch.</desc>
    <g id="Page-1" stroke="none" stroke-width="1" fill="none" fill-rule="evenodd">
        <g id="08.-Icon-set" transform="translate(-732.000000, -100.000000)" fill="#141ED2">
            <g id="icon/bank/money-2" transform="translate(732.000000, 100.000000)">
                <g id="icon/money-2">
                    <g id="Money-2" fill-rule="nonzero">
                        <path d="M36,13 C34.3587225,12.9629846 33.0370154,11.6412775 33,10 C33.0085405,9.7853224 32.9270009,9.57683924 32.7750808,9.42491917 C32.6231608,9.2729991 32.4146776,9.19145951 32.2,9.2 L7.67,9.2 C7.4604776,9.19984091 7.25993773,9.28507078 7.11464048,9.43602896 C6.96934323,9.58698714 6.89183673,9.79063662 6.9,10 C6.86195495,11.6681157 5.49854945,13.0004338 3.83,13 C3.40474074,13 3.06,13.3447407 3.06,13.77 L3.06,19.9 C3.06,20.3252593 3.40474074,20.67 3.83,20.67 C4.64943921,20.6699609 5.43488677,20.9975213 6.01149365,21.5797627 C6.58810052,22.1620042 6.90800755,22.9505999 6.9,23.77 C6.9,24.1952593 7.24474074,24.54 7.67,24.54 L32.2,24.54 C32.4093634,24.5481633 32.6130129,24.4706568 32.763971,24.3253595 C32.9149292,24.1800623 33.0001591,23.9795224 33,23.77 C32.9995662,22.1014505 34.3318843,20.738045 36,20.7 C36.4252593,20.7 36.77,20.3552593 36.77,19.93 L36.77,13.8 C36.7781633,13.5906366 36.7006568,13.3869871 36.5553595,13.236029 C36.4100623,13.0850708 36.2095224,12.9998409 36,13 Z M35.23,19.2 C33.3068804,19.547973 31.8121607,21.0707437 31.5,23 L8.37,23 C8.04115339,21.0703962 6.52960375,19.5588466 4.6,19.23 L4.6,14.5 C6.52960375,14.1711534 8.04115339,12.6596038 8.37,10.73 L31.5,10.73 C31.8288466,12.6596038 33.3403962,14.1711534 35.27,14.5 L35.27,19.23 L35.23,19.2 Z" id="Shape"></path>
                        <path d="M19.93,13 C18.3809096,13 16.9843526,13.9331495 16.3915414,15.3643225 C15.7987302,16.7954954 16.1264087,18.4428466 17.221781,19.538219 C18.3171534,20.6335913 19.9645046,20.9612698 21.3956775,20.3684586 C22.8268505,19.7756474 23.76,18.3790904 23.76,16.83 C23.7545046,14.7170299 22.0429701,13.0054954 19.93,13 Z M19.93,19.13 C18.6597451,19.13 17.63,18.1002549 17.63,16.83 C17.63,15.5597451 18.6597451,14.53 19.93,14.53 C21.2002549,14.53 22.23,15.5597451 22.23,16.83 C22.2407303,17.4468987 22.0031549,18.0422416 21.5706527,18.4822655 C21.1381506,18.9222894 20.546992,19.1700933 19.93,19.17 L19.93,19.13 Z" id="Shape"></path>
                        <path d="M45.23,0 L6.9,0 C6.47474074,0 6.13,0.344740743 6.13,0.77 L6.13,3.07 L3.83,3.07 C3.40474074,3.07 3.06,3.41474074 3.06,3.84 L3.06,6.14 L0.77,6.14 C0.348615572,6.13996446 0.00547252356,6.47865111 0,6.9 L0,26.83 C0,27.2552593 0.344740743,27.6 0.77,27.6 L39.1,27.6 C39.5252593,27.6 39.87,27.2552593 39.87,26.83 L39.87,24.53 L42.17,24.53 C42.5952593,24.53 42.94,24.1852593 42.94,23.76 L42.94,21.46 L45.24,21.46 C45.6574844,21.4546124 45.9946124,21.1174844 46,20.7 L46,0.77 C46,0.344740743 45.6552593,0 45.23,0 Z M38.33,23.77 L38.33,26.07 L1.53,26.07 L1.53,7.67 L38.33,7.67 L38.33,23.77 Z M41.4,23 L39.87,23 L39.87,6.9 C39.87,6.47474074 39.5252593,6.13 39.1,6.13 L4.6,6.13 L4.6,4.6 L41.4,4.6 L41.4,23 Z M44.47,19.93 L42.93,19.93 L42.93,3.83 C42.93,3.40474074 42.5852593,3.06 42.16,3.06 L7.67,3.06 L7.67,1.53 L44.47,1.53 L44.47,19.93 Z" id="Shape"></path>
                        <path d="M45.69,37 L36.49,30.1 C36.2575525,29.9268181 35.9475417,29.898853 35.6878545,30.027641 C35.4281673,30.156429 35.2628113,30.4201451 35.26,30.71 L35.26,33.78 L23,33.78 C22.5747407,33.78 22.23,34.1247407 22.23,34.55 L22.23,40.68 C22.23,41.1052593 22.5747407,41.45 23,41.45 L35.27,41.45 L35.27,45.28 C35.2721907,45.5753529 35.4431351,45.8434248 35.71,45.97 C35.8038248,45.9986214 35.9023031,46.0088089 36,46 C36.1793096,45.9988844 36.3526077,45.9352239 36.49,45.82 L45.69,38.15 C45.8540439,38.0038931 45.9478721,37.7946762 45.9478721,37.575 C45.9478721,37.3553238 45.8540439,37.1461069 45.69,37 Z M36.8,43.6 L36.8,40.6 C36.7784207,40.1785605 36.4216493,39.8530067 36,39.87 L23.77,39.87 L23.77,35.27 L36,35.27 C36.2042167,35.27 36.4000692,35.1888752 36.5444722,35.0444722 C36.6888752,34.9000692 36.77,34.7042167 36.77,34.5 L36.77,32.2 L44,37.6 L36.8,43.6 Z" id="Shape"></path>
                        <path d="M19.93,33.729935 L16.87,33.729935 C16.4447407,33.729935 16.1,34.0747407 16.1,34.5 L16.1,40.63 C16.1,41.0552593 16.4447407,41.4 16.87,41.4 L19.94,41.4 C20.3652593,41.4 20.71,41.0552593 20.71,40.63 L20.71,34.5 C20.71,34.2940388 20.6275213,34.0966555 20.4809482,33.9519615 C20.3343752,33.8072676 20.1359438,33.7273252 19.93,33.729935 Z M19.16,39.86 L17.63,39.86 L17.63,35.26 L19.16,35.26 L19.16,39.86 Z" id="Shape"></path>
                        <path d="M12.27,33.73 L9.2,33.73 C8.77474074,33.73 8.43,34.0747407 8.43,34.5 L8.43,40.63 C8.43,41.0552593 8.77474074,41.4 9.2,41.4 L12.27,41.4 C12.6795624,41.3786956 13.0005537,41.0401157 13.0000007,40.63 L13.0000007,34.5 C13.0005537,34.0898843 12.6795624,33.7513044 12.27,33.73 Z M11.5,39.87 L10,39.87 L10,35.27 L11.5,35.27 L11.5,39.87 Z" id="Shape"></path>
                        <path d="M3.83,33.73 L0.77,33.73 C0.344740743,33.73 0,34.0747407 0,34.5 L0,40.63 C0,41.0552593 0.344740743,41.4 0.77,41.4 L3.83,41.4 C4.25525926,41.4 4.6,41.0552593 4.6,40.63 L4.6,34.5 C4.6,34.0747407 4.25525926,33.73 3.83,33.73 Z M3.07,39.87 L1.53,39.87 L1.53,35.27 L3.07,35.27 L3.07,39.87 Z" id="Shape"></path>
                    </g>
                </g>
            </g>
        </g>
    </g>
</svg>