<?xml version="1.0" encoding="UTF-8"?>
<svg width="31px" height="46px" viewBox="0 0 31 46" version="1.1" xmlns="http://www.w3.org/2000/svg" xmlns:xlink="http://www.w3.org/1999/xlink">
    <!-- Generator: Sketch 62 (91390) - https://sketch.com -->
    <title>icon/bank/money-1</title>
    <desc>Created with Sketch.</desc>
    <defs>
        <rect id="path-1" x="0" y="0" width="46" height="46"></rect>
    </defs>
    <g id="Page-1" stroke="none" stroke-width="1" fill="none" fill-rule="evenodd">
        <g id="08.-Icon-set" transform="translate(-653.000000, -100.000000)">
            <g id="icon/bank/money-1" transform="translate(646.000000, 100.000000)">
                <g id="icon/money-1">
                    <g id="profit-copy">
                        <mask id="mask-2" fill="white">
                            <use xlink:href="#path-1"></use>
                        </mask>
                        <g id="Mask"></g>
                        <g id="profit" mask="url(#mask-2)" fill="#141ED2" fill-rule="nonzero">
                            <g transform="translate(7.000000, 0.000000)">
                                <path d="M0.0184689507,43.5961506 C0.0190461178,44.9164882 1.08947572,45.9869178 2.4100057,45.9874958 L28.2848133,45.9874958 C29.2519322,45.9882645 30.1243978,45.4049535 30.4947387,44.5113256 C30.8650796,43.6175054 30.6603821,42.5884385 29.976069,41.9045102 L27.610889,39.538753 L27.610889,32.3304755 C27.6128128,27.3744479 24.3087945,23.0263567 19.5339936,21.7000552 L21.4026281,17.9714434 C21.521522,17.7330785 21.5084399,17.4502727 21.3678065,17.2242204 C21.2269807,16.997591 20.9789966,16.860613 20.7129283,16.862152 L16.1139672,16.862152 L16.1139672,14.56296 L16.880621,14.56296 C20.6886877,14.5587276 23.7741569,11.4726813 23.7783893,7.66461456 C23.7783893,7.24136777 23.435367,6.8981531 23.0121203,6.8981531 L21.4793897,6.8981531 C19.3935526,6.89892264 17.420453,7.84430209 16.1139672,9.46956975 L16.1139672,6.13149928 C19.0755403,6.12803632 21.475542,3.72841943 21.4793897,0.766461456 C21.4793897,0.343214668 21.1361751,0 20.7129283,0 L19.9462744,0 C18.0599404,0.00288577602 16.3138551,0.996361428 15.3475057,2.61585752 C14.3809639,0.996361428 12.6350709,0.00288577602 10.748737,0 L9.98227551,0 C9.55922109,0 9.21600642,0.343214668 9.21600642,0.766461456 C9.21966175,3.72841943 11.6192786,6.12803632 14.5808519,6.13149928 L14.5808519,9.46956975 C13.274366,7.84430209 11.3012664,6.89892264 9.21600642,6.8981531 L7.68289114,6.8981531 C7.25945198,6.8981531 6.91642968,7.24136777 6.91642968,7.66461456 C6.92066213,11.4726813 10.0067084,14.5587276 13.8145828,14.56296 L14.5808519,14.56296 L14.5808519,16.862152 L9.98227551,16.862152 C9.71659192,16.862152 9.46976212,16.9995148 9.32989829,17.2257595 C9.19022682,17.4516194 9.17733707,17.733848 9.29623092,17.9714434 L11.160633,21.7000552 C6.38602447,23.0263567 3.08181378,27.3744479 3.08393003,32.3304755 L3.08393003,39.538753 L0.718942373,41.9045102 C0.271455111,42.3539213 0.0198156574,42.9616652 0.0184689507,43.5961506 Z M19.8697052,1.53292291 C19.5085988,3.28824277 17.9820245,4.56048413 16.1905363,4.59896111 C16.5514504,2.84402604 18.0780246,1.57139989 19.8697052,1.53292291 Z M10.8251138,1.53292291 C12.616602,1.57139989 14.1435609,2.84402604 14.504475,4.59896111 C12.7129868,4.56048413 11.1862202,3.28824277 10.8251138,1.53292291 Z M21.4793897,8.43088364 L22.1908291,8.43088364 C21.8066364,11.0692502 19.5461138,13.0263819 16.880621,13.0300371 L16.1682197,13.0300371 C16.5524124,10.3916706 18.812935,8.43434655 21.4793897,8.43088364 Z M13.8145828,13.0300371 C11.1483204,13.0263819 8.88799018,11.0692502 8.50360511,8.43088364 L9.21600642,8.43088364 C11.8816916,8.43434655 14.1420219,10.3916706 14.5264069,13.0300371 L13.8145828,13.0300371 Z M19.4724304,18.3950749 L17.9396999,21.4609208 L12.7551191,21.4609208 L11.2221962,18.3950749 L19.4724304,18.3950749 Z M1.80226178,42.9876372 L4.39253212,40.397944 C4.53624366,40.2542325 4.61704531,40.0591542 4.61704531,39.8559957 L4.61704531,32.3304755 C4.61531386,27.7632578 7.86411769,23.8414916 12.3518804,22.9938437 L18.3427463,22.9938437 C22.8307013,23.8414916 26.0796975,27.7632578 26.0781585,32.3304755 L26.0781585,39.8559957 C26.0781585,40.0591542 26.1591525,40.2542325 26.3024793,40.397944 L28.8925572,42.9876372 C29.1384251,43.2336975 29.2121085,43.6036536 29.0787858,43.924744 C28.9458478,44.2462192 28.6324528,44.4551493 28.2848133,44.4551493 L2.4100057,44.4551493 C2.06255854,44.4551493 1.74916354,44.2462192 1.61584082,43.924744 C1.48309521,43.6036536 1.55639385,43.2336975 1.80226178,42.9876372 Z" id="Shape"></path>
                                <path d="M14.1978135,34.4909579 L16.4973903,34.4909579 C17.1318756,34.4909579 17.6468901,35.0057799 17.6468901,35.6406501 C17.6468901,36.2757127 17.1318756,36.7903423 16.4973903,36.7903423 L12.2818522,36.7903423 L12.2818522,38.3230728 L14.5808519,38.3230728 L14.5808519,39.8559957 L16.1139672,39.8559957 L16.1139672,38.3230728 L16.4973903,38.3230728 C17.9783692,38.3230728 19.1800054,37.1222063 19.1800054,35.6406501 C19.1800054,34.1592863 17.9783692,32.958035 16.4973903,32.958035 L14.1978135,32.958035 C13.5629433,32.958035 13.047929,32.4434054 13.047929,31.8081504 C13.047929,31.173665 13.5629433,30.6584582 14.1978135,30.6584582 L18.4133515,30.6584582 L18.4133515,29.1257277 L16.1139672,29.1257277 L16.1139672,27.5926124 L14.5808519,27.5926124 L14.5808519,29.1257277 L14.1978135,29.1257277 C12.7162573,29.1257277 11.5153908,30.326979 11.5153908,31.8081504 C11.5153908,33.2897066 12.7162573,34.4909579 14.1978135,34.4909579 Z" id="Path"></path>
                                <path d="M0.784738034,3.83230728 C0.784738034,4.2068807 1.05561598,4.52662439 1.42518737,4.58837993 C2.67395779,4.79654042 3.65261976,5.77539481 3.86097262,7.02378043 C3.92369012,7.39296708 4.24285669,7.66288311 4.61704531,7.66288311 C4.99123394,7.66288311 5.31020809,7.39296708 5.37273322,7.02378043 C5.58108603,5.77539481 6.55974805,4.79654042 7.80871084,4.58837993 C8.17732032,4.52566247 8.44704398,4.20649591 8.44704398,3.83230728 C8.44704398,3.4585034 8.17732032,3.13914446 7.80871084,3.07681175 C6.55974805,2.86826652 5.58108603,1.88960455 5.37273322,0.640641704 C5.31020809,0.272032278 4.99123394,0.0021162364 4.61704531,0.0021162364 C4.24285669,0.0021162364 3.92369012,0.272032278 3.86097262,0.640641704 C3.65261976,1.88960455 2.67395779,2.86826652 1.42518737,3.07681175 C1.05561598,3.1377978 0.784738034,3.45773386 0.784738034,3.83230728 Z M4.61704531,2.73802195 C4.91562669,3.16319256 5.28615999,3.53372591 5.71133065,3.83230728 C5.28615999,4.13108102 4.91562669,4.501422 4.61704531,4.92697736 C4.31827157,4.501422 3.9479306,4.13108102 3.52237519,3.83230728 C3.9479306,3.53372591 4.31827157,3.16319256 4.61704531,2.73802195 Z" id="Shape"></path>
                                <path d="M23.0121203,13.7963062 L23.0121203,15.3290367 C25.1273922,15.3269205 26.8419265,13.6125786 26.8444275,11.4969218 L25.3115046,11.4969218 C25.3115046,12.7672394 24.2818606,13.7963062 23.0121203,13.7963062 Z" id="Path"></path>
                            </g>
                        </g>
                    </g>
                </g>
            </g>
        </g>
    </g>
</svg>