<?xml version="1.0" encoding="UTF-8"?>
<svg width="46px" height="46px" viewBox="0 0 46 46" version="1.1" xmlns="http://www.w3.org/2000/svg" xmlns:xlink="http://www.w3.org/1999/xlink">
    <!-- Generator: Sketch 62 (91390) - https://sketch.com -->
    <title>icon/bank/quet-the</title>
    <desc>Created with Sketch.</desc>
    <g id="Page-1" stroke="none" stroke-width="1" fill="none" fill-rule="evenodd">
        <g id="08.-Icon-set" transform="translate(-646.000000, -272.000000)" fill="#141ED2">
            <g id="icon/bank/quet-the" transform="translate(646.000000, 272.000000)">
                <g id="icon/quet-the">
                    <g id="Quet-the" fill-rule="nonzero">
                        <path d="M16.1,38.33 L14.56,38.33 C13.2897451,38.33 12.26,39.3597451 12.26,40.63 C12.26,41.9002549 13.2897451,42.93 14.56,42.93 L16.1,42.93 C17.3702549,42.93 18.4,41.9002549 18.4,40.63 C18.4,39.3597451 17.3702549,38.33 16.1,38.33 Z M16.1,41.4 L14.56,41.4 C14.2658075,41.4336907 13.9783595,41.295693 13.8206643,41.0450607 C13.6629691,40.7944284 13.6629691,40.4755716 13.8206643,40.2249393 C13.9783595,39.974307 14.2658075,39.8363093 14.56,39.87 L16.1,39.87 C16.3941925,39.8363093 16.6816405,39.974307 16.8393357,40.2249393 C16.9970309,40.4755716 16.9970309,40.7944284 16.8393357,41.0450607 C16.6816405,41.295693 16.3941925,41.4336907 16.1,41.4 Z" id="Shape"></path>
                        <path d="M23.76,38.33 L22.23,38.33 C20.9597451,38.33 19.93,39.3597451 19.93,40.63 C19.93,41.9002549 20.9597451,42.93 22.23,42.93 L23.76,42.93 C25.0302549,42.93 26.06,41.9002549 26.06,40.63 C26.06,39.3597451 25.0302549,38.33 23.76,38.33 Z M23.76,41.4 L22.23,41.4 C21.9358075,41.4336907 21.6483595,41.295693 21.4906643,41.0450607 C21.3329691,40.7944284 21.3329691,40.4755716 21.4906643,40.2249393 C21.6483595,39.974307 21.9358075,39.8363093 22.23,39.87 L23.76,39.87 C24.148822,39.9145275 24.4423929,40.2436366 24.4423929,40.635 C24.4423929,41.0263634 24.148822,41.3554725 23.76,41.4 Z" id="Shape"></path>
                        <path d="M16.1,32.2 L14.56,32.2 C13.2897451,32.2 12.26,33.2297451 12.26,34.5 C12.26,35.7702549 13.2897451,36.8 14.56,36.8 L16.1,36.8 C17.3702549,36.8 18.4,35.7702549 18.4,34.5 C18.4,33.2297451 17.3702549,32.2 16.1,32.2 Z M16.1,35.27 L14.56,35.27 C14.2658075,35.3036907 13.9783595,35.165693 13.8206643,34.9150607 C13.6629691,34.6644284 13.6629691,34.3455716 13.8206643,34.0949393 C13.9783595,33.844307 14.2658075,33.7063093 14.56,33.74 L16.1,33.74 C16.3941925,33.7063093 16.6816405,33.844307 16.8393357,34.0949393 C16.9970309,34.3455716 16.9970309,34.6644284 16.8393357,34.9150607 C16.6816405,35.165693 16.3941925,35.3036907 16.1,35.27 Z" id="Shape"></path>
                        <path d="M23.76,32.2 L22.23,32.2 C20.9597451,32.2 19.93,33.2297451 19.93,34.5 C19.93,35.7702549 20.9597451,36.8 22.23,36.8 L23.76,36.8 C25.0302549,36.8 26.06,35.7702549 26.06,34.5 C26.06,33.2297451 25.0302549,32.2 23.76,32.2 Z M23.76,35.27 L22.23,35.27 C21.9358075,35.3036907 21.6483595,35.165693 21.4906643,34.9150607 C21.3329691,34.6644284 21.3329691,34.3455716 21.4906643,34.0949393 C21.6483595,33.844307 21.9358075,33.7063093 22.23,33.74 L23.76,33.74 C24.148822,33.7845275 24.4423929,34.1136366 24.4423929,34.505 C24.4423929,34.8963634 24.148822,35.2254725 23.76,35.27 Z" id="Shape"></path>
                        <path d="M16.1,26.07 L14.56,26.07 C13.2897451,26.07 12.26,27.0997451 12.26,28.37 C12.26,29.6402549 13.2897451,30.67 14.56,30.67 L16.1,30.67 C17.3702549,30.67 18.4,29.6402549 18.4,28.37 C18.4,27.0997451 17.3702549,26.07 16.1,26.07 Z M16.1,29.14 L14.56,29.14 C14.2658075,29.1736907 13.9783595,29.035693 13.8206643,28.7850607 C13.6629691,28.5344284 13.6629691,28.2155716 13.8206643,27.9649393 C13.9783595,27.714307 14.2658075,27.5763093 14.56,27.61 L16.1,27.61 C16.4009457,27.5610198 16.702447,27.6942321 16.8688734,27.9497114 C17.0352998,28.2051906 17.0352998,28.5348094 16.8688734,28.7902886 C16.702447,29.0457679 16.4009457,29.1789802 16.1,29.13 L16.1,29.14 Z" id="Shape"></path>
                        <path d="M23.76,26.07 L22.23,26.07 C20.9597451,26.07 19.93,27.0997451 19.93,28.37 C19.93,29.6402549 20.9597451,30.67 22.23,30.67 L23.76,30.67 C25.0302549,30.67 26.06,29.6402549 26.06,28.37 C26.06,27.0997451 25.0302549,26.07 23.76,26.07 Z M23.76,29.14 L22.23,29.14 C21.9358075,29.1736907 21.6483595,29.035693 21.4906643,28.7850607 C21.3329691,28.5344284 21.3329691,28.2155716 21.4906643,27.9649393 C21.6483595,27.714307 21.9358075,27.5763093 22.23,27.61 L23.76,27.61 C24.1326128,27.6706443 24.4063068,27.9924844 24.4063068,28.37 C24.4063068,28.7475156 24.1326128,29.0693557 23.76,29.13 L23.76,29.14 Z" id="Shape"></path>
                        <path d="M31.43,38.33 L29.9,38.33 C28.6297451,38.33 27.6,39.3597451 27.6,40.63 C27.6,41.9002549 28.6297451,42.93 29.9,42.93 L31.43,42.93 C32.2517109,42.93 33.011003,42.4916225 33.4218584,41.78 C33.8327139,41.0683775 33.8327139,40.1916225 33.4218584,39.48 C33.011003,38.7683775 32.2517109,38.33 31.43,38.33 Z M31.43,41.4 L29.9,41.4 C29.6058075,41.4336907 29.3183595,41.295693 29.1606643,41.0450607 C29.0029691,40.7944284 29.0029691,40.4755716 29.1606643,40.2249393 C29.3183595,39.974307 29.6058075,39.8363093 29.9,39.87 L31.43,39.87 C31.818822,39.9145275 32.1123929,40.2436366 32.1123929,40.635 C32.1123929,41.0263634 31.818822,41.3554725 31.43,41.4 L31.43,41.4 Z" id="Shape"></path>
                        <path d="M31.43,32.2 L29.9,32.2 C28.6297451,32.2 27.6,33.2297451 27.6,34.5 C27.6,35.7702549 28.6297451,36.8 29.9,36.8 L31.43,36.8 C32.2517109,36.8 33.011003,36.3616225 33.4218584,35.65 C33.8327139,34.9383775 33.8327139,34.0616225 33.4218584,33.35 C33.011003,32.6383775 32.2517109,32.2 31.43,32.2 Z M31.43,35.27 L29.9,35.27 C29.6058075,35.3036907 29.3183595,35.165693 29.1606643,34.9150607 C29.0029691,34.6644284 29.0029691,34.3455716 29.1606643,34.0949393 C29.3183595,33.844307 29.6058075,33.7063093 29.9,33.74 L31.43,33.74 C31.818822,33.7845275 32.1123929,34.1136366 32.1123929,34.505 C32.1123929,34.8963634 31.818822,35.2254725 31.43,35.27 L31.43,35.27 Z" id="Shape"></path>
                        <path d="M31.43,26.07 L29.9,26.07 C28.6297451,26.07 27.6,27.0997451 27.6,28.37 C27.6,29.6402549 28.6297451,30.67 29.9,30.67 L31.43,30.67 C32.2517109,30.67 33.011003,30.2316225 33.4218584,29.52 C33.8327139,28.8083775 33.8327139,27.9316225 33.4218584,27.22 C33.011003,26.5083775 32.2517109,26.07 31.43,26.07 Z M31.43,29.14 L29.9,29.14 C29.6058075,29.1736907 29.3183595,29.035693 29.1606643,28.7850607 C29.0029691,28.5344284 29.0029691,28.2155716 29.1606643,27.9649393 C29.3183595,27.714307 29.6058075,27.5763093 29.9,27.61 L31.43,27.61 C31.8026128,27.6706443 32.0763068,27.9924844 32.0763068,28.37 C32.0763068,28.7475156 31.8026128,29.0693557 31.43,29.13 L31.43,29.14 Z" id="Shape"></path>
                        <path d="M36.8,17.63 C36.8045171,18.8931417 36.6771602,20.1533044 36.42,21.39 C36.1745946,22.3726919 36.0305091,23.3779397 35.99,24.39 L35.37,42.25 C35.332056,43.4912054 34.3117707,44.4760025 33.07,44.47 L12.93,44.47 C11.6882293,44.4760025 10.667944,43.4912054 10.63,42.25 L10,24.43 C9.95900355,23.4179843 9.81492512,22.4127859 9.57,21.43 C9.31101198,20.3966257 9.18002982,19.3353344 9.18,18.27 L9.18,3.83 C9.18,2.55974508 10.2097451,1.53 11.48,1.53 L34.48,1.53 C35.5284849,1.52802588 36.4456009,2.23539783 36.71,3.25 L38.19,2.87 C37.7541526,1.18658265 36.2389054,0.00805707639 34.5,0 L11.5,0 C9.38312567,0 7.66551269,1.71313285 7.66,3.83 L7.66,18.23 C7.66050657,19.4236059 7.80828976,20.6125889 8.1,21.77 C8.3200496,22.6611513 8.447393,23.5726619 8.48,24.49 L9.1,42.3 C9.16494167,44.3666082 10.8623817,46.0064328 12.93,46.0000189 L33.07,46.0000189 C35.1376183,46.0064328 36.8350583,44.3666082 36.9,42.3 L37.51,24.49 C37.5447491,23.5623307 37.6754458,22.6407514 37.9,21.74 C38.1831554,20.3884281 38.3239238,19.0109085 38.3200798,17.63 L36.8,17.63 Z" id="Path"></path>
                        <path d="M32.2,17.63 L32.2,19.16 C32.2,19.5852593 31.8552593,19.93 31.43,19.93 L14.56,19.93 C14.1347407,19.93 13.79,19.5852593 13.79,19.16 L13.79,6.9 C13.79,6.47474074 14.1347407,6.13 14.56,6.13 L21.46,6.13 L21.46,4.6 L14.56,4.6 C13.2897451,4.6 12.26,5.62974508 12.26,6.9 L12.26,19.17 C12.26,20.4402549 13.2897451,21.47 14.56,21.47 L31.43,21.47 C32.7002549,21.47 33.73,20.4402549 33.73,19.17 L33.73,17.63 L32.2,17.63 Z" id="Path"></path>
                        <rect id="Rectangle" x="13.03" y="23" width="3.07" height="1.53"></rect>
                        <rect id="Rectangle" x="18.4" y="23" width="3.07" height="1.53"></rect>
                        <rect id="Rectangle" x="24.53" y="23" width="3.07" height="1.53"></rect>
                        <rect id="Rectangle" x="29.9" y="23" width="3.07" height="1.53"></rect>
                        <path d="M42.93,2.3 L23.76,2.3 C22.0683924,2.30551015 20.7,3.6783834 20.7,5.37 L20.7,15.37 C20.7,17.0655142 22.0744858,18.44 23.77,18.44 L42.93,18.44 C43.7511927,18.44 44.5381828,18.1111391 45.1150833,17.5267221 C45.6919837,16.942305 46.0106996,16.151123 46,15.33 L46,5.33 C45.9781106,3.65012734 44.6100153,2.3 42.93,2.3 Z M44.46,15.3 C44.46,16.1449957 43.7749957,16.83 42.93,16.83 L23.76,16.83 C22.9150043,16.83 22.23,16.1449957 22.23,15.3 L22.23,5.3 C22.23,4.45500433 22.9150043,3.77 23.76,3.77 L42.93,3.77 C43.7749957,3.77 44.46,4.45500433 44.46,5.3 L44.46,15.3 L44.46,15.3 Z" id="Shape"></path>
                        <rect id="Rectangle" x="23.76" y="6.13" width="13.03" height="1.53"></rect>
                        <path d="M40.63,10.73 C40.1743789,10.7320534 39.7293576,10.8676458 39.35,11.12 L40.2,12.4 C40.3308286,12.3146371 40.4837866,12.269445 40.64,12.27 C40.9719771,12.2623121 41.2714871,12.468314 41.3830609,12.7810746 C41.4946347,13.0938351 41.3931357,13.4428924 41.13125,13.6470584 C40.8693642,13.8512243 40.506092,13.8645023 40.23,13.68 L39.4,15 C40.2282108,15.4986581 41.2798483,15.4261833 42.031823,14.8186249 C42.7837976,14.2110666 43.0755825,13.1981225 42.7620423,12.283636 C42.4485021,11.3691495 41.5965695,10.7483395 40.63,10.73 Z" id="Path"></path>
                        <path d="M38.33,10.73 C37.0597451,10.73 36.03,11.7597451 36.03,13.03 C36.03,14.3002549 37.0597451,15.33 38.33,15.33 C39.6002549,15.33 40.63,14.3002549 40.63,13.03 C40.63,11.7597451 39.6002549,10.73 38.33,10.73 L38.33,10.73 Z M38.33,13.8000002 C37.9087178,13.7996801 37.5659039,13.4608623 37.5606446,13.0396128 C37.5553854,12.6183633 37.8896336,12.2710925 38.3107765,12.260255 C38.7319194,12.2494176 39.0835863,12.5790375 39.1,13 C39.1081633,13.2093634 39.0306568,13.4130129 38.8853595,13.563971 C38.7400623,13.7149292 38.5395224,13.8001591 38.33,13.8000002 L38.33,13.8000002 Z" id="Shape"></path>
                        <rect id="Rectangle" x="23.76" y="10.73" width="1.53" height="1.53"></rect>
                        <rect id="Rectangle" x="26.83" y="10.73" width="1.53" height="1.53"></rect>
                        <rect id="Rectangle" x="29.9" y="10.73" width="1.53" height="1.53"></rect>
                        <rect id="Rectangle" x="32.96" y="10.73" width="1.53" height="1.53"></rect>
                        <rect id="Rectangle" x="23.76" y="13.8" width="10.73" height="1.53"></rect>
                        <path d="M5.72,8.85 L4.64,7.76 C2.55241779,9.85546619 2.55241779,13.2445338 4.64,15.34 L5.72,14.26 C4.23405497,12.762771 4.23405497,10.347229 5.72,8.85 L5.72,8.85 Z" id="Path"></path>
                        <path d="M3.55,6.68 L2.47,5.59 C-0.815397591,8.88419088 -0.815397591,14.2158091 2.47,17.51 L3.55,16.43 C0.866254028,13.7340379 0.866254028,9.37596212 3.55,6.68 L3.55,6.68 Z" id="Path"></path>
                    </g>
                </g>
            </g>
        </g>
    </g>
</svg>