<?xml version="1.0" encoding="UTF-8"?>
<svg width="46px" height="34px" viewBox="0 0 46 34" version="1.1" xmlns="http://www.w3.org/2000/svg" xmlns:xlink="http://www.w3.org/1999/xlink">
    <!-- Generator: Sketch 62 (91390) - https://sketch.com -->
    <title>icon/bank/the-1</title>
    <desc>Created with Sketch.</desc>
    <defs>
        <rect id="path-1" x="0" y="0" width="46" height="46"></rect>
    </defs>
    <g id="Page-1" stroke="none" stroke-width="1" fill="none" fill-rule="evenodd">
        <g id="08.-Icon-set" transform="translate(-904.000000, -192.000000)">
            <g id="icon/bank/the-1" transform="translate(904.000000, 186.000000)">
                <g id="icon/the-1">
                    <g id="The-1">
                        <mask id="mask-2" fill="white">
                            <use xlink:href="#path-1"></use>
                        </mask>
                        <g id="Mask"></g>
                        <g mask="url(#mask-2)" fill="#141ED2" fill-rule="nonzero">
                            <g transform="translate(0.000000, 6.000000)">
                                <path d="M39.1,0.9 L3.83,0.9 C1.71702986,0.905495399 0.00549539882,2.61702986 0,4.73 L0,26.2 C0.0218823257,28.3012452 1.72864771,29.9946416 3.83,30 L39.1,30 C41.2129701,29.9945046 42.9245046,28.2829701 42.93,26.17 L42.93,4.73 C42.9245046,2.61702986 41.2129701,0.905495399 39.1,0.9 Z M41.4,26.2 C41.4,27.4702549 40.3702549,28.5 39.1,28.5 L3.83,28.5 C2.55974508,28.5 1.53,27.4702549 1.53,26.2 L1.53,4.73 C1.53,3.45974508 2.55974508,2.43 3.83,2.43 L39.1,2.43 C40.3702549,2.43 41.4,3.45974508 41.4,4.73 L41.4,26.2 L41.4,26.2 Z" id="Shape"></path>
                                <path d="M11.5,8.57 L5.37,8.57 C4.94474074,8.57 4.6,8.91474074 4.6,9.34 L4.6,15.47 C4.6,15.8952593 4.94474074,16.24 5.37,16.24 L11.5,16.24 C11.9252593,16.24 12.27,15.8952593 12.27,15.47 L12.27,9.33 C12.2645275,8.90865111 11.9213844,8.57 11.5,8.57 Z M10.73,14.7 L6.13,14.7 L6.13,10.1 L10.73,10.1 L10.73,14.7 L10.73,14.7 Z" id="Shape"></path>
                                <rect id="Rectangle" x="5.37" y="11.63" width="2.3" height="1.53"></rect>
                                <rect id="Rectangle" x="9.2" y="11.63" width="2.3" height="1.53"></rect>
                                <path d="M31.43,20.07 C29.7344858,20.07 28.36,21.4444858 28.36,23.14 C28.36,24.8355142 29.7344858,26.21 31.43,26.21 C33.1255142,26.21 34.5,24.8355142 34.5,23.14 C34.5,21.4444858 33.1255142,20.07 31.43,20.07 L31.43,20.07 Z M31.43,24.67 C30.5918662,24.6480607 29.9275068,23.9556636 29.9402119,23.117339 C29.9529169,22.2790143 30.6379534,21.6070678 31.4763671,21.6105236 C32.3147808,21.6140063 32.994233,22.2915989 33,23.13 C33.0028514,23.5445396 32.8373682,23.942493 32.5414236,24.2327825 C32.2454791,24.5230721 31.8444074,24.6808477 31.43,24.67 L31.43,24.67 Z" id="Shape"></path>
                                <rect id="Rectangle" x="4.6" y="21.6" width="2.3" height="1.53"></rect>
                                <rect id="Rectangle" x="8.43" y="21.6" width="2.3" height="1.53"></rect>
                                <rect id="Rectangle" x="12.27" y="21.6" width="2.3" height="1.53"></rect>
                                <rect id="Rectangle" x="16.1" y="21.6" width="2.3" height="1.53"></rect>
                                <rect id="Rectangle" x="19.93" y="21.6" width="2.3" height="1.53"></rect>
                                <rect id="Rectangle" x="4.6" y="18.53" width="16.87" height="1.53"></rect>
                                <rect id="Rectangle" x="23" y="18.53" width="3.07" height="1.53"></rect>
                                <path d="M37.55,21.09 C36.4225269,19.8269488 34.4853454,19.7151023 33.22,20.84 L34.22,21.99 C34.5241637,21.7176556 34.9245605,21.5781737 35.332103,21.6025887 C35.7396455,21.6270037 36.1205262,21.8132902 36.39,22.12 C36.9531646,22.7496628 36.8994462,23.7165934 36.27,24.28 C35.695603,24.7760368 34.844397,24.7760368 34.27,24.28 L33.27,25.43 C34.4986498,26.3793251 36.242674,26.2618502 37.3329123,25.1563282 C38.4231506,24.0508062 38.5163365,22.3053157 37.55,21.09 L37.55,21.09 Z" id="Path"></path>
                                <rect id="Rectangle" x="23.77" y="21.6" width="2.3" height="1.53"></rect>
                                <rect id="Rectangle" x="4.6" y="4.73" width="15.33" height="1.53"></rect>
                                <path d="M42.17,4 L42.17,5.5 C43.4402549,5.5 44.47,6.52974508 44.47,7.8 L44.47,29.27 C44.47,30.5402549 43.4402549,31.57 42.17,31.57 L6.9,31.57 C5.62974508,31.57 4.6,30.5402549 4.6,29.27 L3.07,29.27 C3.0754954,31.3829701 4.78702986,33.0945046 6.9,33.1 L42.17,33.1 C44.2829701,33.0945046 45.9945046,31.3829701 46,29.27 L46,7.8 C45.9781177,5.69875482 44.2713523,4.00535835 42.17,4 Z" id="Path"></path>
                                <rect id="Rectangle" x="31.43" y="4.73" width="6.9" height="1.53"></rect>
                                <rect id="Rectangle" x="34.5" y="7.8" width="3.83" height="1.53"></rect>
                            </g>
                        </g>
                    </g>
                </g>
            </g>
        </g>
    </g>
</svg>