<?xml version="1.0" encoding="UTF-8"?>
<svg width="45px" height="46px" viewBox="0 0 45 46" version="1.1" xmlns="http://www.w3.org/2000/svg" xmlns:xlink="http://www.w3.org/1999/xlink">
    <!-- Generator: Sketch 62 (91390) - https://sketch.com -->
    <title>icon/bank/toan-cau</title>
    <desc>Created with Sketch.</desc>
    <defs>
        <rect id="path-1" x="0" y="0" width="46" height="46"></rect>
    </defs>
    <g id="Page-1" stroke="none" stroke-width="1" fill="none" fill-rule="evenodd">
        <g id="08.-Icon-set" transform="translate(-904.000000, -100.000000)">
            <g id="icon/bank/toan-cau" transform="translate(904.000000, 100.000000)">
                <g id="icon/toan-cau">
                    <g id="Toan-cau">
                        <mask id="mask-2" fill="white">
                            <use xlink:href="#path-1"></use>
                        </mask>
                        <g id="Mask"></g>
                        <g mask="url(#mask-2)" fill="#141ED2" fill-rule="nonzero">
                            <path d="M38.3561702,23.8710638 C38.4148936,23.2838298 38.4442553,22.6965957 38.4442553,22.0995745 C38.4388507,12.5171824 30.6673612,4.7529944 21.0849682,4.75659572 C11.5025753,4.76019954 3.73692595,12.5302288 3.73872616,22.1126223 C3.740527,31.6950157 11.5090957,39.4621261 21.0914894,39.4621277 C21.6102128,39.4621277 22.1191489,39.4621277 22.6378723,39.393617 C24.8533533,43.992131 29.7990745,46.6185388 34.8495341,45.878577 C39.8999938,45.1386152 43.8844085,41.2038196 44.6875987,36.1630288 C45.4907889,31.122238 42.9265613,26.143994 38.3561702,23.8710638 Z M8.70085106,32.2978723 C6.45335593,29.5920604 5.16001067,26.2211073 5.02085106,22.706383 L10.8931915,22.706383 C10.9373127,25.0593765 11.3365673,27.3922111 12.0774468,29.6259574 C10.8447669,30.3721158 9.71040488,31.2697414 8.70085106,32.2978723 L8.70085106,32.2978723 Z M12.0970213,14.4948936 C11.3518653,16.7275692 10.952498,19.0610622 10.912766,21.4144681 L5.04042553,21.4144681 C5.18103083,17.9000414 6.47420419,14.5295364 8.72042553,11.8229787 C9.72305307,12.8698987 10.8581963,13.7813035 12.0970213,14.5340426 L12.0970213,14.4948936 Z M33.4331915,11.7838298 C35.6973816,14.4974226 37.001436,17.883147 37.1425532,21.4144681 L31.2702128,21.4144681 C31.2287007,19.04764 30.8260466,16.701025 30.0761702,14.4557447 C31.2973868,13.7212431 32.421871,12.8367803 33.4234043,11.8229787 L33.4331915,11.7838298 Z M29.9782979,21.4242553 L21.7276596,21.4242553 L21.7276596,16.9906383 C24.2287952,16.8991205 26.6800836,16.2645908 28.9114894,15.1310638 C29.5733453,17.1783707 29.9295208,19.3121259 29.9685106,21.4634043 L29.9782979,21.4242553 Z M21.7276596,15.6595745 L21.7276596,6.22468085 C24.8117,7.91605052 27.1972141,10.644829 28.4612766,13.927234 C26.370945,14.9915192 24.072082,15.5829418 21.7276596,15.6595745 Z M20.4455319,15.6595745 C18.0992468,15.5823564 15.7980069,14.9945216 13.7021277,13.9370213 C14.9627454,10.6420937 17.3525675,7.90194938 20.4455319,6.20510638 L20.4455319,15.6595745 L20.4455319,15.6595745 Z M20.4455319,16.9514894 L20.4455319,21.4144681 L12.1948936,21.4144681 C12.2328497,19.2766758 12.5857204,17.1561539 13.2421277,15.1212766 C15.4790227,16.2508748 17.9319044,16.8882903 20.4357447,16.9906383 L20.4455319,16.9514894 Z M12.2046809,22.706383 L20.4455319,22.706383 L20.4455319,27.1693617 C17.9444588,27.2586143 15.4915364,27.8826912 13.2519149,28.9995745 C12.606172,26.9752294 12.2502998,24.8696522 12.1948936,22.7455319 L12.2046809,22.706383 Z M21.7276596,36.7608511 C21.8039186,37.1178647 21.8986559,37.4706797 22.0114894,37.8178723 L21.7276596,37.9744681 L21.7276596,36.7608511 Z M20.4455319,28.5004255 L20.4455319,37.9842553 C17.3503931,36.2901154 14.9597718,33.5490548 13.7021277,30.2523404 C15.7931533,29.1872082 18.0907558,28.5894308 20.4357447,28.5004255 L20.4455319,28.5004255 Z M21.7276596,31.8574468 L21.7276596,28.5004255 C22.1387234,28.5004255 22.5595745,28.5004255 22.9706383,28.5885106 C22.3922188,29.6084802 21.9730549,30.7108482 21.7276596,31.8574468 L21.7276596,31.8574468 Z M24.1548936,26.8659574 L23.8417021,27.2476596 L23.7438298,27.3846809 C23.0758625,27.2825784 22.4027926,27.2172318 21.7276596,27.1889362 L21.7276596,22.7455319 L29.9685106,22.7455319 C29.9685106,22.8531915 29.9685106,22.9706383 29.9685106,23.0880851 L29.9685106,23.0880851 C27.6899762,23.7233967 25.6609555,25.0419186 24.1548936,26.8659574 L24.1548936,26.8659574 Z M31.2604255,22.7455319 L31.6323404,22.7455319 L31.2604255,22.8042553 L31.2604255,22.7455319 L31.2604255,22.7455319 Z M37.132766,22.7455319 C37.132766,22.9412766 37.132766,23.1370213 37.132766,23.332766 C36.3452574,23.0454554 35.5276851,22.84845 34.6957447,22.7455319 L37.1719149,22.7455319 L37.132766,22.7455319 Z M32.5621277,10.8638298 C31.6858913,11.7838072 30.6997544,12.5924395 29.6259574,13.2714894 C28.5082114,10.5402846 26.6841606,8.15550704 24.3408511,6.36170213 C27.4673503,7.01325428 30.3292339,8.58047628 32.5621277,10.8638298 L32.5621277,10.8638298 Z M17.8323404,6.36170213 C15.4906952,8.16880008 13.6731143,10.5674663 12.5668085,13.3106383 C11.4757955,12.6345785 10.4702459,11.8294816 9.57191489,10.912766 C11.8078998,8.60327146 14.6854657,7.01788263 17.8323404,6.36170213 Z M9.56212766,33.2765957 C10.4583698,32.3575737 11.4642146,31.5522404 12.5570213,30.8787234 C13.6595745,33.6240218 15.4778458,36.0235991 17.8225532,37.8276596 C14.6741943,37.175492 11.7955133,35.5894888 9.56212766,33.2765957 L9.56212766,33.2765957 Z M33.1395745,44.7080851 C29.0956595,44.7019194 25.4209671,42.3551532 23.7144681,38.6889362 C23.5935059,38.4336311 23.485705,38.1722955 23.3914894,37.9059574 C23.3914894,37.8178723 23.3229787,37.7102128 23.293617,37.6221277 C22.1994558,34.3643773 22.7895436,30.7762038 24.8693617,28.0404255 L25.1434043,27.6880851 C28.2220801,23.982276 33.4453278,22.8807071 37.7583294,25.0276313 C42.071331,27.1745555 44.3412186,32.0060543 43.2404478,36.6964243 C42.139677,41.3867942 37.95738,44.7040465 33.1395745,44.7080851 L33.1395745,44.7080851 Z" id="Shape"></path>
                            <path d="M4.77617021,34.96 C5.15787234,35.4689362 5.56893617,35.9387234 5.98978723,36.4085106 L6.96851064,35.547234 C6.57702128,35.1068085 6.18553191,34.6468085 5.83319149,34.1770213 L4.77617021,34.96 Z" id="Path"></path>
                            <path d="M1.48765957,22.2365957 C1.48765957,21.9625532 1.48765957,21.6787234 1.48765957,21.3948936 L0.205531915,21.3165957 C0.205531915,21.6297872 0.205531915,21.9331915 0.205531915,22.2365957 C0.205531915,22.54 0.205531915,22.5595745 0.205531915,22.7259574 L1.48765957,22.7259574 C1.48765957,22.5106383 1.48765957,22.3834043 1.48765957,22.2365957 Z" id="Path"></path>
                            <path d="M1.66382979,24.4680851 L0.391489362,24.6638298 C0.479574468,25.172766 0.606808511,25.7795745 0.763404255,26.4255319 L2.01617021,26.1319149 C1.84978723,25.5251064 1.74212766,24.9476596 1.66382979,24.4680851 Z" id="Path"></path>
                            <path d="M2.49574468,27.893617 L1.27234043,28.2851064 C1.46808511,28.8821277 1.69319149,29.4791489 1.93787234,30.0565957 L3.12212766,29.5476596 C2.88723404,29.0191489 2.68170213,28.4514894 2.49574468,27.893617 Z" id="Path"></path>
                            <path d="M3.91489362,31.1723404 L2.77957447,31.7693617 C3.07319149,32.327234 3.38638298,32.8753191 3.75829787,33.4038298 L4.84468085,32.7187234 C4.45319149,32.2195745 4.15957447,31.7008511 3.91489362,31.1723404 Z" id="Path"></path>
                            <path d="M20.2302128,41.9089362 C18.1254437,41.7981623 16.0527722,41.3452819 14.093617,40.5680851 C13.2601067,40.2363712 12.4521131,39.8438237 11.6761702,39.393617 C11.4021277,39.2370213 11.1280851,39.0608511 10.8540426,38.8846809 C10.58,38.7085106 10.5897872,38.7085106 10.4625532,38.6204255 C9.8899208,38.2212385 9.33786661,37.7933148 8.80851064,37.3382979 L7.97659574,38.3170213 C8.54361069,38.8044828 9.13836409,39.2587175 9.75787234,39.6774468 L10.1787234,39.9612766 C10.4625532,40.147234 10.7561702,40.3331915 11.0595745,40.4897872 C11.8908783,40.9693942 12.7541932,41.3912413 13.6434043,41.7523404 C15.7330798,42.5836731 17.9450315,43.0664009 20.1910638,43.1812766 C20.6119149,43.1812766 21.2285106,43.1812766 21.7374468,43.1812766 L21.9919149,43.1812766 L21.9919149,41.8991489 C21.4144681,41.9578723 20.7,41.9382979 20.2302128,41.9089362 Z" id="Path"></path>
                            <path d="M4.49234043,10.7659574 L7.42851064,10.7659574 L7.42851064,9.48382979 L6.05829787,9.48382979 C7.81189997,7.4928936 9.91069874,5.83507467 12.253617,4.59021277 C15.3798273,2.9090339 18.907054,2.11693116 22.4519149,2.3 C27.6433052,2.54300965 32.510791,4.89368358 35.9289362,8.80851064 C39.0366497,12.3466197 40.8607058,16.8291772 41.106383,21.5319149 C41.106383,22.1093617 41.106383,22.6965957 41.106383,23.2642553 L42.3885106,23.3425532 C42.4209444,22.7198547 42.4209444,22.09589 42.3885106,21.4731915 C42.124148,16.4868916 40.1862976,11.7353653 36.8880851,7.98638298 C35.1524334,6.00786431 33.0566943,4.37710693 30.7123404,3.18085106 C28.1623823,1.88168681 25.3683944,1.13151106 22.5106383,0.978723404 C18.7308184,0.8056279 14.975205,1.66502051 11.6468085,3.46468085 C9.19312499,4.77483171 6.98984803,6.50763449 5.13829787,8.58340426 L5.13829787,7.14468085 L3.84638297,7.14468085 L3.84638297,10.1297872 C3.84638297,10.3002196 3.91472953,10.4635331 4.03615982,10.5831235 C4.1575901,10.7027139 4.32192825,10.7685795 4.49234043,10.7659574 Z" id="Path"></path>
                            <path d="M33.1395745,28.4514894 C34.5589502,28.4568557 35.7082507,29.6061562 35.713617,31.0255319 L36.9957447,31.0255319 C36.9739092,29.1486266 35.6229942,27.5513441 33.7757447,27.2182979 L33.7757447,26.0438298 L32.493617,26.0438298 L32.493617,27.2182979 C30.5017244,27.5381739 29.0930488,29.3392946 29.262498,31.3495791 C29.4319473,33.3598636 31.122242,34.8997684 33.1395745,34.8817021 C34.5611789,34.8817021 35.713617,36.0341402 35.713617,37.4557447 C35.713617,38.8773491 34.5611789,40.0297872 33.1395745,40.0297872 C31.71797,40.0297872 30.5655319,38.8773491 30.5655319,37.4557447 L29.2834043,37.4557447 C29.3052398,39.33265 30.6561547,40.9299325 32.5034043,41.2629787 L32.5034043,42.5842553 L33.7855319,42.5842553 L33.7855319,41.2629787 C35.7774245,40.9431027 37.1861002,39.141982 37.0166509,37.1316975 C36.8472016,35.121413 35.156907,33.5815082 33.1395745,33.5995745 C31.71797,33.5995745 30.5655319,32.4471364 30.5655319,31.0255319 C30.5655319,29.6039275 31.71797,28.4514894 33.1395745,28.4514894 Z" id="Path"></path>
                        </g>
                    </g>
                </g>
            </g>
        </g>
    </g>
</svg>