<?xml version="1.0" encoding="UTF-8"?>
<svg width="32px" height="46px" viewBox="0 0 32 46" version="1.1" xmlns="http://www.w3.org/2000/svg" xmlns:xlink="http://www.w3.org/1999/xlink">
    <!-- Generator: Sketch 62 (91390) - https://sketch.com -->
    <title>icon/bank/ung-dung-2</title>
    <desc>Created with Sketch.</desc>
    <defs>
        <rect id="path-1" x="0" y="0" width="46" height="46"></rect>
    </defs>
    <g id="Page-1" stroke="none" stroke-width="1" fill="none" fill-rule="evenodd">
        <g id="08.-Icon-set" transform="translate(-481.000000, -272.000000)">
            <g id="icon/bank/ung-dung-2" transform="translate(474.000000, 272.000000)">
                <g id="icon/ung-dung-2">
                    <g id="Ung-dung-2">
                        <mask id="mask-2" fill="white">
                            <use xlink:href="#path-1"></use>
                        </mask>
                        <g id="Mask"></g>
                        <g mask="url(#mask-2)" fill="#141ED2" fill-rule="nonzero">
                            <g transform="translate(7.000000, 0.000000)">
                                <path d="M16,20.78 C14.768405,20.78 13.77,19.781595 13.77,18.55 C13.77,17.318405 14.768405,16.32 16,16.32 C17.231595,16.32 18.23,17.318405 18.23,18.55 L19.72,18.55 C19.7145432,16.7790715 18.4582064,15.258904 16.72,14.92 L16.72,13.37 L15.26,13.37 L15.26,14.93 C13.4058401,15.3211836 12.1444916,17.0468181 12.3345746,18.9322363 C12.5246576,20.8176546 14.1050702,22.25679 16,22.27 C17.231595,22.27 18.23,23.268405 18.23,24.5 C18.23,25.731595 17.231595,26.73 16,26.73 C14.768405,26.73 13.77,25.731595 13.77,24.5 L12.29,24.5 C12.2954568,26.2709285 13.5517936,27.791096 15.29,28.13 L15.29,29.69 L16.78,29.69 L16.78,28.13 C18.6665996,27.759824 19.9578422,26.0097409 19.7549532,24.0979029 C19.5520643,22.1860649 17.9222722,20.7459692 16,20.78 L16,20.78 Z" id="Path"></path>
                                <path d="M29.36,0 L2.64,0 C1.41231205,0.00550538243 0.42,1.0022997 0.42,2.23 L0.42,43.77 C0.42,44.9977003 1.41231205,45.9944946 2.64,46 L29.36,46 C30.591595,46 31.59,45.001595 31.59,43.77 L31.59,2.23 C31.59,0.998405008 30.591595,0 29.36,0 L29.36,0 Z M30.1,43.77 C30.094616,44.1764397 29.7664397,44.504616 29.36,44.51 L2.64,44.51 C2.2335603,44.504616 1.90538401,44.1764397 1.9,43.77 L1.9,2.23 C1.90538401,1.8235603 2.2335603,1.49538401 2.64,1.49 L29.36,1.49 C29.7664397,1.49538401 30.094616,1.8235603 30.1,2.23 L30.1,43.77 L30.1,43.77 Z" id="Shape"></path>
                                <path d="M3.39,5.93 L3.39,37.1 L28.61,37.1 L28.61,5.93 L3.39,5.93 Z M27.13,35.61 L4.87,35.61 L4.87,7.42 L27.13,7.42 L27.13,35.62 L27.13,35.62 L27.13,35.61 Z" id="Shape"></path>
                                <rect id="Rectangle" x="13.03" y="2.97" width="5.93" height="1.49"></rect>
                                <rect id="Rectangle" x="10.07" y="2.97" width="1.49" height="1.49"></rect>
                                <path d="M16,37.84 C14.3431458,37.84 13,39.1831458 13,40.84 C13,42.4968542 14.3431458,43.84 16,43.84 C17.6568542,43.84 19,42.4968542 19,40.84 C19,39.1831458 17.6568542,37.84 16,37.84 Z M16,42.29 C15.3973513,42.29 14.8540432,41.9269732 14.6234195,41.3701983 C14.3927958,40.8134235 14.5202739,40.1725479 14.9464109,39.7464109 C15.3725479,39.3202739 16.0134235,39.1927958 16.5701983,39.4234195 C17.1269732,39.6540432 17.49,40.1973513 17.49,40.8 C17.49,41.6229043 16.8229043,42.29 16,42.29 L16,42.29 Z" id="Shape"></path>
                            </g>
                        </g>
                    </g>
                </g>
            </g>
        </g>
    </g>
</svg>