<?xml version="1.0" encoding="UTF-8"?>
<svg width="44px" height="46px" viewBox="0 0 44 46" version="1.1" xmlns="http://www.w3.org/2000/svg" xmlns:xlink="http://www.w3.org/1999/xlink">
    <!-- Generator: Sketch 62 (91390) - https://sketch.com -->
    <title>icon/bank/ung-dung-1</title>
    <desc>Created with Sketch.</desc>
    <g id="Page-1" stroke="none" stroke-width="1" fill="none" fill-rule="evenodd">
        <g id="08.-Icon-set" transform="translate(-1076.000000, -186.000000)" fill="#141ED2">
            <g id="icon/bank/ung-dung-1" transform="translate(1076.000000, 186.000000)">
                <g id="icon/ung-dung-1">
                    <g id="Ung-dung-1" fill-rule="nonzero">
                        <path d="M36.83,14.1099771 C36.175554,14.1106488 35.5332527,14.2867637 34.97,14.62 C34.4079248,14.2839946 33.7648455,14.1076664 33.11,14.1099771 C31.0610236,14.1099771 29.4000001,15.7710236 29.4000001,17.82 C29.4000001,19.8689764 31.0610236,21.5300024 33.11,21.5300024 C33.7767886,21.53077 34.4308352,21.3473602 35,21 C35.5626699,21.334609 36.2053551,21.5108291 36.86,21.51 C38.79771,21.359758 40.2910513,19.7395713 40.2832032,17.7960615 C40.2752931,15.8525516 38.7688644,14.2445262 36.83,14.1099771 Z M33.12,20 C31.888405,20 30.89,19.001595 30.89,17.77 C30.89,16.538405 31.888405,15.54 33.12,15.54 C34.351595,15.54 35.35,16.538405 35.35,17.77 C35.35,18.3614328 35.1150542,18.928642 34.6968481,19.3468481 C34.278642,19.7650542 33.7114328,20 33.12,20 L33.12,20 Z M36.83,20 C36.5996362,20.0004653 36.3704769,19.9667654 36.15,19.9 C36.589939,19.2841751 36.8275691,18.5468228 36.83,17.79 C36.8302436,17.0327549 36.5923568,16.2946061 36.15,15.68 C36.3691979,15.6076768 36.5992611,15.573844 36.83,15.58 C37.6697537,15.5000237 38.4822794,15.9028899 38.926963,16.6197156 C39.3716465,17.3365413 39.3716465,18.2434587 38.926963,18.9602844 C38.4822794,19.6771101 37.6697537,20.0799763 36.83,20 Z" id="Shape"></path>
                        <rect id="Rectangle" x="12.35" y="2.97" width="5.94" height="1.48"></rect>
                        <rect id="Rectangle" x="9.38" y="2.97" width="1.48" height="1.48"></rect>
                        <path d="M15.32,37.84 C13.6631458,37.84 12.32,39.1831458 12.32,40.84 C12.32,42.4968542 13.6631458,43.84 15.32,43.84 C16.9768542,43.84 18.32,42.4968542 18.32,40.84 C18.32,39.1831458 16.9768542,37.84 15.32,37.84 Z M15.32,42.29 C14.5026186,42.29 13.84,41.6273814 13.84,40.81 C13.84,39.9926186 14.5026186,39.33 15.32,39.33 C16.1373814,39.33 16.8,39.9926186 16.8,40.81 C16.8,41.6290148 16.1389964,42.2945033 15.32,42.3 L15.32,42.29 Z" id="Shape"></path>
                        <path d="M41.29,11.14 L30.16,11.14 L30.16,2.23 C30.16,0.998405008 29.161595,0 27.93,0 L2.71,0 C1.47840501,0 0.48,0.998405008 0.48,2.23 L0.48,43.77 C0.48,45.001595 1.47840501,46 2.71,46 L27.93,46 C29.161595,46 30.16,45.001595 30.16,43.77 L30.16,31.91 L41.29,31.91 C42.521595,31.91 43.52,30.911595 43.52,29.68 L43.52,13.36 C43.5144946,12.132312 42.5177003,11.1399877 41.29,11.14 L41.29,11.14 Z M1.99991552,2.23 C1.99405016,1.83257886 2.303113,1.5014401 2.7,1.48 L27.92,1.48 C28.3286907,1.48 28.66,1.81130929 28.66,2.22 L28.66,5.94 L1.99991552,5.94 L1.99991552,2.23 Z M2,7.43 L28.67,7.43 L28.67,11.14 L16.8,11.14 L16.8,9.65 L15.31,9.65 L15.31,33.39 L16.8,33.39 L16.8,31.9 L28.67,31.9 L28.67,35.61 L2,35.61 L2,7.42 L2,7.43 Z M28.68,43.78 L28.68,43.78 C28.68,44.1886907 28.3486907,44.52 27.94,44.52 L2.71,44.52 C2.31307047,44.5038952 1.99967342,44.177256 1.99999974,43.78 L1.99999974,37.1 L28.68,37.1 L28.68,43.78 L28.68,43.78 Z M41.29,30.43 L16.8,30.43 L16.8,27.43 L19,27.43 L19,26 L16.8,26 L16.8,20.8 L21.25,20.8 L21.25,19.29 L16.8,19.29 L16.8,16.29 L19,16.29 L19,14.84 L16.8,14.84 L16.8,12.6099305 L41.28,12.6099305 C41.4770811,12.6072813 41.6668868,12.684372 41.8062574,12.8237426 C41.945628,12.9631132 42.0227187,13.1529189 42.0200695,13.35 L42.0200695,29.69 L42.0200695,29.69 C42.0200695,30.0948171 41.6947801,30.4245295 41.29,30.43 Z" id="Shape"></path>
                        <rect id="Rectangle" x="22" y="25.97" width="4.45" height="1.48"></rect>
                        <rect id="Rectangle" x="29.42" y="25.97" width="4.45" height="1.48"></rect>
                    </g>
                </g>
            </g>
        </g>
    </g>
</svg>