<?xml version="1.0" encoding="UTF-8"?>
<svg width="46px" height="46px" viewBox="0 0 46 46" version="1.1" xmlns="http://www.w3.org/2000/svg" xmlns:xlink="http://www.w3.org/1999/xlink">
    <!-- Generator: Sketch 62 (91390) - https://sketch.com -->
    <title>icon/ask</title>
    <desc>Created with Sketch.</desc>
    <defs>
        <rect id="path-1" x="0" y="0" width="46" height="46"></rect>
    </defs>
    <g id="Page-1" stroke="none" stroke-width="1" fill="none" fill-rule="evenodd">
        <g id="08.-Icon-set" transform="translate(-646.000000, -398.000000)">
            <g id="icon/other/ask" transform="translate(646.000000, 398.000000)">
                <g id="conversation-copy">
                    <mask id="mask-2" fill="white">
                        <use xlink:href="#path-1"></use>
                    </mask>
                    <g id="Mask"></g>
                    <g id="conversation" mask="url(#mask-2)" fill="#141ED2" fill-rule="nonzero">
                        <path d="M31.0859375,28.6601562 C30.5898203,28.6601562 30.1875,29.0623867 30.1875,29.5585938 L30.1875,35.7578125 C30.1875,38.2348047 28.1723047,40.25 25.6953125,40.25 L15.9950625,40.25 C15.4990352,40.25 15.0969844,40.6518711 15.096625,41.1478086 L15.0953672,42.934082 L12.9509766,40.7897813 C12.812168,40.4711055 12.4944805,40.25 12.1270195,40.25 L6.2890625,40.25 C3.81207031,40.25 1.796875,38.2348047 1.796875,35.7578125 L1.796875,21.921875 C1.796875,19.4448828 3.81207031,17.4296875 6.2890625,17.4296875 L15.3632812,17.4296875 C15.8593984,17.4296875 16.2617188,17.027457 16.2617188,16.53125 C16.2617188,16.035043 15.8593984,15.6328125 15.3632812,15.6328125 L6.2890625,15.6328125 C2.82127344,15.6328125 0,18.4540859 0,21.921875 L0,35.7578125 C0,39.2256016 2.82127344,42.046875 6.2890625,42.046875 L11.6669297,42.046875 L15.3569023,45.7368477 C15.5287734,45.9087188 15.7585039,46 15.9923672,46 C16.1079961,46 16.2247031,45.9776289 16.3356602,45.9317188 C16.6714063,45.7928203 16.8903555,45.4654297 16.890625,45.1021914 L16.8927812,42.046875 L25.6953125,42.046875 C29.1631016,42.046875 31.984375,39.2256016 31.984375,35.7578125 L31.984375,29.5585938 C31.984375,29.0623867 31.5820547,28.6601562 31.0859375,28.6601562 Z" id="Path"></path>
                        <path d="M32.9416602,0 L30.6678047,0 C23.4673672,0 17.609375,5.85799219 17.609375,13.0584297 C17.609375,20.2588672 23.4673672,26.1167695 30.6677148,26.1167695 L32.9415703,26.1167695 C34.0654258,26.1167695 35.1777813,25.9740078 36.2559063,25.6918984 L39.6148945,29.049 C39.7867656,29.2206914 40.0164063,29.3119727 40.2501797,29.3119727 C40.3659883,29.3119727 40.4827852,29.2896016 40.5939219,29.2435117 C40.9295781,29.1044336 41.1484375,28.7768633 41.1484375,28.4135352 L41.1484375,23.2155352 C42.5705742,22.0638281 43.7519297,20.6089883 44.5810078,18.9837148 C45.5226602,17.1377852 46,15.1442422 46,13.0584297 C46,5.85799219 40.1420078,0 32.9416602,0 Z M39.7094102,22.0597852 C39.4841719,22.2295 39.3515625,22.4952578 39.3515625,22.777457 L39.3515625,26.2454258 L37.1529961,24.0480273 C36.9819336,23.8771445 36.7524727,23.7850547 36.5178008,23.7850547 C36.4297539,23.7850547 36.3408086,23.798082 36.2540195,23.8247656 C35.1846094,24.1534141 34.0701875,24.3199844 32.9416602,24.3199844 L30.6678047,24.3199844 C24.4580742,24.3199844 19.40625,19.2680703 19.40625,13.0584297 C19.40625,6.84878906 24.4581641,1.796875 30.6678047,1.796875 L32.9416602,1.796875 C39.1513008,1.796875 44.203125,6.84878906 44.203125,13.0584297 C44.203125,16.6280117 42.5652734,19.9089258 39.7094102,22.0597852 Z" id="Shape"></path>
                        <path d="M35.8506211,9.83079297 C35.7209766,7.94991406 34.2047734,6.43371094 32.3238047,6.30406641 C31.2575391,6.23084375 30.2399688,6.59048828 29.4611133,7.31759375 C28.6929492,8.03463672 28.2524453,9.04825391 28.2524453,10.0986172 C28.2524453,10.5948242 28.6547656,10.9970547 29.1508828,10.9970547 C29.647,10.9970547 30.0493203,10.5948242 30.0493203,10.0986172 C30.0493203,9.53628516 30.2759063,9.01510156 30.6872109,8.63119922 C31.0981563,8.24765625 31.6352422,8.05781641 32.2003594,8.09680859 C33.1911563,8.16508984 33.9897773,8.96371094 34.0580586,9.95441797 C34.1270586,10.9550078 33.4705703,11.83925 32.4972031,12.0570313 C31.7085547,12.2334844 31.1578125,12.9188125 31.1578125,13.723543 L31.1578125,15.8820391 C31.1578125,16.3782461 31.5601328,16.7804766 32.05625,16.7804766 C32.552457,16.7804766 32.9546875,16.3782461 32.9545977,15.8820391 L32.9545977,13.7953281 C34.7649492,13.3579688 35.9795469,11.7014297 35.8506211,9.83079297 Z" id="Path"></path>
                        <path d="M32.6914453,18.8007031 C32.5243359,18.6335937 32.2925391,18.5374609 32.05625,18.5374609 C31.8199609,18.5374609 31.5881641,18.6335937 31.4210547,18.8007031 C31.2539453,18.9678125 31.1578125,19.1996094 31.1578125,19.4358984 C31.1578125,19.6730859 31.2540352,19.9048828 31.4210547,20.0719922 C31.5881641,20.2391016 31.8199609,20.3343359 32.05625,20.3343359 C32.2925391,20.3343359 32.5243359,20.2391016 32.6914453,20.0719922 C32.8585547,19.9039844 32.9546875,19.6730859 32.9546875,19.4358984 C32.9546875,19.1996094 32.8584648,18.9678125 32.6914453,18.8007031 Z" id="Path"></path>
                        <path d="M24.7070312,27.8515625 L5.75,27.8515625 C5.25388281,27.8515625 4.8515625,28.253793 4.8515625,28.75 C4.8515625,29.246207 5.25388281,29.6484375 5.75,29.6484375 L24.7070312,29.6484375 C25.2032383,29.6484375 25.6054688,29.246207 25.6054688,28.75 C25.6054688,28.253793 25.2031484,27.8515625 24.7070312,27.8515625 Z" id="Path"></path>
                        <path d="M25.3421367,33.1460547 C25.1751172,32.9789453 24.9433203,32.8828125 24.7070312,32.8828125 C24.4707422,32.8828125 24.2389453,32.9789453 24.0718359,33.1460547 C23.9046367,33.3131641 23.8085938,33.5449609 23.8085938,33.78125 C23.8085938,34.0175391 23.9047266,34.2493359 24.0718359,34.4164453 C24.2389453,34.5835547 24.4707422,34.6796875 24.7070312,34.6796875 C24.9433203,34.6796875 25.1751172,34.5835547 25.3421367,34.4164453 C25.5093359,34.2493359 25.6054688,34.0184375 25.6054688,33.78125 C25.6054688,33.5449609 25.5092461,33.3131641 25.3421367,33.1460547 Z" id="Path"></path>
                        <path d="M21.173207,32.8828125 L5.75,32.8828125 C5.25388281,32.8828125 4.8515625,33.285043 4.8515625,33.78125 C4.8515625,34.277457 5.25388281,34.6796875 5.75,34.6796875 L21.173207,34.6796875 C21.6694141,34.6796875 22.0716445,34.277457 22.0716445,33.78125 C22.0716445,33.285043 21.6693242,32.8828125 21.173207,32.8828125 Z" id="Path"></path>
                        <path d="M18.8671875,22.8203125 L5.75,22.8203125 C5.25388281,22.8203125 4.8515625,23.222543 4.8515625,23.71875 C4.8515625,24.214957 5.25388281,24.6171875 5.75,24.6171875 L18.8671875,24.6171875 C19.3633945,24.6171875 19.765625,24.214957 19.765625,23.71875 C19.765625,23.222543 19.3633047,22.8203125 18.8671875,22.8203125 Z" id="Path"></path>
                    </g>
                </g>
            </g>
        </g>
    </g>
</svg>