<?xml version="1.0" encoding="UTF-8"?>
<svg width="46px" height="46px" viewBox="0 0 46 46" version="1.1" xmlns="http://www.w3.org/2000/svg" xmlns:xlink="http://www.w3.org/1999/xlink">
    <!-- Generator: Sketch 62 (91390) - https://sketch.com -->
    <title>icon/other/calendar</title>
    <desc>Created with Sketch.</desc>
    <g id="Page-1" stroke="none" stroke-width="1" fill="none" fill-rule="evenodd">
        <g id="08.-Icon-set" transform="translate(-474.000000, -656.000000)" fill="#141ED2">
            <g id="icon/other/calendar" transform="translate(474.000000, 656.000000)">
                <g id="icon/calendar">
                    <g id="calendar-(3)" fill-rule="nonzero">
                        <path d="M42.1667625,3.06752917 L40.6334292,3.06752917 L40.6334292,0.767529167 C40.6334292,0.3441375 40.2901542,0.0008625 39.8667625,0.0008625 C39.4433708,0.0008625 39.1000958,0.3441375 39.1000958,0.767529167 L39.1000958,3.06752917 L32.9667625,3.06752917 L32.9667625,0.767529167 C32.9667625,0.3441375 32.6234875,0.0008625 32.2000958,0.0008625 C31.7767042,0.0008625 31.4334292,0.3441375 31.4334292,0.767529167 L31.4334292,3.06752917 L25.3000958,3.06752917 L25.3000958,0.767529167 C25.3000958,0.3441375 24.9568208,0.0008625 24.5334292,0.0008625 C24.1100375,0.0008625 23.7667625,0.3441375 23.7667625,0.767529167 L23.7667625,3.06752917 L17.6334292,3.06752917 L17.6334292,0.767529167 C17.6334292,0.3441375 17.2901542,0.0008625 16.8667625,0.0008625 C16.4433708,0.0008625 16.1000958,0.3441375 16.1000958,0.767529167 L16.1000958,3.06752917 L9.9667625,3.06752917 L9.9667625,0.767529167 C9.9667625,0.3441375 9.6234875,0.0008625 9.20009583,0.0008625 C8.77670417,0.0008625 8.43342917,0.3441375 8.43342917,0.767529167 L8.43342917,3.06752917 L6.90009583,3.06752917 C4.78409583,3.07002083 3.06925417,4.7848625 3.0667625,6.9008625 L3.0667625,25.6488333 C-1.09595,30.3526208 -1.01132917,37.4469708 3.2622625,42.0501333 C3.4750125,42.2880875 3.70079583,42.5140625 3.9384625,42.7271 L3.9453625,42.734 L3.9499625,42.734 C8.551975,47.0097958 15.6470917,47.0963333 20.3520292,42.9341 L42.1667625,42.9341 C44.2827625,42.9316083 45.9976042,41.2167667 46.0000958,39.1007667 L46.0000958,6.90076667 C45.9975083,4.78476667 44.2827625,3.07002083 42.1667625,3.06752917 Z M19.5940833,41.6067125 C15.4672125,45.4248083 9.09602083,45.4205917 4.97413333,41.5970333 C4.77029583,41.4139917 4.57652083,41.220025 4.39376667,41.0159 C0.359566667,36.6553875 0.624066667,29.849975 4.98457917,25.8156792 C9.34509167,21.7813833 16.1506,22.0458833 20.1848958,26.4064917 C24.2191917,30.7670042 23.9546917,37.5724167 19.5940833,41.6067125 Z M44.4667625,39.1008625 C44.4667625,40.3711333 43.4370333,41.4008625 42.1667625,41.4008625 L21.8347625,41.4008625 C21.9282958,41.2850958 22.0103292,41.1616625 22.0984958,41.0428292 C22.1866625,40.9239958 22.2625625,40.8266292 22.3399958,40.7146958 C22.5109625,40.4685958 22.6704292,40.2148292 22.8222292,39.9564625 C22.8666958,39.8797958 22.9165292,39.8100292 22.9586958,39.7341292 C23.147775,39.39785 23.320275,39.0530417 23.4761958,38.6998958 C23.5160625,38.6101958 23.5482625,38.5174292 23.5858292,38.4269625 C23.6969958,38.1601625 23.8012625,37.8902958 23.8924958,37.6165958 C23.9361958,37.4877958 23.9737625,37.3574625 24.0120958,37.2271292 C24.0887625,36.9810292 24.1523958,36.7326292 24.2098958,36.4819292 C24.2413292,36.3446958 24.2719958,36.2082292 24.2995958,36.0694625 C24.3501958,35.8072625 24.3908292,35.5419958 24.4245625,35.2751958 C24.4398958,35.1525292 24.4598292,35.0306292 24.4720958,34.9071958 C24.5096625,34.5184958 24.5334292,34.1274958 24.5334292,33.7341958 C24.5253792,26.9628042 19.0381542,21.4755792 12.2667625,21.4675292 C11.8734625,21.4675292 11.4824625,21.4912958 11.0937625,21.5288625 C10.9703292,21.5411292 10.8484292,21.5610625 10.7249958,21.5763958 C10.4589625,21.6108958 10.1944625,21.6530625 9.93149583,21.7013625 C9.79272917,21.7289625 9.65549583,21.7596292 9.5182625,21.7910625 C9.26832917,21.84885 9.021175,21.9144958 8.77689583,21.9880958 C8.64502917,22.0271958 8.5131625,22.0647625 8.38282917,22.1084625 C8.11372917,22.1989292 7.8461625,22.3016625 7.58702917,22.4097625 C7.49042917,22.4496292 7.3930625,22.4864292 7.29799583,22.5255292 C6.94839583,22.6788625 6.60799583,22.8513625 6.27219583,23.0391958 C6.18709583,23.0867292 6.10659583,23.1419292 6.0222625,23.1925292 C5.77462917,23.3397292 5.53082917,23.4922958 5.2931625,23.6525292 C5.1758625,23.7337958 5.0631625,23.8211958 4.9481625,23.9062958 C4.8331625,23.9913958 4.71279583,24.0741958 4.60009583,24.1661958 L4.60009583,12.2675292 L44.4667625,12.2675292 L44.4667625,39.1008625 Z M44.4667625,10.7341958 L4.60009583,10.7341958 L4.60009583,6.9008625 C4.60009583,5.63059167 5.629825,4.6008625 6.90009583,4.6008625 L8.43342917,4.6008625 L8.43342917,6.9008625 C8.43342917,7.32425417 8.77670417,7.66752917 9.20009583,7.66752917 C9.6234875,7.66752917 9.9667625,7.32425417 9.9667625,6.9008625 L9.9667625,4.6008625 L16.1000958,4.6008625 L16.1000958,6.9008625 C16.1000958,7.32425417 16.4433708,7.66752917 16.8667625,7.66752917 C17.2901542,7.66752917 17.6334292,7.32425417 17.6334292,6.9008625 L17.6334292,4.6008625 L23.7667625,4.6008625 L23.7667625,6.9008625 C23.7667625,7.32425417 24.1100375,7.66752917 24.5334292,7.66752917 C24.9568208,7.66752917 25.3000958,7.32425417 25.3000958,6.9008625 L25.3000958,4.6008625 L31.4334292,4.6008625 L31.4334292,6.9008625 C31.4334292,7.32425417 31.7767042,7.66752917 32.2000958,7.66752917 C32.6234875,7.66752917 32.9667625,7.32425417 32.9667625,6.9008625 L32.9667625,4.6008625 L39.1000958,4.6008625 L39.1000958,6.9008625 C39.1000958,7.32425417 39.4433708,7.66752917 39.8667625,7.66752917 C40.2901542,7.66752917 40.6334292,7.32425417 40.6334292,6.9008625 L40.6334292,4.6008625 L42.1667625,4.6008625 C43.4370333,4.6008625 44.4667625,5.63059167 44.4667625,6.9008625 L44.4667625,10.7341958 Z" id="Shape"></path>
                        <path d="M12.2667625,25.3008625 C11.8433708,25.3008625 11.5000958,25.6441375 11.5000958,26.0675292 L11.5000958,32.9675292 L7.6667625,32.9675292 C7.24337083,32.9675292 6.90009583,33.3108042 6.90009583,33.7341958 C6.90009583,34.1575875 7.24337083,34.5008625 7.6667625,34.5008625 L12.2667625,34.5008625 C12.6901542,34.5008625 13.0334292,34.1575875 13.0334292,33.7341958 L13.0334292,26.0675292 C13.0334292,25.6440417 12.6901542,25.3008625 12.2667625,25.3008625 Z" id="Path"></path>
                    </g>
                </g>
            </g>
        </g>
    </g>
</svg>