<?xml version="1.0" encoding="UTF-8"?>
<svg width="34px" height="46px" viewBox="0 0 34 46" version="1.1" xmlns="http://www.w3.org/2000/svg" xmlns:xlink="http://www.w3.org/1999/xlink">
    <!-- Generator: Sketch 62 (91390) - https://sketch.com -->
    <title>icon/other/Che-ban-phim</title>
    <desc>Created with Sketch.</desc>
    <defs>
        <rect id="path-1" x="0" y="0" width="46" height="46"></rect>
    </defs>
    <g id="Page-1" stroke="none" stroke-width="1" fill="none" fill-rule="evenodd">
        <g id="08.-Icon-set" transform="translate(-824.000000, -484.000000)">
            <g id="icon/other/Che-ban-phim" transform="translate(818.000000, 484.000000)">
                <g id="icon/Che-ban-phim">
                    <g id="Che-ban-phim">
                        <mask id="mask-2" fill="white">
                            <use xlink:href="#path-1"></use>
                        </mask>
                        <g id="Mask"></g>
                        <g id="Nghiem-cam" mask="url(#mask-2)" fill="#141ED2" fill-rule="nonzero">
                            <g transform="translate(6.000000, 0.000000)" id="Shape">
                                <path d="M8.73,46 L18,46 C21.1857644,45.9626515 24.0838268,44.1489507 25.51,41.3 L33.78,25.41 C33.9458453,25.0942561 33.8660657,24.7053927 33.59,24.48 L32.74,23.78 C31.7575576,22.8646522 30.4395938,22.3975716 29.1,22.49 C27.736419,22.5910236 26.476037,23.2538107 25.62,24.32 L24.62,25.51 L24.62,8.23 C24.6593556,6.18332824 23.0460082,4.4853024 21,4.42 C20.2368023,4.43108234 19.4959348,4.67920307 18.88,5.13 L18.88,3.8 C18.9123242,2.82218078 18.553948,1.87173841 17.8840633,1.15869583 C17.2141785,0.445653253 16.287932,0.0287101269 15.31,0 L15.25,0 C13.4197422,0.0416469167 11.898418,1.42234451 11.68,3.24 C11.0707874,2.75739839 10.3171959,2.4932892 9.54,2.49 C8.55592764,2.51616713 7.6225995,2.9323672 6.94551776,3.6469604 C6.26843602,4.36155359 5.90311792,5.31594691 5.93,6.3 L5.93,10.13 C5.32040171,9.67890816 4.57816383,9.44322126 3.82,9.46 L3.75,9.46 C1.70869625,9.51455065 0.0952381936,11.2084581 0.14,13.25 C0.14,18.69 0.14,28.25 0.14,36.88 C-0.000202468971,41.7681437 3.84222005,45.8476424 8.73,46 L8.73,46 Z M1.65,13.26 C1.61056276,12.0577892 2.54813226,11.0487858 3.75,11 L3.81,11 C4.39006743,11.0182337 4.93892122,11.2670104 5.33497417,11.6912188 C5.73102712,12.1154272 5.9415839,12.6800476 5.92,13.26 L5.92,23.26 C5.96421163,23.6435237 6.28893644,23.9329655 6.675,23.9329655 C7.06106356,23.9329655 7.38578837,23.6435237 7.43,23.26 L7.43,6.31 C7.40012443,5.72468236 7.60503185,5.15163801 7.99927165,4.71797423 C8.39351145,4.28431045 8.944492,4.02587803 9.53,4 C10.1110853,4.02845212 10.6569689,4.28694855 11.0471956,4.7184492 C11.4374223,5.14994985 11.639918,5.71898831 11.61,6.3 L11.61,23.2 C11.5765139,23.4904829 11.7126499,23.7744162 11.9601043,23.9301981 C12.2075586,24.0859799 12.5224414,24.0859799 12.7698957,23.9301981 C13.0173501,23.7744162 13.1534861,23.4904829 13.12,23.2 L13.12,3.8 C13.0805733,2.58122723 14.0315665,1.558798 15.25,1.51 L15.32,1.51 C16.5315228,1.56405885 17.4708171,2.58833685 17.42,3.8 L17.42,8.12 C17.42,8.12 17.42,8.19 17.42,8.23 C17.42,8.27 17.42,8.23 17.42,8.23 C17.42,10.15 17.42,12.23 17.42,14.23 C17.42,18.82 17.42,22.78 17.42,23.17 C17.3865139,23.4604829 17.5226499,23.7444162 17.7701043,23.9001981 C18.0175586,24.0559799 18.3324414,24.0559799 18.5798957,23.9001981 C18.8273501,23.7444162 18.9634861,23.4604829 18.93,23.17 C18.93,22.79 18.93,18.82 18.93,14.23 C18.93,12.23 18.93,10.07 18.93,8.11 C18.871047,7.31038046 19.2703933,6.54644113 19.960619,6.13845183 C20.6508448,5.73046253 21.5126682,5.74893018 22.1847832,6.18611249 C22.8568981,6.6232948 23.2231526,7.40363987 23.13,8.2 L23.13,27.62 C23.1345976,27.9368498 23.3353067,28.2175939 23.633628,28.3244553 C23.9319492,28.4313166 24.2652657,28.3418652 24.47,28.1 L26.78,25.28 C27.3786771,24.5310483 28.2635111,24.066873 29.22,24 C30.1485491,23.9369253 31.0614867,24.2629744 31.74,24.9 L31.74,24.9 L32.13,25.23 L24.13,40.57 C22.9796451,42.9194259 20.6152788,44.4313862 18,44.49 L8.73,44.49 C4.68399837,44.3327125 1.5249094,40.9368036 1.66,36.89 C1.65,28.3 1.64,18.7 1.65,13.26 Z"></path>
                            </g>
                        </g>
                    </g>
                </g>
            </g>
        </g>
    </g>
</svg>