<?xml version="1.0" encoding="UTF-8"?>
<svg width="46px" height="45px" viewBox="0 0 46 45" version="1.1" xmlns="http://www.w3.org/2000/svg" xmlns:xlink="http://www.w3.org/1999/xlink">
    <!-- Generator: Sketch 62 (91390) - https://sketch.com -->
    <title>icon/other/family</title>
    <desc>Created with Sketch.</desc>
    <defs>
        <rect id="path-1" x="0" y="0" width="46" height="46"></rect>
    </defs>
    <g id="Page-1" stroke="none" stroke-width="1" fill="none" fill-rule="evenodd">
        <g id="08.-Icon-set" transform="translate(-904.000000, -571.000000)">
            <g id="icon/other/family" transform="translate(904.000000, 570.000000)">
                <g id="icon/family">
                    <g id="family">
                        <mask id="mask-2" fill="white">
                            <use xlink:href="#path-1"></use>
                        </mask>
                        <g id="Mask"></g>
                        <g mask="url(#mask-2)" fill="#141ED2" fill-rule="nonzero" id="Shape">
                            <g transform="translate(0.000000, 1.000000)">
                                <path d="M22.8300253,12.1776133 C22.7280405,12.1776133 22.6251987,12.1573306 22.529213,12.1173365 C16.2727171,9.49372762 15.5413976,5.61830536 15.4739791,5.13637719 C15.4197014,4.84842011 15.1151754,2.96384392 16.1435935,1.54177015 C16.7620727,0.686754769 17.7067891,0.182829889 18.951175,0.0454218188 C20.2324126,-0.099413752 21.3031101,0.182829889 22.1258446,0.879583186 C22.4120877,1.12211844 22.6434817,1.39550624 22.8300253,1.67803554 C23.0165689,1.39607762 23.2485344,1.12211844 23.5347774,0.879583186 C24.3572263,0.183401196 25.4244957,-0.0979854118 26.7088757,0.0454218188 C27.9535473,0.182829889 28.8982636,0.686754769 29.5167428,1.54177015 C30.545161,2.96384392 30.2412063,4.84784873 30.186643,5.13637719 C30.1195101,5.61830536 29.3879049,9.49372762 23.131409,12.1173365 C23.0348519,12.1576163 22.9322958,12.1776133 22.8300253,12.1776133 Z M19.5722252,1.56662361 C19.4282467,1.56662361 19.2785547,1.57547945 19.1231493,1.59261975 C18.3255539,1.68117794 17.7647804,1.96170759 17.4096905,2.44877782 C16.7195077,3.39435112 17.002037,4.83899296 17.0051794,4.85356224 C17.0328895,5.05553208 17.4922496,8.2059196 22.8300253,10.5518556 C28.2420758,8.17363871 28.6405877,4.96211741 28.6440158,4.92926522 C28.6465869,4.90298342 28.6505862,4.87698728 28.6557284,4.85041983 C28.6585851,4.83927862 28.940543,3.39463684 28.2506459,2.44877782 C27.8949846,1.96085056 27.3344967,1.68089229 26.537187,1.59261975 C25.6953125,1.50091915 25.023984,1.65946689 24.5403418,2.06797746 C23.700467,2.77901431 23.6084807,4.04368295 23.6073381,4.0562525 C23.58477,4.46876244 23.2433923,4.79128577 22.8300253,4.79128577 C22.4166584,4.79128577 22.0752807,4.46876244 22.052427,4.0562525 C22.0521413,4.04711101 21.9595837,2.77158688 21.1122814,2.06169265 C20.7191971,1.73317023 20.202417,1.56662361 19.5722252,1.56662361 L19.5722252,1.56662361 Z"></path>
                                <path d="M7.07951613,15.2688667 C3.93141391,15.2688667 1.37065286,12.7081056 1.37065286,9.56086049 C1.37065286,6.41332965 3.93141391,3.85285425 7.07951613,3.85285425 C10.2273326,3.85285425 12.787808,6.41332965 12.787808,9.56086049 C12.787808,12.7081056 10.2273326,15.2688667 7.07951613,15.2688667 Z M7.07951613,5.40976499 C4.79042874,5.40976499 2.92842063,7.27177317 2.92842063,9.56086049 C2.92842063,11.8496622 4.79042874,13.711956 7.07951613,13.711956 C9.36831773,13.711956 11.2306116,11.8496622 11.2306116,9.56086049 C11.2306116,7.27177317 9.36831773,5.40976499 7.07951613,5.40976499 Z"></path>
                                <path d="M7.04980628,44.8790242 C4.47419022,44.8790242 2.37850262,42.7833366 2.37850262,40.2074349 L2.37850262,34.7573902 L0.821591812,34.7573902 C0.391084541,34.7573902 0.0425650652,34.4088707 0.0425650652,33.9789348 L0.0425650652,20.7251962 C0.0425650652,18.159293 2.13025386,16.0718899 4.69587146,16.0718899 L9.40402675,16.0718899 C11.9699299,16.0718899 14.0570474,18.1595787 14.0570474,20.7251962 L14.0570474,33.9789348 C14.0570474,34.4091564 13.7085279,34.7573902 13.278592,34.7573902 L11.7208242,34.7573902 L11.7208242,40.2080062 C11.7208242,42.7836223 9.62599364,44.8790242 7.04980628,44.8790242 Z M1.59947587,33.2001937 L3.15724364,33.2001937 C3.58717953,33.2001937 3.93541335,33.5489989 3.93541335,33.9789348 L3.93541335,40.2074349 C3.93541335,41.9243218 5.33263366,43.3218278 7.04980628,43.3218278 C8.76697882,43.3218278 10.1639135,41.9243218 10.1639135,40.2074349 L10.1639135,33.9789348 C10.1639135,33.5489989 10.5130043,33.2001937 10.9429401,33.2001937 L12.499851,33.2001937 L12.499851,20.7251962 C12.499851,19.0180221 11.1109152,17.6288007 9.40402675,17.6288007 L4.69587146,17.6288007 C2.98869737,17.6288007 1.59947587,19.0180221 1.59947587,20.7251962 L1.59947587,33.2001937 Z"></path>
                                <path d="M37.6443884,15.2688667 C34.4968576,15.2688667 31.9360965,12.7081056 31.9360965,9.56086049 C31.9360965,6.41332965 34.4968576,3.85285425 37.6443884,3.85285425 C40.7922049,3.85285425 43.3529661,6.41332965 43.3529661,9.56086049 C43.3529661,12.7081056 40.7922049,15.2688667 37.6443884,15.2688667 Z M37.6443884,5.40976499 C35.3555868,5.40976499 33.4932929,7.27177317 33.4932929,9.56086049 C33.4932929,11.8496622 35.3555868,13.711956 37.6443884,13.711956 C39.9334758,13.711956 41.7960552,11.8496622 41.7960552,9.56086049 C41.7960552,7.27177317 39.9334758,5.40976499 37.6443884,5.40976499 Z"></path>
                                <path d="M37.414137,44.8790242 C34.8382353,44.8790242 32.742262,42.7833366 32.742262,40.2074349 L32.742262,34.7573902 L29.6284405,34.7573902 C29.3584807,34.7573902 29.107661,34.6176967 28.9662535,34.387731 C28.823989,34.1577653 28.8114194,33.8712366 28.9325442,33.629844 L32.7616877,26.0015526 L31.6547099,20.4540938 C31.4387421,19.3728264 31.7161293,18.2644202 32.4145966,17.4125472 C33.1142066,16.5601028 34.1463384,16.0718899 35.2484599,16.0718899 L40.041174,16.0718899 C41.1432954,16.0718899 42.1759986,16.5603885 42.8750372,17.4125472 C43.5735045,18.2652772 43.8511775,19.3736834 43.634924,20.4540938 L42.5242324,26.0215496 L45.9114417,33.6632676 C46.0185686,33.9040888 45.9968576,34.1829044 45.8528791,34.4040143 C45.7089005,34.6248385 45.4632229,34.7573902 45.1998336,34.7573902 L42.0857263,34.7573902 L42.0857263,40.2080062 C42.0857263,42.7836223 39.9897531,44.8790242 37.414137,44.8790242 L37.414137,44.8790242 Z M30.890538,33.2001937 L33.5212888,33.2001937 C33.9512247,33.2001937 34.3000298,33.5489989 34.3000298,33.9789348 L34.3000298,40.2074349 C34.3000298,41.9243218 35.6969645,43.3218278 37.414137,43.3218278 C39.131024,43.3218278 40.5288156,41.9243218 40.5288156,40.2074349 L40.5288156,33.9789348 C40.5288156,33.5489989 40.8767637,33.2001937 41.3066996,33.2001937 L44.0031548,33.2001937 L41.0004596,26.4272034 C40.934755,26.2800824 40.9173291,26.1166783 40.9481816,25.9587018 L42.1077231,20.1492821 C42.2317046,19.5276605 42.0728711,18.8897556 41.6706454,18.3995429 C41.268991,17.9096159 40.6747938,17.6288007 40.041174,17.6288007 L35.2484599,17.6288007 C34.6145543,17.6288007 34.0203572,17.9096159 33.6184171,18.3995429 C33.2170484,18.8900412 33.0570722,19.5276605 33.1807681,20.1492821 L34.3411665,25.9587018 C34.3754471,26.1289621 34.3511651,26.3055073 34.2731767,26.4609127 L30.890538,33.2001937 Z"></path>
                                <path d="M22.3618095,25.1288255 C20.0298713,25.1288255 18.1327255,23.2316798 18.1327255,20.899456 C18.1327255,18.5678035 20.0298713,16.6700864 22.3618095,16.6700864 C24.6940332,16.6700864 26.5914646,18.5678035 26.5914646,20.899456 C26.5914646,23.2316798 24.6940332,25.1288255 22.3618095,25.1288255 Z M22.3618095,18.2269972 C20.8883148,18.2269972 19.6896363,19.426247 19.6896363,20.8997417 C19.6896363,22.373522 20.8880291,23.5719147 22.3618095,23.5719147 C23.8355897,23.5719147 25.0345538,22.3732363 25.0345538,20.8997417 C25.0345538,19.426247 23.8355897,18.2269972 22.3618095,18.2269972 Z"></path>
                                <path d="M22.2318288,44.8790242 C20.7294813,44.8790242 19.5070921,43.6563494 19.5070921,42.1537162 L19.5070921,40.2074349 L17.9250422,40.2074349 C17.495392,40.2074349 17.1465869,39.8592011 17.1465869,39.4284082 L17.1465869,29.9489641 C17.1465869,27.8349935 18.8666162,26.1146786 20.9797297,26.1146786 L23.4590744,26.1146786 C25.5727594,26.1146786 27.2922173,27.8349935 27.2922173,29.9489641 L27.2922173,39.4284082 C27.2922173,39.8592011 26.9439835,40.2074349 26.5140476,40.2074349 L24.9568511,40.2074349 L24.9568511,42.1537162 C24.9568511,43.6563494 23.734462,44.8790242 22.2318288,44.8790242 L22.2318288,44.8790242 Z M18.7037833,38.6505241 L20.2852618,38.6505241 C20.7151977,38.6505241 21.0640029,38.9990436 21.0640029,39.4284082 L21.0640029,42.1537162 C21.0640029,42.7979059 21.5879248,43.3218278 22.2318288,43.3218278 C22.8760185,43.3218278 23.3999404,42.7979059 23.3999404,42.1537162 L23.3999404,39.4284082 C23.3999404,38.9990436 23.7484599,38.6505241 24.1783957,38.6505241 L25.7355922,38.6505241 L25.7355922,29.9489641 C25.7355922,28.693437 24.7146015,27.6715893 23.4590744,27.6715893 L20.980301,27.6715893 C19.7250596,27.6715893 18.7037833,28.693437 18.7037833,29.9489641 L18.7037833,38.6505241 Z"></path>
                            </g>
                        </g>
                    </g>
                </g>
            </g>
        </g>
    </g>
</svg>