<?xml version="1.0" encoding="UTF-8"?>
<svg width="46px" height="35px" viewBox="0 0 46 35" version="1.1" xmlns="http://www.w3.org/2000/svg" xmlns:xlink="http://www.w3.org/1999/xlink">
    <!-- Generator: Sketch 62 (91390) - https://sketch.com -->
    <title>icon/other/Khong-giao-dich-neu-thay</title>
    <desc>Created with Sketch.</desc>
    <defs>
        <rect id="path-1" x="0" y="0" width="46" height="46"></rect>
    </defs>
    <g id="Page-1" stroke="none" stroke-width="1" fill="none" fill-rule="evenodd">
        <g id="08.-Icon-set" transform="translate(-732.000000, -490.000000)">
            <g id="icon/other/Khong-giao-dich-neu-thay" transform="translate(732.000000, 484.000000)">
                <g id="icon/Khong-giao-dich-neu-thay">
                    <g id="Khong-giao-dich-neu-thay">
                        <mask id="mask-2" fill="white">
                            <use xlink:href="#path-1"></use>
                        </mask>
                        <g id="Mask"></g>
                        <g id="camera" mask="url(#mask-2)" fill="#141ED2" fill-rule="nonzero">
                            <g transform="translate(0.000000, 6.000000)">
                                <path d="M23,9.96666667 C18.3424042,9.96666667 14.5666667,13.7424042 14.5666667,18.4 C14.5666667,23.0575958 18.3424042,26.8333333 23,26.8333333 C27.6552958,26.8278708 31.4278708,23.0552958 31.4333333,18.4 C31.4333333,13.7424042 27.6575958,9.96666667 23,9.96666667 Z M23,25.3 C19.1892833,25.3 16.1,22.2107167 16.1,18.4 C16.1,14.5891875 19.1892833,11.5 23,11.5 C26.8088,11.5046 29.8954,14.5912 29.9,18.4 C29.9,22.2107167 26.8108125,25.3 23,25.3 Z" id="Shape"></path>
                                <path d="M42.1666667,5.36666667 L42.1666667,3.83333333 C42.1666667,3.40994167 41.8233917,3.06666667 41.4,3.06666667 L36.8,3.06666667 C36.3766083,3.06666667 36.0333333,3.40994167 36.0333333,3.83333333 L36.0333333,5.36666667 L34.1787667,5.36666667 L32.2153333,1.932 C31.53185,0.738683333 30.2624417,0.001725 28.8872333,0 L17.1127667,0 C15.7375583,0.001725 14.46815,0.738683333 13.7846667,1.932 L11.8212333,5.36666667 L11.5,5.36666667 L11.5,3.06666667 C11.5,2.643275 11.156725,2.3 10.7333333,2.3 L4.6,2.3 C4.17660833,2.3 3.83333333,2.643275 3.83333333,3.06666667 L3.83333333,5.36666667 C1.71733333,5.36915833 0.00249166667,7.084 0,9.2 L0,30.6666667 C0.00249166667,32.7826667 1.71733333,34.4975083 3.83333333,34.5 L42.1666667,34.5 C44.2826667,34.4975083 45.9975083,32.7826667 46,30.6666667 L46,9.2 C45.9975083,7.084 44.2826667,5.36915833 42.1666667,5.36666667 Z M37.5666667,4.6 L40.6333333,4.6 L40.6333333,5.36666667 L37.5666667,5.36666667 L37.5666667,4.6 Z M5.36666667,3.83333333 L9.96666667,3.83333333 L9.96666667,5.36666667 L5.36666667,5.36666667 L5.36666667,3.83333333 Z M44.4666667,30.6666667 C44.4666667,31.9369375 43.4369375,32.9666667 42.1666667,32.9666667 L3.83333333,32.9666667 C2.5630625,32.9666667 1.53333333,31.9369375 1.53333333,30.6666667 L1.53333333,9.2 C1.53333333,7.92972917 2.5630625,6.9 3.83333333,6.9 L12.2666667,6.9 C12.5411333,6.900575 12.7949,6.75433333 12.9321333,6.51666667 L15.1156,2.6956 C15.5252875,1.97867083 16.2869708,1.53534583 17.1127667,1.53333333 L28.8872333,1.53333333 C29.7110167,1.5361125 30.4707833,1.978 30.8805667,2.69253333 L33.0678667,6.51666667 C33.2051,6.75433333 33.4588667,6.900575 33.7333333,6.9 L42.1666667,6.9 C43.4369375,6.9 44.4666667,7.92972917 44.4666667,9.2 L44.4666667,30.6666667 Z" id="Shape"></path>
                                <path d="M23,6.9 C16.6487417,6.9 11.5,12.0487417 11.5,18.4 C11.5,24.7512583 16.6487417,29.9 23,29.9 C29.3512583,29.9 34.5,24.7512583 34.5,18.4 C34.4928125,12.0517125 29.3482875,6.9071875 23,6.9 Z M23,28.3666667 C17.495525,28.3666667 13.0333333,23.904475 13.0333333,18.4 C13.0333333,12.895525 17.495525,8.43333333 23,8.43333333 C28.504475,8.43333333 32.9666667,12.895525 32.9666667,18.4 C32.9603417,23.9017917 28.5017917,28.3603417 23,28.3666667 Z" id="Shape"></path>
                                <path d="M7.66666667,9.2 C7.243275,9.2 6.9,9.543275 6.9,9.96666667 L6.9,28.3666667 C6.9,28.7900583 7.243275,29.1333333 7.66666667,29.1333333 C8.09005833,29.1333333 8.43333333,28.7900583 8.43333333,28.3666667 L8.43333333,9.96666667 C8.43333333,9.543275 8.09005833,9.2 7.66666667,9.2 Z" id="Path"></path>
                                <path d="M38.3333333,8.43333333 C37.0630625,8.43333333 36.0333333,9.4630625 36.0333333,10.7333333 C36.0333333,12.0036042 37.0630625,13.0333333 38.3333333,13.0333333 C39.6036042,13.0333333 40.6333333,12.0036042 40.6333333,10.7333333 C40.6333333,9.4630625 39.6036042,8.43333333 38.3333333,8.43333333 Z M38.3333333,11.5 C37.9099417,11.5 37.5666667,11.156725 37.5666667,10.7333333 C37.5666667,10.3099417 37.9099417,9.96666667 38.3333333,9.96666667 C38.756725,9.96666667 39.1,10.3099417 39.1,10.7333333 C39.1,11.156725 38.756725,11.5 38.3333333,11.5 Z" id="Shape"></path>
                            </g>
                        </g>
                    </g>
                </g>
            </g>
        </g>
    </g>
</svg>