<?xml version="1.0" encoding="UTF-8"?>
<svg width="46px" height="46px" viewBox="0 0 46 46" version="1.1" xmlns="http://www.w3.org/2000/svg" xmlns:xlink="http://www.w3.org/1999/xlink">
    <!-- Generator: Sketch 62 (91390) - https://sketch.com -->
    <title>icon/like</title>
    <desc>Created with Sketch.</desc>
    <g id="Page-1" stroke="none" stroke-width="1" fill="none" fill-rule="evenodd">
        <g id="08.-Icon-set" transform="translate(-732.000000, -398.000000)" fill="#141ED2">
            <g id="icon/other/like" transform="translate(732.000000, 398.000000)">
                <g id="Like">
                    <path d="M45.09,19.71 C44.6275559,19.0041034 43.9115448,18.5028956 43.09,18.31 C43.5732597,17.3968473 43.6024261,16.3104182 43.1688565,15.3726521 C42.7352868,14.4348861 41.8887135,13.7533492 40.88,13.53 C41.444927,12.4568493 41.3797537,11.1610514 40.71,10.15 C40.2475559,9.44410337 39.5315448,8.94289564 38.71,8.75 C39.4114648,7.40872919 39.1169283,5.76280473 37.9938522,4.74803366 C36.8707761,3.73326259 35.2035121,3.60657483 33.94,4.44 L30.64,6.63 C28.8611177,5.73098458 26.9613947,5.0943753 25,4.74 C24.3856591,3.80835928 23.6714263,2.94658546 22.87,2.17 L21.49,0.84 C20.3834545,-0.169893756 18.7015033,-0.208670929 17.5495923,0.7491544 C16.3976813,1.70697973 16.1289417,3.36777555 16.92,4.64 L17,4.8 C7.16930726,6.80991219 0.172786516,15.5486714 0.362137148,25.58094 C0.55148778,35.6132086 7.8727815,44.0817312 17.7723165,45.7192519 C27.6718514,47.3567727 37.3301757,41.696915 40.74,32.26 C40.8502678,32.0137908 40.8136483,31.7265976 40.6451259,31.5159364 C40.4766035,31.3052752 40.2044572,31.2064962 39.940046,31.2600185 C39.6756348,31.3135408 39.4633283,31.5103832 39.39,31.77 C35.8123626,41.6734534 24.9878233,46.9148559 15,43.58 L20.82,39.73 L20.82,39.73 L25.66,36.53 L25.66,36.53 C26.5329507,35.9199774 26.7747647,34.7328905 26.21,33.83 L26.15,33.73 L27.09,33.11 C27.7582277,32.6672632 28.5686443,32.4923274 29.36,32.62 C30.5069554,32.8064346 31.6820091,32.5528516 32.65,31.91 L40.44,26.75 C40.3880329,27.42072 40.3012493,28.0882867 40.18,28.75 C40.1128028,29.13561 40.3659755,29.5042651 40.75,29.58 L40.88,29.58 C41.2244216,29.576089 41.517831,29.3287869 41.58,28.99 C41.8037318,27.9258849 41.9441573,26.8459458 42,25.76 L44.2,24.31 C45.7125484,23.2832198 46.1104107,21.2268527 45.09,19.71 Z M29.17,7.54 L27,9 L26.55,7.83 C26.370702,7.34669916 26.1671094,6.87276215 25.94,6.41 C27.0481536,6.68977911 28.1291124,7.06794734 29.17,7.54 L29.17,7.54 Z M6.52,12.54 C9.40736463,9.18487401 13.3562775,6.91927789 17.71,6.12 C18.411014,7.81355598 18.5682687,9.68313987 18.16,11.47 L16.41,19 C15.7589353,18.3065236 14.7025263,18.1839802 13.91,18.71 L9,22 L9,22 L1.85,26.71 C1.85,26.21 1.78999886,25.71 1.78999886,25.19 C1.78839937,20.5286614 3.46778593,16.0230767 6.52,12.5 L6.52,12.54 Z M25.14,35 C25.113143,35.1347447 25.0340501,35.253384 24.92,35.33 L24.92,35.33 L20.67,38.14 L12.78,26.39 C12.5449611,26.1016362 12.1289405,26.0398119 11.8202039,26.2473659 C11.5114673,26.4549199 11.4116862,26.8635017 11.59,27.19 L19.47,38.94 L13.41,42.94 C7.36415049,40.3024289 3.06820598,34.7790716 2,28.27 L9.13,23.56 L10,24.79 C10.1308886,25.0296611 10.3860925,25.1746506 10.6589732,25.1643835 C10.9318538,25.1541165 11.1754414,24.9903602 11.287951,24.7415413 C11.4004607,24.4927224 11.3625267,24.2016691 11.19,23.99 L10.37,22.77 L14.71,19.9 C14.8253655,19.8244005 14.9660401,19.7977324 15.1010701,19.8258636 C15.2361001,19.8539949 15.3544218,19.9346206 15.43,20.05 L25.07,34.6 C25.1465821,34.7183353 25.1718442,34.8626901 25.14,35 L25.14,35 Z M44.14,21.91 C44.0420776,22.4025337 43.7501727,22.8349853 43.33,23.11 L40.82,24.77 L40.82,24.77 L31.82,30.7 C31.1521621,31.1436608 30.3413817,31.3186751 29.55,31.19 C28.4030446,31.0035654 27.2279909,31.2571484 26.26,31.9 L25.32,32.52 L17.5,20.61 L19.5,11.8 C20.0219195,9.53000736 19.7574809,7.15005927 18.75,5.05 L18.75,4.99 C18.5582253,4.59633752 18.3411023,4.21553713 18.1,3.85 C17.5968818,3.18668292 17.7032941,2.24518024 18.3417703,1.7108905 C18.9802465,1.17660076 19.9257634,1.23782809 20.49,1.85 L21.86,3.17 C23.342972,4.61456687 24.4871094,6.37004931 25.21,8.31 L25.95,10.31 L25.95,10.31 L25.95,10.31 L25.95,10.4 C26.054071,10.5615712 26.2191963,10.6740508 26.4076516,10.7117419 C26.596107,10.749433 26.7917917,10.7091154 26.95,10.6 L34.58,5.55 C35.4467901,5.04097777 36.5603635,5.29948907 37.114256,6.13831668 C37.6681485,6.97714429 37.4685446,8.10276947 36.66,8.7 L36,9.14 L36,9.14 L34.52,10.14 L34.52,10.14 L34.52,10.14 C34.1969134,10.3664367 34.1185633,10.8119134 34.345,11.135 C34.5714367,11.4580866 35.0169134,11.5364367 35.34,11.31 L36.82,10.31 C37.6867901,9.80097777 38.8003635,10.0594891 39.354256,10.8983167 C39.9081485,11.7371443 39.7085446,12.8627695 38.9,13.46 L36.81,15 C36.5596898,15.123643 36.4034197,15.3808435 36.409015,15.6599698 C36.4146102,15.939096 36.5810621,16.1898274 36.8361262,16.3033399 C37.0911903,16.4168524 37.3888838,16.3726821 37.6,16.19 L37.93,15.97 L39.08,15.21 C39.9467901,14.7009778 41.0603635,14.9594891 41.614256,15.7983167 C42.1681485,16.6371443 41.9685446,17.7627695 41.16,18.36 L40.09,19 L40.09,19 L39.04,19.7 C38.7896898,19.823643 38.6334197,20.0808435 38.639015,20.3599698 C38.6446102,20.639096 38.8110621,20.8898274 39.0661262,21.0033399 C39.3211903,21.1168524 39.6188838,21.0726821 39.83,20.89 L40.16,20.67 L40.16,20.67 L41.28,20 C41.9105107,19.5913253 42.7232183,19.5949482 43.3500604,20.009228 C43.9769026,20.4235077 44.2988116,21.1697525 44.17,21.91 L44.14,21.91 Z" id="Shape" fill-rule="nonzero"></path>
                </g>
            </g>
        </g>
    </g>
</svg>