<?xml version="1.0" encoding="UTF-8"?>
<svg width="46px" height="36px" viewBox="0 0 46 36" version="1.1" xmlns="http://www.w3.org/2000/svg" xmlns:xlink="http://www.w3.org/1999/xlink">
    <!-- Generator: Sketch 62 (91390) - https://sketch.com -->
    <title>icon/other/thong-bao</title>
    <desc>Created with Sketch.</desc>
    <defs>
        <rect id="path-1" x="0" y="0" width="46" height="46"></rect>
    </defs>
    <g id="Page-1" stroke="none" stroke-width="1" fill="none" fill-rule="evenodd">
        <g id="08.-Icon-set" transform="translate(-818.000000, -403.000000)">
            <g id="icon/other/thong-bao" transform="translate(818.000000, 398.000000)">
                <g id="icon/thong-bao">
                    <g id="Thong-bao">
                        <mask id="mask-2" fill="white">
                            <use xlink:href="#path-1"></use>
                        </mask>
                        <g id="Mask"></g>
                        <g mask="url(#mask-2)" fill="#141ED2" fill-rule="nonzero">
                            <g transform="translate(0.000000, 5.000000)">
                                <path d="M32.493617,-1.03647008e-07 C30.8605686,-0.0004245644 29.5261717,1.30354632 29.4889362,2.93617021 L29.4889362,3.52340426 L11.9502128,10.5408511 C11.6672697,10.6558811 11.4817365,10.9303156 11.4804255,11.2357447 L11.4804255,21.747234 C11.4817365,22.0526632 11.6672697,22.3270977 11.9502128,22.4421277 L29.4889362,29.4595745 L29.4889362,30.0076596 C29.5798079,31.5979152 30.8958735,32.8409241 32.4887234,32.8409241 C34.0815733,32.8409241 35.3976389,31.5979152 35.4885106,30.0076596 L35.4885106,2.93617021 C35.4513689,1.30734331 34.12286,0.00488359298 32.493617,-1.03647008e-07 L32.493617,-1.03647008e-07 Z M33.9910638,30.0174468 C33.9910638,30.8471665 33.3184431,31.5197872 32.4887234,31.5197872 C31.6590037,31.5197872 30.986383,30.8471665 30.986383,30.0174468 L30.986383,28.9506383 C30.985072,28.6452092 30.7995388,28.3707747 30.5165957,28.2557447 L12.9876596,21.2382979 L12.9876596,11.7446809 L30.5165957,4.73702128 C30.7995388,4.62199128 30.985072,4.34755679 30.986383,4.04212766 L30.986383,2.93617021 C30.986383,2.10645051 31.6590037,1.43382979 32.4887234,1.43382979 C33.3184431,1.43382979 33.9910638,2.10645051 33.9910638,2.93617021 L33.9910638,29.9489362 L33.9910638,30.0174468 Z" id="Shape"></path>
                                <path d="M12.2340426,10.4919149 L6.97829787,10.4919149 C3.65941905,10.4919149 0.96893617,13.1823978 0.96893617,16.5012766 C0.96893617,19.8201554 3.65941905,22.5106383 6.97829787,22.5106383 L12.2340426,22.5106383 C12.6502537,22.5106383 12.9876596,22.1732325 12.9876596,21.7570213 L12.9876596,11.2357447 C12.9823035,10.8233607 12.6464614,10.4919149 12.2340426,10.4919149 Z M11.4804255,20.993617 L6.97829787,20.993617 C5.36984256,20.993617 3.88356854,20.1355164 3.07934087,18.7425532 C2.2751132,17.3495901 2.2751132,15.6333887 3.07934087,14.2404255 C3.88356854,12.8474623 5.36984256,11.9893617 6.97829787,11.9893617 L11.4804255,11.9893617 L11.4804255,20.993617 L11.4804255,20.993617 Z" id="Shape"></path>
                                <path d="M39.4817021,13.5259574 L34.9795745,12.0285106 C34.7515188,11.9571262 34.5031222,11.9981337 34.3101119,12.1390312 C34.1171016,12.2799287 34.0023538,12.5040167 34.0008511,12.7429787 L34.0008511,20.2497872 C34.0008511,20.6659984 34.3382569,21.0034043 34.7544681,21.0034043 C34.8322583,21.0160131 34.9115715,21.0160131 34.9893617,21.0034043 L39.4914894,19.5059574 C39.798455,19.4038176 40.0042023,19.11498 40.0004255,18.7914894 L40.0004255,14.2893617 C40.0217895,13.9463906 39.8084369,13.6324 39.4817021,13.5259574 Z M38.5029787,18.1944681 L35.4982979,19.1731915 L35.4982979,13.7804255 L38.5029787,14.7591489 L38.5029787,18.1846809 L38.5029787,18.1944681 Z" id="Shape"></path>
                                <path d="M15.9140426,31.113617 L15.1604255,30.3404255 L12.9582979,21.5319149 C12.8738354,21.2001575 12.5763718,20.9670103 12.2340426,20.9642553 L6.23446809,20.9642553 C6.00553142,20.9645524 5.78914252,21.0689003 5.64635908,21.2478555 C5.50357564,21.4268108 5.44988084,21.6609678 5.50042553,21.8842553 L8.50510638,34.6076596 C8.58665226,34.9468318 8.89031208,35.1857108 9.23914894,35.1851075 L9.37617021,35.1851075 L15.013617,34.0987234 L15.013617,34.0987234 C15.3430371,34.0232877 15.644771,33.8571645 15.8846809,33.6191489 C16.5691389,32.9287982 16.5821348,31.8198179 15.9140426,31.113617 L15.9140426,31.113617 Z M14.847234,32.5914894 C14.8092664,32.6292182 14.7619935,32.6562313 14.7102128,32.6697872 L9.81659574,33.6485106 L7.17404255,22.5106383 L11.6468085,22.5106383 L13.7608511,30.947234 C13.7928991,31.0802747 13.8605677,31.2020783 13.9565957,31.2995745 L14.8570213,32.2 C14.9147772,32.2565834 14.9466437,32.3344794 14.9451595,32.4153191 C14.9356752,32.4869846 14.9009679,32.5529284 14.847234,32.6012766 L14.847234,32.5914894 Z" id="Shape"></path>
                                <rect id="Rectangle" x="41.4978723" y="15.7378723" width="4.50212766" height="1.49744681"></rect>
                                <polygon id="Rectangle" transform="translate(43.370935, 8.620092) rotate(-30.970000) translate(-43.370935, -8.620092) " points="41.183488 7.87136823 45.5583816 7.87136823 45.5583816 9.36881504 41.183488 9.36881504"></polygon>
                                <polygon id="Rectangle" transform="translate(43.371004, 24.357321) rotate(-59.040000) translate(-43.371004, -24.357321) " points="42.6222809 22.1698737 44.1197277 22.1698737 44.1197277 26.5447673 42.6222809 26.5447673"></polygon>
                                <rect id="Rectangle" x="29.4889362" y="3.7387234" width="1.49744681" height="25.5153191"></rect>
                                <rect id="Rectangle" x="8.48553191" y="13.4868085" width="1.49744681" height="3.00468085"></rect>
                                <rect id="Rectangle" x="5.48085106" y="13.4868085" width="1.49744681" height="3.00468085"></rect>
                            </g>
                        </g>
                    </g>
                </g>
            </g>
        </g>
    </g>
</svg>