<?xml version="1.0" encoding="UTF-8"?>
<svg width="46px" height="46px" viewBox="0 0 46 46" version="1.1" xmlns="http://www.w3.org/2000/svg" xmlns:xlink="http://www.w3.org/1999/xlink">
    <!-- Generator: Sketch 62 (91390) - https://sketch.com -->
    <title>icon/other/Time</title>
    <desc>Created with Sketch.</desc>
    <g id="Page-1" stroke="none" stroke-width="1" fill="none" fill-rule="evenodd">
        <g id="08.-Icon-set" transform="translate(-474.000000, -570.000000)" fill="#141ED2">
            <g id="icon/other/Time" transform="translate(474.000000, 570.000000)">
                <g id="icon/Time">
                    <g id="Time" fill-rule="nonzero">
                        <path d="M23,0 C10.2974508,0 0,10.2974508 0,23 C0,35.7025492 10.2974508,46 23,46 C35.7025492,46 46,35.7025492 46,23 C46,16.9000207 43.5767927,11.0498807 39.263456,6.73654403 C34.9501193,2.42320733 29.0999793,0 23,0 Z M23,44.47 C11.1424464,44.47 1.53,34.8575536 1.53,23 C1.53,11.1424464 11.1424464,1.53 23,1.53 C34.8575536,1.53 44.47,11.1424464 44.47,23 C44.47,28.694198 42.2079886,34.1551765 38.1815826,38.1815826 C34.1551765,42.2079886 28.694198,44.47 23,44.47 Z" id="Shape"></path>
                        <path d="M23,4.6 C12.8379606,4.6 4.6,12.8379606 4.6,23 C4.6,33.1620394 12.8379606,41.4 23,41.4 C33.1620394,41.4 41.4,33.1620394 41.4,23 C41.4,12.8379606 33.1620394,4.6 23,4.6 L23,4.6 Z M23.77,39.85 L23.77,37.57 C23.7254725,37.181178 23.3963634,36.8876071 23.005,36.8876071 C22.6136366,36.8876071 22.2845275,37.181178 22.24,37.57 L22.24,39.85 C13.5301312,39.4466014 6.55881345,32.4796163 6.15,23.77 L8.43,23.77 C8.81882204,23.7254725 9.11239292,23.3963634 9.11239292,23.005 C9.11239292,22.6136366 8.81882204,22.2845275 8.43,22.24 L6.15,22.24 C6.55339863,13.5301312 13.5203837,6.55881345 22.23,6.15 L22.23,8.43 C22.2745275,8.81882204 22.6036366,9.11239292 22.995,9.11239292 C23.3863634,9.11239292 23.7154725,8.81882204 23.76,8.43 L23.76,6.15 C32.4698688,6.55339863 39.4411865,13.5203837 39.85,22.23 L37.57,22.23 C37.181178,22.2745275 36.8876071,22.6036366 36.8876071,22.995 C36.8876071,23.3863634 37.181178,23.7154725 37.57,23.76 L39.85,23.76 C39.4466014,32.4698688 32.4796163,39.4411865 23.77,39.85 Z" id="Shape"></path>
                        <path d="M33,22.23 L25.16,22.23 C24.8350194,21.3152784 23.970731,20.7030741 23,20.7 C22.6534809,20.6993358 22.3114091,20.7780123 22,20.93 L22,20.93 L13.57,12.5 C13.2634498,12.2634868 12.8289502,12.2913892 12.5551697,12.5651697 C12.2813892,12.8389502 12.2534868,13.2734498 12.49,13.58 L20.92,22 L20.92,22 C20.5763626,22.7614757 20.6746667,23.6496614 21.1765067,24.31756 C21.6783468,24.9854586 22.5040805,25.3270742 23.3311097,25.2089442 C24.1581389,25.0908142 24.8552135,24.531686 25.15,23.75 L33,23.75 C33.3726128,23.6893557 33.6463068,23.3675156 33.6463068,22.99 C33.6463068,22.6124844 33.3726128,22.2906443 33,22.23 Z M23,23.77 C22.5747407,23.77 22.23,23.4252593 22.23,23 C22.23,22.5747407 22.5747407,22.23 23,22.23 C23.4252593,22.23 23.77,22.5747407 23.77,23 C23.77,23.4252593 23.4252593,23.77 23,23.77 Z" id="Shape"></path>
                    </g>
                </g>
            </g>
        </g>
    </g>
</svg>